<?xml version="1.0" encoding="UTF-8" standalone="no"?>
<svg
   id="svg1266"
   version="1.1"
   viewBox="0 0 210 297"
   height="297mm"
   width="210mm"
   sodipodi:docname="sheet_7_visaton.svg"
   inkscape:version="1.3.1 (9b9bdc1480, 2023-11-25, custom)"
   xmlns:inkscape="http://www.inkscape.org/namespaces/inkscape"
   xmlns:sodipodi="http://sodipodi.sourceforge.net/DTD/sodipodi-0.dtd"
   xmlns="http://www.w3.org/2000/svg"
   xmlns:svg="http://www.w3.org/2000/svg"
   xmlns:rdf="http://www.w3.org/1999/02/22-rdf-syntax-ns#"
   xmlns:cc="http://creativecommons.org/ns#"
   xmlns:dc="http://purl.org/dc/elements/1.1/">
  <sodipodi:namedview
     id="namedview545"
     pagecolor="#ffffff"
     bordercolor="#666666"
     borderopacity="1.0"
     inkscape:showpageshadow="2"
     inkscape:pageopacity="0.0"
     inkscape:pagecheckerboard="0"
     inkscape:deskcolor="#d1d1d1"
     inkscape:document-units="mm"
     showgrid="false"
     inkscape:zoom="0.76725251"
     inkscape:cx="505.70053"
     inkscape:cy="554.57622"
     inkscape:window-width="1517"
     inkscape:window-height="812"
     inkscape:window-x="0"
     inkscape:window-y="0"
     inkscape:window-maximized="0"
     inkscape:current-layer="svg1266" />
  <defs
     id="defs1260" />
  <metadata
     id="metadata1263">
    <rdf:RDF>
      <cc:Work
         rdf:about="">
        <dc:format>image/svg+xml</dc:format>
        <dc:type
           rdf:resource="http://purl.org/dc/dcmitype/StillImage" />
      </cc:Work>
    </rdf:RDF>
  </metadata>
  <path
     transform="scale(0.26458333)"
     id="path135"
     d="M 207.98438 165.67188 L 207.98438 595.53125 L 207.98438 902.43359 L 207.98438 958.0625 L 676.37109 958.0625 L 676.37109 165.67188 L 207.98438 165.67188 z "
     style="display:inline;fill:none;stroke:#ec008c;stroke-width:1.31105232;stroke-linecap:butt;stroke-linejoin:miter;stroke-miterlimit:10;stroke-opacity:1" />
  <path
     id="path327"
     style="display:inline;fill:none;stroke:#eb008b;stroke-width:1.33039372;stroke-linecap:butt;stroke-linejoin:miter;stroke-miterlimit:10;stroke-opacity:1;stroke-dasharray:none"
     d="M 272.86524 531.2129 L 272.86524 568.90235 L 276.64258 568.90235 L 285.72266 568.90235 L 285.72266 602.86134 L 276.64258 602.86134 L 276.64258 617.97852 L 276.64258 817.97657 L 276.64258 842.92579 L 301.5918 842.92579 L 301.5918 817.97657 L 350.17774 817.97657 L 350.17774 859.48439 L 408.45704 859.48439 L 408.45704 836.83985 L 457.48633 836.83985 L 457.48633 655.68165 L 483.88087 655.68165 L 483.88282 836.83985 L 589.32032 836.83985 L 589.32032 836.98829 L 607.22266 836.98829 L 619.63673 836.98829 L 619.63673 674.66016 L 619.63673 599.13087 L 457.48633 599.13087 L 457.48633 576.49219 L 480.11524 576.49219 L 480.11524 531.2129 L 272.86524 531.2129 z "
     transform="scale(0.26458333)" />
  <path
     id="path7137"
     style="font-style:normal;font-variant:normal;font-weight:bold;font-stretch:normal;font-size:13.33333302px;line-height:1.25;font-family:monospace;-inkscape-font-specification:'monospace Bold';letter-spacing:0px;word-spacing:0px;display:inline;fill:#00aeee;fill-opacity:1;stroke:none;stroke-width:0.26404649;stroke-opacity:1"
     d="m 63.16495,244.48269 h 0.759553 v -0.33705 q 0,-0.24247 -0.08248,-0.33877 -0.08249,-0.098 -0.286983,-0.098 -0.207931,0 -0.299009,0.10146 -0.09108,0.10146 -0.09108,0.33533 z m -1.000138,0 h 0.596302 v -0.33705 q 0,-0.1926 -0.06874,-0.27342 -0.06874,-0.0825 -0.226835,-0.0825 -0.158097,0 -0.228555,0.0843 -0.07217,0.0825 -0.07217,0.2717 z m -0.403836,0.49011 v -0.82716 q 0,-0.42819 0.163253,-0.64314 0.161533,-0.21668 0.484603,-0.21668 0.247457,0 0.386651,0.12725 0.139192,0.12726 0.161534,0.37316 0.02922,-0.29406 0.197622,-0.44194 0.168407,-0.14962 0.470855,-0.14962 0.371184,0 0.537874,0.22356 0.166691,0.22356 0.166691,0.72741 v 0.82716 z" />
  <path
     id="path7139"
     style="font-style:normal;font-variant:normal;font-weight:bold;font-stretch:normal;font-size:13.33333302px;line-height:1.25;font-family:monospace;-inkscape-font-specification:'monospace Bold';letter-spacing:0px;word-spacing:0px;display:inline;fill:#00aeee;fill-opacity:1;stroke:none;stroke-width:0.26404649;stroke-opacity:1"
     d="m 62.767988,242.00811 q 0,0.18057 0.159813,0.28374 0.158099,0.10319 0.441645,0.10319 0.283544,0 0.44336,-0.10319 0.158097,-0.10317 0.158097,-0.28374 0,-0.18228 -0.158097,-0.28546 -0.159816,-0.10318 -0.44336,-0.10318 -0.283546,0 -0.441645,0.10318 -0.159813,0.10318 -0.159813,0.28546 z m 0.601458,0.89078 q -0.465701,0 -0.737216,-0.24075 -0.273235,-0.24247 -0.273235,-0.65003 0,-0.40928 0.273235,-0.65003 0.271515,-0.24247 0.737216,-0.24247 0.465699,0 0.738934,0.24247 0.271513,0.24075 0.271513,0.65003 0,0.40756 -0.271513,0.65003 -0.273235,0.24075 -0.738934,0.24075 z" />
  <path
     id="path7141"
     style="font-style:normal;font-variant:normal;font-weight:bold;font-stretch:normal;font-size:13.33333302px;line-height:1.25;font-family:monospace;-inkscape-font-specification:'monospace Bold';letter-spacing:0px;word-spacing:0px;display:inline;fill:#00aeee;fill-opacity:1;stroke:none;stroke-width:0.26404649;stroke-opacity:1"
     d="m 62.678627,239.58684 h -1.022479 v -0.50214 h 2.673911 v 0.50214 h -0.285264 q 0.166691,0.0808 0.250894,0.2098 0.0842,0.12725 0.0842,0.30094 0,0.33017 -0.264642,0.51245 -0.264641,0.18229 -0.745805,0.18229 -0.488042,0 -0.749244,-0.18401 -0.261207,-0.18572 -0.261207,-0.52793 0,-0.15477 0.08077,-0.27687 0.07905,-0.12381 0.238866,-0.21667 z m 0.694254,0.70162 q 0.278392,0 0.436485,-0.0929 0.1581,-0.0929 0.1581,-0.25623 0,-0.16337 -0.1581,-0.25795 -0.158093,-0.0946 -0.436485,-0.0946 -0.27839,0 -0.436486,0.0946 -0.158099,0.0946 -0.158099,0.25795 0,0.16336 0.158099,0.25623 0.158096,0.0929 0.436486,0.0929 z" />
  <path
     id="path7143"
     style="font-style:normal;font-variant:normal;font-weight:bold;font-stretch:normal;font-size:13.33333302px;line-height:1.25;font-family:monospace;-inkscape-font-specification:'monospace Bold';letter-spacing:0px;word-spacing:0px;display:inline;fill:#00aeee;fill-opacity:1;stroke:none;stroke-width:0.26404649;stroke-opacity:1"
     d="m 64.235544,236.93169 q 0.07218,0.17541 0.10826,0.35769 0.03609,0.18228 0.03609,0.3852 0,0.48323 -0.257768,0.73945 -0.259485,0.25451 -0.745807,0.25451 -0.470853,0 -0.744088,-0.24591 -0.273235,-0.24591 -0.273235,-0.67066 0,-0.4282 0.25433,-0.66379 0.252614,-0.23731 0.713158,-0.23731 h 0.204497 v 1.30522 q 0.226835,-0.002 0.338534,-0.13414 0.111699,-0.13241 0.111699,-0.39552 0,-0.17368 -0.04984,-0.34221 -0.04983,-0.16853 -0.158093,-0.35253 z m -1.082622,0.42648 q -0.199342,0.003 -0.300731,0.10318 -0.103105,0.098 -0.103105,0.29062 0,0.17368 0.106542,0.27686 0.104826,0.10318 0.299011,0.1221 z" />
  <path
     id="path7145"
     style="font-style:normal;font-variant:normal;font-weight:bold;font-stretch:normal;font-size:13.33333302px;line-height:1.25;font-family:monospace;-inkscape-font-specification:'monospace Bold';letter-spacing:0px;word-spacing:0px;display:inline;fill:#00aeee;fill-opacity:1;stroke:none;stroke-width:0.26404649;stroke-opacity:1"
     d="m 63.080746,234.86467 h 1.249313 v 0.50041 h -1.171983 q -0.20965,0 -0.299013,0.0602 -0.09108,0.0585 -0.09108,0.19261 0,0.13585 0.12201,0.21495 0.12201,0.0774 0.338531,0.0774 h 1.10153 v 0.50042 h -1.924667 v -0.50042 h 0.2887 q -0.159813,-0.0533 -0.247457,-0.18229 -0.08764,-0.12897 -0.08764,-0.31125 0,-0.27343 0.182157,-0.41272 0.180436,-0.13929 0.539594,-0.13929 z" />
  <path
     id="path7147"
     style="font-style:normal;font-variant:normal;font-weight:bold;font-stretch:normal;font-size:13.33333302px;line-height:1.25;font-family:monospace;-inkscape-font-specification:'monospace Bold';letter-spacing:0px;word-spacing:0px;display:inline;fill:#00aeee;fill-opacity:1;stroke:none;stroke-width:0.26404649;stroke-opacity:1"
     d="m 64.058546,233.826 h 1.003572 v 0.50213 H 62.405392 V 233.826 h 0.2887 q -0.16669,-0.0791 -0.250894,-0.20808 -0.0842,-0.12898 -0.0842,-0.30266 0,-0.33017 0.264644,-0.51246 0.264639,-0.18228 0.745807,-0.18228 0.48804,0 0.749242,0.18572 0.261205,0.184 0.261205,0.52621 0,0.15477 -0.07905,0.27859 -0.08077,0.12209 -0.242297,0.21496 z m -0.692537,-0.70162 q -0.278391,0 -0.436488,0.0929 -0.158099,0.0929 -0.158099,0.25623 0,0.16336 0.158099,0.25794 0.158097,0.0946 0.436488,0.0946 0.278387,0 0.436484,-0.0946 0.158099,-0.0946 0.158099,-0.25794 0,-0.16337 -0.158099,-0.25623 -0.158097,-0.0929 -0.436484,-0.0929 z" />
  <path
     id="path7149"
     style="font-style:normal;font-variant:normal;font-weight:bold;font-stretch:normal;font-size:13.33333302px;line-height:1.25;font-family:monospace;-inkscape-font-specification:'monospace Bold';letter-spacing:0px;word-spacing:0px;display:inline;fill:#00aeee;fill-opacity:1;stroke:none;stroke-width:0.26404649;stroke-opacity:1"
     d="m 63.527543,231.80024 h -1.484741 v 0.51074 h -0.386654 v -1.0146 h 1.871395 q 0.226835,0 0.321347,-0.0705 0.09452,-0.0705 0.09452,-0.23904 v -0.40239 h 0.386652 v 0.54341 q 0,0.3594 -0.185592,0.51589 -0.185595,0.15649 -0.616924,0.15649 z" />
  <path
     id="path7151"
     style="font-style:normal;font-variant:normal;font-weight:bold;font-stretch:normal;font-size:13.33333302px;line-height:1.25;font-family:monospace;-inkscape-font-specification:'monospace Bold';letter-spacing:0px;word-spacing:0px;display:inline;fill:#00aeee;fill-opacity:1;stroke:none;stroke-width:0.26404649;stroke-opacity:1"
     d="m 63.426152,229.14166 q 0,0.28202 0.07218,0.3938 0.07218,0.11177 0.247456,0.11177 0.130604,0 0.207934,-0.0774 0.07733,-0.0774 0.07733,-0.2098 0,-0.19948 -0.149506,-0.30954 -0.151222,-0.11005 -0.421021,-0.11005 h -0.03437 z m -0.194186,-0.70162 h 1.098093 v 0.50042 h -0.214808 q 0.127167,0.0911 0.195906,0.23387 0.06874,0.14273 0.06874,0.31469 0,0.32846 -0.173564,0.51246 -0.173562,0.18229 -0.484603,0.18229 -0.336815,0 -0.496631,-0.2184 -0.161536,-0.2184 -0.161536,-0.67583 v -0.34908 h -0.0842 q -0.12201,0 -0.183872,0.0894 -0.06358,0.0877 -0.06358,0.25966 0,0.18057 0.0464,0.35082 0.04468,0.16852 0.144351,0.35252 H 62.49305 q -0.06874,-0.1668 -0.101388,-0.33877 -0.03265,-0.17196 -0.03265,-0.36457 0,-0.46946 0.190748,-0.65862 0.190749,-0.19088 0.682223,-0.19088 z" />
  <path
     id="path7153"
     style="font-style:normal;font-variant:normal;font-weight:bold;font-stretch:normal;font-size:13.33333302px;line-height:1.25;font-family:monospace;-inkscape-font-specification:'monospace Bold';letter-spacing:0px;word-spacing:0px;display:inline;fill:#00aeee;fill-opacity:1;stroke:none;stroke-width:0.26404649;stroke-opacity:1"
     d="m 61.858927,227.03852 h 0.546465 v -0.65863 h 0.386654 v 0.65863 h 0.910778 q 0.128884,0 0.185592,-0.0619 0.05499,-0.0636 0.05499,-0.2098 v -0.38692 h 0.386652 v 0.42303 q 0,0.43336 -0.137475,0.58641 -0.139198,0.15305 -0.513818,0.15305 h -0.88672 v 0.49182 h -0.386654 v -0.49182 h -0.546465 z" />
  <path
     id="path7155"
     style="font-style:normal;font-variant:normal;font-weight:bold;font-stretch:normal;font-size:13.33333302px;line-height:1.25;font-family:monospace;-inkscape-font-specification:'monospace Bold';letter-spacing:0px;word-spacing:0px;display:inline;fill:#00aeee;fill-opacity:1;stroke:none;stroke-width:0.26404649;stroke-opacity:1"
     d="m 61.858927,224.91818 h 0.546465 v -0.65863 h 0.386654 v 0.65863 h 0.910778 q 0.128884,0 0.185592,-0.0619 0.05499,-0.0636 0.05499,-0.2098 v -0.38693 h 0.386652 v 0.42304 q 0,0.43335 -0.137475,0.5864 -0.139198,0.15305 -0.513818,0.15305 h -0.88672 v 0.49182 h -0.386654 v -0.49182 h -0.546465 z" />
  <path
     id="path7157"
     style="font-style:normal;font-variant:normal;font-weight:bold;font-stretch:normal;font-size:13.33333302px;line-height:1.25;font-family:monospace;-inkscape-font-specification:'monospace Bold';letter-spacing:0px;word-spacing:0px;display:inline;fill:#00aeee;fill-opacity:1;stroke:none;stroke-width:0.26404649;stroke-opacity:1"
     d="m 64.235544,222.08935 q 0.07218,0.1754 0.10826,0.35769 0.03609,0.18228 0.03609,0.3852 0,0.48322 -0.257768,0.73945 -0.259485,0.25451 -0.745807,0.25451 -0.470853,0 -0.744088,-0.24591 -0.273235,-0.24591 -0.273235,-0.67066 0,-0.4282 0.25433,-0.66379 0.252614,-0.23731 0.713158,-0.23731 h 0.204497 v 1.30521 q 0.226835,-0.002 0.338534,-0.13413 0.111699,-0.13241 0.111699,-0.39552 0,-0.17368 -0.04984,-0.34221 -0.04983,-0.16853 -0.158093,-0.35253 z m -1.082622,0.42647 q -0.199342,0.003 -0.300731,0.10318 -0.103105,0.098 -0.103105,0.29063 0,0.17368 0.106542,0.27686 0.104826,0.10318 0.299011,0.1221 z" />
  <path
     id="path7159"
     style="font-style:normal;font-variant:normal;font-weight:bold;font-stretch:normal;font-size:13.33333302px;line-height:1.25;font-family:monospace;-inkscape-font-specification:'monospace Bold';letter-spacing:0px;word-spacing:0px;display:inline;fill:#00aeee;fill-opacity:1;stroke:none;stroke-width:0.26404649;stroke-opacity:1"
     d="m 64.330059,219.35682 h -2.565647 v -0.5073 h 2.118847 v -1.0851 h 0.4468 z" />
  <path
     id="path7161"
     style="font-style:normal;font-variant:normal;font-weight:bold;font-stretch:normal;font-size:13.33333302px;line-height:1.25;font-family:monospace;-inkscape-font-specification:'monospace Bold';letter-spacing:0px;word-spacing:0px;display:inline;fill:#00aeee;fill-opacity:1;stroke:none;stroke-width:0.26404649;stroke-opacity:1"
     d="m 63.426152,216.41965 q 0,0.28202 0.07218,0.3938 0.07218,0.11178 0.247456,0.11178 0.130604,0 0.207934,-0.0774 0.07733,-0.0774 0.07733,-0.2098 0,-0.19948 -0.149506,-0.30953 -0.151222,-0.11006 -0.421021,-0.11006 h -0.03437 z m -0.194186,-0.70162 h 1.098093 v 0.50042 h -0.214808 q 0.127167,0.0911 0.195906,0.23387 0.06874,0.14273 0.06874,0.3147 0,0.32845 -0.173564,0.51245 -0.173562,0.18229 -0.484603,0.18229 -0.336815,0 -0.496631,-0.2184 -0.161536,-0.21839 -0.161536,-0.67582 v -0.34909 h -0.0842 q -0.12201,0 -0.183872,0.0894 -0.06358,0.0877 -0.06358,0.25967 0,0.18056 0.0464,0.35081 0.04468,0.16852 0.144351,0.35253 H 62.49305 q -0.06874,-0.16681 -0.101388,-0.33877 -0.03265,-0.17197 -0.03265,-0.36457 0,-0.46947 0.190748,-0.65863 0.190749,-0.19088 0.682223,-0.19088 z" />
  <path
     id="path7163"
     style="font-style:normal;font-variant:normal;font-weight:bold;font-stretch:normal;font-size:13.33333302px;line-height:1.25;font-family:monospace;-inkscape-font-specification:'monospace Bold';letter-spacing:0px;word-spacing:0px;display:inline;fill:#00aeee;fill-opacity:1;stroke:none;stroke-width:0.26404649;stroke-opacity:1"
     d="m 64.537989,214.2804 q 0.271518,0.10146 0.395245,0.24419 0.125447,0.14101 0.125447,0.34393 v 0.41616 h -0.383214 v -0.20464 q 0,-0.15477 -0.05327,-0.227 -0.05155,-0.0722 -0.242303,-0.14617 l -0.103106,-0.0378 -1.871395,0.73257 v -0.52965 l 1.249315,-0.44023 -1.249315,-0.42132 v -0.52965 z" />
  <path
     id="path7165"
     style="font-style:normal;font-variant:normal;font-weight:bold;font-stretch:normal;font-size:13.33333302px;line-height:1.25;font-family:monospace;-inkscape-font-specification:'monospace Bold';letter-spacing:0px;word-spacing:0px;display:inline;fill:#00aeee;fill-opacity:1;stroke:none;stroke-width:0.26404649;stroke-opacity:1"
     d="m 64.235544,211.48768 q 0.07218,0.1754 0.10826,0.35768 0.03609,0.18229 0.03609,0.38521 0,0.48322 -0.257768,0.73945 -0.259485,0.25451 -0.745807,0.25451 -0.470853,0 -0.744088,-0.24591 -0.273235,-0.24591 -0.273235,-0.67067 0,-0.42819 0.25433,-0.66378 0.252614,-0.23732 0.713158,-0.23732 h 0.204497 v 1.30522 q 0.226835,-0.002 0.338534,-0.13413 0.111699,-0.13241 0.111699,-0.39552 0,-0.17369 -0.04984,-0.34221 -0.04983,-0.16853 -0.158093,-0.35253 z m -1.082622,0.42647 q -0.199342,0.003 -0.300731,0.10318 -0.103105,0.098 -0.103105,0.29062 0,0.17369 0.106542,0.27687 0.104826,0.10318 0.299011,0.12209 z" />
  <path
     id="path7167"
     style="font-style:normal;font-variant:normal;font-weight:bold;font-stretch:normal;font-size:13.33333302px;line-height:1.25;font-family:monospace;-inkscape-font-specification:'monospace Bold';letter-spacing:0px;word-spacing:0px;display:inline;fill:#00aeee;fill-opacity:1;stroke:none;stroke-width:0.26404649;stroke-opacity:1"
     d="m 62.936395,209.28308 q -0.07561,0.0825 -0.113416,0.19432 -0.03781,0.11006 -0.03781,0.24247 0,0.15993 0.05671,0.28031 0.05499,0.11865 0.161534,0.184 0.0653,0.0413 0.158099,0.0585 0.09279,0.0155 0.281826,0.0155 h 0.88672 v 0.50386 h -1.924667 v -0.50386 h 0.299014 q -0.164973,-0.074 -0.254331,-0.227 -0.09108,-0.15305 -0.09108,-0.35769 0,-0.10318 0.0258,-0.2012 0.02405,-0.0997 0.07218,-0.18916 z" />
  <path
     id="path7169"
     style="font-style:normal;font-variant:normal;font-weight:bold;font-stretch:normal;font-size:13.33333302px;line-height:1.25;font-family:monospace;-inkscape-font-specification:'monospace Bold';letter-spacing:0px;word-spacing:0px;display:inline;fill:#00aeee;fill-opacity:1;stroke:none;stroke-width:0.26404649;stroke-opacity:1"
     d="m 62.328065,205.82829 1.013883,0.64831 v -0.64831 z m -0.563653,0.0447 v -0.53137 h 1.577536 v -0.28202 h 0.434769 v 0.28202 h 0.553342 v 0.48666 h -0.553342 v 1.01804 H 63.28524 Z" />
  <path
     id="path561-9-1-81-0"
     style="clip-rule:evenodd;display:inline;fill:none;fill-rule:nonzero;stroke:#ea0088;stroke-width:0.35203055;stroke-miterlimit:10;stroke-opacity:1"
     d="m 69.027091,52.257229 c 0.55073,0 0.997646,-0.446888 0.997646,-0.998015 0,-0.55148 -0.446916,-0.998369 -0.997646,-0.998369 -0.550728,0 -0.997294,0.446889 -0.997294,0.998369 0,0.551127 0.446566,0.998015 0.997294,0.998015" />
  <path
     id="path565-7-5-39-9"
     style="clip-rule:evenodd;display:inline;fill:none;fill-rule:nonzero;stroke:#000000;stroke-width:0.23753151px;stroke-miterlimit:10;stroke-opacity:1"
     d="m 67.993864,51.259037 h 2.111451" />
  <path
     transform="matrix(1.000000,0.000000,0.000000,1.000000,0.000000,0.000000)"
     id="path569-2-4-8-17"
     style="stroke-opacity:1;fill-rule:nonzero;stroke:#000000;stroke-miterlimit:10;clip-rule:evenodd;stroke-width:0.23753138px;display:inline;fill:none"
     d="m 69.027575,52.315527 v -2.11298" />
  <path
     id="path561-9-1-81-2-7"
     style="clip-rule:evenodd;display:inline;fill:none;fill-rule:nonzero;stroke:#ea0088;stroke-width:0.35203055;stroke-miterlimit:10;stroke-opacity:1"
     d="m 69.027025,246.91873 c 0.550727,0 0.997645,-0.44689 0.997645,-0.99802 0,-0.55147 -0.446918,-0.99836 -0.997645,-0.99836 -0.550725,0 -0.997292,0.44689 -0.997292,0.99836 0,0.55113 0.446567,0.99802 0.997292,0.99802" />
  <path
     id="path565-7-5-39-6-1"
     style="clip-rule:evenodd;display:inline;fill:none;fill-rule:nonzero;stroke:#000000;stroke-width:0.23753151px;stroke-miterlimit:10;stroke-opacity:1"
     d="m 67.993795,245.92054 h 2.111452" />
  <path
     transform="matrix(1.000000,0.000000,0.000000,1.000000,0.000000,0.000000)"
     id="path569-2-4-8-1-1"
     style="stroke-opacity:1;fill-rule:nonzero;stroke:#000000;stroke-miterlimit:10;clip-rule:evenodd;stroke-width:0.23753138px;display:inline;fill:none"
     d="m 69.027509,246.97703 v -2.11298" />
  <path
     transform="matrix(1.000000,0.000000,0.000000,1.000000,0.000000,0.000000)"
     id="path561-9-1-81-0-9"
     style="stroke-opacity:1;fill-rule:nonzero;stroke:#ea0088;stroke-miterlimit:10;clip-rule:evenodd;stroke-width:0.35203055;display:inline;fill:none"
     d="m 158.73389,52.271592 c 0.55073,0 0.99764,-0.446888 0.99764,-0.998015 0,-0.55148 -0.44691,-0.998369 -0.99764,-0.998369 -0.55073,0 -0.9973,0.446889 -0.9973,0.998369 0,0.551127 0.44657,0.998015 0.9973,0.998015" />
  <path
     transform="matrix(1.000000,0.000000,0.000000,1.000000,0.000000,0.000000)"
     id="path565-7-5-39-9-4"
     style="stroke-opacity:1;fill-rule:nonzero;stroke:#000000;stroke-miterlimit:10;clip-rule:evenodd;stroke-width:0.23753151px;display:inline;fill:none"
     d="m 157.70066,51.273682 h 2.11145" />
  <path
     transform="matrix(1.000000,0.000000,0.000000,1.000000,0.000000,0.000000)"
     id="path569-2-4-8-17-8"
     style="stroke-opacity:1;fill-rule:nonzero;stroke:#000000;stroke-miterlimit:10;clip-rule:evenodd;stroke-width:0.23753138px;display:inline;fill:none"
     d="m 158.73437,52.315527 v -2.11298" />
  <path
     transform="matrix(1.000000,0.000000,0.000000,1.000000,0.000000,0.000000)"
     id="path561-9-1-81-2-7-1"
     style="stroke-opacity:1;fill-rule:nonzero;stroke:#ea0088;stroke-miterlimit:10;clip-rule:evenodd;stroke-width:0.35203055;display:inline;fill:none"
     d="m 158.73382,246.93309 c 0.55073,0 0.99765,-0.44689 0.99765,-0.99802 0,-0.55147 -0.44692,-0.99836 -0.99765,-0.99836 -0.55073,0 -0.99729,0.44689 -0.99729,0.99836 0,0.55113 0.44656,0.99802 0.99729,0.99802" />
  <path
     transform="matrix(1.000000,0.000000,0.000000,1.000000,0.000000,0.000000)"
     id="path565-7-5-39-6-1-2"
     style="stroke-opacity:1;fill-rule:nonzero;stroke:#000000;stroke-miterlimit:10;clip-rule:evenodd;stroke-width:0.23753151px;display:inline;fill:none"
     d="m 157.70059,245.93518 h 2.11145" />
  <path
     transform="matrix(1.000000,0.000000,0.000000,1.000000,0.000000,0.000000)"
     id="path569-2-4-8-1-1-9"
     style="stroke-opacity:1;fill-rule:nonzero;stroke:#000000;stroke-miterlimit:10;clip-rule:evenodd;stroke-width:0.23753138px;display:inline;fill:none"
     d="m 158.7343,246.97703 v -2.11298" />
  <path
     transform="matrix(0.264583,0.000000,0.000000,0.264583,249.610190,48.498237)"
     id="path21699"
     style="font-size:13.33333302px;-inkscape-font-specification:'monospace Bold';fill-opacity:1;font-weight:bold;letter-spacing:0px;font-style:normal;word-spacing:0px;stroke:none;font-stretch:normal;line-height:1.25;font-variant:normal;font-family:monospace;display:inline;fill:#000000"
     d="m -395.23242,327.90365 q -1.45182,-0.55339 -1.96615,-1.15886 -0.51432,-0.61198 -0.51432,-1.64062 0,-1.32162 0.84635,-2.07683 0.84636,-0.7552 2.32422,-0.7552 0.67058,0 1.34115,0.15625 0.67057,0.14973 1.32812,0.44921 v 1.875 q -0.61849,-0.43619 -1.25651,-0.66406 -0.63802,-0.22786 -1.26302,-0.22786 -0.69661,0 -1.06771,0.27994 -0.37109,0.27995 -0.37109,0.80079 0,0.40364 0.26693,0.67057 0.27343,0.26042 1.13281,0.57943 l 0.82682,0.3125 q 1.17188,0.42968 1.72526,1.13932 0.55339,0.70963 0.55339,1.79036 0,1.47136 -0.8724,2.20052 -0.86588,0.72266 -2.6237,0.72266 -0.72265,0 -1.45182,-0.17578 -0.72265,-0.16927 -1.39974,-0.50781 v -1.98568 q 0.76823,0.54687 1.48438,0.8138 0.72265,0.26693 1.42578,0.26693 0.70963,0 1.10026,-0.31901 0.39062,-0.32552 0.39062,-0.90495 0,-0.4362 -0.26041,-0.76172 -0.26042,-0.33203 -0.75521,-0.52083 z" />
  <path
     transform="matrix(0.264583,0.000000,0.000000,0.264583,249.610190,48.498237)"
     id="path21701"
     style="font-size:13.33333302px;-inkscape-font-specification:'monospace Bold';fill-opacity:1;font-weight:bold;letter-spacing:0px;font-style:normal;word-spacing:0px;stroke:none;font-stretch:normal;line-height:1.25;font-variant:normal;font-family:monospace;display:inline;fill:#000000"
     d="m -383.55273,327.4349 v 4.73307 h -1.89454 v -4.44011 q 0,-0.78776 -0.22786,-1.1263 -0.22135,-0.33854 -0.72917,-0.33854 -0.52083,0 -0.8138,0.46224 -0.29297,0.45573 -0.29297,1.26953 v 4.17318 h -1.89453 v -10.13021 h 1.89453 v 3.93229 q 0.20183,-0.60547 0.69011,-0.9375 0.48828,-0.33203 1.17838,-0.33203 1.03516,0 1.5625,0.6901 0.52735,0.6836 0.52735,2.04428 z" />
  <path
     transform="matrix(0.264583,0.000000,0.000000,0.264583,249.610190,48.498237)"
     id="path21703"
     style="font-size:13.33333302px;-inkscape-font-specification:'monospace Bold';fill-opacity:1;font-weight:bold;letter-spacing:0px;font-style:normal;word-spacing:0px;stroke:none;font-stretch:normal;line-height:1.25;font-variant:normal;font-family:monospace;display:inline;fill:#000000"
     d="m -375.32357,331.8099 q -0.66406,0.27343 -1.35416,0.41015 -0.69011,0.13672 -1.45834,0.13672 -1.82942,0 -2.79948,-0.97656 -0.96354,-0.98307 -0.96354,-2.82552 0,-1.78386 0.93099,-2.81901 0.93099,-1.03516 2.53906,-1.03516 1.6211,0 2.51302,0.96354 0.89844,0.95703 0.89844,2.70183 v 0.77473 h -4.9414 q 0.007,0.85938 0.50781,1.28256 0.5013,0.42317 1.49739,0.42317 0.65756,0 1.29558,-0.1888 0.63802,-0.1888 1.33463,-0.59896 z m -1.61458,-4.10157 q -0.013,-0.75521 -0.39063,-1.13932 -0.37109,-0.39062 -1.10026,-0.39062 -0.65755,0 -1.04817,0.40364 -0.39063,0.39714 -0.46224,1.13281 z" />
  <path
     transform="matrix(0.264583,0.000000,0.000000,0.264583,249.610190,48.498237)"
     id="path21705"
     style="font-size:13.33333302px;-inkscape-font-specification:'monospace Bold';fill-opacity:1;font-weight:bold;letter-spacing:0px;font-style:normal;word-spacing:0px;stroke:none;font-stretch:normal;line-height:1.25;font-variant:normal;font-family:monospace;display:inline;fill:#000000"
     d="m -367.29622,331.8099 q -0.66407,0.27343 -1.35417,0.41015 -0.6901,0.13672 -1.45833,0.13672 -1.82943,0 -2.79948,-0.97656 -0.96354,-0.98307 -0.96354,-2.82552 0,-1.78386 0.93098,-2.81901 0.93099,-1.03516 2.53907,-1.03516 1.62109,0 2.51302,0.96354 0.89844,0.95703 0.89844,2.70183 v 0.77473 h -4.94141 q 0.007,0.85938 0.50781,1.28256 0.5013,0.42317 1.4974,0.42317 0.65755,0 1.29557,-0.1888 0.63802,-0.1888 1.33464,-0.59896 z m -1.61459,-4.10157 q -0.013,-0.75521 -0.39062,-1.13932 -0.3711,-0.39062 -1.10026,-0.39062 -0.65755,0 -1.04818,0.40364 -0.39062,0.39714 -0.46224,1.13281 z" />
  <path
     transform="matrix(0.264583,0.000000,0.000000,0.264583,249.610190,48.498237)"
     id="path21707"
     style="font-size:13.33333302px;-inkscape-font-specification:'monospace Bold';fill-opacity:1;font-weight:bold;letter-spacing:0px;font-style:normal;word-spacing:0px;stroke:none;font-stretch:normal;line-height:1.25;font-variant:normal;font-family:monospace;display:inline;fill:#000000"
     d="m -361.95117,322.80599 v 2.07031 h 2.49349 v 1.46485 h -2.49349 v 3.45052 q 0,0.48828 0.23437,0.70312 0.24089,0.20833 0.79427,0.20833 h 1.46485 v 1.46485 h -1.60156 q -1.64063,0 -2.22006,-0.52083 -0.57942,-0.52735 -0.57942,-1.94662 v -3.35937 h -1.86198 v -1.46485 h 1.86198 v -2.07031 z" />
  <path
     transform="matrix(0.264583,0.000000,0.000000,0.264583,249.610190,48.498237)"
     id="path21709"
     style="font-size:13.33333302px;-inkscape-font-specification:'monospace Bold';fill-opacity:1;font-weight:bold;letter-spacing:0px;font-style:normal;word-spacing:0px;stroke:none;font-stretch:normal;line-height:1.25;font-variant:normal;font-family:monospace;display:inline;fill:#000000"
     d="m -349.50977,322.44792 h 6.14584 v 1.36067 l -3.29427,8.35938 h -1.95964 l 3.16406,-8.02735 h -4.05599 z" />
  <g
     id="g1"
     transform="translate(0,-9.9997575)">
    <path
       style="display:inline;fill:none;stroke:#211e1e;stroke-width:0.0880156;stroke-linecap:butt;stroke-linejoin:miter;stroke-miterlimit:10;stroke-opacity:1"
       d="m 85.305824,88.831268 h -2.82239"
       id="path298" />
    <path
       style="display:inline;fill:none;stroke:#211e1e;stroke-width:0.0880156;stroke-linecap:butt;stroke-linejoin:miter;stroke-miterlimit:10;stroke-opacity:1"
       d="M 83.895314,90.24414 V 87.419777"
       id="path300" />
    <path
       style="display:inline;fill:none;stroke:#211e1e;stroke-width:0.0880156;stroke-linecap:butt;stroke-linejoin:miter;stroke-miterlimit:10;stroke-opacity:1"
       d="m 135.16982,88.831268 h -2.82238"
       id="path302" />
    <path
       style="display:inline;fill:none;stroke:#211e1e;stroke-width:0.0880156;stroke-linecap:butt;stroke-linejoin:miter;stroke-miterlimit:10;stroke-opacity:1"
       d="M 133.75932,90.24414 V 87.419777"
       id="path304" />
    <path
       style="display:inline;fill:none;stroke:#211e1e;stroke-width:0.0880156;stroke-linecap:butt;stroke-linejoin:miter;stroke-miterlimit:10;stroke-opacity:1"
       d="m 85.305824,88.831268 h -2.82239"
       id="path298-2" />
    <path
       style="display:inline;fill:none;stroke:#211e1e;stroke-width:0.0880156;stroke-linecap:butt;stroke-linejoin:miter;stroke-miterlimit:10;stroke-opacity:1"
       d="M 83.895314,90.24414 V 87.419777"
       id="path300-2" />
    <path
       style="display:inline;fill:none;stroke:#211e1e;stroke-width:0.0880156;stroke-linecap:butt;stroke-linejoin:miter;stroke-miterlimit:10;stroke-opacity:1"
       d="m 135.16982,88.831268 h -2.82238"
       id="path302-8" />
    <path
       style="display:inline;fill:none;stroke:#211e1e;stroke-width:0.0880156;stroke-linecap:butt;stroke-linejoin:miter;stroke-miterlimit:10;stroke-opacity:1"
       d="M 133.75932,90.24414 V 87.419777"
       id="path304-9" />
    <path
       id="rect1"
       style="fill:none;stroke:#bbae00;stroke-width:0.351999;stroke-miterlimit:10;stroke-opacity:1"
       d="m 64.679256,68.917757 v 10.205062 h -9.647473 v 19.329053 h 9.647473 V 108.74633 H 100.48586 V 68.917757 Z" />
    <path
       d="m 59.909699,103.80403 c 0.550767,0 0.997724,0.44691 0.997724,0.99808 0,0.55151 -0.446957,0.99842 -0.997724,0.99842 -0.550777,0 -0.997374,-0.44691 -0.997374,-0.99842 0,-0.55117 0.446597,-0.99808 0.997374,-0.99808"
       style="clip-rule:evenodd;display:inline;fill:none;fill-rule:nonzero;stroke:#bbae00;stroke-width:0.352056;stroke-miterlimit:10;stroke-opacity:1"
       id="path561-9-1-4-5-2" />
    <path
       d="m 58.876415,104.80222 h 2.111628"
       style="clip-rule:evenodd;display:inline;fill:none;fill-rule:nonzero;stroke:#000000;stroke-width:0.237549px;stroke-miterlimit:10;stroke-opacity:1"
       id="path565-7-5-9-5-1" />
    <path
       d="m 59.910119,103.76025 v 2.11311"
       style="clip-rule:evenodd;display:inline;fill:none;fill-rule:nonzero;stroke:#000000;stroke-width:0.237549px;stroke-miterlimit:10;stroke-opacity:1"
       id="path569-2-4-9-2-7" />
    <path
       d="m 59.909699,73.770528 c 0.550767,0 0.997724,-0.44691 0.997724,-0.99808 0,-0.55151 -0.446957,-0.99842 -0.997724,-0.99842 -0.550777,0 -0.997374,0.44691 -0.997374,0.99842 0,0.55117 0.446597,0.99808 0.997374,0.99808"
       style="clip-rule:evenodd;display:inline;fill:none;fill-rule:nonzero;stroke:#bbae00;stroke-width:0.352056;stroke-miterlimit:10;stroke-opacity:1"
       id="path561-9-1-4-5-2-6" />
    <path
       d="m 58.876415,72.772338 h 2.111628"
       style="clip-rule:evenodd;display:inline;fill:none;fill-rule:nonzero;stroke:#000000;stroke-width:0.237549px;stroke-miterlimit:10;stroke-opacity:1"
       id="path565-7-5-9-5-1-2" />
    <path
       d="m 59.910119,73.814308 v -2.11311"
       style="clip-rule:evenodd;display:inline;fill:none;fill-rule:nonzero;stroke:#000000;stroke-width:0.237549px;stroke-miterlimit:10;stroke-opacity:1"
       id="path569-2-4-9-2-7-9" />
    <path
       id="rect1-2"
       style="fill:none;stroke:#bbae00;stroke-width:0.351999;stroke-miterlimit:10;stroke-opacity:1"
       d="m 152.97413,68.917757 v 10.205062 h 9.64753 v 19.329053 h -9.64753 V 108.74633 H 117.16739 V 68.917757 Z" />
  </g>
  <path
     inkscape:connector-curvature="0"
     id="path856"
     style="font-style:normal;font-variant:normal;font-weight:bold;font-stretch:normal;font-size:13.3333px;line-height:125%;font-family:monospace;-inkscape-font-specification:'monospace Bold';letter-spacing:0px;word-spacing:0px;fill:#ffcc00;fill-opacity:1;stroke:none;stroke-width:0.264583px;stroke-linecap:butt;stroke-linejoin:miter;stroke-opacity:1"
     d="m 98.055686,118.43136 v 0.75447 h 0.208429 q 0.249769,0 0.349677,-0.0844 0.10163,-0.0844 0.10163,-0.29284 0,-0.20843 -0.10163,-0.29283 -0.09991,-0.0844 -0.349677,-0.0844 z m -0.508151,-0.42719 h 0.697632 q 0.532267,0 0.764811,0.18948 0.234266,0.18948 0.234266,0.61495 0,0.42547 -0.234266,0.61495 -0.232544,0.18948 -0.764811,0.18948 h -0.189481 v 0.9629 h -0.508151 z" />
  <path
     inkscape:connector-curvature="0"
     id="path858"
     style="font-style:normal;font-variant:normal;font-weight:bold;font-stretch:normal;font-size:13.3333px;line-height:125%;font-family:monospace;-inkscape-font-specification:'monospace Bold';letter-spacing:0px;word-spacing:0px;fill:#ffcc00;fill-opacity:1;stroke:none;stroke-width:0.264583px;stroke-linecap:butt;stroke-linejoin:miter;stroke-opacity:1"
     d="m 100.58783,118.56916 -0.649399,1.0163 h 0.649399 z m -0.0448,-0.56499 h 0.53227 v 1.58129 h 0.2825 v 0.43581 h -0.2825 v 0.55466 h -0.48748 v -0.55466 h -1.01975 v -0.49265 z" />
  <path
     inkscape:connector-curvature="0"
     id="path860"
     style="font-style:normal;font-variant:normal;font-weight:bold;font-stretch:normal;font-size:13.3333px;line-height:125%;font-family:monospace;-inkscape-font-specification:'monospace Bold';letter-spacing:0px;word-spacing:0px;fill:#ffcc00;fill-opacity:1;stroke:none;stroke-width:0.264583px;stroke-linecap:butt;stroke-linejoin:miter;stroke-opacity:1"
     d="m 98.329572,124.56191 0.45303,-2.14802 h 0.511596 l -0.611504,2.57176 h -0.704522 l -0.611505,-2.57176 h 0.511597 z" />
  <path
     inkscape:connector-curvature="0"
     id="path862"
     style="font-style:normal;font-variant:normal;font-weight:bold;font-stretch:normal;font-size:13.3333px;line-height:125%;font-family:monospace;-inkscape-font-specification:'monospace Bold';letter-spacing:0px;word-spacing:0px;fill:#ffcc00;fill-opacity:1;stroke:none;stroke-width:0.264583px;stroke-linecap:butt;stroke-linejoin:miter;stroke-opacity:1"
     d="m 99.716222,124.53779 h 0.568438 v -1.66915 l -0.528819,0.13092 v -0.4582 l 0.532269,-0.12747 h 0.49092 v 2.1239 h 0.56845 v 0.44787 h -1.631258 z" />
</svg>
