<?xml version="1.0" encoding="UTF-8" standalone="no"?>
<svg
   width="210mm"
   height="297mm"
   viewBox="0 0 210 297"
   version="1.1"
   id="svg6150"
   sodipodi:docname="sheet_5_visaton.svg"
   inkscape:version="1.3.1 (9b9bdc1480, 2023-11-25, custom)"
   xmlns:inkscape="http://www.inkscape.org/namespaces/inkscape"
   xmlns:sodipodi="http://sodipodi.sourceforge.net/DTD/sodipodi-0.dtd"
   xmlns="http://www.w3.org/2000/svg"
   xmlns:svg="http://www.w3.org/2000/svg"
   xmlns:rdf="http://www.w3.org/1999/02/22-rdf-syntax-ns#"
   xmlns:cc="http://creativecommons.org/ns#"
   xmlns:dc="http://purl.org/dc/elements/1.1/">
  <sodipodi:namedview
     id="namedview1"
     pagecolor="#ffffff"
     bordercolor="#666666"
     borderopacity="1.0"
     inkscape:showpageshadow="2"
     inkscape:pageopacity="0.0"
     inkscape:pagecheckerboard="0"
     inkscape:deskcolor="#d1d1d1"
     inkscape:document-units="mm"
     inkscape:zoom="0.54698373"
     inkscape:cx="396.72112"
     inkscape:cy="562.17394"
     inkscape:window-width="1517"
     inkscape:window-height="812"
     inkscape:window-x="75"
     inkscape:window-y="0"
     inkscape:window-maximized="0"
     inkscape:current-layer="svg6150"
     showgrid="false" />
  <defs
     id="defs6144" />
  <metadata
     id="metadata6147">
    <rdf:RDF>
      <cc:Work
         rdf:about="">
        <dc:format>image/svg+xml</dc:format>
        <dc:type
           rdf:resource="http://purl.org/dc/dcmitype/StillImage" />
        <dc:title />
      </cc:Work>
    </rdf:RDF>
  </metadata>
  <path
     d="m 54.677301,244.98277 h 0.759555 v -0.33705 q 0,-0.24248 -0.08249,-0.33878 -0.08249,-0.098 -0.286998,-0.098 -0.207917,0 -0.299007,0.10146 -0.09107,0.10146 -0.09107,0.33534 z m -1.000146,0 h 0.596301 v -0.33705 q 0,-0.19261 -0.06874,-0.27343 -0.06874,-0.0825 -0.226837,-0.0825 -0.158098,0 -0.228553,0.0843 -0.07217,0.0825 -0.07217,0.27171 z m -0.403837,0.4901 v -0.82715 q 0,-0.4282 0.163253,-0.64316 0.161535,-0.21667 0.484604,-0.21667 0.247457,0 0.386651,0.12725 0.139196,0.12726 0.161535,0.37317 0.02921,-0.29406 0.19762,-0.44196 0.168402,-0.1496 0.470868,-0.1496 0.371172,0 0.53786,0.22355 0.166687,0.22356 0.166687,0.72742 v 0.82715 z"
     style="font-style:normal;font-variant:normal;font-weight:bold;font-stretch:normal;font-size:13.33333302px;line-height:1.25;font-family:monospace;-inkscape-font-specification:'monospace Bold';letter-spacing:0px;word-spacing:0px;fill:#00c0ee;fill-opacity:1;stroke:none;stroke-width:0.26404658"
     id="path24323" />
  <path
     d="m 54.280333,242.50818 q 0,0.18057 0.159813,0.28375 0.158098,0.10318 0.441641,0.10318 0.28354,0 0.443364,-0.10318 0.158108,-0.10318 0.158108,-0.28375 0,-0.18228 -0.158108,-0.28546 -0.159824,-0.10318 -0.443364,-0.10318 -0.283543,0 -0.441641,0.10318 -0.159813,0.10318 -0.159813,0.28546 z m 0.601454,0.89079 q -0.465697,0 -0.737214,-0.24075 -0.273233,-0.24248 -0.273233,-0.65004 0,-0.40927 0.273233,-0.65002 0.271517,-0.24248 0.737214,-0.24248 0.465694,0 0.73894,0.24248 0.271503,0.24075 0.271503,0.65002 0,0.40756 -0.271503,0.65004 -0.273246,0.24075 -0.73894,0.24075 z"
     style="font-style:normal;font-variant:normal;font-weight:bold;font-stretch:normal;font-size:13.33333302px;line-height:1.25;font-family:monospace;-inkscape-font-specification:'monospace Bold';letter-spacing:0px;word-spacing:0px;fill:#00c0ee;fill-opacity:1;stroke:none;stroke-width:0.26404658"
     id="path24325" />
  <path
     d="m 54.190971,240.08691 h -1.022478 v -0.50214 h 2.673903 v 0.50214 H 55.55714 q 0.166687,0.0808 0.250889,0.2098 0.0842,0.12725 0.0842,0.30094 0,0.33017 -0.26464,0.51245 -0.264641,0.18229 -0.745803,0.18229 -0.488039,0 -0.749242,-0.18401 -0.261205,-0.18571 -0.261205,-0.52793 0,-0.15476 0.08077,-0.27686 0.07905,-0.12382 0.238863,-0.21668 z m 0.694247,0.70162 q 0.278393,0 0.436501,-0.0929 0.158083,-0.0929 0.158083,-0.25623 0,-0.16337 -0.158083,-0.25795 -0.158108,-0.0946 -0.436501,-0.0946 -0.278382,0 -0.436477,0.0946 -0.158098,0.0946 -0.158098,0.25795 0,0.16337 0.158098,0.25623 0.158095,0.0929 0.436477,0.0929 z"
     style="font-style:normal;font-variant:normal;font-weight:bold;font-stretch:normal;font-size:13.33333302px;line-height:1.25;font-family:monospace;-inkscape-font-specification:'monospace Bold';letter-spacing:0px;word-spacing:0px;fill:#00c0ee;fill-opacity:1;stroke:none;stroke-width:0.26404658"
     id="path24327" />
  <path
     d="m 55.7479,237.43177 q 0.07217,0.1754 0.108248,0.35768 0.03608,0.18229 0.03608,0.38521 0,0.48322 -0.257751,0.73945 -0.259494,0.25451 -0.745803,0.25451 -0.470868,0 -0.744103,-0.24591 -0.273233,-0.24591 -0.273233,-0.67067 0,-0.42819 0.254331,-0.66379 0.252612,-0.23731 0.71317,-0.23731 h 0.204486 v 1.30522 q 0.226842,-0.002 0.338521,-0.13414 0.111706,-0.13241 0.111706,-0.39551 0,-0.17369 -0.04984,-0.34221 -0.04984,-0.16853 -0.158082,-0.35253 z m -1.082635,0.42647 q -0.199341,0.003 -0.300728,0.10318 -0.103109,0.098 -0.103109,0.29062 0,0.17369 0.106545,0.27687 0.104824,0.10317 0.299008,0.12209 z"
     style="font-style:normal;font-variant:normal;font-weight:bold;font-stretch:normal;font-size:13.33333302px;line-height:1.25;font-family:monospace;-inkscape-font-specification:'monospace Bold';letter-spacing:0px;word-spacing:0px;fill:#00c0ee;fill-opacity:1;stroke:none;stroke-width:0.26404658"
     id="path24329" />
  <path
     d="m 54.593089,235.36474 h 1.249307 v 0.50042 h -1.171984 q -0.209643,0 -0.299002,0.0602 -0.09108,0.0585 -0.09108,0.1926 0,0.13585 0.12201,0.21496 0.122007,0.0774 0.338545,0.0774 h 1.101508 v 0.50042 h -1.924658 v -0.50042 h 0.2887 q -0.159816,-0.0533 -0.247457,-0.18228 -0.08764,-0.12897 -0.08764,-0.31126 0,-0.27342 0.182156,-0.41272 0.180436,-0.13929 0.539593,-0.13929 z"
     style="font-style:normal;font-variant:normal;font-weight:bold;font-stretch:normal;font-size:13.33333302px;line-height:1.25;font-family:monospace;-inkscape-font-specification:'monospace Bold';letter-spacing:0px;word-spacing:0px;fill:#00c0ee;fill-opacity:1;stroke:none;stroke-width:0.26404658"
     id="path24331" />
  <path
     d="m 55.570892,234.32607 h 1.003581 v 0.50214 h -2.656735 v -0.50214 h 0.2887 q -0.166689,-0.0791 -0.250893,-0.20807 -0.08421,-0.12898 -0.08421,-0.30267 0,-0.33017 0.264641,-0.51245 0.264641,-0.18228 0.745806,-0.18228 0.488051,0 0.74926,0.18572 0.261183,0.184 0.261183,0.52621 0,0.15477 -0.07903,0.27859 -0.08077,0.12209 -0.242311,0.21495 z m -0.692537,-0.70162 q -0.278392,0 -0.43649,0.0929 -0.158096,0.0929 -0.158096,0.25623 0,0.16337 0.158096,0.25795 0.158098,0.0946 0.43649,0.0946 0.278393,0 0.436475,-0.0946 0.158109,-0.0946 0.158109,-0.25795 0,-0.16337 -0.158109,-0.25623 -0.158082,-0.0929 -0.436475,-0.0929 z"
     style="font-style:normal;font-variant:normal;font-weight:bold;font-stretch:normal;font-size:13.33333302px;line-height:1.25;font-family:monospace;-inkscape-font-specification:'monospace Bold';letter-spacing:0px;word-spacing:0px;fill:#00c0ee;fill-opacity:1;stroke:none;stroke-width:0.26404658"
     id="path24333" />
  <path
     d="m 55.039895,232.30032 h -1.484751 v 0.51074 h -0.386651 v -1.0146 h 1.871402 q 0.226816,0 0.321338,-0.0705 0.09452,-0.0705 0.09452,-0.23904 v -0.4024 h 0.386641 v 0.54341 q 0,0.35941 -0.185587,0.5159 -0.185586,0.15649 -0.616914,0.15649 z"
     style="font-style:normal;font-variant:normal;font-weight:bold;font-stretch:normal;font-size:13.33333302px;line-height:1.25;font-family:monospace;-inkscape-font-specification:'monospace Bold';letter-spacing:0px;word-spacing:0px;fill:#00c0ee;fill-opacity:1;stroke:none;stroke-width:0.26404658"
     id="path24335" />
  <path
     d="m 54.938511,229.64173 q 0,0.28203 0.07216,0.39381 0.07217,0.11177 0.247457,0.11177 0.130605,0 0.207943,-0.0774 0.07731,-0.0774 0.07731,-0.2098 0,-0.19948 -0.149504,-0.30954 -0.151219,-0.11005 -0.421007,-0.11005 H 54.9385 Z m -0.194192,-0.70161 h 1.098077 v 0.50042 H 55.62759 q 0.127173,0.0911 0.195907,0.23387 0.06873,0.14273 0.06873,0.3147 0,0.32845 -0.17355,0.51245 -0.173576,0.18228 -0.48462,0.18228 -0.336806,0 -0.49663,-0.21839 -0.161524,-0.2184 -0.161524,-0.67582 v -0.34909 h -0.0842 q -0.12201,0 -0.183876,0.0894 -0.06358,0.0877 -0.06358,0.25967 0,0.18056 0.0464,0.3508 0.04468,0.16853 0.144348,0.35253 h -0.429612 q -0.06874,-0.1668 -0.10139,-0.33877 -0.03265,-0.17197 -0.03265,-0.36456 0,-0.46947 0.190747,-0.65863 0.190749,-0.19088 0.682232,-0.19088 z"
     style="font-style:normal;font-variant:normal;font-weight:bold;font-stretch:normal;font-size:13.33333302px;line-height:1.25;font-family:monospace;-inkscape-font-specification:'monospace Bold';letter-spacing:0px;word-spacing:0px;fill:#00c0ee;fill-opacity:1;stroke:none;stroke-width:0.26404658"
     id="path24337" />
  <path
     d="m 53.371271,227.5386 h 0.546467 v -0.65863 h 0.386651 v 0.65863 h 0.910772 q 0.128889,0 0.185613,-0.0619 0.05498,-0.0636 0.05498,-0.2098 v -0.38692 h 0.386641 v 0.42304 q 0,0.43335 -0.137468,0.5864 -0.139183,0.15305 -0.513813,0.15305 h -0.886726 v 0.49182 h -0.386651 v -0.49182 H 53.37127 Z"
     style="font-style:normal;font-variant:normal;font-weight:bold;font-stretch:normal;font-size:13.33333302px;line-height:1.25;font-family:monospace;-inkscape-font-specification:'monospace Bold';letter-spacing:0px;word-spacing:0px;fill:#00c0ee;fill-opacity:1;stroke:none;stroke-width:0.26404658"
     id="path24339" />
  <path
     d="m 53.371271,225.41827 h 0.546467 v -0.65863 h 0.386651 v 0.65863 h 0.910772 q 0.128889,0 0.185613,-0.0619 0.05498,-0.0636 0.05498,-0.2098 v -0.38692 h 0.386641 v 0.42303 q 0,0.43336 -0.137468,0.5864 -0.139183,0.15305 -0.513813,0.15305 h -0.886726 v 0.49183 h -0.386651 v -0.49183 H 53.37127 Z"
     style="font-style:normal;font-variant:normal;font-weight:bold;font-stretch:normal;font-size:13.33333302px;line-height:1.25;font-family:monospace;-inkscape-font-specification:'monospace Bold';letter-spacing:0px;word-spacing:0px;fill:#00c0ee;fill-opacity:1;stroke:none;stroke-width:0.26404658"
     id="path24341" />
  <path
     d="m 55.7479,222.58943 q 0.07217,0.17541 0.108248,0.35769 0.03608,0.18229 0.03608,0.3852 0,0.48323 -0.257751,0.73945 -0.259494,0.25451 -0.745803,0.25451 -0.470868,0 -0.744103,-0.24591 -0.273233,-0.24591 -0.273233,-0.67066 0,-0.42819 0.254331,-0.66379 0.252612,-0.23731 0.71317,-0.23731 h 0.204486 v 1.30522 q 0.226842,-0.002 0.338521,-0.13413 0.111706,-0.13242 0.111706,-0.39553 0,-0.17368 -0.04984,-0.34221 -0.04984,-0.16852 -0.158082,-0.35253 z m -1.082635,0.42648 q -0.199341,0.003 -0.300728,0.10318 -0.103109,0.098 -0.103109,0.29062 0,0.17368 0.106545,0.27686 0.104824,0.10318 0.299008,0.1221 z"
     style="font-style:normal;font-variant:normal;font-weight:bold;font-stretch:normal;font-size:13.33333302px;line-height:1.25;font-family:monospace;-inkscape-font-specification:'monospace Bold';letter-spacing:0px;word-spacing:0px;fill:#00c0ee;fill-opacity:1;stroke:none;stroke-width:0.26404658"
     id="path24343" />
  <path
     d="m 55.842396,219.8569 h -2.565642 v -0.50729 H 55.3956 v -1.0851 h 0.446796 z"
     style="font-style:normal;font-variant:normal;font-weight:bold;font-stretch:normal;font-size:13.33333302px;line-height:1.25;font-family:monospace;-inkscape-font-specification:'monospace Bold';letter-spacing:0px;word-spacing:0px;fill:#00c0ee;fill-opacity:1;stroke:none;stroke-width:0.26404658"
     id="path24345" />
  <path
     d="m 54.938511,216.91973 q 0,0.28203 0.07216,0.39381 0.07217,0.11177 0.247457,0.11177 0.130605,0 0.207943,-0.0774 0.07731,-0.0774 0.07731,-0.2098 0,-0.19948 -0.149504,-0.30954 -0.151219,-0.11005 -0.421007,-0.11005 H 54.9385 Z m -0.194192,-0.70161 h 1.098077 v 0.50042 H 55.62759 q 0.127173,0.0911 0.195907,0.23387 0.06873,0.14273 0.06873,0.31469 0,0.32846 -0.17355,0.51246 -0.173576,0.18228 -0.48462,0.18228 -0.336806,0 -0.49663,-0.21839 -0.161524,-0.2184 -0.161524,-0.67582 v -0.34909 h -0.0842 q -0.12201,0 -0.183876,0.0894 -0.06358,0.0877 -0.06358,0.25967 0,0.18056 0.0464,0.3508 0.04468,0.16853 0.144348,0.35254 h -0.429612 q -0.06874,-0.16681 -0.10139,-0.33878 -0.03265,-0.17196 -0.03265,-0.36456 0,-0.46947 0.190747,-0.65863 0.190749,-0.19088 0.682232,-0.19088 z"
     style="font-style:normal;font-variant:normal;font-weight:bold;font-stretch:normal;font-size:13.33333302px;line-height:1.25;font-family:monospace;-inkscape-font-specification:'monospace Bold';letter-spacing:0px;word-spacing:0px;fill:#00c0ee;fill-opacity:1;stroke:none;stroke-width:0.26404658"
     id="path24347" />
  <path
     d="m 56.050339,214.78049 q 0.271503,0.10146 0.395245,0.24419 0.125458,0.14101 0.125458,0.34393 v 0.41615 h -0.383236 v -0.20463 q 0,-0.15477 -0.05327,-0.227 -0.05155,-0.0722 -0.24231,-0.14617 l -0.1031,-0.0378 -1.871392,0.73257 v -0.52965 l 1.249304,-0.44023 -1.249304,-0.42132 v -0.52965 z"
     style="font-style:normal;font-variant:normal;font-weight:bold;font-stretch:normal;font-size:13.33333302px;line-height:1.25;font-family:monospace;-inkscape-font-specification:'monospace Bold';letter-spacing:0px;word-spacing:0px;fill:#00c0ee;fill-opacity:1;stroke:none;stroke-width:0.26404658"
     id="path24349" />
  <path
     d="m 55.7479,211.98777 q 0.07217,0.1754 0.108248,0.35769 0.03608,0.18228 0.03608,0.3852 0,0.48322 -0.257751,0.73945 -0.259494,0.25451 -0.745803,0.25451 -0.470868,0 -0.744103,-0.24591 -0.273233,-0.24591 -0.273233,-0.67067 0,-0.42819 0.254331,-0.66378 0.252612,-0.23732 0.71317,-0.23732 h 0.204486 v 1.30522 q 0.226842,-0.002 0.338521,-0.13413 0.111706,-0.13241 0.111706,-0.39552 0,-0.17369 -0.04984,-0.34221 -0.04984,-0.16853 -0.158082,-0.35253 z m -1.082635,0.42647 q -0.199341,0.003 -0.300728,0.10318 -0.103109,0.098 -0.103109,0.29062 0,0.17369 0.106545,0.27687 0.104824,0.10318 0.299008,0.12209 z"
     style="font-style:normal;font-variant:normal;font-weight:bold;font-stretch:normal;font-size:13.33333302px;line-height:1.25;font-family:monospace;-inkscape-font-specification:'monospace Bold';letter-spacing:0px;word-spacing:0px;fill:#00c0ee;fill-opacity:1;stroke:none;stroke-width:0.26404658"
     id="path24351" />
  <path
     d="m 54.448741,209.78317 q -0.07561,0.0825 -0.113419,0.19432 -0.03781,0.11006 -0.03781,0.24247 0,0.15993 0.05671,0.28031 0.05499,0.11865 0.161535,0.184 0.0653,0.0413 0.158111,0.0585 0.09278,0.0155 0.281824,0.0155 h 0.886702 v 0.50386 h -1.924658 v -0.50386 h 0.29901 q -0.164971,-0.074 -0.25433,-0.227 -0.09108,-0.15305 -0.09108,-0.35769 0,-0.10318 0.02579,-0.2012 0.02405,-0.0997 0.07218,-0.18916 z"
     style="font-style:normal;font-variant:normal;font-weight:bold;font-stretch:normal;font-size:13.33333302px;line-height:1.25;font-family:monospace;-inkscape-font-specification:'monospace Bold';letter-spacing:0px;word-spacing:0px;fill:#00c0ee;fill-opacity:1;stroke:none;stroke-width:0.26404658"
     id="path24353" />
  <path
     d="m 54.694485,206.57774 v 0.2717 h -0.446804 v -0.2717 q 0,-0.18917 -0.07389,-0.29234 -0.07561,-0.1049 -0.211369,-0.1049 -0.142633,0 -0.221682,0.1049 -0.08076,0.10317 -0.08076,0.29234 0,0.14445 0.03608,0.30953 0.03609,0.16509 0.104827,0.34221 h -0.460545 q -0.05327,-0.17712 -0.08077,-0.34908 -0.02922,-0.17197 -0.02922,-0.33018 0,-0.40583 0.177,-0.63283 0.177003,-0.227 0.488041,-0.227 0.228556,0 0.374623,0.1307 0.144351,0.13069 0.189031,0.37316 0.04812,-0.27514 0.219966,-0.41959 0.170119,-0.14445 0.448511,-0.14445 0.372915,0 0.568795,0.23903 0.195907,0.23903 0.195907,0.69474 0,0.19432 -0.03265,0.38348 -0.03265,0.18745 -0.09449,0.35941 h -0.470869 q 0.08077,-0.16165 0.123742,-0.34909 0.04123,-0.18744 0.04123,-0.3938 0,-0.20636 -0.09452,-0.32673 -0.09621,-0.12038 -0.257752,-0.12038 -0.197622,0 -0.304181,0.12038 -0.108247,0.12037 -0.108247,0.34049 z"
     style="font-style:normal;font-variant:normal;font-weight:bold;font-stretch:normal;font-size:13.33333302px;line-height:1.25;font-family:monospace;-inkscape-font-specification:'monospace Bold';letter-spacing:0px;word-spacing:0px;fill:#00c0ee;fill-opacity:1;stroke:none;stroke-width:0.26404658"
     id="path24355" />
  <path
     d="m 55.419673,202.22185 -2.142919,-0.45227 v -0.51073 l 2.565642,0.61047 v 0.70334 l -2.565642,0.61048 v -0.51074 z"
     style="font-style:normal;font-variant:normal;font-weight:bold;font-stretch:normal;font-size:13.33333302px;line-height:1.25;font-family:monospace;-inkscape-font-specification:'monospace Bold';letter-spacing:0px;word-spacing:0px;fill:#00c0ee;fill-opacity:1;stroke:none;stroke-width:0.26404658"
     id="path24357" />
  <path
     d="m 53.917738,200.78078 v -0.9974 h 1.538017 v -0.62595 h 0.386641 v 1.75749 h -0.386641 v -0.62768 h -1.151366 v 0.49354 z m -0.936557,-0.49354 v -0.50386 h 0.58771 v 0.50386 z"
     style="font-style:normal;font-variant:normal;font-weight:bold;font-stretch:normal;font-size:13.33333302px;line-height:1.25;font-family:monospace;-inkscape-font-specification:'monospace Bold';letter-spacing:0px;word-spacing:0px;fill:#00c0ee;fill-opacity:1;stroke:none;stroke-width:0.26404658"
     id="path24359" />
  <path
     d="m 53.977883,197.33632 h 0.439925 q -0.08936,0.13929 -0.134039,0.29062 -0.0464,0.14961 -0.0464,0.30094 0,0.16852 0.04983,0.25451 0.04812,0.086 0.144349,0.086 0.137477,0 0.22339,-0.36801 l 0.0053,-0.0189 0.03437,-0.14446 q 0.0653,-0.27514 0.211375,-0.4024 0.14433,-0.12897 0.391787,-0.12897 0.297291,0 0.446795,0.19604 0.147788,0.19432 0.147788,0.5864 0,0.17369 -0.03094,0.35597 -0.02919,0.18228 -0.08935,0.36973 h -0.439932 q 0.09452,-0.16681 0.144356,-0.33877 0.04984,-0.17369 0.04984,-0.33534 0,-0.17712 -0.05155,-0.26826 -0.05155,-0.0911 -0.149504,-0.0911 -0.09624,0 -0.147788,0.0653 -0.05155,0.0636 -0.10999,0.3061 l -0.03093,0.13929 q -0.06528,0.2889 -0.204486,0.42132 -0.139183,0.13241 -0.372901,0.13241 -0.27839,0 -0.433052,-0.2012 -0.154658,-0.2012 -0.154658,-0.56576 0,-0.16337 0.02749,-0.32502 0.02579,-0.16337 0.07905,-0.31642 z"
     style="font-style:normal;font-variant:normal;font-weight:bold;font-stretch:normal;font-size:13.33333302px;line-height:1.25;font-family:monospace;-inkscape-font-specification:'monospace Bold';letter-spacing:0px;word-spacing:0px;fill:#00c0ee;fill-opacity:1;stroke:none;stroke-width:0.26404658"
     id="path24361" />
  <path
     d="m 54.938511,195.7164 q 0,0.28203 0.07216,0.39381 0.07217,0.11177 0.247457,0.11177 0.130605,0 0.207943,-0.0774 0.07731,-0.0774 0.07731,-0.2098 0,-0.19948 -0.149504,-0.30954 -0.151219,-0.11006 -0.421007,-0.11006 H 54.9385 Z m -0.194192,-0.70162 h 1.098077 v 0.50042 H 55.62759 q 0.127173,0.0911 0.195907,0.23388 0.06873,0.14273 0.06873,0.31469 0,0.32846 -0.17355,0.51246 -0.173576,0.18228 -0.48462,0.18228 -0.336806,0 -0.49663,-0.21839 -0.161524,-0.2184 -0.161524,-0.67583 v -0.34909 h -0.0842 q -0.12201,0 -0.183876,0.0894 -0.06358,0.0877 -0.06358,0.25966 0,0.18057 0.0464,0.35081 0.04468,0.16853 0.144348,0.35253 h -0.429612 q -0.06874,-0.1668 -0.10139,-0.33877 -0.03265,-0.17197 -0.03265,-0.36457 0,-0.46946 0.190747,-0.65862 0.190749,-0.19089 0.682232,-0.19089 z"
     style="font-style:normal;font-variant:normal;font-weight:bold;font-stretch:normal;font-size:13.33333302px;line-height:1.25;font-family:monospace;-inkscape-font-specification:'monospace Bold';letter-spacing:0px;word-spacing:0px;fill:#00c0ee;fill-opacity:1;stroke:none;stroke-width:0.26404658"
     id="path24363" />
  <path
     d="m 53.371271,193.61327 h 0.546467 v -0.65863 h 0.386651 v 0.65863 h 0.910772 q 0.128889,0 0.185613,-0.0619 0.05498,-0.0636 0.05498,-0.2098 v -0.38692 h 0.386641 v 0.42304 q 0,0.43335 -0.137468,0.5864 -0.139183,0.15304 -0.513813,0.15304 h -0.886726 v 0.49182 h -0.386651 v -0.49182 H 53.37127 Z"
     style="font-style:normal;font-variant:normal;font-weight:bold;font-stretch:normal;font-size:13.33333302px;line-height:1.25;font-family:monospace;-inkscape-font-specification:'monospace Bold';letter-spacing:0px;word-spacing:0px;fill:#00c0ee;fill-opacity:1;stroke:none;stroke-width:0.26404658"
     id="path24365" />
  <path
     d="m 54.280333,191.62019 q 0,0.18056 0.159813,0.28374 0.158098,0.10318 0.441641,0.10318 0.28354,0 0.443364,-0.10318 0.158108,-0.10318 0.158108,-0.28374 0,-0.18229 -0.158108,-0.28547 -0.159824,-0.10317 -0.443364,-0.10317 -0.283543,0 -0.441641,0.10317 -0.159813,0.10318 -0.159813,0.28547 z m 0.601454,0.89078 q -0.465697,0 -0.737214,-0.24075 -0.273233,-0.24247 -0.273233,-0.65003 0,-0.40928 0.273233,-0.65003 0.271517,-0.24247 0.737214,-0.24247 0.465694,0 0.73894,0.24247 0.271503,0.24075 0.271503,0.65003 0,0.40756 -0.271503,0.65003 -0.273246,0.24075 -0.73894,0.24075 z"
     style="font-style:normal;font-variant:normal;font-weight:bold;font-stretch:normal;font-size:13.33333302px;line-height:1.25;font-family:monospace;-inkscape-font-specification:'monospace Bold';letter-spacing:0px;word-spacing:0px;fill:#00c0ee;fill-opacity:1;stroke:none;stroke-width:0.26404658"
     id="path24367" />
  <path
     d="m 54.593089,188.71741 h 1.249307 v 0.50042 h -1.171984 q -0.209643,0 -0.299002,0.0602 -0.09108,0.0585 -0.09108,0.1926 0,0.13585 0.12201,0.21496 0.122007,0.0774 0.338545,0.0774 h 1.101508 v 0.50042 h -1.924658 v -0.50042 h 0.2887 q -0.159816,-0.0533 -0.247457,-0.18228 -0.08764,-0.12898 -0.08764,-0.31126 0,-0.27343 0.182156,-0.41272 0.180436,-0.13929 0.539593,-0.13929 z"
     style="font-style:normal;font-variant:normal;font-weight:bold;font-stretch:normal;font-size:13.33333302px;line-height:1.25;font-family:monospace;-inkscape-font-specification:'monospace Bold';letter-spacing:0px;word-spacing:0px;fill:#00c0ee;fill-opacity:1;stroke:none;stroke-width:0.26404658"
     id="path24369" />
  <path
     inkscape:connector-curvature="0"
     style="fill:none;stroke:#bbae00;stroke-width:0.35216001;stroke-linecap:butt;stroke-linejoin:miter;stroke-miterlimit:10;stroke-dasharray:none;stroke-opacity:1"
     d="m 106.92272,91.740005 h 3.93869 l 10.01101,9.983635 h 10e-4 v 1.99755 h 25.93762 v -1.99755 l 9.9409,-9.983635 h 2.03052 V 65.784227 h -2.03052 l -9.94079,-9.983632 V 53.80442 h -25.93762 v 1.996175 h -0.001 l -10.01104,9.983632 h -3.93869 l -9.940895,-9.983632 h -0.05087 V 53.80442 H 70.992042 v 2.047077 l -9.960147,9.93273 H 59.02062 v 25.955778 h 2.011275 l 9.960147,9.932735 v 2.04845 h 25.938994 v -1.99755 h 0.05087 z m 0,0"
     id="path260" />
  <path
     inkscape:connector-curvature="0"
     style="fill:none;stroke:#211e1e;stroke-width:0.0880091;stroke-linecap:butt;stroke-linejoin:miter;stroke-miterlimit:10;stroke-opacity:1"
     d="M 85.402762,78.762801 H 82.58061"
     id="path1025-5" />
  <path
     inkscape:connector-curvature="0"
     style="fill:none;stroke:#211e1e;stroke-width:0.0880091;stroke-linecap:butt;stroke-linejoin:miter;stroke-miterlimit:10;stroke-opacity:1"
     d="M 83.992376,80.174208 V 77.351395"
     id="path1027-6" />
  <path
     inkscape:connector-curvature="0"
     style="fill:none;stroke:#211e1e;stroke-width:0.0880091;stroke-linecap:butt;stroke-linejoin:miter;stroke-miterlimit:10;stroke-opacity:1"
     d="M 135.18375,78.762801 H 132.3616"
     id="path1025" />
  <path
     inkscape:connector-curvature="0"
     style="fill:none;stroke:#211e1e;stroke-width:0.0880091;stroke-linecap:butt;stroke-linejoin:miter;stroke-miterlimit:10;stroke-opacity:1"
     d="M 133.77337,80.174208 V 77.351395"
     id="path1027" />
  <path
     id="path98"
     d="M 41.977598,253.48585 H 31.08676 V 43.806473 h 10.890838"
     style="fill:none;stroke:#211e1e;stroke-width:0.06714574;stroke-linecap:butt;stroke-linejoin:miter;stroke-miterlimit:10;stroke-opacity:1" />
  <path
     transform="matrix(0.000000,-0.264583,0.264583,0.000000,-77.115606,141.659850)"
     id="path17396"
     style="stroke-linejoin:miter;font-size:13.33333302px;-inkscape-font-specification:'monospace Bold';fill-opacity:1;letter-spacing:0px;word-spacing:0px;stroke:none;stroke-linecap:butt;stroke-width:1px;font-style:normal;fill:#000000;font-family:monospace;stroke-opacity:1;font-stretch:normal;font-variant:normal;font-weight:bold;line-height:125%"
     d="m -91.214844,429.07161 q -1.451823,-0.55338 -1.966146,-1.15885 -0.514323,-0.61198 -0.514323,-1.64062 0,-1.32162 0.846355,-2.07683 0.846354,-0.75521 2.324218,-0.75521 0.670573,0 1.341146,0.15625 0.670573,0.14974 1.328125,0.44922 v 1.875 q -0.618489,-0.4362 -1.25651,-0.66406 -0.638021,-0.22786 -1.263021,-0.22786 -0.696615,0 -1.067708,0.27994 -0.371094,0.27995 -0.371094,0.80078 0,0.40365 0.266927,0.67058 0.273437,0.26041 1.132812,0.57942 l 0.826823,0.3125 q 1.171875,0.42969 1.725261,1.13933 0.553385,0.70963 0.553385,1.79036 0,1.47136 -0.872396,2.20052 -0.865885,0.72266 -2.623698,0.72266 -0.722656,0 -1.451822,-0.17578 -0.722657,-0.16927 -1.39974,-0.50781 v -1.98568 q 0.768229,0.54687 1.484375,0.8138 0.722656,0.26693 1.425781,0.26693 0.709636,0 1.100261,-0.31901 0.390625,-0.32552 0.390625,-0.90495 0,-0.4362 -0.260417,-0.76172 -0.260417,-0.33203 -0.755208,-0.52083 z" />
  <path
     transform="matrix(0.000000,-0.264583,0.264583,0.000000,-77.115606,141.659850)"
     id="path17398"
     style="stroke-linejoin:miter;font-size:13.33333302px;-inkscape-font-specification:'monospace Bold';fill-opacity:1;letter-spacing:0px;word-spacing:0px;stroke:none;stroke-linecap:butt;stroke-width:1px;font-style:normal;fill:#000000;font-family:monospace;stroke-opacity:1;font-stretch:normal;font-variant:normal;font-weight:bold;line-height:125%"
     d="m -79.541667,428.60286 v 4.73308 h -1.894531 v -4.44011 q 0,-0.78776 -0.227865,-1.1263 -0.221354,-0.33854 -0.729167,-0.33854 -0.520833,0 -0.813802,0.46224 Q -83.5,428.34896 -83.5,429.16276 v 4.17318 h -1.894532 V 423.20573 H -83.5 v 3.93229 q 0.201823,-0.60547 0.690104,-0.9375 0.488281,-0.33203 1.178385,-0.33203 1.035156,0 1.5625,0.6901 0.527344,0.6836 0.527344,2.04427 z" />
  <path
     transform="matrix(0.000000,-0.264583,0.264583,0.000000,-77.115606,141.659850)"
     id="path17400"
     style="stroke-linejoin:miter;font-size:13.33333302px;-inkscape-font-specification:'monospace Bold';fill-opacity:1;letter-spacing:0px;word-spacing:0px;stroke:none;stroke-linecap:butt;stroke-width:1px;font-style:normal;fill:#000000;font-family:monospace;stroke-opacity:1;font-stretch:normal;font-variant:normal;font-weight:bold;line-height:125%"
     d="m -71.319011,432.97786 q -0.664063,0.27344 -1.354167,0.41016 -0.690104,0.13672 -1.458333,0.13672 -1.829427,0 -2.799479,-0.97656 -0.963542,-0.98308 -0.963542,-2.82552 0,-1.78386 0.93099,-2.81901 0.930989,-1.03516 2.539062,-1.03516 1.621094,0 2.513021,0.96354 0.898437,0.95703 0.898437,2.70182 v 0.77474 h -4.941406 q 0.0065,0.85938 0.507813,1.28256 0.501302,0.42317 1.497396,0.42317 0.657552,0 1.295572,-0.1888 0.638021,-0.1888 1.334636,-0.59896 z m -1.614584,-4.10156 q -0.01302,-0.75521 -0.390625,-1.13932 -0.371093,-0.39063 -1.10026,-0.39063 -0.657552,0 -1.048177,0.40365 -0.390625,0.39714 -0.46224,1.13281 z" />
  <path
     transform="matrix(0.000000,-0.264583,0.264583,0.000000,-77.115606,141.659850)"
     id="path17402"
     style="stroke-linejoin:miter;font-size:13.33333302px;-inkscape-font-specification:'monospace Bold';fill-opacity:1;letter-spacing:0px;word-spacing:0px;stroke:none;stroke-linecap:butt;stroke-width:1px;font-style:normal;fill:#000000;font-family:monospace;stroke-opacity:1;font-stretch:normal;font-variant:normal;font-weight:bold;line-height:125%"
     d="m -63.298177,432.97786 q -0.664063,0.27344 -1.354167,0.41016 -0.690104,0.13672 -1.458333,0.13672 -1.829427,0 -2.799479,-0.97656 -0.963542,-0.98308 -0.963542,-2.82552 0,-1.78386 0.93099,-2.81901 0.930989,-1.03516 2.539062,-1.03516 1.621094,0 2.513021,0.96354 0.898437,0.95703 0.898437,2.70182 v 0.77474 h -4.941406 q 0.0065,0.85938 0.507813,1.28256 0.501302,0.42317 1.497395,0.42317 0.657553,0 1.295573,-0.1888 0.638021,-0.1888 1.334636,-0.59896 z m -1.614584,-4.10156 q -0.01302,-0.75521 -0.390625,-1.13932 -0.371093,-0.39063 -1.10026,-0.39063 -0.657552,0 -1.048177,0.40365 -0.390625,0.39714 -0.46224,1.13281 z" />
  <path
     transform="matrix(0.000000,-0.264583,0.264583,0.000000,-77.115606,141.659850)"
     id="path17404"
     style="stroke-linejoin:miter;font-size:13.33333302px;-inkscape-font-specification:'monospace Bold';fill-opacity:1;letter-spacing:0px;word-spacing:0px;stroke:none;stroke-linecap:butt;stroke-width:1px;font-style:normal;fill:#000000;font-family:monospace;stroke-opacity:1;font-stretch:normal;font-variant:normal;font-weight:bold;line-height:125%"
     d="m -57.959637,423.97396 v 2.07031 h 2.49349 v 1.46484 h -2.49349 v 3.45053 q 0,0.48828 0.234375,0.70312 0.240886,0.20833 0.794271,0.20833 h 1.464844 v 1.46485 h -1.601563 q -1.640625,0 -2.220052,-0.52084 -0.579427,-0.52734 -0.579427,-1.94661 v -3.35938 h -1.861979 v -1.46484 h 1.861979 v -2.07031 z" />
  <path
     transform="matrix(0.000000,-0.264583,0.264583,0.000000,-77.115606,141.659850)"
     id="path17406"
     style="stroke-linejoin:miter;font-size:13.33333302px;-inkscape-font-specification:'monospace Bold';fill-opacity:1;letter-spacing:0px;word-spacing:0px;stroke:none;stroke-linecap:butt;stroke-width:1px;font-style:normal;fill:#000000;font-family:monospace;stroke-opacity:1;font-stretch:normal;font-variant:normal;font-weight:bold;line-height:125%"
     d="m -45.153646,423.61589 h 5.279948 v 1.6927 h -3.723958 v 1.80339 q 0.234375,-0.0912 0.501302,-0.13021 0.266927,-0.0456 0.566406,-0.0456 1.445312,0 2.34375,0.91146 0.898437,0.91145 0.898437,2.36979 0,1.52995 -0.976562,2.42187 -0.970052,0.88542 -2.64974,0.88542 -0.625,0 -1.26302,-0.10417 -0.638021,-0.10416 -1.302084,-0.3125 v -1.73177 q 0.540365,0.26693 1.106771,0.40365 0.572917,0.13021 1.145833,0.13021 1.015625,0 1.542969,-0.42969 0.527344,-0.4362 0.527344,-1.26302 0,-0.76172 -0.527344,-1.21745 -0.520833,-0.46224 -1.393229,-0.46224 -0.514323,0 -1.035156,0.13021 -0.514323,0.1237 -1.041667,0.3776 z" />
  <path
     transform="matrix(0.000000,-0.264583,0.264583,0.000000,-77.115606,141.659850)"
     id="path17408"
     style="stroke-linejoin:miter;font-size:13.33333302px;-inkscape-font-specification:'monospace Bold';fill-opacity:1;letter-spacing:0px;word-spacing:0px;stroke:none;stroke-linecap:butt;stroke-width:1px;font-style:normal;fill:#000000;font-family:monospace;stroke-opacity:1;font-stretch:normal;font-variant:normal;font-weight:bold;line-height:125%"
     d="m -28.408857,428.55078 h 4.108073 v 1.89453 h -4.108073 z" />
  <path
     transform="matrix(0.000000,-0.264583,0.264583,0.000000,-77.115606,141.659850)"
     id="path17410"
     style="stroke-linejoin:miter;font-size:13.33333302px;-inkscape-font-specification:'monospace Bold';fill-opacity:1;letter-spacing:0px;word-spacing:0px;stroke:none;stroke-linecap:butt;stroke-width:1px;font-style:normal;fill:#000000;font-family:monospace;stroke-opacity:1;font-stretch:normal;font-variant:normal;font-weight:bold;line-height:125%"
     d="m -10.316411,431.73437 1.7122391,-8.11848 h 1.9335937 l -2.3111978,9.72005 h -2.66276 l -2.311198,-9.72005 h 1.933593 z" />
  <path
     transform="matrix(0.000000,-0.264583,0.264583,0.000000,-77.115606,141.659850)"
     id="path17412"
     style="stroke-linejoin:miter;font-size:13.33333302px;-inkscape-font-specification:'monospace Bold';fill-opacity:1;letter-spacing:0px;word-spacing:0px;stroke:none;stroke-linecap:butt;stroke-width:1px;font-style:normal;fill:#000000;font-family:monospace;stroke-opacity:1;font-stretch:normal;font-variant:normal;font-weight:bold;line-height:125%"
     d="m -4.8671901,426.04427 h 3.7760416 v 5.82682 h 2.3697916 v 1.46485 h -6.6536457 v -1.46485 h 2.3763021 v -4.36198 h -1.8684896 z m 1.8684896,-3.54818 h 1.907552 v 2.22657 h -1.907552 z" />
  <path
     transform="matrix(0.000000,-0.264583,0.264583,0.000000,-77.115606,141.659850)"
     id="path17414"
     style="stroke-linejoin:miter;font-size:13.33333302px;-inkscape-font-specification:'monospace Bold';fill-opacity:1;letter-spacing:0px;word-spacing:0px;stroke:none;stroke-linecap:butt;stroke-width:1px;font-style:normal;fill:#000000;font-family:monospace;stroke-opacity:1;font-stretch:normal;font-variant:normal;font-weight:bold;line-height:125%"
     d="m 8.1666665,426.27214 v 1.66666 q -0.5273437,-0.33854 -1.1002604,-0.50781 -0.5664062,-0.17578 -1.1393229,-0.17578 -0.6380208,0 -0.9635416,0.1888 -0.3255208,0.18229 -0.3255208,0.54688 0,0.52083 1.3932291,0.84635 l 0.071615,0.0195 0.546875,0.13021 q 1.0416666,0.24739 1.5234374,0.80078 0.4882813,0.54688 0.4882813,1.48438 0,1.1263 -0.7421875,1.6927 -0.7356771,0.5599 -2.220052,0.5599 -0.6575521,0 -1.3476563,-0.11719 -0.6901041,-0.11068 -1.3997395,-0.33854 v -1.66667 q 0.6315104,0.35808 1.282552,0.54688 0.6575521,0.1888 1.2695313,0.1888 0.6705729,0 1.0156249,-0.19531 0.3450521,-0.19531 0.3450521,-0.56641 0,-0.36458 -0.2473958,-0.55989 -0.2408854,-0.19532 -1.1588542,-0.41667 l -0.5273437,-0.11719 q -1.09375,-0.24739 -1.595052,-0.77474 -0.5013021,-0.52734 -0.5013021,-1.41276 0,-1.05469 0.7617187,-1.64062 0.7617188,-0.58594 2.1419271,-0.58594 0.6184895,0 1.2304687,0.10417 0.6184895,0.0976 1.1979166,0.29948 z" />
  <path
     transform="matrix(0.000000,-0.264583,0.264583,0.000000,-77.115606,141.659850)"
     id="path17416"
     style="stroke-linejoin:miter;font-size:13.33333302px;-inkscape-font-specification:'monospace Bold';fill-opacity:1;letter-spacing:0px;word-spacing:0px;stroke:none;stroke-linecap:butt;stroke-width:1px;font-style:normal;fill:#000000;font-family:monospace;stroke-opacity:1;font-stretch:normal;font-variant:normal;font-weight:bold;line-height:125%"
     d="m 14.292964,429.91146 q -1.067709,0 -1.490886,0.27344 -0.423177,0.27343 -0.423177,0.9375 0,0.49479 0.292969,0.78776 0.292969,0.29296 0.794271,0.29296 0.755208,0 1.171875,-0.5664 0.416666,-0.57292 0.416666,-1.59505 v -0.13021 z m 2.656249,-0.73568 v 4.16016 h -1.894531 v -0.8138 q -0.345052,0.48177 -0.885416,0.74218 -0.540365,0.26042 -1.191407,0.26042 -1.243489,0 -1.940104,-0.65755 -0.690104,-0.65755 -0.690104,-1.83594 0,-1.27604 0.826823,-1.88151 0.826823,-0.61198 2.558594,-0.61198 h 1.321614 v -0.31901 q 0,-0.46224 -0.338541,-0.69661 -0.332032,-0.24089 -0.983073,-0.24089 -0.683594,0 -1.328125,0.17578 -0.638021,0.16927 -1.334636,0.54688 v -1.62761 q 0.631511,-0.26041 1.282552,-0.38411 0.651042,-0.1237 1.380209,-0.1237 1.777343,0 2.493489,0.72266 0.722656,0.72265 0.722656,2.58463 z" />
  <path
     transform="matrix(0.000000,-0.264583,0.264583,0.000000,-77.115606,141.659850)"
     id="path17418"
     style="stroke-linejoin:miter;font-size:13.33333302px;-inkscape-font-specification:'monospace Bold';fill-opacity:1;letter-spacing:0px;word-spacing:0px;stroke:none;stroke-linecap:butt;stroke-width:1px;font-style:normal;fill:#000000;font-family:monospace;stroke-opacity:1;font-stretch:normal;font-variant:normal;font-weight:bold;line-height:125%"
     d="m 22.248695,423.97396 v 2.07031 h 2.49349 v 1.46484 h -2.49349 v 3.45053 q 0,0.48828 0.234375,0.70312 0.240886,0.20833 0.794271,0.20833 h 1.464844 v 1.46485 h -1.601563 q -1.640625,0 -2.220052,-0.52084 -0.579427,-0.52734 -0.579427,-1.94661 v -3.35938 h -1.861979 v -1.46484 h 1.861979 v -2.07031 z" />
  <path
     transform="matrix(0.000000,-0.264583,0.264583,0.000000,-77.115606,141.659850)"
     id="path17420"
     style="stroke-linejoin:miter;font-size:13.33333302px;-inkscape-font-specification:'monospace Bold';fill-opacity:1;letter-spacing:0px;word-spacing:0px;stroke:none;stroke-linecap:butt;stroke-width:1px;font-style:normal;fill:#000000;font-family:monospace;stroke-opacity:1;font-stretch:normal;font-variant:normal;font-weight:bold;line-height:125%"
     d="m 29.787753,427.41797 q -0.683594,0 -1.074219,0.60547 -0.390625,0.59896 -0.390625,1.67317 0,1.07422 0.390625,1.67969 0.390625,0.59896 1.074219,0.59896 0.690104,0 1.080729,-0.59896 0.390625,-0.60547 0.390625,-1.67969 0,-1.07421 -0.390625,-1.67317 -0.390625,-0.60547 -1.080729,-0.60547 z m -3.372396,2.27864 q 0,-1.76432 0.911458,-2.79296 0.917969,-1.03516 2.460938,-1.03516 1.549479,0 2.460937,1.03516 0.917969,1.02864 0.917969,2.79296 0,1.76433 -0.917969,2.79948 -0.911458,1.02865 -2.460937,1.02865 -1.542969,0 -2.460938,-1.02865 -0.911458,-1.03515 -0.911458,-2.79948 z" />
  <path
     transform="matrix(0.000000,-0.264583,0.264583,0.000000,-77.115606,141.659850)"
     id="path17422"
     style="stroke-linejoin:miter;font-size:13.33333302px;-inkscape-font-specification:'monospace Bold';fill-opacity:1;letter-spacing:0px;word-spacing:0px;stroke:none;stroke-linecap:butt;stroke-width:1px;font-style:normal;fill:#000000;font-family:monospace;stroke-opacity:1;font-stretch:normal;font-variant:normal;font-weight:bold;line-height:125%"
     d="m 40.770828,428.60286 v 4.73308 h -1.894531 v -4.44011 q 0,-0.79427 -0.227865,-1.13281 -0.221354,-0.34505 -0.729166,-0.34505 -0.514323,0 -0.813802,0.46224 -0.292969,0.46224 -0.292969,1.28255 v 4.17318 h -1.894531 v -7.29167 h 1.894531 v 1.09375 q 0.201823,-0.60547 0.690104,-0.9375 0.488281,-0.33203 1.178385,-0.33203 1.035157,0 1.5625,0.6901 0.527344,0.6836 0.527344,2.04427 z" />
  <path
     style="fill:none;stroke:#ec008c;stroke-width:0.35078275;stroke-linecap:butt;stroke-linejoin:miter;stroke-miterlimit:10;stroke-opacity:1"
     d="M 41.977598,253.45569 H 178.65481 V 43.806473 H 41.977598 Z m 0,0"
     id="path294" />
  <path
     d="m 58.963121,52.271592 c 0.55073,0 0.997646,-0.446888 0.997646,-0.998015 0,-0.55148 -0.446916,-0.998369 -0.997646,-0.998369 -0.550727,0 -0.997294,0.446889 -0.997294,0.998369 0,0.551127 0.446567,0.998015 0.997294,0.998015"
     style="stroke:#ea0088;clip-rule:evenodd;stroke-opacity:1;fill-rule:nonzero;stroke-miterlimit:10;stroke-width:0.35203058;fill:none"
     id="path561-9-1-81"
     transform="matrix(1.000000,0.000000,0.000000,1.000000,0.095970,0.000000)" />
  <path
     d="m 57.929892,51.273682 h 2.111454"
     style="stroke:#000000;clip-rule:evenodd;stroke-opacity:1;fill-rule:nonzero;stroke-miterlimit:10;stroke-width:0.23753151px;fill:none"
     id="path565-7-5-39"
     transform="matrix(1.000000,0.000000,0.000000,1.000000,0.095970,0.000000)" />
  <path
     d="m 58.963605,52.315527 v -2.11298"
     style="stroke:#000000;clip-rule:evenodd;stroke-opacity:1;fill-rule:nonzero;stroke-miterlimit:10;stroke-width:0.23753138px;fill:none"
     id="path569-2-4-8"
     transform="matrix(1.000000,0.000000,0.000000,1.000000,0.095970,0.000000)" />
  <path
     d="m 58.963055,246.93309 c 0.550728,0 0.997646,-0.44688 0.997646,-0.99801 0,-0.55148 -0.446918,-0.99837 -0.997646,-0.99837 -0.550727,0 -0.997291,0.44689 -0.997291,0.99837 0,0.55113 0.446564,0.99801 0.997291,0.99801"
     style="stroke:#ea0088;clip-rule:evenodd;stroke-opacity:1;fill-rule:nonzero;stroke-miterlimit:10;stroke-width:0.35203058;fill:none"
     id="path561-9-1-81-2"
     transform="matrix(1.000000,0.000000,0.000000,1.000000,0.095970,0.000000)" />
  <path
     d="m 57.929825,245.93518 h 2.111452"
     style="stroke:#000000;clip-rule:evenodd;stroke-opacity:1;fill-rule:nonzero;stroke-miterlimit:10;stroke-width:0.23753151px;fill:none"
     id="path565-7-5-39-6"
     transform="matrix(1.000000,0.000000,0.000000,1.000000,0.095970,0.000000)" />
  <path
     d="m 58.963539,246.97703 v -2.11298"
     style="stroke:#000000;clip-rule:evenodd;stroke-opacity:1;fill-rule:nonzero;stroke-miterlimit:10;stroke-width:0.23753138px;fill:none"
     id="path569-2-4-8-1"
     transform="matrix(1.000000,0.000000,0.000000,1.000000,0.095970,0.000000)" />
  <path
     d="m 58.963121,52.271592 c 0.55073,0 0.997646,-0.446888 0.997646,-0.998015 0,-0.55148 -0.446916,-0.998369 -0.997646,-0.998369 -0.550727,0 -0.997294,0.446889 -0.997294,0.998369 0,0.551127 0.446567,0.998015 0.997294,0.998015"
     style="stroke:#ea0088;clip-rule:evenodd;stroke-opacity:1;fill-rule:nonzero;stroke-miterlimit:10;stroke-width:0.35203058;fill:none"
     id="path561-9-1-81-0"
     transform="matrix(1.000000,0.000000,0.000000,1.000000,10.063970,-0.000001)" />
  <path
     d="m 57.929892,51.273682 h 2.111454"
     style="stroke:#000000;clip-rule:evenodd;stroke-opacity:1;fill-rule:nonzero;stroke-miterlimit:10;stroke-width:0.23753151px;fill:none"
     id="path565-7-5-39-9"
     transform="matrix(1.000000,0.000000,0.000000,1.000000,10.063970,-0.000001)" />
  <path
     d="m 58.963605,52.315527 v -2.11298"
     style="stroke:#000000;clip-rule:evenodd;stroke-opacity:1;fill-rule:nonzero;stroke-miterlimit:10;stroke-width:0.23753138px;fill:none"
     id="path569-2-4-8-17"
     transform="matrix(1.000000,0.000000,0.000000,1.000000,10.063970,-0.000001)" />
  <path
     d="m 58.963055,246.93309 c 0.550728,0 0.997646,-0.44688 0.997646,-0.99801 0,-0.55148 -0.446918,-0.99837 -0.997646,-0.99837 -0.550727,0 -0.997291,0.44689 -0.997291,0.99837 0,0.55113 0.446564,0.99801 0.997291,0.99801"
     style="stroke:#ea0088;clip-rule:evenodd;stroke-opacity:1;fill-rule:nonzero;stroke-miterlimit:10;stroke-width:0.35203058;fill:none"
     id="path561-9-1-81-2-7"
     transform="matrix(1.000000,0.000000,0.000000,1.000000,10.063970,-0.000001)" />
  <path
     d="m 57.929825,245.93518 h 2.111452"
     style="stroke:#000000;clip-rule:evenodd;stroke-opacity:1;fill-rule:nonzero;stroke-miterlimit:10;stroke-width:0.23753151px;fill:none"
     id="path565-7-5-39-6-1"
     transform="matrix(1.000000,0.000000,0.000000,1.000000,10.063970,-0.000001)" />
  <path
     d="m 58.963539,246.97703 v -2.11298"
     style="stroke:#000000;clip-rule:evenodd;stroke-opacity:1;fill-rule:nonzero;stroke-miterlimit:10;stroke-width:0.23753138px;fill:none"
     id="path569-2-4-8-1-1"
     transform="matrix(1.000000,0.000000,0.000000,1.000000,10.063970,-0.000001)" />
  <path
     d="m 58.963121,52.271592 c 0.55073,0 0.997646,-0.446888 0.997646,-0.998015 0,-0.55148 -0.446916,-0.998369 -0.997646,-0.998369 -0.550727,0 -0.997294,0.446889 -0.997294,0.998369 0,0.551127 0.446567,0.998015 0.997294,0.998015"
     style="stroke:#ea0088;clip-rule:evenodd;stroke-opacity:1;fill-rule:nonzero;stroke-miterlimit:10;stroke-width:0.35203058;fill:none"
     id="path561-9-1-81-7"
     transform="matrix(1.000000,0.000000,0.000000,1.000000,89.802765,0.000000)" />
  <path
     d="m 57.929892,51.273682 h 2.111454"
     style="stroke:#000000;clip-rule:evenodd;stroke-opacity:1;fill-rule:nonzero;stroke-miterlimit:10;stroke-width:0.23753151px;fill:none"
     id="path565-7-5-39-67"
     transform="matrix(1.000000,0.000000,0.000000,1.000000,89.802765,0.000000)" />
  <path
     d="m 58.963605,52.315527 v -2.11298"
     style="stroke:#000000;clip-rule:evenodd;stroke-opacity:1;fill-rule:nonzero;stroke-miterlimit:10;stroke-width:0.23753138px;fill:none"
     id="path569-2-4-8-3"
     transform="matrix(1.000000,0.000000,0.000000,1.000000,89.802765,0.000000)" />
  <path
     d="m 58.963055,246.93309 c 0.550728,0 0.997646,-0.44688 0.997646,-0.99801 0,-0.55148 -0.446918,-0.99837 -0.997646,-0.99837 -0.550727,0 -0.997291,0.44689 -0.997291,0.99837 0,0.55113 0.446564,0.99801 0.997291,0.99801"
     style="stroke:#ea0088;clip-rule:evenodd;stroke-opacity:1;fill-rule:nonzero;stroke-miterlimit:10;stroke-width:0.35203058;fill:none"
     id="path561-9-1-81-2-6"
     transform="matrix(1.000000,0.000000,0.000000,1.000000,89.802765,0.000000)" />
  <path
     d="m 57.929825,245.93518 h 2.111452"
     style="stroke:#000000;clip-rule:evenodd;stroke-opacity:1;fill-rule:nonzero;stroke-miterlimit:10;stroke-width:0.23753151px;fill:none"
     id="path565-7-5-39-6-5"
     transform="matrix(1.000000,0.000000,0.000000,1.000000,89.802765,0.000000)" />
  <path
     d="m 58.963539,246.97703 v -2.11298"
     style="stroke:#000000;clip-rule:evenodd;stroke-opacity:1;fill-rule:nonzero;stroke-miterlimit:10;stroke-width:0.23753138px;fill:none"
     id="path569-2-4-8-1-6"
     transform="matrix(1.000000,0.000000,0.000000,1.000000,89.802765,0.000000)" />
  <path
     d="m 58.963121,52.271592 c 0.55073,0 0.997646,-0.446888 0.997646,-0.998015 0,-0.55148 -0.446916,-0.998369 -0.997646,-0.998369 -0.550727,0 -0.997294,0.446889 -0.997294,0.998369 0,0.551127 0.446567,0.998015 0.997294,0.998015"
     style="stroke:#ea0088;clip-rule:evenodd;stroke-opacity:1;fill-rule:nonzero;stroke-miterlimit:10;stroke-width:0.35203058;fill:none"
     id="path561-9-1-81-0-9"
     transform="matrix(1.000000,0.000000,0.000000,1.000000,99.770765,-0.000001)" />
  <path
     d="m 57.929892,51.273682 h 2.111454"
     style="stroke:#000000;clip-rule:evenodd;stroke-opacity:1;fill-rule:nonzero;stroke-miterlimit:10;stroke-width:0.23753151px;fill:none"
     id="path565-7-5-39-9-4"
     transform="matrix(1.000000,0.000000,0.000000,1.000000,99.770765,-0.000001)" />
  <path
     d="m 58.963605,52.315527 v -2.11298"
     style="stroke:#000000;clip-rule:evenodd;stroke-opacity:1;fill-rule:nonzero;stroke-miterlimit:10;stroke-width:0.23753138px;fill:none"
     id="path569-2-4-8-17-8"
     transform="matrix(1.000000,0.000000,0.000000,1.000000,99.770765,-0.000001)" />
  <path
     d="m 58.963055,246.93309 c 0.550728,0 0.997646,-0.44688 0.997646,-0.99801 0,-0.55148 -0.446918,-0.99837 -0.997646,-0.99837 -0.550727,0 -0.997291,0.44689 -0.997291,0.99837 0,0.55113 0.446564,0.99801 0.997291,0.99801"
     style="stroke:#ea0088;clip-rule:evenodd;stroke-opacity:1;fill-rule:nonzero;stroke-miterlimit:10;stroke-width:0.35203058;fill:none"
     id="path561-9-1-81-2-7-1"
     transform="matrix(1.000000,0.000000,0.000000,1.000000,99.770765,-0.000001)" />
  <path
     d="m 57.929825,245.93518 h 2.111452"
     style="stroke:#000000;clip-rule:evenodd;stroke-opacity:1;fill-rule:nonzero;stroke-miterlimit:10;stroke-width:0.23753151px;fill:none"
     id="path565-7-5-39-6-1-2"
     transform="matrix(1.000000,0.000000,0.000000,1.000000,99.770765,-0.000001)" />
  <path
     d="m 58.963539,246.97703 v -2.11298"
     style="stroke:#000000;clip-rule:evenodd;stroke-opacity:1;fill-rule:nonzero;stroke-miterlimit:10;stroke-width:0.23753138px;fill:none"
     id="path569-2-4-8-1-1-9"
     transform="matrix(1.000000,0.000000,0.000000,1.000000,99.770765,-0.000001)" />
  <path
     inkscape:connector-curvature="0"
     id="path856"
     style="font-style:normal;font-variant:normal;font-weight:bold;font-stretch:normal;font-size:13.3333px;line-height:125%;font-family:monospace;-inkscape-font-specification:'monospace Bold';letter-spacing:0px;word-spacing:0px;fill:#ffcc00;fill-opacity:1;stroke:none;stroke-width:0.264583px;stroke-linecap:butt;stroke-linejoin:miter;stroke-opacity:1"
     d="m 111.81402,139.59802 v 0.75448 h 0.20843 q 0.24977,0 0.34968,-0.0844 0.10163,-0.0844 0.10163,-0.29283 0,-0.20843 -0.10163,-0.29284 -0.0999,-0.0844 -0.34968,-0.0844 z m -0.50815,-0.42719 h 0.69763 q 0.53227,0 0.76481,0.18948 0.23427,0.18948 0.23427,0.61495 0,0.42547 -0.23427,0.61495 -0.23254,0.18948 -0.76481,0.18948 h -0.18948 v 0.9629 h -0.50815 z" />
  <path
     inkscape:connector-curvature="0"
     id="path858"
     style="font-style:normal;font-variant:normal;font-weight:bold;font-stretch:normal;font-size:13.3333px;line-height:125%;font-family:monospace;-inkscape-font-specification:'monospace Bold';letter-spacing:0px;word-spacing:0px;fill:#ffcc00;fill-opacity:1;stroke:none;stroke-width:0.264583px;stroke-linecap:butt;stroke-linejoin:miter;stroke-opacity:1"
     d="m 114.34617,139.73583 -0.64941,1.0163 h 0.64941 z m -0.0448,-0.565 h 0.53226 v 1.5813 h 0.2825 v 0.43581 h -0.2825 v 0.55465 h -0.48748 v -0.55465 h -1.01975 v -0.49265 z" />
  <path
     inkscape:connector-curvature="0"
     id="path860"
     style="font-style:normal;font-variant:normal;font-weight:bold;font-stretch:normal;font-size:13.3333px;line-height:125%;font-family:monospace;-inkscape-font-specification:'monospace Bold';letter-spacing:0px;word-spacing:0px;fill:#ffcc00;fill-opacity:1;stroke:none;stroke-width:0.264583px;stroke-linecap:butt;stroke-linejoin:miter;stroke-opacity:1"
     d="m 112.08791,145.72857 0.45303,-2.14802 h 0.51159 l -0.6115,2.57177 h -0.70453 l -0.6115,-2.57177 h 0.5116 z" />
  <path
     inkscape:connector-curvature="0"
     id="path862"
     style="font-style:normal;font-variant:normal;font-weight:bold;font-stretch:normal;font-size:13.3333px;line-height:125%;font-family:monospace;-inkscape-font-specification:'monospace Bold';letter-spacing:0px;word-spacing:0px;fill:#ffcc00;fill-opacity:1;stroke:none;stroke-width:0.264583px;stroke-linecap:butt;stroke-linejoin:miter;stroke-opacity:1"
     d="m 113.47456,145.70446 h 0.56844 v -1.66915 l -0.52883,0.13091 v -0.4582 l 0.53227,-0.12747 h 0.49093 v 2.12391 h 0.56844 v 0.44786 h -1.63125 z" />
</svg>
