<?xml version="1.0" encoding="UTF-8" standalone="no"?>
<svg
   id="svg19218"
   version="1.1"
   viewBox="0 0 210 297"
   height="297mm"
   width="210mm"
   sodipodi:docname="sheet_6_visaton_waveshare.svg"
   inkscape:version="1.3.1 (9b9bdc1480, 2023-11-25, custom)"
   xmlns:inkscape="http://www.inkscape.org/namespaces/inkscape"
   xmlns:sodipodi="http://sodipodi.sourceforge.net/DTD/sodipodi-0.dtd"
   xmlns="http://www.w3.org/2000/svg"
   xmlns:svg="http://www.w3.org/2000/svg"
   xmlns:rdf="http://www.w3.org/1999/02/22-rdf-syntax-ns#"
   xmlns:cc="http://creativecommons.org/ns#"
   xmlns:dc="http://purl.org/dc/elements/1.1/">
  <sodipodi:namedview
     id="namedview6463"
     pagecolor="#ffffff"
     bordercolor="#666666"
     borderopacity="1.0"
     inkscape:showpageshadow="2"
     inkscape:pageopacity="0.0"
     inkscape:pagecheckerboard="0"
     inkscape:deskcolor="#d1d1d1"
     inkscape:document-units="mm"
     showgrid="false"
     inkscape:zoom="0.5683642"
     inkscape:cx="409.94841"
     inkscape:cy="467.13005"
     inkscape:window-width="1517"
     inkscape:window-height="812"
     inkscape:window-x="0"
     inkscape:window-y="0"
     inkscape:window-maximized="0"
     inkscape:current-layer="svg19218" />
  <defs
     id="defs19212">
    <rect
       x="-384.18851"
       y="330.14557"
       width="330.28281"
       height="172.09167"
       id="rect7378-4" />
    <rect
       x="-384.18851"
       y="330.14557"
       width="330.28281"
       height="172.09167"
       id="rect7378-8-4" />
    <rect
       x="-384.18851"
       y="330.14557"
       width="330.28281"
       height="172.09167"
       id="rect7378-8-4-5" />
    <rect
       x="-384.18851"
       y="330.14557"
       width="330.28281"
       height="172.09167"
       id="rect7378-8-4-5-6" />
    <rect
       x="-384.18851"
       y="330.14557"
       width="330.28281"
       height="172.09167"
       id="rect7378-8-4-5-6-1" />
    <rect
       x="-384.18851"
       y="330.14557"
       width="330.28281"
       height="172.09167"
       id="rect7378-4-0" />
  </defs>
  <metadata
     id="metadata19215">
    <rdf:RDF>
      <cc:Work
         rdf:about="">
        <dc:format>image/svg+xml</dc:format>
        <dc:type
           rdf:resource="http://purl.org/dc/dcmitype/StillImage" />
        <dc:title />
      </cc:Work>
    </rdf:RDF>
  </metadata>
  <path
     transform="matrix(0.000000,-0.264123,0.263931,0.000000,-114.815560,172.947750)"
     id="path23085"
     style="font-size:13.33333302px;-inkscape-font-specification:'monospace Bold';fill-opacity:1;font-weight:bold;letter-spacing:0px;line-height:1.25;word-spacing:0px;stroke:none;font-stretch:normal;font-variant:normal;font-family:monospace;font-style:normal;fill:#00aeee"
     d="m -233.67839,678.59375 v 2.8776 h 1.27605 q 0.91796,0 1.28255,-0.3125 0.37109,-0.3125 0.37109,-1.08724 0,-0.78776 -0.38411,-1.13281 -0.38412,-0.34505 -1.26953,-0.34505 z m 0,-3.78906 v 2.25911 h 1.27605 q 0.72916,0 1.03515,-0.26041 0.3125,-0.26042 0.3125,-0.85938 0,-0.59896 -0.31901,-0.86589 -0.3125,-0.27343 -1.02864,-0.27343 z m -1.85546,-1.52995 h 3.13151 q 1.62109,0 2.43489,0.61849 0.82031,0.61198 0.82031,1.83594 0,0.9375 -0.48177,1.46484 -0.48177,0.52734 -1.41276,0.61198 1.11328,0.11068 1.67318,0.7487 0.56641,0.63802 0.56641,1.78385 0,1.40625 -0.84636,2.03776 -0.84635,0.63151 -2.7539,0.63151 h -3.13151 z" />
  <path
     transform="matrix(0.000000,-0.264123,0.263931,0.000000,-114.815560,172.947750)"
     id="path23087"
     style="font-size:13.33333302px;-inkscape-font-specification:'monospace Bold';fill-opacity:1;font-weight:bold;letter-spacing:0px;line-height:1.25;word-spacing:0px;stroke:none;font-stretch:normal;font-variant:normal;font-family:monospace;font-style:normal;fill:#00aeee"
     d="m -224.3099,677.08984 q -0.68359,0 -1.07421,0.60547 -0.39063,0.59896 -0.39063,1.67318 0,1.07422 0.39063,1.67969 0.39062,0.59896 1.07421,0.59896 0.69011,0 1.08073,-0.59896 0.39063,-0.60547 0.39063,-1.67969 0,-1.07422 -0.39063,-1.67318 -0.39062,-0.60547 -1.08073,-0.60547 z m -3.37239,2.27865 q 0,-1.76432 0.91146,-2.79297 0.91797,-1.03516 2.46093,-1.03516 1.54948,0 2.46094,1.03516 0.91797,1.02865 0.91797,2.79297 0,1.76432 -0.91797,2.79948 -0.91146,1.02864 -2.46094,1.02864 -1.54296,0 -2.46093,-1.02864 -0.91146,-1.03516 -0.91146,-2.79948 z" />
  <path
     transform="matrix(0.000000,-0.264123,0.263931,0.000000,-114.815560,172.947750)"
     id="path23089"
     style="font-size:13.33333302px;-inkscape-font-specification:'monospace Bold';fill-opacity:1;font-weight:bold;letter-spacing:0px;line-height:1.25;word-spacing:0px;stroke:none;font-stretch:normal;font-variant:normal;font-family:monospace;font-style:normal;fill:#00aeee"
     d="m -215.14323,676.7513 v -3.8737 h 1.90104 v 10.13021 h -1.90104 v -1.08073 q -0.30599,0.63151 -0.79427,0.95052 -0.48177,0.31901 -1.13932,0.31901 -1.25,0 -1.94011,-1.0026 -0.6901,-1.0026 -0.6901,-2.82552 0,-1.84896 0.69661,-2.83854 0.70313,-0.98959 1.9987,-0.98959 0.58594,0 1.04818,0.30599 0.46875,0.29948 0.82031,0.90495 z m -2.65625,2.63021 q 0,1.05469 0.35156,1.65365 0.35157,0.59895 0.97006,0.59895 0.61848,0 0.97656,-0.59895 0.35807,-0.59896 0.35807,-1.65365 0,-1.05469 -0.35807,-1.65365 -0.35808,-0.59895 -0.97656,-0.59895 -0.61849,0 -0.97006,0.59895 -0.35156,0.59896 -0.35156,1.65365 z" />
  <path
     transform="matrix(0.000000,-0.264123,0.263931,0.000000,-114.815560,172.947750)"
     id="path23091"
     style="font-size:13.33333302px;-inkscape-font-specification:'monospace Bold';fill-opacity:1;font-weight:bold;letter-spacing:0px;line-height:1.25;word-spacing:0px;stroke:none;font-stretch:normal;font-variant:normal;font-family:monospace;font-style:normal;fill:#00aeee"
     d="m -205.09115,682.64974 q -0.66406,0.27344 -1.35416,0.41016 -0.69011,0.13671 -1.45834,0.13671 -1.82942,0 -2.79948,-0.97656 -0.96354,-0.98307 -0.96354,-2.82552 0,-1.78385 0.93099,-2.81901 0.93099,-1.03516 2.53907,-1.03516 1.62109,0 2.51302,0.96355 0.89843,0.95703 0.89843,2.70182 v 0.77474 h -4.9414 q 0.007,0.85937 0.50781,1.28255 0.5013,0.42318 1.4974,0.42318 0.65755,0 1.29557,-0.1888 0.63802,-0.18881 1.33463,-0.59896 z m -1.61458,-4.10156 q -0.013,-0.75521 -0.39062,-1.13933 -0.3711,-0.39062 -1.10026,-0.39062 -0.65756,0 -1.04818,0.40364 -0.39063,0.39714 -0.46224,1.13282 z" />
  <path
     transform="matrix(0.000000,-0.264123,0.263931,0.000000,-114.815560,172.947750)"
     id="path23093"
     style="font-size:13.33333302px;-inkscape-font-specification:'monospace Bold';fill-opacity:1;font-weight:bold;letter-spacing:0px;line-height:1.25;word-spacing:0px;stroke:none;font-stretch:normal;font-variant:normal;font-family:monospace;font-style:normal;fill:#00aeee"
     d="m -197.26563,678.27474 v 4.73307 h -1.89453 v -4.4401 q 0,-0.79427 -0.22786,-1.13281 -0.22136,-0.34506 -0.72917,-0.34506 -0.51432,0 -0.8138,0.46224 -0.29297,0.46224 -0.29297,1.28256 v 4.17317 h -1.89453 v -7.29166 h 1.89453 v 1.09375 q 0.20182,-0.60547 0.69011,-0.9375 0.48828,-0.33204 1.17838,-0.33204 1.03516,0 1.5625,0.69011 0.52734,0.68359 0.52734,2.04427 z" />
  <path
     transform="matrix(0.000000,-0.264123,0.263931,0.000000,-114.815560,172.947750)"
     id="path23095"
     style="font-size:13.33333302px;-inkscape-font-specification:'monospace Bold';fill-opacity:1;font-weight:bold;letter-spacing:0px;line-height:1.25;word-spacing:0px;stroke:none;font-stretch:normal;font-variant:normal;font-family:monospace;font-style:normal;fill:#00aeee"
     d="m -193.33333,681.97917 v 3.80208 h -1.90105 v -10.0651 h 1.90105 v 1.09375 q 0.29948,-0.63151 0.78776,-0.95053 0.48828,-0.31901 1.14583,-0.31901 1.25,0 1.9401,1.00261 0.69011,1.0026 0.69011,2.82552 0,1.84896 -0.70313,2.83854 -0.69661,0.98958 -1.99218,0.98958 -0.58594,0 -1.05469,-0.29947 -0.46224,-0.30599 -0.8138,-0.91797 z m 2.65625,-2.6237 q 0,-1.05469 -0.35157,-1.65365 -0.35156,-0.59896 -0.97005,-0.59896 -0.61849,0 -0.97656,0.59896 -0.35807,0.59896 -0.35807,1.65365 0,1.05469 0.35807,1.65364 0.35807,0.59896 0.97656,0.59896 0.61849,0 0.97005,-0.59896 0.35157,-0.59895 0.35157,-1.65364 z" />
  <path
     transform="matrix(0.000000,-0.264123,0.263931,0.000000,-114.815560,172.947750)"
     id="path23097"
     style="font-size:13.33333302px;-inkscape-font-specification:'monospace Bold';fill-opacity:1;font-weight:bold;letter-spacing:0px;line-height:1.25;word-spacing:0px;stroke:none;font-stretch:normal;font-variant:normal;font-family:monospace;font-style:normal;fill:#00aeee"
     d="m -185.66406,679.96745 v -5.625 h -1.9336 v -1.46485 h 3.84115 v 7.08985 q 0,0.85937 0.26693,1.21745 0.26692,0.35807 0.90494,0.35807 h 1.52344 v 1.46484 h -2.05729 q -1.36068,0 -1.95312,-0.70312 -0.59245,-0.70313 -0.59245,-2.33724 z" />
  <path
     transform="matrix(0.000000,-0.264123,0.263931,0.000000,-114.815560,172.947750)"
     id="path23099"
     style="font-size:13.33333302px;-inkscape-font-specification:'monospace Bold';fill-opacity:1;font-weight:bold;letter-spacing:0px;line-height:1.25;word-spacing:0px;stroke:none;font-stretch:normal;font-variant:normal;font-family:monospace;font-style:normal;fill:#00aeee"
     d="m -175.59896,679.58333 q -1.06771,0 -1.49088,0.27344 -0.42318,0.27344 -0.42318,0.9375 0,0.49479 0.29297,0.78776 0.29297,0.29297 0.79427,0.29297 0.75521,0 1.17187,-0.56641 0.41667,-0.57291 0.41667,-1.59505 v -0.13021 z m 2.65625,-0.73567 v 4.16015 h -1.89453 v -0.8138 q -0.34505,0.48177 -0.88542,0.74219 -0.54036,0.26041 -1.1914,0.26041 -1.24349,0 -1.94011,-0.65755 -0.6901,-0.65755 -0.6901,-1.83594 0,-1.27604 0.82682,-1.88151 0.82682,-0.61197 2.5586,-0.61197 h 1.32161 v -0.31902 q 0,-0.46223 -0.33854,-0.69661 -0.33203,-0.24089 -0.98307,-0.24089 -0.6836,0 -1.32813,0.17579 -0.63802,0.16927 -1.33463,0.54687 v -1.6276 q 0.63151,-0.26042 1.28255,-0.38412 0.65104,-0.1237 1.38021,-0.1237 1.77734,0 2.49349,0.72266 0.72265,0.72266 0.72265,2.58464 z" />
  <path
     transform="matrix(0.000000,-0.264123,0.263931,0.000000,-114.815560,172.947750)"
     id="path23101"
     style="font-size:13.33333302px;-inkscape-font-specification:'monospace Bold';fill-opacity:1;font-weight:bold;letter-spacing:0px;line-height:1.25;word-spacing:0px;stroke:none;font-stretch:normal;font-variant:normal;font-family:monospace;font-style:normal;fill:#00aeee"
     d="m -167.63672,673.64583 v 2.07032 h 2.49349 v 1.46484 h -2.49349 v 3.45052 q 0,0.48828 0.23438,0.70313 0.24088,0.20833 0.79427,0.20833 h 1.46484 v 1.46484 h -1.60156 q -1.64063,0 -2.22005,-0.52083 -0.57943,-0.52734 -0.57943,-1.94662 v -3.35937 h -1.86198 v -1.46484 h 1.86198 v -2.07032 z" />
  <path
     transform="matrix(0.000000,-0.264123,0.263931,0.000000,-114.815560,172.947750)"
     id="path23103"
     style="font-size:13.33333302px;-inkscape-font-specification:'monospace Bold';fill-opacity:1;font-weight:bold;letter-spacing:0px;line-height:1.25;word-spacing:0px;stroke:none;font-stretch:normal;font-variant:normal;font-family:monospace;font-style:normal;fill:#00aeee"
     d="m -159.60938,673.64583 v 2.07032 h 2.49349 v 1.46484 h -2.49349 v 3.45052 q 0,0.48828 0.23438,0.70313 0.24089,0.20833 0.79427,0.20833 h 1.46484 v 1.46484 h -1.60156 q -1.64062,0 -2.22005,-0.52083 -0.57943,-0.52734 -0.57943,-1.94662 v -3.35937 h -1.86198 v -1.46484 h 1.86198 v -2.07032 z" />
  <path
     transform="matrix(0.000000,-0.264123,0.263931,0.000000,-114.815560,172.947750)"
     id="path23105"
     style="font-size:13.33333302px;-inkscape-font-specification:'monospace Bold';fill-opacity:1;font-weight:bold;letter-spacing:0px;line-height:1.25;word-spacing:0px;stroke:none;font-stretch:normal;font-variant:normal;font-family:monospace;font-style:normal;fill:#00aeee"
     d="m -148.89974,682.64974 q -0.66406,0.27344 -1.35417,0.41016 -0.6901,0.13671 -1.45833,0.13671 -1.82943,0 -2.79948,-0.97656 -0.96354,-0.98307 -0.96354,-2.82552 0,-1.78385 0.93099,-2.81901 0.93099,-1.03516 2.53906,-1.03516 1.6211,0 2.51302,0.96355 0.89844,0.95703 0.89844,2.70182 v 0.77474 h -4.94141 q 0.007,0.85937 0.50782,1.28255 0.5013,0.42318 1.49739,0.42318 0.65755,0 1.29557,-0.1888 0.63803,-0.18881 1.33464,-0.59896 z m -1.61458,-4.10156 q -0.013,-0.75521 -0.39063,-1.13933 -0.37109,-0.39062 -1.10026,-0.39062 -0.65755,0 -1.04818,0.40364 -0.39062,0.39714 -0.46224,1.13282 z" />
  <path
     transform="matrix(0.000000,-0.264123,0.263931,0.000000,-114.815560,172.947750)"
     id="path23107"
     style="font-size:13.33333302px;-inkscape-font-specification:'monospace Bold';fill-opacity:1;font-weight:bold;letter-spacing:0px;line-height:1.25;word-spacing:0px;stroke:none;font-stretch:normal;font-variant:normal;font-family:monospace;font-style:normal;fill:#00aeee"
     d="m -138.55469,683.00781 v -9.72005 h 1.92058 v 8.02734 h 4.10807 v 1.69271 z" />
  <path
     transform="matrix(0.000000,-0.264123,0.263931,0.000000,-114.815560,172.947750)"
     id="path23109"
     style="font-size:13.33333302px;-inkscape-font-specification:'monospace Bold';fill-opacity:1;font-weight:bold;letter-spacing:0px;line-height:1.25;word-spacing:0px;stroke:none;font-stretch:normal;font-variant:normal;font-family:monospace;font-style:normal;fill:#00aeee"
     d="m -127.4349,679.58333 q -1.0677,0 -1.49088,0.27344 -0.42318,0.27344 -0.42318,0.9375 0,0.49479 0.29297,0.78776 0.29297,0.29297 0.79427,0.29297 0.75521,0 1.17188,-0.56641 0.41666,-0.57291 0.41666,-1.59505 v -0.13021 z m 2.65625,-0.73567 v 4.16015 h -1.89453 v -0.8138 q -0.34505,0.48177 -0.88541,0.74219 -0.54037,0.26041 -1.19141,0.26041 -1.24349,0 -1.9401,-0.65755 -0.69011,-0.65755 -0.69011,-1.83594 0,-1.27604 0.82682,-1.88151 0.82683,-0.61197 2.5586,-0.61197 h 1.32161 v -0.31902 q 0,-0.46223 -0.33854,-0.69661 -0.33203,-0.24089 -0.98307,-0.24089 -0.6836,0 -1.32813,0.17579 -0.63802,0.16927 -1.33463,0.54687 v -1.6276 q 0.63151,-0.26042 1.28255,-0.38412 0.65104,-0.1237 1.38021,-0.1237 1.77734,0 2.49349,0.72266 0.72265,0.72266 0.72265,2.58464 z" />
  <path
     transform="matrix(0.000000,-0.264123,0.263931,0.000000,-114.815560,172.947750)"
     id="path23111"
     style="font-size:13.33333302px;-inkscape-font-specification:'monospace Bold';fill-opacity:1;font-weight:bold;letter-spacing:0px;line-height:1.25;word-spacing:0px;stroke:none;font-stretch:normal;font-variant:normal;font-family:monospace;font-style:normal;fill:#00aeee"
     d="m -119.33594,683.79557 q -0.38411,1.02865 -0.92448,1.4974 -0.53385,0.47526 -1.30208,0.47526 h -1.57552 v -1.45182 h 0.77474 q 0.58594,0 0.85937,-0.20183 0.27344,-0.19531 0.55339,-0.91797 l 0.14323,-0.39062 -2.77344,-7.08984 h 2.00521 l 1.66667,4.73307 1.59505,-4.73307 h 2.00521 z" />
  <path
     transform="matrix(0.000000,-0.264123,0.263931,0.000000,-114.815560,172.947750)"
     id="path23113"
     style="font-size:13.33333302px;-inkscape-font-specification:'monospace Bold';fill-opacity:1;font-weight:bold;letter-spacing:0px;line-height:1.25;word-spacing:0px;stroke:none;font-stretch:normal;font-variant:normal;font-family:monospace;font-style:normal;fill:#00aeee"
     d="m -108.76302,682.64974 q -0.66406,0.27344 -1.35417,0.41016 -0.6901,0.13671 -1.45833,0.13671 -1.82943,0 -2.79948,-0.97656 -0.96354,-0.98307 -0.96354,-2.82552 0,-1.78385 0.93099,-2.81901 0.93099,-1.03516 2.53906,-1.03516 1.62109,0 2.51302,0.96355 0.89844,0.95703 0.89844,2.70182 v 0.77474 h -4.94141 q 0.007,0.85937 0.50781,1.28255 0.50131,0.42318 1.4974,0.42318 0.65755,0 1.29557,-0.1888 0.63802,-0.18881 1.33464,-0.59896 z m -1.61458,-4.10156 q -0.013,-0.75521 -0.39063,-1.13933 -0.37109,-0.39062 -1.10026,-0.39062 -0.65755,0 -1.04818,0.40364 -0.39062,0.39714 -0.46224,1.13282 z" />
  <path
     transform="matrix(0.000000,-0.264123,0.263931,0.000000,-114.815560,172.947750)"
     id="path23115"
     style="font-size:13.33333302px;-inkscape-font-specification:'monospace Bold';fill-opacity:1;font-weight:bold;letter-spacing:0px;line-height:1.25;word-spacing:0px;stroke:none;font-stretch:normal;font-variant:normal;font-family:monospace;font-style:normal;fill:#00aeee"
     d="m -100.41667,677.72786 q -0.3125,-0.28645 -0.73567,-0.42968 -0.41667,-0.14323 -0.91797,-0.14323 -0.60547,0 -1.0612,0.21484 -0.44922,0.20833 -0.69662,0.61198 -0.15625,0.2474 -0.22135,0.59896 -0.0586,0.35156 -0.0586,1.06771 v 3.35937 h -1.90756 v -7.29166 h 1.90756 v 1.13281 q 0.27994,-0.625 0.85937,-0.96354 0.57943,-0.34506 1.35417,-0.34506 0.39062,0 0.76172,0.0977 0.3776,0.0911 0.71614,0.27344 z" />
  <path
     transform="matrix(0.000000,-0.264123,0.263931,0.000000,-114.815560,172.947750)"
     id="path23117"
     style="font-size:13.33333302px;-inkscape-font-specification:'monospace Bold';fill-opacity:1;font-weight:bold;letter-spacing:0px;line-height:1.25;word-spacing:0px;stroke:none;font-stretch:normal;font-variant:normal;font-family:monospace;font-style:normal;fill:#00aeee"
     d="m -90.63151,681.3151 h 2.148437 v -6.30859 l -1.998698,0.49479 v -1.73177 l 2.011719,-0.48177 h 1.855469 v 8.02734 h 2.148437 v 1.69271 h -6.165364 z" />
  <path
     transform="matrix(1.000000,0.000000,0.000000,1.000000,0.095970,0.000000)"
     d="m 58.963121,52.271592 c 0.55073,0 0.997646,-0.446888 0.997646,-0.998015 0,-0.55148 -0.446916,-0.998369 -0.997646,-0.998369 -0.550727,0 -0.997294,0.446889 -0.997294,0.998369 0,0.551127 0.446567,0.998015 0.997294,0.998015"
     style="stroke:#ea0088;stroke-miterlimit:10;stroke-opacity:1;fill-rule:nonzero;clip-rule:evenodd;stroke-width:0.35203058;fill:none"
     id="path561-9-1-81" />
  <path
     transform="matrix(1.000000,0.000000,0.000000,1.000000,0.095970,0.000000)"
     d="m 57.929892,51.273682 h 2.111454"
     style="stroke:#000000;stroke-miterlimit:10;stroke-opacity:1;fill-rule:nonzero;clip-rule:evenodd;stroke-width:0.23753151px;fill:none"
     id="path565-7-5-39" />
  <path
     transform="matrix(1.000000,0.000000,0.000000,1.000000,0.095970,0.000000)"
     d="m 58.963605,52.315527 v -2.11298"
     style="stroke:#000000;stroke-miterlimit:10;stroke-opacity:1;fill-rule:nonzero;clip-rule:evenodd;stroke-width:0.23753138px;fill:none"
     id="path569-2-4-8" />
  <path
     transform="matrix(1.000000,0.000000,0.000000,1.000000,0.095970,0.000000)"
     d="m 58.963055,246.93309 c 0.550728,0 0.997646,-0.44688 0.997646,-0.99801 0,-0.55148 -0.446918,-0.99837 -0.997646,-0.99837 -0.550727,0 -0.997291,0.44689 -0.997291,0.99837 0,0.55113 0.446564,0.99801 0.997291,0.99801"
     style="stroke:#ea0088;stroke-miterlimit:10;stroke-opacity:1;fill-rule:nonzero;clip-rule:evenodd;stroke-width:0.35203058;fill:none"
     id="path561-9-1-81-2" />
  <path
     transform="matrix(1.000000,0.000000,0.000000,1.000000,0.095970,0.000000)"
     d="m 57.929825,245.93518 h 2.111452"
     style="stroke:#000000;stroke-miterlimit:10;stroke-opacity:1;fill-rule:nonzero;clip-rule:evenodd;stroke-width:0.23753151px;fill:none"
     id="path565-7-5-39-6" />
  <path
     transform="matrix(1.000000,0.000000,0.000000,1.000000,0.095970,0.000000)"
     d="m 58.963539,246.97703 v -2.11298"
     style="stroke:#000000;stroke-miterlimit:10;stroke-opacity:1;fill-rule:nonzero;clip-rule:evenodd;stroke-width:0.23753138px;fill:none"
     id="path569-2-4-8-1" />
  <path
     transform="matrix(1.000000,0.000000,0.000000,1.000000,89.802765,0.000000)"
     d="m 58.963121,52.271592 c 0.55073,0 0.997646,-0.446888 0.997646,-0.998015 0,-0.55148 -0.446916,-0.998369 -0.997646,-0.998369 -0.550727,0 -0.997294,0.446889 -0.997294,0.998369 0,0.551127 0.446567,0.998015 0.997294,0.998015"
     style="stroke:#ea0088;stroke-miterlimit:10;stroke-opacity:1;fill-rule:nonzero;clip-rule:evenodd;stroke-width:0.35203058;fill:none"
     id="path561-9-1-81-7" />
  <path
     transform="matrix(1.000000,0.000000,0.000000,1.000000,89.802765,0.000000)"
     d="m 57.929892,51.273682 h 2.111454"
     style="stroke:#000000;stroke-miterlimit:10;stroke-opacity:1;fill-rule:nonzero;clip-rule:evenodd;stroke-width:0.23753151px;fill:none"
     id="path565-7-5-39-67" />
  <path
     transform="matrix(1.000000,0.000000,0.000000,1.000000,89.802765,0.000000)"
     d="m 58.963605,52.315527 v -2.11298"
     style="stroke:#000000;stroke-miterlimit:10;stroke-opacity:1;fill-rule:nonzero;clip-rule:evenodd;stroke-width:0.23753138px;fill:none"
     id="path569-2-4-8-3" />
  <path
     transform="matrix(1.000000,0.000000,0.000000,1.000000,89.802765,0.000000)"
     d="m 58.963055,246.93309 c 0.550728,0 0.997646,-0.44688 0.997646,-0.99801 0,-0.55148 -0.446918,-0.99837 -0.997646,-0.99837 -0.550727,0 -0.997291,0.44689 -0.997291,0.99837 0,0.55113 0.446564,0.99801 0.997291,0.99801"
     style="stroke:#ea0088;stroke-miterlimit:10;stroke-opacity:1;fill-rule:nonzero;clip-rule:evenodd;stroke-width:0.35203058;fill:none"
     id="path561-9-1-81-2-6" />
  <path
     transform="matrix(1.000000,0.000000,0.000000,1.000000,89.802765,0.000000)"
     d="m 57.929825,245.93518 h 2.111452"
     style="stroke:#000000;stroke-miterlimit:10;stroke-opacity:1;fill-rule:nonzero;clip-rule:evenodd;stroke-width:0.23753151px;fill:none"
     id="path565-7-5-39-6-5" />
  <path
     transform="matrix(1.000000,0.000000,0.000000,1.000000,89.802765,0.000000)"
     d="m 58.963539,246.97703 v -2.11298"
     style="stroke:#000000;stroke-miterlimit:10;stroke-opacity:1;fill-rule:nonzero;clip-rule:evenodd;stroke-width:0.23753138px;fill:none"
     id="path569-2-4-8-1-6" />
  <path
     style="fill:none;stroke:#ec008c;stroke-width:0.36470965;stroke-linecap:butt;stroke-linejoin:miter;stroke-miterlimit:10;stroke-opacity:1"
     d="M 31.023389,253.42274 H 178.65866 V 43.787454 H 31.023389 Z m 0,0"
     id="path199" />
  <path
     inkscape:connector-curvature="0"
     id="path1025-5"
     d="M 85.402762,78.762488 H 82.58061"
     style="fill:none;stroke:#211e1e;stroke-width:0.0880091;stroke-linecap:butt;stroke-linejoin:miter;stroke-miterlimit:10;stroke-opacity:1" />
  <path
     inkscape:connector-curvature="0"
     id="path1027-6"
     d="M 83.992376,80.173895 V 77.351079"
     style="fill:none;stroke:#211e1e;stroke-width:0.0880091;stroke-linecap:butt;stroke-linejoin:miter;stroke-miterlimit:10;stroke-opacity:1" />
  <path
     inkscape:connector-curvature="0"
     id="path1025"
     d="M 135.18375,78.762488 H 132.3616"
     style="fill:none;stroke:#211e1e;stroke-width:0.0880091;stroke-linecap:butt;stroke-linejoin:miter;stroke-miterlimit:10;stroke-opacity:1" />
  <path
     inkscape:connector-curvature="0"
     id="path1027"
     d="M 133.77337,80.173895 V 77.351079"
     style="fill:none;stroke:#211e1e;stroke-width:0.0880091;stroke-linecap:butt;stroke-linejoin:miter;stroke-miterlimit:10;stroke-opacity:1" />
  <path
     inkscape:connector-curvature="0"
     id="path195"
     d="m 69.029379,72.561105 8.766099,-8.772464 h 12.395155 l 8.764727,8.772464 v 12.404151 l -8.764727,8.771087 H 77.795478 l -8.766099,-8.771087 z m 0,0"
     style="fill:none;stroke:#bbae00;stroke-width:0.281277;stroke-linecap:butt;stroke-linejoin:miter;stroke-miterlimit:10;stroke-opacity:1" />
  <path
     inkscape:connector-curvature="0"
     id="path197"
     d="m 118.81038,72.561102 8.76609,-8.772464 h 12.39516 l 8.76472,8.772464 v 12.404152 l -8.76472,8.77109 h -12.39516 l -8.76609,-8.77109 z m 0,0"
     style="fill:none;stroke:#bbae00;stroke-width:0.281277;stroke-linecap:butt;stroke-linejoin:miter;stroke-miterlimit:10;stroke-opacity:1" />
  <path
     inkscape:connector-curvature="0"
     d="m 77.426895,70.848476 q -0.38413,-0.146418 -0.52021,-0.306615 -0.136081,-0.161919 -0.136081,-0.434079 0,-0.349678 0.22393,-0.549492 0.223933,-0.199816 0.614949,-0.199816 0.177422,0 0.354846,0.04134 0.177421,0.03962 0.351398,0.118855 v 0.496093 q -0.163642,-0.11541 -0.332451,-0.175702 -0.16881,-0.06029 -0.334174,-0.06029 -0.184311,0 -0.282498,0.07407 -0.09818,0.07407 -0.09818,0.211872 0,0.106797 0.07062,0.177422 0.07234,0.0689 0.299722,0.153307 l 0.218763,0.08268 q 0.310059,0.113689 0.456474,0.301445 0.146418,0.187759 0.146418,0.473701 0,0.389295 -0.230822,0.582221 -0.229097,0.191201 -0.694187,0.191201 -0.191201,0 -0.384127,-0.04651 -0.191203,-0.04479 -0.370347,-0.134358 v -0.525377 q 0.203261,0.144695 0.392742,0.215318 0.191201,0.07062 0.377237,0.07062 0.187756,0 0.29111,-0.0844 0.103351,-0.08613 0.103351,-0.239434 0,-0.115409 -0.0689,-0.201538 -0.0689,-0.08785 -0.199815,-0.137803 z"
     style="font-style:normal;font-variant:normal;font-weight:bold;font-stretch:normal;font-size:13.33329964px;line-height:125%;font-family:monospace;-inkscape-font-specification:'monospace Bold';letter-spacing:0px;word-spacing:0px;fill:#000000;fill-opacity:1;stroke:none;stroke-width:0.26458299px;stroke-linecap:butt;stroke-linejoin:miter;stroke-opacity:1"
     id="path22542" />
  <path
     inkscape:connector-curvature="0"
     d="m 80.515417,70.724452 v 1.25229 h -0.501261 v -1.174774 q 0,-0.208428 -0.06029,-0.298002 -0.05857,-0.08957 -0.192926,-0.08957 -0.137803,0 -0.215318,0.122301 -0.07752,0.120577 -0.07752,0.335896 v 1.104152 h -0.50126 v -2.680281 h 0.50126 v 1.040417 q 0.0534,-0.160194 0.182591,-0.248047 0.129191,-0.08785 0.31178,-0.08785 0.273885,0 0.413411,0.182591 0.139525,0.180867 0.139525,0.540879 z"
     style="font-style:normal;font-variant:normal;font-weight:bold;font-stretch:normal;font-size:13.33329964px;line-height:125%;font-family:monospace;-inkscape-font-specification:'monospace Bold';letter-spacing:0px;word-spacing:0px;fill:#000000;fill-opacity:1;stroke:none;stroke-width:0.26458299px;stroke-linecap:butt;stroke-linejoin:miter;stroke-opacity:1"
     id="path22544" />
  <path
     inkscape:connector-curvature="0"
     d="m 82.690993,71.882003 q -0.175699,0.07235 -0.35829,0.108519 -0.182589,0.03617 -0.38585,0.03617 -0.484036,0 -0.740695,-0.258382 -0.254936,-0.260103 -0.254936,-0.747584 0,-0.471977 0.246324,-0.745862 0.246324,-0.273886 0.671792,-0.273886 0.428916,0 0.664903,0.254936 0.237712,0.253217 0.237712,0.714859 v 0.204983 H 81.46454 q 0.0019,0.227374 0.13436,0.339341 0.132636,0.111966 0.396184,0.111966 0.173977,0 0.342786,-0.04996 0.168812,-0.04995 0.353123,-0.158472 z m -0.42719,-1.085202 q -0.0034,-0.199816 -0.103355,-0.301447 -0.09818,-0.103352 -0.29111,-0.103352 -0.173976,0 -0.27733,0.106797 -0.103352,0.105076 -0.122301,0.299724 z"
     style="font-style:normal;font-variant:normal;font-weight:bold;font-stretch:normal;font-size:13.33329964px;line-height:125%;font-family:monospace;-inkscape-font-specification:'monospace Bold';letter-spacing:0px;word-spacing:0px;fill:#000000;fill-opacity:1;stroke:none;stroke-width:0.26458299px;stroke-linecap:butt;stroke-linejoin:miter;stroke-opacity:1"
     id="path22546" />
  <path
     inkscape:connector-curvature="0"
     d="m 84.813168,71.882003 q -0.175699,0.07235 -0.358288,0.108519 -0.182591,0.03617 -0.385851,0.03617 -0.484034,0 -0.740695,-0.258382 -0.254937,-0.260103 -0.254937,-0.747584 0,-0.471977 0.246325,-0.745862 0.246324,-0.273886 0.671794,-0.273886 0.428913,0 0.664903,0.254936 0.237709,0.253217 0.237709,0.714859 v 0.204983 h -1.30741 q 0.0019,0.227374 0.134357,0.339341 0.132636,0.111966 0.396187,0.111966 0.173977,0 0.342786,-0.04996 0.168809,-0.04995 0.35312,-0.158472 z m -0.42719,-1.085202 q -0.0034,-0.199816 -0.103352,-0.301447 -0.09819,-0.103352 -0.29111,-0.103352 -0.173979,0 -0.27733,0.106797 -0.103354,0.105076 -0.122301,0.299724 z"
     style="font-style:normal;font-variant:normal;font-weight:bold;font-stretch:normal;font-size:13.33329964px;line-height:125%;font-family:monospace;-inkscape-font-specification:'monospace Bold';letter-spacing:0px;word-spacing:0px;fill:#000000;fill-opacity:1;stroke:none;stroke-width:0.26458299px;stroke-linecap:butt;stroke-linejoin:miter;stroke-opacity:1"
     id="path22548" />
  <path
     inkscape:connector-curvature="0"
     d="m 86.225655,69.499722 v 0.547768 h 0.659735 v 0.387575 h -0.659735 v 0.912949 q 0,0.12919 0.06201,0.186033 0.06373,0.05512 0.21015,0.05512 h 0.387572 v 0.387571 h -0.423745 q -0.434081,0 -0.587388,-0.137802 -0.153307,-0.139528 -0.153307,-0.515043 v -0.888832 h -0.492648 v -0.387575 h 0.492648 v -0.547768 z"
     style="font-style:normal;font-variant:normal;font-weight:bold;font-stretch:normal;font-size:13.33329964px;line-height:125%;font-family:monospace;-inkscape-font-specification:'monospace Bold';letter-spacing:0px;word-spacing:0px;fill:#000000;fill-opacity:1;stroke:none;stroke-width:0.26458299px;stroke-linecap:butt;stroke-linejoin:miter;stroke-opacity:1"
     id="path22550" />
  <path
     inkscape:connector-curvature="0"
     d="m 90.389049,70.688279 q -0.165365,0 -0.253214,0.120578 -0.08613,0.118856 -0.08613,0.346231 0,0.225655 0.08613,0.346233 0.08785,0.118853 0.253214,0.118853 0.165364,0 0.253213,-0.118853 0.08957,-0.120578 0.08957,-0.346233 0,-0.225653 -0.08957,-0.346231 -0.08785,-0.120578 -0.253213,-0.120578 z m 0.666624,-1.223009 v 0.461645 q -0.13608,-0.07751 -0.261826,-0.115412 -0.124023,-0.03962 -0.239434,-0.03962 -0.275606,0 -0.420301,0.186033 -0.14297,0.184314 -0.149862,0.546047 0.08096,-0.111964 0.206705,-0.167087 0.125749,-0.05684 0.29628,-0.05684 0.347953,0 0.537435,0.220485 0.189478,0.218765 0.189478,0.621839 0,0.43236 -0.213595,0.670072 -0.211873,0.237709 -0.597722,0.237709 -0.470257,0 -0.683852,-0.315224 -0.211873,-0.315227 -0.211873,-1.018025 0,-0.668347 0.260104,-1.000799 0.260106,-0.334173 0.780313,-0.334173 0.120579,0 0.248047,0.02585 0.12919,0.02585 0.260103,0.07751 z"
     style="font-style:normal;font-variant:normal;font-weight:bold;font-stretch:normal;font-size:13.33329964px;line-height:125%;font-family:monospace;-inkscape-font-specification:'monospace Bold';letter-spacing:0px;word-spacing:0px;fill:#000000;fill-opacity:1;stroke:none;stroke-width:0.26458299px;stroke-linecap:butt;stroke-linejoin:miter;stroke-opacity:1"
     id="path22552" />
  <path
     inkscape:connector-curvature="0"
     style="font-weight:bold;font-size:13.33329964px;line-height:1.25;font-family:monospace;-inkscape-font-specification:'monospace Bold';letter-spacing:0px;word-spacing:0px;white-space:pre;stroke-width:0.26458299"
     id="path8264"
     d="m 124.28819,85.155305 h 0.44441 l 0.18431,1.887908 0.22221,-1.221283 h 0.42202 l 0.25839,1.221283 0.14469,-1.887908 h 0.44786 l -0.29628,2.571758 h -0.4737 l -0.29283,-1.350472 -0.27388,1.350472 h -0.47026 z" />
  <path
     inkscape:connector-curvature="0"
     style="font-weight:bold;font-size:13.33329964px;line-height:1.25;font-family:monospace;-inkscape-font-specification:'monospace Bold';letter-spacing:0px;word-spacing:0px;white-space:pre;stroke-width:0.26458299"
     id="path8266"
     d="m 127.61786,86.821005 q -0.28249,0 -0.39446,0.07235 -0.11197,0.07234 -0.11197,0.248044 0,0.130913 0.0775,0.208428 0.0775,0.07752 0.21015,0.07752 0.19981,0 0.31006,-0.14986 0.11024,-0.151585 0.11024,-0.422024 v -0.03445 z m 0.7028,-0.194649 v 1.100707 h -0.50126 v -0.215317 q -0.0913,0.127467 -0.23427,0.196371 -0.14297,0.0689 -0.31522,0.0689 -0.32901,0 -0.51332,-0.173977 -0.18259,-0.173977 -0.18259,-0.485756 0,-0.337619 0.21876,-0.497816 0.21877,-0.16192 0.67696,-0.16192 h 0.34968 v -0.08441 q 0,-0.122298 -0.0896,-0.184311 -0.0879,-0.06373 -0.26011,-0.06373 -0.18087,0 -0.3514,0.04651 -0.1688,0.04479 -0.35312,0.144693 v -0.430637 q 0.16709,-0.0689 0.33934,-0.101629 0.17226,-0.03273 0.36518,-0.03273 0.47026,0 0.65974,0.191201 0.1912,0.191204 0.1912,0.683851 z" />
  <path
     inkscape:connector-curvature="0"
     style="font-weight:bold;font-size:13.33329964px;line-height:1.25;font-family:monospace;-inkscape-font-specification:'monospace Bold';letter-spacing:0px;word-spacing:0px;white-space:pre;stroke-width:0.26458299"
     id="path8268"
     d="m 130.52207,85.797814 -0.61323,1.929249 h -0.62183 l -0.61323,-1.929249 h 0.5116 l 0.41168,1.505504 0.41342,-1.505504 z" />
  <path
     inkscape:connector-curvature="0"
     style="font-weight:bold;font-size:13.33329964px;line-height:1.25;font-family:monospace;-inkscape-font-specification:'monospace Bold';letter-spacing:0px;word-spacing:0px;white-space:pre;stroke-width:0.26458299"
     id="path8270"
     d="m 132.55812,87.632323 q -0.1757,0.07234 -0.35829,0.108519 -0.18259,0.03617 -0.38585,0.03617 -0.48404,0 -0.7407,-0.258382 -0.25493,-0.260103 -0.25493,-0.747581 0,-0.471977 0.24632,-0.745863 0.24632,-0.273884 0.67179,-0.273884 0.42892,0 0.6649,0.254937 0.23772,0.253214 0.23772,0.714856 v 0.204981 h -1.30742 q 0.002,0.227378 0.13436,0.339341 0.13264,0.111967 0.39619,0.111967 0.17398,0 0.34279,-0.04995 0.1688,-0.04995 0.35312,-0.158475 z m -0.42719,-1.085201 q -0.003,-0.199815 -0.10336,-0.301445 -0.0982,-0.103354 -0.29111,-0.103354 -0.17397,0 -0.27733,0.106798 -0.10335,0.105075 -0.1223,0.299724 z" />
  <path
     inkscape:connector-curvature="0"
     style="font-weight:bold;font-size:13.33329964px;line-height:1.25;font-family:monospace;-inkscape-font-specification:'monospace Bold';letter-spacing:0px;word-spacing:0px;white-space:pre;stroke-width:0.26458299"
     id="path8272"
     d="m 133.66227,86.598797 q -0.38413,-0.146417 -0.52021,-0.306612 -0.13608,-0.16192 -0.13608,-0.434081 0,-0.349678 0.22393,-0.549492 0.22393,-0.199816 0.61495,-0.199816 0.17742,0 0.35484,0.04134 0.17742,0.03962 0.3514,0.118857 v 0.496091 q -0.16364,-0.115409 -0.33245,-0.1757 -0.16881,-0.06029 -0.33417,-0.06029 -0.18432,0 -0.2825,0.07407 -0.0982,0.07407 -0.0982,0.211873 0,0.106796 0.0706,0.17742 0.0723,0.0689 0.29972,0.153305 l 0.21876,0.08268 q 0.31006,0.113689 0.45648,0.301445 0.14641,0.187759 0.14641,0.4737 0,0.389295 -0.23082,0.582221 -0.2291,0.191202 -0.69418,0.191202 -0.1912,0 -0.38413,-0.04651 -0.1912,-0.04479 -0.37035,-0.134359 v -0.525374 q 0.20326,0.144693 0.39274,0.215317 0.1912,0.07062 0.37724,0.07062 0.18776,0 0.29111,-0.08441 0.10335,-0.08613 0.10335,-0.239431 0,-0.115411 -0.0689,-0.201538 -0.0689,-0.08785 -0.19982,-0.137804 z" />
  <path
     inkscape:connector-curvature="0"
     style="font-weight:bold;font-size:13.33329964px;line-height:1.25;font-family:monospace;-inkscape-font-specification:'monospace Bold';letter-spacing:0px;word-spacing:0px;white-space:pre;stroke-width:0.26458299"
     id="path8274"
     d="m 136.75251,86.474774 v 1.252289 h -0.50126 v -1.174774 q 0,-0.208427 -0.0603,-0.298 -0.0586,-0.08957 -0.19292,-0.08957 -0.13781,0 -0.21532,0.122298 -0.0775,0.120577 -0.0775,0.335896 v 1.104152 h -0.50126 v -2.680277 h 0.50126 v 1.040415 q 0.0534,-0.160197 0.18259,-0.248047 0.12919,-0.08785 0.31178,-0.08785 0.27389,0 0.41341,0.182589 0.13953,0.180867 0.13953,0.54088 z" />
  <path
     inkscape:connector-curvature="0"
     style="font-weight:bold;font-size:13.33329964px;line-height:1.25;font-family:monospace;-inkscape-font-specification:'monospace Bold';letter-spacing:0px;word-spacing:0px;white-space:pre;stroke-width:0.26458299"
     id="path8276"
     d="m 138.23734,86.821005 q -0.2825,0 -0.39446,0.07235 -0.11197,0.07234 -0.11197,0.248044 0,0.130913 0.0775,0.208428 0.0775,0.07752 0.21015,0.07752 0.19981,0 0.31006,-0.14986 0.11024,-0.151585 0.11024,-0.422024 v -0.03445 z m 0.7028,-0.194649 v 1.100707 h -0.50126 v -0.215317 q -0.0913,0.127467 -0.23427,0.196371 -0.14297,0.0689 -0.31522,0.0689 -0.32901,0 -0.51332,-0.173977 -0.18259,-0.173977 -0.18259,-0.485756 0,-0.337619 0.21876,-0.497816 0.21877,-0.16192 0.67696,-0.16192 h 0.34968 v -0.08441 q 0,-0.122298 -0.0896,-0.184311 -0.0879,-0.06373 -0.26011,-0.06373 -0.18086,0 -0.3514,0.04651 -0.16881,0.04479 -0.35312,0.144693 v -0.430637 q 0.16709,-0.0689 0.33934,-0.101629 0.17226,-0.03273 0.36518,-0.03273 0.47026,0 0.65974,0.191201 0.1912,0.191204 0.1912,0.683851 z" />
  <path
     inkscape:connector-curvature="0"
     style="font-weight:bold;font-size:13.33329964px;line-height:1.25;font-family:monospace;-inkscape-font-specification:'monospace Bold';letter-spacing:0px;word-spacing:0px;white-space:pre;stroke-width:0.26458299"
     id="path8278"
     d="m 141.1381,86.330079 q -0.0827,-0.07579 -0.19464,-0.113687 -0.11025,-0.0379 -0.24288,-0.0379 -0.1602,0 -0.28077,0.05684 -0.11886,0.05512 -0.18432,0.16192 -0.0413,0.06546 -0.0586,0.158475 -0.0155,0.09302 -0.0155,0.282495 v 0.888834 h -0.5047 v -1.929249 h 0.5047 v 0.299722 q 0.0741,-0.165364 0.22738,-0.254936 0.1533,-0.0913 0.35828,-0.0913 0.10336,0 0.20154,0.02585 0.0999,0.0241 0.18948,0.07234 z" />
  <path
     inkscape:connector-curvature="0"
     style="font-weight:bold;font-size:13.33329964px;line-height:1.25;font-family:monospace;-inkscape-font-specification:'monospace Bold';letter-spacing:0px;word-spacing:0px;white-space:pre;stroke-width:0.26458299"
     id="path8280"
     d="m 143.1776,87.632323 q -0.1757,0.07234 -0.35829,0.108519 -0.18259,0.03617 -0.38585,0.03617 -0.48404,0 -0.7407,-0.258382 -0.25493,-0.260103 -0.25493,-0.747581 0,-0.471977 0.24632,-0.745863 0.24633,-0.273884 0.67179,-0.273884 0.42892,0 0.6649,0.254937 0.23772,0.253214 0.23772,0.714856 v 0.204981 h -1.30742 q 0.002,0.227378 0.13436,0.339341 0.13264,0.111967 0.39619,0.111967 0.17398,0 0.34279,-0.04995 0.1688,-0.04995 0.35312,-0.158475 z m -0.42719,-1.085201 q -0.003,-0.199815 -0.10336,-0.301445 -0.0982,-0.103354 -0.29111,-0.103354 -0.17397,0 -0.27733,0.106798 -0.10335,0.105075 -0.1223,0.299724 z" />
  <path
     inkscape:connector-curvature="0"
     style="font-weight:bold;font-size:13.33329964px;line-height:1.25;font-family:monospace;-inkscape-font-specification:'monospace Bold';letter-spacing:0px;word-spacing:0px;white-space:pre;stroke-width:0.26458299"
     id="path8247"
     d="m 126.3871,71.469185 0.45303,-2.148012 h 0.5116 l -0.61151,2.571759 h -0.70452 l -0.6115,-2.571759 h 0.5116 z" />
  <path
     inkscape:connector-curvature="0"
     style="font-weight:bold;font-size:13.33329964px;line-height:1.25;font-family:monospace;-inkscape-font-specification:'monospace Bold';letter-spacing:0px;word-spacing:0px;white-space:pre;stroke-width:0.26458299"
     id="path8249"
     d="m 127.83059,69.963682 h 0.99908 v 1.541677 h 0.62701 v 0.387572 h -1.76044 v -0.387572 h 0.62872 v -1.154105 h -0.49437 z m 0.49437,-0.938787 h 0.50471 v 0.589111 h -0.50471 z" />
  <path
     inkscape:connector-curvature="0"
     style="font-weight:bold;font-size:13.33329964px;line-height:1.25;font-family:monospace;-inkscape-font-specification:'monospace Bold';letter-spacing:0px;word-spacing:0px;white-space:pre;stroke-width:0.26458299"
     id="path8251"
     d="m 131.28085,70.023973 v 0.44097 q -0.13953,-0.08957 -0.29111,-0.134358 -0.14986,-0.04651 -0.30145,-0.04651 -0.16881,0 -0.25493,0.04995 -0.0861,0.04823 -0.0861,0.144693 0,0.137802 0.36862,0.22393 l 0.019,0.0052 0.14469,0.03445 q 0.27561,0.06546 0.40308,0.211873 0.12919,0.144696 0.12919,0.39274 0,0.298 -0.19637,0.447863 -0.19465,0.148137 -0.58739,0.148137 -0.17398,0 -0.35656,-0.03101 -0.1826,-0.02928 -0.37035,-0.08957 V 71.38136 q 0.16708,0.09474 0.33934,0.144694 0.17398,0.04996 0.3359,0.04996 0.17742,0 0.26871,-0.05168 0.0913,-0.05168 0.0913,-0.14986 0,-0.09646 -0.0655,-0.148141 -0.0637,-0.05168 -0.30661,-0.110241 l -0.13953,-0.03101 q -0.28939,-0.06546 -0.42202,-0.204983 -0.13264,-0.139526 -0.13264,-0.37379 0,-0.279054 0.20154,-0.43408 0.20154,-0.15503 0.56672,-0.15503 0.16364,0 0.32556,0.02756 0.16364,0.02585 0.31694,0.07924 z" />
  <path
     inkscape:connector-curvature="0"
     style="font-weight:bold;font-size:13.33329964px;line-height:1.25;font-family:monospace;-inkscape-font-specification:'monospace Bold';letter-spacing:0px;word-spacing:0px;white-space:pre;stroke-width:0.26458299"
     id="path8253"
     d="m 132.90348,70.986874 q -0.28249,0 -0.39446,0.07235 -0.11196,0.07234 -0.11196,0.248043 0,0.130914 0.0775,0.208428 0.0775,0.07752 0.21015,0.07752 0.19981,0 0.31006,-0.14986 0.11024,-0.151585 0.11024,-0.422023 v -0.03445 z m 0.7028,-0.194649 v 1.100707 h -0.50126 v -0.215319 q -0.0913,0.127468 -0.23426,0.196371 -0.14298,0.0689 -0.31523,0.0689 -0.32901,0 -0.51332,-0.173976 -0.18259,-0.173976 -0.18259,-0.485757 0,-0.337619 0.21877,-0.497816 0.21876,-0.16192 0.67695,-0.16192 h 0.34968 v -0.08441 q 0,-0.122298 -0.0896,-0.184311 -0.0878,-0.06373 -0.26011,-0.06373 -0.18086,0 -0.35139,0.04651 -0.16881,0.04479 -0.35313,0.144692 v -0.430635 q 0.16709,-0.0689 0.33935,-0.10163 0.17225,-0.03273 0.36517,-0.03273 0.47026,0 0.65974,0.191202 0.1912,0.191203 0.1912,0.68385 z" />
  <path
     inkscape:connector-curvature="0"
     style="font-weight:bold;font-size:13.33329964px;line-height:1.25;font-family:monospace;-inkscape-font-specification:'monospace Bold';letter-spacing:0px;word-spacing:0px;white-space:pre;stroke-width:0.26458299"
     id="path8255"
     d="m 135.01015,69.415912 v 0.54777 h 0.65974 v 0.387572 h -0.65974 v 0.912948 q 0,0.12919 0.062,0.186036 0.0637,0.05512 0.21015,0.05512 h 0.38757 v 0.387573 h -0.42375 q -0.43408,0 -0.58738,-0.137804 -0.15331,-0.139525 -0.15331,-0.515039 v -0.888835 h -0.49265 v -0.387572 h 0.49265 v -0.54777 z" />
  <path
     inkscape:connector-curvature="0"
     style="font-weight:bold;font-size:13.33329964px;line-height:1.25;font-family:monospace;-inkscape-font-specification:'monospace Bold';letter-spacing:0px;word-spacing:0px;white-space:pre;stroke-width:0.26458299"
     id="path8257"
     d="m 137.00658,70.32714 q -0.18086,0 -0.28422,0.160195 -0.10335,0.158475 -0.10335,0.442695 0,0.284218 0.10335,0.444417 0.10336,0.158474 0.28422,0.158474 0.18259,0 0.28594,-0.158474 0.10336,-0.160198 0.10336,-0.444417 0,-0.28422 -0.10336,-0.442695 -0.10335,-0.160195 -0.28594,-0.160195 z m -0.89227,0.60289 q 0,-0.466808 0.24115,-0.738973 0.24288,-0.273882 0.65112,-0.273882 0.40997,0 0.65112,0.273882 0.24288,0.272165 0.24288,0.738973 0,0.466808 -0.24288,0.740693 -0.24115,0.272161 -0.65112,0.272161 -0.40824,0 -0.65112,-0.272161 -0.24115,-0.273886 -0.24115,-0.740693 z" />
  <path
     inkscape:connector-curvature="0"
     style="font-weight:bold;font-size:13.33329964px;line-height:1.25;font-family:monospace;-inkscape-font-specification:'monospace Bold';letter-spacing:0px;word-spacing:0px;white-space:pre;stroke-width:0.26458299"
     id="path8259"
     d="m 139.91424,70.640642 v 1.25229 h -0.50127 v -1.174774 q 0,-0.21015 -0.0603,-0.299723 -0.0586,-0.0913 -0.19293,-0.0913 -0.13608,0 -0.21532,0.122298 -0.0775,0.122301 -0.0775,0.339342 v 1.104152 h -0.50126 v -1.929249 h 0.50126 v 0.289388 q 0.0534,-0.160197 0.18259,-0.248047 0.12919,-0.08785 0.31178,-0.08785 0.27388,0 0.41341,0.182587 0.13953,0.180868 0.13953,0.54088 z" />
  <path
     inkscape:connector-curvature="0"
     style="font-weight:bold;font-size:13.33329964px;line-height:1.25;font-family:monospace;-inkscape-font-specification:'monospace Bold';letter-spacing:0px;word-spacing:0px;white-space:pre;stroke-width:0.26458299"
     id="path8261"
     d="m 141.74185,69.321173 h 0.38069 l -1.35392,2.899042 h -0.38068 z" />
  <path
     d="m 65.027628,191.80938 -2.148012,-0.45303 v -0.5116 l 2.571758,0.61151 v 0.70452 l -2.571758,0.6115 v -0.51159 z"
     id="path8346"
     style="font-weight:bold;font-size:13.3333px;line-height:1.25;font-family:monospace;-inkscape-font-specification:'monospace Bold';letter-spacing:0px;word-spacing:0px;white-space:pre;fill:#00aeee;stroke-width:0.264583" />
  <path
     d="m 63.522125,190.36589 v -0.99908 h 1.541677 v -0.627 h 0.387572 v 1.76044 h -0.387572 v -0.62873 h -1.154105 v 0.49437 z m -0.938787,-0.49437 v -0.50471 h 0.589111 v 0.50471 z"
     id="path8348"
     style="font-weight:bold;font-size:13.3333px;line-height:1.25;font-family:monospace;-inkscape-font-specification:'monospace Bold';letter-spacing:0px;word-spacing:0px;white-space:pre;fill:#00aeee;stroke-width:0.264583" />
  <path
     d="m 63.582415,186.91563 h 0.440971 q -0.08957,0.13953 -0.134358,0.29111 -0.04651,0.14986 -0.04651,0.30145 0,0.16881 0.04995,0.25494 0.04823,0.0861 0.144692,0.0861 0.137803,0 0.223931,-0.36862 l 0.0052,-0.0189 0.03445,-0.14469 q 0.06546,-0.27561 0.211873,-0.40308 0.144696,-0.12919 0.39274,-0.12919 0.298,0 0.447863,0.19637 0.148137,0.19465 0.148137,0.58739 0,0.17398 -0.03101,0.35657 -0.02928,0.18259 -0.08957,0.37034 H 64.93977 q 0.09474,-0.16708 0.144693,-0.33934 0.04996,-0.17397 0.04996,-0.33589 0,-0.17743 -0.05168,-0.26872 -0.05168,-0.0913 -0.14986,-0.0913 -0.09646,0 -0.148141,0.0655 -0.05168,0.0637 -0.110241,0.30662 l -0.03101,0.13952 q -0.06546,0.28939 -0.204984,0.42202 -0.139525,0.13264 -0.37379,0.13264 -0.279053,0 -0.434081,-0.20154 -0.15503,-0.20154 -0.15503,-0.56671 0,-0.16365 0.02756,-0.32557 0.02585,-0.16364 0.07924,-0.31694 z"
     id="path8350"
     style="font-weight:bold;font-size:13.3333px;line-height:1.25;font-family:monospace;-inkscape-font-specification:'monospace Bold';letter-spacing:0px;word-spacing:0px;white-space:pre;fill:#00aeee;stroke-width:0.264583" />
  <path
     d="m 64.545316,185.293 q 0,0.2825 0.07235,0.39446 0.07234,0.11197 0.248044,0.11197 0.130913,0 0.208428,-0.0775 0.07752,-0.0775 0.07752,-0.21015 0,-0.19981 -0.14986,-0.31006 -0.151585,-0.11024 -0.422023,-0.11024 h -0.03445 z m -0.194648,-0.7028 h 1.100706 v 0.50126 h -0.215318 q 0.127468,0.0913 0.196371,0.23427 0.0689,0.14297 0.0689,0.31522 0,0.32901 -0.173977,0.51332 -0.173976,0.18259 -0.485756,0.18259 -0.337619,0 -0.497816,-0.21877 -0.16192,-0.21876 -0.16192,-0.67695 v -0.34968 h -0.08441 q -0.122298,0 -0.184311,0.0896 -0.06373,0.0879 -0.06373,0.26011 0,0.18086 0.04651,0.3514 0.04479,0.1688 0.144692,0.35312 h -0.430636 q -0.0689,-0.16709 -0.101629,-0.33934 -0.03273,-0.17226 -0.03273,-0.36518 0,-0.47026 0.191202,-0.65974 0.191203,-0.1912 0.68385,-0.1912 z"
     id="path8352"
     style="font-weight:bold;font-size:13.3333px;line-height:1.25;font-family:monospace;-inkscape-font-specification:'monospace Bold';letter-spacing:0px;word-spacing:0px;white-space:pre;fill:#00aeee;stroke-width:0.264583" />
  <path
     d="m 62.974355,183.18633 h 0.54777 v -0.65974 h 0.387572 v 0.65974 h 0.912948 q 0.12919,0 0.186036,-0.062 0.05512,-0.0637 0.05512,-0.21015 v -0.38758 h 0.387572 v 0.42375 q 0,0.43408 -0.137803,0.58738 -0.139525,0.15331 -0.515041,0.15331 h -0.888833 v 0.49265 h -0.387572 v -0.49265 h -0.54777 z"
     id="path8354"
     style="font-weight:bold;font-size:13.3333px;line-height:1.25;font-family:monospace;-inkscape-font-specification:'monospace Bold';letter-spacing:0px;word-spacing:0px;white-space:pre;fill:#00aeee;stroke-width:0.264583" />
  <path
     d="m 63.885583,181.1899 q 0,0.18087 0.160195,0.28422 0.158474,0.10335 0.442695,0.10335 0.284218,0 0.444415,-0.10335 0.158475,-0.10335 0.158475,-0.28422 0,-0.18259 -0.158475,-0.28594 -0.160197,-0.10336 -0.444415,-0.10336 -0.284221,0 -0.442695,0.10336 -0.160195,0.10335 -0.160195,0.28594 z m 0.60289,0.89228 q -0.466809,0 -0.738973,-0.24116 -0.273884,-0.24288 -0.273884,-0.65112 0,-0.40997 0.273884,-0.65112 0.272164,-0.24288 0.738973,-0.24288 0.466807,0 0.740693,0.24288 0.272161,0.24115 0.272161,0.65112 0,0.40824 -0.272161,0.65112 -0.273886,0.24116 -0.740693,0.24116 z"
     id="path8356"
     style="font-weight:bold;font-size:13.3333px;line-height:1.25;font-family:monospace;-inkscape-font-specification:'monospace Bold';letter-spacing:0px;word-spacing:0px;white-space:pre;fill:#00aeee;stroke-width:0.264583" />
  <path
     d="m 64.199085,178.28225 h 1.252289 v 0.50126 H 64.2766 q -0.21015,0 -0.299723,0.0603 -0.09129,0.0586 -0.09129,0.19293 0,0.13608 0.122298,0.21532 0.122301,0.0775 0.339342,0.0775 h 1.104151 v 0.50126 h -1.929249 v -0.50126 h 0.289388 q -0.160197,-0.0534 -0.248047,-0.18259 -0.08785,-0.12919 -0.08785,-0.31178 0,-0.27388 0.182589,-0.41341 0.180867,-0.13952 0.54088,-0.13952 z"
     id="path8358"
     style="font-weight:bold;font-size:13.3333px;line-height:1.25;font-family:monospace;-inkscape-font-specification:'monospace Bold';letter-spacing:0px;word-spacing:0px;white-space:pre;fill:#00aeee;stroke-width:0.264583" />
  <path
     d="m 62.879616,176.45463 v -0.38068 l 2.899042,1.35391 v 0.38069 z"
     id="path8360"
     style="font-weight:bold;font-size:13.3333px;line-height:1.25;font-family:monospace;-inkscape-font-specification:'monospace Bold';letter-spacing:0px;word-spacing:0px;white-space:pre;fill:#00aeee;stroke-width:0.264583" />
  <path
     d="m 62.879616,175.8793 v -0.44442 l 1.887908,-0.18431 -1.221282,-0.22221 v -0.42202 l 1.221282,-0.25838 -1.887908,-0.1447 v -0.44786 l 2.571758,0.29628 v 0.4737 l -1.350473,0.29283 1.350473,0.27389 v 0.47025 z"
     id="path8362"
     style="font-weight:bold;font-size:13.3333px;line-height:1.25;font-family:monospace;-inkscape-font-specification:'monospace Bold';letter-spacing:0px;word-spacing:0px;white-space:pre;fill:#00aeee;stroke-width:0.264583" />
  <path
     d="m 64.545316,172.54962 q 0,0.2825 0.07235,0.39446 0.07234,0.11197 0.248044,0.11197 0.130913,0 0.208428,-0.0775 0.07752,-0.0775 0.07752,-0.21015 0,-0.19981 -0.14986,-0.31005 -0.151585,-0.11024 -0.422023,-0.11024 h -0.03445 z m -0.194648,-0.7028 h 1.100706 v 0.50127 h -0.215318 q 0.127468,0.0913 0.196371,0.23426 0.0689,0.14297 0.0689,0.31522 0,0.32901 -0.173977,0.51332 -0.173976,0.18259 -0.485756,0.18259 -0.337619,0 -0.497816,-0.21876 -0.16192,-0.21876 -0.16192,-0.67696 v -0.34967 h -0.08441 q -0.122298,0 -0.184311,0.0896 -0.06373,0.0879 -0.06373,0.2601 0,0.18087 0.04651,0.3514 0.04479,0.16881 0.144692,0.35312 h -0.430636 q -0.0689,-0.16709 -0.101629,-0.33934 -0.03273,-0.17225 -0.03273,-0.36518 0,-0.47025 0.191202,-0.65973 0.191203,-0.19121 0.68385,-0.19121 z"
     id="path8364"
     style="font-weight:bold;font-size:13.3333px;line-height:1.25;font-family:monospace;-inkscape-font-specification:'monospace Bold';letter-spacing:0px;word-spacing:0px;white-space:pre;fill:#00aeee;stroke-width:0.264583" />
  <path
     d="m 63.522125,169.64541 1.929249,0.61323 v 0.62184 l -1.929249,0.61322 v -0.51159 l 1.505503,-0.41169 -1.505503,-0.41341 z"
     id="path8366"
     style="font-weight:bold;font-size:13.3333px;line-height:1.25;font-family:monospace;-inkscape-font-specification:'monospace Bold';letter-spacing:0px;word-spacing:0px;white-space:pre;fill:#00aeee;stroke-width:0.264583" />
  <path
     d="m 65.356635,167.60937 q 0.07234,0.1757 0.108518,0.35829 0.03617,0.18259 0.03617,0.38584 0,0.48404 -0.258381,0.7407 -0.260104,0.25494 -0.747583,0.25494 -0.471977,0 -0.745863,-0.24633 -0.273884,-0.24632 -0.273884,-0.67179 0,-0.42891 0.254937,-0.6649 0.253214,-0.23771 0.714857,-0.23771 h 0.20498 v 1.30741 q 0.227378,-0.002 0.339342,-0.13436 0.111966,-0.13264 0.111966,-0.39619 0,-0.17397 -0.04995,-0.34278 -0.04995,-0.16881 -0.158475,-0.35312 z m -1.085202,0.42719 q -0.199816,0.003 -0.301445,0.10335 -0.103354,0.0982 -0.103354,0.29111 0,0.17398 0.106799,0.27733 0.105074,0.10335 0.299722,0.1223 z"
     id="path8368"
     style="font-weight:bold;font-size:13.3333px;line-height:1.25;font-family:monospace;-inkscape-font-specification:'monospace Bold';letter-spacing:0px;word-spacing:0px;white-space:pre;fill:#00aeee;stroke-width:0.264583" />
  <path
     d="m 64.323109,166.50522 q -0.146418,0.38413 -0.306613,0.52021 -0.16192,0.13608 -0.434081,0.13608 -0.349678,0 -0.549491,-0.22393 -0.199816,-0.22393 -0.199816,-0.61495 0,-0.17743 0.04134,-0.35485 0.03962,-0.17742 0.118856,-0.3514 h 0.496091 q -0.115409,0.16365 -0.175699,0.33246 -0.06029,0.16881 -0.06029,0.33417 0,0.18431 0.07407,0.2825 0.07407,0.0982 0.211873,0.0982 0.106796,0 0.177422,-0.0706 0.0689,-0.0724 0.153304,-0.29973 l 0.08268,-0.21876 q 0.113689,-0.31006 0.301445,-0.45647 0.187759,-0.14642 0.473699,-0.14642 0.389295,0 0.582221,0.23082 0.191201,0.2291 0.191201,0.69419 0,0.1912 -0.04651,0.38412 -0.04479,0.19121 -0.134358,0.37035 h -0.525375 q 0.144692,-0.20326 0.215317,-0.39274 0.07062,-0.1912 0.07062,-0.37724 0,-0.18775 -0.0844,-0.29111 -0.08613,-0.10335 -0.239432,-0.10335 -0.115411,0 -0.201538,0.0689 -0.08785,0.0689 -0.137803,0.19982 z"
     id="path8370"
     style="font-weight:bold;font-size:13.3333px;line-height:1.25;font-family:monospace;-inkscape-font-specification:'monospace Bold';letter-spacing:0px;word-spacing:0px;white-space:pre;fill:#00aeee;stroke-width:0.264583" />
  <path
     d="m 64.199085,163.41497 h 1.252289 v 0.50126 H 64.2766 q -0.208428,0 -0.298,0.0603 -0.08957,0.0586 -0.08957,0.19293 0,0.1378 0.122298,0.21531 0.120579,0.0775 0.335897,0.0775 h 1.104151 v 0.50126 h -2.680277 v -0.50126 h 1.040416 q -0.160197,-0.0534 -0.248047,-0.18259 -0.08785,-0.12919 -0.08785,-0.31178 0,-0.27388 0.182589,-0.41341 0.180867,-0.13953 0.54088,-0.13953 z"
     id="path8372"
     style="font-weight:bold;font-size:13.3333px;line-height:1.25;font-family:monospace;-inkscape-font-specification:'monospace Bold';letter-spacing:0px;word-spacing:0px;white-space:pre;fill:#00aeee;stroke-width:0.264583" />
  <path
     d="m 64.545316,161.93014 q 0,0.2825 0.07235,0.39446 0.07234,0.11197 0.248044,0.11197 0.130913,0 0.208428,-0.0775 0.07752,-0.0775 0.07752,-0.21015 0,-0.19981 -0.14986,-0.31005 -0.151585,-0.11025 -0.422023,-0.11025 h -0.03445 z m -0.194648,-0.7028 h 1.100706 v 0.50126 h -0.215318 q 0.127468,0.0913 0.196371,0.23427 0.0689,0.14297 0.0689,0.31522 0,0.32901 -0.173977,0.51332 -0.173976,0.18259 -0.485756,0.18259 -0.337619,0 -0.497816,-0.21876 -0.16192,-0.21876 -0.16192,-0.67696 v -0.34968 h -0.08441 q -0.122298,0 -0.184311,0.0896 -0.06373,0.0878 -0.06373,0.2601 0,0.18087 0.04651,0.3514 0.04479,0.16881 0.144692,0.35312 h -0.430636 q -0.0689,-0.16709 -0.101629,-0.33934 -0.03273,-0.17226 -0.03273,-0.36518 0,-0.47025 0.191202,-0.65973 0.191203,-0.19121 0.68385,-0.19121 z"
     id="path8374"
     style="font-weight:bold;font-size:13.3333px;line-height:1.25;font-family:monospace;-inkscape-font-specification:'monospace Bold';letter-spacing:0px;word-spacing:0px;white-space:pre;fill:#00aeee;stroke-width:0.264583" />
  <path
     d="m 64.05439,159.02938 q -0.07579,0.0827 -0.113686,0.19464 -0.0379,0.11025 -0.0379,0.24288 0,0.1602 0.05684,0.28078 0.05512,0.11885 0.16192,0.18431 0.06546,0.0413 0.158475,0.0586 0.09302,0.0155 0.282496,0.0155 h 0.888833 v 0.50471 h -1.929249 v -0.50471 h 0.299723 q -0.165365,-0.0741 -0.254937,-0.22737 -0.09129,-0.15331 -0.09129,-0.35829 0,-0.10336 0.02585,-0.20154 0.0241,-0.0999 0.07234,-0.18948 z"
     id="path8376"
     style="font-weight:bold;font-size:13.3333px;line-height:1.25;font-family:monospace;-inkscape-font-specification:'monospace Bold';letter-spacing:0px;word-spacing:0px;white-space:pre;fill:#00aeee;stroke-width:0.264583" />
  <path
     d="m 65.356635,156.98989 q 0.07234,0.17569 0.108518,0.35829 0.03617,0.18259 0.03617,0.38585 0,0.48403 -0.258381,0.74069 -0.260104,0.25494 -0.747583,0.25494 -0.471977,0 -0.745863,-0.24633 -0.273884,-0.24632 -0.273884,-0.67179 0,-0.42891 0.254937,-0.6649 0.253214,-0.23771 0.714857,-0.23771 h 0.20498 v 1.30741 q 0.227378,-0.002 0.339342,-0.13436 0.111966,-0.13264 0.111966,-0.39619 0,-0.17397 -0.04995,-0.34278 -0.04995,-0.16881 -0.158475,-0.35312 z m -1.085202,0.42719 q -0.199816,0.003 -0.301445,0.10335 -0.103354,0.0982 -0.103354,0.29111 0,0.17398 0.106799,0.27733 0.105074,0.10335 0.299722,0.1223 z"
     id="path8378"
     style="font-weight:bold;font-size:13.3333px;line-height:1.25;font-family:monospace;-inkscape-font-specification:'monospace Bold';letter-spacing:0px;word-spacing:0px;white-space:pre;fill:#00aeee;stroke-width:0.264583" />
  <path
     inkscape:connector-curvature="0"
     id="path856"
     style="font-style:normal;font-variant:normal;font-weight:bold;font-stretch:normal;font-size:13.3333px;line-height:125%;font-family:monospace;-inkscape-font-specification:'monospace Bold';letter-spacing:0px;word-spacing:0px;fill:#ffcc00;fill-opacity:1;stroke:none;stroke-width:0.264583px;stroke-linecap:butt;stroke-linejoin:miter;stroke-opacity:1"
     d="m 95.145269,117.90219 v 0.75448 h 0.208429 q 0.249769,0 0.349677,-0.0844 0.10163,-0.0844 0.10163,-0.29283 0,-0.20843 -0.10163,-0.29284 -0.09991,-0.0844 -0.349677,-0.0844 z M 94.637118,117.475 h 0.697632 q 0.532267,0 0.764811,0.18948 0.234266,0.18948 0.234266,0.61495 0,0.42547 -0.234266,0.61495 -0.232544,0.18948 -0.764811,0.18948 h -0.189481 v 0.9629 h -0.508151 z" />
  <path
     inkscape:connector-curvature="0"
     id="path858"
     style="font-style:normal;font-variant:normal;font-weight:bold;font-stretch:normal;font-size:13.3333px;line-height:125%;font-family:monospace;-inkscape-font-specification:'monospace Bold';letter-spacing:0px;word-spacing:0px;fill:#ffcc00;fill-opacity:1;stroke:none;stroke-width:0.264583px;stroke-linecap:butt;stroke-linejoin:miter;stroke-opacity:1"
     d="m 97.677415,118.04 -0.649401,1.0163 h 0.649401 z m -0.04479,-0.565 h 0.532268 v 1.5813 h 0.282497 v 0.4358 h -0.282497 v 0.55466 h -0.487481 v -0.55466 h -1.019749 v -0.49265 z" />
  <path
     inkscape:connector-curvature="0"
     id="path860"
     style="font-style:normal;font-variant:normal;font-weight:bold;font-stretch:normal;font-size:13.3333px;line-height:125%;font-family:monospace;-inkscape-font-specification:'monospace Bold';letter-spacing:0px;word-spacing:0px;fill:#ffcc00;fill-opacity:1;stroke:none;stroke-width:0.264583px;stroke-linecap:butt;stroke-linejoin:miter;stroke-opacity:1"
     d="m 95.419155,124.03274 0.45303,-2.14802 h 0.511596 l -0.611504,2.57177 h -0.704522 l -0.611505,-2.57177 h 0.511597 z" />
  <path
     inkscape:connector-curvature="0"
     id="path862"
     style="font-style:normal;font-variant:normal;font-weight:bold;font-stretch:normal;font-size:13.3333px;line-height:125%;font-family:monospace;-inkscape-font-specification:'monospace Bold';letter-spacing:0px;word-spacing:0px;fill:#ffcc00;fill-opacity:1;stroke:none;stroke-width:0.264583px;stroke-linecap:butt;stroke-linejoin:miter;stroke-opacity:1"
     d="m 96.805805,124.00862 h 0.568441 v -1.66915 l -0.528822,0.13092 v -0.4582 l 0.532267,-0.12747 h 0.490926 v 2.1239 h 0.568441 v 0.44787 h -1.631253 z" />
</svg>
