<?xml version="1.0" encoding="UTF-8" standalone="no"?>
<svg
   width="595.44pt"
   height="842.16pt"
   viewBox="0 0 595.44 842.16"
   version="1.1"
   id="svg2652"
   sodipodi:docname="sheet_2_opistech.svg"
   inkscape:version="1.3.1 (9b9bdc1480, 2023-11-25, custom)"
   xmlns:inkscape="http://www.inkscape.org/namespaces/inkscape"
   xmlns:sodipodi="http://sodipodi.sourceforge.net/DTD/sodipodi-0.dtd"
   xmlns="http://www.w3.org/2000/svg"
   xmlns:svg="http://www.w3.org/2000/svg"
   xmlns:rdf="http://www.w3.org/1999/02/22-rdf-syntax-ns#"
   xmlns:cc="http://creativecommons.org/ns#"
   xmlns:dc="http://purl.org/dc/elements/1.1/">
  <sodipodi:namedview
     id="namedview15796"
     pagecolor="#ffffff"
     bordercolor="#666666"
     borderopacity="1.0"
     inkscape:showpageshadow="2"
     inkscape:pageopacity="0.0"
     inkscape:pagecheckerboard="0"
     inkscape:deskcolor="#d1d1d1"
     inkscape:document-units="pt"
     showgrid="false"
     inkscape:zoom="1"
     inkscape:cx="745.5"
     inkscape:cy="398.5"
     inkscape:window-width="1920"
     inkscape:window-height="976"
     inkscape:window-x="-4"
     inkscape:window-y="-4"
     inkscape:window-maximized="1"
     inkscape:current-layer="svg2652" />
  <metadata
     id="metadata2656">
    <rdf:RDF>
      <cc:Work
         rdf:about="">
        <dc:format>image/svg+xml</dc:format>
        <dc:type
           rdf:resource="http://purl.org/dc/dcmitype/StillImage" />
      </cc:Work>
    </rdf:RDF>
  </metadata>
  <defs
     id="defs2069" />
  <path
     d="m 6605.18,2534.11 v -236.22 h -70.86 v 236.22 h -307.09 v 259.78 l 153.54,141.73 h 377.96 l 153.54,-141.73 v -259.78 z"
     style="stroke-linejoin:round;stroke-opacity:1;fill-rule:evenodd;stroke:#eb008a;stroke-linecap:round;stroke-miterlimit:1.5;clip-rule:evenodd;stroke-width:4.17000008px;fill:none"
     id="path764"
     transform="matrix(-0.239314,0.000000,0.000000,-0.239534,1954.761400,841.274370)" />
  <path
     d="m 298.06969,700.02614 c -1.56061,0 -2.82705,-1.26669 -2.82705,-2.82885 0,-1.56314 1.26644,-2.82981 2.82705,-2.82981 1.56062,0 2.82608,1.26667 2.82608,2.82981 0,1.56216 -1.26546,2.82885 -2.82608,2.82885"
     style="stroke:#fdb812;stroke-miterlimit:10;stroke-opacity:1;fill-rule:nonzero;clip-rule:evenodd;stroke-width:0.99768871;fill:none"
     id="path561-9-1-31-3-7-3-5-2-3"
     transform="matrix(1.000000,0.000000,0.000000,1.000000,0.000000,0.000000)" />
  <path
     d="m 300.9979,697.19736 h -5.9833"
     style="stroke:#000000;stroke-miterlimit:10;stroke-opacity:1;fill-rule:nonzero;clip-rule:evenodd;stroke-width:0.67318708px;fill:none"
     id="path565-7-5-9-2-0-5-92-9-6"
     transform="matrix(1.000000,0.000000,0.000000,1.000000,0.000000,0.000000)" />
  <path
     d="m 298.06855,700.15038 v -5.98916"
     style="stroke:#000000;stroke-miterlimit:10;stroke-opacity:1;fill-rule:nonzero;clip-rule:evenodd;stroke-width:0.67318743px;fill:none"
     id="path569-2-4-47-0-9-6-28-3-1"
     transform="matrix(1.000000,0.000000,0.000000,1.000000,0.000000,0.000000)" />
  <path
     id="path561-9-1-31-3-7-3-5-2"
     style="stroke:#fdb812;stroke-miterlimit:10;stroke-opacity:1;fill-rule:nonzero;clip-rule:evenodd;stroke-width:0.99768871;fill:none"
     d="m 489.32924,700.02615 c 1.56061,0 2.82705,-1.26669 2.82705,-2.82884 0,-1.56314 -1.26644,-2.82982 -2.82705,-2.82982 -1.56062,0 -2.82608,1.26668 -2.82608,2.82982 0,1.56215 1.26546,2.82884 2.82608,2.82884"
     transform="matrix(1.000000,0.000000,0.000000,1.000000,0.000000,0.000000)" />
  <path
     id="path565-7-5-9-2-0-5-92-9"
     style="stroke:#000000;stroke-miterlimit:10;stroke-opacity:1;fill-rule:nonzero;clip-rule:evenodd;stroke-width:0.67318708px;fill:none"
     d="m 486.40103,697.19738 h 5.9833"
     transform="matrix(1.000000,0.000000,0.000000,1.000000,0.000000,0.000000)" />
  <path
     id="path569-2-4-47-0-9-6-28-3"
     style="stroke:#000000;stroke-miterlimit:10;stroke-opacity:1;fill-rule:nonzero;clip-rule:evenodd;stroke-width:0.67318743px;fill:none"
     d="m 489.33038,700.1504 v -5.98917"
     transform="matrix(1.000000,0.000000,0.000000,1.000000,0.000000,0.000000)" />
  <path
     d="m 304.14175,147.44606 c -1.56062,0 -2.82705,-1.26669 -2.82705,-2.82884 0,-1.56314 1.26643,-2.82982 2.82705,-2.82982 1.56061,0 2.82608,1.26668 2.82608,2.82982 0,1.56215 -1.26547,2.82884 -2.82608,2.82884"
     style="stroke:#fdb812;stroke-miterlimit:10;stroke-opacity:1;fill-rule:nonzero;clip-rule:evenodd;stroke-width:0.99768871;fill:none"
     id="path561-9-1-31-3-7-3-5-8"
     transform="matrix(1.000000,0.000000,0.000000,1.000000,0.000000,0.000000)" />
  <path
     d="m 307.06996,144.61729 h -5.98331"
     style="stroke:#000000;stroke-miterlimit:10;stroke-opacity:1;fill-rule:nonzero;clip-rule:evenodd;stroke-width:0.67318708px;fill:none"
     id="path565-7-5-9-2-0-5-92-4"
     transform="matrix(1.000000,0.000000,0.000000,1.000000,0.000000,0.000000)" />
  <path
     d="m 304.14061,147.57031 v -5.98917"
     style="stroke:#000000;stroke-miterlimit:10;stroke-opacity:1;fill-rule:nonzero;clip-rule:evenodd;stroke-width:0.67318743px;fill:none"
     id="path569-2-4-47-0-9-6-28-5"
     transform="matrix(1.000000,0.000000,0.000000,1.000000,0.000000,0.000000)" />
  <path
     id="path561-9-1-31-3-7-3-5"
     style="stroke:#fdb812;stroke-miterlimit:10;stroke-opacity:1;fill-rule:nonzero;clip-rule:evenodd;stroke-width:0.99768871;fill:none"
     d="m 489.40129,147.44607 c 1.56062,0 2.82705,-1.26669 2.82705,-2.82884 0,-1.56314 -1.26643,-2.82982 -2.82705,-2.82982 -1.56061,0 -2.82608,1.26668 -2.82608,2.82982 0,1.56215 1.26547,2.82884 2.82608,2.82884"
     transform="matrix(1.000000,0.000000,0.000000,1.000000,0.000000,0.000000)" />
  <path
     id="path565-7-5-9-2-0-5-92"
     style="stroke:#000000;stroke-miterlimit:10;stroke-opacity:1;fill-rule:nonzero;clip-rule:evenodd;stroke-width:0.67318708px;fill:none"
     d="m 486.47308,144.6173 h 5.98331"
     transform="matrix(1.000000,0.000000,0.000000,1.000000,0.000000,0.000000)" />
  <path
     id="path569-2-4-47-0-9-6-28"
     style="stroke:#000000;stroke-miterlimit:10;stroke-opacity:1;fill-rule:nonzero;clip-rule:evenodd;stroke-width:0.67318743px;fill:none"
     d="m 489.40243,147.57032 v -5.98917"
     transform="matrix(1.000000,0.000000,0.000000,1.000000,0.000000,0.000000)" />
  <path
     d="m 310.11428,355.24168 h 1.44044 V 358.02 h 1.80175 v -2.77832 h 1.44043 v 7.29003 h -1.44043 v -3.24218 h -1.80175 v 3.24218 h -1.44044 z"
     style="stroke-linejoin:miter;font-size:13.33333302px;-inkscape-font-specification:'monospace Bold';fill-opacity:1;letter-spacing:0px;word-spacing:0px;stroke:none;stroke-linecap:butt;stroke-width:0.75px;font-style:normal;fill:#00aeee;font-family:monospace;stroke-opacity:1;font-stretch:normal;font-variant:normal;font-weight:bold;line-height:125%"
     id="path17923"
     transform="matrix(1.000000,0.000000,0.000000,1.000000,0.000000,0.000000)" />
  <path
     d="m 318.8594,354.90964 h 1.15235 v 1.20117 h -1.15235 z m -1.92871,0 h 1.15234 v 1.20117 h -1.15234 z m 1.53809,3.1836 q -0.5127,0 -0.80567,0.4541 -0.29297,0.44922 -0.29297,1.25488 0,0.80567 0.29297,1.25977 0.29297,0.44922 0.80567,0.44922 0.51757,0 0.81055,-0.44922 0.29296,-0.4541 0.29296,-1.25977 0,-0.80566 -0.29296,-1.25488 -0.29298,-0.4541 -0.81055,-0.4541 z m -2.5293,1.70898 q 0,-1.32324 0.68359,-2.09472 0.68848,-0.77637 1.84571,-0.77637 1.16211,0 1.8457,0.77637 0.68847,0.77148 0.68847,2.09472 0,1.32324 -0.68847,2.09961 -0.68359,0.77148 -1.8457,0.77148 -1.15723,0 -1.84571,-0.77148 -0.68359,-0.77637 -0.68359,-2.09961 z"
     style="stroke-linejoin:miter;font-size:13.33333302px;-inkscape-font-specification:'monospace Bold';fill-opacity:1;letter-spacing:0px;word-spacing:0px;stroke:none;stroke-linecap:butt;stroke-width:0.75px;font-style:normal;fill:#00aeee;font-family:monospace;stroke-opacity:1;font-stretch:normal;font-variant:normal;font-weight:bold;line-height:125%"
     id="path17925"
     transform="matrix(1.000000,0.000000,0.000000,1.000000,0.000000,0.000000)" />
  <path
     d="m 327.0967,358.57175 q -0.23437,-0.21484 -0.55175,-0.32226 -0.3125,-0.10742 -0.68848,-0.10742 -0.4541,0 -0.7959,0.16113 -0.33691,0.15625 -0.52246,0.45898 -0.11719,0.18555 -0.16601,0.44922 -0.0439,0.26367 -0.0439,0.80079 v 2.51952 h -1.43067 v -5.46874 h 1.43067 v 0.84961 q 0.20995,-0.46875 0.64452,-0.72266 0.43458,-0.25879 1.01563,-0.25879 0.29297,0 0.57129,0.0733 0.2832,0.0684 0.53711,0.20508 z"
     style="stroke-linejoin:miter;font-size:13.33333302px;-inkscape-font-specification:'monospace Bold';fill-opacity:1;letter-spacing:0px;word-spacing:0px;stroke:none;stroke-linecap:butt;stroke-width:0.75px;font-style:normal;fill:#00aeee;font-family:monospace;stroke-opacity:1;font-stretch:normal;font-variant:normal;font-weight:bold;line-height:125%"
     id="path17927"
     transform="matrix(1.000000,0.000000,0.000000,1.000000,0.000000,0.000000)" />
  <path
     d="m 332.87308,362.26316 q -0.49806,0.20508 -1.01563,0.30762 -0.51758,0.10253 -1.09375,0.10253 -1.37207,0 -2.09961,-0.73242 -0.72265,-0.7373 -0.72265,-2.11914 0,-1.33788 0.69824,-2.11425 0.69823,-0.77637 1.90429,-0.77637 1.21582,0 1.88477,0.72266 0.67383,0.71777 0.67383,2.02636 v 0.58106 h -3.70606 q 0.005,0.64453 0.38086,0.96191 0.37597,0.31739 1.12305,0.31739 0.49316,0 0.97168,-0.1416 0.47851,-0.14161 1.00098,-0.44922 z m -1.21095,-3.07617 q -0.01,-0.56641 -0.29296,-0.8545 -0.27833,-0.29296 -0.8252,-0.29296 -0.49316,0 -0.78613,0.30273 -0.29297,0.29785 -0.34668,0.84961 z"
     style="stroke-linejoin:miter;font-size:13.33333302px;-inkscape-font-specification:'monospace Bold';fill-opacity:1;letter-spacing:0px;word-spacing:0px;stroke:none;stroke-linecap:butt;stroke-width:0.75px;font-style:normal;fill:#00aeee;font-family:monospace;stroke-opacity:1;font-stretch:normal;font-variant:normal;font-weight:bold;line-height:125%"
     id="path17929"
     transform="matrix(1.000000,0.000000,0.000000,1.000000,0.000000,0.000000)" />
  <path
     d="m 339.12796,358.57175 q -0.23438,-0.21484 -0.55176,-0.32226 -0.3125,-0.10742 -0.68848,-0.10742 -0.4541,0 -0.79589,0.16113 -0.33692,0.15625 -0.52247,0.45898 -0.11719,0.18555 -0.16601,0.44922 -0.0439,0.26367 -0.0439,0.80079 v 2.51952 h -1.43066 v -5.46874 h 1.43066 v 0.84961 q 0.20996,-0.46875 0.64453,-0.72266 0.43457,-0.25879 1.01562,-0.25879 0.29298,0 0.57129,0.0733 0.28321,0.0684 0.53712,0.20508 z"
     style="stroke-linejoin:miter;font-size:13.33333302px;-inkscape-font-specification:'monospace Bold';fill-opacity:1;letter-spacing:0px;word-spacing:0px;stroke:none;stroke-linecap:butt;stroke-width:0.75px;font-style:normal;fill:#00aeee;font-family:monospace;stroke-opacity:1;font-stretch:normal;font-variant:normal;font-weight:bold;line-height:125%"
     id="path17931"
     transform="matrix(1.000000,0.000000,0.000000,1.000000,0.000000,0.000000)" />
  <path
     d="m 342.94143,359.96335 q -0.80078,0 -1.11816,0.20508 -0.31739,0.20508 -0.31739,0.70313 0,0.37109 0.21973,0.59082 0.21973,0.21973 0.5957,0.21973 0.56641,0 0.87891,-0.42481 0.3125,-0.42968 0.3125,-1.19629 v -0.0977 z m 1.99219,-0.55175 v 3.12011 h -1.4209 v -0.61035 q -0.25879,0.36133 -0.66406,0.55665 -0.40528,0.1953 -0.89356,0.1953 -0.93261,0 -1.45508,-0.49316 -0.51757,-0.49316 -0.51757,-1.37695 0,-0.95703 0.62011,-1.41114 0.62012,-0.45897 1.91895,-0.45897 h 0.99121 v -0.23927 q 0,-0.34667 -0.25391,-0.52246 -0.24902,-0.18066 -0.7373,-0.18066 -0.5127,0 -0.9961,0.13184 -0.47851,0.12695 -1.00097,0.41015 v -1.2207 q 0.47363,-0.19531 0.96191,-0.28809 0.48828,-0.0928 1.03516,-0.0928 1.33301,0 1.87012,0.54199 0.54199,0.542 0.54199,1.93848 z"
     style="stroke-linejoin:miter;font-size:13.33333302px;-inkscape-font-specification:'monospace Bold';fill-opacity:1;letter-spacing:0px;word-spacing:0px;stroke:none;stroke-linecap:butt;stroke-width:0.75px;font-style:normal;fill:#00aeee;font-family:monospace;stroke-opacity:1;font-stretch:normal;font-variant:normal;font-weight:bold;line-height:125%"
     id="path17933"
     transform="matrix(1.000000,0.000000,0.000000,1.000000,0.000000,0.000000)" />
  <path
     d="m 346.32034,360.62254 v -3.55957 h 1.43067 v 3.33984 q 0,0.59082 0.16601,0.84472 0.16601,0.25391 0.55176,0.25391 0.38574,0 0.60058,-0.34179 0.21973,-0.3418 0.21973,-0.95704 v -3.13964 h 1.43066 v 5.46874 h -1.43066 v -0.81054 q -0.15137,0.4541 -0.51758,0.70312 -0.36133,0.24902 -0.87402,0.24902 -0.78125,0 -1.18164,-0.51757 -0.39551,-0.51758 -0.39551,-1.5332 z"
     style="stroke-linejoin:miter;font-size:13.33333302px;-inkscape-font-specification:'monospace Bold';fill-opacity:1;letter-spacing:0px;word-spacing:0px;stroke:none;stroke-linecap:butt;stroke-width:0.75px;font-style:normal;fill:#00aeee;font-family:monospace;stroke-opacity:1;font-stretch:normal;font-variant:normal;font-weight:bold;line-height:125%"
     id="path17935"
     transform="matrix(1.000000,0.000000,0.000000,1.000000,0.000000,0.000000)" />
  <path
     d="m 355.16311,356.58445 v 0.47852 h 1.67969 v 1.09863 h -1.67969 v 4.37011 h -1.43066 v -4.37011 h -1.32813 v -1.09863 h 1.32813 v -0.38087 q 0,-0.98632 0.41015,-1.36718 0.41016,-0.38086 1.52344,-0.38086 h 1.17676 v 1.09863 h -1.11816 q -0.32227,0 -0.43946,0.11719 -0.1123,0.11719 -0.12207,0.43457 z"
     style="stroke-linejoin:miter;font-size:13.33333302px;-inkscape-font-specification:'monospace Bold';fill-opacity:1;letter-spacing:0px;word-spacing:0px;stroke:none;stroke-linecap:butt;stroke-width:0.75px;font-style:normal;fill:#00aeee;font-family:monospace;stroke-opacity:1;font-stretch:normal;font-variant:normal;font-weight:bold;line-height:125%"
     id="path17937"
     transform="matrix(1.000000,0.000000,0.000000,1.000000,0.000000,0.000000)" />
  <path
     d="m 359.45998,360.25144 v -4.21875 h -1.45019 v -1.09863 h 2.88086 v 5.31738 q 0,0.64453 0.20019,0.91309 0.2002,0.26855 0.67872,0.26855 h 1.14258 v 1.09863 h -1.54297 q -1.02051,0 -1.46485,-0.52734 -0.44434,-0.52734 -0.44434,-1.75293 z"
     style="stroke-linejoin:miter;font-size:13.33333302px;-inkscape-font-specification:'monospace Bold';fill-opacity:1;letter-spacing:0px;word-spacing:0px;stroke:none;stroke-linecap:butt;stroke-width:0.75px;font-style:normal;fill:#00aeee;font-family:monospace;stroke-opacity:1;font-stretch:normal;font-variant:normal;font-weight:bold;line-height:125%"
     id="path17939"
     transform="matrix(1.000000,0.000000,0.000000,1.000000,0.000000,0.000000)" />
  <path
     d="m 367.00393,359.96335 q -0.80078,0 -1.11816,0.20508 -0.31738,0.20508 -0.31738,0.70313 0,0.37109 0.21973,0.59082 0.21972,0.21973 0.5957,0.21973 0.5664,0 0.8789,-0.42481 0.3125,-0.42968 0.3125,-1.19629 v -0.0977 z m 1.99219,-0.55175 v 3.12011 h -1.4209 v -0.61035 q -0.25878,0.36133 -0.66406,0.55665 -0.40527,0.1953 -0.89356,0.1953 -0.93261,0 -1.45507,-0.49316 -0.51758,-0.49316 -0.51758,-1.37695 0,-0.95703 0.62012,-1.41114 0.62011,-0.45897 1.91894,-0.45897 h 0.99121 v -0.23927 q 0,-0.34667 -0.2539,-0.52246 -0.24903,-0.18066 -0.73731,-0.18066 -0.51269,0 -0.99609,0.13184 -0.47852,0.12695 -1.00098,0.41015 v -1.2207 q 0.47363,-0.19531 0.96191,-0.28809 0.48829,-0.0928 1.03516,-0.0928 1.33301,0 1.87012,0.54199 0.54199,0.542 0.54199,1.93848 z"
     style="stroke-linejoin:miter;font-size:13.33333302px;-inkscape-font-specification:'monospace Bold';fill-opacity:1;letter-spacing:0px;word-spacing:0px;stroke:none;stroke-linecap:butt;stroke-width:0.75px;font-style:normal;fill:#00aeee;font-family:monospace;stroke-opacity:1;font-stretch:normal;font-variant:normal;font-weight:bold;line-height:125%"
     id="path17941"
     transform="matrix(1.000000,0.000000,0.000000,1.000000,0.000000,0.000000)" />
  <path
     d="m 373.52248,359.70945 q 0,-0.73242 -0.27831,-1.17188 -0.27833,-0.44433 -0.73243,-0.44433 -0.44921,0 -0.72754,0.43945 -0.27343,0.43946 -0.27343,1.17676 0,0.74218 0.27343,1.18164 0.27833,0.43945 0.72754,0.43945 0.4541,0 0.73243,-0.43945 0.27831,-0.44434 0.27831,-1.18164 z m 1.43067,2.41211 q 0,1.31348 -0.59571,1.89453 -0.59082,0.58594 -1.92382,0.58594 -0.44922,0 -0.88868,-0.0684 -0.43945,-0.0634 -0.89355,-0.20019 v -1.31348 q 0.40527,0.22461 0.8252,0.33203 0.41992,0.10742 0.86425,0.10742 0.60547,0 0.89356,-0.28808 0.28808,-0.28321 0.28808,-0.88868 v -0.59082 q -0.20996,0.39063 -0.55664,0.58106 -0.34668,0.19043 -0.84472,0.19043 -0.9375,0 -1.48926,-0.73243 -0.55176,-0.73242 -0.55176,-1.9873 0,-1.29883 0.55176,-2.06054 0.55176,-0.76173 1.47949,-0.76173 0.46875,0 0.83496,0.21973 0.36621,0.21973 0.57617,0.62012 v -0.69824 h 1.43067 z"
     style="stroke-linejoin:miter;font-size:13.33333302px;-inkscape-font-specification:'monospace Bold';fill-opacity:1;letter-spacing:0px;word-spacing:0px;stroke:none;stroke-linecap:butt;stroke-width:0.75px;font-style:normal;fill:#00aeee;font-family:monospace;stroke-opacity:1;font-stretch:normal;font-variant:normal;font-weight:bold;line-height:125%"
     id="path17943"
     transform="matrix(1.000000,0.000000,0.000000,1.000000,0.000000,0.000000)" />
  <path
     d="m 380.99807,362.26316 q -0.49804,0.20508 -1.01562,0.30762 -0.51758,0.10253 -1.09375,0.10253 -1.37208,0 -2.09961,-0.73242 -0.72266,-0.7373 -0.72266,-2.11914 0,-1.33788 0.69824,-2.11425 0.69825,-0.77637 1.9043,-0.77637 1.21582,0 1.88477,0.72266 0.67382,0.71777 0.67382,2.02636 v 0.58106 h -3.70605 q 0.005,0.64453 0.38086,0.96191 0.37598,0.31739 1.12305,0.31739 0.49316,0 0.97168,-0.1416 0.47851,-0.14161 1.00097,-0.44922 z m -1.21093,-3.07617 q -0.01,-0.56641 -0.29297,-0.8545 -0.27832,-0.29296 -0.8252,-0.29296 -0.49316,0 -0.78614,0.30273 -0.29296,0.29785 -0.34667,0.84961 z"
     style="stroke-linejoin:miter;font-size:13.33333302px;-inkscape-font-specification:'monospace Bold';fill-opacity:1;letter-spacing:0px;word-spacing:0px;stroke:none;stroke-linecap:butt;stroke-width:0.75px;font-style:normal;fill:#00aeee;font-family:monospace;stroke-opacity:1;font-stretch:normal;font-variant:normal;font-weight:bold;line-height:125%"
     id="path17945"
     transform="matrix(1.000000,0.000000,0.000000,1.000000,0.000000,0.000000)" />
  <path
     d="m 388.74709,362.53171 v -7.29003 h 1.44043 v 6.0205 h 3.08106 v 1.26953 z"
     style="stroke-linejoin:miter;font-size:13.33333302px;-inkscape-font-specification:'monospace Bold';fill-opacity:1;letter-spacing:0px;word-spacing:0px;stroke:none;stroke-linecap:butt;stroke-width:0.75px;font-style:normal;fill:#00aeee;font-family:monospace;stroke-opacity:1;font-stretch:normal;font-variant:normal;font-weight:bold;line-height:125%"
     id="path17947"
     transform="matrix(1.000000,0.000000,0.000000,1.000000,0.000000,0.000000)" />
  <path
     d="m 397.08206,359.96335 q -0.80078,0 -1.11817,0.20508 -0.31738,0.20508 -0.31738,0.70313 0,0.37109 0.21973,0.59082 0.21972,0.21973 0.5957,0.21973 0.56641,0 0.87891,-0.42481 0.3125,-0.42968 0.3125,-1.19629 v -0.0977 z m 1.99218,-0.55175 v 3.12011 h -1.42089 v -0.61035 q -0.25879,0.36133 -0.66407,0.55665 -0.40527,0.1953 -0.89355,0.1953 -0.93262,0 -1.45508,-0.49316 -0.51758,-0.49316 -0.51758,-1.37695 0,-0.95703 0.62012,-1.41114 0.62012,-0.45897 1.91895,-0.45897 h 0.99121 v -0.23927 q 0,-0.34667 -0.25391,-0.52246 -0.24902,-0.18066 -0.7373,-0.18066 -0.5127,0 -0.9961,0.13184 -0.47851,0.12695 -1.00097,0.41015 v -1.2207 q 0.47363,-0.19531 0.96191,-0.28809 0.48828,-0.0928 1.03516,-0.0928 1.333,0 1.87011,0.54199 0.54199,0.542 0.54199,1.93848 z"
     style="stroke-linejoin:miter;font-size:13.33333302px;-inkscape-font-specification:'monospace Bold';fill-opacity:1;letter-spacing:0px;word-spacing:0px;stroke:none;stroke-linecap:butt;stroke-width:0.75px;font-style:normal;fill:#00aeee;font-family:monospace;stroke-opacity:1;font-stretch:normal;font-variant:normal;font-weight:bold;line-height:125%"
     id="path17949"
     transform="matrix(1.000000,0.000000,0.000000,1.000000,0.000000,0.000000)" />
  <path
     d="m 403.15139,363.12253 q -0.28809,0.77149 -0.69336,1.12305 -0.40039,0.35645 -0.97656,0.35645 h -1.18164 v -1.08887 h 0.58105 q 0.43945,0 0.64453,-0.15137 0.20508,-0.14648 0.41504,-0.68848 l 0.10742,-0.29296 -2.08007,-5.31738 h 1.5039 l 1.25,3.5498 1.19629,-3.5498 h 1.50391 z"
     style="stroke-linejoin:miter;font-size:13.33333302px;-inkscape-font-specification:'monospace Bold';fill-opacity:1;letter-spacing:0px;word-spacing:0px;stroke:none;stroke-linecap:butt;stroke-width:0.75px;font-style:normal;fill:#00aeee;font-family:monospace;stroke-opacity:1;font-stretch:normal;font-variant:normal;font-weight:bold;line-height:125%"
     id="path17951"
     transform="matrix(1.000000,0.000000,0.000000,1.000000,0.000000,0.000000)" />
  <path
     d="m 411.0762,362.26316 q -0.49805,0.20508 -1.01563,0.30762 -0.51758,0.10253 -1.09375,0.10253 -1.37207,0 -2.09961,-0.73242 -0.72265,-0.7373 -0.72265,-2.11914 0,-1.33788 0.69824,-2.11425 0.69824,-0.77637 1.90429,-0.77637 1.21582,0 1.88477,0.72266 0.67383,0.71777 0.67383,2.02636 v 0.58106 h -3.70606 q 0.005,0.64453 0.38086,0.96191 0.37598,0.31739 1.12305,0.31739 0.49316,0 0.97168,-0.1416 0.47851,-0.14161 1.00098,-0.44922 z m -1.21094,-3.07617 q -0.01,-0.56641 -0.29297,-0.8545 -0.27832,-0.29296 -0.8252,-0.29296 -0.49316,0 -0.78613,0.30273 -0.29297,0.29785 -0.34668,0.84961 z"
     style="stroke-linejoin:miter;font-size:13.33333302px;-inkscape-font-specification:'monospace Bold';fill-opacity:1;letter-spacing:0px;word-spacing:0px;stroke:none;stroke-linecap:butt;stroke-width:0.75px;font-style:normal;fill:#00aeee;font-family:monospace;stroke-opacity:1;font-stretch:normal;font-variant:normal;font-weight:bold;line-height:125%"
     id="path17953"
     transform="matrix(1.000000,0.000000,0.000000,1.000000,0.000000,0.000000)" />
  <path
     d="m 417.33107,358.57175 q -0.23437,-0.21484 -0.55175,-0.32226 -0.3125,-0.10742 -0.68848,-0.10742 -0.4541,0 -0.7959,0.16113 -0.33691,0.15625 -0.52246,0.45898 -0.11719,0.18555 -0.16601,0.44922 -0.0439,0.26367 -0.0439,0.80079 v 2.51952 h -1.43066 v -5.46874 h 1.43066 v 0.84961 q 0.20996,-0.46875 0.64453,-0.72266 0.43457,-0.25879 1.01563,-0.25879 0.29297,0 0.57129,0.0733 0.2832,0.0684 0.53711,0.20508 z"
     style="stroke-linejoin:miter;font-size:13.33333302px;-inkscape-font-specification:'monospace Bold';fill-opacity:1;letter-spacing:0px;word-spacing:0px;stroke:none;stroke-linecap:butt;stroke-width:0.75px;font-style:normal;fill:#00aeee;font-family:monospace;stroke-opacity:1;font-stretch:normal;font-variant:normal;font-weight:bold;line-height:125%"
     id="path17955"
     transform="matrix(1.000000,0.000000,0.000000,1.000000,0.000000,0.000000)" />
  <path
     d="m 425.86135,361.26218 h 3.07129 v 1.26953 h -4.6289 v -1.23046 l 0.78124,-0.83008 q 1.39161,-1.47949 1.68946,-1.82129 0.36621,-0.41992 0.52734,-0.74219 0.16113,-0.32715 0.16113,-0.64453 0,-0.48828 -0.29785,-0.75195 -0.29297,-0.26855 -0.83496,-0.26855 -0.38574,0 -0.86914,0.15624 -0.47851,0.15137 -1.00097,0.44434 v -1.34278 q 0.52246,-0.19042 1.0205,-0.28808 0.50293,-0.10254 0.96192,-0.10254 1.15722,0 1.8164,0.542 0.66407,0.5371 0.66407,1.46972 0,0.42969 -0.14649,0.80566 -0.1416,0.37598 -0.49316,0.83496 -0.25879,0.33204 -1.4209,1.49415 -0.62988,0.62988 -1.00098,1.00585 z"
     style="stroke-linejoin:miter;font-size:13.33333302px;-inkscape-font-specification:'monospace Bold';fill-opacity:1;letter-spacing:0px;word-spacing:0px;stroke:none;stroke-linecap:butt;stroke-width:0.75px;font-style:normal;fill:#00aeee;font-family:monospace;stroke-opacity:1;font-stretch:normal;font-variant:normal;font-weight:bold;line-height:125%"
     id="path17957"
     transform="matrix(1.000000,0.000000,0.000000,1.000000,0.000000,0.000000)" />
  <path
     d="m 438.78128,356.40379 q -0.55176,0 -0.80567,0.59082 -0.2539,0.58593 -0.2539,1.89941 0,1.30859 0.2539,1.89941 0.25391,0.58594 0.80567,0.58594 0.55664,0 0.81054,-0.58594 0.25391,-0.59082 0.25391,-1.89941 0,-1.31348 -0.25391,-1.89941 -0.2539,-0.59082 -0.81054,-0.59082 z m -2.5586,2.49023 q 0,-1.87012 0.64454,-2.82715 0.64941,-0.95703 1.91406,-0.95703 1.26953,0 1.91406,0.95703 0.64941,0.95703 0.64941,2.82715 0,1.86523 -0.64941,2.82226 -0.64453,0.95703 -1.91406,0.95703 -1.26465,0 -1.91406,-0.95703 -0.64454,-0.95703 -0.64454,-2.82226 z"
     style="stroke-linejoin:miter;font-size:13.33333302px;-inkscape-font-specification:'monospace Bold';fill-opacity:1;letter-spacing:0px;word-spacing:0px;stroke:none;stroke-linecap:butt;stroke-width:0.75px;font-style:normal;fill:#00aeee;font-family:monospace;stroke-opacity:1;font-stretch:normal;font-variant:normal;font-weight:bold;line-height:125%"
     id="path17959"
     transform="matrix(1.000000,0.000000,0.000000,1.000000,0.000000,0.000000)" />
  <path
     d="m 443.94729,361.76023 v 2.85156 h -1.42578 v -7.54882 h 1.42578 v 0.82031 q 0.22461,-0.47363 0.59082,-0.7129 0.36621,-0.23925 0.85938,-0.23925 0.9375,0 1.45507,0.75195 0.51758,0.75195 0.51758,2.11914 0,1.38672 -0.52734,2.12891 -0.52246,0.74218 -1.49414,0.74218 -0.43946,0 -0.79102,-0.2246 -0.34668,-0.22949 -0.61035,-0.68848 z m 1.99219,-1.96777 q 0,-0.79102 -0.26367,-1.24024 -0.26368,-0.44922 -0.72754,-0.44922 -0.46387,0 -0.73243,0.44922 -0.26855,0.44922 -0.26855,1.24024 0,0.79102 0.26855,1.24023 0.26856,0.44922 0.73243,0.44922 0.46386,0 0.72754,-0.44922 0.26367,-0.44921 0.26367,-1.24023 z"
     style="stroke-linejoin:miter;font-size:13.33333302px;-inkscape-font-specification:'monospace Bold';fill-opacity:1;letter-spacing:0px;word-spacing:0px;stroke:none;stroke-linecap:butt;stroke-width:0.75px;font-style:normal;fill:#00aeee;font-family:monospace;stroke-opacity:1;font-stretch:normal;font-variant:normal;font-weight:bold;line-height:125%"
     id="path17961"
     transform="matrix(1.000000,0.000000,0.000000,1.000000,0.000000,0.000000)" />
  <path
     d="m 448.88381,357.06297 h 2.83203 v 4.37011 h 1.77734 v 1.09863 h -4.99023 v -1.09863 h 1.78223 v -3.27148 h -1.40137 z m 1.40137,-2.66114 h 1.43066 v 1.66992 h -1.43066 z"
     style="stroke-linejoin:miter;font-size:13.33333302px;-inkscape-font-specification:'monospace Bold';fill-opacity:1;letter-spacing:0px;word-spacing:0px;stroke:none;stroke-linecap:butt;stroke-width:0.75px;font-style:normal;fill:#00aeee;font-family:monospace;stroke-opacity:1;font-stretch:normal;font-variant:normal;font-weight:bold;line-height:125%"
     id="path17963"
     transform="matrix(1.000000,0.000000,0.000000,1.000000,0.000000,0.000000)" />
  <path
     d="m 458.65921,357.23386 v 1.25001 q -0.39551,-0.25391 -0.8252,-0.38087 -0.4248,-0.13183 -0.85449,-0.13183 -0.47852,0 -0.72266,0.1416 -0.24414,0.13672 -0.24414,0.41016 0,0.39062 1.04493,0.63476 l 0.0537,0.0146 0.41015,0.0977 q 0.78125,0.18555 1.14258,0.6006 0.36621,0.41015 0.36621,1.11327 0,0.84473 -0.55664,1.26954 -0.55176,0.41991 -1.66504,0.41991 -0.49316,0 -1.01074,-0.0879 -0.51758,-0.083 -1.04981,-0.25388 v -1.25 q 0.47364,0.26855 0.96192,0.41015 0.49316,0.14161 0.95215,0.14161 0.50293,0 0.76172,-0.14649 0.25879,-0.14648 0.25879,-0.4248 0,-0.27344 -0.18555,-0.41992 -0.18067,-0.14649 -0.86914,-0.31251 l -0.39551,-0.0879 q -0.82031,-0.18555 -1.19629,-0.58106 -0.37598,-0.39551 -0.37598,-1.05957 0,-0.79101 0.57129,-1.23047 0.57129,-0.43945 1.60645,-0.43945 0.46387,0 0.92285,0.0781 0.46387,0.0733 0.89844,0.22461 z"
     style="stroke-linejoin:miter;font-size:13.33333302px;-inkscape-font-specification:'monospace Bold';fill-opacity:1;letter-spacing:0px;word-spacing:0px;stroke:none;stroke-linecap:butt;stroke-width:0.75px;font-style:normal;fill:#00aeee;font-family:monospace;stroke-opacity:1;font-stretch:normal;font-variant:normal;font-weight:bold;line-height:125%"
     id="path17965"
     transform="matrix(1.000000,0.000000,0.000000,1.000000,0.000000,0.000000)" />
  <path
     d="M 463.56643,362.53171 H 462.126 v -6.03027 h -1.85059 v -1.25976 h 5.14161 v 1.25976 h -1.85059 z"
     style="stroke-linejoin:miter;font-size:13.33333302px;-inkscape-font-specification:'monospace Bold';fill-opacity:1;letter-spacing:0px;word-spacing:0px;stroke:none;stroke-linecap:butt;stroke-width:0.75px;font-style:normal;fill:#00aeee;font-family:monospace;stroke-opacity:1;font-stretch:normal;font-variant:normal;font-weight:bold;line-height:125%"
     id="path17967"
     transform="matrix(1.000000,0.000000,0.000000,1.000000,0.000000,0.000000)" />
  <path
     d="m 471.23244,362.26316 q -0.49804,0.20508 -1.01562,0.30762 -0.51758,0.10253 -1.09375,0.10253 -1.37207,0 -2.09961,-0.73242 -0.72266,-0.7373 -0.72266,-2.11914 0,-1.33788 0.69824,-2.11425 0.69825,-0.77637 1.9043,-0.77637 1.21582,0 1.88477,0.72266 0.67382,0.71777 0.67382,2.02636 v 0.58106 h -3.70605 q 0.005,0.64453 0.38086,0.96191 0.37598,0.31739 1.12305,0.31739 0.49316,0 0.97168,-0.1416 0.47851,-0.14161 1.00097,-0.44922 z m -1.21094,-3.07617 q -0.01,-0.56641 -0.29296,-0.8545 -0.27832,-0.29296 -0.8252,-0.29296 -0.49316,0 -0.78613,0.30273 -0.29297,0.29785 -0.34668,0.84961 z"
     style="stroke-linejoin:miter;font-size:13.33333302px;-inkscape-font-specification:'monospace Bold';fill-opacity:1;letter-spacing:0px;word-spacing:0px;stroke:none;stroke-linecap:butt;stroke-width:0.75px;font-style:normal;fill:#00aeee;font-family:monospace;stroke-opacity:1;font-stretch:normal;font-variant:normal;font-weight:bold;line-height:125%"
     id="path17969"
     transform="matrix(1.000000,0.000000,0.000000,1.000000,0.000000,0.000000)" />
  <path
     d="m 477.04787,362.2534 q -0.36133,0.20996 -0.77637,0.3125 -0.41504,0.10741 -0.89355,0.10741 -1.26465,0 -1.97754,-0.76171 -0.71289,-0.76172 -0.71289,-2.10938 0,-1.35254 0.71777,-2.11425 0.71777,-0.76661 1.98242,-0.76661 0.43945,0 0.84473,0.10254 0.41015,0.10254 0.81543,0.31739 v 1.30859 q -0.3125,-0.26855 -0.68848,-0.41015 -0.37109,-0.14649 -0.77148,-0.14649 -0.69825,0 -1.07422,0.44433 -0.37598,0.44434 -0.37598,1.26465 0,0.82032 0.37598,1.25977 0.37597,0.43945 1.07422,0.43945 0.41504,0 0.77636,-0.13672 0.36133,-0.1416 0.6836,-0.4248 z"
     style="stroke-linejoin:miter;font-size:13.33333302px;-inkscape-font-specification:'monospace Bold';fill-opacity:1;letter-spacing:0px;word-spacing:0px;stroke:none;stroke-linecap:butt;stroke-width:0.75px;font-style:normal;fill:#00aeee;font-family:monospace;stroke-opacity:1;font-stretch:normal;font-variant:normal;font-weight:bold;line-height:125%"
     id="path17971"
     transform="matrix(1.000000,0.000000,0.000000,1.000000,0.000000,0.000000)" />
  <path
     d="m 483.11233,358.98191 v 3.5498 h -1.4209 v -3.33007 q 0,-0.59082 -0.1709,-0.84473 -0.16601,-0.25391 -0.54687,-0.25391 -0.39063,0 -0.61035,0.34668 -0.21973,0.3418 -0.21973,0.95216 v 3.12987 h -1.4209 v -7.59765 h 1.4209 v 2.94922 q 0.15137,-0.4541 0.51758,-0.70312 0.36621,-0.24903 0.88379,-0.24903 0.77636,0 1.17187,0.51758 0.39551,0.51269 0.39551,1.5332 z"
     style="stroke-linejoin:miter;font-size:13.33333302px;-inkscape-font-specification:'monospace Bold';fill-opacity:1;letter-spacing:0px;word-spacing:0px;stroke:none;stroke-linecap:butt;stroke-width:0.75px;font-style:normal;fill:#00aeee;font-family:monospace;stroke-opacity:1;font-stretch:normal;font-variant:normal;font-weight:bold;line-height:125%"
     id="path17973"
     transform="matrix(1.000000,0.000000,0.000000,1.000000,0.000000,0.000000)" />
  <path
     transform="matrix(-0.239314,0.000000,0.000000,-0.239534,1262.815400,841.274370)"
     id="path3"
     style="stroke:#ec008c;stroke-miterlimit:10;stroke-opacity:1;fill-rule:nonzero;clip-rule:evenodd;stroke-width:4.19999981px;fill:none"
     d="M 3489.5257,514.363 H 3158.68 V 2309.64 h 93.4 v 531.5 h -93.4 v 153.54 h 921.6824 V 514.363 h -212.7128 l 153.6161,141.732 v 58.933 h -685.3088 v -58.933 z" />
  <path
     id="path561-9-1-31-3-7-3-5-2-3-9"
     style="stroke:#fdb812;stroke-miterlimit:10;stroke-opacity:1;fill-rule:nonzero;clip-rule:evenodd;stroke-width:0.99768871;fill:none"
     d="m 298.96587,402.00241 c -1.56061,0 -2.82705,-1.26669 -2.82705,-2.82883 0,-1.56315 1.26644,-2.82983 2.82705,-2.82983 1.56062,0 2.82609,1.26668 2.82609,2.82983 0,1.56214 -1.26547,2.82883 -2.82609,2.82883"
     transform="matrix(1.000000,0.000000,0.000000,1.000000,0.000000,0.000000)" />
  <path
     id="path565-7-5-9-2-0-5-92-9-6-0"
     style="stroke:#000000;stroke-miterlimit:10;stroke-opacity:1;fill-rule:nonzero;clip-rule:evenodd;stroke-width:0.67318708px;fill:none"
     d="m 301.89408,399.17364 h -5.9833"
     transform="matrix(1.000000,0.000000,0.000000,1.000000,0.000000,0.000000)" />
  <path
     id="path569-2-4-47-0-9-6-28-3-1-2"
     style="stroke:#000000;stroke-miterlimit:10;stroke-opacity:1;fill-rule:nonzero;clip-rule:evenodd;stroke-width:0.67318743px;fill:none"
     d="M 298.96473,402.12666 V 396.1375"
     transform="matrix(1.000000,0.000000,0.000000,1.000000,0.000000,0.000000)" />
  <path
     d="m 490.22541,402.00243 c 1.56061,0 2.82705,-1.26669 2.82705,-2.82884 0,-1.56315 -1.26644,-2.82982 -2.82705,-2.82982 -1.56062,0 -2.82609,1.26667 -2.82609,2.82982 0,1.56215 1.26547,2.82884 2.82609,2.82884"
     style="stroke:#fdb812;stroke-miterlimit:10;stroke-opacity:1;fill-rule:nonzero;clip-rule:evenodd;stroke-width:0.99768871;fill:none"
     id="path561-9-1-31-3-7-3-5-2-8"
     transform="matrix(1.000000,0.000000,0.000000,1.000000,0.000000,0.000000)" />
  <path
     d="m 487.2972,399.17365 h 5.9833"
     style="stroke:#000000;stroke-miterlimit:10;stroke-opacity:1;fill-rule:nonzero;clip-rule:evenodd;stroke-width:0.67318708px;fill:none"
     id="path565-7-5-9-2-0-5-92-9-3"
     transform="matrix(1.000000,0.000000,0.000000,1.000000,0.000000,0.000000)" />
  <path
     d="m 490.22655,402.12667 v -5.98915"
     style="stroke:#000000;stroke-miterlimit:10;stroke-opacity:1;fill-rule:nonzero;clip-rule:evenodd;stroke-width:0.67318743px;fill:none"
     id="path569-2-4-47-0-9-6-28-3-8"
     transform="matrix(1.000000,0.000000,0.000000,1.000000,0.000000,0.000000)" />
  <path
     d="m 490.22541,439.08841 c 1.56061,0 2.82705,1.26669 2.82705,2.82884 0,1.56315 -1.26644,2.82982 -2.82705,2.82982 -1.56062,0 -2.82609,-1.26667 -2.82609,-2.82982 0,-1.56215 1.26547,-2.82884 2.82609,-2.82884"
     style="stroke:#fdb812;stroke-miterlimit:10;stroke-opacity:1;fill-rule:nonzero;clip-rule:evenodd;stroke-width:0.99768871;fill:none"
     id="path561-9-1-31-3-7-3-5-2-9"
     transform="matrix(1.000000,0.000000,0.000000,1.000000,0.000000,0.000000)" />
  <path
     d="m 487.2972,441.91719 h 5.9833"
     style="stroke:#000000;stroke-miterlimit:10;stroke-opacity:1;fill-rule:nonzero;clip-rule:evenodd;stroke-width:0.67318708px;fill:none"
     id="path565-7-5-9-2-0-5-92-9-1"
     transform="matrix(1.000000,0.000000,0.000000,1.000000,0.000000,0.000000)" />
  <path
     d="m 490.22655,438.96417 v 5.98916"
     style="stroke:#000000;stroke-miterlimit:10;stroke-opacity:1;fill-rule:nonzero;clip-rule:evenodd;stroke-width:0.67318743px;fill:none"
     id="path569-2-4-47-0-9-6-28-3-9"
     transform="matrix(1.000000,0.000000,0.000000,1.000000,0.000000,0.000000)" />
  <path
     id="path561-9-1-31-3-7-3-5-2-3-0"
     style="stroke:#fdb812;stroke-miterlimit:10;stroke-opacity:1;fill-rule:nonzero;clip-rule:evenodd;stroke-width:0.99768871;fill:none"
     d="m 298.96587,439.08843 c -1.56061,0 -2.82705,1.26669 -2.82705,2.82884 0,1.56314 1.26644,2.82982 2.82705,2.82982 1.56062,0 2.82609,-1.26668 2.82609,-2.82982 0,-1.56215 -1.26547,-2.82884 -2.82609,-2.82884"
     transform="matrix(1.000000,0.000000,0.000000,1.000000,0.000000,0.000000)" />
  <path
     id="path565-7-5-9-2-0-5-92-9-6-4"
     style="stroke:#000000;stroke-miterlimit:10;stroke-opacity:1;fill-rule:nonzero;clip-rule:evenodd;stroke-width:0.67318708px;fill:none"
     d="m 301.89408,441.9172 h -5.9833"
     transform="matrix(1.000000,0.000000,0.000000,1.000000,0.000000,0.000000)" />
  <path
     id="path569-2-4-47-0-9-6-28-3-1-0"
     style="stroke:#000000;stroke-miterlimit:10;stroke-opacity:1;fill-rule:nonzero;clip-rule:evenodd;stroke-width:0.67318743px;fill:none"
     d="m 298.96473,438.96418 v 5.98916"
     transform="matrix(1.000000,0.000000,0.000000,1.000000,0.000000,0.000000)" />
  <path
     id="rect20625-3-4"
     d="m 318.20581,418.15572 v 36.57073 120.11413 36.57072 H 461.30938 V 574.84058 454.72645 418.15572 Z"
     style="stroke-opacity:1;fill-opacity:1;stroke:#eb008a;stroke-dasharray:none;stroke-miterlimit:10;stroke-width:1.00131869;display:inline;fill:none"
     transform="matrix(1.000000,0.000000,0.000000,1.000000,6.855709,0.000000)" />
  <path
     d="m -457.60156,6.70638 q -1.45183,-0.5533854 -1.96615,-1.1588541 -0.51432,-0.6119792 -0.51432,-1.640625 0,-1.3216145 0.84635,-2.0768228 0.84636,-0.7552084 2.32422,-0.7552084 0.67057,0 1.34115,0.15625 0.67057,0.1497396 1.32812,0.4492188 v 1.8749999 q -0.61849,-0.4361979 -1.25651,-0.6640624 -0.63802,-0.2278646 -1.26302,-0.2278646 -0.69661,0 -1.06771,0.2799479 -0.37109,0.2799479 -0.37109,0.8007812 0,0.4036458 0.26693,0.6705729 0.27343,0.2604167 1.13281,0.5794271 l 0.82682,0.3125 q 1.17188,0.4296875 1.72526,1.1393229 0.55339,0.7096354 0.55339,1.7903645 0,1.4713541 -0.8724,2.2005211 -0.86588,0.722656 -2.6237,0.722656 -0.72265,0 -1.45182,-0.175781 -0.72266,-0.169271 -1.39974,-0.507813 V 8.4902342 q 0.76823,0.5468749 1.48438,0.813802 0.72265,0.2669271 1.42578,0.2669271 0.70963,0 1.10026,-0.3190104 0.39062,-0.3255208 0.39062,-0.9049479 0,-0.4361979 -0.26041,-0.7617187 -0.26042,-0.3320313 -0.75521,-0.5208334 z"
     id="path22410"
     transform="matrix(0.000000,-0.750000,0.750000,0.000000,491.542120,-65.995170)"
     style="font-size:13.33333302px;-inkscape-font-specification:'monospace Bold';fill-opacity:1;font-weight:bold;letter-spacing:0px;line-height:1.25;word-spacing:0px;stroke:none;font-stretch:normal;font-variant:normal;font-family:monospace;font-style:normal;fill:#000000" />
  <path
     d="m -445.92188,6.23763 v 4.733073 h -1.89453 V 6.5305988 q 0,-0.7877604 -0.22786,-1.1263021 -0.22136,-0.3385416 -0.72917,-0.3385416 -0.52083,0 -0.8138,0.4622395 -0.29297,0.4557292 -0.29297,1.2695313 v 4.1731771 h -1.89453 V 0.84049475 h 1.89453 V 4.7727863 q 0.20182,-0.6054687 0.69011,-0.9375 0.48828,-0.3320312 1.17838,-0.3320312 1.03516,0 1.5625,0.6901042 0.52734,0.6835937 0.52734,2.0442707 z"
     id="path22412"
     transform="matrix(0.000000,-0.750000,0.750000,0.000000,491.542120,-65.995170)"
     style="font-size:13.33333302px;-inkscape-font-specification:'monospace Bold';fill-opacity:1;font-weight:bold;letter-spacing:0px;line-height:1.25;word-spacing:0px;stroke:none;font-stretch:normal;font-variant:normal;font-family:monospace;font-style:normal;fill:#000000" />
  <path
     d="m -437.69271,10.61263 q -0.66406,0.273437 -1.35417,0.410156 -0.6901,0.136719 -1.45833,0.136719 -1.82943,0 -2.79948,-0.976563 -0.96354,-0.9830724 -0.96354,-2.8255203 0,-1.7838541 0.93099,-2.8190104 0.93099,-1.0351562 2.53906,-1.0351562 1.6211,0 2.51302,0.9635416 0.89844,0.9570313 0.89844,2.7018229 v 0.7747396 h -4.94141 q 0.007,0.8593749 0.50782,1.282552 0.5013,0.4231771 1.49739,0.4231771 0.65756,0 1.29558,-0.1888021 0.63802,-0.1888021 1.33463,-0.5989583 z m -1.61458,-4.1015625 q -0.013,-0.7552083 -0.39063,-1.1393229 -0.37109,-0.3906249 -1.10026,-0.3906249 -0.65755,0 -1.04817,0.4036458 -0.39063,0.3971354 -0.46224,1.1328124 z"
     id="path22414"
     transform="matrix(0.000000,-0.750000,0.750000,0.000000,491.542120,-65.995170)"
     style="font-size:13.33333302px;-inkscape-font-specification:'monospace Bold';fill-opacity:1;font-weight:bold;letter-spacing:0px;line-height:1.25;word-spacing:0px;stroke:none;font-stretch:normal;font-variant:normal;font-family:monospace;font-style:normal;fill:#000000" />
  <path
     d="m -429.66536,10.61263 q -0.66407,0.273437 -1.35417,0.410156 -0.69011,0.136719 -1.45833,0.136719 -1.82943,0 -2.79948,-0.976563 -0.96355,-0.9830724 -0.96355,-2.8255203 0,-1.7838541 0.93099,-2.8190104 0.93099,-1.0351562 2.53907,-1.0351562 1.62109,0 2.51302,0.9635416 0.89843,0.9570313 0.89843,2.7018229 v 0.7747396 h -4.9414 q 0.007,0.8593749 0.50781,1.282552 0.5013,0.4231771 1.4974,0.4231771 0.65755,0 1.29557,-0.1888021 0.63802,-0.1888021 1.33464,-0.5989583 z m -1.61459,-4.1015625 q -0.013,-0.7552083 -0.39062,-1.1393229 -0.3711,-0.3906249 -1.10026,-0.3906249 -0.65756,0 -1.04818,0.4036458 -0.39063,0.3971354 -0.46224,1.1328124 z"
     id="path22416"
     transform="matrix(0.000000,-0.750000,0.750000,0.000000,491.542120,-65.995170)"
     style="font-size:13.33333302px;-inkscape-font-specification:'monospace Bold';fill-opacity:1;font-weight:bold;letter-spacing:0px;line-height:1.25;word-spacing:0px;stroke:none;font-stretch:normal;font-variant:normal;font-family:monospace;font-style:normal;fill:#000000" />
  <path
     d="m -424.32031,1.6087239 v 2.0703125 h 2.49349 v 1.4648437 h -2.49349 v 3.4505207 q 0,0.4882813 0.23437,0.703125 0.24089,0.2083333 0.79427,0.2083333 h 1.46485 v 1.4648439 h -1.60157 q -1.64062,0 -2.22005,-0.520833 -0.57942,-0.5273442 -0.57942,-1.946615 V 5.1438801 h -1.86198 V 3.6790364 h 1.86198 V 1.6087239 Z"
     id="path22418"
     transform="matrix(0.000000,-0.750000,0.750000,0.000000,491.542120,-65.995170)"
     style="font-size:13.33333302px;-inkscape-font-specification:'monospace Bold';fill-opacity:1;font-weight:bold;letter-spacing:0px;line-height:1.25;word-spacing:0px;stroke:none;font-stretch:normal;font-variant:normal;font-family:monospace;font-style:normal;fill:#000000" />
  <path
     d="m -409.93229,9.2779946 h 4.09505 v 1.6927084 h -6.17187 V 9.3300779 l 1.04166,-1.1067708 q 1.85547,-1.9726562 2.25261,-2.4283854 0.48828,-0.5598958 0.70312,-0.9895833 0.21484,-0.4361979 0.21484,-0.859375 0,-0.6510416 -0.39713,-1.0026041 -0.39063,-0.3580729 -1.11328,-0.3580729 -0.51432,0 -1.15886,0.2083333 -0.63802,0.2018229 -1.33463,0.5924479 V 1.5957031 q 0.69661,-0.2539063 1.36068,-0.3841146 0.67057,-0.1367188 1.28255,-0.1367188 1.54297,0 2.42187,0.7226563 0.88542,0.7161458 0.88542,1.9596353 0,0.5729167 -0.19531,1.0742188 -0.18881,0.501302 -0.65756,1.1132812 -0.34505,0.4427083 -1.89453,1.9921874 -0.83984,0.8398438 -1.33463,1.3411459 z"
     id="path22420"
     transform="matrix(0.000000,-0.750000,0.750000,0.000000,491.542120,-65.995170)"
     style="font-size:13.33333302px;-inkscape-font-specification:'monospace Bold';fill-opacity:1;font-weight:bold;letter-spacing:0px;line-height:1.25;word-spacing:0px;stroke:none;font-stretch:normal;font-variant:normal;font-family:monospace;font-style:normal;fill:#000000" />
  <path
     d="m -394.74349,6.1855467 h 4.10807 v 1.8945312 h -4.10807 z"
     id="path22422"
     transform="matrix(0.000000,-0.750000,0.750000,0.000000,491.542120,-65.995170)"
     style="font-size:13.33333302px;-inkscape-font-specification:'monospace Bold';fill-opacity:1;font-weight:bold;letter-spacing:0px;line-height:1.25;word-spacing:0px;stroke:none;font-stretch:normal;font-variant:normal;font-family:monospace;font-style:normal;fill:#000000" />
  <path
     d="m -376.63802,2.8001301 q -0.73568,0 -1.07422,0.7877604 -0.33854,0.78125 -0.33854,2.532552 0,1.7447917 0.33854,2.5325521 0.33854,0.7812499 1.07422,0.7812499 0.74219,0 1.08073,-0.7812499 0.33854,-0.7877604 0.33854,-2.5325521 0,-1.751302 -0.33854,-2.532552 -0.33854,-0.7877604 -1.08073,-0.7877604 z m -3.41146,3.3203124 q 0,-2.4934895 0.85938,-3.7695311 0.86588,-1.2760417 2.55208,-1.2760417 1.69271,0 2.55208,1.2760417 0.86589,1.2760416 0.86589,3.7695311 0,2.4869792 -0.86589,3.7630208 -0.85937,1.2760417 -2.55208,1.2760417 -1.6862,0 -2.55208,-1.2760417 -0.85938,-1.2760416 -0.85938,-3.7630208 z"
     id="path22424"
     transform="matrix(0.000000,-0.750000,0.750000,0.000000,491.542120,-65.995170)"
     style="font-size:13.33333302px;-inkscape-font-specification:'monospace Bold';fill-opacity:1;font-weight:bold;letter-spacing:0px;line-height:1.25;word-spacing:0px;stroke:none;font-stretch:normal;font-variant:normal;font-family:monospace;font-style:normal;fill:#000000" />
  <path
     d="m -369.74349,9.942057 v 3.802083 h -1.90104 V 3.6790364 h 1.90104 v 1.0937499 q 0.29948,-0.6315104 0.78776,-0.9505208 0.48828,-0.3190104 1.14583,-0.3190104 1.25,0 1.94011,1.0026041 0.6901,1.0026042 0.6901,2.8255208 0,1.8489583 -0.70312,2.838542 -0.69662,0.989583 -1.99219,0.989583 -0.58594,0 -1.05469,-0.299479 -0.46224,-0.30599 -0.8138,-0.917969 z m 2.65625,-2.6236978 q 0,-1.0546875 -0.35156,-1.6536458 -0.35156,-0.5989583 -0.97005,-0.5989583 -0.61849,0 -0.97657,0.5989583 -0.35807,0.5989583 -0.35807,1.6536458 0,1.0546875 0.35807,1.6536458 0.35808,0.5989583 0.97657,0.5989583 0.61849,0 0.97005,-0.5989583 0.35156,-0.5989583 0.35156,-1.6536458 z"
     id="path22426"
     transform="matrix(0.000000,-0.750000,0.750000,0.000000,491.542120,-65.995170)"
     style="font-size:13.33333302px;-inkscape-font-specification:'monospace Bold';fill-opacity:1;font-weight:bold;letter-spacing:0px;line-height:1.25;word-spacing:0px;stroke:none;font-stretch:normal;font-variant:normal;font-family:monospace;font-style:normal;fill:#000000" />
  <path
     d="m -363.15495,3.6790364 h 3.77604 v 5.8268227 h 2.3698 v 1.4648439 h -6.65365 V 9.5058591 h 2.3763 v -4.361979 h -1.86849 z m 1.86849,-3.54817705 h 1.90755 V 2.3574218 h -1.90755 z"
     id="path22428"
     transform="matrix(0.000000,-0.750000,0.750000,0.000000,491.542120,-65.995170)"
     style="font-size:13.33333302px;-inkscape-font-specification:'monospace Bold';fill-opacity:1;font-weight:bold;letter-spacing:0px;line-height:1.25;word-spacing:0px;stroke:none;font-stretch:normal;font-variant:normal;font-family:monospace;font-style:normal;fill:#000000" />
  <path
     d="m -350.11458,3.9069009 v 1.6666667 q -0.52735,-0.3385417 -1.10026,-0.5078125 -0.56641,-0.1757813 -1.13933,-0.1757813 -0.63802,0 -0.96354,0.1888021 -0.32552,0.1822917 -0.32552,0.546875 0,0.5208333 1.39323,0.8463541 l 0.0716,0.019531 0.54688,0.1302083 q 1.04167,0.2473958 1.52344,0.8007812 0.48828,0.546875 0.48828,1.484375 0,1.1263025 -0.74219,1.6927085 -0.73568,0.559896 -2.22005,0.559896 -0.65755,0 -1.34766,-0.117188 -0.6901,-0.110677 -1.39974,-0.338541 V 9.0371091 q 0.63151,0.3580729 1.28255,0.546875 0.65756,0.1888021 1.26954,0.1888021 0.67057,0 1.01562,-0.1953125 0.34505,-0.1953125 0.34505,-0.5664062 0,-0.3645834 -0.24739,-0.5598958 -0.24089,-0.1953125 -1.15886,-0.4166667 l -0.52734,-0.1171875 q -1.09375,-0.2473958 -1.59505,-0.7747396 -0.5013,-0.5273437 -0.5013,-1.4127603 0,-1.0546875 0.76171,-1.640625 0.76172,-0.5859375 2.14193,-0.5859375 0.61849,0 1.23047,0.1041667 0.61849,0.097656 1.19792,0.2994791 z"
     id="path22430"
     transform="matrix(0.000000,-0.750000,0.750000,0.000000,491.542120,-65.995170)"
     style="font-size:13.33333302px;-inkscape-font-specification:'monospace Bold';fill-opacity:1;font-weight:bold;letter-spacing:0px;line-height:1.25;word-spacing:0px;stroke:none;font-stretch:normal;font-variant:normal;font-family:monospace;font-style:normal;fill:#000000" />
  <path
     d="m -343.5651,10.970703 h -1.92058 V 2.9303385 h -2.46745 V 1.250651 h 6.85547 v 1.6796875 h -2.46744 z"
     id="path22432"
     transform="matrix(0.000000,-0.750000,0.750000,0.000000,491.542120,-65.995170)"
     style="font-size:13.33333302px;-inkscape-font-specification:'monospace Bold';fill-opacity:1;font-weight:bold;letter-spacing:0px;line-height:1.25;word-spacing:0px;stroke:none;font-stretch:normal;font-variant:normal;font-family:monospace;font-style:normal;fill:#000000" />
  <path
     d="m -333.33724,10.61263 q -0.66406,0.273437 -1.35417,0.410156 -0.6901,0.136719 -1.45833,0.136719 -1.82943,0 -2.79948,-0.976563 -0.96354,-0.9830724 -0.96354,-2.8255203 0,-1.7838541 0.93099,-2.8190104 0.93099,-1.0351562 2.53906,-1.0351562 1.6211,0 2.51302,0.9635416 0.89844,0.9570313 0.89844,2.7018229 v 0.7747396 h -4.94141 q 0.007,0.8593749 0.50782,1.282552 0.5013,0.4231771 1.49739,0.4231771 0.65755,0 1.29557,-0.1888021 0.63803,-0.1888021 1.33464,-0.5989583 z m -1.61458,-4.1015625 q -0.013,-0.7552083 -0.39063,-1.1393229 -0.37109,-0.3906249 -1.10026,-0.3906249 -0.65755,0 -1.04818,0.4036458 -0.39062,0.3971354 -0.46224,1.1328124 z"
     id="path22434"
     transform="matrix(0.000000,-0.750000,0.750000,0.000000,491.542120,-65.995170)"
     style="font-size:13.33333302px;-inkscape-font-specification:'monospace Bold';fill-opacity:1;font-weight:bold;letter-spacing:0px;line-height:1.25;word-spacing:0px;stroke:none;font-stretch:normal;font-variant:normal;font-family:monospace;font-style:normal;fill:#000000" />
  <path
     d="m -325.57682,10.599609 q -0.48177,0.279948 -1.03516,0.416667 -0.55338,0.143229 -1.19141,0.143229 -1.68619,0 -2.63671,-1.015625 -0.95053,-1.015625 -0.95053,-2.8125 0,-1.8033854 0.95704,-2.8190103 0.95703,-1.0221354 2.64323,-1.0221354 0.58593,0 1.1263,0.1367187 0.54687,0.1367188 1.08724,0.4231771 v 1.7447916 q -0.41667,-0.3580729 -0.91797,-0.546875 -0.49479,-0.1953125 -1.02865,-0.1953125 -0.93099,0 -1.43229,0.5924479 -0.5013,0.5924479 -0.5013,1.6861979 0,1.09375 0.5013,1.6796875 0.5013,0.5859375 1.43229,0.5859375 0.55339,0 1.03516,-0.1822917 0.48177,-0.1888021 0.91146,-0.5664062 z"
     id="path22436"
     transform="matrix(0.000000,-0.750000,0.750000,0.000000,491.542120,-65.995170)"
     style="font-size:13.33333302px;-inkscape-font-specification:'monospace Bold';fill-opacity:1;font-weight:bold;letter-spacing:0px;line-height:1.25;word-spacing:0px;stroke:none;font-stretch:normal;font-variant:normal;font-family:monospace;font-style:normal;fill:#000000" />
  <path
     d="m -317.48438,6.23763 v 4.733073 h -1.89453 V 6.5305988 q 0,-0.7877604 -0.22786,-1.1263021 -0.22136,-0.3385416 -0.72917,-0.3385416 -0.52083,0 -0.8138,0.4622395 -0.29297,0.4557292 -0.29297,1.2695313 v 4.1731771 h -1.89453 V 0.84049475 h 1.89453 V 4.7727863 q 0.20182,-0.6054687 0.69011,-0.9375 0.48828,-0.3320312 1.17838,-0.3320312 1.03516,0 1.5625,0.6901042 0.52734,0.6835937 0.52734,2.0442707 z"
     id="path22438"
     transform="matrix(0.000000,-0.750000,0.750000,0.000000,491.542120,-65.995170)"
     style="font-size:13.33333302px;-inkscape-font-specification:'monospace Bold';fill-opacity:1;font-weight:bold;letter-spacing:0px;line-height:1.25;word-spacing:0px;stroke:none;font-stretch:normal;font-variant:normal;font-family:monospace;font-style:normal;fill:#000000" />
  <path
     d="m 95.153317,618.48378 q -1.088865,-0.41504 -1.474605,-0.86915 -0.38574,-0.45897 -0.38574,-1.23046 0,-0.99121 0.634763,-1.55762 0.634762,-0.5664 1.743165,-0.5664 0.502927,0 1.005855,0.11718 0.502935,0.11231 0.996097,0.33692 v 1.40625 q -0.463867,-0.32715 -0.942382,-0.49805 -0.478515,-0.1709 -0.947265,-0.1709 -0.522465,0 -0.800783,0.20996 -0.278317,0.20997 -0.278317,0.60059 0,0.30274 0.20019,0.50293 0.20508,0.19531 0.849615,0.43457 l 0.620115,0.23437 q 0.878902,0.32227 1.293945,0.85449 0.415035,0.53223 0.415035,1.34278 0,1.10351 -0.654293,1.65039 -0.649417,0.54199 -1.967775,0.54199 -0.541995,0 -1.088864,-0.13184 -0.541996,-0.12695 -1.049805,-0.38085 v -1.48926 q 0.576172,0.41016 1.113277,0.61035 0.541995,0.20019 1.069335,0.20019 0.53223,0 0.825203,-0.23925 0.292964,-0.24414 0.292964,-0.67872 0,-0.32714 -0.195315,-0.57128 -0.195307,-0.24903 -0.566399,-0.39063 z"
     style="font-size:13.33333302px;font-family:monospace;fill-opacity:1;font-weight:bold;letter-spacing:0px;line-height:1.25;word-spacing:0px;stroke:none;-inkscape-font-specification:'monospace Bold';font-stretch:normal;font-variant:normal;stroke-width:0.75;font-style:normal;fill:#00aeee"
     id="path2297"
     transform="matrix(1.000000,0.000000,0.000000,1.000000,0.000000,0.000000)" />
  <path
     d="m 103.86426,621.4037 q -0.36133,0.20996 -0.77637,0.3125 -0.41504,0.10742 -0.89355,0.10742 -1.26465,0 -1.97754,-0.76172 -0.71289,-0.76172 -0.71289,-2.10937 0,-1.35254 0.71777,-2.11426 0.71777,-0.7666 1.98242,-0.7666 0.43945,0 0.84473,0.10254 0.41015,0.10254 0.81543,0.31738 v 1.30859 q -0.3125,-0.26855 -0.68848,-0.41015 -0.37109,-0.14649 -0.77149,-0.14649 -0.69824,0 -1.07421,0.44434 -0.37598,0.44434 -0.37598,1.26465 0,0.82031 0.37598,1.25977 0.37597,0.43944 1.07421,0.43944 0.41505,0 0.77637,-0.13671 0.36133,-0.1416 0.6836,-0.4248 z"
     style="font-size:13.33333302px;font-family:monospace;fill-opacity:1;font-weight:bold;letter-spacing:0px;line-height:1.25;word-spacing:0px;stroke:none;-inkscape-font-specification:'monospace Bold';font-stretch:normal;font-variant:normal;stroke-width:0.75;font-style:normal;fill:#00aeee"
     id="path2299"
     transform="matrix(1.000000,0.000000,0.000000,1.000000,0.000000,0.000000)" />
  <path
     d="m 109.9336,618.13222 v 3.5498 h -1.42091 v -3.33008 q 0,-0.59082 -0.17089,-0.84472 -0.16602,-0.25391 -0.54688,-0.25391 -0.39062,0 -0.61035,0.34668 -0.21973,0.34179 -0.21973,0.95214 v 3.12989 h -1.4209 v -7.59766 h 1.4209 v 2.94923 q 0.15137,-0.45411 0.51758,-0.70313 0.36621,-0.24903 0.88379,-0.24903 0.77637,0 1.17187,0.51758 0.39552,0.5127 0.39552,1.53321 z"
     style="font-size:13.33333302px;font-family:monospace;fill-opacity:1;font-weight:bold;letter-spacing:0px;line-height:1.25;word-spacing:0px;stroke:none;-inkscape-font-specification:'monospace Bold';font-stretch:normal;font-variant:normal;stroke-width:0.75;font-style:normal;fill:#00aeee"
     id="path2301"
     transform="matrix(1.000000,0.000000,0.000000,1.000000,0.000000,0.000000)" />
  <path
     d="m 114.14258,619.11366 q -0.80078,0 -1.11817,0.20508 -0.31738,0.20508 -0.31738,0.70312 0,0.3711 0.21973,0.59082 0.21972,0.21973 0.5957,0.21973 0.56641,0 0.87891,-0.42481 0.31249,-0.42968 0.31249,-1.19628 v -0.0977 z m 1.99219,-0.55175 v 3.12011 h -1.42091 v -0.61035 q -0.25878,0.36133 -0.66405,0.55664 -0.40528,0.19531 -0.89356,0.19531 -0.93262,0 -1.45508,-0.49316 -0.51758,-0.49317 -0.51758,-1.37696 0,-0.95703 0.62012,-1.41113 0.62012,-0.45899 1.91895,-0.45899 h 0.9912 v -0.23925 q 0,-0.34668 -0.2539,-0.52246 -0.24902,-0.18067 -0.7373,-0.18067 -0.5127,0 -0.9961,0.13184 -0.47852,0.12696 -1.00097,0.41016 v -1.2207 q 0.47363,-0.19532 0.96191,-0.28809 0.48828,-0.0928 1.03516,-0.0928 1.333,0 1.87011,0.542 0.542,0.54199 0.542,1.93848 z"
     style="font-size:13.33333302px;font-family:monospace;fill-opacity:1;font-weight:bold;letter-spacing:0px;line-height:1.25;word-spacing:0px;stroke:none;-inkscape-font-specification:'monospace Bold';font-stretch:normal;font-variant:normal;stroke-width:0.75;font-style:normal;fill:#00aeee"
     id="path2303"
     transform="matrix(1.000000,0.000000,0.000000,1.000000,0.000000,0.000000)" />
  <path
     d="M 118.63477,619.40175 V 615.183 h -1.4502 v -1.09864 h 2.88086 v 5.31739 q 0,0.64453 0.2002,0.91309 0.20019,0.26855 0.67871,0.26855 h 1.14257 v 1.09863 h -1.54297 q -1.02051,0 -1.46484,-0.52734 -0.44433,-0.52735 -0.44433,-1.75293 z"
     style="font-size:13.33333302px;font-family:monospace;fill-opacity:1;font-weight:bold;letter-spacing:0px;line-height:1.25;word-spacing:0px;stroke:none;-inkscape-font-specification:'monospace Bold';font-stretch:normal;font-variant:normal;stroke-width:0.75;font-style:normal;fill:#00aeee"
     id="path2305"
     transform="matrix(1.000000,0.000000,0.000000,1.000000,0.000000,0.000000)" />
  <path
     d="m 126.13477,614.66053 v 1.55274 h 1.87011 v 1.09863 h -1.87011 v 2.58789 q 0,0.36621 0.17577,0.52734 0.18067,0.15626 0.59571,0.15626 h 1.09863 v 1.09863 h -1.20117 q -1.23047,0 -1.66504,-0.39062 -0.43457,-0.39552 -0.43457,-1.45997 v -2.51953 h -1.39648 v -1.09863 h 1.39648 v -1.55274 z"
     style="font-size:13.33333302px;font-family:monospace;fill-opacity:1;font-weight:bold;letter-spacing:0px;line-height:1.25;word-spacing:0px;stroke:none;-inkscape-font-specification:'monospace Bold';font-stretch:normal;font-variant:normal;stroke-width:0.75;font-style:normal;fill:#00aeee"
     id="path2307"
     transform="matrix(1.000000,0.000000,0.000000,1.000000,0.000000,0.000000)" />
  <path
     d="m 134.16699,621.41347 q -0.49805,0.20508 -1.01562,0.30762 -0.51758,0.10253 -1.09376,0.10253 -1.37206,0 -2.09961,-0.73242 -0.72265,-0.7373 -0.72265,-2.11914 0,-1.33789 0.69824,-2.11426 0.69824,-0.77637 1.9043,-0.77637 1.21582,0 1.88477,0.72266 0.67382,0.71778 0.67382,2.02637 v 0.58105 h -3.70605 q 0.005,0.64453 0.38086,0.96192 0.37597,0.31738 1.12305,0.31738 0.49316,0 0.97168,-0.1416 0.47851,-0.14161 1.00097,-0.44922 z m -1.21094,-3.07617 q -0.01,-0.56641 -0.29296,-0.8545 -0.27833,-0.29297 -0.8252,-0.29297 -0.49317,0 -0.78613,0.30273 -0.29297,0.29786 -0.34668,0.84962 z"
     style="font-size:13.33333302px;font-family:monospace;fill-opacity:1;font-weight:bold;letter-spacing:0px;line-height:1.25;word-spacing:0px;stroke:none;-inkscape-font-specification:'monospace Bold';font-stretch:normal;font-variant:normal;stroke-width:0.75;font-style:normal;fill:#00aeee"
     id="path2309"
     transform="matrix(1.000000,0.000000,0.000000,1.000000,0.000000,0.000000)" />
  <path
     d="m 140.42676,617.72206 q -0.23438,-0.21484 -0.55176,-0.32226 -0.3125,-0.10743 -0.68848,-0.10743 -0.4541,0 -0.7959,0.16113 -0.33691,0.15625 -0.52246,0.45899 -0.11718,0.18555 -0.16601,0.44922 -0.0439,0.26367 -0.0439,0.80078 v 2.51953 h -1.43066 v -5.46875 h 1.43066 v 0.84961 q 0.20996,-0.46875 0.64454,-0.72265 0.43456,-0.2588 1.01562,-0.2588 0.29297,0 0.57129,0.0733 0.2832,0.0683 0.53711,0.20508 z"
     style="font-size:13.33333302px;font-family:monospace;fill-opacity:1;font-weight:bold;letter-spacing:0px;line-height:1.25;word-spacing:0px;stroke:none;-inkscape-font-specification:'monospace Bold';font-stretch:normal;font-variant:normal;stroke-width:0.75;font-style:normal;fill:#00aeee"
     id="path2311"
     transform="matrix(1.000000,0.000000,0.000000,1.000000,0.000000,0.000000)" />
  <path
     d="m 141.67675,614.08436 h 1.43067 v 3.98926 l 1.71875,-1.86035 h 1.7334 l -2.07032,2.04102 2.18751,3.42773 h -1.58203 l -1.49903,-2.5586 -0.48828,0.46875 v 2.08985 h -1.43067 z"
     style="font-size:13.33333302px;font-family:monospace;fill-opacity:1;font-weight:bold;letter-spacing:0px;line-height:1.25;word-spacing:0px;stroke:none;-inkscape-font-specification:'monospace Bold';font-stretch:normal;font-variant:normal;stroke-width:0.75;font-style:normal;fill:#00aeee"
     id="path2313"
     transform="matrix(1.000000,0.000000,0.000000,1.000000,0.000000,0.000000)" />
  <path
     d="M 148.73731,619.40175 V 615.183 h -1.4502 v -1.09864 h 2.88086 v 5.31739 q 0,0.64453 0.2002,0.91309 0.20019,0.26855 0.6787,0.26855 h 1.14258 v 1.09863 h -1.54297 q -1.02051,0 -1.46484,-0.52734 -0.44433,-0.52735 -0.44433,-1.75293 z"
     style="font-size:13.33333302px;font-family:monospace;fill-opacity:1;font-weight:bold;letter-spacing:0px;line-height:1.25;word-spacing:0px;stroke:none;-inkscape-font-specification:'monospace Bold';font-stretch:normal;font-variant:normal;stroke-width:0.75;font-style:normal;fill:#00aeee"
     id="path2315"
     transform="matrix(1.000000,0.000000,0.000000,1.000000,0.000000,0.000000)" />
  <path
     d="m 156.28613,619.11366 q -0.80078,0 -1.11816,0.20508 -0.31738,0.20508 -0.31738,0.70312 0,0.3711 0.21972,0.59082 0.21973,0.21973 0.59571,0.21973 0.5664,0 0.8789,-0.42481 0.3125,-0.42968 0.3125,-1.19628 v -0.0977 z m 1.99219,-0.55175 v 3.12011 h -1.4209 v -0.61035 q -0.25879,0.36133 -0.66406,0.55664 -0.40527,0.19531 -0.89355,0.19531 -0.93262,0 -1.45509,-0.49316 -0.51757,-0.49317 -0.51757,-1.37696 0,-0.95703 0.62011,-1.41113 0.62012,-0.45899 1.91895,-0.45899 h 0.99121 v -0.23925 q 0,-0.34668 -0.2539,-0.52246 -0.24903,-0.18067 -0.73731,-0.18067 -0.5127,0 -0.99609,0.13184 -0.47852,0.12696 -1.00098,0.41016 v -1.2207 q 0.47364,-0.19532 0.96192,-0.28809 0.48828,-0.0928 1.03515,-0.0928 1.33301,0 1.87012,0.542 0.54199,0.54199 0.54199,1.93848 z"
     style="font-size:13.33333302px;font-family:monospace;fill-opacity:1;font-weight:bold;letter-spacing:0px;line-height:1.25;word-spacing:0px;stroke:none;-inkscape-font-specification:'monospace Bold';font-stretch:normal;font-variant:normal;stroke-width:0.75;font-style:normal;fill:#00aeee"
     id="path2317"
     transform="matrix(1.000000,0.000000,0.000000,1.000000,0.000000,0.000000)" />
  <path
     d="m 190.08985,621.68202 v -7.29004 h 1.44042 v 6.02051 h 3.08106 v 1.26953 z"
     style="font-size:13.33333302px;font-family:monospace;fill-opacity:1;font-weight:bold;letter-spacing:0px;line-height:1.25;word-spacing:0px;stroke:none;-inkscape-font-specification:'monospace Bold';font-stretch:normal;font-variant:normal;stroke-width:0.75;font-style:normal;fill:#00aeee"
     id="path2327"
     transform="matrix(1.000000,0.000000,0.000000,1.000000,0.000000,0.000000)" />
  <path
     d="m 197.69238,618.4203 h -0.77148 v -1.26953 h 0.77148 q 0.53711,0 0.83008,-0.20996 0.29785,-0.21484 0.29785,-0.60058 0,-0.40528 -0.29785,-0.62989 -0.29297,-0.22949 -0.83008,-0.22949 -0.41015,0 -0.8789,0.10254 -0.46875,0.10254 -0.97168,0.29785 v -1.30859 q 0.50293,-0.15137 0.99121,-0.22949 0.48828,-0.083 0.9375,-0.083 1.15234,0 1.79687,0.50292 0.64453,0.50293 0.64453,1.38672 0,0.64942 -0.37109,1.06446 -0.37109,0.41016 -1.05957,0.53711 0.78125,0.13672 1.19141,0.625 0.41015,0.48339 0.41015,1.27441 0,1.05957 -0.67871,1.61621 -0.67871,0.55664 -1.97265,0.55664 -0.55176,0 -1.08887,-0.0928 -0.53223,-0.0928 -1.02051,-0.26856 v -1.33789 q 0.45899,0.2295 0.99121,0.35157 0.53223,0.11718 1.11817,0.11718 0.58593,0 0.92773,-0.26855 0.3418,-0.27344 0.3418,-0.73243 0,-0.56151 -0.3418,-0.86425 -0.3418,-0.30762 -0.9668,-0.30762 z"
     style="font-size:13.33333302px;font-family:monospace;fill-opacity:1;font-weight:bold;letter-spacing:0px;line-height:1.25;word-spacing:0px;stroke:none;-inkscape-font-specification:'monospace Bold';font-stretch:normal;font-variant:normal;stroke-width:0.75;font-style:normal;fill:#00aeee"
     id="path2329"
     transform="matrix(1.000000,0.000000,0.000000,1.000000,0.000000,0.000000)" />
  <path
     id="path417-2"
     style="clip-rule:evenodd;fill:none;fill-rule:evenodd;stroke:#ec008c;stroke-width:0.997792;stroke-linecap:round;stroke-linejoin:round;stroke-miterlimit:1.5;stroke-dasharray:none;stroke-opacity:1"
     d="M 88.463379 576.76172 L 88.463379 605.05225 L 88.463379 632.60889 L 156.33252 632.60889 L 156.33252 633.3457 L 156.33252 661.63623 L 156.33252 662.37158 L 88.463379 662.37158 L 88.463379 718.21875 L 215.65869 718.21875 L 215.65869 576.76318 L 88.463379 576.76172 z " />
  <path
     id="path561-9-1-7-6-3-6"
     style="clip-rule:evenodd;fill:none;fill-rule:nonzero;stroke:#ea0088;stroke-width:0.997561;stroke-miterlimit:10;stroke-opacity:1"
     d="m 114.13955,601.35347 c -1.56002,0 -2.826,1.26685 -2.826,2.82919 0,1.56335 1.26598,2.8302 2.826,2.8302 1.56002,0 2.82498,-1.26685 2.82498,-2.8302 0,-1.56234 -1.26496,-2.82919 -2.82498,-2.82919" />
  <path
     id="path565-7-5-6-06-5-7"
     style="clip-rule:evenodd;fill:none;fill-rule:nonzero;stroke:#000000;stroke-width:0.673101px;stroke-miterlimit:10;stroke-opacity:1"
     d="m 117.06655,604.18233 h -5.98099" />
  <path
     id="path569-2-4-5-6-2-5"
     style="clip-rule:evenodd;fill:none;fill-rule:nonzero;stroke:#000000;stroke-width:0.673101px;stroke-miterlimit:10;stroke-opacity:1"
     d="m 114.13824,601.22901 v 5.98993" />
  <path
     id="path561-9-1-7-6-3-6-9"
     style="clip-rule:evenodd;fill:none;fill-rule:nonzero;stroke:#ea0088;stroke-width:0.997561;stroke-miterlimit:10;stroke-opacity:1"
     d="m 114.13955,693.62523 c -1.56002,0 -2.826,-1.26685 -2.826,-2.82919 0,-1.56335 1.26598,-2.8302 2.826,-2.8302 1.56002,0 2.82498,1.26685 2.82498,2.8302 0,1.56234 -1.26496,2.82919 -2.82498,2.82919" />
  <path
     id="path565-7-5-6-06-5-7-3"
     style="clip-rule:evenodd;fill:none;fill-rule:nonzero;stroke:#000000;stroke-width:0.673101px;stroke-miterlimit:10;stroke-opacity:1"
     d="m 117.06655,690.79637 h -5.98099" />
  <path
     id="path569-2-4-5-6-2-5-6"
     style="clip-rule:evenodd;fill:none;fill-rule:nonzero;stroke:#000000;stroke-width:0.673101px;stroke-miterlimit:10;stroke-opacity:1"
     d="m 114.13824,693.74969 v -5.98993" />
  <path
     d="m -126.1004,910.68296 q 0.21484,-0.46224 0.54688,-0.68358 0.33203,-0.22136 0.8138,-0.22136 0.94401,0 1.30208,0.65105 0.36459,0.65104 0.36459,2.70833 v 4.10807 h -1.56251 v -4.68099 q 0,-0.8138 -0.12373,-1.08724 -0.12374,-0.27344 -0.44922,-0.27344 -0.32552,0 -0.45573,0.27995 -0.13027,0.27995 -0.13027,1.08073 v 4.68099 h -1.54296 v -4.68099 q 0,-0.80078 -0.13026,-1.08073 -0.13014,-0.27995 -0.45574,-0.27995 -0.32552,0 -0.44921,0.27344 -0.12373,0.27344 -0.12373,1.08724 v 4.68099 h -1.56251 v -7.29167 h 1.38672 v 0.7552 q 0.16276,-0.42968 0.52084,-0.67708 0.35807,-0.2539 0.80077,-0.2539 0.44271,0 0.8073,0.26693 0.36458,0.26041 0.4427,0.63801 z"
     style="clip-rule:evenodd;fill-rule:evenodd;stroke-miterlimit:10;font-style:normal;font-variant:normal;font-weight:bold;font-stretch:normal;font-size:13.3333px;line-height:1.25;font-family:monospace;-inkscape-font-specification:'monospace Bold';letter-spacing:0px;word-spacing:0px;fill:#00aeee;fill-opacity:1;stroke:none;stroke-width:1"
     id="path2319"
     transform="matrix(0.75 0 0 0.75 256.833 -66.2521)" />
  <path
     d="m -118.07305,910.68296 q 0.21484,-0.46224 0.54688,-0.68358 0.33202,-0.22136 0.8138,-0.22136 0.944,0 1.30208,0.65105 0.36458,0.65104 0.36458,2.70833 v 4.10807 h -1.5625 v -4.68099 q 0,-0.8138 -0.12374,-1.08724 -0.12373,-0.27344 -0.44922,-0.27344 -0.32552,0 -0.45572,0.27995 -0.13027,0.27995 -0.13027,1.08073 v 4.68099 h -1.54296 v -4.68099 q 0,-0.80078 -0.13027,-1.08073 -0.13026,-0.27995 -0.45573,-0.27995 -0.32552,0 -0.44921,0.27344 -0.12374,0.27344 -0.12374,1.08724 v 4.68099 h -1.56249 v -7.29167 h 1.38672 v 0.7552 q 0.16276,-0.42968 0.52083,-0.67708 0.35808,-0.2539 0.80078,-0.2539 0.44271,0 0.8073,0.26693 0.36458,0.26041 0.4427,0.63801 z"
     style="clip-rule:evenodd;fill-rule:evenodd;stroke-miterlimit:10;font-style:normal;font-variant:normal;font-weight:bold;font-stretch:normal;font-size:13.3333px;line-height:1.25;font-family:monospace;-inkscape-font-specification:'monospace Bold';letter-spacing:0px;word-spacing:0px;fill:#00aeee;fill-opacity:1;stroke:none;stroke-width:1"
     id="path2321"
     transform="matrix(0.75 0 0 0.75 256.833 -66.2521)" />
  <path
     d="m -107.36341,916.8874 q -0.66407,0.27344 -1.35418,0.41016 -0.6901,0.13671 -1.45833,0.13671 -1.82943,0 -2.79948,-0.97656 -0.96353,-0.98307 -0.96353,-2.82552 0,-1.78385 0.93098,-2.81901 0.93099,-1.03516 2.53906,-1.03516 1.6211,0 2.51302,0.96354 0.89844,0.95704 0.89844,2.70183 v 0.77473 h -4.94141 q 0.007,0.85938 0.50783,1.28256 0.50129,0.42318 1.49738,0.42318 0.65755,0 1.29558,-0.1888 0.63802,-0.18882 1.33464,-0.59896 z m -1.61459,-4.10156 q -0.0133,-0.75521 -0.39063,-1.13933 -0.37109,-0.39063 -1.10026,-0.39063 -0.65755,0 -1.04818,0.40364 -0.39062,0.39715 -0.46224,1.13283 z"
     style="clip-rule:evenodd;fill-rule:evenodd;stroke-miterlimit:10;font-style:normal;font-variant:normal;font-weight:bold;font-stretch:normal;font-size:13.3333px;line-height:1.25;font-family:monospace;-inkscape-font-specification:'monospace Bold';letter-spacing:0px;word-spacing:0px;fill:#00aeee;fill-opacity:1;stroke:none;stroke-width:1"
     id="path2323"
     transform="matrix(0.75 0 0 0.75 256.833 -66.2521)" />
  <path
     d="m -99.017066,911.96552 q -0.312507,-0.28645 -0.735667,-0.42968 -0.416677,-0.14324 -0.917977,-0.14324 -0.60546,0 -1.0612,0.21484 -0.44922,0.20834 -0.69661,0.61199 -0.15625,0.2474 -0.22136,0.59896 -0.0585,0.35156 -0.0585,1.06771 v 3.35937 h -1.90755 v -7.29167 h 1.90755 v 1.13282 q 0.27994,-0.625 0.85937,-0.96354 0.57943,-0.34506 1.35417,-0.34506 0.39062,0 0.761724,0.0977 0.3776,0.0911 0.716133,0.27344 z"
     style="clip-rule:evenodd;fill-rule:evenodd;stroke-miterlimit:10;font-style:normal;font-variant:normal;font-weight:bold;font-stretch:normal;font-size:13.3333px;line-height:1.25;font-family:monospace;-inkscape-font-specification:'monospace Bold';letter-spacing:0px;word-spacing:0px;fill:#00aeee;fill-opacity:1;stroke:none;stroke-width:1"
     id="path2325"
     transform="matrix(0.75 0 0 0.75 256.833 -66.2521)" />
  <path
     id="path561-9-1-7-6-3-6-5-0-9-2"
     style="clip-rule:evenodd;fill-rule:nonzero;stroke-miterlimit:10;fill:none;stroke:#ea0088;stroke-width:0.997561;stroke-opacity:1"
     d="m 171.3392,601.42536 c -1.56002,0 -2.826,1.26685 -2.826,2.82919 0,1.56335 1.26598,2.8302 2.826,2.8302 1.56001,0 2.82498,-1.26685 2.82498,-2.8302 0,-1.56234 -1.26497,-2.82919 -2.82498,-2.82919"
     transform="translate(0.00011, 43.2344)" />
  <path
     id="path565-7-5-6-06-5-7-0-6-3-6"
     style="clip-rule:evenodd;fill-rule:nonzero;stroke-miterlimit:10;fill:none;stroke:#000000;stroke-width:0.673101px;stroke-opacity:1"
     d="m 174.26619,604.25422 h -5.98098"
     transform="translate(0.00011, 43.2344)" />
  <path
     id="path569-2-4-5-6-2-5-3-1-7-1"
     style="clip-rule:evenodd;fill-rule:nonzero;stroke-miterlimit:10;fill:none;stroke:#000000;stroke-width:0.673101px;stroke-opacity:1"
     d="m 171.33789,601.3009 v 5.98993"
     transform="translate(0.00011, 43.2344)" />
  <path
     id="path561-9-1-7-6-3-6-5-0-9-4"
     style="clip-rule:evenodd;fill-rule:nonzero;stroke-miterlimit:10;fill:none;stroke:#ea0088;stroke-width:1.33008;stroke-opacity:1"
     d="m -114.22312,890.13704 c -2.08003,0 -3.768,1.68913 -3.768,3.77225 0,2.08447 1.68797,3.7736 3.768,3.7736 2.08001,0 3.76664,-1.68913 3.76664,-3.7736 0,-2.08312 -1.68663,-3.77225 -3.76664,-3.77225"
     transform="matrix(0.75 0 0 0.75 256.833 -66.2521)" />
  <path
     id="path565-7-5-6-06-5-7-0-6-3-8"
     style="clip-rule:evenodd;fill-rule:nonzero;stroke-miterlimit:10;fill:none;stroke:#000000;stroke-width:0.897468px;stroke-opacity:1"
     d="m -110.32047,893.90885 h -7.97464"
     transform="matrix(0.75 0 0 0.75 256.833 -66.2521)" />
  <path
     id="path569-2-4-5-6-2-5-3-1-7-7"
     style="clip-rule:evenodd;fill-rule:nonzero;stroke-miterlimit:10;fill:none;stroke:#000000;stroke-width:0.897468px;stroke-opacity:1"
     d="m -114.22487,889.97109 v 7.98658"
     transform="matrix(0.75 0 0 0.75 256.833 -66.2521)" />
  <path
     id="path561-9-1-7-6-3-6-6-1-5-5-7"
     style="clip-rule:evenodd;fill-rule:nonzero;stroke-miterlimit:10;fill:none;stroke:#ea0088;stroke-width:1.33008;stroke-opacity:1"
     d="m -114.22312,1005.6202 c -2.08003,0 -3.768,1.6891 -3.768,3.7722 0,2.0845 1.68797,3.7736 3.768,3.7736 2.08001,0 3.76664,-1.6891 3.76664,-3.7736 0,-2.0831 -1.68663,-3.7722 -3.76664,-3.7722"
     transform="matrix(0.75 0 0 0.75 256.833 -66.2521)" />
  <path
     id="path565-7-5-6-06-5-7-7-0-4-2-2"
     style="clip-rule:evenodd;fill-rule:nonzero;stroke-miterlimit:10;fill:none;stroke:#000000;stroke-width:0.897468px;stroke-opacity:1"
     d="m -110.32047,1009.392 h -7.97464"
     transform="matrix(0.75 0 0 0.75 256.833 -66.2521)" />
  <path
     id="path569-2-4-5-6-2-5-5-6-7-5-7"
     style="clip-rule:evenodd;fill-rule:nonzero;stroke-miterlimit:10;fill:none;stroke:#000000;stroke-width:0.897468px;stroke-opacity:1"
     d="m -114.22487,1005.4542 v 7.9866"
     transform="matrix(0.75 0 0 0.75 256.833 -66.2521)" />
  <g
     id="g2"
     transform="rotate(90,433.60723,347.14723)">
    <rect
       y="-718.40826"
       x="-384.60001"
       height="220.54715"
       width="296.60986"
       id="rect15663-3"
       style="clip-rule:evenodd;display:inline;vector-effect:none;fill:none;fill-opacity:1;fill-rule:evenodd;stroke:#ec008c;stroke-width:0.983622;stroke-linecap:square;stroke-linejoin:miter;stroke-miterlimit:4;stroke-dasharray:none;stroke-dashoffset:0;stroke-opacity:1"
       transform="matrix(1,0,0,-1,594.708,0)" />
    <path
       d="m 106.02193,649.52388 c 0,1.56062 1.26669,2.82705 2.82884,2.82705 1.56314,0 2.82982,-1.26643 2.82982,-2.82705 0,-1.56063 -1.26668,-2.82607 -2.82982,-2.82607 -1.56215,0 -2.82884,1.26544 -2.82884,2.82607"
       style="clip-rule:evenodd;display:inline;fill:none;fill-rule:nonzero;stroke:#bbae00;stroke-width:0.997689;stroke-miterlimit:10;stroke-opacity:1"
       id="path561-9-1-31-3-6-3"
       transform="matrix(-1,0,0,1,594.708,0)" />
    <path
       d="m 108.8507,646.59568 v 5.98331"
       style="clip-rule:evenodd;display:inline;fill:none;fill-rule:nonzero;stroke:#000000;stroke-width:0.673187px;stroke-miterlimit:10;stroke-opacity:1"
       id="path565-7-5-9-2-56-6"
       transform="matrix(-1,0,0,1,594.708,0)" />
    <path
       d="m 105.89768,649.52502 h 5.98917"
       style="clip-rule:evenodd;display:inline;fill:none;fill-rule:nonzero;stroke:#000000;stroke-width:0.673188px;stroke-miterlimit:10;stroke-opacity:1"
       id="path569-2-4-47-0-9-7"
       transform="matrix(-1,0,0,1,594.708,0)" />
    <path
       d="m 106.02193,577.47613 c 0,1.56062 1.26669,2.82706 2.82884,2.82706 1.56314,0 2.82982,-1.26644 2.82982,-2.82706 0,-1.56062 -1.26668,-2.82607 -2.82982,-2.82607 -1.56215,0 -2.82884,1.26545 -2.82884,2.82607"
       style="clip-rule:evenodd;display:inline;fill:none;fill-rule:nonzero;stroke:#bbae00;stroke-width:0.997689;stroke-miterlimit:10;stroke-opacity:1"
       id="path561-9-1-31-3-1-7-5"
       transform="matrix(-1,0,0,1,594.708,0)" />
    <path
       d="m 108.8507,574.54794 v 5.9833"
       style="clip-rule:evenodd;display:inline;fill:none;fill-rule:nonzero;stroke:#000000;stroke-width:0.673187px;stroke-miterlimit:10;stroke-opacity:1"
       id="path565-7-5-9-2-5-4-3"
       transform="matrix(-1,0,0,1,594.708,0)" />
    <path
       d="m 105.89768,577.47727 h 5.98917"
       style="clip-rule:evenodd;display:inline;fill:none;fill-rule:nonzero;stroke:#000000;stroke-width:0.673188px;stroke-miterlimit:10;stroke-opacity:1"
       id="path569-2-4-47-0-5-5-5"
       transform="matrix(-1,0,0,1,594.708,0)" />
    <path
       d="m 360.90958,649.52389 c 0,1.56062 1.26669,2.82705 2.82884,2.82705 1.56314,0 2.82982,-1.26643 2.82982,-2.82705 0,-1.56063 -1.26668,-2.82607 -2.82982,-2.82607 -1.56215,0 -2.82884,1.26544 -2.82884,2.82607"
       style="clip-rule:evenodd;display:inline;fill:none;fill-rule:nonzero;stroke:#bbae00;stroke-width:0.997689;stroke-miterlimit:10;stroke-opacity:1"
       id="path561-9-1-31-3-6-3-2"
       transform="matrix(-1,0,0,1,594.708,0)" />
    <path
       d="M 363.73835,646.59569 V 652.579"
       style="clip-rule:evenodd;display:inline;fill:none;fill-rule:nonzero;stroke:#000000;stroke-width:0.673187px;stroke-miterlimit:10;stroke-opacity:1"
       id="path565-7-5-9-2-56-6-9"
       transform="matrix(-1,0,0,1,594.708,0)" />
    <path
       d="m 360.78533,649.52503 h 5.98917"
       style="clip-rule:evenodd;display:inline;fill:none;fill-rule:nonzero;stroke:#000000;stroke-width:0.673188px;stroke-miterlimit:10;stroke-opacity:1"
       id="path569-2-4-47-0-9-7-1"
       transform="matrix(-1,0,0,1,594.708,0)" />
    <path
       d="m 360.90958,577.47614 c 0,1.56062 1.26669,2.82706 2.82884,2.82706 1.56314,0 2.82982,-1.26644 2.82982,-2.82706 0,-1.56062 -1.26668,-2.82607 -2.82982,-2.82607 -1.56215,0 -2.82884,1.26545 -2.82884,2.82607"
       style="clip-rule:evenodd;display:inline;fill:none;fill-rule:nonzero;stroke:#bbae00;stroke-width:0.997689;stroke-miterlimit:10;stroke-opacity:1"
       id="path561-9-1-31-3-1-7-5-2"
       transform="matrix(-1,0,0,1,594.708,0)" />
    <path
       d="m 363.73835,574.54795 v 5.9833"
       style="clip-rule:evenodd;display:inline;fill:none;fill-rule:nonzero;stroke:#000000;stroke-width:0.673187px;stroke-miterlimit:10;stroke-opacity:1"
       id="path565-7-5-9-2-5-4-3-7"
       transform="matrix(-1,0,0,1,594.708,0)" />
    <path
       d="m 360.78533,577.47728 h 5.98917"
       style="clip-rule:evenodd;display:inline;fill:none;fill-rule:nonzero;stroke:#000000;stroke-width:0.673188px;stroke-miterlimit:10;stroke-opacity:1"
       id="path569-2-4-47-0-5-5-5-0"
       transform="matrix(-1,0,0,1,594.708,0)" />
    <path
       style="font-style:normal;font-variant:normal;font-weight:bold;font-stretch:normal;font-size:13.3333px;line-height:1.25;font-family:monospace;-inkscape-font-specification:'monospace Bold';letter-spacing:0px;word-spacing:0px;display:inline;fill:#00aeee;fill-opacity:1;stroke:none;stroke-width:0.748279"
       id="path15166"
       d="m 235.77286,670.43159 v -1.43782 h 2.77059 v -1.7985 h -2.77059 v -1.43784 h 7.26975 v 1.43784 h -3.23316 v 1.7985 h 3.23316 v 1.43782 z" />
    <path
       style="font-style:normal;font-variant:normal;font-weight:bold;font-stretch:normal;font-size:13.3333px;line-height:1.25;font-family:monospace;-inkscape-font-specification:'monospace Bold';letter-spacing:0px;word-spacing:0px;display:inline;fill:#00aeee;fill-opacity:1;stroke:none;stroke-width:0.748279"
       id="path15168"
       d="m 235.44175,661.69741 v -1.15027 h 1.19783 v 1.15027 z m 0,1.92522 v -1.15026 h 1.19783 v 1.15026 z m 3.17474,-1.53531 q 0,0.51177 0.45283,0.80421 0.44797,0.29244 1.25139,0.29244 0.80343,0 1.25626,-0.29244 0.44798,-0.29244 0.44798,-0.80421 0,-0.51665 -0.44798,-0.80908 -0.45283,-0.29244 -1.25626,-0.29244 -0.80342,0 -1.25139,0.29244 -0.45283,0.29243 -0.45283,0.80908 z m 1.70422,2.52473 q -1.31955,0 -2.0889,-0.68236 -0.7742,-0.68723 -0.7742,-1.84237 0,-1.16001 0.7742,-1.84237 0.76935,-0.68723 2.0889,-0.68723 1.31957,0 2.09377,0.68723 0.76934,0.68236 0.76934,1.84237 0,1.15514 -0.76934,1.84237 -0.7742,0.68236 -2.09377,0.68236 z" />
    <path
       style="font-style:normal;font-variant:normal;font-weight:bold;font-stretch:normal;font-size:13.3333px;line-height:1.25;font-family:monospace;-inkscape-font-specification:'monospace Bold';letter-spacing:0px;word-spacing:0px;display:inline;fill:#00aeee;fill-opacity:1;stroke:none;stroke-width:0.748279"
       id="path15170"
       d="m 239.09367,653.4701 q -0.21425,0.23396 -0.32137,0.55076 -0.10712,0.31194 -0.10712,0.68724 0,0.45328 0.16068,0.79446 0.15582,0.3363 0.45771,0.52152 0.18503,0.11697 0.44797,0.16571 0.26293,0.0439 0.79855,0.0439 h 2.51252 v 1.42809 h -5.45353 v -1.42809 h 0.84724 q -0.46744,-0.20958 -0.72064,-0.64336 -0.25807,-0.43379 -0.25807,-1.01379 0,-0.29244 0.073,-0.57026 0.0682,-0.28269 0.20451,-0.53614 z" />
    <path
       style="font-style:normal;font-variant:normal;font-weight:bold;font-stretch:normal;font-size:13.3333px;line-height:1.25;font-family:monospace;-inkscape-font-specification:'monospace Bold';letter-spacing:0px;word-spacing:0px;display:inline;fill:#00aeee;fill-opacity:1;stroke:none;stroke-width:0.748279"
       id="path15172"
       d="m 242.7748,647.6993 q 0.20451,0.49715 0.30676,1.01379 0.10226,0.51665 0.10226,1.09178 0,1.36959 -0.73039,2.09581 -0.73525,0.72135 -2.11325,0.72135 -1.33416,0 -2.10837,-0.69698 -0.7742,-0.69698 -0.7742,-1.90085 0,-1.21363 0.72065,-1.88136 0.71577,-0.67262 2.02072,-0.67262 h 0.57944 v 3.69937 q 0.64274,-0.005 0.95923,-0.38018 0.31651,-0.3753 0.31651,-1.12101 0,-0.49228 -0.14121,-0.96993 -0.1412,-0.47766 -0.44797,-0.99917 z m -3.06761,1.20875 q -0.56483,0.01 -0.85211,0.29244 -0.29216,0.27782 -0.29216,0.82371 0,0.49227 0.30189,0.78471 0.29703,0.29244 0.84725,0.34605 z" />
    <path
       style="font-style:normal;font-variant:normal;font-weight:bold;font-stretch:normal;font-size:13.3333px;line-height:1.25;font-family:monospace;-inkscape-font-specification:'monospace Bold';letter-spacing:0px;word-spacing:0px;display:inline;fill:#00aeee;fill-opacity:1;stroke:none;stroke-width:0.748279"
       id="path15174"
       d="m 239.09367,641.45084 q -0.21425,0.23395 -0.32137,0.55076 -0.10712,0.31194 -0.10712,0.68724 0,0.45328 0.16068,0.79446 0.15582,0.3363 0.45771,0.52152 0.18503,0.11697 0.44797,0.16572 0.26293,0.0439 0.79855,0.0439 h 2.51252 v 1.42808 h -5.45353 v -1.42808 h 0.84724 q -0.46744,-0.20958 -0.72064,-0.64336 -0.25807,-0.43379 -0.25807,-1.01379 0,-0.29245 0.073,-0.57026 0.0682,-0.28269 0.20451,-0.53614 z" />
    <path
       style="font-style:normal;font-variant:normal;font-weight:bold;font-stretch:normal;font-size:13.3333px;line-height:1.25;font-family:monospace;-inkscape-font-specification:'monospace Bold';letter-spacing:0px;word-spacing:0px;display:inline;fill:#00aeee;fill-opacity:1;stroke:none;stroke-width:0.748279"
       id="path15176"
       d="m 240.4814,637.63939 q 0,0.79933 0.2045,1.11613 0.20451,0.31682 0.70117,0.31682 0.37007,0 0.58918,-0.21933 0.21911,-0.21933 0.21911,-0.59463 0,-0.56538 -0.42361,-0.87732 -0.4285,-0.31194 -1.19297,-0.31194 h -0.0974 z m -0.55022,-1.98859 h 3.11143 v 1.41832 h -0.60866 q 0.36032,0.25833 0.5551,0.66287 0.19477,0.40454 0.19477,0.89194 0,0.93093 -0.49179,1.45245 -0.4918,0.51664 -1.37313,0.51664 -0.95436,0 -1.4072,-0.619 -0.45771,-0.61899 -0.45771,-1.91547 v -0.98943 h -0.23859 q -0.34571,0 -0.52101,0.25345 -0.18016,0.24857 -0.18016,0.73598 0,0.51177 0.13147,0.99429 0.1266,0.47765 0.40901,0.99916 h -1.2173 q -0.19477,-0.47277 -0.28729,-0.96017 -0.0925,-0.4874 -0.0925,-1.03328 0,-1.3306 0.54048,-1.86675 0.54049,-0.541 1.93309,-0.541 z" />
    <path
       style="font-style:normal;font-variant:normal;font-weight:bold;font-stretch:normal;font-size:13.3333px;line-height:1.25;font-family:monospace;-inkscape-font-specification:'monospace Bold';letter-spacing:0px;word-spacing:0px;display:inline;fill:#00aeee;fill-opacity:1;stroke:none;stroke-width:0.748279"
       id="path15178"
       d="m 241.13874,634.26171 h -3.54966 v -1.42808 h 3.33055 q 0.58917,0 0.84237,-0.16572 0.2532,-0.16572 0.2532,-0.55076 0,-0.38505 -0.34084,-0.5995 -0.34085,-0.21933 -0.95437,-0.21933 h -3.13091 v -1.42808 h 5.45353 v 1.42808 h -0.80829 q 0.45283,0.1511 0.70117,0.51664 0.24833,0.36068 0.24833,0.87245 0,0.77984 -0.51615,1.17951 -0.51612,0.39479 -1.52893,0.39479 z" />
    <path
       style="font-style:normal;font-variant:normal;font-weight:bold;font-stretch:normal;font-size:13.3333px;line-height:1.25;font-family:monospace;-inkscape-font-specification:'monospace Bold';letter-spacing:0px;word-spacing:0px;display:inline;fill:#00aeee;fill-opacity:1;stroke:none;stroke-width:0.748279"
       id="path15180"
       d="m 237.1119,625.43003 h 0.47718 v -1.67665 h 1.09557 v 1.67665 h 4.35796 v 1.42808 h -4.35796 v 1.32573 h -1.09557 v -1.32573 h -0.3798 q -0.98359,0 -1.36338,-0.40941 -0.3798,-0.40941 -0.3798,-1.52069 v -1.17463 h 1.09557 v 1.11615 q 0,0.32168 0.11686,0.43866 0.11686,0.11209 0.43337,0.12184 z" />
    <path
       style="font-style:normal;font-variant:normal;font-weight:bold;font-stretch:normal;font-size:13.3333px;line-height:1.25;font-family:monospace;-inkscape-font-specification:'monospace Bold';letter-spacing:0px;word-spacing:0px;display:inline;fill:#00aeee;fill-opacity:1;stroke:none;stroke-width:0.748279"
       id="path15182"
       d="m 240.76868,621.13605 h -4.20701 v 1.44757 h -1.09557 v -2.87565 h 5.30258 q 0.64274,0 0.91055,-0.19983 0.26781,-0.19984 0.26781,-0.67749 v -1.14051 h 1.09557 v 1.54017 q 0,1.01867 -0.52587,1.4622 -0.52588,0.44354 -1.74806,0.44354 z" />
    <path
       style="font-style:normal;font-variant:normal;font-weight:bold;font-stretch:normal;font-size:13.3333px;line-height:1.25;font-family:monospace;-inkscape-font-specification:'monospace Bold';letter-spacing:0px;word-spacing:0px;display:inline;fill:#00aeee;fill-opacity:1;stroke:none;stroke-width:0.748279"
       id="path15184"
       d="m 240.4814,613.60086 q 0,0.79933 0.2045,1.11614 0.20451,0.31682 0.70117,0.31682 0.37007,0 0.58918,-0.21933 0.21911,-0.21933 0.21911,-0.59463 0,-0.56538 -0.42361,-0.87732 -0.4285,-0.31194 -1.19297,-0.31194 h -0.0974 z m -0.55022,-1.98859 h 3.11143 v 1.41833 h -0.60866 q 0.36032,0.25833 0.5551,0.66286 0.19477,0.40455 0.19477,0.89195 0,0.93093 -0.49179,1.45245 -0.4918,0.51664 -1.37313,0.51664 -0.95436,0 -1.4072,-0.619 -0.45771,-0.61899 -0.45771,-1.91547 v -0.98943 h -0.23859 q -0.34571,0 -0.52101,0.25345 -0.18016,0.24857 -0.18016,0.73598 0,0.51176 0.13147,0.99429 0.1266,0.47765 0.40901,0.99917 h -1.2173 q -0.19477,-0.47278 -0.28729,-0.96018 -0.0925,-0.4874 -0.0925,-1.03328 0,-1.3306 0.54048,-1.86675 0.54049,-0.54101 1.93309,-0.54101 z" />
    <path
       style="font-style:normal;font-variant:normal;font-weight:bold;font-stretch:normal;font-size:13.3333px;line-height:1.25;font-family:monospace;-inkscape-font-specification:'monospace Bold';letter-spacing:0px;word-spacing:0px;display:inline;fill:#00aeee;fill-opacity:1;stroke:none;stroke-width:0.748279"
       id="path15186"
       d="m 240.22819,607.08921 q -0.73038,0 -1.16861,0.27781 -0.44309,0.27782 -0.44309,0.7311 0,0.44841 0.43822,0.72624 0.43824,0.27294 1.17348,0.27294 0.74013,0 1.17837,-0.27294 0.43822,-0.27783 0.43822,-0.72624 0,-0.45328 -0.43822,-0.7311 -0.4431,-0.27781 -1.17837,-0.27781 z m 2.4054,-1.42808 q 1.30983,0 1.88926,0.59463 0.58431,0.58975 0.58431,1.92035 0,0.44841 -0.0681,0.88707 -0.0633,0.43865 -0.19964,0.89194 h -1.30982 q 0.22398,-0.40455 0.33111,-0.82371 0.10712,-0.41916 0.10712,-0.86269 0,-0.60438 -0.28728,-0.89195 -0.28241,-0.28756 -0.88621,-0.28756 h -0.58917 q 0.38954,0.20958 0.57944,0.55563 0.1899,0.34606 0.1899,0.84321 0,0.9358 -0.73038,1.48656 -0.73039,0.55076 -1.98178,0.55076 -1.29521,0 -2.05481,-0.55076 -0.7596,-0.55076 -0.7596,-1.47682 0,-0.4679 0.21912,-0.83345 0.2191,-0.36555 0.61839,-0.57513 h -0.6963 v -1.42808 z" />
    <path
       style="font-style:normal;font-variant:normal;font-weight:bold;font-stretch:normal;font-size:13.3333px;line-height:1.25;font-family:monospace;-inkscape-font-specification:'monospace Bold';letter-spacing:0px;word-spacing:0px;display:inline;fill:#00aeee;fill-opacity:1;stroke:none;stroke-width:0.748279"
       id="path15188"
       d="m 242.7748,599.62225 q 0.20451,0.49715 0.30676,1.0138 0.10226,0.51664 0.10226,1.09177 0,1.3696 -0.73039,2.09581 -0.73525,0.72135 -2.11325,0.72135 -1.33416,0 -2.10837,-0.69698 -0.7742,-0.69697 -0.7742,-1.90085 0,-1.21363 0.72065,-1.88136 0.71577,-0.67262 2.02072,-0.67262 h 0.57944 v 3.69937 q 0.64274,-0.005 0.95923,-0.38018 0.31651,-0.37529 0.31651,-1.12101 0,-0.49228 -0.14121,-0.96993 -0.1412,-0.47765 -0.44797,-0.99917 z m -3.06761,1.20876 q -0.56483,0.01 -0.85211,0.29244 -0.29216,0.27781 -0.29216,0.8237 0,0.49227 0.30189,0.78471 0.29703,0.29244 0.84725,0.34605 z" />
    <path
       style="font-style:normal;font-variant:normal;font-weight:bold;font-stretch:normal;font-size:13.3333px;line-height:1.25;font-family:monospace;-inkscape-font-specification:'monospace Bold';letter-spacing:0px;word-spacing:0px;display:inline;fill:#00aeee;fill-opacity:1;stroke:none;stroke-width:0.748279"
       id="path15190"
       d="m 243.04261,591.87748 h -7.26975 v -1.43783 h 6.00375 v -3.07549 h 1.266 z" />
    <path
       style="font-style:normal;font-variant:normal;font-weight:bold;font-stretch:normal;font-size:13.3333px;line-height:1.25;font-family:monospace;-inkscape-font-specification:'monospace Bold';letter-spacing:0px;word-spacing:0px;display:inline;fill:#00aeee;fill-opacity:1;stroke:none;stroke-width:0.748279"
       id="path15192"
       d="m 240.4814,583.5527 q 0,0.79934 0.2045,1.11615 0.20451,0.31681 0.70117,0.31681 0.37007,0 0.58918,-0.21933 0.21911,-0.21933 0.21911,-0.59462 0,-0.56539 -0.42361,-0.87732 -0.4285,-0.31194 -1.19297,-0.31194 h -0.0974 z m -0.55022,-1.98859 h 3.11143 v 1.41834 h -0.60866 q 0.36032,0.25832 0.5551,0.66286 0.19477,0.40454 0.19477,0.89195 0,0.93093 -0.49179,1.45244 -0.4918,0.51664 -1.37313,0.51664 -0.95436,0 -1.4072,-0.61899 -0.45771,-0.619 -0.45771,-1.91548 v -0.98942 h -0.23859 q -0.34571,0 -0.52101,0.25345 -0.18016,0.24857 -0.18016,0.73597 0,0.51177 0.13147,0.9943 0.1266,0.47765 0.40901,0.99916 h -1.2173 q -0.19477,-0.47278 -0.28729,-0.96017 -0.0925,-0.4874 -0.0925,-1.03329 0,-1.3306 0.54048,-1.86674 0.54049,-0.54102 1.93309,-0.54102 z" />
    <path
       style="font-style:normal;font-variant:normal;font-weight:bold;font-stretch:normal;font-size:13.3333px;line-height:1.25;font-family:monospace;-inkscape-font-specification:'monospace Bold';letter-spacing:0px;word-spacing:0px;display:inline;fill:#00aeee;fill-opacity:1;stroke:none;stroke-width:0.748279"
       id="path15194"
       d="m 243.63179,577.48946 q 0.76934,0.28757 1.11992,0.69211 0.35545,0.39967 0.35545,0.9748 v 1.1795 h -1.08583 v -0.58001 q 0,-0.43866 -0.15095,-0.64335 -0.14608,-0.20472 -0.68656,-0.4143 l -0.29216,-0.10722 -5.30258,2.07632 v -1.50119 l 3.53992,-1.24775 -3.53992,-1.19413 v -1.50119 z" />
    <path
       style="font-style:normal;font-variant:normal;font-weight:bold;font-stretch:normal;font-size:13.3333px;line-height:1.25;font-family:monospace;-inkscape-font-specification:'monospace Bold';letter-spacing:0px;word-spacing:0px;display:inline;fill:#00aeee;fill-opacity:1;stroke:none;stroke-width:0.748279"
       id="path15196"
       d="m 242.7748,569.5741 q 0.20451,0.49715 0.30676,1.01379 0.10226,0.51664 0.10226,1.09177 0,1.3696 -0.73039,2.09582 -0.73525,0.72135 -2.11325,0.72135 -1.33416,0 -2.10837,-0.69698 -0.7742,-0.69698 -0.7742,-1.90085 0,-1.21364 0.72065,-1.88136 0.71577,-0.67262 2.02072,-0.67262 h 0.57944 v 3.69936 q 0.64274,-0.005 0.95923,-0.38017 0.31651,-0.3753 0.31651,-1.12102 0,-0.49227 -0.14121,-0.96992 -0.1412,-0.47765 -0.44797,-0.99917 z m -3.06761,1.20875 q -0.56483,0.01 -0.85211,0.29244 -0.29216,0.27781 -0.29216,0.82371 0,0.49227 0.30189,0.78471 0.29703,0.29244 0.84725,0.34606 z" />
    <path
       style="font-style:normal;font-variant:normal;font-weight:bold;font-stretch:normal;font-size:13.3333px;line-height:1.25;font-family:monospace;-inkscape-font-specification:'monospace Bold';letter-spacing:0px;word-spacing:0px;display:inline;fill:#00aeee;fill-opacity:1;stroke:none;stroke-width:0.748279"
       id="path15198"
       d="m 239.09367,563.32565 q -0.21425,0.23395 -0.32137,0.55075 -0.10712,0.31194 -0.10712,0.68724 0,0.45328 0.16068,0.79446 0.15582,0.33631 0.45771,0.52151 0.18503,0.11698 0.44797,0.16572 0.26293,0.0439 0.79855,0.0439 h 2.51252 v 1.42808 h -5.45353 v -1.42808 h 0.84724 q -0.46744,-0.20958 -0.72064,-0.64336 -0.25807,-0.43379 -0.25807,-1.01379 0,-0.29244 0.073,-0.57026 0.0682,-0.28269 0.20451,-0.53614 z" />
    <path
       style="font-style:normal;font-variant:normal;font-weight:bold;font-stretch:normal;font-size:13.3333px;line-height:1.25;font-family:monospace;-inkscape-font-specification:'monospace Bold';letter-spacing:0px;word-spacing:0px;display:inline;fill:#00aeee;fill-opacity:1;stroke:none;stroke-width:0.748279"
       id="path15200"
       d="m 239.78997,554.24053 v 0.77008 h -1.266 v -0.77008 q 0,-0.53615 -0.20938,-0.82858 -0.21424,-0.29732 -0.59891,-0.29732 -0.40415,0 -0.62813,0.29732 -0.22885,0.29243 -0.22885,0.82858 0,0.40941 0.10225,0.87731 0.10225,0.4679 0.29702,0.96993 h -1.30495 q -0.15094,-0.50203 -0.22885,-0.98942 -0.0828,-0.4874 -0.0828,-0.93581 0,-1.15026 0.50153,-1.79363 0.50153,-0.64337 1.38286,-0.64337 0.64761,0 1.06149,0.37043 0.40901,0.37042 0.53561,1.05766 0.13634,-0.77984 0.62326,-1.18926 0.48205,-0.40941 1.27087,-0.40941 1.05662,0 1.61172,0.67748 0.55509,0.67749 0.55509,1.9691 0,0.55075 -0.0925,1.08689 -0.0925,0.53127 -0.26781,1.01867 h -1.33416 q 0.22885,-0.45816 0.35058,-0.98942 0.11686,-0.53127 0.11686,-1.11614 0,-0.58488 -0.2678,-0.92606 -0.27268,-0.34118 -0.73039,-0.34118 -0.55996,0 -0.86185,0.34118 -0.30676,0.34118 -0.30676,0.96505 z" />
  </g>
  <path
     id="path42"
     d="M 88.075321,718.7177 H 506.60491 V 124.44008 H 88.075321 Z m 0,0"
     style="fill:none;stroke:#00ec13;stroke-width:0.997974;stroke-linecap:butt;stroke-linejoin:miter;stroke-miterlimit:1.5;stroke-opacity:1" />
  <path
     inkscape:connector-curvature="0"
     id="path856-8"
     style="font-style:normal;font-variant:normal;font-weight:bold;font-stretch:normal;font-size:13.3333px;line-height:125%;font-family:monospace;-inkscape-font-specification:'monospace Bold';letter-spacing:0px;word-spacing:0px;fill:#ffcc00;fill-opacity:1;stroke:none;stroke-width:0.749999px;stroke-linecap:butt;stroke-linejoin:miter;stroke-opacity:1"
     d="m 174.45313,658.96095 v 2.13867 h 0.59083 q 0.708,0 0.99121,-0.23927 0.28808,-0.23925 0.28808,-0.83008 0,-0.59082 -0.28808,-0.83008 -0.28321,-0.23927 -0.99121,-0.23927 z m -1.44042,-1.21094 h 1.97754 q 1.50878,0 2.16796,0.53711 0.66406,0.53711 0.66406,1.74316 0,1.20606 -0.66406,1.74317 -0.65918,0.53711 -2.16796,0.53711 h -0.53712 v 2.72948 h -1.44042 z" />
  <path
     inkscape:connector-curvature="0"
     id="path858-8"
     style="font-style:normal;font-variant:normal;font-weight:bold;font-stretch:normal;font-size:13.3333px;line-height:125%;font-family:monospace;-inkscape-font-specification:'monospace Bold';letter-spacing:0px;word-spacing:0px;fill:#ffcc00;fill-opacity:1;stroke:none;stroke-width:0.749999px;stroke-linecap:butt;stroke-linejoin:miter;stroke-opacity:1"
     d="m 181.63087,659.35157 -1.84082,2.88086 h 1.84082 z m -0.12696,-1.60156 h 1.50879 v 4.48242 h 0.80078 v 1.23535 h -0.80078 v 1.57226 h -1.38184 v -1.57226 h -2.89062 v -1.39648 z" />
  <path
     inkscape:connector-curvature="0"
     id="path860-86"
     style="font-style:normal;font-variant:normal;font-weight:bold;font-stretch:normal;font-size:13.3333px;line-height:125%;font-family:monospace;-inkscape-font-specification:'monospace Bold';letter-spacing:0px;word-spacing:0px;fill:#ffcc00;fill-opacity:1;stroke:none;stroke-width:0.749999px;stroke-linecap:butt;stroke-linejoin:miter;stroke-opacity:1"
     d="m 175.2295,676.33888 1.28418,-6.08887 h 1.4502 l -1.7334,7.29005 h -1.99707 l -1.7334,-7.29005 h 1.4502 z" />
  <path
     inkscape:connector-curvature="0"
     id="path862-8"
     style="font-style:normal;font-variant:normal;font-weight:bold;font-stretch:normal;font-size:13.3333px;line-height:125%;font-family:monospace;-inkscape-font-specification:'monospace Bold';letter-spacing:0px;word-spacing:0px;fill:#ffcc00;fill-opacity:1;stroke:none;stroke-width:0.749999px;stroke-linecap:butt;stroke-linejoin:miter;stroke-opacity:1"
     d="m 179.16017,676.27052 h 1.61132 v -4.73145 l -1.49902,0.3711 v -1.29883 l 1.50879,-0.36133 h 1.3916 v 6.02051 h 1.61133 v 1.26954 h -4.62402 z" />
  <path
     inkscape:connector-curvature="0"
     id="path856-8-7"
     style="font-style:normal;font-variant:normal;font-weight:bold;font-stretch:normal;font-size:13.3333px;line-height:125%;font-family:monospace;-inkscape-font-specification:'monospace Bold';letter-spacing:0px;word-spacing:0px;fill:#ffcc00;fill-opacity:1;stroke:none;stroke-width:0.749999px;stroke-linecap:butt;stroke-linejoin:miter;stroke-opacity:1"
     d="m 370.95313,625.21095 v 2.13867 h 0.59083 q 0.708,0 0.99121,-0.23927 0.28808,-0.23925 0.28808,-0.83008 0,-0.59082 -0.28808,-0.83008 -0.28321,-0.23927 -0.99121,-0.23927 z m -1.44042,-1.21094 h 1.97754 q 1.50878,0 2.16796,0.53711 0.66406,0.53711 0.66406,1.74316 0,1.20606 -0.66406,1.74317 -0.65918,0.53711 -2.16796,0.53711 h -0.53712 v 2.72948 h -1.44042 z" />
  <path
     inkscape:connector-curvature="0"
     id="path858-8-9"
     style="font-style:normal;font-variant:normal;font-weight:bold;font-stretch:normal;font-size:13.3333px;line-height:125%;font-family:monospace;-inkscape-font-specification:'monospace Bold';letter-spacing:0px;word-spacing:0px;fill:#ffcc00;fill-opacity:1;stroke:none;stroke-width:0.749999px;stroke-linecap:butt;stroke-linejoin:miter;stroke-opacity:1"
     d="m 378.13087,625.60157 -1.84082,2.88086 h 1.84082 z m -0.12696,-1.60156 h 1.50879 v 4.48242 h 0.80078 v 1.23535 h -0.80078 v 1.57226 h -1.38184 v -1.57226 h -2.89062 v -1.39648 z" />
  <path
     inkscape:connector-curvature="0"
     id="path860-86-3"
     style="font-style:normal;font-variant:normal;font-weight:bold;font-stretch:normal;font-size:13.3333px;line-height:125%;font-family:monospace;-inkscape-font-specification:'monospace Bold';letter-spacing:0px;word-spacing:0px;fill:#ffcc00;fill-opacity:1;stroke:none;stroke-width:0.749999px;stroke-linecap:butt;stroke-linejoin:miter;stroke-opacity:1"
     d="m 371.7295,642.58888 1.28418,-6.08887 h 1.4502 l -1.7334,7.29005 h -1.99707 l -1.7334,-7.29005 h 1.4502 z" />
  <path
     inkscape:connector-curvature="0"
     id="path862-8-9"
     style="font-style:normal;font-variant:normal;font-weight:bold;font-stretch:normal;font-size:13.3333px;line-height:125%;font-family:monospace;-inkscape-font-specification:'monospace Bold';letter-spacing:0px;word-spacing:0px;fill:#ffcc00;fill-opacity:1;stroke:none;stroke-width:0.749999px;stroke-linecap:butt;stroke-linejoin:miter;stroke-opacity:1"
     d="m 375.66017,642.52052 h 1.61132 v -4.73145 l -1.49902,0.3711 v -1.29883 l 1.50879,-0.36133 h 1.3916 v 6.02051 h 1.61133 v 1.26954 h -4.62402 z" />
  <path
     inkscape:connector-curvature="0"
     id="path856-8-2"
     style="font-style:normal;font-variant:normal;font-weight:bold;font-stretch:normal;font-size:13.3333px;line-height:125%;font-family:monospace;-inkscape-font-specification:'monospace Bold';letter-spacing:0px;word-spacing:0px;fill:#ffcc00;fill-opacity:1;stroke:none;stroke-width:0.749999px;stroke-linecap:butt;stroke-linejoin:miter;stroke-opacity:1"
     d="m 164.70313,168.46095 v 2.13867 h 0.59083 q 0.708,0 0.99121,-0.23927 0.28808,-0.23925 0.28808,-0.83008 0,-0.59082 -0.28808,-0.83008 -0.28321,-0.23927 -0.99121,-0.23927 z m -1.44042,-1.21094 h 1.97754 q 1.50878,0 2.16796,0.53711 0.66406,0.53711 0.66406,1.74316 0,1.20606 -0.66406,1.74317 -0.65918,0.53711 -2.16796,0.53711 h -0.53712 v 2.72948 h -1.44042 z" />
  <path
     inkscape:connector-curvature="0"
     id="path858-8-8"
     style="font-style:normal;font-variant:normal;font-weight:bold;font-stretch:normal;font-size:13.3333px;line-height:125%;font-family:monospace;-inkscape-font-specification:'monospace Bold';letter-spacing:0px;word-spacing:0px;fill:#ffcc00;fill-opacity:1;stroke:none;stroke-width:0.749999px;stroke-linecap:butt;stroke-linejoin:miter;stroke-opacity:1"
     d="m 171.88087,168.85157 -1.84082,2.88086 h 1.84082 z m -0.12696,-1.60156 h 1.50879 v 4.48242 h 0.80078 v 1.23535 h -0.80078 v 1.57226 h -1.38184 v -1.57226 h -2.89062 v -1.39648 z" />
  <path
     inkscape:connector-curvature="0"
     id="path860-86-30"
     style="font-style:normal;font-variant:normal;font-weight:bold;font-stretch:normal;font-size:13.3333px;line-height:125%;font-family:monospace;-inkscape-font-specification:'monospace Bold';letter-spacing:0px;word-spacing:0px;fill:#ffcc00;fill-opacity:1;stroke:none;stroke-width:0.749999px;stroke-linecap:butt;stroke-linejoin:miter;stroke-opacity:1"
     d="m 165.4795,185.83888 1.28418,-6.08887 h 1.4502 l -1.7334,7.29005 h -1.99707 l -1.7334,-7.29005 h 1.4502 z" />
  <path
     inkscape:connector-curvature="0"
     id="path862-8-1"
     style="font-style:normal;font-variant:normal;font-weight:bold;font-stretch:normal;font-size:13.3333px;line-height:125%;font-family:monospace;-inkscape-font-specification:'monospace Bold';letter-spacing:0px;word-spacing:0px;fill:#ffcc00;fill-opacity:1;stroke:none;stroke-width:0.749999px;stroke-linecap:butt;stroke-linejoin:miter;stroke-opacity:1"
     d="m 169.41017,185.77052 h 1.61132 v -4.73145 l -1.49902,0.3711 v -1.29883 l 1.50879,-0.36133 h 1.3916 v 6.02051 h 1.61133 v 1.26954 h -4.62402 z" />
</svg>
