<?xml version="1.0" encoding="UTF-8" standalone="no"?>
<svg
   id="svg115"
   version="1.1"
   viewBox="0 0 595.2756 841.88979"
   height="297mm"
   width="210mm"
   sodipodi:docname="sheet_3_opistech.svg"
   inkscape:version="1.3.1 (9b9bdc1480, 2023-11-25, custom)"
   xmlns:inkscape="http://www.inkscape.org/namespaces/inkscape"
   xmlns:sodipodi="http://sodipodi.sourceforge.net/DTD/sodipodi-0.dtd"
   xmlns="http://www.w3.org/2000/svg"
   xmlns:svg="http://www.w3.org/2000/svg"
   xmlns:rdf="http://www.w3.org/1999/02/22-rdf-syntax-ns#"
   xmlns:cc="http://creativecommons.org/ns#"
   xmlns:dc="http://purl.org/dc/elements/1.1/">
  <sodipodi:namedview
     pagecolor="#ffffff"
     bordercolor="#666666"
     borderopacity="1"
     objecttolerance="10"
     gridtolerance="10"
     guidetolerance="10"
     inkscape:pageopacity="0"
     inkscape:pageshadow="2"
     inkscape:window-width="1517"
     inkscape:window-height="812"
     id="namedview2608"
     showgrid="false"
     inkscape:zoom="0.84096521"
     inkscape:cx="337.70719"
     inkscape:cy="469.10383"
     inkscape:window-x="0"
     inkscape:window-y="0"
     inkscape:window-maximized="0"
     inkscape:current-layer="svg115"
     inkscape:showpageshadow="2"
     inkscape:pagecheckerboard="0"
     inkscape:deskcolor="#d1d1d1"
     inkscape:document-units="mm" />
  <metadata
     id="metadata119">
    <rdf:RDF>
      <cc:Work
         rdf:about="">
        <dc:format>image/svg+xml</dc:format>
        <dc:type
           rdf:resource="http://purl.org/dc/dcmitype/StillImage" />
      </cc:Work>
    </rdf:RDF>
  </metadata>
  <defs
     id="defs40" />
  <path
     style="font-size:13.33333302px;-inkscape-font-specification:'monospace Bold';fill-opacity:1;font-weight:bold;letter-spacing:0px;font-style:normal;word-spacing:0px;stroke:none;font-stretch:normal;line-height:1.25;font-variant:normal;font-family:monospace;display:inline;fill:#000000"
     transform="matrix(0.750000,0.000000,0.000000,0.750000,509.517920,241.196220)"
     id="path21724"
     d="m -395.23242,327.90365 q -1.45182,-0.55339 -1.96615,-1.15886 -0.51432,-0.61198 -0.51432,-1.64062 0,-1.32162 0.84635,-2.07683 0.84636,-0.7552 2.32422,-0.7552 0.67058,0 1.34115,0.15625 0.67057,0.14973 1.32812,0.44921 v 1.875 q -0.61849,-0.43619 -1.25651,-0.66406 -0.63802,-0.22786 -1.26302,-0.22786 -0.69661,0 -1.06771,0.27994 -0.37109,0.27995 -0.37109,0.80079 0,0.40364 0.26693,0.67057 0.27343,0.26042 1.13281,0.57943 l 0.82682,0.3125 q 1.17188,0.42968 1.72526,1.13932 0.55339,0.70963 0.55339,1.79036 0,1.47136 -0.8724,2.20052 -0.86588,0.72266 -2.6237,0.72266 -0.72265,0 -1.45182,-0.17578 -0.72265,-0.16927 -1.39974,-0.50781 v -1.98568 q 0.76823,0.54687 1.48438,0.8138 0.72265,0.26693 1.42578,0.26693 0.70963,0 1.10026,-0.31901 0.39062,-0.32552 0.39062,-0.90495 0,-0.4362 -0.26041,-0.76172 -0.26042,-0.33203 -0.75521,-0.52083 z" />
  <path
     style="font-size:13.33333302px;-inkscape-font-specification:'monospace Bold';fill-opacity:1;font-weight:bold;letter-spacing:0px;font-style:normal;word-spacing:0px;stroke:none;font-stretch:normal;line-height:1.25;font-variant:normal;font-family:monospace;display:inline;fill:#000000"
     transform="matrix(0.750000,0.000000,0.000000,0.750000,509.517920,241.196220)"
     id="path21726"
     d="m -383.55273,327.4349 v 4.73307 h -1.89454 v -4.44011 q 0,-0.78776 -0.22786,-1.1263 -0.22135,-0.33854 -0.72917,-0.33854 -0.52083,0 -0.8138,0.46224 -0.29297,0.45573 -0.29297,1.26953 v 4.17318 h -1.89453 v -10.13021 h 1.89453 v 3.93229 q 0.20183,-0.60547 0.69011,-0.9375 0.48828,-0.33203 1.17838,-0.33203 1.03516,0 1.5625,0.6901 0.52735,0.6836 0.52735,2.04428 z" />
  <path
     style="font-size:13.33333302px;-inkscape-font-specification:'monospace Bold';fill-opacity:1;font-weight:bold;letter-spacing:0px;font-style:normal;word-spacing:0px;stroke:none;font-stretch:normal;line-height:1.25;font-variant:normal;font-family:monospace;display:inline;fill:#000000"
     transform="matrix(0.750000,0.000000,0.000000,0.750000,509.517920,241.196220)"
     id="path21728"
     d="m -375.32357,331.8099 q -0.66406,0.27343 -1.35416,0.41015 -0.69011,0.13672 -1.45834,0.13672 -1.82942,0 -2.79948,-0.97656 -0.96354,-0.98307 -0.96354,-2.82552 0,-1.78386 0.93099,-2.81901 0.93099,-1.03516 2.53906,-1.03516 1.6211,0 2.51302,0.96354 0.89844,0.95703 0.89844,2.70183 v 0.77473 h -4.9414 q 0.007,0.85938 0.50781,1.28256 0.5013,0.42317 1.49739,0.42317 0.65756,0 1.29558,-0.1888 0.63802,-0.1888 1.33463,-0.59896 z m -1.61458,-4.10157 q -0.013,-0.75521 -0.39063,-1.13932 -0.37109,-0.39062 -1.10026,-0.39062 -0.65755,0 -1.04817,0.40364 -0.39063,0.39714 -0.46224,1.13281 z" />
  <path
     style="font-size:13.33333302px;-inkscape-font-specification:'monospace Bold';fill-opacity:1;font-weight:bold;letter-spacing:0px;font-style:normal;word-spacing:0px;stroke:none;font-stretch:normal;line-height:1.25;font-variant:normal;font-family:monospace;display:inline;fill:#000000"
     transform="matrix(0.750000,0.000000,0.000000,0.750000,509.517920,241.196220)"
     id="path21730"
     d="m -367.29622,331.8099 q -0.66407,0.27343 -1.35417,0.41015 -0.6901,0.13672 -1.45833,0.13672 -1.82943,0 -2.79948,-0.97656 -0.96354,-0.98307 -0.96354,-2.82552 0,-1.78386 0.93098,-2.81901 0.93099,-1.03516 2.53907,-1.03516 1.62109,0 2.51302,0.96354 0.89844,0.95703 0.89844,2.70183 v 0.77473 h -4.94141 q 0.007,0.85938 0.50781,1.28256 0.5013,0.42317 1.4974,0.42317 0.65755,0 1.29557,-0.1888 0.63802,-0.1888 1.33464,-0.59896 z m -1.61459,-4.10157 q -0.013,-0.75521 -0.39062,-1.13932 -0.3711,-0.39062 -1.10026,-0.39062 -0.65755,0 -1.04818,0.40364 -0.39062,0.39714 -0.46224,1.13281 z" />
  <path
     style="font-size:13.33333302px;-inkscape-font-specification:'monospace Bold';fill-opacity:1;font-weight:bold;letter-spacing:0px;font-style:normal;word-spacing:0px;stroke:none;font-stretch:normal;line-height:1.25;font-variant:normal;font-family:monospace;display:inline;fill:#000000"
     transform="matrix(0.750000,0.000000,0.000000,0.750000,509.517920,241.196220)"
     id="path21732"
     d="m -361.95117,322.80599 v 2.07031 h 2.49349 v 1.46485 h -2.49349 v 3.45052 q 0,0.48828 0.23437,0.70312 0.24089,0.20833 0.79427,0.20833 h 1.46485 v 1.46485 h -1.60156 q -1.64063,0 -2.22006,-0.52083 -0.57942,-0.52735 -0.57942,-1.94662 v -3.35937 h -1.86198 v -1.46485 h 1.86198 v -2.07031 z" />
  <path
     style="font-size:13.33333302px;-inkscape-font-specification:'monospace Bold';fill-opacity:1;font-weight:bold;letter-spacing:0px;font-style:normal;word-spacing:0px;stroke:none;font-stretch:normal;line-height:1.25;font-variant:normal;font-family:monospace;display:inline;fill:#000000"
     transform="matrix(0.750000,0.000000,0.000000,0.750000,509.517920,241.196220)"
     id="path21734"
     d="m -346.81445,327.81901 h -1.02865 v -1.69271 h 1.02865 q 0.71614,0 1.10677,-0.27995 0.39713,-0.28645 0.39713,-0.80078 0,-0.54036 -0.39713,-0.83984 -0.39063,-0.30599 -1.10677,-0.30599 -0.54688,0 -1.17188,0.13672 -0.625,0.13672 -1.29557,0.39713 v -1.74479 q 0.67057,-0.20182 1.32161,-0.30599 0.65105,-0.11067 1.25,-0.11067 1.53646,0 2.39584,0.67057 0.85937,0.67057 0.85937,1.84896 0,0.86588 -0.49479,1.41927 -0.49479,0.54687 -1.41276,0.71614 1.04167,0.18229 1.58854,0.83334 0.54688,0.64453 0.54688,1.69922 0,1.41276 -0.90495,2.15494 -0.90495,0.74219 -2.63021,0.74219 -0.73568,0 -1.45182,-0.1237 -0.70964,-0.1237 -1.36068,-0.35807 v -1.78385 q 0.61198,0.30599 1.32161,0.46875 0.70964,0.15625 1.49089,0.15625 0.78125,0 1.23698,-0.35808 0.45573,-0.36458 0.45573,-0.97656 0,-0.7487 -0.45573,-1.15234 -0.45573,-0.41016 -1.28906,-0.41016 z" />
  <path
     style="font-size:13.33333302px;-inkscape-font-specification:'monospace Bold';fill-opacity:1;font-weight:bold;letter-spacing:0px;font-style:normal;word-spacing:0px;stroke:none;font-stretch:normal;line-height:1.25;font-variant:normal;font-family:monospace;display:inline;fill:#000000"
     transform="matrix(0.750000,0.000000,0.000000,0.750000,509.517920,241.196220)"
     id="path21736"
     d="m -332.37435,327.38281 h 4.10807 v 1.89453 h -4.10807 z" />
  <path
     style="font-size:13.33333302px;-inkscape-font-specification:'monospace Bold';fill-opacity:1;font-weight:bold;letter-spacing:0px;font-style:normal;word-spacing:0px;stroke:none;font-stretch:normal;line-height:1.25;font-variant:normal;font-family:monospace;display:inline;fill:#000000"
     transform="matrix(0.750000,0.000000,0.000000,0.750000,509.517920,241.196220)"
     id="path21738"
     d="m -314.26888,323.9974 q -0.73568,0 -1.07422,0.78776 -0.33854,0.78125 -0.33854,2.53255 0,1.74479 0.33854,2.53255 0.33854,0.78125 1.07422,0.78125 0.74219,0 1.08073,-0.78125 0.33854,-0.78776 0.33854,-2.53255 0,-1.7513 -0.33854,-2.53255 -0.33854,-0.78776 -1.08073,-0.78776 z m -3.41146,3.32031 q 0,-2.49349 0.85938,-3.76953 0.86588,-1.27604 2.55208,-1.27604 1.69271,0 2.55208,1.27604 0.86589,1.27604 0.86589,3.76953 0,2.48698 -0.86589,3.76302 -0.85937,1.27604 -2.55208,1.27604 -1.6862,0 -2.55208,-1.27604 -0.85938,-1.27604 -0.85938,-3.76302 z" />
  <path
     style="font-size:13.33333302px;-inkscape-font-specification:'monospace Bold';fill-opacity:1;font-weight:bold;letter-spacing:0px;font-style:normal;word-spacing:0px;stroke:none;font-stretch:normal;line-height:1.25;font-variant:normal;font-family:monospace;display:inline;fill:#000000"
     transform="matrix(0.750000,0.000000,0.000000,0.750000,509.517920,241.196220)"
     id="path21740"
     d="m -307.37435,331.13932 v 3.80209 h -1.90104 V 324.8763 h 1.90104 v 1.09375 q 0.29948,-0.63151 0.78776,-0.95052 0.48828,-0.31901 1.14583,-0.31901 1.25,0 1.94011,1.0026 0.6901,1.00261 0.6901,2.82553 0,1.84895 -0.70312,2.83854 -0.69662,0.98958 -1.99219,0.98958 -0.58594,0 -1.05469,-0.29948 -0.46224,-0.30599 -0.8138,-0.91797 z m 2.65625,-2.6237 q 0,-1.05468 -0.35156,-1.65364 -0.35156,-0.59896 -0.97005,-0.59896 -0.61849,0 -0.97657,0.59896 -0.35807,0.59896 -0.35807,1.65364 0,1.05469 0.35807,1.65365 0.35808,0.59896 0.97657,0.59896 0.61849,0 0.97005,-0.59896 0.35156,-0.59896 0.35156,-1.65365 z" />
  <path
     style="font-size:13.33333302px;-inkscape-font-specification:'monospace Bold';fill-opacity:1;font-weight:bold;letter-spacing:0px;font-style:normal;word-spacing:0px;stroke:none;font-stretch:normal;line-height:1.25;font-variant:normal;font-family:monospace;display:inline;fill:#000000"
     transform="matrix(0.750000,0.000000,0.000000,0.750000,509.517920,241.196220)"
     id="path21742"
     d="m -300.78581,324.8763 h 3.77604 v 5.82682 h 2.3698 v 1.46485 h -6.65365 v -1.46485 h 2.3763 v -4.36197 h -1.86849 z m 1.86849,-3.54818 h 1.90755 v 2.22657 h -1.90755 z" />
  <path
     style="font-size:13.33333302px;-inkscape-font-specification:'monospace Bold';fill-opacity:1;font-weight:bold;letter-spacing:0px;font-style:normal;word-spacing:0px;stroke:none;font-stretch:normal;line-height:1.25;font-variant:normal;font-family:monospace;display:inline;fill:#000000"
     transform="matrix(0.750000,0.000000,0.000000,0.750000,509.517920,241.196220)"
     id="path21744"
     d="m -287.74544,325.10417 v 1.66666 q -0.52735,-0.33854 -1.10026,-0.50781 -0.56641,-0.17578 -1.13933,-0.17578 -0.63802,0 -0.96354,0.1888 -0.32552,0.18229 -0.32552,0.54688 0,0.52083 1.39323,0.84635 l 0.0716,0.0195 0.54687,0.13021 q 1.04167,0.2474 1.52344,0.80078 0.48828,0.54688 0.48828,1.48438 0,1.1263 -0.74219,1.6927 -0.73568,0.5599 -2.22005,0.5599 -0.65755,0 -1.34766,-0.11719 -0.6901,-0.11067 -1.39974,-0.33854 v -1.66667 q 0.63151,0.35808 1.28256,0.54688 0.65755,0.1888 1.26953,0.1888 0.67057,0 1.01562,-0.19531 0.34505,-0.19531 0.34505,-0.56641 0,-0.36458 -0.24739,-0.55989 -0.24089,-0.19532 -1.15886,-0.41667 l -0.52734,-0.11719 q -1.09375,-0.24739 -1.59505,-0.77474 -0.5013,-0.52734 -0.5013,-1.41276 0,-1.05468 0.76171,-1.64062 0.76172,-0.58594 2.14193,-0.58594 0.61849,0 1.23047,0.10417 0.61849,0.0976 1.19792,0.29948 z" />
  <path
     style="font-size:13.33333302px;-inkscape-font-specification:'monospace Bold';fill-opacity:1;font-weight:bold;letter-spacing:0px;font-style:normal;word-spacing:0px;stroke:none;font-stretch:normal;line-height:1.25;font-variant:normal;font-family:monospace;display:inline;fill:#000000"
     transform="matrix(0.750000,0.000000,0.000000,0.750000,509.517920,241.196220)"
     id="path21746"
     d="m -281.19596,332.16797 h -1.92058 v -8.04037 h -2.46744 v -1.67968 h 6.85546 v 1.67968 h -2.46744 z" />
  <path
     style="font-size:13.33333302px;-inkscape-font-specification:'monospace Bold';fill-opacity:1;font-weight:bold;letter-spacing:0px;font-style:normal;word-spacing:0px;stroke:none;font-stretch:normal;line-height:1.25;font-variant:normal;font-family:monospace;display:inline;fill:#000000"
     transform="matrix(0.750000,0.000000,0.000000,0.750000,509.517920,241.196220)"
     id="path21748"
     d="m -270.9681,331.8099 q -0.66406,0.27343 -1.35417,0.41015 -0.6901,0.13672 -1.45833,0.13672 -1.82943,0 -2.79948,-0.97656 -0.96354,-0.98307 -0.96354,-2.82552 0,-1.78386 0.93099,-2.81901 0.93099,-1.03516 2.53906,-1.03516 1.6211,0 2.51302,0.96354 0.89844,0.95703 0.89844,2.70183 v 0.77473 h -4.94141 q 0.007,0.85938 0.50782,1.28256 0.5013,0.42317 1.49739,0.42317 0.65755,0 1.29558,-0.1888 0.63802,-0.1888 1.33463,-0.59896 z m -1.61458,-4.10157 q -0.013,-0.75521 -0.39063,-1.13932 -0.37109,-0.39062 -1.10026,-0.39062 -0.65755,0 -1.04817,0.40364 -0.39063,0.39714 -0.46224,1.13281 z" />
  <path
     style="font-size:13.33333302px;-inkscape-font-specification:'monospace Bold';fill-opacity:1;font-weight:bold;letter-spacing:0px;font-style:normal;word-spacing:0px;stroke:none;font-stretch:normal;line-height:1.25;font-variant:normal;font-family:monospace;display:inline;fill:#000000"
     transform="matrix(0.750000,0.000000,0.000000,0.750000,509.517920,241.196220)"
     id="path21750"
     d="m -263.20768,331.79687 q -0.48177,0.27995 -1.03516,0.41667 -0.55338,0.14323 -1.1914,0.14323 -1.6862,0 -2.63672,-1.01562 -0.95052,-1.01563 -0.95052,-2.8125 0,-1.80339 0.95703,-2.81901 0.95703,-1.02214 2.64323,-1.02214 0.58593,0 1.1263,0.13672 0.54687,0.13672 1.08724,0.42318 v 1.74479 q -0.41667,-0.35808 -0.91797,-0.54688 -0.49479,-0.19531 -1.02865,-0.19531 -0.93099,0 -1.43229,0.59245 -0.5013,0.59245 -0.5013,1.6862 0,1.09375 0.5013,1.67968 0.5013,0.58594 1.43229,0.58594 0.55339,0 1.03516,-0.18229 0.48177,-0.1888 0.91146,-0.56641 z" />
  <path
     style="font-size:13.33333302px;-inkscape-font-specification:'monospace Bold';fill-opacity:1;font-weight:bold;letter-spacing:0px;font-style:normal;word-spacing:0px;stroke:none;font-stretch:normal;line-height:1.25;font-variant:normal;font-family:monospace;display:inline;fill:#000000"
     transform="matrix(0.750000,0.000000,0.000000,0.750000,509.517920,241.196220)"
     id="path21752"
     d="m -255.11523,327.4349 v 4.73307 h -1.89454 v -4.44011 q 0,-0.78776 -0.22786,-1.1263 -0.22135,-0.33854 -0.72917,-0.33854 -0.52083,0 -0.8138,0.46224 -0.29297,0.45573 -0.29297,1.26953 v 4.17318 h -1.89453 v -10.13021 h 1.89453 v 3.93229 q 0.20183,-0.60547 0.69011,-0.9375 0.48828,-0.33203 1.17838,-0.33203 1.03516,0 1.5625,0.6901 0.52735,0.6836 0.52735,2.04428 z" />
  <rect
     style="clip-rule:evenodd;vector-effect:none;fill:none;fill-opacity:1;fill-rule:evenodd;stroke:#bbae00;stroke-width:0.561975;stroke-linecap:square;stroke-linejoin:miter;stroke-miterlimit:4;stroke-dasharray:none;stroke-dashoffset:0;stroke-opacity:1"
     id="rect14607"
     width="89.706741"
     height="22.054121"
     x="178.23608"
     y="455.86456" />
  <path
     d="m 145.71202,318.48887 q -0.41388,1.0869 -0.86672,1.47195 -0.45771,0.38504 -1.22705,0.38504 -0.98845,0 -1.55328,-0.63362 -0.56483,-0.63361 -0.56483,-1.74001 0,-0.50202 0.11686,-1.00404 0.11199,-0.50203 0.33598,-0.9943 h 1.40234 q -0.32624,0.46304 -0.49666,0.94068 -0.17043,0.47765 -0.17043,0.94556 0,0.52152 0.20938,0.79933 0.20938,0.27782 0.59891,0.27782 0.3019,0 0.50153,-0.19983 0.19477,-0.20471 0.43336,-0.84808 l 0.23373,-0.619 q 0.32137,-0.87731 0.85211,-1.2916 0.53075,-0.41429 1.33904,-0.41429 1.10044,0 1.6458,0.65311 0.54048,0.64825 0.54048,1.96422 0,0.54102 -0.13147,1.0869 -0.1266,0.54102 -0.3798,1.04791 h -1.48511 q 0.40901,-0.57513 0.60865,-1.11127 0.19964,-0.54101 0.19964,-1.0674 0,-0.53127 -0.23859,-0.8237 -0.24347,-0.29245 -0.67682,-0.29245 -0.32624,0 -0.5697,0.19496 -0.24833,0.19496 -0.38954,0.56539 z"
     id="path15236"
     style="font-style:normal;font-variant:normal;font-weight:bold;font-stretch:normal;font-size:13.3333px;line-height:1.25;font-family:monospace;-inkscape-font-specification:'monospace Bold';letter-spacing:0px;word-spacing:0px;fill:#00aeee;fill-opacity:1;stroke:none;stroke-width:0.748279" />
  <path
     d="m 148.63356,309.59384 q 0.2045,0.49715 0.30676,1.01379 0.10225,0.51665 0.10225,1.09178 0,1.36958 -0.73039,2.09581 -0.73525,0.72135 -2.11324,0.72135 -1.33416,0 -2.10837,-0.69698 -0.77421,-0.69698 -0.77421,-1.90086 0,-1.21362 0.72065,-1.88136 0.71577,-0.67261 2.02073,-0.67261 h 0.57943 v 3.69936 q 0.64275,-0.005 0.95924,-0.38017 0.3165,-0.37529 0.3165,-1.12102 0,-0.49227 -0.1412,-0.96992 -0.14121,-0.47765 -0.44797,-0.99917 z m -3.06761,1.20875 q -0.56484,0.01 -0.85212,0.29244 -0.29215,0.27782 -0.29215,0.8237 0,0.49228 0.30189,0.78472 0.29702,0.29244 0.84724,0.34605 z"
     id="path15238"
     style="font-style:normal;font-variant:normal;font-weight:bold;font-stretch:normal;font-size:13.3333px;line-height:1.25;font-family:monospace;-inkscape-font-specification:'monospace Bold';letter-spacing:0px;word-spacing:0px;fill:#00aeee;fill-opacity:1;stroke:none;stroke-width:0.748279" />
  <path
     d="m 143.44783,307.8782 v -2.82692 h 4.35796 v -1.77413 h 1.09557 v 4.98121 h -1.09557 v -1.779 h -3.26238 v 1.39884 z m -2.65373,-1.39884 v -1.42808 h 1.66528 v 1.42808 z"
     id="path15240"
     style="font-style:normal;font-variant:normal;font-weight:bold;font-stretch:normal;font-size:13.3333px;line-height:1.25;font-family:monospace;-inkscape-font-specification:'monospace Bold';letter-spacing:0px;word-spacing:0px;fill:#00aeee;fill-opacity:1;stroke:none;stroke-width:0.748279" />
  <path
     d="m 141.89942,299.58266 h 1.54841 v -1.86674 h 1.09558 v 1.86674 h 2.58068 q 0.3652,0 0.52589,-0.17547 0.15581,-0.18033 0.15581,-0.59462 v -1.09665 h 1.09557 v 1.199 q 0,1.22826 -0.38954,1.66203 -0.3944,0.43379 -1.45589,0.43379 h -2.51252 v 1.39396 h -1.09558 v -1.39396 h -1.54841 z"
     id="path15242"
     style="font-style:normal;font-variant:normal;font-weight:bold;font-stretch:normal;font-size:13.3333px;line-height:1.25;font-family:monospace;-inkscape-font-specification:'monospace Bold';letter-spacing:0px;word-spacing:0px;fill:#00aeee;fill-opacity:1;stroke:none;stroke-width:0.748279" />
  <path
     d="m 148.63356,291.56495 q 0.2045,0.49715 0.30676,1.01379 0.10225,0.51663 0.10225,1.09177 0,1.36959 -0.73039,2.09582 -0.73525,0.72135 -2.11324,0.72135 -1.33416,0 -2.10837,-0.69698 -0.77421,-0.69698 -0.77421,-1.90086 0,-1.21362 0.72065,-1.88136 0.71577,-0.67261 2.02073,-0.67261 h 0.57943 v 3.69936 q 0.64275,-0.005 0.95924,-0.38017 0.3165,-0.37529 0.3165,-1.12102 0,-0.49228 -0.1412,-0.96992 -0.14121,-0.47765 -0.44797,-0.99917 z m -3.06761,1.20875 q -0.56484,0.01 -0.85212,0.29244 -0.29215,0.27781 -0.29215,0.8237 0,0.49227 0.30189,0.78471 0.29702,0.29244 0.84724,0.34606 z"
     id="path15244"
     style="font-style:normal;font-variant:normal;font-weight:bold;font-stretch:normal;font-size:13.3333px;line-height:1.25;font-family:monospace;-inkscape-font-specification:'monospace Bold';letter-spacing:0px;word-spacing:0px;fill:#00aeee;fill-opacity:1;stroke:none;stroke-width:0.748279" />
  <path
     d="m 145.36144,285.70641 h 3.53992 v 1.41833 h -3.32081 q -0.59404,0 -0.84724,0.17059 -0.25807,0.16571 -0.25807,0.54589 0,0.38504 0.34572,0.60925 0.3457,0.21933 0.95923,0.21933 h 3.12117 v 1.41833 h -5.45353 v -1.41833 h 0.81803 q -0.45284,-0.1511 -0.70117,-0.51665 -0.24833,-0.36555 -0.24833,-0.88219 0,-0.77496 0.51614,-1.16976 0.51127,-0.39479 1.52894,-0.39479 z"
     id="path15246"
     style="font-style:normal;font-variant:normal;font-weight:bold;font-stretch:normal;font-size:13.3333px;line-height:1.25;font-family:monospace;-inkscape-font-specification:'monospace Bold';letter-spacing:0px;word-spacing:0px;fill:#00aeee;fill-opacity:1;stroke:none;stroke-width:0.748279" />
  <path
     d="m 143.44783,284.91683 v -1.18926 l 4.17779,-0.64824 -2.75111,-0.58975 v -1.15514 l 2.75111,-0.58 -4.17779,-0.658 v -1.18925 l 5.45353,0.98943 v 1.35496 l -2.83389,0.66287 2.83389,0.65799 v 1.35496 z"
     id="path15248"
     style="font-style:normal;font-variant:normal;font-weight:bold;font-stretch:normal;font-size:13.3333px;line-height:1.25;font-family:monospace;-inkscape-font-specification:'monospace Bold';letter-spacing:0px;word-spacing:0px;fill:#00aeee;fill-opacity:1;stroke:none;stroke-width:0.748279" />
  <path
     d="m 146.34015,275.4954 q 0,0.79934 0.20451,1.11614 0.20451,0.31681 0.70116,0.31681 0.37007,0 0.58918,-0.21933 0.21912,-0.21932 0.21912,-0.59463 0,-0.56538 -0.42362,-0.87731 -0.4285,-0.31194 -1.19297,-0.31194 h -0.0974 z m -0.55022,-1.98859 h 3.11143 v 1.41833 h -0.60865 q 0.36032,0.25832 0.55509,0.66286 0.19477,0.40455 0.19477,0.89194 0,0.93094 -0.49179,1.45246 -0.49179,0.51664 -1.37312,0.51664 -0.95437,0 -1.40721,-0.619 -0.4577,-0.61899 -0.4577,-1.91547 v -0.98943 h -0.2386 q -0.34571,0 -0.52101,0.25345 -0.18015,0.24857 -0.18015,0.73598 0,0.51176 0.13146,0.99429 0.1266,0.47764 0.40902,0.99917 h -1.21731 q -0.19477,-0.47278 -0.28729,-0.96019 -0.0925,-0.48739 -0.0925,-1.03327 0,-1.33061 0.54048,-1.86674 0.54049,-0.54102 1.93309,-0.54102 z"
     id="path15250"
     style="font-style:normal;font-variant:normal;font-weight:bold;font-stretch:normal;font-size:13.3333px;line-height:1.25;font-family:monospace;-inkscape-font-specification:'monospace Bold';letter-spacing:0px;word-spacing:0px;fill:#00aeee;fill-opacity:1;stroke:none;stroke-width:0.748279" />
  <path
     d="m 145.36144,267.67751 h 3.53992 v 1.41834 h -3.32081 q -0.59404,0 -0.84724,0.17059 -0.25807,0.16571 -0.25807,0.54588 0,0.38505 0.34572,0.60926 0.3457,0.21933 0.95923,0.21933 h 3.12117 v 1.41833 h -5.45353 v -1.41833 h 0.81803 q -0.45284,-0.1511 -0.70117,-0.51665 -0.24833,-0.36555 -0.24833,-0.88219 0,-0.77496 0.51614,-1.16976 0.51127,-0.3948 1.52894,-0.3948 z"
     id="path15252"
     style="font-style:normal;font-variant:normal;font-weight:bold;font-stretch:normal;font-size:13.3333px;line-height:1.25;font-family:monospace;-inkscape-font-specification:'monospace Bold';letter-spacing:0px;word-spacing:0px;fill:#00aeee;fill-opacity:1;stroke:none;stroke-width:0.748279" />
  <path
     d="m 144.22204,263.0326 h -2.89719 v -1.4232 h 7.57651 v 1.4232 h -0.80829 q 0.47232,0.22908 0.71091,0.59464 0.23859,0.36067 0.23859,0.85294 0,0.93581 -0.74986,1.45245 -0.74986,0.51665 -2.11324,0.51665 -1.38287,0 -2.12298,-0.52152 -0.74013,-0.52639 -0.74013,-1.49632 0,-0.43865 0.22886,-0.78471 0.22398,-0.35093 0.67682,-0.61413 z m 1.96716,1.98859 q 0.78882,0 1.23679,-0.26319 0.44797,-0.2632 0.44797,-0.72623 0,-0.46303 -0.44797,-0.73109 -0.44797,-0.26808 -1.23679,-0.26808 -0.78881,0 -1.23678,0.26808 -0.44797,0.26806 -0.44797,0.73109 0,0.46303 0.44797,0.72623 0.44797,0.26319 1.23678,0.26319 z"
     id="path15254"
     style="font-style:normal;font-variant:normal;font-weight:bold;font-stretch:normal;font-size:13.3333px;line-height:1.25;font-family:monospace;-inkscape-font-specification:'monospace Bold';letter-spacing:0px;word-spacing:0px;fill:#00aeee;fill-opacity:1;stroke:none;stroke-width:0.748279" />
  <path
     id="path561-9-8-1"
     style="clip-rule:evenodd;fill:none;fill-rule:nonzero;stroke:#ea0088;stroke-width:0.997689;stroke-miterlimit:10;stroke-opacity:1"
     d="m 455.54676,148.331 c -1.56062,0 -2.82707,-1.26668 -2.82707,-2.82883 0,-1.56315 1.26645,-2.82983 2.82707,-2.82983 1.56062,0 2.82607,1.26668 2.82607,2.82983 0,1.56215 -1.26545,2.82883 -2.82607,2.82883" />
  <path
     id="path565-7-0-8"
     style="clip-rule:evenodd;fill:none;fill-rule:nonzero;stroke:#000000;stroke-width:0.673187px;stroke-miterlimit:10;stroke-opacity:1"
     d="m 458.47495,145.50222 h -5.9833" />
  <path
     id="path569-2-38-7"
     style="clip-rule:evenodd;fill:none;fill-rule:nonzero;stroke:#000000;stroke-width:0.673188px;stroke-miterlimit:10;stroke-opacity:1"
     d="m 455.54562,148.45524 v -5.98916" />
  <path
     id="path561-9-4-9"
     style="clip-rule:evenodd;fill:none;fill-rule:nonzero;stroke:#ea0088;stroke-width:0.997689;stroke-miterlimit:10;stroke-opacity:1"
     d="m 370.78202,148.33098 c -1.56062,0 -2.82705,-1.26669 -2.82705,-2.82883 0,-1.56315 1.26643,-2.82984 2.82705,-2.82984 1.56063,0 2.82607,1.26669 2.82607,2.82984 0,1.56214 -1.26544,2.82883 -2.82607,2.82883" />
  <path
     id="path565-7-12-2"
     style="clip-rule:evenodd;fill:none;fill-rule:nonzero;stroke:#000000;stroke-width:0.673187px;stroke-miterlimit:10;stroke-opacity:1"
     d="m 373.71023,145.5022 h -5.98332" />
  <path
     id="path569-2-3-0"
     style="clip-rule:evenodd;fill:none;fill-rule:nonzero;stroke:#000000;stroke-width:0.673188px;stroke-miterlimit:10;stroke-opacity:1"
     d="m 370.78088,148.45523 v -5.98917" />
  <path
     id="path561-9-6-2"
     style="clip-rule:evenodd;fill:none;fill-rule:nonzero;stroke:#ea0088;stroke-width:0.997689;stroke-miterlimit:10;stroke-opacity:1"
     d="m 286.01726,148.32999 c -1.56061,0 -2.82705,-1.26669 -2.82705,-2.82883 0,-1.56315 1.26644,-2.82984 2.82705,-2.82984 1.56063,0 2.82608,1.26669 2.82608,2.82984 0,1.56214 -1.26545,2.82883 -2.82608,2.82883" />
  <path
     id="path565-7-6-3"
     style="clip-rule:evenodd;fill:none;fill-rule:nonzero;stroke:#000000;stroke-width:0.673187px;stroke-miterlimit:10;stroke-opacity:1"
     d="m 288.94546,145.50121 h -5.98331" />
  <path
     id="path569-2-6-7"
     style="clip-rule:evenodd;fill:none;fill-rule:nonzero;stroke:#000000;stroke-width:0.673188px;stroke-miterlimit:10;stroke-opacity:1"
     d="m 286.01612,148.45424 v -5.98917" />
  <path
     id="path561-9-7-5"
     style="clip-rule:evenodd;fill:none;fill-rule:nonzero;stroke:#ea0088;stroke-width:0.997689;stroke-miterlimit:10;stroke-opacity:1"
     d="m 201.25625,148.32999 c -1.56062,0 -2.82706,-1.26669 -2.82706,-2.82883 0,-1.56315 1.26644,-2.82984 2.82706,-2.82984 1.56062,0 2.82607,1.26669 2.82607,2.82984 0,1.56214 -1.26545,2.82883 -2.82607,2.82883" />
  <path
     id="path565-7-1-9"
     style="clip-rule:evenodd;fill:none;fill-rule:nonzero;stroke:#000000;stroke-width:0.673187px;stroke-miterlimit:10;stroke-opacity:1"
     d="m 204.18445,145.50121 h -5.98331" />
  <path
     id="path569-2-5-2"
     style="clip-rule:evenodd;fill:none;fill-rule:nonzero;stroke:#000000;stroke-width:0.673188px;stroke-miterlimit:10;stroke-opacity:1"
     d="m 201.25511,148.45424 v -5.98917" />
  <path
     id="path561-9-2"
     style="clip-rule:evenodd;fill:none;fill-rule:nonzero;stroke:#ea0088;stroke-width:0.997689;stroke-miterlimit:10;stroke-opacity:1"
     d="m 116.49891,148.33001 c -1.56062,0 -2.82707,-1.26668 -2.82707,-2.82883 0,-1.56315 1.26645,-2.82983 2.82707,-2.82983 1.56062,0 2.82606,1.26668 2.82606,2.82983 0,1.56215 -1.26544,2.82883 -2.82606,2.82883" />
  <path
     id="path565-7-8"
     style="clip-rule:evenodd;fill:none;fill-rule:nonzero;stroke:#000000;stroke-width:0.673187px;stroke-miterlimit:10;stroke-opacity:1"
     d="m 119.4271,145.50123 h -5.9833" />
  <path
     id="path569-2-9"
     style="clip-rule:evenodd;fill:none;fill-rule:nonzero;stroke:#000000;stroke-width:0.673188px;stroke-miterlimit:10;stroke-opacity:1"
     d="m 116.49776,148.45425 v -5.98916" />
  <path
     id="path231-8"
     style="clip-rule:evenodd;fill:none;fill-rule:nonzero;stroke:#ec008c;stroke-width:0.997229px;stroke-linecap:butt;stroke-linejoin:miter;stroke-miterlimit:10"
     d="m 318.82594,477.73135 -230.60543,0.001 V 124.21043 h 418.15974 z" />
  <rect
     x="-251.88605"
     y="-520.41339"
     width="127.1524"
     height="22.625465"
     style="clip-rule:evenodd;fill:none;fill-rule:evenodd;stroke:#bbae00;stroke-width:0.918209px;stroke-linecap:round;stroke-linejoin:round;stroke-miterlimit:1.5;stroke-opacity:1"
     id="rect7"
     transform="scale(-1)" />
  <path
     style="font-style:normal;font-variant:normal;font-weight:bold;font-stretch:normal;font-size:13.3333px;line-height:1.25;font-family:monospace;-inkscape-font-specification:'monospace Bold';letter-spacing:0px;word-spacing:0px;fill:#00aeee;fill-opacity:1;stroke:none;stroke-width:0.748306"
     id="path13816"
     d="m 322.75257,672.75296 v -1.43783 h 2.77079 v -1.7985 h -2.77079 v -1.43783 h 7.27029 v 1.43783 h -3.23341 v 1.7985 h 3.23341 v 1.43783 z" />
  <path
     style="font-style:normal;font-variant:normal;font-weight:bold;font-stretch:normal;font-size:13.3333px;line-height:1.25;font-family:monospace;-inkscape-font-specification:'monospace Bold';letter-spacing:0px;word-spacing:0px;fill:#00aeee;fill-opacity:1;stroke:none;stroke-width:0.748306"
     id="path13818"
     d="m 322.42145,664.01877 v -1.15026 h 1.19791 v 1.15026 z m 0,1.92522 v -1.15026 h 1.19791 v 1.15026 z m 3.17496,-1.5353 q 0,0.51176 0.45287,0.80421 0.448,0.29243 1.25148,0.29243 0.80348,0 1.25635,-0.29243 0.448,-0.29245 0.448,-0.80421 0,-0.51665 -0.448,-0.80909 -0.45287,-0.29244 -1.25635,-0.29244 -0.80348,0 -1.25148,0.29244 -0.45287,0.29244 -0.45287,0.80909 z m 1.70435,2.52472 q -1.31966,0 -2.08905,-0.68235 -0.77426,-0.68724 -0.77426,-1.84237 0,-1.16001 0.77426,-1.84237 0.76939,-0.68724 2.08905,-0.68724 1.31966,0 2.09392,0.68724 0.76939,0.68236 0.76939,1.84237 0,1.15513 -0.76939,1.84237 -0.77426,0.68235 -2.09392,0.68235 z" />
  <path
     style="font-style:normal;font-variant:normal;font-weight:bold;font-stretch:normal;font-size:13.3333px;line-height:1.25;font-family:monospace;-inkscape-font-specification:'monospace Bold';letter-spacing:0px;word-spacing:0px;fill:#00aeee;fill-opacity:1;stroke:none;stroke-width:0.748306"
     id="path13820"
     d="m 326.07363,655.79147 q -0.21426,0.23395 -0.3214,0.55076 -0.10713,0.31194 -0.10713,0.68723 0,0.45329 0.1607,0.79447 0.15583,0.3363 0.45774,0.52151 0.18504,0.11698 0.448,0.16571 0.26295,0.0439 0.79861,0.0439 h 2.51271 v 1.42808 h -5.45393 v -1.42808 h 0.8473 q -0.46748,-0.20958 -0.72069,-0.64337 -0.25809,-0.43378 -0.25809,-1.01378 0,-0.29245 0.073,-0.57026 0.0682,-0.2827 0.20453,-0.53614 z" />
  <path
     style="font-style:normal;font-variant:normal;font-weight:bold;font-stretch:normal;font-size:13.3333px;line-height:1.25;font-family:monospace;-inkscape-font-specification:'monospace Bold';letter-spacing:0px;word-spacing:0px;fill:#00aeee;fill-opacity:1;stroke:none;stroke-width:0.748306"
     id="path13822"
     d="m 329.75502,650.02066 q 0.20453,0.49715 0.30679,1.0138 0.10226,0.51664 0.10226,1.09177 0,1.36959 -0.73044,2.09582 -0.7353,0.72135 -2.1134,0.72135 -1.33426,0 -2.10852,-0.69699 -0.77426,-0.69698 -0.77426,-1.90085 0,-1.21363 0.7207,-1.88136 0.71582,-0.67261 2.02087,-0.67261 h 0.57948 v 3.69936 q 0.64279,-0.005 0.9593,-0.38018 0.31653,-0.37529 0.31653,-1.12101 0,-0.49228 -0.14122,-0.96993 -0.14121,-0.47765 -0.448,-0.99917 z m -3.06783,1.20875 q -0.56487,0.01 -0.85217,0.29245 -0.29218,0.27781 -0.29218,0.8237 0,0.49227 0.30192,0.78471 0.29704,0.29244 0.8473,0.34605 z" />
  <path
     style="font-style:normal;font-variant:normal;font-weight:bold;font-stretch:normal;font-size:13.3333px;line-height:1.25;font-family:monospace;-inkscape-font-specification:'monospace Bold';letter-spacing:0px;word-spacing:0px;fill:#00aeee;fill-opacity:1;stroke:none;stroke-width:0.748306"
     id="path13824"
     d="m 326.07363,643.7722 q -0.21426,0.23396 -0.3214,0.55077 -0.10713,0.31194 -0.10713,0.68723 0,0.45328 0.1607,0.79446 0.15583,0.33631 0.45774,0.52152 0.18504,0.11697 0.448,0.16572 0.26295,0.0439 0.79861,0.0439 h 2.51271 v 1.42808 h -5.45393 v -1.42808 h 0.8473 q -0.46748,-0.20959 -0.72069,-0.64337 -0.25809,-0.43378 -0.25809,-1.01379 0,-0.29244 0.073,-0.57026 0.0682,-0.28268 0.20453,-0.53614 z" />
  <path
     style="font-style:normal;font-variant:normal;font-weight:bold;font-stretch:normal;font-size:13.3333px;line-height:1.25;font-family:monospace;-inkscape-font-specification:'monospace Bold';letter-spacing:0px;word-spacing:0px;fill:#00aeee;fill-opacity:1;stroke:none;stroke-width:0.748306"
     id="path13826"
     d="m 327.46146,639.96075 q 0,0.79933 0.20452,1.11614 0.20452,0.31681 0.70121,0.31681 0.3701,0 0.58922,-0.21933 0.21913,-0.21933 0.21913,-0.59463 0,-0.56538 -0.42364,-0.87731 -0.42853,-0.31194 -1.19306,-0.31194 h -0.0974 z m -0.55027,-1.98859 h 3.11167 v 1.41833 h -0.60871 q 0.36035,0.25832 0.55514,0.66287 0.19478,0.40453 0.19478,0.89193 0,0.93093 -0.49182,1.45245 -0.49184,0.51664 -1.37323,0.51664 -0.95443,0 -1.4073,-0.61899 -0.45774,-0.61899 -0.45774,-1.91548 v -0.98942 h -0.23861 q -0.34574,0 -0.52105,0.25345 -0.18017,0.24857 -0.18017,0.73597 0,0.51177 0.13148,0.99429 0.1266,0.47766 0.40904,0.99917 h -1.21739 q -0.19479,-0.47278 -0.28731,-0.96018 -0.0925,-0.48739 -0.0925,-1.03328 0,-1.3306 0.54052,-1.86674 0.54052,-0.54101 1.93322,-0.54101 z" />
  <path
     style="font-style:normal;font-variant:normal;font-weight:bold;font-stretch:normal;font-size:13.3333px;line-height:1.25;font-family:monospace;-inkscape-font-specification:'monospace Bold';letter-spacing:0px;word-spacing:0px;fill:#00aeee;fill-opacity:1;stroke:none;stroke-width:0.748306"
     id="path13828"
     d="m 328.11885,636.58307 h -3.54992 v -1.42808 h 3.33078 q 0.58922,0 0.84245,-0.16572 0.25321,-0.16571 0.25321,-0.55075 0,-0.38505 -0.34087,-0.5995 -0.34087,-0.21933 -0.95443,-0.21933 h -3.13114 v -1.42809 h 5.45393 v 1.42809 h -0.80835 q 0.45286,0.15109 0.70122,0.51664 0.24834,0.36067 0.24834,0.87245 0,0.77983 -0.51618,1.1795 -0.51617,0.39479 -1.52904,0.39479 z" />
  <path
     style="font-style:normal;font-variant:normal;font-weight:bold;font-stretch:normal;font-size:13.3333px;line-height:1.25;font-family:monospace;-inkscape-font-specification:'monospace Bold';letter-spacing:0px;word-spacing:0px;fill:#00aeee;fill-opacity:1;stroke:none;stroke-width:0.748306"
     id="path13830"
     d="m 324.09171,627.7514 h 0.47722 v -1.67665 h 1.09565 v 1.67665 h 4.35828 v 1.42808 h -4.35828 v 1.32572 h -1.09565 v -1.32572 h -0.37983 q -0.98366,0 -1.36348,-0.40942 -0.37983,-0.40941 -0.37983,-1.52068 v -1.17463 h 1.09566 v 1.11614 q 0,0.32168 0.11687,0.43866 0.11687,0.1121 0.43339,0.12185 z" />
  <path
     style="font-style:normal;font-variant:normal;font-weight:bold;font-stretch:normal;font-size:13.3333px;line-height:1.25;font-family:monospace;-inkscape-font-specification:'monospace Bold';letter-spacing:0px;word-spacing:0px;fill:#00aeee;fill-opacity:1;stroke:none;stroke-width:0.748306"
     id="path13832"
     d="m 327.74876,623.45742 h -4.20731 v 1.44757 h -1.09566 v -2.87565 h 5.30297 q 0.64279,0 0.91061,-0.19984 0.26783,-0.19983 0.26783,-0.67748 v -1.14052 h 1.09566 v 1.54018 q 0,1.01867 -0.52592,1.4622 -0.52591,0.44354 -1.74818,0.44354 z" />
  <path
     style="font-style:normal;font-variant:normal;font-weight:bold;font-stretch:normal;font-size:13.3333px;line-height:1.25;font-family:monospace;-inkscape-font-specification:'monospace Bold';letter-spacing:0px;word-spacing:0px;fill:#00aeee;fill-opacity:1;stroke:none;stroke-width:0.748306"
     id="path13834"
     d="m 327.46146,615.92222 q 0,0.79934 0.20452,1.11615 0.20452,0.31681 0.70121,0.31681 0.3701,0 0.58922,-0.21933 0.21913,-0.21933 0.21913,-0.59463 0,-0.56538 -0.42364,-0.87732 -0.42853,-0.31194 -1.19306,-0.31194 h -0.0974 z m -0.55027,-1.98859 h 3.11167 v 1.41833 h -0.60871 q 0.36035,0.25833 0.55514,0.66287 0.19478,0.40454 0.19478,0.89194 0,0.93093 -0.49182,1.45245 -0.49184,0.51665 -1.37323,0.51665 -0.95443,0 -1.4073,-0.61901 -0.45774,-0.61899 -0.45774,-1.91547 v -0.98943 h -0.23861 q -0.34574,0 -0.52105,0.25346 -0.18017,0.24857 -0.18017,0.73597 0,0.51176 0.13148,0.99429 0.1266,0.47766 0.40904,0.99917 h -1.21739 q -0.19479,-0.47278 -0.28731,-0.96018 -0.0925,-0.48739 -0.0925,-1.03328 0,-1.3306 0.54052,-1.86674 0.54052,-0.54102 1.93322,-0.54102 z" />
  <path
     style="font-style:normal;font-variant:normal;font-weight:bold;font-stretch:normal;font-size:13.3333px;line-height:1.25;font-family:monospace;-inkscape-font-specification:'monospace Bold';letter-spacing:0px;word-spacing:0px;fill:#00aeee;fill-opacity:1;stroke:none;stroke-width:0.748306"
     id="path13836"
     d="m 327.20823,609.41057 q -0.73043,0 -1.16869,0.27782 -0.44313,0.27781 -0.44313,0.7311 0,0.4484 0.43826,0.72623 0.43826,0.27294 1.17356,0.27294 0.74018,0 1.17845,-0.27294 0.43825,-0.27783 0.43825,-0.72623 0,-0.45329 -0.43825,-0.7311 -0.44313,-0.27782 -1.17845,-0.27782 z m 2.40558,-1.42808 q 1.30991,0 1.88939,0.59463 0.58435,0.58976 0.58435,1.92035 0,0.44841 -0.0681,0.88707 -0.0633,0.43865 -0.19965,0.89194 h -1.30992 q 0.224,-0.40454 0.33114,-0.82371 0.10712,-0.41916 0.10712,-0.86269 0,-0.60437 -0.2873,-0.89194 -0.28243,-0.28757 -0.88627,-0.28757 h -0.58922 q 0.38957,0.20958 0.57948,0.55563 0.18992,0.34606 0.18992,0.84321 0,0.93581 -0.73044,1.48656 -0.73044,0.55076 -1.98191,0.55076 -1.29531,0 -2.05497,-0.55076 -0.75965,-0.55075 -0.75965,-1.47681 0,-0.46791 0.21913,-0.83345 0.21913,-0.36556 0.61844,-0.57514 H 324.569 v -1.42808 z" />
  <path
     style="font-style:normal;font-variant:normal;font-weight:bold;font-stretch:normal;font-size:13.3333px;line-height:1.25;font-family:monospace;-inkscape-font-specification:'monospace Bold';letter-spacing:0px;word-spacing:0px;fill:#00aeee;fill-opacity:1;stroke:none;stroke-width:0.748306"
     id="path13838"
     d="m 329.75502,601.94362 q 0.20453,0.49714 0.30679,1.01379 0.10226,0.51664 0.10226,1.09177 0,1.3696 -0.73044,2.09582 -0.7353,0.72135 -2.1134,0.72135 -1.33426,0 -2.10852,-0.69698 -0.77426,-0.69698 -0.77426,-1.90086 0,-1.21362 0.7207,-1.88136 0.71582,-0.67261 2.02087,-0.67261 h 0.57948 v 3.69936 q 0.64279,-0.005 0.9593,-0.38017 0.31653,-0.3753 0.31653,-1.12102 0,-0.49228 -0.14122,-0.96993 -0.14121,-0.47765 -0.448,-0.99916 z m -3.06783,1.20875 q -0.56487,0.01 -0.85217,0.29244 -0.29218,0.27781 -0.29218,0.8237 0,0.49227 0.30192,0.78471 0.29704,0.29244 0.8473,0.34605 z" />
  <path
     style="font-style:normal;font-variant:normal;font-weight:bold;font-stretch:normal;font-size:13.3333px;line-height:1.25;font-family:monospace;-inkscape-font-specification:'monospace Bold';letter-spacing:0px;word-spacing:0px;fill:#00aeee;fill-opacity:1;stroke:none;stroke-width:0.748306"
     id="path13840"
     d="m 330.02286,594.19885 h -7.27029 v -1.43783 h 6.0042 v -3.07549 h 1.26609 z" />
  <path
     style="font-style:normal;font-variant:normal;font-weight:bold;font-stretch:normal;font-size:13.3333px;line-height:1.25;font-family:monospace;-inkscape-font-specification:'monospace Bold';letter-spacing:0px;word-spacing:0px;fill:#00aeee;fill-opacity:1;stroke:none;stroke-width:0.748306"
     id="path13842"
     d="m 327.46146,585.87407 q 0,0.79933 0.20452,1.11614 0.20452,0.31682 0.70121,0.31682 0.3701,0 0.58922,-0.21934 0.21913,-0.21933 0.21913,-0.59462 0,-0.56539 -0.42364,-0.87732 -0.42853,-0.31193 -1.19306,-0.31193 h -0.0974 z m -0.55027,-1.98859 h 3.11167 v 1.41834 h -0.60871 q 0.36035,0.25832 0.55514,0.66285 0.19478,0.40455 0.19478,0.89195 0,0.93093 -0.49182,1.45244 -0.49184,0.51665 -1.37323,0.51665 -0.95443,0 -1.4073,-0.619 -0.45774,-0.619 -0.45774,-1.91548 v -0.98941 h -0.23861 q -0.34574,0 -0.52105,0.25344 -0.18017,0.24857 -0.18017,0.73597 0,0.51177 0.13148,0.9943 0.1266,0.47765 0.40904,0.99916 h -1.21739 q -0.19479,-0.47277 -0.28731,-0.96017 -0.0925,-0.4874 -0.0925,-1.03329 0,-1.33059 0.54052,-1.86674 0.54052,-0.54101 1.93322,-0.54101 z" />
  <path
     style="font-style:normal;font-variant:normal;font-weight:bold;font-stretch:normal;font-size:13.3333px;line-height:1.25;font-family:monospace;-inkscape-font-specification:'monospace Bold';letter-spacing:0px;word-spacing:0px;fill:#00aeee;fill-opacity:1;stroke:none;stroke-width:0.748306"
     id="path13844"
     d="m 330.61207,579.81083 q 0.76939,0.28756 1.12,0.69211 0.35548,0.39966 0.35548,0.97479 v 1.17951 h -1.08591 v -0.58001 q 0,-0.43866 -0.15096,-0.64336 -0.14609,-0.20471 -0.68661,-0.41429 l -0.29218,-0.10723 -5.30296,2.07632 v -1.50119 l 3.54018,-1.24775 -3.54018,-1.19412 v -1.50119 z" />
  <path
     style="font-style:normal;font-variant:normal;font-weight:bold;font-stretch:normal;font-size:13.3333px;line-height:1.25;font-family:monospace;-inkscape-font-specification:'monospace Bold';letter-spacing:0px;word-spacing:0px;fill:#00aeee;fill-opacity:1;stroke:none;stroke-width:0.748306"
     id="path13846"
     d="m 329.75502,571.89546 q 0.20453,0.49715 0.30679,1.0138 0.10226,0.51664 0.10226,1.09177 0,1.36959 -0.73044,2.09581 -0.7353,0.72135 -2.1134,0.72135 -1.33426,0 -2.10852,-0.69698 -0.77426,-0.69698 -0.77426,-1.90085 0,-1.21363 0.7207,-1.88136 0.71582,-0.67261 2.02087,-0.67261 h 0.57948 v 3.69936 q 0.64279,-0.005 0.9593,-0.38018 0.31653,-0.37529 0.31653,-1.12101 0,-0.49227 -0.14122,-0.96992 -0.14121,-0.47766 -0.448,-0.99918 z m -3.06783,1.20875 q -0.56487,0.01 -0.85217,0.29244 -0.29218,0.27782 -0.29218,0.82371 0,0.49227 0.30192,0.78471 0.29704,0.29244 0.8473,0.34606 z" />
  <path
     style="font-style:normal;font-variant:normal;font-weight:bold;font-stretch:normal;font-size:13.3333px;line-height:1.25;font-family:monospace;-inkscape-font-specification:'monospace Bold';letter-spacing:0px;word-spacing:0px;fill:#00aeee;fill-opacity:1;stroke:none;stroke-width:0.748306"
     id="path13848"
     d="m 326.07363,565.64701 q -0.21426,0.23395 -0.3214,0.55076 -0.10713,0.31193 -0.10713,0.68723 0,0.45328 0.1607,0.79446 0.15583,0.33631 0.45774,0.52152 0.18504,0.11697 0.448,0.16572 0.26295,0.0439 0.79861,0.0439 h 2.51271 v 1.42807 h -5.45393 v -1.42807 h 0.8473 q -0.46748,-0.20959 -0.72069,-0.64337 -0.25809,-0.43378 -0.25809,-1.01379 0,-0.29243 0.073,-0.57026 0.0682,-0.28269 0.20453,-0.53613 z" />
  <path
     style="font-style:normal;font-variant:normal;font-weight:bold;font-stretch:normal;font-size:13.3333px;line-height:1.25;font-family:monospace;-inkscape-font-specification:'monospace Bold';letter-spacing:0px;word-spacing:0px;fill:#00aeee;fill-opacity:1;stroke:none;stroke-width:0.748306"
     id="path13850"
     d="m 326.76998,556.56189 v 0.77009 h -1.26609 v -0.77009 q 0,-0.53614 -0.2094,-0.82858 -0.21426,-0.29732 -0.59895,-0.29732 -0.40418,0 -0.62818,0.29732 -0.22887,0.29244 -0.22887,0.82858 0,0.40941 0.10227,0.87731 0.10225,0.46791 0.29704,0.96993 h -1.30505 q -0.15095,-0.50202 -0.22887,-0.98942 -0.0828,-0.4874 -0.0828,-0.93581 0,-1.15026 0.50158,-1.79362 0.50156,-0.64337 1.38295,-0.64337 0.64766,0 1.06157,0.37043 0.40905,0.37042 0.53565,1.05765 0.13635,-0.77984 0.62331,-1.18926 0.48208,-0.40941 1.27096,-0.40941 1.0567,0 1.61183,0.67749 0.55513,0.67748 0.55513,1.96909 0,0.55076 -0.0925,1.0869 -0.0925,0.53126 -0.26783,1.01866 h -1.33426 q 0.22887,-0.45815 0.35061,-0.98942 0.11687,-0.53126 0.11687,-1.11614 0,-0.58488 -0.26783,-0.92606 -0.27269,-0.34118 -0.73043,-0.34118 -0.56001,0 -0.86192,0.34118 -0.30678,0.34118 -0.30678,0.96505 z" />
  <rect
     y="-718.40826"
     x="-384.60001"
     height="220.54715"
     width="296.60986"
     id="rect15663-3"
     style="clip-rule:evenodd;vector-effect:none;fill:none;fill-opacity:1;fill-rule:evenodd;stroke:#ec008c;stroke-width:0.983622;stroke-linecap:square;stroke-linejoin:miter;stroke-miterlimit:4;stroke-dasharray:none;stroke-dashoffset:0;stroke-opacity:1"
     transform="scale(-1)" />
  <path
     d="m 106.02193,649.5239 c 0,1.56062 1.26669,2.82705 2.82884,2.82705 1.56314,0 2.82982,-1.26643 2.82982,-2.82705 0,-1.56063 -1.26668,-2.82607 -2.82982,-2.82607 -1.56215,0 -2.82884,1.26544 -2.82884,2.82607"
     style="clip-rule:evenodd;fill:none;fill-rule:nonzero;stroke:#bbae00;stroke-width:0.997689;stroke-miterlimit:10;stroke-opacity:1"
     id="path561-9-1-31-3-6-3" />
  <path
     d="m 108.8507,646.5957 v 5.98331"
     style="clip-rule:evenodd;fill:none;fill-rule:nonzero;stroke:#000000;stroke-width:0.673187px;stroke-miterlimit:10;stroke-opacity:1"
     id="path565-7-5-9-2-56-6" />
  <path
     d="m 105.89768,649.52504 h 5.98917"
     style="clip-rule:evenodd;fill:none;fill-rule:nonzero;stroke:#000000;stroke-width:0.673188px;stroke-miterlimit:10;stroke-opacity:1"
     id="path569-2-4-47-0-9-7" />
  <path
     d="m 106.02193,577.47615 c 0,1.56062 1.26669,2.82706 2.82884,2.82706 1.56314,0 2.82982,-1.26644 2.82982,-2.82706 0,-1.56062 -1.26668,-2.82607 -2.82982,-2.82607 -1.56215,0 -2.82884,1.26545 -2.82884,2.82607"
     style="clip-rule:evenodd;fill:none;fill-rule:nonzero;stroke:#bbae00;stroke-width:0.997689;stroke-miterlimit:10;stroke-opacity:1"
     id="path561-9-1-31-3-1-7-5" />
  <path
     d="m 108.8507,574.54796 v 5.9833"
     style="clip-rule:evenodd;fill:none;fill-rule:nonzero;stroke:#000000;stroke-width:0.673187px;stroke-miterlimit:10;stroke-opacity:1"
     id="path565-7-5-9-2-5-4-3" />
  <path
     d="m 105.89768,577.47729 h 5.98917"
     style="clip-rule:evenodd;fill:none;fill-rule:nonzero;stroke:#000000;stroke-width:0.673188px;stroke-miterlimit:10;stroke-opacity:1"
     id="path569-2-4-47-0-5-5-5" />
  <path
     d="m 360.90958,649.52391 c 0,1.56062 1.26669,2.82705 2.82884,2.82705 1.56314,0 2.82982,-1.26643 2.82982,-2.82705 0,-1.56063 -1.26668,-2.82607 -2.82982,-2.82607 -1.56215,0 -2.82884,1.26544 -2.82884,2.82607"
     style="clip-rule:evenodd;fill:none;fill-rule:nonzero;stroke:#bbae00;stroke-width:0.997689;stroke-miterlimit:10;stroke-opacity:1"
     id="path561-9-1-31-3-6-3-2" />
  <path
     d="m 363.73835,646.59571 v 5.98331"
     style="clip-rule:evenodd;fill:none;fill-rule:nonzero;stroke:#000000;stroke-width:0.673187px;stroke-miterlimit:10;stroke-opacity:1"
     id="path565-7-5-9-2-56-6-9" />
  <path
     d="m 360.78533,649.52505 h 5.98917"
     style="clip-rule:evenodd;fill:none;fill-rule:nonzero;stroke:#000000;stroke-width:0.673188px;stroke-miterlimit:10;stroke-opacity:1"
     id="path569-2-4-47-0-9-7-1" />
  <path
     d="m 360.90958,577.47616 c 0,1.56062 1.26669,2.82706 2.82884,2.82706 1.56314,0 2.82982,-1.26644 2.82982,-2.82706 0,-1.56062 -1.26668,-2.82607 -2.82982,-2.82607 -1.56215,0 -2.82884,1.26545 -2.82884,2.82607"
     style="clip-rule:evenodd;fill:none;fill-rule:nonzero;stroke:#bbae00;stroke-width:0.997689;stroke-miterlimit:10;stroke-opacity:1"
     id="path561-9-1-31-3-1-7-5-2" />
  <path
     d="m 363.73835,574.54797 v 5.9833"
     style="clip-rule:evenodd;fill:none;fill-rule:nonzero;stroke:#000000;stroke-width:0.673187px;stroke-miterlimit:10;stroke-opacity:1"
     id="path565-7-5-9-2-5-4-3-7" />
  <path
     d="m 360.78533,577.4773 h 5.98917"
     style="clip-rule:evenodd;fill:none;fill-rule:nonzero;stroke:#000000;stroke-width:0.673188px;stroke-miterlimit:10;stroke-opacity:1"
     id="path569-2-4-47-0-5-5-5-0" />
  <path
     id="path561-9-1-3-7"
     style="clip-rule:evenodd;fill:none;fill-rule:nonzero;stroke:#ea0088;stroke-width:0.99768889;stroke-miterlimit:10;stroke-opacity:1"
     d="m 267.58293,436.21679 c -1.56063,0 -2.82708,-1.26668 -2.82708,-2.82884 0,-1.56314 1.26645,-2.82982 2.82708,-2.82982 1.5606,0 2.82606,1.26668 2.82606,2.82982 0,1.56216 -1.26546,2.82884 -2.82606,2.82884"
     inkscape:connector-curvature="0" />
  <path
     id="path565-7-5-7-3"
     style="clip-rule:evenodd;fill:none;fill-rule:nonzero;stroke:#000000;stroke-width:0.67318726px;stroke-miterlimit:10;stroke-opacity:1"
     d="m 270.51111,433.38802 h -5.98332"
     inkscape:connector-curvature="0" />
  <path
     id="path569-2-4-9-6"
     style="clip-rule:evenodd;fill:none;fill-rule:nonzero;stroke:#000000;stroke-width:0.67318755px;stroke-miterlimit:10;stroke-opacity:1"
     d="m 267.58179,436.34103 v -5.98917"
     inkscape:connector-curvature="0" />
  <path
     inkscape:connector-curvature="0"
     id="path561-9-1-0-1"
     style="clip-rule:evenodd;fill:none;fill-rule:nonzero;stroke:#ea0088;stroke-width:0.99768889;stroke-miterlimit:10;stroke-opacity:1"
     d="m 209.70962,436.21679 c -1.56062,0 -2.82706,-1.26668 -2.82706,-2.82884 0,-1.56314 1.26644,-2.82982 2.82706,-2.82982 1.56062,0 2.82607,1.26668 2.82607,2.82982 0,1.56216 -1.26545,2.82884 -2.82607,2.82884" />
  <path
     inkscape:connector-curvature="0"
     id="path565-7-5-0-2"
     style="clip-rule:evenodd;fill:none;fill-rule:nonzero;stroke:#000000;stroke-width:0.67318726px;stroke-miterlimit:10;stroke-opacity:1"
     d="m 212.63782,433.38802 h -5.98331" />
  <path
     inkscape:connector-curvature="0"
     id="path569-2-4-4-9"
     style="clip-rule:evenodd;fill:none;fill-rule:nonzero;stroke:#000000;stroke-width:0.67318755px;stroke-miterlimit:10;stroke-opacity:1"
     d="m 209.70848,436.34103 v -5.98917" />
  <path
     id="path561-9-1-31"
     style="clip-rule:evenodd;fill:none;fill-rule:nonzero;stroke:#ea0088;stroke-width:0.99768889;stroke-miterlimit:10;stroke-opacity:1"
     d="m 151.83299,436.21686 c -1.56062,0 -2.82706,-1.26669 -2.82706,-2.82884 0,-1.56314 1.26644,-2.82982 2.82706,-2.82982 1.56062,0 2.82607,1.26668 2.82607,2.82982 0,1.56215 -1.26545,2.82884 -2.82607,2.82884"
     inkscape:connector-curvature="0" />
  <path
     id="path565-7-5-9-4"
     style="clip-rule:evenodd;fill:none;fill-rule:nonzero;stroke:#000000;stroke-width:0.67318726px;stroke-miterlimit:10;stroke-opacity:1"
     d="m 154.76119,433.38809 h -5.98331"
     inkscape:connector-curvature="0" />
  <path
     id="path569-2-4-47"
     style="clip-rule:evenodd;fill:none;fill-rule:nonzero;stroke:#000000;stroke-width:0.67318755px;stroke-miterlimit:10;stroke-opacity:1"
     d="m 151.83185,436.34111 v -5.98917"
     inkscape:connector-curvature="0" />
  <path
     style="clip-rule:evenodd;fill:none;fill-rule:evenodd;stroke:#bbae00;stroke-width:0.99525;stroke-linecap:round;stroke-linejoin:round;stroke-miterlimit:1.5;stroke-dasharray:none;stroke-opacity:1"
     d="m 201.10829,607.61676 v 29.63027 h 5.18561 71.2749 5.1856 v -29.63027 h -5.1856 -71.2749 z"
     id="rect771-9-5" />
  <path
     inkscape:connector-curvature="0"
     id="path856-8"
     style="font-style:normal;font-variant:normal;font-weight:bold;font-stretch:normal;font-size:13.3333px;line-height:125%;font-family:monospace;-inkscape-font-specification:'monospace Bold';letter-spacing:0px;word-spacing:0px;fill:#ffcc00;fill-opacity:1;stroke:none;stroke-width:0.749999px;stroke-linecap:butt;stroke-linejoin:miter;stroke-opacity:1"
     d="m 198.45312,670.21096 v 2.13867 h 0.59083 q 0.708,0 0.99121,-0.23927 0.28808,-0.23925 0.28808,-0.83008 0,-0.59082 -0.28808,-0.83008 -0.28321,-0.23927 -0.99121,-0.23927 z m -1.44042,-1.21094 h 1.97754 q 1.50878,0 2.16796,0.53711 0.66406,0.53711 0.66406,1.74316 0,1.20606 -0.66406,1.74317 -0.65918,0.53711 -2.16796,0.53711 h -0.53712 v 2.72948 h -1.44042 z" />
  <path
     inkscape:connector-curvature="0"
     id="path858-8"
     style="font-style:normal;font-variant:normal;font-weight:bold;font-stretch:normal;font-size:13.3333px;line-height:125%;font-family:monospace;-inkscape-font-specification:'monospace Bold';letter-spacing:0px;word-spacing:0px;fill:#ffcc00;fill-opacity:1;stroke:none;stroke-width:0.749999px;stroke-linecap:butt;stroke-linejoin:miter;stroke-opacity:1"
     d="m 205.63086,670.60158 -1.84082,2.88086 h 1.84082 z m -0.12696,-1.60156 h 1.50879 v 4.48242 h 0.80078 v 1.23535 h -0.80078 v 1.57226 h -1.38184 v -1.57226 h -2.89062 v -1.39648 z" />
  <path
     inkscape:connector-curvature="0"
     id="path860-86"
     style="font-style:normal;font-variant:normal;font-weight:bold;font-stretch:normal;font-size:13.3333px;line-height:125%;font-family:monospace;-inkscape-font-specification:'monospace Bold';letter-spacing:0px;word-spacing:0px;fill:#ffcc00;fill-opacity:1;stroke:none;stroke-width:0.749999px;stroke-linecap:butt;stroke-linejoin:miter;stroke-opacity:1"
     d="m 199.22949,687.58889 1.28418,-6.08887 h 1.4502 l -1.7334,7.29005 H 198.2334 L 196.5,681.50002 h 1.4502 z" />
  <path
     inkscape:connector-curvature="0"
     id="path862-8"
     style="font-style:normal;font-variant:normal;font-weight:bold;font-stretch:normal;font-size:13.3333px;line-height:125%;font-family:monospace;-inkscape-font-specification:'monospace Bold';letter-spacing:0px;word-spacing:0px;fill:#ffcc00;fill-opacity:1;stroke:none;stroke-width:0.749999px;stroke-linecap:butt;stroke-linejoin:miter;stroke-opacity:1"
     d="m 203.16016,687.52053 h 1.61132 v -4.73145 l -1.49902,0.3711 v -1.29883 l 1.50879,-0.36133 h 1.3916 v 6.02051 h 1.61133 v 1.26954 h -4.62402 z" />
  <path
     inkscape:connector-curvature="0"
     id="path856-8-0"
     style="font-style:normal;font-variant:normal;font-weight:bold;font-stretch:normal;font-size:13.3333px;line-height:125%;font-family:monospace;-inkscape-font-specification:'monospace Bold';letter-spacing:0px;word-spacing:0px;fill:#ffcc00;fill-opacity:1;stroke:none;stroke-width:0.749999px;stroke-linecap:butt;stroke-linejoin:miter;stroke-opacity:1"
     d="m 216.45313,297.46095 v 2.13867 h 0.59083 q 0.708,0 0.99121,-0.23927 0.28808,-0.23925 0.28808,-0.83008 0,-0.59082 -0.28808,-0.83008 -0.28321,-0.23927 -0.99121,-0.23927 z m -1.44042,-1.21094 h 1.97754 q 1.50878,0 2.16796,0.53711 0.66406,0.53711 0.66406,1.74316 0,1.20606 -0.66406,1.74317 -0.65918,0.53711 -2.16796,0.53711 h -0.53712 v 2.72948 h -1.44042 z" />
  <path
     inkscape:connector-curvature="0"
     id="path858-8-1"
     style="font-style:normal;font-variant:normal;font-weight:bold;font-stretch:normal;font-size:13.3333px;line-height:125%;font-family:monospace;-inkscape-font-specification:'monospace Bold';letter-spacing:0px;word-spacing:0px;fill:#ffcc00;fill-opacity:1;stroke:none;stroke-width:0.749999px;stroke-linecap:butt;stroke-linejoin:miter;stroke-opacity:1"
     d="m 223.63087,297.85157 -1.84082,2.88086 h 1.84082 z m -0.12696,-1.60156 h 1.50879 v 4.48242 h 0.80078 v 1.23535 h -0.80078 v 1.57226 h -1.38184 v -1.57226 h -2.89062 v -1.39648 z" />
  <path
     inkscape:connector-curvature="0"
     id="path860-86-9"
     style="font-style:normal;font-variant:normal;font-weight:bold;font-stretch:normal;font-size:13.3333px;line-height:125%;font-family:monospace;-inkscape-font-specification:'monospace Bold';letter-spacing:0px;word-spacing:0px;fill:#ffcc00;fill-opacity:1;stroke:none;stroke-width:0.749999px;stroke-linecap:butt;stroke-linejoin:miter;stroke-opacity:1"
     d="m 217.2295,314.83888 1.28418,-6.08887 h 1.4502 l -1.7334,7.29005 h -1.99707 l -1.7334,-7.29005 h 1.4502 z" />
  <path
     inkscape:connector-curvature="0"
     id="path862-8-6"
     style="font-style:normal;font-variant:normal;font-weight:bold;font-stretch:normal;font-size:13.3333px;line-height:125%;font-family:monospace;-inkscape-font-specification:'monospace Bold';letter-spacing:0px;word-spacing:0px;fill:#ffcc00;fill-opacity:1;stroke:none;stroke-width:0.749999px;stroke-linecap:butt;stroke-linejoin:miter;stroke-opacity:1"
     d="m 221.16017,314.77052 h 1.61132 v -4.73145 l -1.49902,0.3711 v -1.29883 l 1.50879,-0.36133 h 1.3916 v 6.02051 h 1.61133 v 1.26954 h -4.62402 z" />
</svg>
