<?xml version="1.0" encoding="UTF-8" standalone="no"?>
<svg
   id="svg879"
   version="1.1"
   viewBox="0 0 210 297"
   height="297mm"
   width="210mm"
   sodipodi:docname="sheet_9_opistech.svg"
   inkscape:version="1.3.1 (9b9bdc1480, 2023-11-25, custom)"
   xmlns:inkscape="http://www.inkscape.org/namespaces/inkscape"
   xmlns:sodipodi="http://sodipodi.sourceforge.net/DTD/sodipodi-0.dtd"
   xmlns="http://www.w3.org/2000/svg"
   xmlns:svg="http://www.w3.org/2000/svg"
   xmlns:rdf="http://www.w3.org/1999/02/22-rdf-syntax-ns#"
   xmlns:cc="http://creativecommons.org/ns#"
   xmlns:dc="http://purl.org/dc/elements/1.1/">
  <sodipodi:namedview
     id="namedview14351"
     pagecolor="#ffffff"
     bordercolor="#666666"
     borderopacity="1.0"
     inkscape:showpageshadow="2"
     inkscape:pageopacity="0.0"
     inkscape:pagecheckerboard="0"
     inkscape:deskcolor="#d1d1d1"
     inkscape:document-units="mm"
     showgrid="false"
     inkscape:zoom="0.5683642"
     inkscape:cx="334.29269"
     inkscape:cy="562.13956"
     inkscape:window-width="1517"
     inkscape:window-height="812"
     inkscape:window-x="75"
     inkscape:window-y="0"
     inkscape:window-maximized="0"
     inkscape:current-layer="svg879" />
  <defs
     id="defs873" />
  <metadata
     id="metadata876">
    <rdf:RDF>
      <cc:Work
         rdf:about="">
        <dc:format>image/svg+xml</dc:format>
        <dc:type
           rdf:resource="http://purl.org/dc/dcmitype/StillImage" />
      </cc:Work>
    </rdf:RDF>
  </metadata>
  <path
     id="rect1426"
     d="M 71.02087,253.222 V 101.75434 H 31.108466 V 56.754336 H 71.02087 V 43.777856 H 178.62958 V 253.222 Z"
     style="opacity:1;vector-effect:none;fill:none;fill-opacity:1;fill-rule:evenodd;stroke:#ec008c;stroke-width:0.21699999;stroke-linecap:square;stroke-linejoin:miter;stroke-miterlimit:4;stroke-dasharray:none;stroke-dashoffset:0;stroke-opacity:1" />
  <path
     style="font-style:normal;font-variant:normal;font-weight:bold;font-stretch:normal;font-size:13.33333302px;line-height:125%;font-family:monospace;-inkscape-font-specification:'monospace Bold';letter-spacing:0px;word-spacing:0px;fill:#000000;fill-opacity:1;stroke:none;stroke-width:0.26458299px;stroke-linecap:butt;stroke-linejoin:miter;stroke-opacity:1"
     id="path7882"
     d="m 68.318354,166.69085 q -0.146415,0.38413 -0.306612,0.52021 -0.16192,0.13608 -0.434083,0.13608 -0.349675,0 -0.549491,-0.22393 -0.199816,-0.22393 -0.199816,-0.61495 0,-0.17742 0.04134,-0.35485 0.03962,-0.17742 0.118856,-0.3514 h 0.496093 q -0.115411,0.16365 -0.175699,0.33246 -0.06029,0.1688 -0.06029,0.33417 0,0.18431 0.07407,0.2825 0.07407,0.0982 0.211873,0.0982 0.106798,0 0.177424,-0.0706 0.0689,-0.0724 0.153304,-0.29973 l 0.08268,-0.21876 q 0.113689,-0.31006 0.301448,-0.45647 0.187756,-0.14642 0.473699,-0.14642 0.389296,0 0.58222,0.23082 0.191203,0.2291 0.191203,0.69419 0,0.1912 -0.04651,0.38412 -0.04479,0.19121 -0.134361,0.37035 h -0.525374 q 0.144692,-0.20326 0.215318,-0.39274 0.07062,-0.1912 0.07062,-0.37723 0,-0.18776 -0.08441,-0.29111 -0.08613,-0.10336 -0.239434,-0.10336 -0.115411,0 -0.201538,0.0689 -0.08785,0.0689 -0.137803,0.19982 z" />
  <path
     style="font-style:normal;font-variant:normal;font-weight:bold;font-stretch:normal;font-size:13.33333302px;line-height:125%;font-family:monospace;-inkscape-font-specification:'monospace Bold';letter-spacing:0px;word-spacing:0px;fill:#000000;fill-opacity:1;stroke:none;stroke-width:0.26458299px;stroke-linecap:butt;stroke-linejoin:miter;stroke-opacity:1"
     id="path7884"
     d="m 68.194331,163.60232 h 1.252292 v 0.50126 h -1.174778 q -0.208427,0 -0.297999,0.0603 -0.08957,0.0586 -0.08957,0.19293 0,0.1378 0.122301,0.21532 0.120578,0.0775 0.335896,0.0775 h 1.104152 v 0.50126 h -2.680281 v -0.50126 h 1.040417 q -0.160197,-0.0534 -0.248047,-0.18259 -0.08785,-0.12919 -0.08785,-0.31178 0,-0.27388 0.182588,-0.41341 0.180869,-0.13953 0.540879,-0.13953 z" />
  <path
     style="font-style:normal;font-variant:normal;font-weight:bold;font-stretch:normal;font-size:13.33333302px;line-height:125%;font-family:monospace;-inkscape-font-specification:'monospace Bold';letter-spacing:0px;word-spacing:0px;fill:#000000;fill-opacity:1;stroke:none;stroke-width:0.26458299px;stroke-linecap:butt;stroke-linejoin:miter;stroke-opacity:1"
     id="path7886"
     d="m 69.351881,161.42675 q 0.07235,0.1757 0.108522,0.35829 0.03617,0.18259 0.03617,0.38585 0,0.48403 -0.258381,0.74069 -0.260106,0.25494 -0.747584,0.25494 -0.471979,0 -0.745862,-0.24633 -0.273886,-0.24632 -0.273886,-0.67179 0,-0.42891 0.254936,-0.6649 0.253214,-0.23771 0.714856,-0.23771 h 0.204983 v 1.30741 q 0.227377,-0.002 0.339341,-0.13436 0.111966,-0.13263 0.111966,-0.39618 0,-0.17398 -0.04995,-0.34279 -0.04995,-0.16881 -0.158475,-0.35312 z m -1.085203,0.42719 q -0.199816,0.003 -0.301445,0.10335 -0.103354,0.0982 -0.103354,0.29111 0,0.17398 0.106799,0.27733 0.105074,0.10335 0.299723,0.1223 z" />
  <path
     style="font-style:normal;font-variant:normal;font-weight:bold;font-stretch:normal;font-size:13.33333302px;line-height:125%;font-family:monospace;-inkscape-font-specification:'monospace Bold';letter-spacing:0px;word-spacing:0px;fill:#000000;fill-opacity:1;stroke:none;stroke-width:0.26458299px;stroke-linecap:butt;stroke-linejoin:miter;stroke-opacity:1"
     id="path7888"
     d="m 69.351881,159.30457 q 0.07235,0.1757 0.108522,0.35829 0.03617,0.18259 0.03617,0.38585 0,0.48404 -0.258381,0.7407 -0.260106,0.25493 -0.747584,0.25493 -0.471979,0 -0.745862,-0.24632 -0.273886,-0.24632 -0.273886,-0.67179 0,-0.42892 0.254936,-0.66491 0.253214,-0.23771 0.714856,-0.23771 h 0.204983 v 1.30742 q 0.227377,-0.002 0.339341,-0.13436 0.111966,-0.13264 0.111966,-0.39619 0,-0.17398 -0.04995,-0.34279 -0.04995,-0.16881 -0.158475,-0.35312 z m -1.085203,0.42719 q -0.199816,0.003 -0.301445,0.10336 -0.103354,0.0982 -0.103354,0.29111 0,0.17397 0.106799,0.27733 0.105074,0.10335 0.299723,0.1223 z" />
  <path
     style="font-style:normal;font-variant:normal;font-weight:bold;font-stretch:normal;font-size:13.33333302px;line-height:125%;font-family:monospace;-inkscape-font-specification:'monospace Bold';letter-spacing:0px;word-spacing:0px;fill:#000000;fill-opacity:1;stroke:none;stroke-width:0.26458299px;stroke-linecap:butt;stroke-linejoin:miter;stroke-opacity:1"
     id="path7890"
     d="m 66.969602,157.89209 h 0.547769 v -0.65974 h 0.387572 v 0.65974 h 0.912949 q 0.129193,0 0.186036,-0.062 0.05512,-0.0637 0.05512,-0.21015 v -0.38757 h 0.387574 v 0.42375 q 0,0.43408 -0.137805,0.58738 -0.139526,0.15331 -0.51504,0.15331 h -0.888835 v 0.49265 h -0.387571 v -0.49265 h -0.547769 z" />
  <path
     style="font-style:normal;font-variant:normal;font-weight:bold;font-stretch:normal;font-size:13.33333302px;line-height:125%;font-family:monospace;-inkscape-font-specification:'monospace Bold';letter-spacing:0px;word-spacing:0px;fill:#000000;fill-opacity:1;stroke:none;stroke-width:0.26458299px;stroke-linecap:butt;stroke-linejoin:miter;stroke-opacity:1"
     id="path7892"
     d="m 69.412172,154.48661 h -0.463364 q 0.07924,-0.13608 0.11713,-0.2601 0.0379,-0.12575 0.0379,-0.24116 0,-0.27388 -0.182589,-0.41685 -0.184314,-0.1447 -0.549491,-0.15331 0.111963,0.081 0.168809,0.2067 0.05512,0.12575 0.05512,0.29801 0,0.34623 -0.218762,0.53571 -0.220488,0.18948 -0.623561,0.18948 -0.430638,0 -0.666625,-0.21188 -0.23599,-0.21187 -0.23599,-0.59944 0,-0.47026 0.315227,-0.68213 0.313502,-0.2136 1.014578,-0.2136 0.666625,0 1.000799,0.26011 0.332451,0.2601 0.332451,0.78031 0,0.12058 -0.02582,0.24977 -0.02585,0.12747 -0.07579,0.25838 z m -1.241956,-0.66662 q 0,-0.16365 -0.118855,-0.24977 -0.120579,-0.0879 -0.347954,-0.0879 -0.225654,0 -0.34451,0.0879 -0.120579,0.0861 -0.120579,0.24977 0,0.16536 0.120579,0.25493 0.118856,0.0879 0.34451,0.0879 0.225653,0 0.346231,-0.0879 0.120578,-0.0896 0.120578,-0.25493 z" />
  <path
     style="font-style:normal;font-variant:normal;font-weight:bold;font-stretch:normal;font-size:13.33333302px;line-height:125%;font-family:monospace;-inkscape-font-specification:'monospace Bold';letter-spacing:0px;word-spacing:0px;fill:#000000;fill-opacity:1;stroke:none;stroke-width:0.26458299px;stroke-linecap:butt;stroke-linejoin:miter;stroke-opacity:1"
     id="path7894"
     d="m 68.180551,150.07345 v -1.08692 h 0.501261 v 1.08692 z" />
  <path
     style="font-style:normal;font-variant:normal;font-weight:bold;font-stretch:normal;font-size:13.33333302px;line-height:125%;font-family:monospace;-inkscape-font-specification:'monospace Bold';letter-spacing:0px;word-spacing:0px;fill:#000000;fill-opacity:1;stroke:none;stroke-width:0.26458299px;stroke-linecap:butt;stroke-linejoin:miter;stroke-opacity:1"
     id="path7896"
     d="m 67.284827,145.2865 q 0,0.19465 0.208427,0.28422 0.206706,0.0896 0.670073,0.0896 0.461642,0 0.670069,-0.0896 0.206706,-0.0896 0.206706,-0.28422 0,-0.19637 -0.206706,-0.28595 -0.208427,-0.0896 -0.670069,-0.0896 -0.463367,0 -0.670073,0.0896 -0.208427,0.0896 -0.208427,0.28595 z m 0.8785,0.90261 q -0.659735,0 -0.997354,-0.22737 -0.337621,-0.2291 -0.337621,-0.67524 0,-0.44786 0.337621,-0.67524 0.337619,-0.2291 0.997354,-0.2291 0.658012,0 0.995631,0.2291 0.337618,0.22738 0.337618,0.67524 0,0.44614 -0.337618,0.67524 -0.337619,0.22737 -0.995631,0.22737 z" />
  <path
     style="font-style:normal;font-variant:normal;font-weight:bold;font-stretch:normal;font-size:13.33333302px;line-height:125%;font-family:monospace;-inkscape-font-specification:'monospace Bold';letter-spacing:0px;word-spacing:0px;fill:#000000;fill-opacity:1;stroke:none;stroke-width:0.26458299px;stroke-linecap:butt;stroke-linejoin:miter;stroke-opacity:1"
     id="path7898"
     d="m 69.17446,143.46404 h 1.005966 v 0.50299 h -2.663055 v -0.50299 h 0.289388 q -0.167087,-0.0792 -0.251492,-0.20842 -0.0844,-0.12919 -0.0844,-0.30317 0,-0.33073 0.265271,-0.51332 0.265273,-0.18259 0.747584,-0.18259 0.489204,0 0.751032,0.18603 0.261826,0.18432 0.261826,0.5271 0,0.15503 -0.07924,0.27906 -0.08096,0.1223 -0.24288,0.21531 z m -0.694187,-0.70279 q -0.27905,0 -0.437525,0.093 -0.158474,0.093 -0.158474,0.25666 0,0.16364 0.158474,0.25838 0.158475,0.0947 0.437525,0.0947 0.279053,0 0.437528,-0.0947 0.158475,-0.0947 0.158475,-0.25838 0,-0.16364 -0.158475,-0.25666 -0.158475,-0.093 -0.437528,-0.093 z" />
  <path
     style="font-style:normal;font-variant:normal;font-weight:bold;font-stretch:normal;font-size:13.33333302px;line-height:125%;font-family:monospace;-inkscape-font-specification:'monospace Bold';letter-spacing:0px;word-spacing:0px;fill:#000000;fill-opacity:1;stroke:none;stroke-width:0.26458299px;stroke-linecap:butt;stroke-linejoin:miter;stroke-opacity:1"
     id="path7900"
     d="m 67.517371,141.72255 v -0.99908 h 1.541678 v -0.627 h 0.387574 v 1.76044 h -0.387574 v -0.62873 h -1.154106 v 0.49437 z m -0.938788,-0.49437 v -0.50471 h 0.589113 v 0.50471 z" />
  <path
     style="font-style:normal;font-variant:normal;font-weight:bold;font-stretch:normal;font-size:13.33333302px;line-height:125%;font-family:monospace;-inkscape-font-specification:'monospace Bold';letter-spacing:0px;word-spacing:0px;fill:#000000;fill-opacity:1;stroke:none;stroke-width:0.26458299px;stroke-linecap:butt;stroke-linejoin:miter;stroke-opacity:1"
     id="path7902"
     d="m 67.577659,138.27402 h 0.440973 q -0.08957,0.13952 -0.134358,0.29111 -0.04651,0.14986 -0.04651,0.30144 0,0.16881 0.04995,0.25494 0.04823,0.0861 0.144692,0.0861 0.137805,0 0.223933,-0.36862 l 0.0052,-0.0189 0.03445,-0.14469 q 0.06546,-0.27561 0.211873,-0.40307 0.144693,-0.12919 0.392739,-0.12919 0.298003,0 0.447862,0.19636 0.14814,0.19465 0.14814,0.58739 0,0.17398 -0.03101,0.35657 -0.02928,0.18259 -0.08957,0.37035 H 68.93505 q 0.09474,-0.16709 0.144696,-0.33934 0.04995,-0.17398 0.04995,-0.3359 0,-0.17742 -0.05168,-0.26872 -0.05168,-0.0913 -0.149862,-0.0913 -0.09646,0 -0.148138,0.0654 -0.05168,0.0637 -0.110243,0.30662 l -0.03101,0.13952 q -0.06546,0.28939 -0.204983,0.42203 -0.139525,0.13263 -0.373792,0.13263 -0.279053,0 -0.43408,-0.20154 -0.15503,-0.20153 -0.15503,-0.56671 0,-0.16365 0.02756,-0.32557 0.02582,-0.16364 0.07923,-0.31694 z" />
  <path
     style="font-style:normal;font-variant:normal;font-weight:bold;font-stretch:normal;font-size:13.33333302px;line-height:125%;font-family:monospace;-inkscape-font-specification:'monospace Bold';letter-spacing:0px;word-spacing:0px;fill:#000000;fill-opacity:1;stroke:none;stroke-width:0.26458299px;stroke-linecap:butt;stroke-linejoin:miter;stroke-opacity:1"
     id="path7904"
     d="m 69.446623,136.54286 v 0.50815 h -2.127345 v 0.65284 H 66.87486 v -1.81384 h 0.444418 v 0.65285 z" />
  <path
     style="font-style:normal;font-variant:normal;font-weight:bold;font-stretch:normal;font-size:13.33333302px;line-height:125%;font-family:monospace;-inkscape-font-specification:'monospace Bold';letter-spacing:0px;word-spacing:0px;fill:#000000;fill-opacity:1;stroke:none;stroke-width:0.26458299px;stroke-linecap:butt;stroke-linejoin:miter;stroke-opacity:1"
     id="path7906"
     d="m 69.351881,133.83846 q 0.07235,0.1757 0.108522,0.35829 0.03617,0.18259 0.03617,0.38585 0,0.48403 -0.258381,0.7407 -0.260106,0.25493 -0.747584,0.25493 -0.471979,0 -0.745862,-0.24632 -0.273886,-0.24633 -0.273886,-0.67179 0,-0.42892 0.254936,-0.66491 0.253214,-0.23771 0.714856,-0.23771 h 0.204983 v 1.30741 q 0.227377,-0.002 0.339341,-0.13436 0.111966,-0.13263 0.111966,-0.39618 0,-0.17398 -0.04995,-0.34279 -0.04995,-0.16881 -0.158475,-0.35312 z m -1.085203,0.42719 q -0.199816,0.003 -0.301445,0.10336 -0.103354,0.0982 -0.103354,0.29111 0,0.17397 0.106799,0.27732 0.105074,0.10336 0.299723,0.1223 z" />
  <path
     style="font-style:normal;font-variant:normal;font-weight:bold;font-stretch:normal;font-size:13.33333302px;line-height:125%;font-family:monospace;-inkscape-font-specification:'monospace Bold';letter-spacing:0px;word-spacing:0px;fill:#000000;fill-opacity:1;stroke:none;stroke-width:0.26458299px;stroke-linecap:butt;stroke-linejoin:miter;stroke-opacity:1"
     id="path7908"
     d="m 69.348436,131.78691 q 0.07407,0.12747 0.110244,0.27388 0.0379,0.14642 0.0379,0.31523 0,0.44614 -0.268718,0.69763 -0.268716,0.25149 -0.74414,0.25149 -0.477143,0 -0.745862,-0.25321 -0.270438,-0.25322 -0.270438,-0.69936 0,-0.15503 0.03617,-0.298 0.03617,-0.14469 0.111963,-0.28766 H 68.0772 q -0.09474,0.11024 -0.144695,0.24288 -0.05168,0.13091 -0.05168,0.27216 0,0.24632 0.156752,0.37896 0.15675,0.13264 0.446137,0.13264 0.289388,0 0.444418,-0.13264 0.155029,-0.13264 0.155029,-0.37896 0,-0.14642 -0.04823,-0.27388 -0.04996,-0.12747 -0.149863,-0.24116 z" />
  <path
     style="font-style:normal;font-variant:normal;font-weight:bold;font-stretch:normal;font-size:13.33333302px;line-height:125%;font-family:monospace;-inkscape-font-specification:'monospace Bold';letter-spacing:0px;word-spacing:0px;fill:#000000;fill-opacity:1;stroke:none;stroke-width:0.26458299px;stroke-linecap:butt;stroke-linejoin:miter;stroke-opacity:1"
     id="path7910"
     d="m 68.194331,129.64751 h 1.252292 v 0.50126 h -1.174778 q -0.208427,0 -0.297999,0.0603 -0.08957,0.0586 -0.08957,0.19292 0,0.13781 0.122301,0.21532 0.120578,0.0775 0.335896,0.0775 h 1.104152 v 0.50126 h -2.680281 v -0.50126 h 1.040417 q -0.160197,-0.0534 -0.248047,-0.1826 -0.08785,-0.12919 -0.08785,-0.31177 0,-0.27389 0.182588,-0.41342 0.180869,-0.13952 0.54088,-0.13952 z" />
  <path
     d="m 223.27165,97.553933 c -0.55034,0 -0.99695,0.446916 -0.99695,0.998075 0,0.551515 0.44661,0.998431 0.99695,0.998431 0.55034,0 0.99659,-0.446916 0.99659,-0.998431 0,-0.551159 -0.44625,-0.998075 -0.99659,-0.998075"
     style="stroke:#ea0088;stroke-miterlimit:10;stroke-opacity:1;fill-rule:nonzero;clip-rule:evenodd;stroke-width:0.35191742;fill:none"
     id="path561-9-1-7-6-3-6"
     transform="matrix(1.000000,0.000000,0.000000,1.000000,-187.177610,-19.359861)" />
  <path
     d="m 224.30423,98.551892 h -2.10996"
     style="stroke:#000000;stroke-miterlimit:10;stroke-opacity:1;fill-rule:nonzero;clip-rule:evenodd;stroke-width:0.23745506px;fill:none"
     id="path565-7-5-6-06-5-7"
     transform="matrix(1.000000,0.000000,0.000000,1.000000,-187.177610,-19.359861)" />
  <path
     transform="matrix(1.000000,0.000000,0.000000,1.000000,-187.177610,-19.359861)"
     d="m 223.27119,97.510026 v 2.113115"
     style="stroke:#000000;stroke-miterlimit:10;stroke-opacity:1;fill-rule:nonzero;clip-rule:evenodd;stroke-width:0.2374551px;fill:none"
     id="path569-2-4-5-6-2-5" />
  <path
     d="m 205.61694,79.230585 c 0.55034,0 0.99695,-0.446917 0.99695,-0.998075 0,-0.551516 -0.44661,-0.998432 -0.99695,-0.998432 -0.55034,0 -0.99659,0.446916 -0.99659,0.998432 0,0.551158 0.44625,0.998075 0.99659,0.998075"
     style="stroke:#ea0088;stroke-miterlimit:10;stroke-opacity:1;fill-rule:nonzero;clip-rule:evenodd;stroke-width:0.35191742;fill:none"
     id="path561-9-1-12-9"
     transform="matrix(0.000000,-1.000000,1.000000,0.000000,-12.208330,302.390270)" />
  <path
     d="m 204.58436,78.232626 h 2.10996"
     style="stroke:#000000;stroke-miterlimit:10;stroke-opacity:1;fill-rule:nonzero;clip-rule:evenodd;stroke-width:0.23745506px;fill:none"
     id="path565-7-5-1-3"
     transform="matrix(0.000000,-1.000000,1.000000,0.000000,-12.208330,302.390270)" />
  <path
     d="M 205.6174,79.274492 V 77.161378"
     style="stroke:#000000;stroke-miterlimit:10;stroke-opacity:1;fill-rule:nonzero;clip-rule:evenodd;stroke-width:0.2374551px;fill:none"
     id="path569-2-4-4-6"
     transform="matrix(0.000000,-1.000000,1.000000,0.000000,-12.208330,302.390270)" />
  <path
     d="m 205.61694,79.230585 c 0.55034,0 0.99695,-0.446917 0.99695,-0.998075 0,-0.551516 -0.44661,-0.998432 -0.99695,-0.998432 -0.55034,0 -0.99659,0.446916 -0.99659,0.998432 0,0.551158 0.44625,0.998075 0.99659,0.998075"
     style="stroke:#ea0088;stroke-miterlimit:10;stroke-opacity:1;fill-rule:nonzero;clip-rule:evenodd;stroke-width:0.35191742;fill:none"
     id="path561-9-1-12-2"
     transform="matrix(0.000000,-1.000000,1.000000,0.000000,-12.208320,267.359040)" />
  <path
     d="m 204.58436,78.232626 h 2.10996"
     style="stroke:#000000;stroke-miterlimit:10;stroke-opacity:1;fill-rule:nonzero;clip-rule:evenodd;stroke-width:0.23745506px;fill:none"
     id="path565-7-5-1-6"
     transform="matrix(0.000000,-1.000000,1.000000,0.000000,-12.208320,267.359040)" />
  <path
     d="M 205.6174,79.274492 V 77.161378"
     style="stroke:#000000;stroke-miterlimit:10;stroke-opacity:1;fill-rule:nonzero;clip-rule:evenodd;stroke-width:0.2374551px;fill:none"
     id="path569-2-4-4-1"
     transform="matrix(0.000000,-1.000000,1.000000,0.000000,-12.208320,267.359040)" />
  <g
     id="layer8"
     style="display:inline"
     transform="translate(-2.3842484e-6)" />
  <path
     id="path1741"
     style="font-style:normal;font-variant:normal;font-weight:bold;font-stretch:normal;font-size:13.3333px;line-height:125%;font-family:monospace;-inkscape-font-specification:'monospace Bold';letter-spacing:0px;word-spacing:0px;display:inline;fill:#00aeee;fill-opacity:1;stroke:none;stroke-width:0.264583px;stroke-linecap:butt;stroke-linejoin:miter;stroke-opacity:1"
     d="m 76.197278,168.19209 h -0.490921 v 0.34796 h -0.427199 v -0.79238 h 1.178229 q 0.125741,0.14642 0.191202,0.32384 0.0637,0.1757 0.0637,0.37722 0,0.49955 -0.346229,0.77171 -0.347961,0.27217 -0.98702,0.27217 -0.649401,0 -0.99219,-0.2739 -0.342781,-0.2756 -0.342781,-0.79408 0,-0.15503 0.0448,-0.30489 0.0431,-0.14986 0.125751,-0.28077 h 0.563261 q -0.137795,0.10679 -0.206698,0.24633 -0.0706,0.13778 -0.0706,0.30315 0,0.28938 0.218757,0.43236 0.21704,0.14298 0.659741,0.14298 0.428908,0 0.652838,-0.13781 0.223941,-0.13781 0.223941,-0.40135 0,-0.0792 -0.01381,-0.13781 -0.0155,-0.0586 -0.0448,-0.0947 z" />
  <path
     id="path1743"
     style="font-style:normal;font-variant:normal;font-weight:bold;font-stretch:normal;font-size:13.3333px;line-height:125%;font-family:monospace;-inkscape-font-specification:'monospace Bold';letter-spacing:0px;word-spacing:0px;display:inline;fill:#00aeee;fill-opacity:1;stroke:none;stroke-width:0.264583px;stroke-linecap:butt;stroke-linejoin:miter;stroke-opacity:1"
     d="m 75.265387,165.58932 q -0.0758,0.0827 -0.113689,0.19465 -0.0379,0.11024 -0.0379,0.24287 0,0.1602 0.0568,0.28078 0.0551,0.11886 0.161917,0.18431 0.0655,0.0413 0.158469,0.0586 0.093,0.0155 0.282501,0.0155 h 0.888831 v 0.50471 h -1.929252 v -0.50472 h 0.29972 q -0.165359,-0.0741 -0.254939,-0.22737 -0.0913,-0.1533 -0.0913,-0.35828 0,-0.10336 0.0258,-0.20154 0.0241,-0.0999 0.0724,-0.18949 z" />
  <path
     id="path1745"
     style="font-style:normal;font-variant:normal;font-weight:bold;font-stretch:normal;font-size:13.3333px;line-height:125%;font-family:monospace;-inkscape-font-specification:'monospace Bold';letter-spacing:0px;word-spacing:0px;display:inline;fill:#00aeee;fill-opacity:1;stroke:none;stroke-width:0.264583px;stroke-linecap:butt;stroke-linejoin:miter;stroke-opacity:1"
     d="m 75.756308,164.24399 q 0,0.28252 0.0724,0.39447 0.0723,0.11198 0.248052,0.11198 0.130908,0 0.208431,-0.0775 0.0775,-0.0775 0.0775,-0.21014 0,-0.19982 -0.14986,-0.31006 -0.15159,-0.11024 -0.422029,-0.11024 h -0.0345 z m -0.194652,-0.70278 h 1.100712 v 0.50127 h -0.215321 q 0.127471,0.0913 0.196372,0.23427 0.0689,0.14295 0.0689,0.31521 0,0.32901 -0.173966,0.51333 -0.173985,0.18258 -0.485762,0.18258 -0.337624,0 -0.497824,-0.21876 -0.161917,-0.21876 -0.161917,-0.67696 v -0.34967 h -0.0844 q -0.122301,0 -0.184309,0.0896 -0.0637,0.0878 -0.0637,0.26009 0,0.18088 0.0465,0.35141 0.0448,0.1688 0.144698,0.35312 h -0.430641 q -0.0689,-0.16709 -0.101629,-0.33935 -0.0327,-0.17225 -0.0327,-0.36518 0,-0.47024 0.191201,-0.65972 0.191198,-0.19122 0.683853,-0.19122 z" />
  <path
     id="path1747"
     style="font-style:normal;font-variant:normal;font-weight:bold;font-stretch:normal;font-size:13.3333px;line-height:125%;font-family:monospace;-inkscape-font-specification:'monospace Bold';letter-spacing:0px;word-spacing:0px;display:inline;fill:#00aeee;fill-opacity:1;stroke:none;stroke-width:0.264583px;stroke-linecap:butt;stroke-linejoin:miter;stroke-opacity:1"
     d="m 75.410077,161.48277 h 1.252291 v 0.50127 h -1.174782 q -0.210148,0 -0.29972,0.0603 -0.0913,0.0586 -0.0913,0.19292 0,0.13609 0.122301,0.21531 0.122301,0.0775 0.339339,0.0775 h 1.104151 v 0.50125 h -1.929249 v -0.50125 h 0.289388 q -0.1602,-0.0534 -0.248046,-0.1826 -0.0879,-0.12918 -0.0879,-0.31178 0,-0.27387 0.182592,-0.4134 0.180869,-0.13953 0.540879,-0.13953 z" />
  <path
     id="path1749"
     style="font-style:normal;font-variant:normal;font-weight:bold;font-stretch:normal;font-size:13.3333px;line-height:125%;font-family:monospace;-inkscape-font-specification:'monospace Bold';letter-spacing:0px;word-spacing:0px;display:inline;fill:#00aeee;fill-opacity:1;stroke:none;stroke-width:0.264583px;stroke-linecap:butt;stroke-linejoin:miter;stroke-opacity:1"
     d="m 75.410077,159.3606 h 1.252291 v 0.50127 h -1.174782 q -0.210148,0 -0.29972,0.0603 -0.0913,0.0586 -0.0913,0.19292 0,0.13609 0.122301,0.21533 0.122301,0.0775 0.339339,0.0775 h 1.104151 v 0.50125 h -1.929249 v -0.50125 h 0.289388 q -0.1602,-0.0534 -0.248046,-0.1826 -0.0879,-0.12918 -0.0879,-0.31177 0,-0.27388 0.182592,-0.41341 0.180869,-0.13952 0.540879,-0.13952 z" />
  <path
     id="path1751"
     style="font-style:normal;font-variant:normal;font-weight:bold;font-stretch:normal;font-size:13.3333px;line-height:125%;font-family:monospace;-inkscape-font-specification:'monospace Bold';letter-spacing:0px;word-spacing:0px;display:inline;fill:#00aeee;fill-opacity:1;stroke:none;stroke-width:0.264583px;stroke-linecap:butt;stroke-linejoin:miter;stroke-opacity:1"
     d="m 75.096577,158.02217 q 0,0.18087 0.160189,0.28423 0.158481,0.10336 0.442701,0.10336 0.284224,0 0.44441,-0.10336 0.15848,-0.10336 0.15848,-0.28423 0,-0.18258 -0.15848,-0.28592 -0.160186,-0.10337 -0.44441,-0.10337 -0.28422,0 -0.442701,0.10337 -0.160189,0.10334 -0.160189,0.28592 z m 0.60289,0.89229 q -0.466809,0 -0.73897,-0.24116 -0.273889,-0.24288 -0.273889,-0.65113 0,-0.40996 0.273889,-0.65111 0.272161,-0.24288 0.73897,-0.24288 0.466813,0 0.740691,0.24288 0.272158,0.24115 0.272158,0.65111 0,0.40825 -0.272158,0.65113 -0.273878,0.24116 -0.740691,0.24116 z" />
  <path
     id="path1753"
     style="font-style:normal;font-variant:normal;font-weight:bold;font-stretch:normal;font-size:13.3333px;line-height:125%;font-family:monospace;-inkscape-font-specification:'monospace Bold';letter-spacing:0px;word-spacing:0px;display:inline;fill:#00aeee;fill-opacity:1;stroke:none;stroke-width:0.264583px;stroke-linecap:butt;stroke-linejoin:miter;stroke-opacity:1"
     d="m 76.390207,156.19972 h 1.005959 v 0.50299 h -2.66305 v -0.50299 h 0.289391 q -0.16709,-0.0792 -0.2515,-0.20843 -0.0844,-0.12919 -0.0844,-0.30316 0,-0.33074 0.265279,-0.51332 0.265271,-0.18259 0.74758,-0.18259 0.48921,0 0.751031,0.18603 0.261829,0.18431 0.261829,0.5271 0,0.15503 -0.0792,0.27905 -0.081,0.12231 -0.242879,0.21532 z m -0.69419,-0.70279 q -0.279051,0 -0.43752,0.093 -0.15848,0.093 -0.15848,0.25666 0,0.16363 0.15848,0.25838 0.158469,0.0947 0.43752,0.0947 0.279051,0 0.437534,-0.0947 0.158467,-0.0947 0.158467,-0.25838 0,-0.16364 -0.158467,-0.25666 -0.158483,-0.093 -0.437534,-0.093 z" />
  <path
     id="path1755"
     style="font-style:normal;font-variant:normal;font-weight:bold;font-stretch:normal;font-size:13.3333px;line-height:125%;font-family:monospace;-inkscape-font-specification:'monospace Bold';letter-spacing:0px;word-spacing:0px;display:inline;fill:#00aeee;fill-opacity:1;stroke:none;stroke-width:0.264583px;stroke-linecap:butt;stroke-linejoin:miter;stroke-opacity:1"
     d="m 75.410077,152.99407 h 1.252291 v 0.50126 h -1.174782 q -0.208428,0 -0.298,0.0603 -0.0896,0.0586 -0.0896,0.19291 0,0.1378 0.122301,0.21532 0.120578,0.0775 0.335899,0.0775 h 1.104148 v 0.50126 h -2.680279 v -0.50126 h 1.040424 q -0.1602,-0.0534 -0.248053,-0.18259 -0.0879,-0.1292 -0.0879,-0.31177 0,-0.27389 0.182589,-0.41342 0.18087,-0.13952 0.54088,-0.13952 z" />
  <path
     id="path1757"
     style="font-style:normal;font-variant:normal;font-weight:bold;font-stretch:normal;font-size:13.3333px;line-height:125%;font-family:monospace;-inkscape-font-specification:'monospace Bold';letter-spacing:0px;word-spacing:0px;display:inline;fill:#00aeee;fill-opacity:1;stroke:none;stroke-width:0.264583px;stroke-linecap:butt;stroke-linejoin:miter;stroke-opacity:1"
     d="m 75.096577,151.65565 q 0,0.18087 0.160189,0.28423 0.158481,0.10334 0.442701,0.10334 0.284224,0 0.44441,-0.10334 0.15848,-0.10336 0.15848,-0.28423 0,-0.18258 -0.15848,-0.28594 -0.160186,-0.10336 -0.44441,-0.10336 -0.28422,0 -0.442701,0.10336 -0.160189,0.10336 -0.160189,0.28594 z m 0.60289,0.89229 q -0.466809,0 -0.73897,-0.24116 -0.273889,-0.24288 -0.273889,-0.65113 0,-0.40995 0.273889,-0.65112 0.272161,-0.24288 0.73897,-0.24288 0.466813,0 0.740691,0.24288 0.272158,0.24117 0.272158,0.65112 0,0.40825 -0.272158,0.65113 -0.273878,0.24116 -0.740691,0.24116 z" />
  <path
     id="path1759"
     style="font-style:normal;font-variant:normal;font-weight:bold;font-stretch:normal;font-size:13.3333px;line-height:125%;font-family:monospace;-inkscape-font-specification:'monospace Bold';letter-spacing:0px;word-spacing:0px;display:inline;fill:#00aeee;fill-opacity:1;stroke:none;stroke-width:0.264583px;stroke-linecap:butt;stroke-linejoin:miter;stroke-opacity:1"
     d="m 75.410077,148.74971 h 1.252291 v 0.50127 h -1.174782 q -0.210148,0 -0.29972,0.0603 -0.0913,0.0586 -0.0913,0.19293 0,0.13607 0.122301,0.21531 0.122301,0.0775 0.339339,0.0775 h 1.104151 v 0.50125 h -1.929249 v -0.50125 h 0.289388 q -0.1602,-0.0534 -0.248046,-0.1826 -0.0879,-0.1292 -0.0879,-0.31179 0,-0.27387 0.182592,-0.41339 0.180869,-0.13954 0.540879,-0.13954 z" />
  <path
     id="path1761"
     style="font-style:normal;font-variant:normal;font-weight:bold;font-stretch:normal;font-size:13.3333px;line-height:125%;font-family:monospace;-inkscape-font-specification:'monospace Bold';letter-spacing:0px;word-spacing:0px;display:inline;fill:#00aeee;fill-opacity:1;stroke:none;stroke-width:0.264583px;stroke-linecap:butt;stroke-linejoin:miter;stroke-opacity:1"
     d="m 76.567626,146.57414 q 0.0723,0.17571 0.108522,0.35829 0.0362,0.18259 0.0362,0.38585 0,0.48404 -0.258382,0.74069 -0.260109,0.25494 -0.74758,0.25494 -0.47198,0 -0.745868,-0.24632 -0.273878,-0.24632 -0.273878,-0.6718 0,-0.4289 0.254928,-0.6649 0.25322,-0.23771 0.714859,-0.23771 h 0.204981 v 1.30742 q 0.22738,-0.002 0.339349,-0.13436 0.111962,-0.13264 0.111962,-0.39619 0,-0.17398 -0.0499,-0.34279 -0.05,-0.16881 -0.158469,-0.35312 z m -1.085196,0.42719 q -0.199822,0.003 -0.301453,0.10336 -0.103349,0.0982 -0.103349,0.2911 0,0.17398 0.106799,0.27733 0.105071,0.10336 0.29972,0.12231 z" />
  <path
     id="path1763"
     style="font-style:normal;font-variant:normal;font-weight:bold;font-stretch:normal;font-size:13.3333px;line-height:125%;font-family:monospace;-inkscape-font-specification:'monospace Bold';letter-spacing:0px;word-spacing:0px;display:inline;fill:#00aeee;fill-opacity:1;stroke:none;stroke-width:0.264583px;stroke-linecap:butt;stroke-linejoin:miter;stroke-opacity:1"
     d="m 75.396297,145.83173 v -1.08693 h 0.501261 v 1.08693 z" />
  <path
     id="path1765"
     style="font-style:normal;font-variant:normal;font-weight:bold;font-stretch:normal;font-size:13.3333px;line-height:125%;font-family:monospace;-inkscape-font-specification:'monospace Bold';letter-spacing:0px;word-spacing:0px;display:inline;fill:#00aeee;fill-opacity:1;stroke:none;stroke-width:0.264583px;stroke-linecap:butt;stroke-linejoin:miter;stroke-opacity:1"
     d="m 75.447968,142.83794 q 0.0155,-0.0758 0.0724,-0.13091 0.0551,-0.0568 0.217048,-0.1378 l 0.925002,-0.46509 v 0.55811 l -0.649401,0.31005 q -0.0276,0.0138 -0.0758,0.0362 -0.291111,0.13608 -0.291111,0.32039 v 0.16192 h 1.016302 v 0.50815 h -2.57175 v -0.7338 q 0,-0.49609 0.175702,-0.71141 0.175696,-0.21704 0.571881,-0.21704 0.265266,0 0.422015,0.12919 0.156761,0.12919 0.187762,0.37207 z m -0.93017,0.65285 h 0.70108 v -0.23944 q 0,-0.20842 -0.081,-0.29799 -0.0827,-0.0913 -0.270442,-0.0913 -0.187759,0 -0.268718,0.0896 -0.081,0.0896 -0.081,0.29972 z" />
  <path
     id="path1767"
     style="font-style:normal;font-variant:normal;font-weight:bold;font-stretch:normal;font-size:13.3333px;line-height:125%;font-family:monospace;-inkscape-font-specification:'monospace Bold';letter-spacing:0px;word-spacing:0px;display:inline;fill:#00aeee;fill-opacity:1;stroke:none;stroke-width:0.264583px;stroke-linecap:butt;stroke-linejoin:miter;stroke-opacity:1"
     d="m 75.988847,141.83025 h -1.255731 v -0.5047 h 1.178222 q 0.20843,0 0.298003,-0.0586 0.0896,-0.0586 0.0896,-0.19464 0,-0.13609 -0.120568,-0.21188 -0.120592,-0.0775 -0.337622,-0.0775 h -1.107596 v -0.5047 h 1.929249 v 0.5047 h -0.285943 q 0.1602,0.0534 0.248047,0.18259 0.0879,0.12747 0.0879,0.30834 0,0.2756 -0.182594,0.41685 -0.182589,0.13953 -0.540888,0.13953 z m -2.056706,-0.92328 v -0.40652 h 0.423735 v 0.40652 z m 0,0.68041 v -0.40653 h 0.423735 v 0.40653 z" />
  <path
     id="path1769"
     style="font-style:normal;font-variant:normal;font-weight:bold;font-stretch:normal;font-size:13.3333px;line-height:125%;font-family:monospace;-inkscape-font-specification:'monospace Bold';letter-spacing:0px;word-spacing:0px;display:inline;fill:#00aeee;fill-opacity:1;stroke:none;stroke-width:0.264583px;stroke-linecap:butt;stroke-linejoin:miter;stroke-opacity:1"
     d="m 76.564186,138.15607 q 0.0741,0.12746 0.110242,0.27388 0.0379,0.14642 0.0379,0.31523 0,0.44613 -0.268718,0.69763 -0.268711,0.25149 -0.744141,0.25149 -0.477139,0 -0.745861,-0.25322 -0.270438,-0.25321 -0.270438,-0.69935 0,-0.15503 0.0362,-0.298 0.0362,-0.14469 0.111959,-0.28766 h 0.46165 q -0.0947,0.11024 -0.144701,0.24287 -0.0517,0.13092 -0.0517,0.27217 0,0.24632 0.15676,0.37896 0.15675,0.13263 0.44613,0.13263 0.289394,0 0.444424,-0.13263 0.155027,-0.13264 0.155027,-0.37896 0,-0.14642 -0.0482,-0.27389 -0.0499,-0.12747 -0.14986,-0.24115 z" />
  <path
     id="path1771"
     style="font-style:normal;font-variant:normal;font-weight:bold;font-stretch:normal;font-size:13.3333px;line-height:125%;font-family:monospace;-inkscape-font-specification:'monospace Bold';letter-spacing:0px;word-spacing:0px;display:inline;fill:#00aeee;fill-opacity:1;stroke:none;stroke-width:0.264583px;stroke-linecap:butt;stroke-linejoin:miter;stroke-opacity:1"
     d="m 73.982089,137.56179 v -0.50471 h 1.407318 l -0.656291,-0.60633 v -0.61151 l 0.720022,0.73036 1.20923,-0.7717 v 0.55811 l -0.90261,0.52882 0.165359,0.17225 h 0.737251 v 0.50471 z" />
  <path
     id="path1773"
     style="font-style:normal;font-variant:normal;font-weight:bold;font-stretch:normal;font-size:13.3333px;line-height:125%;font-family:monospace;-inkscape-font-specification:'monospace Bold';letter-spacing:0px;word-spacing:0px;display:inline;fill:#00aeee;fill-opacity:1;stroke:none;stroke-width:0.264583px;stroke-linecap:butt;stroke-linejoin:miter;stroke-opacity:1"
     d="m 74.733116,135.73933 v -0.4203 l 1.477942,-0.2291 -0.973238,-0.20842 v -0.40825 l 0.973238,-0.20498 -1.477942,-0.23254 v -0.42031 l 1.929252,0.34968 v 0.47887 l -1.002519,0.23427 1.002519,0.23254 v 0.47887 z" />
  <path
     id="path1775"
     style="font-style:normal;font-variant:normal;font-weight:bold;font-stretch:normal;font-size:13.3333px;line-height:125%;font-family:monospace;-inkscape-font-specification:'monospace Bold';letter-spacing:0px;word-spacing:0px;display:inline;fill:#00aeee;fill-opacity:1;stroke:none;stroke-width:0.264583px;stroke-linecap:butt;stroke-linejoin:miter;stroke-opacity:1"
     d="m 75.756308,132.41138 q 0,0.28249 0.0724,0.39446 0.0723,0.11196 0.248052,0.11196 0.130908,0 0.208431,-0.0775 0.0775,-0.0775 0.0775,-0.21014 0,-0.19982 -0.14986,-0.31006 -0.15159,-0.11024 -0.422029,-0.11024 h -0.0345 z m -0.194652,-0.7028 h 1.100712 v 0.50126 h -0.215321 q 0.127471,0.0913 0.196372,0.23427 0.0689,0.14297 0.0689,0.31522 0,0.32901 -0.173966,0.51332 -0.173985,0.18259 -0.485762,0.18259 -0.337624,0 -0.497824,-0.21876 -0.161917,-0.21877 -0.161917,-0.67696 v -0.34968 h -0.0844 q -0.122301,0 -0.184309,0.0896 -0.0637,0.0879 -0.0637,0.2601 0,0.18087 0.0465,0.3514 0.0448,0.16881 0.144698,0.35312 h -0.430641 q -0.0689,-0.16708 -0.101629,-0.33934 -0.0327,-0.17225 -0.0327,-0.36518 0,-0.47025 0.191201,-0.65973 0.191198,-0.1912 0.683853,-0.1912 z" />
  <path
     id="path1777"
     style="font-style:normal;font-variant:normal;font-weight:bold;font-stretch:normal;font-size:13.3333px;line-height:125%;font-family:monospace;-inkscape-font-specification:'monospace Bold';letter-spacing:0px;word-spacing:0px;display:inline;fill:#00aeee;fill-opacity:1;stroke:none;stroke-width:0.264583px;stroke-linecap:butt;stroke-linejoin:miter;stroke-opacity:1"
     d="m 75.410077,129.65013 h 1.252291 v 0.50127 h -1.174782 q -0.210148,0 -0.29972,0.0603 -0.0913,0.0586 -0.0913,0.19292 0,0.13607 0.122301,0.21531 0.122301,0.0775 0.339339,0.0775 h 1.104151 v 0.50127 h -1.929249 v -0.50127 h 0.289388 q -0.1602,-0.0534 -0.248046,-0.18258 -0.0879,-0.12919 -0.0879,-0.31178 0,-0.27389 0.182592,-0.41342 0.180869,-0.13952 0.540879,-0.13952 z" />
  <path
     id="path1779"
     style="font-style:normal;font-variant:normal;font-weight:bold;font-stretch:normal;font-size:13.3333px;line-height:125%;font-family:monospace;-inkscape-font-specification:'monospace Bold';letter-spacing:0px;word-spacing:0px;display:inline;fill:#00aeee;fill-opacity:1;stroke:none;stroke-width:0.264583px;stroke-linecap:butt;stroke-linejoin:miter;stroke-opacity:1"
     d="m 75.006997,128.01027 h -1.024908 v -0.50298 h 2.680279 v 0.50298 h -0.28594 q 0.167089,0.081 0.251489,0.21015 0.0844,0.12747 0.0844,0.30145 0,0.33073 -0.265269,0.51332 -0.265271,0.18259 -0.74759,0.18259 -0.489196,0 -0.751031,-0.18432 -0.261818,-0.18603 -0.261818,-0.52882 0,-0.15503 0.081,-0.27733 0.0792,-0.12402 0.23943,-0.21704 z m 0.69591,0.7028 q 0.279051,0 0.437531,-0.093 0.158469,-0.093 0.158469,-0.25666 0,-0.16364 -0.158469,-0.25838 -0.15848,-0.0947 -0.437531,-0.0947 -0.279051,0 -0.43752,0.0947 -0.158481,0.0947 -0.158481,0.25838 0,0.16364 0.158481,0.25666 0.158469,0.093 0.43752,0.093 z" />
  <path
     d="m 81.96697,58.562144 c 0,-0.55034 -0.446917,-0.99695 -0.998075,-0.99695 -0.551516,0 -0.998432,0.44661 -0.998432,0.99695 0,0.55034 0.446916,0.99659 0.998432,0.99659 0.551158,0 0.998075,-0.44625 0.998075,-0.99659"
     style="clip-rule:evenodd;display:inline;fill:none;fill-rule:nonzero;stroke:#ea0088;stroke-width:0.351917;stroke-miterlimit:10;stroke-opacity:1"
     id="path561-9-1-12-2-7" />
  <path
     d="M 82.010877,58.561684 H 79.897763"
     style="clip-rule:evenodd;display:inline;fill:none;fill-rule:nonzero;stroke:#000000;stroke-width:0.237455px;stroke-miterlimit:10;stroke-opacity:1"
     id="path569-2-4-4-1-2" />
  <path
     d="m 81.966968,58.562156 c 0,-0.55034 -0.446921,-0.99695 -0.998072,-0.99695 -0.551518,0 -0.998439,0.44661 -0.998439,0.99695 0,0.55034 0.446921,0.996589 0.998439,0.996589 0.551151,0 0.998072,-0.446249 0.998072,-0.996589"
     style="clip-rule:evenodd;display:inline;fill:none;fill-rule:nonzero;stroke:#ea0088;stroke-width:0.351917;stroke-miterlimit:10;stroke-opacity:1"
     id="path561-9-1-12-2-7-2" />
  <path
     d="M 80.969007,59.594735 V 57.484776"
     style="clip-rule:evenodd;display:inline;fill:none;fill-rule:nonzero;stroke:#000000;stroke-width:0.237455px;stroke-miterlimit:10;stroke-opacity:1"
     id="path565-7-5-1-6-9" />
  <path
     d="M 82.010876,58.561695 H 79.897757"
     style="clip-rule:evenodd;display:inline;fill:none;fill-rule:nonzero;stroke:#000000;stroke-width:0.237455px;stroke-miterlimit:10;stroke-opacity:1"
     id="path569-2-4-4-1-2-8" />
  <path
     d="m 81.966976,238.43783 c 0,0.55034 -0.446917,0.99695 -0.998074,0.99695 -0.551516,0 -0.998432,-0.44661 -0.998432,-0.99695 0,-0.55034 0.446916,-0.99659 0.998432,-0.99659 0.551157,0 0.998074,0.44625 0.998074,0.99659"
     style="clip-rule:evenodd;display:inline;fill:none;fill-rule:nonzero;stroke:#ea0088;stroke-width:0.351917;stroke-miterlimit:10;stroke-opacity:1"
     id="path561-9-1-12-2-7-6" />
  <path
     d="M 82.010883,238.43829 H 79.89777"
     style="clip-rule:evenodd;display:inline;fill:none;fill-rule:nonzero;stroke:#000000;stroke-width:0.237455px;stroke-miterlimit:10;stroke-opacity:1"
     id="path569-2-4-4-1-2-89" />
  <path
     d="m 81.966974,238.43782 c 0,0.55034 -0.446921,0.99695 -0.998071,0.99695 -0.551519,0 -0.998439,-0.44661 -0.998439,-0.99695 0,-0.55034 0.44692,-0.99659 0.998439,-0.99659 0.55115,0 0.998071,0.44625 0.998071,0.99659"
     style="clip-rule:evenodd;display:inline;fill:none;fill-rule:nonzero;stroke:#ea0088;stroke-width:0.351917;stroke-miterlimit:10;stroke-opacity:1"
     id="path561-9-1-12-2-7-2-2" />
  <path
     d="m 80.969013,237.40524 v 2.10996"
     style="clip-rule:evenodd;display:inline;fill:none;fill-rule:nonzero;stroke:#000000;stroke-width:0.237455px;stroke-miterlimit:10;stroke-opacity:1"
     id="path565-7-5-1-6-9-6" />
  <path
     d="M 82.010882,238.43828 H 79.897763"
     style="clip-rule:evenodd;display:inline;fill:none;fill-rule:nonzero;stroke:#000000;stroke-width:0.237455px;stroke-miterlimit:10;stroke-opacity:1"
     id="path569-2-4-4-1-2-8-6" />
  <path
     d="m 168.21665,228.46949 c 0,0.55034 0.44692,0.99695 0.99808,0.99695 0.55151,0 0.99843,-0.44661 0.99843,-0.99695 0,-0.55034 -0.44692,-0.99659 -0.99843,-0.99659 -0.55116,0 -0.99808,0.44625 -0.99808,0.99659"
     style="clip-rule:evenodd;display:inline;fill:none;fill-rule:nonzero;stroke:#ea0088;stroke-width:0.351917;stroke-miterlimit:10;stroke-opacity:1"
     id="path561-9-1-12-2-7-9" />
  <path
     d="m 168.17275,228.46995 h 2.11311"
     style="clip-rule:evenodd;display:inline;fill:none;fill-rule:nonzero;stroke:#000000;stroke-width:0.237455px;stroke-miterlimit:10;stroke-opacity:1"
     id="path569-2-4-4-1-2-5" />
  <path
     d="m 168.21665,228.46948 c 0,0.55034 0.44693,0.99695 0.99808,0.99695 0.55151,0 0.99843,-0.44661 0.99843,-0.99695 0,-0.55034 -0.44692,-0.99659 -0.99843,-0.99659 -0.55115,0 -0.99808,0.44625 -0.99808,0.99659"
     style="clip-rule:evenodd;display:inline;fill:none;fill-rule:nonzero;stroke:#ea0088;stroke-width:0.351917;stroke-miterlimit:10;stroke-opacity:1"
     id="path561-9-1-12-2-7-2-0" />
  <path
     d="m 169.21462,227.4369 v 2.10996"
     style="clip-rule:evenodd;display:inline;fill:none;fill-rule:nonzero;stroke:#000000;stroke-width:0.237455px;stroke-miterlimit:10;stroke-opacity:1"
     id="path565-7-5-1-6-9-4" />
  <path
     d="m 168.17275,228.46994 h 2.11312"
     style="clip-rule:evenodd;display:inline;fill:none;fill-rule:nonzero;stroke:#000000;stroke-width:0.237455px;stroke-miterlimit:10;stroke-opacity:1"
     id="path569-2-4-4-1-2-8-8" />
  <path
     d="m 168.21665,135.63079 c 0,0.55034 0.44692,0.99695 0.99808,0.99695 0.55151,0 0.99843,-0.44661 0.99843,-0.99695 0,-0.55034 -0.44692,-0.99659 -0.99843,-0.99659 -0.55116,0 -0.99808,0.44625 -0.99808,0.99659"
     style="clip-rule:evenodd;display:inline;fill:none;fill-rule:nonzero;stroke:#ea0088;stroke-width:0.351917;stroke-miterlimit:10;stroke-opacity:1"
     id="path561-9-1-12-2-7-9-7" />
  <path
     d="m 168.17275,135.63125 h 2.11311"
     style="clip-rule:evenodd;display:inline;fill:none;fill-rule:nonzero;stroke:#000000;stroke-width:0.237455px;stroke-miterlimit:10;stroke-opacity:1"
     id="path569-2-4-4-1-2-5-2" />
  <path
     d="m 168.21665,135.63078 c 0,0.55034 0.44693,0.99695 0.99808,0.99695 0.55151,0 0.99843,-0.44661 0.99843,-0.99695 0,-0.55034 -0.44692,-0.99659 -0.99843,-0.99659 -0.55115,0 -0.99808,0.44625 -0.99808,0.99659"
     style="clip-rule:evenodd;display:inline;fill:none;fill-rule:nonzero;stroke:#ea0088;stroke-width:0.351917;stroke-miterlimit:10;stroke-opacity:1"
     id="path561-9-1-12-2-7-2-0-7" />
  <path
     d="m 169.21462,134.5982 v 2.10996"
     style="clip-rule:evenodd;display:inline;fill:none;fill-rule:nonzero;stroke:#000000;stroke-width:0.237455px;stroke-miterlimit:10;stroke-opacity:1"
     id="path565-7-5-1-6-9-4-2" />
  <path
     d="m 168.17275,135.63124 h 2.11312"
     style="clip-rule:evenodd;display:inline;fill:none;fill-rule:nonzero;stroke:#000000;stroke-width:0.237455px;stroke-miterlimit:10;stroke-opacity:1"
     id="path569-2-4-4-1-2-8-8-2" />
  <path
     d="m 168.21665,57.565841 c 0,-0.55034 0.44692,-0.99695 0.99808,-0.99695 0.55151,0 0.99843,0.44661 0.99843,0.99695 0,0.55034 -0.44692,0.99659 -0.99843,0.99659 -0.55116,0 -0.99808,-0.44625 -0.99808,-0.99659"
     style="clip-rule:evenodd;display:inline;fill:none;fill-rule:nonzero;stroke:#ea0088;stroke-width:0.351917;stroke-miterlimit:10;stroke-opacity:1"
     id="path561-9-1-12-2-7-9-1" />
  <path
     d="m 168.17275,57.565381 h 2.11311"
     style="clip-rule:evenodd;display:inline;fill:none;fill-rule:nonzero;stroke:#000000;stroke-width:0.237455px;stroke-miterlimit:10;stroke-opacity:1"
     id="path569-2-4-4-1-2-5-0" />
  <path
     d="m 168.21665,57.565851 c 0,-0.55034 0.44693,-0.99695 0.99808,-0.99695 0.55151,0 0.99843,0.44661 0.99843,0.99695 0,0.55034 -0.44692,0.99659 -0.99843,0.99659 -0.55115,0 -0.99808,-0.44625 -0.99808,-0.99659"
     style="clip-rule:evenodd;display:inline;fill:none;fill-rule:nonzero;stroke:#ea0088;stroke-width:0.351917;stroke-miterlimit:10;stroke-opacity:1"
     id="path561-9-1-12-2-7-2-0-6" />
  <path
     d="m 169.21462,58.598431 v -2.10996"
     style="clip-rule:evenodd;display:inline;fill:none;fill-rule:nonzero;stroke:#000000;stroke-width:0.237455px;stroke-miterlimit:10;stroke-opacity:1"
     id="path565-7-5-1-6-9-4-1" />
  <path
     d="m 168.17275,57.565391 h 2.11312"
     style="clip-rule:evenodd;display:inline;fill:none;fill-rule:nonzero;stroke:#000000;stroke-width:0.237455px;stroke-miterlimit:10;stroke-opacity:1"
     id="path569-2-4-4-1-2-8-8-5" />
  <path
     inkscape:connector-curvature="0"
     id="path856-8"
     style="font-style:normal;font-variant:normal;font-weight:bold;font-stretch:normal;font-size:13.3333px;line-height:125%;font-family:monospace;-inkscape-font-specification:'monospace Bold';letter-spacing:0px;word-spacing:0px;fill:#ffcc00;fill-opacity:1;stroke:none;stroke-width:0.264583px;stroke-linecap:butt;stroke-linejoin:miter;stroke-opacity:1"
     d="m 46.726518,71.335521 v 0.754475 h 0.208431 q 0.249767,0 0.349677,-0.08441 0.101628,-0.0844 0.101628,-0.292834 0,-0.208428 -0.101628,-0.292834 -0.09991,-0.08441 -0.349677,-0.08441 z m -0.508149,-0.427193 h 0.697633 q 0.532264,0 0.764808,0.189481 0.234265,0.18948 0.234265,0.614948 0,0.425471 -0.234265,0.614951 -0.232544,0.189481 -0.764808,0.189481 h -0.189484 v 0.9629 h -0.508149 z" />
  <path
     inkscape:connector-curvature="0"
     id="path858-8"
     style="font-style:normal;font-variant:normal;font-weight:bold;font-stretch:normal;font-size:13.3333px;line-height:125%;font-family:monospace;-inkscape-font-specification:'monospace Bold';letter-spacing:0px;word-spacing:0px;fill:#ffcc00;fill-opacity:1;stroke:none;stroke-width:0.264583px;stroke-linecap:butt;stroke-linejoin:miter;stroke-opacity:1"
     d="m 49.258665,71.473323 -0.649401,1.016303 h 0.649401 z m -0.04479,-0.564995 h 0.532268 v 1.581298 h 0.282497 v 0.435804 h -0.282497 v 0.554659 H 49.258661 V 72.92543 h -1.019746 v -0.492647 z" />
  <path
     inkscape:connector-curvature="0"
     id="path860-86"
     style="font-style:normal;font-variant:normal;font-weight:bold;font-stretch:normal;font-size:13.3333px;line-height:125%;font-family:monospace;-inkscape-font-specification:'monospace Bold';letter-spacing:0px;word-spacing:0px;fill:#ffcc00;fill-opacity:1;stroke:none;stroke-width:0.264583px;stroke-linecap:butt;stroke-linejoin:miter;stroke-opacity:1"
     d="m 47.000404,77.466068 0.45303,-2.148018 h 0.511598 l -0.611505,2.571768 H 46.649005 L 46.0375,75.31805 h 0.511599 z" />
  <path
     inkscape:connector-curvature="0"
     id="path862-8"
     style="font-style:normal;font-variant:normal;font-weight:bold;font-stretch:normal;font-size:13.3333px;line-height:125%;font-family:monospace;-inkscape-font-specification:'monospace Bold';letter-spacing:0px;word-spacing:0px;fill:#ffcc00;fill-opacity:1;stroke:none;stroke-width:0.264583px;stroke-linecap:butt;stroke-linejoin:miter;stroke-opacity:1"
     d="m 48.387057,77.441952 h 0.568438 v -1.66915 l -0.528821,0.130916 v -0.458199 l 0.532267,-0.127469 h 0.490926 v 2.123902 h 0.568441 v 0.447866 h -1.631251 z" />
</svg>
