  0
SECTION
  2
HEADER
  9
$ACADVER
  1
AC1009
  9
$FILLMODE
 70
 0
  9
$SPLFRAME
 70
 1
  9
$EXTMIN
 10
0
 20
0
 30
0.0
  9
$EXTMAX
 10
1058.33
 20
1058.33
 30
0.0
  0
ENDSEC
  0
SECTION
  2
TABLES
  0
TABLE
  2
LAYER
 70
1
  0
LAYER
  2
0
 70
     0
 62
     7
  6
CONTINUOUS
  0
ENDTAB
  0
ENDSEC
  0
SECTION
  2
ENTITIES
  0
LINE
  8
0
 62
     230
 10
0.176389
 20
210.079
 30
0.0
 11
147.823
 21
210.079
 31
0.0
  0
LINE
  8
0
 62
     230
 10
147.823
 20
210.079
 30
0.0
 11
147.823
 21
0.431327
 31
0.0
  0
LINE
  8
0
 62
     230
 10
147.823
 20
0.431327
 30
0.0
 11
0.176389
 21
0.431327
 31
0.0
  0
LINE
  8
0
 62
     230
 10
0.176389
 20
0.431327
 30
0.0
 11
0.176389
 21
210.079
 31
0.0
  0
LINE
  8
0
 62
     0
 10
70.7993
 20
100.619
 30
0.0
 11
70.812
 21
100.618
 31
0.0
  0
LINE
  8
0
 62
     0
 10
70.812
 20
100.618
 30
0.0
 11
70.8988
 21
100.58
 31
0.0
  0
LINE
  8
0
 62
     0
 10
70.8988
 20
100.58
 30
0.0
 11
70.9041
 21
100.575
 31
0.0
  0
LINE
  8
0
 62
     0
 10
70.9041
 20
100.575
 30
0.0
 11
70.9097
 21
100.571
 31
0.0
  0
LINE
  8
0
 62
     0
 10
70.9097
 20
100.571
 30
0.0
 11
70.9373
 21
100.505
 31
0.0
  0
LINE
  8
0
 62
     0
 10
70.9373
 20
100.505
 30
0.0
 11
70.9373
 21
100.481
 31
0.0
  0
LINE
  8
0
 62
     0
 10
70.9373
 20
100.481
 30
0.0
 11
70.9373
 21
100.453
 31
0.0
  0
LINE
  8
0
 62
     0
 10
70.9373
 20
100.453
 30
0.0
 11
70.9002
 21
100.378
 31
0.0
  0
LINE
  8
0
 62
     0
 10
70.9002
 20
100.378
 30
0.0
 11
70.8932
 21
100.371
 31
0.0
  0
LINE
  8
0
 62
     0
 10
70.8932
 20
100.371
 30
0.0
 11
70.8865
 21
100.365
 31
0.0
  0
LINE
  8
0
 62
     0
 10
70.8865
 20
100.365
 30
0.0
 11
70.776
 21
100.334
 31
0.0
  0
LINE
  8
0
 62
     0
 10
70.776
 20
100.334
 30
0.0
 11
70.7609
 21
100.332
 31
0.0
  0
LINE
  8
0
 62
     0
 10
70.7609
 20
100.332
 30
0.0
 11
70.3598
 21
100.31
 31
0.0
  0
LINE
  8
0
 62
     0
 10
70.3598
 20
100.31
 30
0.0
 11
70.327
 21
100.31
 31
0.0
  0
LINE
  8
0
 62
     0
 10
70.327
 20
100.31
 30
0.0
 11
70.298
 21
100.31
 31
0.0
  0
LINE
  8
0
 62
     0
 10
70.298
 20
100.31
 30
0.0
 11
70.2165
 21
100.334
 31
0.0
  0
LINE
  8
0
 62
     0
 10
70.2165
 20
100.334
 30
0.0
 11
70.2109
 21
100.338
 31
0.0
  0
LINE
  8
0
 62
     0
 10
70.2109
 20
100.338
 30
0.0
 11
70.2056
 21
100.343
 31
0.0
  0
LINE
  8
0
 62
     0
 10
70.2056
 20
100.343
 30
0.0
 11
70.1781
 21
100.422
 31
0.0
  0
LINE
  8
0
 62
     0
 10
70.1781
 20
100.422
 30
0.0
 11
70.1781
 21
100.448
 31
0.0
  0
LINE
  8
0
 62
     0
 10
70.1781
 20
100.448
 30
0.0
 11
70.1781
 21
100.485
 31
0.0
  0
LINE
  8
0
 62
     0
 10
70.1781
 20
100.485
 30
0.0
 11
70.3019
 21
100.589
 31
0.0
  0
LINE
  8
0
 62
     0
 10
70.3019
 20
100.589
 30
0.0
 11
70.327
 21
100.597
 31
0.0
  0
LINE
  8
0
 62
     0
 10
70.327
 20
100.597
 30
0.0
 11
70.3379
 21
100.6
 31
0.0
  0
LINE
  8
0
 62
     0
 10
70.3379
 20
100.6
 30
0.0
 11
70.4303
 21
100.633
 31
0.0
  0
LINE
  8
0
 62
     0
 10
70.4303
 20
100.633
 30
0.0
 11
70.437
 21
100.636
 31
0.0
  0
LINE
  8
0
 62
     0
 10
70.437
 20
100.636
 30
0.0
 11
70.4564
 21
100.646
 31
0.0
  0
LINE
  8
0
 62
     0
 10
70.4564
 20
100.646
 30
0.0
 11
70.612
 21
100.801
 31
0.0
  0
LINE
  8
0
 62
     0
 10
70.612
 20
100.801
 30
0.0
 11
70.6229
 21
100.821
 31
0.0
  0
LINE
  8
0
 62
     0
 10
70.6229
 20
100.821
 30
0.0
 11
70.6342
 21
100.843
 31
0.0
  0
LINE
  8
0
 62
     0
 10
70.6342
 20
100.843
 30
0.0
 11
70.6893
 21
101.063
 31
0.0
  0
LINE
  8
0
 62
     0
 10
70.6893
 20
101.063
 30
0.0
 11
70.6893
 21
101.136
 31
0.0
  0
LINE
  8
0
 62
     0
 10
70.6893
 20
101.136
 30
0.0
 11
70.6893
 21
101.225
 31
0.0
  0
LINE
  8
0
 62
     0
 10
70.6893
 20
101.225
 30
0.0
 11
70.6011
 21
101.472
 31
0.0
  0
LINE
  8
0
 62
     0
 10
70.6011
 20
101.472
 30
0.0
 11
70.5845
 21
101.494
 31
0.0
  0
LINE
  8
0
 62
     0
 10
70.5845
 20
101.494
 30
0.0
 11
70.5665
 21
101.517
 31
0.0
  0
LINE
  8
0
 62
     0
 10
70.5665
 20
101.517
 30
0.0
 11
70.3778
 21
101.63
 31
0.0
  0
LINE
  8
0
 62
     0
 10
70.3778
 20
101.63
 30
0.0
 11
70.3157
 21
101.63
 31
0.0
  0
LINE
  8
0
 62
     0
 10
70.3157
 20
101.63
 30
0.0
 11
70.2606
 21
101.63
 31
0.0
  0
LINE
  8
0
 62
     0
 10
70.2606
 20
101.63
 30
0.0
 11
70.1089
 21
101.559
 31
0.0
  0
LINE
  8
0
 62
     0
 10
70.1089
 20
101.559
 30
0.0
 11
70.0952
 21
101.544
 31
0.0
  0
LINE
  8
0
 62
     0
 10
70.0952
 20
101.544
 30
0.0
 11
70.0814
 21
101.53
 31
0.0
  0
LINE
  8
0
 62
     0
 10
70.0814
 20
101.53
 30
0.0
 11
69.9932
 21
101.328
 31
0.0
  0
LINE
  8
0
 62
     0
 10
69.9932
 20
101.328
 30
0.0
 11
69.9904
 21
101.301
 31
0.0
  0
LINE
  8
0
 62
     0
 10
69.9904
 20
101.301
 30
0.0
 11
69.9576
 21
101.042
 31
0.0
  0
LINE
  8
0
 62
     0
 10
69.9576
 20
101.042
 30
0.0
 11
69.9491
 21
100.984
 31
0.0
  0
LINE
  8
0
 62
     0
 10
69.9491
 20
100.984
 30
0.0
 11
69.7936
 21
100.553
 31
0.0
  0
LINE
  8
0
 62
     0
 10
69.7936
 20
100.553
 30
0.0
 11
69.7713
 21
100.525
 31
0.0
  0
LINE
  8
0
 62
     0
 10
69.7713
 20
100.525
 30
0.0
 11
69.748
 21
100.498
 31
0.0
  0
LINE
  8
0
 62
     0
 10
69.748
 20
100.498
 30
0.0
 11
69.4711
 21
100.36
 31
0.0
  0
LINE
  8
0
 62
     0
 10
69.4711
 20
100.36
 30
0.0
 11
69.3801
 21
100.36
 31
0.0
  0
LINE
  8
0
 62
     0
 10
69.3801
 20
100.36
 30
0.0
 11
69.2697
 21
100.36
 31
0.0
  0
LINE
  8
0
 62
     0
 10
69.2697
 20
100.36
 30
0.0
 11
68.9695
 21
100.539
 31
0.0
  0
LINE
  8
0
 62
     0
 10
68.9695
 20
100.539
 30
0.0
 11
68.9405
 21
100.575
 31
0.0
  0
LINE
  8
0
 62
     0
 10
68.9405
 20
100.575
 30
0.0
 11
68.9102
 21
100.612
 31
0.0
  0
LINE
  8
0
 62
     0
 10
68.9102
 20
100.612
 30
0.0
 11
68.7585
 21
100.996
 31
0.0
  0
LINE
  8
0
 62
     0
 10
68.7585
 20
100.996
 30
0.0
 11
68.7585
 21
101.124
 31
0.0
  0
LINE
  8
0
 62
     0
 10
68.7585
 20
101.124
 30
0.0
 11
68.7585
 21
101.174
 31
0.0
  0
LINE
  8
0
 62
     0
 10
68.7585
 20
101.174
 30
0.0
 11
68.7807
 21
101.306
 31
0.0
  0
LINE
  8
0
 62
     0
 10
68.7807
 20
101.306
 30
0.0
 11
68.786
 21
101.323
 31
0.0
  0
LINE
  8
0
 62
     0
 10
68.786
 20
101.323
 30
0.0
 11
68.7888
 21
101.341
 31
0.0
  0
LINE
  8
0
 62
     0
 10
68.7888
 20
101.341
 30
0.0
 11
68.8538
 21
101.538
 31
0.0
  0
LINE
  8
0
 62
     0
 10
68.8538
 20
101.538
 30
0.0
 11
68.8633
 21
101.56
 31
0.0
  0
LINE
  8
0
 62
     0
 10
68.8633
 20
101.56
 30
0.0
 11
68.8552
 21
101.562
 31
0.0
  0
LINE
  8
0
 62
     0
 10
68.8552
 20
101.562
 30
0.0
 11
68.7998
 21
101.585
 31
0.0
  0
LINE
  8
0
 62
     0
 10
68.7998
 20
101.585
 30
0.0
 11
68.7973
 21
101.588
 31
0.0
  0
LINE
  8
0
 62
     0
 10
68.7973
 20
101.588
 30
0.0
 11
68.7931
 21
101.592
 31
0.0
  0
LINE
  8
0
 62
     0
 10
68.7931
 20
101.592
 30
0.0
 11
68.7751
 21
101.65
 31
0.0
  0
LINE
  8
0
 62
     0
 10
68.7751
 20
101.65
 30
0.0
 11
68.7751
 21
101.669
 31
0.0
  0
LINE
  8
0
 62
     0
 10
68.7751
 20
101.669
 30
0.0
 11
68.7751
 21
101.695
 31
0.0
  0
LINE
  8
0
 62
     0
 10
68.7751
 20
101.695
 30
0.0
 11
68.7931
 21
101.769
 31
0.0
  0
LINE
  8
0
 62
     0
 10
68.7931
 20
101.769
 30
0.0
 11
68.7973
 21
101.774
 31
0.0
  0
LINE
  8
0
 62
     0
 10
68.7973
 20
101.774
 30
0.0
 11
68.7998
 21
101.779
 31
0.0
  0
LINE
  8
0
 62
     0
 10
68.7998
 20
101.779
 30
0.0
 11
68.8922
 21
101.811
 31
0.0
  0
LINE
  8
0
 62
     0
 10
68.8922
 20
101.811
 30
0.0
 11
68.9074
 21
101.812
 31
0.0
  0
LINE
  8
0
 62
     0
 10
68.9074
 20
101.812
 30
0.0
 11
69.2658
 21
101.834
 31
0.0
  0
LINE
  8
0
 62
     0
 10
69.2658
 20
101.834
 30
0.0
 11
69.2824
 21
101.834
 31
0.0
  0
LINE
  8
0
 62
     0
 10
69.2824
 20
101.834
 30
0.0
 11
69.3043
 21
101.834
 31
0.0
  0
LINE
  8
0
 62
     0
 10
69.3043
 20
101.834
 30
0.0
 11
69.3692
 21
101.802
 31
0.0
  0
LINE
  8
0
 62
     0
 10
69.3692
 20
101.802
 30
0.0
 11
69.3745
 21
101.796
 31
0.0
  0
LINE
  8
0
 62
     0
 10
69.3745
 20
101.796
 30
0.0
 11
69.3801
 21
101.79
 31
0.0
  0
LINE
  8
0
 62
     0
 10
69.3801
 20
101.79
 30
0.0
 11
69.4076
 21
101.724
 31
0.0
  0
LINE
  8
0
 62
     0
 10
69.4076
 20
101.724
 30
0.0
 11
69.4076
 21
101.702
 31
0.0
  0
LINE
  8
0
 62
     0
 10
69.4076
 20
101.702
 30
0.0
 11
69.4076
 21
101.669
 31
0.0
  0
LINE
  8
0
 62
     0
 10
69.4076
 20
101.669
 30
0.0
 11
69.3028
 21
101.574
 31
0.0
  0
LINE
  8
0
 62
     0
 10
69.3028
 20
101.574
 30
0.0
 11
69.2824
 21
101.565
 31
0.0
  0
LINE
  8
0
 62
     0
 10
69.2824
 20
101.565
 30
0.0
 11
69.2697
 21
101.562
 31
0.0
  0
LINE
  8
0
 62
     0
 10
69.2697
 20
101.562
 30
0.0
 11
69.1776
 21
101.52
 31
0.0
  0
LINE
  8
0
 62
     0
 10
69.1776
 20
101.52
 30
0.0
 11
69.172
 21
101.516
 31
0.0
  0
LINE
  8
0
 62
     0
 10
69.172
 20
101.516
 30
0.0
 11
69.1582
 21
101.506
 31
0.0
  0
LINE
  8
0
 62
     0
 10
69.1582
 20
101.506
 30
0.0
 11
69.052
 21
101.369
 31
0.0
  0
LINE
  8
0
 62
     0
 10
69.052
 20
101.369
 30
0.0
 11
69.0453
 21
101.351
 31
0.0
  0
LINE
  8
0
 62
     0
 10
69.0453
 20
101.351
 30
0.0
 11
69.0369
 21
101.334
 31
0.0
  0
LINE
  8
0
 62
     0
 10
69.0369
 20
101.334
 30
0.0
 11
68.9956
 21
101.165
 31
0.0
  0
LINE
  8
0
 62
     0
 10
68.9956
 20
101.165
 30
0.0
 11
68.9956
 21
101.108
 31
0.0
  0
LINE
  8
0
 62
     0
 10
68.9956
 20
101.108
 30
0.0
 11
68.9956
 21
101.024
 31
0.0
  0
LINE
  8
0
 62
     0
 10
68.9956
 20
101.024
 30
0.0
 11
69.0824
 21
100.79
 31
0.0
  0
LINE
  8
0
 62
     0
 10
69.0824
 20
100.79
 30
0.0
 11
69.1003
 21
100.768
 31
0.0
  0
LINE
  8
0
 62
     0
 10
69.1003
 20
100.768
 30
0.0
 11
69.1169
 21
100.747
 31
0.0
  0
LINE
  8
0
 62
     0
 10
69.1169
 20
100.747
 30
0.0
 11
69.3057
 21
100.641
 31
0.0
  0
LINE
  8
0
 62
     0
 10
69.3057
 20
100.641
 30
0.0
 11
69.3692
 21
100.641
 31
0.0
  0
LINE
  8
0
 62
     0
 10
69.3692
 20
100.641
 30
0.0
 11
69.42
 21
100.641
 31
0.0
  0
LINE
  8
0
 62
     0
 10
69.42
 20
100.641
 30
0.0
 11
69.5593
 21
100.719
 31
0.0
  0
LINE
  8
0
 62
     0
 10
69.5593
 20
100.719
 30
0.0
 11
69.5731
 21
100.735
 31
0.0
  0
LINE
  8
0
 62
     0
 10
69.5731
 20
100.735
 30
0.0
 11
69.5854
 21
100.751
 31
0.0
  0
LINE
  8
0
 62
     0
 10
69.5854
 20
100.751
 30
0.0
 11
69.6722
 21
101.003
 31
0.0
  0
LINE
  8
0
 62
     0
 10
69.6722
 20
101.003
 30
0.0
 11
69.6778
 21
101.036
 31
0.0
  0
LINE
  8
0
 62
     0
 10
69.6778
 20
101.036
 30
0.0
 11
69.7107
 21
101.312
 31
0.0
  0
LINE
  8
0
 62
     0
 10
69.7107
 20
101.312
 30
0.0
 11
69.7163
 21
101.362
 31
0.0
  0
LINE
  8
0
 62
     0
 10
69.7163
 20
101.362
 30
0.0
 11
69.8722
 21
101.732
 31
0.0
  0
LINE
  8
0
 62
     0
 10
69.8722
 20
101.732
 30
0.0
 11
69.8969
 21
101.757
 31
0.0
  0
LINE
  8
0
 62
     0
 10
69.8969
 20
101.757
 30
0.0
 11
69.9202
 21
101.783
 31
0.0
  0
LINE
  8
0
 62
     0
 10
69.9202
 20
101.783
 30
0.0
 11
70.1918
 21
101.912
 31
0.0
  0
LINE
  8
0
 62
     0
 10
70.1918
 20
101.912
 30
0.0
 11
70.2829
 21
101.912
 31
0.0
  0
LINE
  8
0
 62
     0
 10
70.2829
 20
101.912
 30
0.0
 11
70.3972
 21
101.912
 31
0.0
  0
LINE
  8
0
 62
     0
 10
70.3972
 20
101.912
 30
0.0
 11
70.714
 21
101.732
 31
0.0
  0
LINE
  8
0
 62
     0
 10
70.714
 20
101.732
 30
0.0
 11
70.7443
 21
101.696
 31
0.0
  0
LINE
  8
0
 62
     0
 10
70.7443
 20
101.696
 30
0.0
 11
70.7732
 21
101.662
 31
0.0
  0
LINE
  8
0
 62
     0
 10
70.7732
 20
101.662
 30
0.0
 11
70.9207
 21
101.26
 31
0.0
  0
LINE
  8
0
 62
     0
 10
70.9207
 20
101.26
 30
0.0
 11
70.9207
 21
101.124
 31
0.0
  0
LINE
  8
0
 62
     0
 10
70.9207
 20
101.124
 30
0.0
 11
70.9207
 21
101.063
 31
0.0
  0
LINE
  8
0
 62
     0
 10
70.9207
 20
101.063
 30
0.0
 11
70.8932
 21
100.897
 31
0.0
  0
LINE
  8
0
 62
     0
 10
70.8932
 20
100.897
 30
0.0
 11
70.8875
 21
100.876
 31
0.0
  0
LINE
  8
0
 62
     0
 10
70.8875
 20
100.876
 30
0.0
 11
70.8822
 21
100.857
 31
0.0
  0
LINE
  8
0
 62
     0
 10
70.8822
 20
100.857
 30
0.0
 11
70.8092
 21
100.642
 31
0.0
  0
LINE
  8
0
 62
     0
 10
70.8092
 20
100.642
 30
0.0
 11
70.7993
 21
100.619
 31
0.0
  0
LINE
  8
0
 62
     0
 10
70.6176
 20
102.584
 30
0.0
 11
68.858
 21
102.584
 31
0.0
  0
LINE
  8
0
 62
     0
 10
68.858
 20
102.584
 30
0.0
 11
68.858
 21
102.551
 31
0.0
  0
LINE
  8
0
 62
     0
 10
68.858
 20
102.551
 30
0.0
 11
68.858
 21
102.511
 31
0.0
  0
LINE
  8
0
 62
     0
 10
68.858
 20
102.511
 30
0.0
 11
68.8344
 21
102.399
 31
0.0
  0
LINE
  8
0
 62
     0
 10
68.8344
 20
102.399
 30
0.0
 11
68.8301
 21
102.391
 31
0.0
  0
LINE
  8
0
 62
     0
 10
68.8301
 20
102.391
 30
0.0
 11
68.8248
 21
102.384
 31
0.0
  0
LINE
  8
0
 62
     0
 10
68.8248
 20
102.384
 30
0.0
 11
68.7546
 21
102.347
 31
0.0
  0
LINE
  8
0
 62
     0
 10
68.7546
 20
102.347
 30
0.0
 11
68.731
 21
102.347
 31
0.0
  0
LINE
  8
0
 62
     0
 10
68.731
 20
102.347
 30
0.0
 11
68.7091
 21
102.347
 31
0.0
  0
LINE
  8
0
 62
     0
 10
68.7091
 20
102.347
 30
0.0
 11
68.6484
 21
102.374
 31
0.0
  0
LINE
  8
0
 62
     0
 10
68.6484
 20
102.374
 30
0.0
 11
68.6442
 21
102.38
 31
0.0
  0
LINE
  8
0
 62
     0
 10
68.6442
 20
102.38
 30
0.0
 11
68.6386
 21
102.387
 31
0.0
  0
LINE
  8
0
 62
     0
 10
68.6386
 20
102.387
 30
0.0
 11
68.611
 21
102.461
 31
0.0
  0
LINE
  8
0
 62
     0
 10
68.611
 20
102.461
 30
0.0
 11
68.611
 21
102.485
 31
0.0
  0
LINE
  8
0
 62
     0
 10
68.611
 20
102.485
 30
0.0
 11
68.611
 21
102.748
 31
0.0
  0
LINE
  8
0
 62
     0
 10
68.611
 20
102.748
 30
0.0
 11
68.611
 21
102.766
 31
0.0
  0
LINE
  8
0
 62
     0
 10
68.611
 20
102.766
 30
0.0
 11
68.629
 21
102.815
 31
0.0
  0
LINE
  8
0
 62
     0
 10
68.629
 20
102.815
 30
0.0
 11
68.6333
 21
102.82
 31
0.0
  0
LINE
  8
0
 62
     0
 10
68.6333
 20
102.82
 30
0.0
 11
68.6361
 21
102.825
 31
0.0
  0
LINE
  8
0
 62
     0
 10
68.6361
 20
102.825
 30
0.0
 11
68.6703
 21
102.847
 31
0.0
  0
LINE
  8
0
 62
     0
 10
68.6703
 20
102.847
 30
0.0
 11
68.6827
 21
102.847
 31
0.0
  0
LINE
  8
0
 62
     0
 10
68.6827
 20
102.847
 30
0.0
 11
69.4574
 21
102.847
 31
0.0
  0
LINE
  8
0
 62
     0
 10
69.4574
 20
102.847
 30
0.0
 11
69.438
 21
102.868
 31
0.0
  0
LINE
  8
0
 62
     0
 10
69.438
 20
102.868
 30
0.0
 11
69.2961
 21
103.07
 31
0.0
  0
LINE
  8
0
 62
     0
 10
69.2961
 20
103.07
 30
0.0
 11
69.2877
 21
103.09
 31
0.0
  0
LINE
  8
0
 62
     0
 10
69.2877
 20
103.09
 30
0.0
 11
69.2781
 21
103.112
 31
0.0
  0
LINE
  8
0
 62
     0
 10
69.2781
 20
103.112
 30
0.0
 11
69.2326
 21
103.289
 31
0.0
  0
LINE
  8
0
 62
     0
 10
69.2326
 20
103.289
 30
0.0
 11
69.2326
 21
103.349
 31
0.0
  0
LINE
  8
0
 62
     0
 10
69.2326
 20
103.349
 30
0.0
 11
69.2326
 21
103.451
 31
0.0
  0
LINE
  8
0
 62
     0
 10
69.2326
 20
103.451
 30
0.0
 11
69.3649
 21
103.73
 31
0.0
  0
LINE
  8
0
 62
     0
 10
69.3649
 20
103.73
 30
0.0
 11
69.391
 21
103.755
 31
0.0
  0
LINE
  8
0
 62
     0
 10
69.391
 20
103.755
 30
0.0
 11
69.4171
 21
103.78
 31
0.0
  0
LINE
  8
0
 62
     0
 10
69.4171
 20
103.78
 30
0.0
 11
69.7315
 21
103.904
 31
0.0
  0
LINE
  8
0
 62
     0
 10
69.7315
 20
103.904
 30
0.0
 11
69.8377
 21
103.904
 31
0.0
  0
LINE
  8
0
 62
     0
 10
69.8377
 20
103.904
 30
0.0
 11
70.6176
 21
103.904
 31
0.0
  0
LINE
  8
0
 62
     0
 10
70.6176
 20
103.904
 30
0.0
 11
70.6176
 21
103.987
 31
0.0
  0
LINE
  8
0
 62
     0
 10
70.6176
 20
103.987
 30
0.0
 11
70.6176
 21
104.017
 31
0.0
  0
LINE
  8
0
 62
     0
 10
70.6176
 20
104.017
 30
0.0
 11
70.6395
 21
104.103
 31
0.0
  0
LINE
  8
0
 62
     0
 10
70.6395
 20
104.103
 30
0.0
 11
70.6452
 21
104.108
 31
0.0
  0
LINE
  8
0
 62
     0
 10
70.6452
 20
104.108
 30
0.0
 11
70.6494
 21
104.115
 31
0.0
  0
LINE
  8
0
 62
     0
 10
70.6494
 20
104.115
 30
0.0
 11
70.7111
 21
104.147
 31
0.0
  0
LINE
  8
0
 62
     0
 10
70.7111
 20
104.147
 30
0.0
 11
70.7334
 21
104.147
 31
0.0
  0
LINE
  8
0
 62
     0
 10
70.7334
 20
104.147
 30
0.0
 11
70.7581
 21
104.147
 31
0.0
  0
LINE
  8
0
 62
     0
 10
70.7581
 20
104.147
 30
0.0
 11
70.8272
 21
104.119
 31
0.0
  0
LINE
  8
0
 62
     0
 10
70.8272
 20
104.119
 30
0.0
 11
70.8325
 21
104.114
 31
0.0
  0
LINE
  8
0
 62
     0
 10
70.8325
 20
104.114
 30
0.0
 11
70.8367
 21
104.108
 31
0.0
  0
LINE
  8
0
 62
     0
 10
70.8367
 20
104.108
 30
0.0
 11
70.86
 21
104.033
 31
0.0
  0
LINE
  8
0
 62
     0
 10
70.86
 20
104.033
 30
0.0
 11
70.86
 21
104.009
 31
0.0
  0
LINE
  8
0
 62
     0
 10
70.86
 20
104.009
 30
0.0
 11
70.86
 21
103.551
 31
0.0
  0
LINE
  8
0
 62
     0
 10
70.86
 20
103.551
 30
0.0
 11
70.86
 21
103.525
 31
0.0
  0
LINE
  8
0
 62
     0
 10
70.86
 20
103.525
 30
0.0
 11
70.8367
 21
103.448
 31
0.0
  0
LINE
  8
0
 62
     0
 10
70.8367
 20
103.448
 30
0.0
 11
70.8325
 21
103.443
 31
0.0
  0
LINE
  8
0
 62
     0
 10
70.8325
 20
103.443
 30
0.0
 11
70.8272
 21
103.438
 31
0.0
  0
LINE
  8
0
 62
     0
 10
70.8272
 20
103.438
 30
0.0
 11
70.7566
 21
103.415
 31
0.0
  0
LINE
  8
0
 62
     0
 10
70.7566
 20
103.415
 30
0.0
 11
70.7334
 21
103.415
 31
0.0
  0
LINE
  8
0
 62
     0
 10
70.7334
 20
103.415
 30
0.0
 11
70.7111
 21
103.415
 31
0.0
  0
LINE
  8
0
 62
     0
 10
70.7111
 20
103.415
 30
0.0
 11
70.648
 21
103.443
 31
0.0
  0
LINE
  8
0
 62
     0
 10
70.648
 20
103.443
 30
0.0
 11
70.6452
 21
103.448
 31
0.0
  0
LINE
  8
0
 62
     0
 10
70.6452
 20
103.448
 30
0.0
 11
70.6395
 21
103.455
 31
0.0
  0
LINE
  8
0
 62
     0
 10
70.6395
 20
103.455
 30
0.0
 11
70.6176
 21
103.553
 31
0.0
  0
LINE
  8
0
 62
     0
 10
70.6176
 20
103.553
 30
0.0
 11
70.6176
 21
103.584
 31
0.0
  0
LINE
  8
0
 62
     0
 10
70.6176
 20
103.584
 30
0.0
 11
70.6176
 21
103.645
 31
0.0
  0
LINE
  8
0
 62
     0
 10
70.6176
 20
103.645
 30
0.0
 11
69.9022
 21
103.645
 31
0.0
  0
LINE
  8
0
 62
     0
 10
69.9022
 20
103.645
 30
0.0
 11
69.8253
 21
103.645
 31
0.0
  0
LINE
  8
0
 62
     0
 10
69.8253
 20
103.645
 30
0.0
 11
69.6115
 21
103.568
 31
0.0
  0
LINE
  8
0
 62
     0
 10
69.6115
 20
103.568
 30
0.0
 11
69.5949
 21
103.551
 31
0.0
  0
LINE
  8
0
 62
     0
 10
69.5949
 20
103.551
 30
0.0
 11
69.5773
 21
103.537
 31
0.0
  0
LINE
  8
0
 62
     0
 10
69.5773
 20
103.537
 30
0.0
 11
69.4902
 21
103.352
 31
0.0
  0
LINE
  8
0
 62
     0
 10
69.4902
 20
103.352
 30
0.0
 11
69.4902
 21
103.288
 31
0.0
  0
LINE
  8
0
 62
     0
 10
69.4902
 20
103.288
 30
0.0
 11
69.4902
 21
103.211
 31
0.0
  0
LINE
  8
0
 62
     0
 10
69.4902
 20
103.211
 30
0.0
 11
69.5911
 21
103.002
 31
0.0
  0
LINE
  8
0
 62
     0
 10
69.5911
 20
103.002
 30
0.0
 11
69.6115
 21
102.979
 31
0.0
  0
LINE
  8
0
 62
     0
 10
69.6115
 20
102.979
 30
0.0
 11
69.6309
 21
102.957
 31
0.0
  0
LINE
  8
0
 62
     0
 10
69.6309
 20
102.957
 30
0.0
 11
69.8334
 21
102.847
 31
0.0
  0
LINE
  8
0
 62
     0
 10
69.8334
 20
102.847
 30
0.0
 11
69.9022
 21
102.847
 31
0.0
  0
LINE
  8
0
 62
     0
 10
69.9022
 20
102.847
 30
0.0
 11
70.6176
 21
102.847
 31
0.0
  0
LINE
  8
0
 62
     0
 10
70.6176
 20
102.847
 30
0.0
 11
70.6176
 21
102.908
 31
0.0
  0
LINE
  8
0
 62
     0
 10
70.6176
 20
102.908
 30
0.0
 11
70.6176
 21
102.941
 31
0.0
  0
LINE
  8
0
 62
     0
 10
70.6176
 20
102.941
 30
0.0
 11
70.6395
 21
103.034
 31
0.0
  0
LINE
  8
0
 62
     0
 10
70.6395
 20
103.034
 30
0.0
 11
70.6452
 21
103.04
 31
0.0
  0
LINE
  8
0
 62
     0
 10
70.6452
 20
103.04
 30
0.0
 11
70.648
 21
103.047
 31
0.0
  0
LINE
  8
0
 62
     0
 10
70.648
 20
103.047
 30
0.0
 11
70.7111
 21
103.078
 31
0.0
  0
LINE
  8
0
 62
     0
 10
70.7111
 20
103.078
 30
0.0
 11
70.7334
 21
103.078
 31
0.0
  0
LINE
  8
0
 62
     0
 10
70.7334
 20
103.078
 30
0.0
 11
70.7581
 21
103.078
 31
0.0
  0
LINE
  8
0
 62
     0
 10
70.7581
 20
103.078
 30
0.0
 11
70.8272
 21
103.057
 31
0.0
  0
LINE
  8
0
 62
     0
 10
70.8272
 20
103.057
 30
0.0
 11
70.8325
 21
103.051
 31
0.0
  0
LINE
  8
0
 62
     0
 10
70.8325
 20
103.051
 30
0.0
 11
70.8367
 21
103.047
 31
0.0
  0
LINE
  8
0
 62
     0
 10
70.8367
 20
103.047
 30
0.0
 11
70.86
 21
102.968
 31
0.0
  0
LINE
  8
0
 62
     0
 10
70.86
 20
102.968
 30
0.0
 11
70.86
 21
102.941
 31
0.0
  0
LINE
  8
0
 62
     0
 10
70.86
 20
102.941
 30
0.0
 11
70.86
 21
102.485
 31
0.0
  0
LINE
  8
0
 62
     0
 10
70.86
 20
102.485
 30
0.0
 11
70.86
 21
102.46
 31
0.0
  0
LINE
  8
0
 62
     0
 10
70.86
 20
102.46
 30
0.0
 11
70.8367
 21
102.391
 31
0.0
  0
LINE
  8
0
 62
     0
 10
70.8367
 20
102.391
 30
0.0
 11
70.8325
 21
102.386
 31
0.0
  0
LINE
  8
0
 62
     0
 10
70.8325
 20
102.386
 30
0.0
 11
70.8272
 21
102.38
 31
0.0
  0
LINE
  8
0
 62
     0
 10
70.8272
 20
102.38
 30
0.0
 11
70.7566
 21
102.352
 31
0.0
  0
LINE
  8
0
 62
     0
 10
70.7566
 20
102.352
 30
0.0
 11
70.7334
 21
102.352
 31
0.0
  0
LINE
  8
0
 62
     0
 10
70.7334
 20
102.352
 30
0.0
 11
70.7111
 21
102.352
 31
0.0
  0
LINE
  8
0
 62
     0
 10
70.7111
 20
102.352
 30
0.0
 11
70.648
 21
102.386
 31
0.0
  0
LINE
  8
0
 62
     0
 10
70.648
 20
102.386
 30
0.0
 11
70.6452
 21
102.391
 31
0.0
  0
LINE
  8
0
 62
     0
 10
70.6452
 20
102.391
 30
0.0
 11
70.6395
 21
102.399
 31
0.0
  0
LINE
  8
0
 62
     0
 10
70.6395
 20
102.399
 30
0.0
 11
70.6176
 21
102.514
 31
0.0
  0
LINE
  8
0
 62
     0
 10
70.6176
 20
102.514
 30
0.0
 11
70.6176
 21
102.551
 31
0.0
  0
LINE
  8
0
 62
     0
 10
70.6176
 20
102.551
 30
0.0
 11
70.6176
 21
102.584
 31
0.0
  0
LINE
  8
0
 62
     0
 10
70.1393
 20
104.763
 30
0.0
 11
70.1809
 21
104.765
 31
0.0
  0
LINE
  8
0
 62
     0
 10
70.1809
 20
104.765
 30
0.0
 11
70.5005
 21
104.909
 31
0.0
  0
LINE
  8
0
 62
     0
 10
70.5005
 20
104.909
 30
0.0
 11
70.5238
 21
104.933
 31
0.0
  0
LINE
  8
0
 62
     0
 10
70.5238
 20
104.933
 30
0.0
 11
70.546
 21
104.96
 31
0.0
  0
LINE
  8
0
 62
     0
 10
70.546
 20
104.96
 30
0.0
 11
70.6561
 21
105.253
 31
0.0
  0
LINE
  8
0
 62
     0
 10
70.6561
 20
105.253
 30
0.0
 11
70.6561
 21
105.351
 31
0.0
  0
LINE
  8
0
 62
     0
 10
70.6561
 20
105.351
 30
0.0
 11
70.6561
 21
105.461
 31
0.0
  0
LINE
  8
0
 62
     0
 10
70.6561
 20
105.461
 30
0.0
 11
70.5679
 21
105.753
 31
0.0
  0
LINE
  8
0
 62
     0
 10
70.5679
 20
105.753
 30
0.0
 11
70.5513
 21
105.792
 31
0.0
  0
LINE
  8
0
 62
     0
 10
70.5513
 20
105.792
 30
0.0
 11
70.5323
 21
105.832
 31
0.0
  0
LINE
  8
0
 62
     0
 10
70.5323
 20
105.832
 30
0.0
 11
70.4427
 21
106.018
 31
0.0
  0
LINE
  8
0
 62
     0
 10
70.4427
 20
106.018
 30
0.0
 11
70.4427
 21
106.079
 31
0.0
  0
LINE
  8
0
 62
     0
 10
70.4427
 20
106.079
 30
0.0
 11
70.4427
 21
106.099
 31
0.0
  0
LINE
  8
0
 62
     0
 10
70.4427
 20
106.099
 30
0.0
 11
70.4688
 21
106.154
 31
0.0
  0
LINE
  8
0
 62
     0
 10
70.4688
 20
106.154
 30
0.0
 11
70.4744
 21
106.16
 31
0.0
  0
LINE
  8
0
 62
     0
 10
70.4744
 20
106.16
 30
0.0
 11
70.4797
 21
106.167
 31
0.0
  0
LINE
  8
0
 62
     0
 10
70.4797
 20
106.167
 30
0.0
 11
70.5376
 21
106.198
 31
0.0
  0
LINE
  8
0
 62
     0
 10
70.5376
 20
106.198
 30
0.0
 11
70.557
 21
106.198
 31
0.0
  0
LINE
  8
0
 62
     0
 10
70.557
 20
106.198
 30
0.0
 11
70.5803
 21
106.198
 31
0.0
  0
LINE
  8
0
 62
     0
 10
70.5803
 20
106.198
 30
0.0
 11
70.6423
 21
106.167
 31
0.0
  0
LINE
  8
0
 62
     0
 10
70.6423
 20
106.167
 30
0.0
 11
70.6508
 21
106.16
 31
0.0
  0
LINE
  8
0
 62
     0
 10
70.6508
 20
106.16
 30
0.0
 11
70.6561
 21
106.154
 31
0.0
  0
LINE
  8
0
 62
     0
 10
70.6561
 20
106.154
 30
0.0
 11
70.721
 21
106.059
 31
0.0
  0
LINE
  8
0
 62
     0
 10
70.721
 20
106.059
 30
0.0
 11
70.7277
 21
106.046
 31
0.0
  0
LINE
  8
0
 62
     0
 10
70.7277
 20
106.046
 30
0.0
 11
70.7415
 21
106.018
 31
0.0
  0
LINE
  8
0
 62
     0
 10
70.7415
 20
106.018
 30
0.0
 11
70.8519
 21
105.723
 31
0.0
  0
LINE
  8
0
 62
     0
 10
70.8519
 20
105.723
 30
0.0
 11
70.86
 21
105.693
 31
0.0
  0
LINE
  8
0
 62
     0
 10
70.86
 20
105.693
 30
0.0
 11
70.8671
 21
105.663
 31
0.0
  0
LINE
  8
0
 62
     0
 10
70.8671
 20
105.663
 30
0.0
 11
70.9041
 21
105.413
 31
0.0
  0
LINE
  8
0
 62
     0
 10
70.9041
 20
105.413
 30
0.0
 11
70.9041
 21
105.329
 31
0.0
  0
LINE
  8
0
 62
     0
 10
70.9041
 20
105.329
 30
0.0
 11
70.9041
 21
105.173
 31
0.0
  0
LINE
  8
0
 62
     0
 10
70.9041
 20
105.173
 30
0.0
 11
70.7154
 21
104.742
 31
0.0
  0
LINE
  8
0
 62
     0
 10
70.7154
 20
104.742
 30
0.0
 11
70.6783
 21
104.702
 31
0.0
  0
LINE
  8
0
 62
     0
 10
70.6783
 20
104.702
 30
0.0
 11
70.6395
 21
104.664
 31
0.0
  0
LINE
  8
0
 62
     0
 10
70.6395
 20
104.664
 30
0.0
 11
70.2179
 21
104.466
 31
0.0
  0
LINE
  8
0
 62
     0
 10
70.2179
 20
104.466
 30
0.0
 11
70.0786
 21
104.466
 31
0.0
  0
LINE
  8
0
 62
     0
 10
70.0786
 20
104.466
 30
0.0
 11
69.9244
 21
104.466
 31
0.0
  0
LINE
  8
0
 62
     0
 10
69.9244
 20
104.466
 30
0.0
 11
69.5015
 21
104.672
 31
0.0
  0
LINE
  8
0
 62
     0
 10
69.5015
 20
104.672
 30
0.0
 11
69.4626
 21
104.713
 31
0.0
  0
LINE
  8
0
 62
     0
 10
69.4626
 20
104.713
 30
0.0
 11
69.4228
 21
104.756
 31
0.0
  0
LINE
  8
0
 62
     0
 10
69.4228
 20
104.756
 30
0.0
 11
69.227
 21
105.21
 31
0.0
  0
LINE
  8
0
 62
     0
 10
69.227
 20
105.21
 30
0.0
 11
69.227
 21
105.362
 31
0.0
  0
LINE
  8
0
 62
     0
 10
69.227
 20
105.362
 30
0.0
 11
69.227
 21
105.512
 31
0.0
  0
LINE
  8
0
 62
     0
 10
69.227
 20
105.512
 30
0.0
 11
69.409
 21
105.924
 31
0.0
  0
LINE
  8
0
 62
     0
 10
69.409
 20
105.924
 30
0.0
 11
69.4461
 21
105.963
 31
0.0
  0
LINE
  8
0
 62
     0
 10
69.4461
 20
105.963
 30
0.0
 11
69.4821
 21
106.004
 31
0.0
  0
LINE
  8
0
 62
     0
 10
69.4821
 20
106.004
 30
0.0
 11
69.8542
 21
106.204
 31
0.0
  0
LINE
  8
0
 62
     0
 10
69.8542
 20
106.204
 30
0.0
 11
69.9795
 21
106.204
 31
0.0
  0
LINE
  8
0
 62
     0
 10
69.9795
 20
106.204
 30
0.0
 11
70.0112
 21
106.204
 31
0.0
  0
LINE
  8
0
 62
     0
 10
70.0112
 20
106.204
 30
0.0
 11
70.1008
 21
106.168
 31
0.0
  0
LINE
  8
0
 62
     0
 10
70.1008
 20
106.168
 30
0.0
 11
70.1065
 21
106.16
 31
0.0
  0
LINE
  8
0
 62
     0
 10
70.1065
 20
106.16
 30
0.0
 11
70.1118
 21
106.154
 31
0.0
  0
LINE
  8
0
 62
     0
 10
70.1118
 20
106.154
 30
0.0
 11
70.1393
 21
105.999
 31
0.0
  0
LINE
  8
0
 62
     0
 10
70.1393
 20
105.999
 30
0.0
 11
70.1393
 21
105.946
 31
0.0
  0
LINE
  8
0
 62
     0
 10
70.1393
 20
105.946
 30
0.0
 11
70.1393
 21
104.763
 31
0.0
  0
LINE
  8
0
 62
     0
 10
69.9135
 20
104.774
 30
0.0
 11
69.9135
 21
105.891
 31
0.0
  0
LINE
  8
0
 62
     0
 10
69.9135
 20
105.891
 30
0.0
 11
69.8789
 21
105.888
 31
0.0
  0
LINE
  8
0
 62
     0
 10
69.8789
 20
105.888
 30
0.0
 11
69.6087
 21
105.745
 31
0.0
  0
LINE
  8
0
 62
     0
 10
69.6087
 20
105.745
 30
0.0
 11
69.5896
 21
105.72
 31
0.0
  0
LINE
  8
0
 62
     0
 10
69.5896
 20
105.72
 30
0.0
 11
69.5674
 21
105.697
 31
0.0
  0
LINE
  8
0
 62
     0
 10
69.5674
 20
105.697
 30
0.0
 11
69.4626
 21
105.446
 31
0.0
  0
LINE
  8
0
 62
     0
 10
69.4626
 20
105.446
 30
0.0
 11
69.4626
 21
105.362
 31
0.0
  0
LINE
  8
0
 62
     0
 10
69.4626
 20
105.362
 30
0.0
 11
69.4626
 21
105.267
 31
0.0
  0
LINE
  8
0
 62
     0
 10
69.4626
 20
105.267
 30
0.0
 11
69.5635
 21
105.005
 31
0.0
  0
LINE
  8
0
 62
     0
 10
69.5635
 20
105.005
 30
0.0
 11
69.584
 21
104.977
 31
0.0
  0
LINE
  8
0
 62
     0
 10
69.584
 20
104.977
 30
0.0
 11
69.6034
 21
104.953
 31
0.0
  0
LINE
  8
0
 62
     0
 10
69.6034
 20
104.953
 30
0.0
 11
69.8789
 21
104.782
 31
0.0
  0
LINE
  8
0
 62
     0
 10
69.8789
 20
104.782
 30
0.0
 11
69.9135
 21
104.774
 31
0.0
  0
LINE
  8
0
 62
     0
 10
70.1393
 20
106.876
 30
0.0
 11
70.1809
 21
106.879
 31
0.0
  0
LINE
  8
0
 62
     0
 10
70.1809
 20
106.879
 30
0.0
 11
70.5005
 21
107.023
 31
0.0
  0
LINE
  8
0
 62
     0
 10
70.5005
 20
107.023
 30
0.0
 11
70.5238
 21
107.047
 31
0.0
  0
LINE
  8
0
 62
     0
 10
70.5238
 20
107.047
 30
0.0
 11
70.546
 21
107.074
 31
0.0
  0
LINE
  8
0
 62
     0
 10
70.546
 20
107.074
 30
0.0
 11
70.6561
 21
107.367
 31
0.0
  0
LINE
  8
0
 62
     0
 10
70.6561
 20
107.367
 30
0.0
 11
70.6561
 21
107.465
 31
0.0
  0
LINE
  8
0
 62
     0
 10
70.6561
 20
107.465
 30
0.0
 11
70.6561
 21
107.575
 31
0.0
  0
LINE
  8
0
 62
     0
 10
70.6561
 20
107.575
 30
0.0
 11
70.5679
 21
107.867
 31
0.0
  0
LINE
  8
0
 62
     0
 10
70.5679
 20
107.867
 30
0.0
 11
70.5513
 21
107.906
 31
0.0
  0
LINE
  8
0
 62
     0
 10
70.5513
 20
107.906
 30
0.0
 11
70.5323
 21
107.946
 31
0.0
  0
LINE
  8
0
 62
     0
 10
70.5323
 20
107.946
 30
0.0
 11
70.4427
 21
108.131
 31
0.0
  0
LINE
  8
0
 62
     0
 10
70.4427
 20
108.131
 30
0.0
 11
70.4427
 21
108.191
 31
0.0
  0
LINE
  8
0
 62
     0
 10
70.4427
 20
108.191
 30
0.0
 11
70.4427
 21
108.212
 31
0.0
  0
LINE
  8
0
 62
     0
 10
70.4427
 20
108.212
 30
0.0
 11
70.4688
 21
108.268
 31
0.0
  0
LINE
  8
0
 62
     0
 10
70.4688
 20
108.268
 30
0.0
 11
70.4744
 21
108.274
 31
0.0
  0
LINE
  8
0
 62
     0
 10
70.4744
 20
108.274
 30
0.0
 11
70.4797
 21
108.281
 31
0.0
  0
LINE
  8
0
 62
     0
 10
70.4797
 20
108.281
 30
0.0
 11
70.5376
 21
108.312
 31
0.0
  0
LINE
  8
0
 62
     0
 10
70.5376
 20
108.312
 30
0.0
 11
70.557
 21
108.312
 31
0.0
  0
LINE
  8
0
 62
     0
 10
70.557
 20
108.312
 30
0.0
 11
70.5803
 21
108.312
 31
0.0
  0
LINE
  8
0
 62
     0
 10
70.5803
 20
108.312
 30
0.0
 11
70.6423
 21
108.281
 31
0.0
  0
LINE
  8
0
 62
     0
 10
70.6423
 20
108.281
 30
0.0
 11
70.6508
 21
108.274
 31
0.0
  0
LINE
  8
0
 62
     0
 10
70.6508
 20
108.274
 30
0.0
 11
70.6561
 21
108.268
 31
0.0
  0
LINE
  8
0
 62
     0
 10
70.6561
 20
108.268
 30
0.0
 11
70.721
 21
108.172
 31
0.0
  0
LINE
  8
0
 62
     0
 10
70.721
 20
108.172
 30
0.0
 11
70.7277
 21
108.158
 31
0.0
  0
LINE
  8
0
 62
     0
 10
70.7277
 20
108.158
 30
0.0
 11
70.7415
 21
108.131
 31
0.0
  0
LINE
  8
0
 62
     0
 10
70.7415
 20
108.131
 30
0.0
 11
70.8519
 21
107.837
 31
0.0
  0
LINE
  8
0
 62
     0
 10
70.8519
 20
107.837
 30
0.0
 11
70.86
 21
107.807
 31
0.0
  0
LINE
  8
0
 62
     0
 10
70.86
 20
107.807
 30
0.0
 11
70.8671
 21
107.776
 31
0.0
  0
LINE
  8
0
 62
     0
 10
70.8671
 20
107.776
 30
0.0
 11
70.9041
 21
107.527
 31
0.0
  0
LINE
  8
0
 62
     0
 10
70.9041
 20
107.527
 30
0.0
 11
70.9041
 21
107.443
 31
0.0
  0
LINE
  8
0
 62
     0
 10
70.9041
 20
107.443
 30
0.0
 11
70.9041
 21
107.287
 31
0.0
  0
LINE
  8
0
 62
     0
 10
70.9041
 20
107.287
 30
0.0
 11
70.7154
 21
106.856
 31
0.0
  0
LINE
  8
0
 62
     0
 10
70.7154
 20
106.856
 30
0.0
 11
70.6783
 21
106.816
 31
0.0
  0
LINE
  8
0
 62
     0
 10
70.6783
 20
106.816
 30
0.0
 11
70.6395
 21
106.777
 31
0.0
  0
LINE
  8
0
 62
     0
 10
70.6395
 20
106.777
 30
0.0
 11
70.2179
 21
106.579
 31
0.0
  0
LINE
  8
0
 62
     0
 10
70.2179
 20
106.579
 30
0.0
 11
70.0786
 21
106.579
 31
0.0
  0
LINE
  8
0
 62
     0
 10
70.0786
 20
106.579
 30
0.0
 11
69.9244
 21
106.579
 31
0.0
  0
LINE
  8
0
 62
     0
 10
69.9244
 20
106.579
 30
0.0
 11
69.5015
 21
106.785
 31
0.0
  0
LINE
  8
0
 62
     0
 10
69.5015
 20
106.785
 30
0.0
 11
69.4626
 21
106.827
 31
0.0
  0
LINE
  8
0
 62
     0
 10
69.4626
 20
106.827
 30
0.0
 11
69.4228
 21
106.87
 31
0.0
  0
LINE
  8
0
 62
     0
 10
69.4228
 20
106.87
 30
0.0
 11
69.227
 21
107.325
 31
0.0
  0
LINE
  8
0
 62
     0
 10
69.227
 20
107.325
 30
0.0
 11
69.227
 21
107.476
 31
0.0
  0
LINE
  8
0
 62
     0
 10
69.227
 20
107.476
 30
0.0
 11
69.227
 21
107.626
 31
0.0
  0
LINE
  8
0
 62
     0
 10
69.227
 20
107.626
 30
0.0
 11
69.409
 21
108.037
 31
0.0
  0
LINE
  8
0
 62
     0
 10
69.409
 20
108.037
 30
0.0
 11
69.4461
 21
108.075
 31
0.0
  0
LINE
  8
0
 62
     0
 10
69.4461
 20
108.075
 30
0.0
 11
69.4821
 21
108.117
 31
0.0
  0
LINE
  8
0
 62
     0
 10
69.4821
 20
108.117
 30
0.0
 11
69.8542
 21
108.318
 31
0.0
  0
LINE
  8
0
 62
     0
 10
69.8542
 20
108.318
 30
0.0
 11
69.9795
 21
108.318
 31
0.0
  0
LINE
  8
0
 62
     0
 10
69.9795
 20
108.318
 30
0.0
 11
70.0112
 21
108.318
 31
0.0
  0
LINE
  8
0
 62
     0
 10
70.0112
 20
108.318
 30
0.0
 11
70.1008
 21
108.282
 31
0.0
  0
LINE
  8
0
 62
     0
 10
70.1008
 20
108.282
 30
0.0
 11
70.1065
 21
108.274
 31
0.0
  0
LINE
  8
0
 62
     0
 10
70.1065
 20
108.274
 30
0.0
 11
70.1118
 21
108.268
 31
0.0
  0
LINE
  8
0
 62
     0
 10
70.1118
 20
108.268
 30
0.0
 11
70.1393
 21
108.111
 31
0.0
  0
LINE
  8
0
 62
     0
 10
70.1393
 20
108.111
 30
0.0
 11
70.1393
 21
108.059
 31
0.0
  0
LINE
  8
0
 62
     0
 10
70.1393
 20
108.059
 30
0.0
 11
70.1393
 21
106.876
 31
0.0
  0
LINE
  8
0
 62
     0
 10
69.9135
 20
106.887
 30
0.0
 11
69.9135
 21
108.004
 31
0.0
  0
LINE
  8
0
 62
     0
 10
69.9135
 20
108.004
 30
0.0
 11
69.8789
 21
108.001
 31
0.0
  0
LINE
  8
0
 62
     0
 10
69.8789
 20
108.001
 30
0.0
 11
69.6087
 21
107.859
 31
0.0
  0
LINE
  8
0
 62
     0
 10
69.6087
 20
107.859
 30
0.0
 11
69.5896
 21
107.834
 31
0.0
  0
LINE
  8
0
 62
     0
 10
69.5896
 20
107.834
 30
0.0
 11
69.5674
 21
107.811
 31
0.0
  0
LINE
  8
0
 62
     0
 10
69.5674
 20
107.811
 30
0.0
 11
69.4626
 21
107.56
 31
0.0
  0
LINE
  8
0
 62
     0
 10
69.4626
 20
107.56
 30
0.0
 11
69.4626
 21
107.476
 31
0.0
  0
LINE
  8
0
 62
     0
 10
69.4626
 20
107.476
 30
0.0
 11
69.4626
 21
107.381
 31
0.0
  0
LINE
  8
0
 62
     0
 10
69.4626
 20
107.381
 30
0.0
 11
69.5635
 21
107.118
 31
0.0
  0
LINE
  8
0
 62
     0
 10
69.5635
 20
107.118
 30
0.0
 11
69.584
 21
107.091
 31
0.0
  0
LINE
  8
0
 62
     0
 10
69.584
 20
107.091
 30
0.0
 11
69.6034
 21
107.067
 31
0.0
  0
LINE
  8
0
 62
     0
 10
69.6034
 20
107.067
 30
0.0
 11
69.8789
 21
106.896
 31
0.0
  0
LINE
  8
0
 62
     0
 10
69.8789
 20
106.896
 30
0.0
 11
69.9135
 21
106.887
 31
0.0
  0
LINE
  8
0
 62
     0
 10
69.3692
 20
110.041
 30
0.0
 11
69.3692
 21
110.072
 31
0.0
  0
LINE
  8
0
 62
     0
 10
69.3692
 20
110.072
 30
0.0
 11
69.391
 21
110.162
 31
0.0
  0
LINE
  8
0
 62
     0
 10
69.391
 20
110.162
 30
0.0
 11
69.3967
 21
110.167
 31
0.0
  0
LINE
  8
0
 62
     0
 10
69.3967
 20
110.167
 30
0.0
 11
69.4009
 21
110.174
 31
0.0
  0
LINE
  8
0
 62
     0
 10
69.4009
 20
110.174
 30
0.0
 11
69.4669
 21
110.206
 31
0.0
  0
LINE
  8
0
 62
     0
 10
69.4669
 20
110.206
 30
0.0
 11
69.4902
 21
110.206
 31
0.0
  0
LINE
  8
0
 62
     0
 10
69.4902
 20
110.206
 30
0.0
 11
69.5138
 21
110.206
 31
0.0
  0
LINE
  8
0
 62
     0
 10
69.5138
 20
110.206
 30
0.0
 11
69.5784
 21
110.174
 31
0.0
  0
LINE
  8
0
 62
     0
 10
69.5784
 20
110.174
 30
0.0
 11
69.584
 21
110.167
 31
0.0
  0
LINE
  8
0
 62
     0
 10
69.584
 20
110.167
 30
0.0
 11
69.5882
 21
110.162
 31
0.0
  0
LINE
  8
0
 62
     0
 10
69.5882
 20
110.162
 30
0.0
 11
69.6115
 21
110.083
 31
0.0
  0
LINE
  8
0
 62
     0
 10
69.6115
 20
110.083
 30
0.0
 11
69.6115
 21
110.057
 31
0.0
  0
LINE
  8
0
 62
     0
 10
69.6115
 20
110.057
 30
0.0
 11
69.6115
 21
109.364
 31
0.0
  0
LINE
  8
0
 62
     0
 10
69.6115
 20
109.364
 30
0.0
 11
70.1834
 21
109.364
 31
0.0
  0
LINE
  8
0
 62
     0
 10
70.1834
 20
109.364
 30
0.0
 11
70.2758
 21
109.364
 31
0.0
  0
LINE
  8
0
 62
     0
 10
70.2758
 20
109.364
 30
0.0
 11
70.5404
 21
109.425
 31
0.0
  0
LINE
  8
0
 62
     0
 10
70.5404
 20
109.425
 30
0.0
 11
70.557
 21
109.436
 31
0.0
  0
LINE
  8
0
 62
     0
 10
70.557
 20
109.436
 30
0.0
 11
70.5707
 21
109.448
 31
0.0
  0
LINE
  8
0
 62
     0
 10
70.5707
 20
109.448
 30
0.0
 11
70.6452
 21
109.63
 31
0.0
  0
LINE
  8
0
 62
     0
 10
70.6452
 20
109.63
 30
0.0
 11
70.6452
 21
109.689
 31
0.0
  0
LINE
  8
0
 62
     0
 10
70.6452
 20
109.689
 30
0.0
 11
70.6452
 21
109.781
 31
0.0
  0
LINE
  8
0
 62
     0
 10
70.6452
 20
109.781
 30
0.0
 11
70.5707
 21
110.021
 31
0.0
  0
LINE
  8
0
 62
     0
 10
70.5707
 20
110.021
 30
0.0
 11
70.557
 21
110.057
 31
0.0
  0
LINE
  8
0
 62
     0
 10
70.557
 20
110.057
 30
0.0
 11
70.5404
 21
110.094
 31
0.0
  0
LINE
  8
0
 62
     0
 10
70.5404
 20
110.094
 30
0.0
 11
70.4631
 21
110.273
 31
0.0
  0
LINE
  8
0
 62
     0
 10
70.4631
 20
110.273
 30
0.0
 11
70.4631
 21
110.333
 31
0.0
  0
LINE
  8
0
 62
     0
 10
70.4631
 20
110.333
 30
0.0
 11
70.4631
 21
110.352
 31
0.0
  0
LINE
  8
0
 62
     0
 10
70.4631
 20
110.352
 30
0.0
 11
70.4906
 21
110.404
 31
0.0
  0
LINE
  8
0
 62
     0
 10
70.4906
 20
110.404
 30
0.0
 11
70.4963
 21
110.41
 31
0.0
  0
LINE
  8
0
 62
     0
 10
70.4963
 20
110.41
 30
0.0
 11
70.5019
 21
110.417
 31
0.0
  0
LINE
  8
0
 62
     0
 10
70.5019
 20
110.417
 30
0.0
 11
70.5598
 21
110.448
 31
0.0
  0
LINE
  8
0
 62
     0
 10
70.5598
 20
110.448
 30
0.0
 11
70.5788
 21
110.448
 31
0.0
  0
LINE
  8
0
 62
     0
 10
70.5788
 20
110.448
 30
0.0
 11
70.6053
 21
110.448
 31
0.0
  0
LINE
  8
0
 62
     0
 10
70.6053
 20
110.448
 30
0.0
 11
70.6755
 21
110.412
 31
0.0
  0
LINE
  8
0
 62
     0
 10
70.6755
 20
110.412
 30
0.0
 11
70.6836
 21
110.404
 31
0.0
  0
LINE
  8
0
 62
     0
 10
70.6836
 20
110.404
 30
0.0
 11
70.6893
 21
110.398
 31
0.0
  0
LINE
  8
0
 62
     0
 10
70.6893
 20
110.398
 30
0.0
 11
70.7542
 21
110.278
 31
0.0
  0
LINE
  8
0
 62
     0
 10
70.7542
 20
110.278
 30
0.0
 11
70.7609
 21
110.261
 31
0.0
  0
LINE
  8
0
 62
     0
 10
70.7609
 20
110.261
 30
0.0
 11
70.7718
 21
110.234
 31
0.0
  0
LINE
  8
0
 62
     0
 10
70.7718
 20
110.234
 30
0.0
 11
70.8547
 21
109.976
 31
0.0
  0
LINE
  8
0
 62
     0
 10
70.8547
 20
109.976
 30
0.0
 11
70.86
 21
109.952
 31
0.0
  0
LINE
  8
0
 62
     0
 10
70.86
 20
109.952
 30
0.0
 11
70.8656
 21
109.93
 31
0.0
  0
LINE
  8
0
 62
     0
 10
70.8656
 20
109.93
 30
0.0
 11
70.8932
 21
109.762
 31
0.0
  0
LINE
  8
0
 62
     0
 10
70.8932
 20
109.762
 30
0.0
 11
70.8932
 21
109.706
 31
0.0
  0
LINE
  8
0
 62
     0
 10
70.8932
 20
109.706
 30
0.0
 11
70.8932
 21
109.62
 31
0.0
  0
LINE
  8
0
 62
     0
 10
70.8932
 20
109.62
 30
0.0
 11
70.8381
 21
109.387
 31
0.0
  0
LINE
  8
0
 62
     0
 10
70.8381
 20
109.387
 30
0.0
 11
70.8272
 21
109.364
 31
0.0
  0
LINE
  8
0
 62
     0
 10
70.8272
 20
109.364
 30
0.0
 11
70.8159
 21
109.342
 31
0.0
  0
LINE
  8
0
 62
     0
 10
70.8159
 20
109.342
 30
0.0
 11
70.6547
 21
109.171
 31
0.0
  0
LINE
  8
0
 62
     0
 10
70.6547
 20
109.171
 30
0.0
 11
70.6342
 21
109.16
 31
0.0
  0
LINE
  8
0
 62
     0
 10
70.6342
 20
109.16
 30
0.0
 11
70.6229
 21
109.154
 31
0.0
  0
LINE
  8
0
 62
     0
 10
70.6229
 20
109.154
 30
0.0
 11
70.5044
 21
109.113
 31
0.0
  0
LINE
  8
0
 62
     0
 10
70.5044
 20
109.113
 30
0.0
 11
70.4906
 21
109.11
 31
0.0
  0
LINE
  8
0
 62
     0
 10
70.4906
 20
109.11
 30
0.0
 11
70.4769
 21
109.109
 31
0.0
  0
LINE
  8
0
 62
     0
 10
70.4769
 20
109.109
 30
0.0
 11
70.298
 21
109.099
 31
0.0
  0
LINE
  8
0
 62
     0
 10
70.298
 20
109.099
 30
0.0
 11
70.2388
 21
109.099
 31
0.0
  0
LINE
  8
0
 62
     0
 10
70.2388
 20
109.099
 30
0.0
 11
69.6115
 21
109.099
 31
0.0
  0
LINE
  8
0
 62
     0
 10
69.6115
 20
109.099
 30
0.0
 11
69.6115
 21
108.809
 31
0.0
  0
LINE
  8
0
 62
     0
 10
69.6115
 20
108.809
 30
0.0
 11
69.6115
 21
108.781
 31
0.0
  0
LINE
  8
0
 62
     0
 10
69.6115
 20
108.781
 30
0.0
 11
69.5882
 21
108.704
 31
0.0
  0
LINE
  8
0
 62
     0
 10
69.5882
 20
108.704
 30
0.0
 11
69.584
 21
108.698
 31
0.0
  0
LINE
  8
0
 62
     0
 10
69.584
 20
108.698
 30
0.0
 11
69.5784
 21
108.694
 31
0.0
  0
LINE
  8
0
 62
     0
 10
69.5784
 20
108.694
 30
0.0
 11
69.5124
 21
108.671
 31
0.0
  0
LINE
  8
0
 62
     0
 10
69.5124
 20
108.671
 30
0.0
 11
69.4902
 21
108.671
 31
0.0
  0
LINE
  8
0
 62
     0
 10
69.4902
 20
108.671
 30
0.0
 11
69.4669
 21
108.671
 31
0.0
  0
LINE
  8
0
 62
     0
 10
69.4669
 20
108.671
 30
0.0
 11
69.3995
 21
108.708
 31
0.0
  0
LINE
  8
0
 62
     0
 10
69.3995
 20
108.708
 30
0.0
 11
69.3967
 21
108.715
 31
0.0
  0
LINE
  8
0
 62
     0
 10
69.3967
 20
108.715
 30
0.0
 11
69.391
 21
108.723
 31
0.0
  0
LINE
  8
0
 62
     0
 10
69.391
 20
108.723
 30
0.0
 11
69.3692
 21
108.858
 31
0.0
  0
LINE
  8
0
 62
     0
 10
69.3692
 20
108.858
 30
0.0
 11
69.3692
 21
108.902
 31
0.0
  0
LINE
  8
0
 62
     0
 10
69.3692
 20
108.902
 30
0.0
 11
69.3692
 21
109.099
 31
0.0
  0
LINE
  8
0
 62
     0
 10
69.3692
 20
109.099
 30
0.0
 11
68.924
 21
109.099
 31
0.0
  0
LINE
  8
0
 62
     0
 10
68.924
 20
109.099
 30
0.0
 11
68.8979
 21
109.099
 31
0.0
  0
LINE
  8
0
 62
     0
 10
68.8979
 20
109.099
 30
0.0
 11
68.8248
 21
109.123
 31
0.0
  0
LINE
  8
0
 62
     0
 10
68.8248
 20
109.123
 30
0.0
 11
68.8192
 21
109.127
 31
0.0
  0
LINE
  8
0
 62
     0
 10
68.8192
 20
109.127
 30
0.0
 11
68.8125
 21
109.133
 31
0.0
  0
LINE
  8
0
 62
     0
 10
68.8125
 20
109.133
 30
0.0
 11
68.7807
 21
109.203
 31
0.0
  0
LINE
  8
0
 62
     0
 10
68.7807
 20
109.203
 30
0.0
 11
68.7807
 21
109.226
 31
0.0
  0
LINE
  8
0
 62
     0
 10
68.7807
 20
109.226
 30
0.0
 11
68.7807
 21
109.252
 31
0.0
  0
LINE
  8
0
 62
     0
 10
68.7807
 20
109.252
 30
0.0
 11
68.8164
 21
109.327
 31
0.0
  0
LINE
  8
0
 62
     0
 10
68.8164
 20
109.327
 30
0.0
 11
68.8248
 21
109.331
 31
0.0
  0
LINE
  8
0
 62
     0
 10
68.8248
 20
109.331
 30
0.0
 11
68.8301
 21
109.336
 31
0.0
  0
LINE
  8
0
 62
     0
 10
68.8301
 20
109.336
 30
0.0
 11
68.9709
 21
109.364
 31
0.0
  0
LINE
  8
0
 62
     0
 10
68.9709
 20
109.364
 30
0.0
 11
69.0178
 21
109.364
 31
0.0
  0
LINE
  8
0
 62
     0
 10
69.0178
 20
109.364
 30
0.0
 11
69.3692
 21
109.364
 31
0.0
  0
LINE
  8
0
 62
     0
 10
69.3692
 20
109.364
 30
0.0
 11
69.3692
 21
110.041
 31
0.0
  0
LINE
  8
0
 62
     0
 10
68.8799
 20
113.8
 30
0.0
 11
68.8799
 21
113.724
 31
0.0
  0
LINE
  8
0
 62
     0
 10
68.8799
 20
113.724
 30
0.0
 11
69.0771
 21
113.51
 31
0.0
  0
LINE
  8
0
 62
     0
 10
69.0771
 20
113.51
 30
0.0
 11
69.1169
 21
113.492
 31
0.0
  0
LINE
  8
0
 62
     0
 10
69.1169
 20
113.492
 30
0.0
 11
69.1554
 21
113.475
 31
0.0
  0
LINE
  8
0
 62
     0
 10
69.1554
 20
113.475
 30
0.0
 11
69.6214
 21
113.382
 31
0.0
  0
LINE
  8
0
 62
     0
 10
69.6214
 20
113.382
 30
0.0
 11
69.777
 21
113.382
 31
0.0
  0
LINE
  8
0
 62
     0
 10
69.777
 20
113.382
 30
0.0
 11
69.9424
 21
113.382
 31
0.0
  0
LINE
  8
0
 62
     0
 10
69.9424
 20
113.382
 30
0.0
 11
70.4024
 21
113.475
 31
0.0
  0
LINE
  8
0
 62
     0
 10
70.4024
 20
113.475
 30
0.0
 11
70.4427
 21
113.492
 31
0.0
  0
LINE
  8
0
 62
     0
 10
70.4427
 20
113.492
 30
0.0
 11
70.4797
 21
113.51
 31
0.0
  0
LINE
  8
0
 62
     0
 10
70.4797
 20
113.51
 30
0.0
 11
70.6727
 21
113.728
 31
0.0
  0
LINE
  8
0
 62
     0
 10
70.6727
 20
113.728
 30
0.0
 11
70.6727
 21
113.8
 31
0.0
  0
LINE
  8
0
 62
     0
 10
70.6727
 20
113.8
 30
0.0
 11
70.6727
 21
113.877
 31
0.0
  0
LINE
  8
0
 62
     0
 10
70.6727
 20
113.877
 30
0.0
 11
70.4797
 21
114.09
 31
0.0
  0
LINE
  8
0
 62
     0
 10
70.4797
 20
114.09
 30
0.0
 11
70.4427
 21
114.108
 31
0.0
  0
LINE
  8
0
 62
     0
 10
70.4427
 20
114.108
 30
0.0
 11
70.4024
 21
114.128
 31
0.0
  0
LINE
  8
0
 62
     0
 10
70.4024
 20
114.128
 30
0.0
 11
69.9325
 21
114.219
 31
0.0
  0
LINE
  8
0
 62
     0
 10
69.9325
 20
114.219
 30
0.0
 11
69.777
 21
114.219
 31
0.0
  0
LINE
  8
0
 62
     0
 10
69.777
 20
114.219
 30
0.0
 11
69.6115
 21
114.219
 31
0.0
  0
LINE
  8
0
 62
     0
 10
69.6115
 20
114.219
 30
0.0
 11
69.1554
 21
114.128
 31
0.0
  0
LINE
  8
0
 62
     0
 10
69.1554
 20
114.128
 30
0.0
 11
69.1169
 21
114.108
 31
0.0
  0
LINE
  8
0
 62
     0
 10
69.1169
 20
114.108
 30
0.0
 11
69.0771
 21
114.09
 31
0.0
  0
LINE
  8
0
 62
     0
 10
69.0771
 20
114.09
 30
0.0
 11
68.8799
 21
113.873
 31
0.0
  0
LINE
  8
0
 62
     0
 10
68.8799
 20
113.873
 30
0.0
 11
68.8799
 21
113.8
 31
0.0
  0
LINE
  8
0
 62
     0
 10
70.9154
 20
113.8
 30
0.0
 11
70.9154
 21
113.672
 31
0.0
  0
LINE
  8
0
 62
     0
 10
70.9154
 20
113.672
 30
0.0
 11
70.6617
 21
113.316
 31
0.0
  0
LINE
  8
0
 62
     0
 10
70.6617
 20
113.316
 30
0.0
 11
70.612
 21
113.283
 31
0.0
  0
LINE
  8
0
 62
     0
 10
70.612
 20
113.283
 30
0.0
 11
70.5612
 21
113.253
 31
0.0
  0
LINE
  8
0
 62
     0
 10
70.5612
 20
113.253
 30
0.0
 11
69.9728
 21
113.096
 31
0.0
  0
LINE
  8
0
 62
     0
 10
69.9728
 20
113.096
 30
0.0
 11
69.777
 21
113.096
 31
0.0
  0
LINE
  8
0
 62
     0
 10
69.777
 20
113.096
 30
0.0
 11
69.5688
 21
113.096
 31
0.0
  0
LINE
  8
0
 62
     0
 10
69.5688
 20
113.096
 30
0.0
 11
68.9956
 21
113.253
 31
0.0
  0
LINE
  8
0
 62
     0
 10
68.9956
 20
113.253
 30
0.0
 11
68.9462
 21
113.283
 31
0.0
  0
LINE
  8
0
 62
     0
 10
68.9462
 20
113.283
 30
0.0
 11
68.8936
 21
113.316
 31
0.0
  0
LINE
  8
0
 62
     0
 10
68.8936
 20
113.316
 30
0.0
 11
68.6386
 21
113.68
 31
0.0
  0
LINE
  8
0
 62
     0
 10
68.6386
 20
113.68
 30
0.0
 11
68.6386
 21
113.8
 31
0.0
  0
LINE
  8
0
 62
     0
 10
68.6386
 20
113.8
 30
0.0
 11
68.6386
 21
113.928
 31
0.0
  0
LINE
  8
0
 62
     0
 10
68.6386
 20
113.928
 30
0.0
 11
68.8936
 21
114.282
 31
0.0
  0
LINE
  8
0
 62
     0
 10
68.8936
 20
114.282
 30
0.0
 11
68.9462
 21
114.312
 31
0.0
  0
LINE
  8
0
 62
     0
 10
68.9462
 20
114.312
 30
0.0
 11
68.9956
 21
114.344
 31
0.0
  0
LINE
  8
0
 62
     0
 10
68.9956
 20
114.344
 30
0.0
 11
69.5812
 21
114.504
 31
0.0
  0
LINE
  8
0
 62
     0
 10
69.5812
 20
114.504
 30
0.0
 11
69.777
 21
114.504
 31
0.0
  0
LINE
  8
0
 62
     0
 10
69.777
 20
114.504
 30
0.0
 11
69.9851
 21
114.504
 31
0.0
  0
LINE
  8
0
 62
     0
 10
69.9851
 20
114.504
 30
0.0
 11
70.5612
 21
114.344
 31
0.0
  0
LINE
  8
0
 62
     0
 10
70.5612
 20
114.344
 30
0.0
 11
70.612
 21
114.312
 31
0.0
  0
LINE
  8
0
 62
     0
 10
70.612
 20
114.312
 30
0.0
 11
70.6617
 21
114.282
 31
0.0
  0
LINE
  8
0
 62
     0
 10
70.6617
 20
114.282
 30
0.0
 11
70.9154
 21
113.921
 31
0.0
  0
LINE
  8
0
 62
     0
 10
70.9154
 20
113.921
 30
0.0
 11
70.9154
 21
113.8
 31
0.0
  0
LINE
  8
0
 62
     140
 10
77.3546
 20
199.765
 30
0.0
 11
77.3465
 21
199.765
 31
0.0
  0
LINE
  8
0
 62
     140
 10
77.3465
 20
199.765
 30
0.0
 11
77.3232
 21
199.76
 31
0.0
  0
LINE
  8
0
 62
     140
 10
77.3232
 20
199.76
 30
0.0
 11
77.3218
 21
199.759
 31
0.0
  0
LINE
  8
0
 62
     140
 10
77.3218
 20
199.759
 30
0.0
 11
77.3176
 21
199.759
 31
0.0
  0
LINE
  8
0
 62
     140
 10
77.3176
 20
199.759
 30
0.0
 11
77.3053
 21
199.759
 31
0.0
  0
LINE
  8
0
 62
     140
 10
77.3053
 20
199.759
 30
0.0
 11
77.3053
 21
199.759
 31
0.0
  0
LINE
  8
0
 62
     140
 10
77.3053
 20
199.759
 30
0.0
 11
77.283
 21
199.759
 31
0.0
  0
LINE
  8
0
 62
     140
 10
77.283
 20
199.759
 30
0.0
 11
77.2223
 21
199.783
 31
0.0
  0
LINE
  8
0
 62
     140
 10
77.2223
 20
199.783
 30
0.0
 11
77.2171
 21
199.787
 31
0.0
  0
LINE
  8
0
 62
     140
 10
77.2171
 20
199.787
 30
0.0
 11
77.2114
 21
199.792
 31
0.0
  0
LINE
  8
0
 62
     140
 10
77.2114
 20
199.792
 30
0.0
 11
77.1839
 21
199.85
 31
0.0
  0
LINE
  8
0
 62
     140
 10
77.1839
 20
199.85
 30
0.0
 11
77.1839
 21
199.869
 31
0.0
  0
LINE
  8
0
 62
     140
 10
77.1839
 20
199.869
 30
0.0
 11
77.1839
 21
199.887
 31
0.0
  0
LINE
  8
0
 62
     140
 10
77.1839
 20
199.887
 30
0.0
 11
77.2061
 21
199.937
 31
0.0
  0
LINE
  8
0
 62
     140
 10
77.2061
 20
199.937
 30
0.0
 11
77.2114
 21
199.941
 31
0.0
  0
LINE
  8
0
 62
     140
 10
77.2114
 20
199.941
 30
0.0
 11
77.2156
 21
199.946
 31
0.0
  0
LINE
  8
0
 62
     140
 10
77.2156
 20
199.946
 30
0.0
 11
77.2844
 21
199.988
 31
0.0
  0
LINE
  8
0
 62
     140
 10
77.2844
 20
199.988
 30
0.0
 11
77.2943
 21
199.99
 31
0.0
  0
LINE
  8
0
 62
     140
 10
77.2943
 20
199.99
 30
0.0
 11
77.8055
 21
200.128
 31
0.0
  0
LINE
  8
0
 62
     140
 10
77.8055
 20
200.128
 30
0.0
 11
77.8083
 21
200.13
 31
0.0
  0
LINE
  8
0
 62
     140
 10
77.8083
 20
200.13
 30
0.0
 11
77.8344
 21
200.134
 31
0.0
  0
LINE
  8
0
 62
     140
 10
77.8344
 20
200.134
 30
0.0
 11
77.8439
 21
200.134
 31
0.0
  0
LINE
  8
0
 62
     140
 10
77.8439
 20
200.134
 30
0.0
 11
77.8468
 21
200.135
 31
0.0
  0
LINE
  8
0
 62
     140
 10
77.8468
 20
200.135
 30
0.0
 11
77.8729
 21
200.139
 31
0.0
  0
LINE
  8
0
 62
     140
 10
77.8729
 20
200.139
 30
0.0
 11
77.8828
 21
200.139
 31
0.0
  0
LINE
  8
0
 62
     140
 10
77.8828
 20
200.139
 30
0.0
 11
77.8937
 21
200.139
 31
0.0
  0
LINE
  8
0
 62
     140
 10
77.8937
 20
200.139
 30
0.0
 11
77.924
 21
200.112
 31
0.0
  0
LINE
  8
0
 62
     140
 10
77.924
 20
200.112
 30
0.0
 11
77.9268
 21
200.106
 31
0.0
  0
LINE
  8
0
 62
     140
 10
77.9268
 20
200.106
 30
0.0
 11
77.9293
 21
200.102
 31
0.0
  0
LINE
  8
0
 62
     140
 10
77.9293
 20
200.102
 30
0.0
 11
77.9487
 21
200.044
 31
0.0
  0
LINE
  8
0
 62
     140
 10
77.9487
 20
200.044
 30
0.0
 11
77.9487
 21
200.024
 31
0.0
  0
LINE
  8
0
 62
     140
 10
77.9487
 20
200.024
 30
0.0
 11
77.9487
 21
198.163
 31
0.0
  0
LINE
  8
0
 62
     140
 10
77.9487
 20
198.163
 30
0.0
 11
78.2242
 21
198.163
 31
0.0
  0
LINE
  8
0
 62
     140
 10
78.2242
 20
198.163
 30
0.0
 11
78.2712
 21
198.163
 31
0.0
  0
LINE
  8
0
 62
     140
 10
78.2712
 20
198.163
 30
0.0
 11
78.4091
 21
198.141
 31
0.0
  0
LINE
  8
0
 62
     140
 10
78.4091
 20
198.141
 30
0.0
 11
78.4158
 21
198.136
 31
0.0
  0
LINE
  8
0
 62
     140
 10
78.4158
 20
198.136
 30
0.0
 11
78.4229
 21
198.133
 31
0.0
  0
LINE
  8
0
 62
     140
 10
78.4229
 20
198.133
 30
0.0
 11
78.4599
 21
198.07
 31
0.0
  0
LINE
  8
0
 62
     140
 10
78.4599
 20
198.07
 30
0.0
 11
78.4599
 21
198.048
 31
0.0
  0
LINE
  8
0
 62
     140
 10
78.4599
 20
198.048
 30
0.0
 11
78.4599
 21
198.023
 31
0.0
  0
LINE
  8
0
 62
     140
 10
78.4599
 20
198.023
 30
0.0
 11
78.4324
 21
197.954
 31
0.0
  0
LINE
  8
0
 62
     140
 10
78.4324
 20
197.954
 30
0.0
 11
78.4271
 21
197.948
 31
0.0
  0
LINE
  8
0
 62
     140
 10
78.4271
 20
197.948
 30
0.0
 11
78.4214
 21
197.944
 31
0.0
  0
LINE
  8
0
 62
     140
 10
78.4214
 20
197.944
 30
0.0
 11
78.347
 21
197.921
 31
0.0
  0
LINE
  8
0
 62
     140
 10
78.347
 20
197.921
 30
0.0
 11
78.3223
 21
197.921
 31
0.0
  0
LINE
  8
0
 62
     140
 10
78.3223
 20
197.921
 30
0.0
 11
77.2943
 21
197.921
 31
0.0
  0
LINE
  8
0
 62
     140
 10
77.2943
 20
197.921
 30
0.0
 11
77.2679
 21
197.921
 31
0.0
  0
LINE
  8
0
 62
     140
 10
77.2679
 20
197.921
 30
0.0
 11
77.1948
 21
197.944
 31
0.0
  0
LINE
  8
0
 62
     140
 10
77.1948
 20
197.944
 30
0.0
 11
77.1895
 21
197.948
 31
0.0
  0
LINE
  8
0
 62
     140
 10
77.1895
 20
197.948
 30
0.0
 11
77.1839
 21
197.954
 31
0.0
  0
LINE
  8
0
 62
     140
 10
77.1839
 20
197.954
 30
0.0
 11
77.1564
 21
198.024
 31
0.0
  0
LINE
  8
0
 62
     140
 10
77.1564
 20
198.024
 30
0.0
 11
77.1564
 21
198.048
 31
0.0
  0
LINE
  8
0
 62
     140
 10
77.1564
 20
198.048
 30
0.0
 11
77.1564
 21
198.07
 31
0.0
  0
LINE
  8
0
 62
     140
 10
77.1564
 20
198.07
 30
0.0
 11
77.1881
 21
198.133
 31
0.0
  0
LINE
  8
0
 62
     140
 10
77.1881
 20
198.133
 30
0.0
 11
77.1948
 21
198.136
 31
0.0
  0
LINE
  8
0
 62
     140
 10
77.1948
 20
198.136
 30
0.0
 11
77.2019
 21
198.141
 31
0.0
  0
LINE
  8
0
 62
     140
 10
77.2019
 20
198.141
 30
0.0
 11
77.3451
 21
198.163
 31
0.0
  0
LINE
  8
0
 62
     140
 10
77.3451
 20
198.163
 30
0.0
 11
77.3934
 21
198.163
 31
0.0
  0
LINE
  8
0
 62
     140
 10
77.3934
 20
198.163
 30
0.0
 11
77.6799
 21
198.163
 31
0.0
  0
LINE
  8
0
 62
     140
 10
77.6799
 20
198.163
 30
0.0
 11
77.6799
 21
199.842
 31
0.0
  0
LINE
  8
0
 62
     140
 10
77.6799
 20
199.842
 30
0.0
 11
77.3546
 21
199.765
 31
0.0
  0
LINE
  8
0
 62
     140
 10
80.0227
 20
198.713
 30
0.0
 11
80.0227
 21
199.88
 31
0.0
  0
LINE
  8
0
 62
     140
 10
80.0227
 20
199.88
 30
0.0
 11
79.3736
 21
198.713
 31
0.0
  0
LINE
  8
0
 62
     140
 10
79.3736
 20
198.713
 30
0.0
 11
80.0227
 21
198.713
 31
0.0
  0
LINE
  8
0
 62
     140
 10
79.8354
 20
197.921
 30
0.0
 11
79.8079
 21
197.921
 31
0.0
  0
LINE
  8
0
 62
     140
 10
79.8079
 20
197.921
 30
0.0
 11
79.7292
 21
197.944
 31
0.0
  0
LINE
  8
0
 62
     140
 10
79.7292
 20
197.944
 30
0.0
 11
79.725
 21
197.948
 31
0.0
  0
LINE
  8
0
 62
     140
 10
79.725
 20
197.948
 30
0.0
 11
79.7197
 21
197.954
 31
0.0
  0
LINE
  8
0
 62
     140
 10
79.7197
 20
197.954
 30
0.0
 11
79.6974
 21
198.024
 31
0.0
  0
LINE
  8
0
 62
     140
 10
79.6974
 20
198.024
 30
0.0
 11
79.6974
 21
198.048
 31
0.0
  0
LINE
  8
0
 62
     140
 10
79.6974
 20
198.048
 30
0.0
 11
79.6974
 21
198.07
 31
0.0
  0
LINE
  8
0
 62
     140
 10
79.6974
 20
198.07
 30
0.0
 11
79.7197
 21
198.132
 31
0.0
  0
LINE
  8
0
 62
     140
 10
79.7197
 20
198.132
 30
0.0
 11
79.725
 21
198.136
 31
0.0
  0
LINE
  8
0
 62
     140
 10
79.725
 20
198.136
 30
0.0
 11
79.7306
 21
198.141
 31
0.0
  0
LINE
  8
0
 62
     140
 10
79.7306
 20
198.141
 30
0.0
 11
79.8008
 21
198.163
 31
0.0
  0
LINE
  8
0
 62
     140
 10
79.8008
 20
198.163
 30
0.0
 11
79.8241
 21
198.163
 31
0.0
  0
LINE
  8
0
 62
     140
 10
79.8241
 20
198.163
 30
0.0
 11
80.0227
 21
198.163
 31
0.0
  0
LINE
  8
0
 62
     140
 10
80.0227
 20
198.163
 30
0.0
 11
80.0227
 21
198.456
 31
0.0
  0
LINE
  8
0
 62
     140
 10
80.0227
 20
198.456
 30
0.0
 11
79.2194
 21
198.456
 31
0.0
  0
LINE
  8
0
 62
     140
 10
79.2194
 20
198.456
 30
0.0
 11
79.2028
 21
198.456
 31
0.0
  0
LINE
  8
0
 62
     140
 10
79.2028
 20
198.456
 30
0.0
 11
79.1559
 21
198.479
 31
0.0
  0
LINE
  8
0
 62
     140
 10
79.1559
 20
198.479
 30
0.0
 11
79.1531
 21
198.483
 31
0.0
  0
LINE
  8
0
 62
     140
 10
79.1531
 20
198.483
 30
0.0
 11
79.1489
 21
198.489
 31
0.0
  0
LINE
  8
0
 62
     140
 10
79.1489
 20
198.489
 30
0.0
 11
79.1312
 21
198.542
 31
0.0
  0
LINE
  8
0
 62
     140
 10
79.1312
 20
198.542
 30
0.0
 11
79.1312
 21
198.56
 31
0.0
  0
LINE
  8
0
 62
     140
 10
79.1312
 20
198.56
 30
0.0
 11
79.1312
 21
198.68
 31
0.0
  0
LINE
  8
0
 62
     140
 10
79.1312
 20
198.68
 30
0.0
 11
79.1312
 21
198.716
 31
0.0
  0
LINE
  8
0
 62
     140
 10
79.1312
 20
198.716
 30
0.0
 11
79.1725
 21
198.811
 31
0.0
  0
LINE
  8
0
 62
     140
 10
79.1725
 20
198.811
 30
0.0
 11
79.1806
 21
198.823
 31
0.0
  0
LINE
  8
0
 62
     140
 10
79.1806
 20
198.823
 30
0.0
 11
79.1806
 21
198.826
 31
0.0
  0
LINE
  8
0
 62
     140
 10
79.1806
 20
198.826
 30
0.0
 11
79.1905
 21
198.844
 31
0.0
  0
LINE
  8
0
 62
     140
 10
79.1905
 20
198.844
 30
0.0
 11
79.1916
 21
198.845
 31
0.0
  0
LINE
  8
0
 62
     140
 10
79.1916
 20
198.845
 30
0.0
 11
79.9179
 21
200.079
 31
0.0
  0
LINE
  8
0
 62
     140
 10
79.9179
 20
200.079
 30
0.0
 11
79.9207
 21
200.086
 31
0.0
  0
LINE
  8
0
 62
     140
 10
79.9207
 20
200.086
 30
0.0
 11
79.9539
 21
200.127
 31
0.0
  0
LINE
  8
0
 62
     140
 10
79.9539
 20
200.127
 30
0.0
 11
79.9564
 21
200.128
 31
0.0
  0
LINE
  8
0
 62
     140
 10
79.9564
 20
200.128
 30
0.0
 11
79.9592
 21
200.131
 31
0.0
  0
LINE
  8
0
 62
     140
 10
79.9592
 20
200.131
 30
0.0
 11
79.9895
 21
200.145
 31
0.0
  0
LINE
  8
0
 62
     140
 10
79.9895
 20
200.145
 30
0.0
 11
80.0005
 21
200.145
 31
0.0
  0
LINE
  8
0
 62
     140
 10
80.0005
 20
200.145
 30
0.0
 11
80.0089
 21
200.145
 31
0.0
  0
LINE
  8
0
 62
     140
 10
80.0089
 20
200.145
 30
0.0
 11
80.0294
 21
200.141
 31
0.0
  0
LINE
  8
0
 62
     140
 10
80.0294
 20
200.141
 30
0.0
 11
80.0336
 21
200.139
 31
0.0
  0
LINE
  8
0
 62
     140
 10
80.0336
 20
200.139
 30
0.0
 11
80.0379
 21
200.139
 31
0.0
  0
LINE
  8
0
 62
     140
 10
80.0379
 20
200.139
 30
0.0
 11
80.0502
 21
200.139
 31
0.0
  0
LINE
  8
0
 62
     140
 10
80.0502
 20
200.139
 30
0.0
 11
80.0502
 21
200.139
 31
0.0
  0
LINE
  8
0
 62
     140
 10
80.0502
 20
200.139
 30
0.0
 11
80.2252
 21
200.112
 31
0.0
  0
LINE
  8
0
 62
     140
 10
80.2252
 20
200.112
 30
0.0
 11
80.228
 21
200.112
 31
0.0
  0
LINE
  8
0
 62
     140
 10
80.228
 20
200.112
 30
0.0
 11
80.2555
 21
200.084
 31
0.0
  0
LINE
  8
0
 62
     140
 10
80.2555
 20
200.084
 30
0.0
 11
80.2584
 21
200.079
 31
0.0
  0
LINE
  8
0
 62
     140
 10
80.2584
 20
200.079
 30
0.0
 11
80.2612
 21
200.076
 31
0.0
  0
LINE
  8
0
 62
     140
 10
80.2612
 20
200.076
 30
0.0
 11
80.2749
 21
200.037
 31
0.0
  0
LINE
  8
0
 62
     140
 10
80.2749
 20
200.037
 30
0.0
 11
80.2749
 21
200.024
 31
0.0
  0
LINE
  8
0
 62
     140
 10
80.2749
 20
200.024
 30
0.0
 11
80.2749
 21
198.713
 31
0.0
  0
LINE
  8
0
 62
     140
 10
80.2749
 20
198.713
 30
0.0
 11
80.3631
 21
198.713
 31
0.0
  0
LINE
  8
0
 62
     140
 10
80.3631
 20
198.713
 30
0.0
 11
80.3783
 21
198.713
 31
0.0
  0
LINE
  8
0
 62
     140
 10
80.3783
 20
198.713
 30
0.0
 11
80.4196
 21
198.737
 31
0.0
  0
LINE
  8
0
 62
     140
 10
80.4196
 20
198.737
 30
0.0
 11
80.4238
 21
198.741
 31
0.0
  0
LINE
  8
0
 62
     140
 10
80.4238
 20
198.741
 30
0.0
 11
80.4263
 21
198.746
 31
0.0
  0
LINE
  8
0
 62
     140
 10
80.4263
 20
198.746
 30
0.0
 11
80.4566
 21
198.774
 31
0.0
  0
LINE
  8
0
 62
     140
 10
80.4566
 20
198.774
 30
0.0
 11
80.4679
 21
198.774
 31
0.0
  0
LINE
  8
0
 62
     140
 10
80.4679
 20
198.774
 30
0.0
 11
80.4831
 21
198.774
 31
0.0
  0
LINE
  8
0
 62
     140
 10
80.4831
 20
198.774
 30
0.0
 11
80.5243
 21
198.752
 31
0.0
  0
LINE
  8
0
 62
     140
 10
80.5243
 20
198.752
 30
0.0
 11
80.5286
 21
198.746
 31
0.0
  0
LINE
  8
0
 62
     140
 10
80.5286
 20
198.746
 30
0.0
 11
80.5311
 21
198.743
 31
0.0
  0
LINE
  8
0
 62
     140
 10
80.5311
 20
198.743
 30
0.0
 11
80.5505
 21
198.701
 31
0.0
  0
LINE
  8
0
 62
     140
 10
80.5505
 20
198.701
 30
0.0
 11
80.5505
 21
198.686
 31
0.0
  0
LINE
  8
0
 62
     140
 10
80.5505
 20
198.686
 30
0.0
 11
80.5505
 21
198.679
 31
0.0
  0
LINE
  8
0
 62
     140
 10
80.5505
 20
198.679
 30
0.0
 11
80.5505
 21
198.661
 31
0.0
  0
LINE
  8
0
 62
     140
 10
80.5505
 20
198.661
 30
0.0
 11
80.5505
 21
198.654
 31
0.0
  0
LINE
  8
0
 62
     140
 10
80.5505
 20
198.654
 30
0.0
 11
80.5505
 21
198.648
 31
0.0
  0
LINE
  8
0
 62
     140
 10
80.5505
 20
198.648
 30
0.0
 11
80.5448
 21
198.635
 31
0.0
  0
LINE
  8
0
 62
     140
 10
80.5448
 20
198.635
 30
0.0
 11
80.5448
 21
198.632
 31
0.0
  0
LINE
  8
0
 62
     140
 10
80.5448
 20
198.632
 30
0.0
 11
80.5286
 21
198.56
 31
0.0
  0
LINE
  8
0
 62
     140
 10
80.5286
 20
198.56
 30
0.0
 11
80.5258
 21
198.55
 31
0.0
  0
LINE
  8
0
 62
     140
 10
80.5258
 20
198.55
 30
0.0
 11
80.4982
 21
198.482
 31
0.0
  0
LINE
  8
0
 62
     140
 10
80.4982
 20
198.482
 30
0.0
 11
80.4954
 21
198.477
 31
0.0
  0
LINE
  8
0
 62
     140
 10
80.4954
 20
198.477
 30
0.0
 11
80.4912
 21
198.475
 31
0.0
  0
LINE
  8
0
 62
     140
 10
80.4912
 20
198.475
 30
0.0
 11
80.4404
 21
198.456
 31
0.0
  0
LINE
  8
0
 62
     140
 10
80.4404
 20
198.456
 30
0.0
 11
80.4238
 21
198.456
 31
0.0
  0
LINE
  8
0
 62
     140
 10
80.4238
 20
198.456
 30
0.0
 11
80.2749
 21
198.456
 31
0.0
  0
LINE
  8
0
 62
     140
 10
80.2749
 20
198.456
 30
0.0
 11
80.2749
 21
198.163
 31
0.0
  0
LINE
  8
0
 62
     140
 10
80.2749
 20
198.163
 30
0.0
 11
80.3356
 21
198.163
 31
0.0
  0
LINE
  8
0
 62
     140
 10
80.3356
 20
198.163
 30
0.0
 11
80.3727
 21
198.163
 31
0.0
  0
LINE
  8
0
 62
     140
 10
80.3727
 20
198.163
 30
0.0
 11
80.4774
 21
198.141
 31
0.0
  0
LINE
  8
0
 62
     140
 10
80.4774
 20
198.141
 30
0.0
 11
80.4845
 21
198.136
 31
0.0
  0
LINE
  8
0
 62
     140
 10
80.4845
 20
198.136
 30
0.0
 11
80.4912
 21
198.132
 31
0.0
  0
LINE
  8
0
 62
     140
 10
80.4912
 20
198.132
 30
0.0
 11
80.5286
 21
198.07
 31
0.0
  0
LINE
  8
0
 62
     140
 10
80.5286
 20
198.07
 30
0.0
 11
80.5286
 21
198.048
 31
0.0
  0
LINE
  8
0
 62
     140
 10
80.5286
 20
198.048
 30
0.0
 11
80.5286
 21
198.023
 31
0.0
  0
LINE
  8
0
 62
     140
 10
80.5286
 20
198.023
 30
0.0
 11
80.5007
 21
197.954
 31
0.0
  0
LINE
  8
0
 62
     140
 10
80.5007
 20
197.954
 30
0.0
 11
80.4954
 21
197.948
 31
0.0
  0
LINE
  8
0
 62
     140
 10
80.4954
 20
197.948
 30
0.0
 11
80.4898
 21
197.944
 31
0.0
  0
LINE
  8
0
 62
     140
 10
80.4898
 20
197.944
 30
0.0
 11
80.4153
 21
197.921
 31
0.0
  0
LINE
  8
0
 62
     140
 10
80.4153
 20
197.921
 30
0.0
 11
80.3906
 21
197.921
 31
0.0
  0
LINE
  8
0
 62
     140
 10
80.3906
 20
197.921
 30
0.0
 11
79.8354
 21
197.921
 31
0.0
  0
LINE
  8
0
 62
     140
 10
81.5728
 20
198.516
 30
0.0
 11
81.5728
 21
198.44
 31
0.0
  0
LINE
  8
0
 62
     140
 10
81.5728
 20
198.44
 30
0.0
 11
81.6695
 21
198.232
 31
0.0
  0
LINE
  8
0
 62
     140
 10
81.6695
 20
198.232
 30
0.0
 11
81.6889
 21
198.213
 31
0.0
  0
LINE
  8
0
 62
     140
 10
81.6889
 20
198.213
 30
0.0
 11
81.7079
 21
198.195
 31
0.0
  0
LINE
  8
0
 62
     140
 10
81.7079
 20
198.195
 30
0.0
 11
81.9203
 21
198.103
 31
0.0
  0
LINE
  8
0
 62
     140
 10
81.9203
 20
198.103
 30
0.0
 11
81.9919
 21
198.103
 31
0.0
  0
LINE
  8
0
 62
     140
 10
81.9919
 20
198.103
 30
0.0
 11
82.0663
 21
198.103
 31
0.0
  0
LINE
  8
0
 62
     140
 10
82.0663
 20
198.103
 30
0.0
 11
82.2745
 21
198.195
 31
0.0
  0
LINE
  8
0
 62
     140
 10
82.2745
 20
198.195
 30
0.0
 11
82.2935
 21
198.213
 31
0.0
  0
LINE
  8
0
 62
     140
 10
82.2935
 20
198.213
 30
0.0
 11
82.3129
 21
198.232
 31
0.0
  0
LINE
  8
0
 62
     140
 10
82.3129
 20
198.232
 30
0.0
 11
82.4096
 21
198.438
 31
0.0
  0
LINE
  8
0
 62
     140
 10
82.4096
 20
198.438
 30
0.0
 11
82.4096
 21
198.505
 31
0.0
  0
LINE
  8
0
 62
     140
 10
82.4096
 20
198.505
 30
0.0
 11
82.4096
 21
198.578
 31
0.0
  0
LINE
  8
0
 62
     140
 10
82.4096
 20
198.578
 30
0.0
 11
82.3129
 21
198.778
 31
0.0
  0
LINE
  8
0
 62
     140
 10
82.3129
 20
198.778
 30
0.0
 11
82.2935
 21
198.796
 31
0.0
  0
LINE
  8
0
 62
     140
 10
82.2935
 20
198.796
 30
0.0
 11
82.2745
 21
198.815
 31
0.0
  0
LINE
  8
0
 62
     140
 10
82.2745
 20
198.815
 30
0.0
 11
82.0621
 21
198.906
 31
0.0
  0
LINE
  8
0
 62
     140
 10
82.0621
 20
198.906
 30
0.0
 11
81.9919
 21
198.906
 31
0.0
  0
LINE
  8
0
 62
     140
 10
81.9919
 20
198.906
 30
0.0
 11
81.9161
 21
198.906
 31
0.0
  0
LINE
  8
0
 62
     140
 10
81.9161
 20
198.906
 30
0.0
 11
81.7079
 21
198.815
 31
0.0
  0
LINE
  8
0
 62
     140
 10
81.7079
 20
198.815
 30
0.0
 11
81.6889
 21
198.796
 31
0.0
  0
LINE
  8
0
 62
     140
 10
81.6889
 20
198.796
 30
0.0
 11
81.6695
 21
198.778
 31
0.0
  0
LINE
  8
0
 62
     140
 10
81.6695
 20
198.778
 30
0.0
 11
81.5728
 21
198.582
 31
0.0
  0
LINE
  8
0
 62
     140
 10
81.5728
 20
198.582
 30
0.0
 11
81.5728
 21
198.516
 31
0.0
  0
LINE
  8
0
 62
     140
 10
81.5894
 20
199.539
 30
0.0
 11
81.5894
 21
199.47
 31
0.0
  0
LINE
  8
0
 62
     140
 10
81.5894
 20
199.47
 30
0.0
 11
81.6804
 21
199.278
 31
0.0
  0
LINE
  8
0
 62
     140
 10
81.6804
 20
199.278
 30
0.0
 11
81.6998
 21
199.259
 31
0.0
  0
LINE
  8
0
 62
     140
 10
81.6998
 20
199.259
 30
0.0
 11
81.7192
 21
199.241
 31
0.0
  0
LINE
  8
0
 62
     140
 10
81.7192
 20
199.241
 30
0.0
 11
81.9231
 21
199.149
 31
0.0
  0
LINE
  8
0
 62
     140
 10
81.9231
 20
199.149
 30
0.0
 11
81.9919
 21
199.149
 31
0.0
  0
LINE
  8
0
 62
     140
 10
81.9919
 20
199.149
 30
0.0
 11
82.0621
 21
199.149
 31
0.0
  0
LINE
  8
0
 62
     140
 10
82.0621
 20
199.149
 30
0.0
 11
82.2579
 21
199.241
 31
0.0
  0
LINE
  8
0
 62
     140
 10
82.2579
 20
199.241
 30
0.0
 11
82.2773
 21
199.259
 31
0.0
  0
LINE
  8
0
 62
     140
 10
82.2773
 20
199.259
 30
0.0
 11
82.2964
 21
199.278
 31
0.0
  0
LINE
  8
0
 62
     140
 10
82.2964
 20
199.278
 30
0.0
 11
82.393
 21
199.474
 31
0.0
  0
LINE
  8
0
 62
     140
 10
82.393
 20
199.474
 30
0.0
 11
82.393
 21
199.539
 31
0.0
  0
LINE
  8
0
 62
     140
 10
82.393
 20
199.539
 30
0.0
 11
82.393
 21
199.606
 31
0.0
  0
LINE
  8
0
 62
     140
 10
82.393
 20
199.606
 30
0.0
 11
82.2964
 21
199.792
 31
0.0
  0
LINE
  8
0
 62
     140
 10
82.2964
 20
199.792
 30
0.0
 11
82.2773
 21
199.809
 31
0.0
  0
LINE
  8
0
 62
     140
 10
82.2773
 20
199.809
 30
0.0
 11
82.2579
 21
199.828
 31
0.0
  0
LINE
  8
0
 62
     140
 10
82.2579
 20
199.828
 30
0.0
 11
82.0579
 21
199.919
 31
0.0
  0
LINE
  8
0
 62
     140
 10
82.0579
 20
199.919
 30
0.0
 11
81.9919
 21
199.919
 31
0.0
  0
LINE
  8
0
 62
     140
 10
81.9919
 20
199.919
 30
0.0
 11
81.9189
 21
199.919
 31
0.0
  0
LINE
  8
0
 62
     140
 10
81.9189
 20
199.919
 30
0.0
 11
81.7192
 21
199.828
 31
0.0
  0
LINE
  8
0
 62
     140
 10
81.7192
 20
199.828
 30
0.0
 11
81.6998
 21
199.809
 31
0.0
  0
LINE
  8
0
 62
     140
 10
81.6998
 20
199.809
 30
0.0
 11
81.6804
 21
199.792
 31
0.0
  0
LINE
  8
0
 62
     140
 10
81.6804
 20
199.792
 30
0.0
 11
81.5894
 21
199.602
 31
0.0
  0
LINE
  8
0
 62
     140
 10
81.5894
 20
199.602
 30
0.0
 11
81.5894
 21
199.539
 31
0.0
  0
LINE
  8
0
 62
     140
 10
81.6448
 20
199.033
 30
0.0
 11
81.6169
 21
199.047
 31
0.0
  0
LINE
  8
0
 62
     140
 10
81.6169
 20
199.047
 30
0.0
 11
81.4063
 21
199.222
 31
0.0
  0
LINE
  8
0
 62
     140
 10
81.4063
 20
199.222
 30
0.0
 11
81.3925
 21
199.242
 31
0.0
  0
LINE
  8
0
 62
     140
 10
81.3925
 20
199.242
 30
0.0
 11
81.3788
 21
199.264
 31
0.0
  0
LINE
  8
0
 62
     140
 10
81.3788
 20
199.264
 30
0.0
 11
81.3096
 21
199.471
 31
0.0
  0
LINE
  8
0
 62
     140
 10
81.3096
 20
199.471
 30
0.0
 11
81.3096
 21
199.539
 31
0.0
  0
LINE
  8
0
 62
     140
 10
81.3096
 20
199.539
 30
0.0
 11
81.3096
 21
199.648
 31
0.0
  0
LINE
  8
0
 62
     140
 10
81.3096
 20
199.648
 30
0.0
 11
81.4684
 21
199.946
 31
0.0
  0
LINE
  8
0
 62
     140
 10
81.4684
 20
199.946
 30
0.0
 11
81.5012
 21
199.974
 31
0.0
  0
LINE
  8
0
 62
     140
 10
81.5012
 20
199.974
 30
0.0
 11
81.5329
 21
200.003
 31
0.0
  0
LINE
  8
0
 62
     140
 10
81.5329
 20
200.003
 30
0.0
 11
81.8762
 21
200.145
 31
0.0
  0
LINE
  8
0
 62
     140
 10
81.8762
 20
200.145
 30
0.0
 11
81.9919
 21
200.145
 31
0.0
  0
LINE
  8
0
 62
     140
 10
81.9919
 20
200.145
 30
0.0
 11
82.1118
 21
200.145
 31
0.0
  0
LINE
  8
0
 62
     140
 10
82.1118
 20
200.145
 30
0.0
 11
82.4424
 21
200.003
 31
0.0
  0
LINE
  8
0
 62
     140
 10
82.4424
 20
200.003
 30
0.0
 11
82.4756
 21
199.974
 31
0.0
  0
LINE
  8
0
 62
     140
 10
82.4756
 20
199.974
 30
0.0
 11
82.5087
 21
199.946
 31
0.0
  0
LINE
  8
0
 62
     140
 10
82.5087
 20
199.946
 30
0.0
 11
82.6728
 21
199.653
 31
0.0
  0
LINE
  8
0
 62
     140
 10
82.6728
 20
199.653
 30
0.0
 11
82.6728
 21
199.555
 31
0.0
  0
LINE
  8
0
 62
     140
 10
82.6728
 20
199.555
 30
0.0
 11
82.6728
 21
199.478
 31
0.0
  0
LINE
  8
0
 62
     140
 10
82.6728
 20
199.478
 30
0.0
 11
82.6036
 21
199.264
 31
0.0
  0
LINE
  8
0
 62
     140
 10
82.6036
 20
199.264
 30
0.0
 11
82.5913
 21
199.242
 31
0.0
  0
LINE
  8
0
 62
     140
 10
82.5913
 20
199.242
 30
0.0
 11
82.5775
 21
199.222
 31
0.0
  0
LINE
  8
0
 62
     140
 10
82.5775
 20
199.222
 30
0.0
 11
82.3613
 21
199.047
 31
0.0
  0
LINE
  8
0
 62
     140
 10
82.3613
 20
199.047
 30
0.0
 11
82.3323
 21
199.033
 31
0.0
  0
LINE
  8
0
 62
     140
 10
82.3323
 20
199.033
 30
0.0
 11
82.3613
 21
199.022
 31
0.0
  0
LINE
  8
0
 62
     140
 10
82.3613
 20
199.022
 30
0.0
 11
82.5817
 21
198.847
 31
0.0
  0
LINE
  8
0
 62
     140
 10
82.5817
 20
198.847
 30
0.0
 11
82.5969
 21
198.823
 31
0.0
  0
LINE
  8
0
 62
     140
 10
82.5969
 20
198.823
 30
0.0
 11
82.6121
 21
198.801
 31
0.0
  0
LINE
  8
0
 62
     140
 10
82.6121
 20
198.801
 30
0.0
 11
82.6893
 21
198.579
 31
0.0
  0
LINE
  8
0
 62
     140
 10
82.6893
 20
198.579
 30
0.0
 11
82.6893
 21
198.505
 31
0.0
  0
LINE
  8
0
 62
     140
 10
82.6893
 20
198.505
 30
0.0
 11
82.6893
 21
198.389
 31
0.0
  0
LINE
  8
0
 62
     140
 10
82.6893
 20
198.389
 30
0.0
 11
82.5253
 21
198.072
 31
0.0
  0
LINE
  8
0
 62
     140
 10
82.5253
 20
198.072
 30
0.0
 11
82.4921
 21
198.042
 31
0.0
  0
LINE
  8
0
 62
     140
 10
82.4921
 20
198.042
 30
0.0
 11
82.459
 21
198.013
 31
0.0
  0
LINE
  8
0
 62
     140
 10
82.459
 20
198.013
 30
0.0
 11
82.1076
 21
197.866
 31
0.0
  0
LINE
  8
0
 62
     140
 10
82.1076
 20
197.866
 30
0.0
 11
81.9919
 21
197.866
 31
0.0
  0
LINE
  8
0
 62
     140
 10
81.9919
 20
197.866
 30
0.0
 11
81.8653
 21
197.866
 31
0.0
  0
LINE
  8
0
 62
     140
 10
81.8653
 20
197.866
 30
0.0
 11
81.5164
 21
198.013
 31
0.0
  0
LINE
  8
0
 62
     140
 10
81.5164
 20
198.013
 30
0.0
 11
81.4846
 21
198.042
 31
0.0
  0
LINE
  8
0
 62
     140
 10
81.4846
 20
198.042
 30
0.0
 11
81.4518
 21
198.072
 31
0.0
  0
LINE
  8
0
 62
     140
 10
81.4518
 20
198.072
 30
0.0
 11
81.2934
 21
198.406
 31
0.0
  0
LINE
  8
0
 62
     140
 10
81.2934
 20
198.406
 30
0.0
 11
81.2934
 21
198.516
 31
0.0
  0
LINE
  8
0
 62
     140
 10
81.2934
 20
198.516
 30
0.0
 11
81.2934
 21
198.593
 31
0.0
  0
LINE
  8
0
 62
     140
 10
81.2934
 20
198.593
 30
0.0
 11
81.3664
 21
198.801
 31
0.0
  0
LINE
  8
0
 62
     140
 10
81.3664
 20
198.801
 30
0.0
 11
81.3816
 21
198.823
 31
0.0
  0
LINE
  8
0
 62
     140
 10
81.3816
 20
198.823
 30
0.0
 11
81.3964
 21
198.847
 31
0.0
  0
LINE
  8
0
 62
     140
 10
81.3964
 20
198.847
 30
0.0
 11
81.6158
 21
199.022
 31
0.0
  0
LINE
  8
0
 62
     140
 10
81.6158
 20
199.022
 30
0.0
 11
81.6448
 21
199.033
 31
0.0
  0
LINE
  8
0
 62
     140
 10
86.8535
 20
198.878
 30
0.0
 11
86.8535
 21
198.96
 31
0.0
  0
LINE
  8
0
 62
     140
 10
86.8535
 20
198.96
 30
0.0
 11
86.8165
 21
199.19
 31
0.0
  0
LINE
  8
0
 62
     140
 10
86.8165
 20
199.19
 30
0.0
 11
86.8094
 21
199.204
 31
0.0
  0
LINE
  8
0
 62
     140
 10
86.8094
 20
199.204
 30
0.0
 11
86.8013
 21
199.219
 31
0.0
  0
LINE
  8
0
 62
     140
 10
86.8013
 20
199.219
 30
0.0
 11
86.6951
 21
199.292
 31
0.0
  0
LINE
  8
0
 62
     140
 10
86.6951
 20
199.292
 30
0.0
 11
86.6606
 21
199.292
 31
0.0
  0
LINE
  8
0
 62
     140
 10
86.6606
 20
199.292
 30
0.0
 11
86.6084
 21
199.292
 31
0.0
  0
LINE
  8
0
 62
     140
 10
86.6084
 20
199.292
 30
0.0
 11
86.4637
 21
199.201
 31
0.0
  0
LINE
  8
0
 62
     140
 10
86.4637
 20
199.201
 30
0.0
 11
86.4514
 21
199.182
 31
0.0
  0
LINE
  8
0
 62
     140
 10
86.4514
 20
199.182
 30
0.0
 11
86.4387
 21
199.164
 31
0.0
  0
LINE
  8
0
 62
     140
 10
86.4387
 20
199.164
 30
0.0
 11
86.3808
 21
198.95
 31
0.0
  0
LINE
  8
0
 62
     140
 10
86.3808
 20
198.95
 30
0.0
 11
86.3808
 21
198.878
 31
0.0
  0
LINE
  8
0
 62
     140
 10
86.3808
 20
198.878
 30
0.0
 11
86.3808
 21
198.163
 31
0.0
  0
LINE
  8
0
 62
     140
 10
86.3808
 20
198.163
 30
0.0
 11
86.4126
 21
198.163
 31
0.0
  0
LINE
  8
0
 62
     140
 10
86.4126
 20
198.163
 30
0.0
 11
86.4471
 21
198.163
 31
0.0
  0
LINE
  8
0
 62
     140
 10
86.4471
 20
198.163
 30
0.0
 11
86.5449
 21
198.141
 31
0.0
  0
LINE
  8
0
 62
     140
 10
86.5449
 20
198.141
 30
0.0
 11
86.5505
 21
198.136
 31
0.0
  0
LINE
  8
0
 62
     140
 10
86.5505
 20
198.136
 30
0.0
 11
86.5558
 21
198.133
 31
0.0
  0
LINE
  8
0
 62
     140
 10
86.5558
 20
198.133
 30
0.0
 11
86.589
 21
198.07
 31
0.0
  0
LINE
  8
0
 62
     140
 10
86.589
 20
198.07
 30
0.0
 11
86.589
 21
198.048
 31
0.0
  0
LINE
  8
0
 62
     140
 10
86.589
 20
198.048
 30
0.0
 11
86.589
 21
198.023
 31
0.0
  0
LINE
  8
0
 62
     140
 10
86.589
 20
198.023
 30
0.0
 11
86.5614
 21
197.954
 31
0.0
  0
LINE
  8
0
 62
     140
 10
86.5614
 20
197.954
 30
0.0
 11
86.5558
 21
197.948
 31
0.0
  0
LINE
  8
0
 62
     140
 10
86.5558
 20
197.948
 30
0.0
 11
86.5505
 21
197.944
 31
0.0
  0
LINE
  8
0
 62
     140
 10
86.5505
 20
197.944
 30
0.0
 11
86.4884
 21
197.921
 31
0.0
  0
LINE
  8
0
 62
     140
 10
86.4884
 20
197.921
 30
0.0
 11
86.4676
 21
197.921
 31
0.0
  0
LINE
  8
0
 62
     140
 10
86.4676
 20
197.921
 30
0.0
 11
86.2485
 21
197.921
 31
0.0
  0
LINE
  8
0
 62
     140
 10
86.2485
 20
197.921
 30
0.0
 11
86.2238
 21
197.921
 31
0.0
  0
LINE
  8
0
 62
     140
 10
86.2238
 20
197.921
 30
0.0
 11
86.1536
 21
197.948
 31
0.0
  0
LINE
  8
0
 62
     140
 10
86.1536
 20
197.948
 30
0.0
 11
86.1494
 21
197.954
 31
0.0
  0
LINE
  8
0
 62
     140
 10
86.1494
 20
197.954
 30
0.0
 11
86.1441
 21
197.961
 31
0.0
  0
LINE
  8
0
 62
     140
 10
86.1441
 20
197.961
 30
0.0
 11
86.1219
 21
198.068
 31
0.0
  0
LINE
  8
0
 62
     140
 10
86.1219
 20
198.068
 30
0.0
 11
86.1219
 21
198.103
 31
0.0
  0
LINE
  8
0
 62
     140
 10
86.1219
 20
198.103
 30
0.0
 11
86.1219
 21
199.011
 31
0.0
  0
LINE
  8
0
 62
     140
 10
86.1219
 20
199.011
 30
0.0
 11
86.1219
 21
199.062
 31
0.0
  0
LINE
  8
0
 62
     140
 10
86.1219
 20
199.062
 30
0.0
 11
86.0707
 21
199.204
 31
0.0
  0
LINE
  8
0
 62
     140
 10
86.0707
 20
199.204
 30
0.0
 11
86.0612
 21
199.215
 31
0.0
  0
LINE
  8
0
 62
     140
 10
86.0612
 20
199.215
 30
0.0
 11
86.0517
 21
199.228
 31
0.0
  0
LINE
  8
0
 62
     140
 10
86.0517
 20
199.228
 30
0.0
 11
85.9427
 21
199.292
 31
0.0
  0
LINE
  8
0
 62
     140
 10
85.9427
 20
199.292
 30
0.0
 11
85.907
 21
199.292
 31
0.0
  0
LINE
  8
0
 62
     140
 10
85.907
 20
199.292
 30
0.0
 11
85.8711
 21
199.292
 31
0.0
  0
LINE
  8
0
 62
     140
 10
85.8711
 20
199.292
 30
0.0
 11
85.7762
 21
199.256
 31
0.0
  0
LINE
  8
0
 62
     140
 10
85.7762
 20
199.256
 30
0.0
 11
85.7649
 21
199.248
 31
0.0
  0
LINE
  8
0
 62
     140
 10
85.7649
 20
199.248
 30
0.0
 11
85.7539
 21
199.241
 31
0.0
  0
LINE
  8
0
 62
     140
 10
85.7539
 20
199.241
 30
0.0
 11
85.6615
 21
199.126
 31
0.0
  0
LINE
  8
0
 62
     140
 10
85.6615
 20
199.126
 30
0.0
 11
85.6548
 21
199.11
 31
0.0
  0
LINE
  8
0
 62
     140
 10
85.6548
 20
199.11
 30
0.0
 11
85.6548
 21
198.163
 31
0.0
  0
LINE
  8
0
 62
     140
 10
85.6548
 20
198.163
 30
0.0
 11
85.7155
 21
198.163
 31
0.0
  0
LINE
  8
0
 62
     140
 10
85.7155
 20
198.163
 30
0.0
 11
85.7483
 21
198.163
 31
0.0
  0
LINE
  8
0
 62
     140
 10
85.7483
 20
198.163
 30
0.0
 11
85.8464
 21
198.141
 31
0.0
  0
LINE
  8
0
 62
     140
 10
85.8464
 20
198.141
 30
0.0
 11
85.8516
 21
198.136
 31
0.0
  0
LINE
  8
0
 62
     140
 10
85.8516
 20
198.136
 30
0.0
 11
85.8573
 21
198.133
 31
0.0
  0
LINE
  8
0
 62
     140
 10
85.8573
 20
198.133
 30
0.0
 11
85.8905
 21
198.07
 31
0.0
  0
LINE
  8
0
 62
     140
 10
85.8905
 20
198.07
 30
0.0
 11
85.8905
 21
198.048
 31
0.0
  0
LINE
  8
0
 62
     140
 10
85.8905
 20
198.048
 30
0.0
 11
85.8905
 21
198.023
 31
0.0
  0
LINE
  8
0
 62
     140
 10
85.8905
 20
198.023
 30
0.0
 11
85.8668
 21
197.954
 31
0.0
  0
LINE
  8
0
 62
     140
 10
85.8668
 20
197.954
 30
0.0
 11
85.8629
 21
197.948
 31
0.0
  0
LINE
  8
0
 62
     140
 10
85.8629
 20
197.948
 30
0.0
 11
85.8573
 21
197.944
 31
0.0
  0
LINE
  8
0
 62
     140
 10
85.8573
 20
197.944
 30
0.0
 11
85.7786
 21
197.921
 31
0.0
  0
LINE
  8
0
 62
     140
 10
85.7786
 20
197.921
 30
0.0
 11
85.7539
 21
197.921
 31
0.0
  0
LINE
  8
0
 62
     140
 10
85.7539
 20
197.921
 30
0.0
 11
85.2911
 21
197.921
 31
0.0
  0
LINE
  8
0
 62
     140
 10
85.2911
 20
197.921
 30
0.0
 11
85.266
 21
197.921
 31
0.0
  0
LINE
  8
0
 62
     140
 10
85.266
 20
197.921
 30
0.0
 11
85.1987
 21
197.944
 31
0.0
  0
LINE
  8
0
 62
     140
 10
85.1987
 20
197.944
 30
0.0
 11
85.193
 21
197.948
 31
0.0
  0
LINE
  8
0
 62
     140
 10
85.193
 20
197.948
 30
0.0
 11
85.1877
 21
197.954
 31
0.0
  0
LINE
  8
0
 62
     140
 10
85.1877
 20
197.954
 30
0.0
 11
85.1655
 21
198.024
 31
0.0
  0
LINE
  8
0
 62
     140
 10
85.1655
 20
198.024
 30
0.0
 11
85.1655
 21
198.048
 31
0.0
  0
LINE
  8
0
 62
     140
 10
85.1655
 20
198.048
 30
0.0
 11
85.1655
 21
198.07
 31
0.0
  0
LINE
  8
0
 62
     140
 10
85.1655
 20
198.07
 30
0.0
 11
85.1972
 21
198.133
 31
0.0
  0
LINE
  8
0
 62
     140
 10
85.1972
 20
198.133
 30
0.0
 11
85.2039
 21
198.136
 31
0.0
  0
LINE
  8
0
 62
     140
 10
85.2039
 20
198.136
 30
0.0
 11
85.2096
 21
198.141
 31
0.0
  0
LINE
  8
0
 62
     140
 10
85.2096
 20
198.141
 30
0.0
 11
85.3239
 21
198.163
 31
0.0
  0
LINE
  8
0
 62
     140
 10
85.3239
 20
198.163
 30
0.0
 11
85.3627
 21
198.163
 31
0.0
  0
LINE
  8
0
 62
     140
 10
85.3627
 20
198.163
 30
0.0
 11
85.3955
 21
198.163
 31
0.0
  0
LINE
  8
0
 62
     140
 10
85.3955
 20
198.163
 30
0.0
 11
85.3955
 21
199.264
 31
0.0
  0
LINE
  8
0
 62
     140
 10
85.3955
 20
199.264
 30
0.0
 11
85.3627
 21
199.264
 31
0.0
  0
LINE
  8
0
 62
     140
 10
85.3627
 20
199.264
 30
0.0
 11
85.3211
 21
199.264
 31
0.0
  0
LINE
  8
0
 62
     140
 10
85.3211
 20
199.264
 30
0.0
 11
85.2054
 21
199.288
 31
0.0
  0
LINE
  8
0
 62
     140
 10
85.2054
 20
199.288
 30
0.0
 11
85.1987
 21
199.292
 31
0.0
  0
LINE
  8
0
 62
     140
 10
85.1987
 20
199.292
 30
0.0
 11
85.1902
 21
199.298
 31
0.0
  0
LINE
  8
0
 62
     140
 10
85.1902
 20
199.298
 30
0.0
 11
85.1546
 21
199.368
 31
0.0
  0
LINE
  8
0
 62
     140
 10
85.1546
 20
199.368
 30
0.0
 11
85.1546
 21
199.391
 31
0.0
  0
LINE
  8
0
 62
     140
 10
85.1546
 20
199.391
 30
0.0
 11
85.1546
 21
199.413
 31
0.0
  0
LINE
  8
0
 62
     140
 10
85.1546
 20
199.413
 30
0.0
 11
85.1821
 21
199.475
 31
0.0
  0
LINE
  8
0
 62
     140
 10
85.1821
 20
199.475
 30
0.0
 11
85.1877
 21
199.479
 31
0.0
  0
LINE
  8
0
 62
     140
 10
85.1877
 20
199.479
 30
0.0
 11
85.193
 21
199.485
 31
0.0
  0
LINE
  8
0
 62
     140
 10
85.193
 20
199.485
 30
0.0
 11
85.266
 21
199.511
 31
0.0
  0
LINE
  8
0
 62
     140
 10
85.266
 20
199.511
 30
0.0
 11
85.2911
 21
199.511
 31
0.0
  0
LINE
  8
0
 62
     140
 10
85.2911
 20
199.511
 30
0.0
 11
85.5557
 21
199.511
 31
0.0
  0
LINE
  8
0
 62
     140
 10
85.5557
 20
199.511
 30
0.0
 11
85.5747
 21
199.511
 31
0.0
  0
LINE
  8
0
 62
     140
 10
85.5747
 20
199.511
 30
0.0
 11
85.6297
 21
199.493
 31
0.0
  0
LINE
  8
0
 62
     140
 10
85.6297
 20
199.493
 30
0.0
 11
85.6326
 21
199.489
 31
0.0
  0
LINE
  8
0
 62
     140
 10
85.6326
 20
199.489
 30
0.0
 11
85.6354
 21
199.488
 31
0.0
  0
LINE
  8
0
 62
     140
 10
85.6354
 20
199.488
 30
0.0
 11
85.6534
 21
199.419
 31
0.0
  0
LINE
  8
0
 62
     140
 10
85.6534
 20
199.419
 30
0.0
 11
85.6548
 21
199.408
 31
0.0
  0
LINE
  8
0
 62
     140
 10
85.6548
 20
199.408
 30
0.0
 11
85.6657
 21
199.421
 31
0.0
  0
LINE
  8
0
 62
     140
 10
85.6657
 20
199.421
 30
0.0
 11
85.7899
 21
199.511
 31
0.0
  0
LINE
  8
0
 62
     140
 10
85.7899
 20
199.511
 30
0.0
 11
85.8037
 21
199.517
 31
0.0
  0
LINE
  8
0
 62
     140
 10
85.8037
 20
199.517
 30
0.0
 11
85.816
 21
199.523
 31
0.0
  0
LINE
  8
0
 62
     140
 10
85.816
 20
199.523
 30
0.0
 11
85.9413
 21
199.555
 31
0.0
  0
LINE
  8
0
 62
     140
 10
85.9413
 20
199.555
 30
0.0
 11
85.9839
 21
199.555
 31
0.0
  0
LINE
  8
0
 62
     140
 10
85.9839
 20
199.555
 30
0.0
 11
86.0337
 21
199.555
 31
0.0
  0
LINE
  8
0
 62
     140
 10
86.0337
 20
199.555
 30
0.0
 11
86.1688
 21
199.51
 31
0.0
  0
LINE
  8
0
 62
     140
 10
86.1688
 20
199.51
 30
0.0
 11
86.1826
 21
199.5
 31
0.0
  0
LINE
  8
0
 62
     140
 10
86.1826
 20
199.5
 30
0.0
 11
86.1963
 21
199.493
 31
0.0
  0
LINE
  8
0
 62
     140
 10
86.1963
 20
199.493
 30
0.0
 11
86.2969
 21
199.361
 31
0.0
  0
LINE
  8
0
 62
     140
 10
86.2969
 20
199.361
 30
0.0
 11
86.3039
 21
199.342
 31
0.0
  0
LINE
  8
0
 62
     140
 10
86.3039
 20
199.342
 30
0.0
 11
86.3148
 21
199.361
 31
0.0
  0
LINE
  8
0
 62
     140
 10
86.3148
 20
199.361
 30
0.0
 11
86.4514
 21
199.493
 31
0.0
  0
LINE
  8
0
 62
     140
 10
86.4514
 20
199.493
 30
0.0
 11
86.4676
 21
199.5
 31
0.0
  0
LINE
  8
0
 62
     140
 10
86.4676
 20
199.5
 30
0.0
 11
86.4828
 21
199.51
 31
0.0
  0
LINE
  8
0
 62
     140
 10
86.4828
 20
199.51
 30
0.0
 11
86.6316
 21
199.555
 31
0.0
  0
LINE
  8
0
 62
     140
 10
86.6316
 20
199.555
 30
0.0
 11
86.6828
 21
199.555
 31
0.0
  0
LINE
  8
0
 62
     140
 10
86.6828
 20
199.555
 30
0.0
 11
86.7625
 21
199.555
 31
0.0
  0
LINE
  8
0
 62
     140
 10
86.7625
 20
199.555
 30
0.0
 11
86.9901
 21
199.432
 31
0.0
  0
LINE
  8
0
 62
     140
 10
86.9901
 20
199.432
 30
0.0
 11
87.0066
 21
199.408
 31
0.0
  0
LINE
  8
0
 62
     140
 10
87.0066
 20
199.408
 30
0.0
 11
87.0232
 21
199.384
 31
0.0
  0
LINE
  8
0
 62
     140
 10
87.0232
 20
199.384
 30
0.0
 11
87.1114
 21
199.055
 31
0.0
  0
LINE
  8
0
 62
     140
 10
87.1114
 20
199.055
 30
0.0
 11
87.1114
 21
198.945
 31
0.0
  0
LINE
  8
0
 62
     140
 10
87.1114
 20
198.945
 30
0.0
 11
87.1114
 21
198.163
 31
0.0
  0
LINE
  8
0
 62
     140
 10
87.1114
 20
198.163
 30
0.0
 11
87.1389
 21
198.163
 31
0.0
  0
LINE
  8
0
 62
     140
 10
87.1389
 20
198.163
 30
0.0
 11
87.1732
 21
198.163
 31
0.0
  0
LINE
  8
0
 62
     140
 10
87.1732
 20
198.163
 30
0.0
 11
87.2712
 21
198.141
 31
0.0
  0
LINE
  8
0
 62
     140
 10
87.2712
 20
198.141
 30
0.0
 11
87.2765
 21
198.136
 31
0.0
  0
LINE
  8
0
 62
     140
 10
87.2765
 20
198.136
 30
0.0
 11
87.2822
 21
198.133
 31
0.0
  0
LINE
  8
0
 62
     140
 10
87.2822
 20
198.133
 30
0.0
 11
87.3153
 21
198.07
 31
0.0
  0
LINE
  8
0
 62
     140
 10
87.3153
 20
198.07
 30
0.0
 11
87.3153
 21
198.048
 31
0.0
  0
LINE
  8
0
 62
     140
 10
87.3153
 20
198.048
 30
0.0
 11
87.3153
 21
198.023
 31
0.0
  0
LINE
  8
0
 62
     140
 10
87.3153
 20
198.023
 30
0.0
 11
87.2878
 21
197.954
 31
0.0
  0
LINE
  8
0
 62
     140
 10
87.2878
 20
197.954
 30
0.0
 11
87.2822
 21
197.948
 31
0.0
  0
LINE
  8
0
 62
     140
 10
87.2822
 20
197.948
 30
0.0
 11
87.2765
 21
197.944
 31
0.0
  0
LINE
  8
0
 62
     140
 10
87.2765
 20
197.944
 30
0.0
 11
87.2148
 21
197.921
 31
0.0
  0
LINE
  8
0
 62
     140
 10
87.2148
 20
197.921
 30
0.0
 11
87.194
 21
197.921
 31
0.0
  0
LINE
  8
0
 62
     140
 10
87.194
 20
197.921
 30
0.0
 11
86.9844
 21
197.921
 31
0.0
  0
LINE
  8
0
 62
     140
 10
86.9844
 20
197.921
 30
0.0
 11
86.9597
 21
197.921
 31
0.0
  0
LINE
  8
0
 62
     140
 10
86.9597
 20
197.921
 30
0.0
 11
86.8923
 21
197.954
 31
0.0
  0
LINE
  8
0
 62
     140
 10
86.8923
 20
197.954
 30
0.0
 11
86.8867
 21
197.959
 31
0.0
  0
LINE
  8
0
 62
     140
 10
86.8867
 20
197.959
 30
0.0
 11
86.8811
 21
197.968
 31
0.0
  0
LINE
  8
0
 62
     140
 10
86.8811
 20
197.968
 30
0.0
 11
86.8535
 21
198.061
 31
0.0
  0
LINE
  8
0
 62
     140
 10
86.8535
 20
198.061
 30
0.0
 11
86.8535
 21
198.092
 31
0.0
  0
LINE
  8
0
 62
     140
 10
86.8535
 20
198.092
 30
0.0
 11
86.8535
 21
198.878
 31
0.0
  0
LINE
  8
0
 62
     140
 10
88.9649
 20
198.878
 30
0.0
 11
88.9649
 21
198.96
 31
0.0
  0
LINE
  8
0
 62
     140
 10
88.9649
 20
198.96
 30
0.0
 11
88.9275
 21
199.19
 31
0.0
  0
LINE
  8
0
 62
     140
 10
88.9275
 20
199.19
 30
0.0
 11
88.9208
 21
199.204
 31
0.0
  0
LINE
  8
0
 62
     140
 10
88.9208
 20
199.204
 30
0.0
 11
88.9123
 21
199.219
 31
0.0
  0
LINE
  8
0
 62
     140
 10
88.9123
 20
199.219
 30
0.0
 11
88.8076
 21
199.292
 31
0.0
  0
LINE
  8
0
 62
     140
 10
88.8076
 20
199.292
 30
0.0
 11
88.7734
 21
199.292
 31
0.0
  0
LINE
  8
0
 62
     140
 10
88.7734
 20
199.292
 30
0.0
 11
88.7208
 21
199.292
 31
0.0
  0
LINE
  8
0
 62
     140
 10
88.7208
 20
199.292
 30
0.0
 11
88.5762
 21
199.201
 31
0.0
  0
LINE
  8
0
 62
     140
 10
88.5762
 20
199.201
 30
0.0
 11
88.5638
 21
199.182
 31
0.0
  0
LINE
  8
0
 62
     140
 10
88.5638
 20
199.182
 30
0.0
 11
88.5515
 21
199.164
 31
0.0
  0
LINE
  8
0
 62
     140
 10
88.5515
 20
199.164
 30
0.0
 11
88.4922
 21
198.95
 31
0.0
  0
LINE
  8
0
 62
     140
 10
88.4922
 20
198.95
 30
0.0
 11
88.4922
 21
198.878
 31
0.0
  0
LINE
  8
0
 62
     140
 10
88.4922
 20
198.878
 30
0.0
 11
88.4922
 21
198.163
 31
0.0
  0
LINE
  8
0
 62
     140
 10
88.4922
 20
198.163
 30
0.0
 11
88.5254
 21
198.163
 31
0.0
  0
LINE
  8
0
 62
     140
 10
88.5254
 20
198.163
 30
0.0
 11
88.5596
 21
198.163
 31
0.0
  0
LINE
  8
0
 62
     140
 10
88.5596
 20
198.163
 30
0.0
 11
88.6576
 21
198.141
 31
0.0
  0
LINE
  8
0
 62
     140
 10
88.6576
 20
198.141
 30
0.0
 11
88.6629
 21
198.136
 31
0.0
  0
LINE
  8
0
 62
     140
 10
88.6629
 20
198.136
 30
0.0
 11
88.6686
 21
198.133
 31
0.0
  0
LINE
  8
0
 62
     140
 10
88.6686
 20
198.133
 30
0.0
 11
88.7017
 21
198.07
 31
0.0
  0
LINE
  8
0
 62
     140
 10
88.7017
 20
198.07
 30
0.0
 11
88.7017
 21
198.048
 31
0.0
  0
LINE
  8
0
 62
     140
 10
88.7017
 20
198.048
 30
0.0
 11
88.7017
 21
198.023
 31
0.0
  0
LINE
  8
0
 62
     140
 10
88.7017
 20
198.023
 30
0.0
 11
88.6739
 21
197.954
 31
0.0
  0
LINE
  8
0
 62
     140
 10
88.6739
 20
197.954
 30
0.0
 11
88.6686
 21
197.948
 31
0.0
  0
LINE
  8
0
 62
     140
 10
88.6686
 20
197.948
 30
0.0
 11
88.6629
 21
197.944
 31
0.0
  0
LINE
  8
0
 62
     140
 10
88.6629
 20
197.944
 30
0.0
 11
88.6008
 21
197.921
 31
0.0
  0
LINE
  8
0
 62
     140
 10
88.6008
 20
197.921
 30
0.0
 11
88.5804
 21
197.921
 31
0.0
  0
LINE
  8
0
 62
     140
 10
88.5804
 20
197.921
 30
0.0
 11
88.3599
 21
197.921
 31
0.0
  0
LINE
  8
0
 62
     140
 10
88.3599
 20
197.921
 30
0.0
 11
88.3348
 21
197.921
 31
0.0
  0
LINE
  8
0
 62
     140
 10
88.3348
 20
197.921
 30
0.0
 11
88.2661
 21
197.948
 31
0.0
  0
LINE
  8
0
 62
     140
 10
88.2661
 20
197.948
 30
0.0
 11
88.2618
 21
197.954
 31
0.0
  0
LINE
  8
0
 62
     140
 10
88.2618
 20
197.954
 30
0.0
 11
88.2565
 21
197.961
 31
0.0
  0
LINE
  8
0
 62
     140
 10
88.2565
 20
197.961
 30
0.0
 11
88.2343
 21
198.068
 31
0.0
  0
LINE
  8
0
 62
     140
 10
88.2343
 20
198.068
 30
0.0
 11
88.2343
 21
198.103
 31
0.0
  0
LINE
  8
0
 62
     140
 10
88.2343
 20
198.103
 30
0.0
 11
88.2343
 21
199.011
 31
0.0
  0
LINE
  8
0
 62
     140
 10
88.2343
 20
199.011
 30
0.0
 11
88.2343
 21
199.062
 31
0.0
  0
LINE
  8
0
 62
     140
 10
88.2343
 20
199.062
 30
0.0
 11
88.1835
 21
199.204
 31
0.0
  0
LINE
  8
0
 62
     140
 10
88.1835
 20
199.204
 30
0.0
 11
88.1736
 21
199.215
 31
0.0
  0
LINE
  8
0
 62
     140
 10
88.1736
 20
199.215
 30
0.0
 11
88.1641
 21
199.228
 31
0.0
  0
LINE
  8
0
 62
     140
 10
88.1641
 20
199.228
 30
0.0
 11
88.0551
 21
199.292
 31
0.0
  0
LINE
  8
0
 62
     140
 10
88.0551
 20
199.292
 30
0.0
 11
88.0195
 21
199.292
 31
0.0
  0
LINE
  8
0
 62
     140
 10
88.0195
 20
199.292
 30
0.0
 11
87.9835
 21
199.292
 31
0.0
  0
LINE
  8
0
 62
     140
 10
87.9835
 20
199.292
 30
0.0
 11
87.8872
 21
199.256
 31
0.0
  0
LINE
  8
0
 62
     140
 10
87.8872
 20
199.256
 30
0.0
 11
87.8762
 21
199.248
 31
0.0
  0
LINE
  8
0
 62
     140
 10
87.8762
 20
199.248
 30
0.0
 11
87.8649
 21
199.241
 31
0.0
  0
LINE
  8
0
 62
     140
 10
87.8649
 20
199.241
 30
0.0
 11
87.7729
 21
199.126
 31
0.0
  0
LINE
  8
0
 62
     140
 10
87.7729
 20
199.126
 30
0.0
 11
87.7658
 21
199.11
 31
0.0
  0
LINE
  8
0
 62
     140
 10
87.7658
 20
199.11
 30
0.0
 11
87.7658
 21
198.163
 31
0.0
  0
LINE
  8
0
 62
     140
 10
87.7658
 20
198.163
 30
0.0
 11
87.8265
 21
198.163
 31
0.0
  0
LINE
  8
0
 62
     140
 10
87.8265
 20
198.163
 30
0.0
 11
87.8611
 21
198.163
 31
0.0
  0
LINE
  8
0
 62
     140
 10
87.8611
 20
198.163
 30
0.0
 11
87.9588
 21
198.141
 31
0.0
  0
LINE
  8
0
 62
     140
 10
87.9588
 20
198.141
 30
0.0
 11
87.9644
 21
198.136
 31
0.0
  0
LINE
  8
0
 62
     140
 10
87.9644
 20
198.136
 30
0.0
 11
87.9697
 21
198.133
 31
0.0
  0
LINE
  8
0
 62
     140
 10
87.9697
 20
198.133
 30
0.0
 11
88.0029
 21
198.07
 31
0.0
  0
LINE
  8
0
 62
     140
 10
88.0029
 20
198.07
 30
0.0
 11
88.0029
 21
198.048
 31
0.0
  0
LINE
  8
0
 62
     140
 10
88.0029
 20
198.048
 30
0.0
 11
88.0029
 21
198.023
 31
0.0
  0
LINE
  8
0
 62
     140
 10
88.0029
 20
198.023
 30
0.0
 11
87.9796
 21
197.954
 31
0.0
  0
LINE
  8
0
 62
     140
 10
87.9796
 20
197.954
 30
0.0
 11
87.9754
 21
197.948
 31
0.0
  0
LINE
  8
0
 62
     140
 10
87.9754
 20
197.948
 30
0.0
 11
87.9697
 21
197.944
 31
0.0
  0
LINE
  8
0
 62
     140
 10
87.9697
 20
197.944
 30
0.0
 11
87.8914
 21
197.921
 31
0.0
  0
LINE
  8
0
 62
     140
 10
87.8914
 20
197.921
 30
0.0
 11
87.8649
 21
197.921
 31
0.0
  0
LINE
  8
0
 62
     140
 10
87.8649
 20
197.921
 30
0.0
 11
87.4035
 21
197.921
 31
0.0
  0
LINE
  8
0
 62
     140
 10
87.4035
 20
197.921
 30
0.0
 11
87.3788
 21
197.921
 31
0.0
  0
LINE
  8
0
 62
     140
 10
87.3788
 20
197.921
 30
0.0
 11
87.3097
 21
197.944
 31
0.0
  0
LINE
  8
0
 62
     140
 10
87.3097
 20
197.944
 30
0.0
 11
87.3044
 21
197.948
 31
0.0
  0
LINE
  8
0
 62
     140
 10
87.3044
 20
197.948
 30
0.0
 11
87.2987
 21
197.954
 31
0.0
  0
LINE
  8
0
 62
     140
 10
87.2987
 20
197.954
 30
0.0
 11
87.2765
 21
198.024
 31
0.0
  0
LINE
  8
0
 62
     140
 10
87.2765
 20
198.024
 30
0.0
 11
87.2765
 21
198.048
 31
0.0
  0
LINE
  8
0
 62
     140
 10
87.2765
 20
198.048
 30
0.0
 11
87.2765
 21
198.07
 31
0.0
  0
LINE
  8
0
 62
     140
 10
87.2765
 20
198.07
 30
0.0
 11
87.3083
 21
198.133
 31
0.0
  0
LINE
  8
0
 62
     140
 10
87.3083
 20
198.133
 30
0.0
 11
87.3153
 21
198.136
 31
0.0
  0
LINE
  8
0
 62
     140
 10
87.3153
 20
198.136
 30
0.0
 11
87.3206
 21
198.141
 31
0.0
  0
LINE
  8
0
 62
     140
 10
87.3206
 20
198.141
 30
0.0
 11
87.4367
 21
198.163
 31
0.0
  0
LINE
  8
0
 62
     140
 10
87.4367
 20
198.163
 30
0.0
 11
87.4751
 21
198.163
 31
0.0
  0
LINE
  8
0
 62
     140
 10
87.4751
 20
198.163
 30
0.0
 11
87.5083
 21
198.163
 31
0.0
  0
LINE
  8
0
 62
     140
 10
87.5083
 20
198.163
 30
0.0
 11
87.5083
 21
199.264
 31
0.0
  0
LINE
  8
0
 62
     140
 10
87.5083
 20
199.264
 30
0.0
 11
87.4751
 21
199.264
 31
0.0
  0
LINE
  8
0
 62
     140
 10
87.4751
 20
199.264
 30
0.0
 11
87.4339
 21
199.264
 31
0.0
  0
LINE
  8
0
 62
     140
 10
87.4339
 20
199.264
 30
0.0
 11
87.3167
 21
199.288
 31
0.0
  0
LINE
  8
0
 62
     140
 10
87.3167
 20
199.288
 30
0.0
 11
87.3097
 21
199.292
 31
0.0
  0
LINE
  8
0
 62
     140
 10
87.3097
 20
199.292
 30
0.0
 11
87.3016
 21
199.298
 31
0.0
  0
LINE
  8
0
 62
     140
 10
87.3016
 20
199.298
 30
0.0
 11
87.2656
 21
199.368
 31
0.0
  0
LINE
  8
0
 62
     140
 10
87.2656
 20
199.368
 30
0.0
 11
87.2656
 21
199.391
 31
0.0
  0
LINE
  8
0
 62
     140
 10
87.2656
 20
199.391
 30
0.0
 11
87.2656
 21
199.413
 31
0.0
  0
LINE
  8
0
 62
     140
 10
87.2656
 20
199.413
 30
0.0
 11
87.2931
 21
199.475
 31
0.0
  0
LINE
  8
0
 62
     140
 10
87.2931
 20
199.475
 30
0.0
 11
87.2987
 21
199.479
 31
0.0
  0
LINE
  8
0
 62
     140
 10
87.2987
 20
199.479
 30
0.0
 11
87.3044
 21
199.485
 31
0.0
  0
LINE
  8
0
 62
     140
 10
87.3044
 20
199.485
 30
0.0
 11
87.3788
 21
199.511
 31
0.0
  0
LINE
  8
0
 62
     140
 10
87.3788
 20
199.511
 30
0.0
 11
87.4035
 21
199.511
 31
0.0
  0
LINE
  8
0
 62
     140
 10
87.4035
 20
199.511
 30
0.0
 11
87.6681
 21
199.511
 31
0.0
  0
LINE
  8
0
 62
     140
 10
87.6681
 20
199.511
 30
0.0
 11
87.6861
 21
199.511
 31
0.0
  0
LINE
  8
0
 62
     140
 10
87.6861
 20
199.511
 30
0.0
 11
87.7411
 21
199.493
 31
0.0
  0
LINE
  8
0
 62
     140
 10
87.7411
 20
199.493
 30
0.0
 11
87.744
 21
199.489
 31
0.0
  0
LINE
  8
0
 62
     140
 10
87.744
 20
199.489
 30
0.0
 11
87.7464
 21
199.488
 31
0.0
  0
LINE
  8
0
 62
     140
 10
87.7464
 20
199.488
 30
0.0
 11
87.7644
 21
199.419
 31
0.0
  0
LINE
  8
0
 62
     140
 10
87.7644
 20
199.419
 30
0.0
 11
87.7658
 21
199.408
 31
0.0
  0
LINE
  8
0
 62
     140
 10
87.7658
 20
199.408
 30
0.0
 11
87.7768
 21
199.421
 31
0.0
  0
LINE
  8
0
 62
     140
 10
87.7768
 20
199.421
 30
0.0
 11
87.9009
 21
199.511
 31
0.0
  0
LINE
  8
0
 62
     140
 10
87.9009
 20
199.511
 30
0.0
 11
87.9147
 21
199.517
 31
0.0
  0
LINE
  8
0
 62
     140
 10
87.9147
 20
199.517
 30
0.0
 11
87.9285
 21
199.523
 31
0.0
  0
LINE
  8
0
 62
     140
 10
87.9285
 20
199.523
 30
0.0
 11
88.054
 21
199.555
 31
0.0
  0
LINE
  8
0
 62
     140
 10
88.054
 20
199.555
 30
0.0
 11
88.0967
 21
199.555
 31
0.0
  0
LINE
  8
0
 62
     140
 10
88.0967
 20
199.555
 30
0.0
 11
88.1447
 21
199.555
 31
0.0
  0
LINE
  8
0
 62
     140
 10
88.1447
 20
199.555
 30
0.0
 11
88.2798
 21
199.51
 31
0.0
  0
LINE
  8
0
 62
     140
 10
88.2798
 20
199.51
 30
0.0
 11
88.2936
 21
199.5
 31
0.0
  0
LINE
  8
0
 62
     140
 10
88.2936
 20
199.5
 30
0.0
 11
88.3073
 21
199.493
 31
0.0
  0
LINE
  8
0
 62
     140
 10
88.3073
 20
199.493
 30
0.0
 11
88.4079
 21
199.361
 31
0.0
  0
LINE
  8
0
 62
     140
 10
88.4079
 20
199.361
 30
0.0
 11
88.4149
 21
199.342
 31
0.0
  0
LINE
  8
0
 62
     140
 10
88.4149
 20
199.342
 30
0.0
 11
88.4259
 21
199.361
 31
0.0
  0
LINE
  8
0
 62
     140
 10
88.4259
 20
199.361
 30
0.0
 11
88.5638
 21
199.493
 31
0.0
  0
LINE
  8
0
 62
     140
 10
88.5638
 20
199.493
 30
0.0
 11
88.5804
 21
199.5
 31
0.0
  0
LINE
  8
0
 62
     140
 10
88.5804
 20
199.5
 30
0.0
 11
88.5956
 21
199.51
 31
0.0
  0
LINE
  8
0
 62
     140
 10
88.5956
 20
199.51
 30
0.0
 11
88.7444
 21
199.555
 31
0.0
  0
LINE
  8
0
 62
     140
 10
88.7444
 20
199.555
 30
0.0
 11
88.7952
 21
199.555
 31
0.0
  0
LINE
  8
0
 62
     140
 10
88.7952
 20
199.555
 30
0.0
 11
88.8753
 21
199.555
 31
0.0
  0
LINE
  8
0
 62
     140
 10
88.8753
 20
199.555
 30
0.0
 11
89.1025
 21
199.432
 31
0.0
  0
LINE
  8
0
 62
     140
 10
89.1025
 20
199.432
 30
0.0
 11
89.1191
 21
199.408
 31
0.0
  0
LINE
  8
0
 62
     140
 10
89.1191
 20
199.408
 30
0.0
 11
89.1357
 21
199.384
 31
0.0
  0
LINE
  8
0
 62
     140
 10
89.1357
 20
199.384
 30
0.0
 11
89.2239
 21
199.055
 31
0.0
  0
LINE
  8
0
 62
     140
 10
89.2239
 20
199.055
 30
0.0
 11
89.2239
 21
198.945
 31
0.0
  0
LINE
  8
0
 62
     140
 10
89.2239
 20
198.945
 30
0.0
 11
89.2239
 21
198.163
 31
0.0
  0
LINE
  8
0
 62
     140
 10
89.2239
 20
198.163
 30
0.0
 11
89.2514
 21
198.163
 31
0.0
  0
LINE
  8
0
 62
     140
 10
89.2514
 20
198.163
 30
0.0
 11
89.2859
 21
198.163
 31
0.0
  0
LINE
  8
0
 62
     140
 10
89.2859
 20
198.163
 30
0.0
 11
89.3837
 21
198.141
 31
0.0
  0
LINE
  8
0
 62
     140
 10
89.3837
 20
198.141
 30
0.0
 11
89.3893
 21
198.136
 31
0.0
  0
LINE
  8
0
 62
     140
 10
89.3893
 20
198.136
 30
0.0
 11
89.3946
 21
198.133
 31
0.0
  0
LINE
  8
0
 62
     140
 10
89.3946
 20
198.133
 30
0.0
 11
89.4278
 21
198.07
 31
0.0
  0
LINE
  8
0
 62
     140
 10
89.4278
 20
198.07
 30
0.0
 11
89.4278
 21
198.048
 31
0.0
  0
LINE
  8
0
 62
     140
 10
89.4278
 20
198.048
 30
0.0
 11
89.4278
 21
198.023
 31
0.0
  0
LINE
  8
0
 62
     140
 10
89.4278
 20
198.023
 30
0.0
 11
89.4002
 21
197.954
 31
0.0
  0
LINE
  8
0
 62
     140
 10
89.4002
 20
197.954
 30
0.0
 11
89.3946
 21
197.948
 31
0.0
  0
LINE
  8
0
 62
     140
 10
89.3946
 20
197.948
 30
0.0
 11
89.3893
 21
197.944
 31
0.0
  0
LINE
  8
0
 62
     140
 10
89.3893
 20
197.944
 30
0.0
 11
89.3272
 21
197.921
 31
0.0
  0
LINE
  8
0
 62
     140
 10
89.3272
 20
197.921
 30
0.0
 11
89.3064
 21
197.921
 31
0.0
  0
LINE
  8
0
 62
     140
 10
89.3064
 20
197.921
 30
0.0
 11
89.0972
 21
197.921
 31
0.0
  0
LINE
  8
0
 62
     140
 10
89.0972
 20
197.921
 30
0.0
 11
89.0722
 21
197.921
 31
0.0
  0
LINE
  8
0
 62
     140
 10
89.0722
 20
197.921
 30
0.0
 11
89.0034
 21
197.954
 31
0.0
  0
LINE
  8
0
 62
     140
 10
89.0034
 20
197.954
 30
0.0
 11
88.9977
 21
197.959
 31
0.0
  0
LINE
  8
0
 62
     140
 10
88.9977
 20
197.959
 30
0.0
 11
88.9924
 21
197.968
 31
0.0
  0
LINE
  8
0
 62
     140
 10
88.9924
 20
197.968
 30
0.0
 11
88.9649
 21
198.061
 31
0.0
  0
LINE
  8
0
 62
     140
 10
88.9649
 20
198.061
 30
0.0
 11
88.9649
 21
198.092
 31
0.0
  0
LINE
  8
0
 62
     140
 10
88.9649
 20
198.092
 30
0.0
 11
88.9649
 21
198.878
 31
0.0
  0
LINE
  8
0
 62
     140
 10
128.568
 20
105.335
 30
0.0
 11
128.535
 21
105.335
 31
0.0
  0
LINE
  8
0
 62
     140
 10
128.535
 20
105.335
 30
0.0
 11
128.444
 21
105.362
 31
0.0
  0
LINE
  8
0
 62
     140
 10
128.444
 20
105.362
 30
0.0
 11
128.437
 21
105.368
 31
0.0
  0
LINE
  8
0
 62
     140
 10
128.437
 20
105.368
 30
0.0
 11
128.429
 21
105.374
 31
0.0
  0
LINE
  8
0
 62
     140
 10
128.429
 20
105.374
 30
0.0
 11
128.393
 21
105.461
 31
0.0
  0
LINE
  8
0
 62
     140
 10
128.393
 20
105.461
 30
0.0
 11
128.393
 21
105.489
 31
0.0
  0
LINE
  8
0
 62
     140
 10
128.393
 20
105.489
 30
0.0
 11
128.393
 21
105.593
 31
0.0
  0
LINE
  8
0
 62
     140
 10
128.393
 20
105.593
 30
0.0
 11
128.668
 21
105.856
 31
0.0
  0
LINE
  8
0
 62
     140
 10
128.668
 20
105.856
 30
0.0
 11
128.723
 21
105.906
 31
0.0
  0
LINE
  8
0
 62
     140
 10
128.723
 20
105.906
 30
0.0
 11
128.772
 21
105.956
 31
0.0
  0
LINE
  8
0
 62
     140
 10
128.772
 20
105.956
 30
0.0
 11
128.78
 21
105.964
 31
0.0
  0
LINE
  8
0
 62
     140
 10
128.78
 20
105.964
 30
0.0
 11
128.899
 21
106.079
 31
0.0
  0
LINE
  8
0
 62
     140
 10
128.899
 20
106.079
 30
0.0
 11
128.916
 21
106.094
 31
0.0
  0
LINE
  8
0
 62
     140
 10
128.916
 20
106.094
 30
0.0
 11
129.013
 21
106.188
 31
0.0
  0
LINE
  8
0
 62
     140
 10
129.013
 20
106.188
 30
0.0
 11
129.36
 21
106.576
 31
0.0
  0
LINE
  8
0
 62
     140
 10
129.36
 20
106.576
 30
0.0
 11
129.509
 21
106.826
 31
0.0
  0
LINE
  8
0
 62
     140
 10
129.509
 20
106.826
 30
0.0
 11
129.509
 21
106.908
 31
0.0
  0
LINE
  8
0
 62
     140
 10
129.509
 20
106.908
 30
0.0
 11
129.509
 21
106.983
 31
0.0
  0
LINE
  8
0
 62
     140
 10
129.509
 20
106.983
 30
0.0
 11
129.421
 21
107.187
 31
0.0
  0
LINE
  8
0
 62
     140
 10
129.421
 20
107.187
 30
0.0
 11
129.405
 21
107.206
 31
0.0
  0
LINE
  8
0
 62
     140
 10
129.405
 20
107.206
 30
0.0
 11
129.387
 21
107.225
 31
0.0
  0
LINE
  8
0
 62
     140
 10
129.387
 20
107.225
 30
0.0
 11
129.197
 21
107.322
 31
0.0
  0
LINE
  8
0
 62
     140
 10
129.197
 20
107.322
 30
0.0
 11
129.135
 21
107.322
 31
0.0
  0
LINE
  8
0
 62
     140
 10
129.135
 20
107.322
 30
0.0
 11
129.082
 21
107.322
 31
0.0
  0
LINE
  8
0
 62
     140
 10
129.082
 20
107.322
 30
0.0
 11
128.943
 21
107.286
 31
0.0
  0
LINE
  8
0
 62
     140
 10
128.943
 20
107.286
 30
0.0
 11
128.927
 21
107.278
 31
0.0
  0
LINE
  8
0
 62
     140
 10
128.927
 20
107.278
 30
0.0
 11
128.91
 21
107.271
 31
0.0
  0
LINE
  8
0
 62
     140
 10
128.91
 20
107.271
 30
0.0
 11
128.776
 21
107.17
 31
0.0
  0
LINE
  8
0
 62
     140
 10
128.776
 20
107.17
 30
0.0
 11
128.767
 21
107.156
 31
0.0
  0
LINE
  8
0
 62
     140
 10
128.767
 20
107.156
 30
0.0
 11
128.764
 21
107.153
 31
0.0
  0
LINE
  8
0
 62
     140
 10
128.764
 20
107.153
 30
0.0
 11
128.736
 21
107.118
 31
0.0
  0
LINE
  8
0
 62
     140
 10
128.736
 20
107.118
 30
0.0
 11
128.734
 21
107.112
 31
0.0
  0
LINE
  8
0
 62
     140
 10
128.734
 20
107.112
 30
0.0
 11
128.723
 21
107.093
 31
0.0
  0
LINE
  8
0
 62
     140
 10
128.723
 20
107.093
 30
0.0
 11
128.623
 21
106.996
 31
0.0
  0
LINE
  8
0
 62
     140
 10
128.623
 20
106.996
 30
0.0
 11
128.59
 21
106.996
 31
0.0
  0
LINE
  8
0
 62
     140
 10
128.59
 20
106.996
 30
0.0
 11
128.568
 21
106.996
 31
0.0
  0
LINE
  8
0
 62
     140
 10
128.568
 20
106.996
 30
0.0
 11
128.506
 21
107.024
 31
0.0
  0
LINE
  8
0
 62
     140
 10
128.506
 20
107.024
 30
0.0
 11
128.502
 21
107.03
 31
0.0
  0
LINE
  8
0
 62
     140
 10
128.502
 20
107.03
 30
0.0
 11
128.498
 21
107.036
 31
0.0
  0
LINE
  8
0
 62
     140
 10
128.498
 20
107.036
 30
0.0
 11
128.48
 21
107.144
 31
0.0
  0
LINE
  8
0
 62
     140
 10
128.48
 20
107.144
 30
0.0
 11
128.48
 21
107.178
 31
0.0
  0
LINE
  8
0
 62
     140
 10
128.48
 20
107.178
 30
0.0
 11
128.48
 21
107.2
 31
0.0
  0
LINE
  8
0
 62
     140
 10
128.48
 20
107.2
 30
0.0
 11
128.488
 21
107.262
 31
0.0
  0
LINE
  8
0
 62
     140
 10
128.488
 20
107.262
 30
0.0
 11
128.491
 21
107.267
 31
0.0
  0
LINE
  8
0
 62
     140
 10
128.491
 20
107.267
 30
0.0
 11
128.492
 21
107.272
 31
0.0
  0
LINE
  8
0
 62
     140
 10
128.492
 20
107.272
 30
0.0
 11
128.53
 21
107.322
 31
0.0
  0
LINE
  8
0
 62
     140
 10
128.53
 20
107.322
 30
0.0
 11
128.535
 21
107.327
 31
0.0
  0
LINE
  8
0
 62
     140
 10
128.535
 20
107.327
 30
0.0
 11
128.553
 21
107.346
 31
0.0
  0
LINE
  8
0
 62
     140
 10
128.553
 20
107.346
 30
0.0
 11
128.778
 21
107.488
 31
0.0
  0
LINE
  8
0
 62
     140
 10
128.778
 20
107.488
 30
0.0
 11
128.805
 21
107.498
 31
0.0
  0
LINE
  8
0
 62
     140
 10
128.805
 20
107.498
 30
0.0
 11
128.833
 21
107.508
 31
0.0
  0
LINE
  8
0
 62
     140
 10
128.833
 20
107.508
 30
0.0
 11
129.063
 21
107.557
 31
0.0
  0
LINE
  8
0
 62
     140
 10
129.063
 20
107.557
 30
0.0
 11
129.14
 21
107.557
 31
0.0
  0
LINE
  8
0
 62
     140
 10
129.14
 20
107.557
 30
0.0
 11
129.258
 21
107.557
 31
0.0
  0
LINE
  8
0
 62
     140
 10
129.258
 20
107.557
 30
0.0
 11
129.582
 21
107.407
 31
0.0
  0
LINE
  8
0
 62
     140
 10
129.582
 20
107.407
 30
0.0
 11
129.614
 21
107.377
 31
0.0
  0
LINE
  8
0
 62
     140
 10
129.614
 20
107.377
 30
0.0
 11
129.646
 21
107.346
 31
0.0
  0
LINE
  8
0
 62
     140
 10
129.646
 20
107.346
 30
0.0
 11
129.806
 21
107.031
 31
0.0
  0
LINE
  8
0
 62
     140
 10
129.806
 20
107.031
 30
0.0
 11
129.806
 21
106.925
 31
0.0
  0
LINE
  8
0
 62
     140
 10
129.806
 20
106.925
 30
0.0
 11
129.806
 21
106.827
 31
0.0
  0
LINE
  8
0
 62
     140
 10
129.806
 20
106.827
 30
0.0
 11
129.66
 21
106.533
 31
0.0
  0
LINE
  8
0
 62
     140
 10
129.66
 20
106.533
 30
0.0
 11
129.319
 21
106.121
 31
0.0
  0
LINE
  8
0
 62
     140
 10
129.319
 20
106.121
 30
0.0
 11
129.223
 21
106.028
 31
0.0
  0
LINE
  8
0
 62
     140
 10
129.223
 20
106.028
 30
0.0
 11
129.198
 21
106.005
 31
0.0
  0
LINE
  8
0
 62
     140
 10
129.198
 20
106.005
 30
0.0
 11
129.01
 21
105.822
 31
0.0
  0
LINE
  8
0
 62
     140
 10
129.01
 20
105.822
 30
0.0
 11
128.998
 21
105.809
 31
0.0
  0
LINE
  8
0
 62
     140
 10
128.998
 20
105.809
 30
0.0
 11
128.783
 21
105.605
 31
0.0
  0
LINE
  8
0
 62
     140
 10
128.783
 20
105.605
 30
0.0
 11
129.57
 21
105.605
 31
0.0
  0
LINE
  8
0
 62
     140
 10
129.57
 20
105.605
 30
0.0
 11
129.57
 21
105.618
 31
0.0
  0
LINE
  8
0
 62
     140
 10
129.57
 20
105.618
 30
0.0
 11
129.603
 21
105.715
 31
0.0
  0
LINE
  8
0
 62
     140
 10
129.603
 20
105.715
 30
0.0
 11
129.609
 21
105.72
 31
0.0
  0
LINE
  8
0
 62
     140
 10
129.609
 20
105.72
 30
0.0
 11
129.613
 21
105.727
 31
0.0
  0
LINE
  8
0
 62
     140
 10
129.613
 20
105.727
 30
0.0
 11
129.679
 21
105.759
 31
0.0
  0
LINE
  8
0
 62
     140
 10
129.679
 20
105.759
 30
0.0
 11
129.701
 21
105.759
 31
0.0
  0
LINE
  8
0
 62
     140
 10
129.701
 20
105.759
 30
0.0
 11
129.723
 21
105.759
 31
0.0
  0
LINE
  8
0
 62
     140
 10
129.723
 20
105.759
 30
0.0
 11
129.784
 21
105.727
 31
0.0
  0
LINE
  8
0
 62
     140
 10
129.784
 20
105.727
 30
0.0
 11
129.789
 21
105.72
 31
0.0
  0
LINE
  8
0
 62
     140
 10
129.789
 20
105.72
 30
0.0
 11
129.795
 21
105.715
 31
0.0
  0
LINE
  8
0
 62
     140
 10
129.795
 20
105.715
 30
0.0
 11
129.822
 21
105.64
 31
0.0
  0
LINE
  8
0
 62
     140
 10
129.822
 20
105.64
 30
0.0
 11
129.822
 21
105.616
 31
0.0
  0
LINE
  8
0
 62
     140
 10
129.822
 20
105.616
 30
0.0
 11
129.822
 21
105.616
 31
0.0
  0
LINE
  8
0
 62
     140
 10
129.822
 20
105.616
 30
0.0
 11
129.817
 21
105.602
 31
0.0
  0
LINE
  8
0
 62
     140
 10
129.817
 20
105.602
 30
0.0
 11
129.817
 21
105.599
 31
0.0
  0
LINE
  8
0
 62
     140
 10
129.817
 20
105.599
 30
0.0
 11
129.817
 21
105.595
 31
0.0
  0
LINE
  8
0
 62
     140
 10
129.817
 20
105.595
 30
0.0
 11
129.817
 21
105.587
 31
0.0
  0
LINE
  8
0
 62
     140
 10
129.817
 20
105.587
 30
0.0
 11
129.817
 21
105.583
 31
0.0
  0
LINE
  8
0
 62
     140
 10
129.817
 20
105.583
 30
0.0
 11
129.806
 21
105.45
 31
0.0
  0
LINE
  8
0
 62
     140
 10
129.806
 20
105.45
 30
0.0
 11
129.804
 21
105.442
 31
0.0
  0
LINE
  8
0
 62
     140
 10
129.804
 20
105.442
 30
0.0
 11
129.777
 21
105.368
 31
0.0
  0
LINE
  8
0
 62
     140
 10
129.777
 20
105.368
 30
0.0
 11
129.772
 21
105.362
 31
0.0
  0
LINE
  8
0
 62
     140
 10
129.772
 20
105.362
 30
0.0
 11
129.769
 21
105.358
 31
0.0
  0
LINE
  8
0
 62
     140
 10
129.769
 20
105.358
 30
0.0
 11
129.722
 21
105.335
 31
0.0
  0
LINE
  8
0
 62
     140
 10
129.722
 20
105.335
 30
0.0
 11
129.707
 21
105.335
 31
0.0
  0
LINE
  8
0
 62
     140
 10
129.707
 20
105.335
 30
0.0
 11
128.568
 21
105.335
 31
0.0
  0
LINE
  8
0
 62
     140
 10
130.868
 20
107.178
 30
0.0
 11
130.86
 21
107.178
 31
0.0
  0
LINE
  8
0
 62
     140
 10
130.86
 20
107.178
 30
0.0
 11
130.836
 21
107.174
 31
0.0
  0
LINE
  8
0
 62
     140
 10
130.836
 20
107.174
 30
0.0
 11
130.835
 21
107.173
 31
0.0
  0
LINE
  8
0
 62
     140
 10
130.835
 20
107.173
 30
0.0
 11
130.831
 21
107.173
 31
0.0
  0
LINE
  8
0
 62
     140
 10
130.831
 20
107.173
 30
0.0
 11
130.818
 21
107.173
 31
0.0
  0
LINE
  8
0
 62
     140
 10
130.818
 20
107.173
 30
0.0
 11
130.818
 21
107.173
 31
0.0
  0
LINE
  8
0
 62
     140
 10
130.818
 20
107.173
 30
0.0
 11
130.797
 21
107.173
 31
0.0
  0
LINE
  8
0
 62
     140
 10
130.797
 20
107.173
 30
0.0
 11
130.736
 21
107.196
 31
0.0
  0
LINE
  8
0
 62
     140
 10
130.736
 20
107.196
 30
0.0
 11
130.73
 21
107.2
 31
0.0
  0
LINE
  8
0
 62
     140
 10
130.73
 20
107.2
 30
0.0
 11
130.725
 21
107.206
 31
0.0
  0
LINE
  8
0
 62
     140
 10
130.725
 20
107.206
 30
0.0
 11
130.697
 21
107.264
 31
0.0
  0
LINE
  8
0
 62
     140
 10
130.697
 20
107.264
 30
0.0
 11
130.697
 21
107.283
 31
0.0
  0
LINE
  8
0
 62
     140
 10
130.697
 20
107.283
 30
0.0
 11
130.697
 21
107.301
 31
0.0
  0
LINE
  8
0
 62
     140
 10
130.697
 20
107.301
 30
0.0
 11
130.719
 21
107.351
 31
0.0
  0
LINE
  8
0
 62
     140
 10
130.719
 20
107.351
 30
0.0
 11
130.725
 21
107.355
 31
0.0
  0
LINE
  8
0
 62
     140
 10
130.725
 20
107.355
 30
0.0
 11
130.729
 21
107.36
 31
0.0
  0
LINE
  8
0
 62
     140
 10
130.729
 20
107.36
 30
0.0
 11
130.798
 21
107.401
 31
0.0
  0
LINE
  8
0
 62
     140
 10
130.798
 20
107.401
 30
0.0
 11
130.808
 21
107.404
 31
0.0
  0
LINE
  8
0
 62
     140
 10
130.808
 20
107.404
 30
0.0
 11
131.319
 21
107.541
 31
0.0
  0
LINE
  8
0
 62
     140
 10
131.319
 20
107.541
 30
0.0
 11
131.322
 21
107.542
 31
0.0
  0
LINE
  8
0
 62
     140
 10
131.322
 20
107.542
 30
0.0
 11
131.348
 21
107.546
 31
0.0
  0
LINE
  8
0
 62
     140
 10
131.348
 20
107.546
 30
0.0
 11
131.358
 21
107.546
 31
0.0
  0
LINE
  8
0
 62
     140
 10
131.358
 20
107.546
 30
0.0
 11
131.36
 21
107.547
 31
0.0
  0
LINE
  8
0
 62
     140
 10
131.36
 20
107.547
 30
0.0
 11
131.386
 21
107.552
 31
0.0
  0
LINE
  8
0
 62
     140
 10
131.386
 20
107.552
 30
0.0
 11
131.396
 21
107.552
 31
0.0
  0
LINE
  8
0
 62
     140
 10
131.396
 20
107.552
 30
0.0
 11
131.407
 21
107.552
 31
0.0
  0
LINE
  8
0
 62
     140
 10
131.407
 20
107.552
 30
0.0
 11
131.437
 21
107.524
 31
0.0
  0
LINE
  8
0
 62
     140
 10
131.437
 20
107.524
 30
0.0
 11
131.44
 21
107.519
 31
0.0
  0
LINE
  8
0
 62
     140
 10
131.44
 20
107.519
 30
0.0
 11
131.443
 21
107.515
 31
0.0
  0
LINE
  8
0
 62
     140
 10
131.443
 20
107.515
 30
0.0
 11
131.462
 21
107.457
 31
0.0
  0
LINE
  8
0
 62
     140
 10
131.462
 20
107.457
 30
0.0
 11
131.462
 21
107.437
 31
0.0
  0
LINE
  8
0
 62
     140
 10
131.462
 20
107.437
 30
0.0
 11
131.462
 21
105.577
 31
0.0
  0
LINE
  8
0
 62
     140
 10
131.462
 20
105.577
 30
0.0
 11
131.736
 21
105.577
 31
0.0
  0
LINE
  8
0
 62
     140
 10
131.736
 20
105.577
 30
0.0
 11
131.785
 21
105.577
 31
0.0
  0
LINE
  8
0
 62
     140
 10
131.785
 20
105.577
 30
0.0
 11
131.922
 21
105.555
 31
0.0
  0
LINE
  8
0
 62
     140
 10
131.922
 20
105.555
 30
0.0
 11
131.929
 21
105.549
 31
0.0
  0
LINE
  8
0
 62
     140
 10
131.929
 20
105.549
 30
0.0
 11
131.936
 21
105.547
 31
0.0
  0
LINE
  8
0
 62
     140
 10
131.936
 20
105.547
 30
0.0
 11
131.973
 21
105.483
 31
0.0
  0
LINE
  8
0
 62
     140
 10
131.973
 20
105.483
 30
0.0
 11
131.973
 21
105.461
 31
0.0
  0
LINE
  8
0
 62
     140
 10
131.973
 20
105.461
 30
0.0
 11
131.973
 21
105.436
 31
0.0
  0
LINE
  8
0
 62
     140
 10
131.973
 20
105.436
 30
0.0
 11
131.946
 21
105.368
 31
0.0
  0
LINE
  8
0
 62
     140
 10
131.946
 20
105.368
 30
0.0
 11
131.94
 21
105.362
 31
0.0
  0
LINE
  8
0
 62
     140
 10
131.94
 20
105.362
 30
0.0
 11
131.935
 21
105.358
 31
0.0
  0
LINE
  8
0
 62
     140
 10
131.935
 20
105.358
 30
0.0
 11
131.86
 21
105.335
 31
0.0
  0
LINE
  8
0
 62
     140
 10
131.86
 20
105.335
 30
0.0
 11
131.836
 21
105.335
 31
0.0
  0
LINE
  8
0
 62
     140
 10
131.836
 20
105.335
 30
0.0
 11
130.808
 21
105.335
 31
0.0
  0
LINE
  8
0
 62
     140
 10
130.808
 20
105.335
 30
0.0
 11
130.781
 21
105.335
 31
0.0
  0
LINE
  8
0
 62
     140
 10
130.781
 20
105.335
 30
0.0
 11
130.708
 21
105.358
 31
0.0
  0
LINE
  8
0
 62
     140
 10
130.708
 20
105.358
 30
0.0
 11
130.703
 21
105.362
 31
0.0
  0
LINE
  8
0
 62
     140
 10
130.703
 20
105.362
 30
0.0
 11
130.697
 21
105.368
 31
0.0
  0
LINE
  8
0
 62
     140
 10
130.697
 20
105.368
 30
0.0
 11
130.67
 21
105.438
 31
0.0
  0
LINE
  8
0
 62
     140
 10
130.67
 20
105.438
 30
0.0
 11
130.67
 21
105.461
 31
0.0
  0
LINE
  8
0
 62
     140
 10
130.67
 20
105.461
 30
0.0
 11
130.67
 21
105.483
 31
0.0
  0
LINE
  8
0
 62
     140
 10
130.67
 20
105.483
 30
0.0
 11
130.701
 21
105.547
 31
0.0
  0
LINE
  8
0
 62
     140
 10
130.701
 20
105.547
 30
0.0
 11
130.708
 21
105.549
 31
0.0
  0
LINE
  8
0
 62
     140
 10
130.708
 20
105.549
 30
0.0
 11
130.715
 21
105.555
 31
0.0
  0
LINE
  8
0
 62
     140
 10
130.715
 20
105.555
 30
0.0
 11
130.859
 21
105.577
 31
0.0
  0
LINE
  8
0
 62
     140
 10
130.859
 20
105.577
 30
0.0
 11
130.907
 21
105.577
 31
0.0
  0
LINE
  8
0
 62
     140
 10
130.907
 20
105.577
 30
0.0
 11
131.192
 21
105.577
 31
0.0
  0
LINE
  8
0
 62
     140
 10
131.192
 20
105.577
 30
0.0
 11
131.192
 21
107.255
 31
0.0
  0
LINE
  8
0
 62
     140
 10
131.192
 20
107.255
 30
0.0
 11
130.868
 21
107.178
 31
0.0
  0
LINE
  8
0
 62
     140
 10
133.393
 20
107.316
 30
0.0
 11
133.315
 21
107.316
 31
0.0
  0
LINE
  8
0
 62
     140
 10
133.315
 20
107.316
 30
0.0
 11
133.102
 21
107.119
 31
0.0
  0
LINE
  8
0
 62
     140
 10
133.102
 20
107.119
 30
0.0
 11
133.084
 21
107.079
 31
0.0
  0
LINE
  8
0
 62
     140
 10
133.084
 20
107.079
 30
0.0
 11
133.065
 21
107.041
 31
0.0
  0
LINE
  8
0
 62
     140
 10
133.065
 20
107.041
 30
0.0
 11
132.974
 21
106.575
 31
0.0
  0
LINE
  8
0
 62
     140
 10
132.974
 20
106.575
 30
0.0
 11
132.974
 21
106.419
 31
0.0
  0
LINE
  8
0
 62
     140
 10
132.974
 20
106.419
 30
0.0
 11
132.974
 21
106.253
 31
0.0
  0
LINE
  8
0
 62
     140
 10
132.974
 20
106.253
 30
0.0
 11
133.065
 21
105.793
 31
0.0
  0
LINE
  8
0
 62
     140
 10
133.065
 20
105.793
 30
0.0
 11
133.084
 21
105.753
 31
0.0
  0
LINE
  8
0
 62
     140
 10
133.084
 20
105.753
 30
0.0
 11
133.102
 21
105.715
 31
0.0
  0
LINE
  8
0
 62
     140
 10
133.102
 20
105.715
 30
0.0
 11
133.32
 21
105.522
 31
0.0
  0
LINE
  8
0
 62
     140
 10
133.32
 20
105.522
 30
0.0
 11
133.393
 21
105.522
 31
0.0
  0
LINE
  8
0
 62
     140
 10
133.393
 20
105.522
 30
0.0
 11
133.469
 21
105.522
 31
0.0
  0
LINE
  8
0
 62
     140
 10
133.469
 20
105.522
 30
0.0
 11
133.681
 21
105.715
 31
0.0
  0
LINE
  8
0
 62
     140
 10
133.681
 20
105.715
 30
0.0
 11
133.7
 21
105.753
 31
0.0
  0
LINE
  8
0
 62
     140
 10
133.7
 20
105.753
 30
0.0
 11
133.718
 21
105.793
 31
0.0
  0
LINE
  8
0
 62
     140
 10
133.718
 20
105.793
 30
0.0
 11
133.81
 21
106.263
 31
0.0
  0
LINE
  8
0
 62
     140
 10
133.81
 20
106.263
 30
0.0
 11
133.81
 21
106.419
 31
0.0
  0
LINE
  8
0
 62
     140
 10
133.81
 20
106.419
 30
0.0
 11
133.81
 21
106.584
 31
0.0
  0
LINE
  8
0
 62
     140
 10
133.81
 20
106.584
 30
0.0
 11
133.718
 21
107.041
 31
0.0
  0
LINE
  8
0
 62
     140
 10
133.718
 20
107.041
 30
0.0
 11
133.7
 21
107.079
 31
0.0
  0
LINE
  8
0
 62
     140
 10
133.7
 20
107.079
 30
0.0
 11
133.681
 21
107.119
 31
0.0
  0
LINE
  8
0
 62
     140
 10
133.681
 20
107.119
 30
0.0
 11
133.464
 21
107.316
 31
0.0
  0
LINE
  8
0
 62
     140
 10
133.464
 20
107.316
 30
0.0
 11
133.393
 21
107.316
 31
0.0
  0
LINE
  8
0
 62
     140
 10
133.393
 20
105.279
 30
0.0
 11
133.263
 21
105.279
 31
0.0
  0
LINE
  8
0
 62
     140
 10
133.263
 20
105.279
 30
0.0
 11
132.906
 21
105.533
 31
0.0
  0
LINE
  8
0
 62
     140
 10
132.906
 20
105.533
 30
0.0
 11
132.874
 21
105.583
 31
0.0
  0
LINE
  8
0
 62
     140
 10
132.874
 20
105.583
 30
0.0
 11
132.843
 21
105.635
 31
0.0
  0
LINE
  8
0
 62
     140
 10
132.843
 20
105.635
 30
0.0
 11
132.689
 21
106.223
 31
0.0
  0
LINE
  8
0
 62
     140
 10
132.689
 20
106.223
 30
0.0
 11
132.689
 21
106.419
 31
0.0
  0
LINE
  8
0
 62
     140
 10
132.689
 20
106.419
 30
0.0
 11
132.689
 21
106.627
 31
0.0
  0
LINE
  8
0
 62
     140
 10
132.689
 20
106.627
 30
0.0
 11
132.843
 21
107.2
 31
0.0
  0
LINE
  8
0
 62
     140
 10
132.843
 20
107.2
 30
0.0
 11
132.874
 21
107.25
 31
0.0
  0
LINE
  8
0
 62
     140
 10
132.874
 20
107.25
 30
0.0
 11
132.906
 21
107.302
 31
0.0
  0
LINE
  8
0
 62
     140
 10
132.906
 20
107.302
 30
0.0
 11
133.27
 21
107.557
 31
0.0
  0
LINE
  8
0
 62
     140
 10
133.27
 20
107.557
 30
0.0
 11
133.393
 21
107.557
 31
0.0
  0
LINE
  8
0
 62
     140
 10
133.393
 20
107.557
 30
0.0
 11
133.519
 21
107.557
 31
0.0
  0
LINE
  8
0
 62
     140
 10
133.519
 20
107.557
 30
0.0
 11
133.872
 21
107.302
 31
0.0
  0
LINE
  8
0
 62
     140
 10
133.872
 20
107.302
 30
0.0
 11
133.904
 21
107.25
 31
0.0
  0
LINE
  8
0
 62
     140
 10
133.904
 20
107.25
 30
0.0
 11
133.936
 21
107.2
 31
0.0
  0
LINE
  8
0
 62
     140
 10
133.936
 20
107.2
 30
0.0
 11
134.095
 21
106.615
 31
0.0
  0
LINE
  8
0
 62
     140
 10
134.095
 20
106.615
 30
0.0
 11
134.095
 21
106.419
 31
0.0
  0
LINE
  8
0
 62
     140
 10
134.095
 20
106.419
 30
0.0
 11
134.095
 21
106.211
 31
0.0
  0
LINE
  8
0
 62
     140
 10
134.095
 20
106.211
 30
0.0
 11
133.936
 21
105.635
 31
0.0
  0
LINE
  8
0
 62
     140
 10
133.936
 20
105.635
 30
0.0
 11
133.904
 21
105.583
 31
0.0
  0
LINE
  8
0
 62
     140
 10
133.904
 20
105.583
 30
0.0
 11
133.872
 21
105.533
 31
0.0
  0
LINE
  8
0
 62
     140
 10
133.872
 20
105.533
 30
0.0
 11
133.513
 21
105.279
 31
0.0
  0
LINE
  8
0
 62
     140
 10
133.513
 20
105.279
 30
0.0
 11
133.393
 21
105.279
 31
0.0
  0
LINE
  8
0
 62
     140
 10
138.254
 20
106.292
 30
0.0
 11
138.254
 21
106.373
 31
0.0
  0
LINE
  8
0
 62
     140
 10
138.254
 20
106.373
 30
0.0
 11
138.217
 21
106.604
 31
0.0
  0
LINE
  8
0
 62
     140
 10
138.217
 20
106.604
 30
0.0
 11
138.21
 21
106.618
 31
0.0
  0
LINE
  8
0
 62
     140
 10
138.21
 20
106.618
 30
0.0
 11
138.202
 21
106.633
 31
0.0
  0
LINE
  8
0
 62
     140
 10
138.202
 20
106.633
 30
0.0
 11
138.096
 21
106.704
 31
0.0
  0
LINE
  8
0
 62
     140
 10
138.096
 20
106.704
 30
0.0
 11
138.061
 21
106.704
 31
0.0
  0
LINE
  8
0
 62
     140
 10
138.061
 20
106.704
 30
0.0
 11
138.009
 21
106.704
 31
0.0
  0
LINE
  8
0
 62
     140
 10
138.009
 20
106.704
 30
0.0
 11
137.864
 21
106.615
 31
0.0
  0
LINE
  8
0
 62
     140
 10
137.864
 20
106.615
 30
0.0
 11
137.852
 21
106.595
 31
0.0
  0
LINE
  8
0
 62
     140
 10
137.852
 20
106.595
 30
0.0
 11
137.84
 21
106.577
 31
0.0
  0
LINE
  8
0
 62
     140
 10
137.84
 20
106.577
 30
0.0
 11
137.781
 21
106.364
 31
0.0
  0
LINE
  8
0
 62
     140
 10
137.781
 20
106.364
 30
0.0
 11
137.781
 21
106.292
 31
0.0
  0
LINE
  8
0
 62
     140
 10
137.781
 20
106.292
 30
0.0
 11
137.781
 21
105.577
 31
0.0
  0
LINE
  8
0
 62
     140
 10
137.781
 20
105.577
 30
0.0
 11
137.813
 21
105.577
 31
0.0
  0
LINE
  8
0
 62
     140
 10
137.813
 20
105.577
 30
0.0
 11
137.848
 21
105.577
 31
0.0
  0
LINE
  8
0
 62
     140
 10
137.848
 20
105.577
 30
0.0
 11
137.946
 21
105.555
 31
0.0
  0
LINE
  8
0
 62
     140
 10
137.946
 20
105.555
 30
0.0
 11
137.951
 21
105.549
 31
0.0
  0
LINE
  8
0
 62
     140
 10
137.951
 20
105.549
 30
0.0
 11
137.957
 21
105.547
 31
0.0
  0
LINE
  8
0
 62
     140
 10
137.957
 20
105.547
 30
0.0
 11
137.99
 21
105.483
 31
0.0
  0
LINE
  8
0
 62
     140
 10
137.99
 20
105.483
 30
0.0
 11
137.99
 21
105.461
 31
0.0
  0
LINE
  8
0
 62
     140
 10
137.99
 20
105.461
 30
0.0
 11
137.99
 21
105.436
 31
0.0
  0
LINE
  8
0
 62
     140
 10
137.99
 20
105.436
 30
0.0
 11
137.962
 21
105.368
 31
0.0
  0
LINE
  8
0
 62
     140
 10
137.962
 20
105.368
 30
0.0
 11
137.957
 21
105.362
 31
0.0
  0
LINE
  8
0
 62
     140
 10
137.957
 20
105.362
 30
0.0
 11
137.951
 21
105.358
 31
0.0
  0
LINE
  8
0
 62
     140
 10
137.951
 20
105.358
 30
0.0
 11
137.889
 21
105.335
 31
0.0
  0
LINE
  8
0
 62
     140
 10
137.889
 20
105.335
 30
0.0
 11
137.869
 21
105.335
 31
0.0
  0
LINE
  8
0
 62
     140
 10
137.869
 20
105.335
 30
0.0
 11
137.65
 21
105.335
 31
0.0
  0
LINE
  8
0
 62
     140
 10
137.65
 20
105.335
 30
0.0
 11
137.625
 21
105.335
 31
0.0
  0
LINE
  8
0
 62
     140
 10
137.625
 20
105.335
 30
0.0
 11
137.554
 21
105.362
 31
0.0
  0
LINE
  8
0
 62
     140
 10
137.554
 20
105.362
 30
0.0
 11
137.55
 21
105.368
 31
0.0
  0
LINE
  8
0
 62
     140
 10
137.55
 20
105.368
 30
0.0
 11
137.545
 21
105.374
 31
0.0
  0
LINE
  8
0
 62
     140
 10
137.545
 20
105.374
 30
0.0
 11
137.523
 21
105.482
 31
0.0
  0
LINE
  8
0
 62
     140
 10
137.523
 20
105.482
 30
0.0
 11
137.523
 21
105.517
 31
0.0
  0
LINE
  8
0
 62
     140
 10
137.523
 20
105.517
 30
0.0
 11
137.523
 21
106.425
 31
0.0
  0
LINE
  8
0
 62
     140
 10
137.523
 20
106.425
 30
0.0
 11
137.523
 21
106.475
 31
0.0
  0
LINE
  8
0
 62
     140
 10
137.523
 20
106.475
 30
0.0
 11
137.472
 21
106.618
 31
0.0
  0
LINE
  8
0
 62
     140
 10
137.472
 20
106.618
 30
0.0
 11
137.462
 21
106.628
 31
0.0
  0
LINE
  8
0
 62
     140
 10
137.462
 20
106.628
 30
0.0
 11
137.452
 21
106.642
 31
0.0
  0
LINE
  8
0
 62
     140
 10
137.452
 20
106.642
 30
0.0
 11
137.343
 21
106.704
 31
0.0
  0
LINE
  8
0
 62
     140
 10
137.343
 20
106.704
 30
0.0
 11
137.308
 21
106.704
 31
0.0
  0
LINE
  8
0
 62
     140
 10
137.308
 20
106.704
 30
0.0
 11
137.272
 21
106.704
 31
0.0
  0
LINE
  8
0
 62
     140
 10
137.272
 20
106.704
 30
0.0
 11
137.176
 21
106.67
 31
0.0
  0
LINE
  8
0
 62
     140
 10
137.176
 20
106.67
 30
0.0
 11
137.165
 21
106.662
 31
0.0
  0
LINE
  8
0
 62
     140
 10
137.165
 20
106.662
 30
0.0
 11
137.153
 21
106.655
 31
0.0
  0
LINE
  8
0
 62
     140
 10
137.153
 20
106.655
 30
0.0
 11
137.062
 21
106.54
 31
0.0
  0
LINE
  8
0
 62
     140
 10
137.062
 20
106.54
 30
0.0
 11
137.056
 21
106.524
 31
0.0
  0
LINE
  8
0
 62
     140
 10
137.056
 20
106.524
 30
0.0
 11
137.056
 21
105.577
 31
0.0
  0
LINE
  8
0
 62
     140
 10
137.056
 20
105.577
 30
0.0
 11
137.116
 21
105.577
 31
0.0
  0
LINE
  8
0
 62
     140
 10
137.116
 20
105.577
 30
0.0
 11
137.149
 21
105.577
 31
0.0
  0
LINE
  8
0
 62
     140
 10
137.149
 20
105.577
 30
0.0
 11
137.247
 21
105.555
 31
0.0
  0
LINE
  8
0
 62
     140
 10
137.247
 20
105.555
 30
0.0
 11
137.253
 21
105.549
 31
0.0
  0
LINE
  8
0
 62
     140
 10
137.253
 20
105.549
 30
0.0
 11
137.258
 21
105.547
 31
0.0
  0
LINE
  8
0
 62
     140
 10
137.258
 20
105.547
 30
0.0
 11
137.291
 21
105.483
 31
0.0
  0
LINE
  8
0
 62
     140
 10
137.291
 20
105.483
 30
0.0
 11
137.291
 21
105.461
 31
0.0
  0
LINE
  8
0
 62
     140
 10
137.291
 20
105.461
 30
0.0
 11
137.291
 21
105.436
 31
0.0
  0
LINE
  8
0
 62
     140
 10
137.291
 20
105.436
 30
0.0
 11
137.268
 21
105.368
 31
0.0
  0
LINE
  8
0
 62
     140
 10
137.268
 20
105.368
 30
0.0
 11
137.264
 21
105.362
 31
0.0
  0
LINE
  8
0
 62
     140
 10
137.264
 20
105.362
 30
0.0
 11
137.258
 21
105.358
 31
0.0
  0
LINE
  8
0
 62
     140
 10
137.258
 20
105.358
 30
0.0
 11
137.179
 21
105.335
 31
0.0
  0
LINE
  8
0
 62
     140
 10
137.179
 20
105.335
 30
0.0
 11
137.155
 21
105.335
 31
0.0
  0
LINE
  8
0
 62
     140
 10
137.155
 20
105.335
 30
0.0
 11
136.692
 21
105.335
 31
0.0
  0
LINE
  8
0
 62
     140
 10
136.692
 20
105.335
 30
0.0
 11
136.667
 21
105.335
 31
0.0
  0
LINE
  8
0
 62
     140
 10
136.667
 20
105.335
 30
0.0
 11
136.598
 21
105.358
 31
0.0
  0
LINE
  8
0
 62
     140
 10
136.598
 20
105.358
 30
0.0
 11
136.592
 21
105.362
 31
0.0
  0
LINE
  8
0
 62
     140
 10
136.592
 20
105.362
 30
0.0
 11
136.587
 21
105.368
 31
0.0
  0
LINE
  8
0
 62
     140
 10
136.587
 20
105.368
 30
0.0
 11
136.566
 21
105.438
 31
0.0
  0
LINE
  8
0
 62
     140
 10
136.566
 20
105.438
 30
0.0
 11
136.566
 21
105.461
 31
0.0
  0
LINE
  8
0
 62
     140
 10
136.566
 20
105.461
 30
0.0
 11
136.566
 21
105.483
 31
0.0
  0
LINE
  8
0
 62
     140
 10
136.566
 20
105.483
 30
0.0
 11
136.597
 21
105.547
 31
0.0
  0
LINE
  8
0
 62
     140
 10
136.597
 20
105.547
 30
0.0
 11
136.604
 21
105.549
 31
0.0
  0
LINE
  8
0
 62
     140
 10
136.604
 20
105.549
 30
0.0
 11
136.609
 21
105.555
 31
0.0
  0
LINE
  8
0
 62
     140
 10
136.609
 20
105.555
 30
0.0
 11
136.725
 21
105.577
 31
0.0
  0
LINE
  8
0
 62
     140
 10
136.725
 20
105.577
 30
0.0
 11
136.763
 21
105.577
 31
0.0
  0
LINE
  8
0
 62
     140
 10
136.763
 20
105.577
 30
0.0
 11
136.797
 21
105.577
 31
0.0
  0
LINE
  8
0
 62
     140
 10
136.797
 20
105.577
 30
0.0
 11
136.797
 21
106.678
 31
0.0
  0
LINE
  8
0
 62
     140
 10
136.797
 20
106.678
 30
0.0
 11
136.763
 21
106.678
 31
0.0
  0
LINE
  8
0
 62
     140
 10
136.763
 20
106.678
 30
0.0
 11
136.722
 21
106.678
 31
0.0
  0
LINE
  8
0
 62
     140
 10
136.722
 20
106.678
 30
0.0
 11
136.605
 21
106.7
 31
0.0
  0
LINE
  8
0
 62
     140
 10
136.605
 20
106.7
 30
0.0
 11
136.598
 21
106.704
 31
0.0
  0
LINE
  8
0
 62
     140
 10
136.598
 20
106.704
 30
0.0
 11
136.59
 21
106.71
 31
0.0
  0
LINE
  8
0
 62
     140
 10
136.59
 20
106.71
 30
0.0
 11
136.555
 21
106.78
 31
0.0
  0
LINE
  8
0
 62
     140
 10
136.555
 20
106.78
 30
0.0
 11
136.555
 21
106.803
 31
0.0
  0
LINE
  8
0
 62
     140
 10
136.555
 20
106.803
 30
0.0
 11
136.555
 21
106.826
 31
0.0
  0
LINE
  8
0
 62
     140
 10
136.555
 20
106.826
 30
0.0
 11
136.581
 21
106.887
 31
0.0
  0
LINE
  8
0
 62
     140
 10
136.581
 20
106.887
 30
0.0
 11
136.587
 21
106.892
 31
0.0
  0
LINE
  8
0
 62
     140
 10
136.587
 20
106.892
 30
0.0
 11
136.592
 21
106.897
 31
0.0
  0
LINE
  8
0
 62
     140
 10
136.592
 20
106.897
 30
0.0
 11
136.667
 21
106.925
 31
0.0
  0
LINE
  8
0
 62
     140
 10
136.667
 20
106.925
 30
0.0
 11
136.692
 21
106.925
 31
0.0
  0
LINE
  8
0
 62
     140
 10
136.692
 20
106.925
 30
0.0
 11
136.956
 21
106.925
 31
0.0
  0
LINE
  8
0
 62
     140
 10
136.956
 20
106.925
 30
0.0
 11
136.976
 21
106.925
 31
0.0
  0
LINE
  8
0
 62
     140
 10
136.976
 20
106.925
 30
0.0
 11
137.031
 21
106.907
 31
0.0
  0
LINE
  8
0
 62
     140
 10
137.031
 20
106.907
 30
0.0
 11
137.033
 21
106.903
 31
0.0
  0
LINE
  8
0
 62
     140
 10
137.033
 20
106.903
 30
0.0
 11
137.036
 21
106.9
 31
0.0
  0
LINE
  8
0
 62
     140
 10
137.036
 20
106.9
 30
0.0
 11
137.054
 21
106.831
 31
0.0
  0
LINE
  8
0
 62
     140
 10
137.054
 20
106.831
 30
0.0
 11
137.056
 21
106.82
 31
0.0
  0
LINE
  8
0
 62
     140
 10
137.056
 20
106.82
 30
0.0
 11
137.067
 21
106.834
 31
0.0
  0
LINE
  8
0
 62
     140
 10
137.067
 20
106.834
 30
0.0
 11
137.189
 21
106.925
 31
0.0
  0
LINE
  8
0
 62
     140
 10
137.189
 20
106.925
 30
0.0
 11
137.203
 21
106.93
 31
0.0
  0
LINE
  8
0
 62
     140
 10
137.203
 20
106.93
 30
0.0
 11
137.217
 21
106.937
 31
0.0
  0
LINE
  8
0
 62
     140
 10
137.217
 20
106.937
 30
0.0
 11
137.342
 21
106.969
 31
0.0
  0
LINE
  8
0
 62
     140
 10
137.342
 20
106.969
 30
0.0
 11
137.385
 21
106.969
 31
0.0
  0
LINE
  8
0
 62
     140
 10
137.385
 20
106.969
 30
0.0
 11
137.434
 21
106.969
 31
0.0
  0
LINE
  8
0
 62
     140
 10
137.434
 20
106.969
 30
0.0
 11
137.57
 21
106.923
 31
0.0
  0
LINE
  8
0
 62
     140
 10
137.57
 20
106.923
 30
0.0
 11
137.583
 21
106.914
 31
0.0
  0
LINE
  8
0
 62
     140
 10
137.583
 20
106.914
 30
0.0
 11
137.597
 21
106.905
 31
0.0
  0
LINE
  8
0
 62
     140
 10
137.597
 20
106.905
 30
0.0
 11
137.698
 21
106.773
 31
0.0
  0
LINE
  8
0
 62
     140
 10
137.698
 20
106.773
 30
0.0
 11
137.705
 21
106.754
 31
0.0
  0
LINE
  8
0
 62
     140
 10
137.705
 20
106.754
 30
0.0
 11
137.716
 21
106.773
 31
0.0
  0
LINE
  8
0
 62
     140
 10
137.716
 20
106.773
 30
0.0
 11
137.852
 21
106.905
 31
0.0
  0
LINE
  8
0
 62
     140
 10
137.852
 20
106.905
 30
0.0
 11
137.869
 21
106.914
 31
0.0
  0
LINE
  8
0
 62
     140
 10
137.869
 20
106.914
 30
0.0
 11
137.884
 21
106.923
 31
0.0
  0
LINE
  8
0
 62
     140
 10
137.884
 20
106.923
 30
0.0
 11
138.032
 21
106.969
 31
0.0
  0
LINE
  8
0
 62
     140
 10
138.032
 20
106.969
 30
0.0
 11
138.084
 21
106.969
 31
0.0
  0
LINE
  8
0
 62
     140
 10
138.084
 20
106.969
 30
0.0
 11
138.164
 21
106.969
 31
0.0
  0
LINE
  8
0
 62
     140
 10
138.164
 20
106.969
 30
0.0
 11
138.391
 21
106.845
 31
0.0
  0
LINE
  8
0
 62
     140
 10
138.391
 20
106.845
 30
0.0
 11
138.407
 21
106.82
 31
0.0
  0
LINE
  8
0
 62
     140
 10
138.407
 20
106.82
 30
0.0
 11
138.424
 21
106.796
 31
0.0
  0
LINE
  8
0
 62
     140
 10
138.424
 20
106.796
 30
0.0
 11
138.512
 21
106.469
 31
0.0
  0
LINE
  8
0
 62
     140
 10
138.512
 20
106.469
 30
0.0
 11
138.512
 21
106.358
 31
0.0
  0
LINE
  8
0
 62
     140
 10
138.512
 20
106.358
 30
0.0
 11
138.512
 21
105.577
 31
0.0
  0
LINE
  8
0
 62
     140
 10
138.512
 20
105.577
 30
0.0
 11
138.54
 21
105.577
 31
0.0
  0
LINE
  8
0
 62
     140
 10
138.54
 20
105.577
 30
0.0
 11
138.574
 21
105.577
 31
0.0
  0
LINE
  8
0
 62
     140
 10
138.574
 20
105.577
 30
0.0
 11
138.672
 21
105.555
 31
0.0
  0
LINE
  8
0
 62
     140
 10
138.672
 20
105.555
 30
0.0
 11
138.678
 21
105.549
 31
0.0
  0
LINE
  8
0
 62
     140
 10
138.678
 20
105.549
 30
0.0
 11
138.683
 21
105.547
 31
0.0
  0
LINE
  8
0
 62
     140
 10
138.683
 20
105.547
 30
0.0
 11
138.716
 21
105.483
 31
0.0
  0
LINE
  8
0
 62
     140
 10
138.716
 20
105.483
 30
0.0
 11
138.716
 21
105.461
 31
0.0
  0
LINE
  8
0
 62
     140
 10
138.716
 20
105.461
 30
0.0
 11
138.716
 21
105.436
 31
0.0
  0
LINE
  8
0
 62
     140
 10
138.716
 20
105.436
 30
0.0
 11
138.689
 21
105.368
 31
0.0
  0
LINE
  8
0
 62
     140
 10
138.689
 20
105.368
 30
0.0
 11
138.683
 21
105.362
 31
0.0
  0
LINE
  8
0
 62
     140
 10
138.683
 20
105.362
 30
0.0
 11
138.678
 21
105.358
 31
0.0
  0
LINE
  8
0
 62
     140
 10
138.678
 20
105.358
 30
0.0
 11
138.616
 21
105.335
 31
0.0
  0
LINE
  8
0
 62
     140
 10
138.616
 20
105.335
 30
0.0
 11
138.595
 21
105.335
 31
0.0
  0
LINE
  8
0
 62
     140
 10
138.595
 20
105.335
 30
0.0
 11
138.385
 21
105.335
 31
0.0
  0
LINE
  8
0
 62
     140
 10
138.385
 20
105.335
 30
0.0
 11
138.361
 21
105.335
 31
0.0
  0
LINE
  8
0
 62
     140
 10
138.361
 20
105.335
 30
0.0
 11
138.293
 21
105.368
 31
0.0
  0
LINE
  8
0
 62
     140
 10
138.293
 20
105.368
 30
0.0
 11
138.287
 21
105.373
 31
0.0
  0
LINE
  8
0
 62
     140
 10
138.287
 20
105.373
 30
0.0
 11
138.282
 21
105.381
 31
0.0
  0
LINE
  8
0
 62
     140
 10
138.282
 20
105.381
 30
0.0
 11
138.254
 21
105.475
 31
0.0
  0
LINE
  8
0
 62
     140
 10
138.254
 20
105.475
 30
0.0
 11
138.254
 21
105.505
 31
0.0
  0
LINE
  8
0
 62
     140
 10
138.254
 20
105.505
 30
0.0
 11
138.254
 21
106.292
 31
0.0
  0
LINE
  8
0
 62
     140
 10
140.366
 20
106.292
 30
0.0
 11
140.366
 21
106.373
 31
0.0
  0
LINE
  8
0
 62
     140
 10
140.366
 20
106.373
 30
0.0
 11
140.328
 21
106.604
 31
0.0
  0
LINE
  8
0
 62
     140
 10
140.328
 20
106.604
 30
0.0
 11
140.322
 21
106.618
 31
0.0
  0
LINE
  8
0
 62
     140
 10
140.322
 20
106.618
 30
0.0
 11
140.313
 21
106.633
 31
0.0
  0
LINE
  8
0
 62
     140
 10
140.313
 20
106.633
 30
0.0
 11
140.208
 21
106.704
 31
0.0
  0
LINE
  8
0
 62
     140
 10
140.208
 20
106.704
 30
0.0
 11
140.174
 21
106.704
 31
0.0
  0
LINE
  8
0
 62
     140
 10
140.174
 20
106.704
 30
0.0
 11
140.122
 21
106.704
 31
0.0
  0
LINE
  8
0
 62
     140
 10
140.122
 20
106.704
 30
0.0
 11
139.977
 21
106.615
 31
0.0
  0
LINE
  8
0
 62
     140
 10
139.977
 20
106.615
 30
0.0
 11
139.965
 21
106.595
 31
0.0
  0
LINE
  8
0
 62
     140
 10
139.965
 20
106.595
 30
0.0
 11
139.952
 21
106.577
 31
0.0
  0
LINE
  8
0
 62
     140
 10
139.952
 20
106.577
 30
0.0
 11
139.893
 21
106.364
 31
0.0
  0
LINE
  8
0
 62
     140
 10
139.893
 20
106.364
 30
0.0
 11
139.893
 21
106.292
 31
0.0
  0
LINE
  8
0
 62
     140
 10
139.893
 20
106.292
 30
0.0
 11
139.893
 21
105.577
 31
0.0
  0
LINE
  8
0
 62
     140
 10
139.893
 20
105.577
 30
0.0
 11
139.926
 21
105.577
 31
0.0
  0
LINE
  8
0
 62
     140
 10
139.926
 20
105.577
 30
0.0
 11
139.96
 21
105.577
 31
0.0
  0
LINE
  8
0
 62
     140
 10
139.96
 20
105.577
 30
0.0
 11
140.058
 21
105.555
 31
0.0
  0
LINE
  8
0
 62
     140
 10
140.058
 20
105.555
 30
0.0
 11
140.064
 21
105.549
 31
0.0
  0
LINE
  8
0
 62
     140
 10
140.064
 20
105.549
 30
0.0
 11
140.069
 21
105.547
 31
0.0
  0
LINE
  8
0
 62
     140
 10
140.069
 20
105.547
 30
0.0
 11
140.103
 21
105.483
 31
0.0
  0
LINE
  8
0
 62
     140
 10
140.103
 20
105.483
 30
0.0
 11
140.103
 21
105.461
 31
0.0
  0
LINE
  8
0
 62
     140
 10
140.103
 20
105.461
 30
0.0
 11
140.103
 21
105.436
 31
0.0
  0
LINE
  8
0
 62
     140
 10
140.103
 20
105.436
 30
0.0
 11
140.075
 21
105.368
 31
0.0
  0
LINE
  8
0
 62
     140
 10
140.075
 20
105.368
 30
0.0
 11
140.069
 21
105.362
 31
0.0
  0
LINE
  8
0
 62
     140
 10
140.069
 20
105.362
 30
0.0
 11
140.064
 21
105.358
 31
0.0
  0
LINE
  8
0
 62
     140
 10
140.064
 20
105.358
 30
0.0
 11
140.002
 21
105.335
 31
0.0
  0
LINE
  8
0
 62
     140
 10
140.002
 20
105.335
 30
0.0
 11
139.981
 21
105.335
 31
0.0
  0
LINE
  8
0
 62
     140
 10
139.981
 20
105.335
 30
0.0
 11
139.761
 21
105.335
 31
0.0
  0
LINE
  8
0
 62
     140
 10
139.761
 20
105.335
 30
0.0
 11
139.736
 21
105.335
 31
0.0
  0
LINE
  8
0
 62
     140
 10
139.736
 20
105.335
 30
0.0
 11
139.665
 21
105.362
 31
0.0
  0
LINE
  8
0
 62
     140
 10
139.665
 20
105.362
 30
0.0
 11
139.662
 21
105.368
 31
0.0
  0
LINE
  8
0
 62
     140
 10
139.662
 20
105.368
 30
0.0
 11
139.656
 21
105.374
 31
0.0
  0
LINE
  8
0
 62
     140
 10
139.656
 20
105.374
 30
0.0
 11
139.634
 21
105.482
 31
0.0
  0
LINE
  8
0
 62
     140
 10
139.634
 20
105.482
 30
0.0
 11
139.634
 21
105.517
 31
0.0
  0
LINE
  8
0
 62
     140
 10
139.634
 20
105.517
 30
0.0
 11
139.634
 21
106.425
 31
0.0
  0
LINE
  8
0
 62
     140
 10
139.634
 20
106.425
 30
0.0
 11
139.634
 21
106.475
 31
0.0
  0
LINE
  8
0
 62
     140
 10
139.634
 20
106.475
 30
0.0
 11
139.584
 21
106.618
 31
0.0
  0
LINE
  8
0
 62
     140
 10
139.584
 20
106.618
 30
0.0
 11
139.575
 21
106.628
 31
0.0
  0
LINE
  8
0
 62
     140
 10
139.575
 20
106.628
 30
0.0
 11
139.565
 21
106.642
 31
0.0
  0
LINE
  8
0
 62
     140
 10
139.565
 20
106.642
 30
0.0
 11
139.456
 21
106.704
 31
0.0
  0
LINE
  8
0
 62
     140
 10
139.456
 20
106.704
 30
0.0
 11
139.42
 21
106.704
 31
0.0
  0
LINE
  8
0
 62
     140
 10
139.42
 20
106.704
 30
0.0
 11
139.384
 21
106.704
 31
0.0
  0
LINE
  8
0
 62
     140
 10
139.384
 20
106.704
 30
0.0
 11
139.288
 21
106.67
 31
0.0
  0
LINE
  8
0
 62
     140
 10
139.288
 20
106.67
 30
0.0
 11
139.277
 21
106.662
 31
0.0
  0
LINE
  8
0
 62
     140
 10
139.277
 20
106.662
 30
0.0
 11
139.266
 21
106.655
 31
0.0
  0
LINE
  8
0
 62
     140
 10
139.266
 20
106.655
 30
0.0
 11
139.174
 21
106.54
 31
0.0
  0
LINE
  8
0
 62
     140
 10
139.174
 20
106.54
 30
0.0
 11
139.167
 21
106.524
 31
0.0
  0
LINE
  8
0
 62
     140
 10
139.167
 20
106.524
 30
0.0
 11
139.167
 21
105.577
 31
0.0
  0
LINE
  8
0
 62
     140
 10
139.167
 20
105.577
 30
0.0
 11
139.227
 21
105.577
 31
0.0
  0
LINE
  8
0
 62
     140
 10
139.227
 20
105.577
 30
0.0
 11
139.262
 21
105.577
 31
0.0
  0
LINE
  8
0
 62
     140
 10
139.262
 20
105.577
 30
0.0
 11
139.36
 21
105.555
 31
0.0
  0
LINE
  8
0
 62
     140
 10
139.36
 20
105.555
 30
0.0
 11
139.365
 21
105.549
 31
0.0
  0
LINE
  8
0
 62
     140
 10
139.365
 20
105.549
 30
0.0
 11
139.371
 21
105.547
 31
0.0
  0
LINE
  8
0
 62
     140
 10
139.371
 20
105.547
 30
0.0
 11
139.404
 21
105.483
 31
0.0
  0
LINE
  8
0
 62
     140
 10
139.404
 20
105.483
 30
0.0
 11
139.404
 21
105.461
 31
0.0
  0
LINE
  8
0
 62
     140
 10
139.404
 20
105.461
 30
0.0
 11
139.404
 21
105.436
 31
0.0
  0
LINE
  8
0
 62
     140
 10
139.404
 20
105.436
 30
0.0
 11
139.38
 21
105.368
 31
0.0
  0
LINE
  8
0
 62
     140
 10
139.38
 20
105.368
 30
0.0
 11
139.376
 21
105.362
 31
0.0
  0
LINE
  8
0
 62
     140
 10
139.376
 20
105.362
 30
0.0
 11
139.371
 21
105.358
 31
0.0
  0
LINE
  8
0
 62
     140
 10
139.371
 20
105.358
 30
0.0
 11
139.292
 21
105.335
 31
0.0
  0
LINE
  8
0
 62
     140
 10
139.292
 20
105.335
 30
0.0
 11
139.266
 21
105.335
 31
0.0
  0
LINE
  8
0
 62
     140
 10
139.266
 20
105.335
 30
0.0
 11
138.804
 21
105.335
 31
0.0
  0
LINE
  8
0
 62
     140
 10
138.804
 20
105.335
 30
0.0
 11
138.78
 21
105.335
 31
0.0
  0
LINE
  8
0
 62
     140
 10
138.78
 20
105.335
 30
0.0
 11
138.71
 21
105.358
 31
0.0
  0
LINE
  8
0
 62
     140
 10
138.71
 20
105.358
 30
0.0
 11
138.705
 21
105.362
 31
0.0
  0
LINE
  8
0
 62
     140
 10
138.705
 20
105.362
 30
0.0
 11
138.7
 21
105.368
 31
0.0
  0
LINE
  8
0
 62
     140
 10
138.7
 20
105.368
 30
0.0
 11
138.678
 21
105.438
 31
0.0
  0
LINE
  8
0
 62
     140
 10
138.678
 20
105.438
 30
0.0
 11
138.678
 21
105.461
 31
0.0
  0
LINE
  8
0
 62
     140
 10
138.678
 20
105.461
 30
0.0
 11
138.678
 21
105.483
 31
0.0
  0
LINE
  8
0
 62
     140
 10
138.678
 20
105.483
 30
0.0
 11
138.709
 21
105.547
 31
0.0
  0
LINE
  8
0
 62
     140
 10
138.709
 20
105.547
 30
0.0
 11
138.716
 21
105.549
 31
0.0
  0
LINE
  8
0
 62
     140
 10
138.716
 20
105.549
 30
0.0
 11
138.722
 21
105.555
 31
0.0
  0
LINE
  8
0
 62
     140
 10
138.722
 20
105.555
 30
0.0
 11
138.837
 21
105.577
 31
0.0
  0
LINE
  8
0
 62
     140
 10
138.837
 20
105.577
 30
0.0
 11
138.876
 21
105.577
 31
0.0
  0
LINE
  8
0
 62
     140
 10
138.876
 20
105.577
 30
0.0
 11
138.909
 21
105.577
 31
0.0
  0
LINE
  8
0
 62
     140
 10
138.909
 20
105.577
 30
0.0
 11
138.909
 21
106.678
 31
0.0
  0
LINE
  8
0
 62
     140
 10
138.909
 20
106.678
 30
0.0
 11
138.876
 21
106.678
 31
0.0
  0
LINE
  8
0
 62
     140
 10
138.876
 20
106.678
 30
0.0
 11
138.835
 21
106.678
 31
0.0
  0
LINE
  8
0
 62
     140
 10
138.835
 20
106.678
 30
0.0
 11
138.718
 21
106.7
 31
0.0
  0
LINE
  8
0
 62
     140
 10
138.718
 20
106.7
 30
0.0
 11
138.71
 21
106.704
 31
0.0
  0
LINE
  8
0
 62
     140
 10
138.71
 20
106.704
 30
0.0
 11
138.702
 21
106.71
 31
0.0
  0
LINE
  8
0
 62
     140
 10
138.702
 20
106.71
 30
0.0
 11
138.666
 21
106.78
 31
0.0
  0
LINE
  8
0
 62
     140
 10
138.666
 20
106.78
 30
0.0
 11
138.666
 21
106.803
 31
0.0
  0
LINE
  8
0
 62
     140
 10
138.666
 20
106.803
 30
0.0
 11
138.666
 21
106.826
 31
0.0
  0
LINE
  8
0
 62
     140
 10
138.666
 20
106.826
 30
0.0
 11
138.694
 21
106.887
 31
0.0
  0
LINE
  8
0
 62
     140
 10
138.694
 20
106.887
 30
0.0
 11
138.7
 21
106.892
 31
0.0
  0
LINE
  8
0
 62
     140
 10
138.7
 20
106.892
 30
0.0
 11
138.705
 21
106.897
 31
0.0
  0
LINE
  8
0
 62
     140
 10
138.705
 20
106.897
 30
0.0
 11
138.78
 21
106.925
 31
0.0
  0
LINE
  8
0
 62
     140
 10
138.78
 20
106.925
 30
0.0
 11
138.804
 21
106.925
 31
0.0
  0
LINE
  8
0
 62
     140
 10
138.804
 20
106.925
 30
0.0
 11
139.067
 21
106.925
 31
0.0
  0
LINE
  8
0
 62
     140
 10
139.067
 20
106.925
 30
0.0
 11
139.087
 21
106.925
 31
0.0
  0
LINE
  8
0
 62
     140
 10
139.087
 20
106.925
 30
0.0
 11
139.142
 21
106.907
 31
0.0
  0
LINE
  8
0
 62
     140
 10
139.142
 20
106.907
 30
0.0
 11
139.145
 21
106.903
 31
0.0
  0
LINE
  8
0
 62
     140
 10
139.145
 20
106.903
 30
0.0
 11
139.148
 21
106.9
 31
0.0
  0
LINE
  8
0
 62
     140
 10
139.148
 20
106.9
 30
0.0
 11
139.165
 21
106.831
 31
0.0
  0
LINE
  8
0
 62
     140
 10
139.165
 20
106.831
 30
0.0
 11
139.167
 21
106.82
 31
0.0
  0
LINE
  8
0
 62
     140
 10
139.167
 20
106.82
 30
0.0
 11
139.178
 21
106.834
 31
0.0
  0
LINE
  8
0
 62
     140
 10
139.178
 20
106.834
 30
0.0
 11
139.302
 21
106.925
 31
0.0
  0
LINE
  8
0
 62
     140
 10
139.302
 20
106.925
 30
0.0
 11
139.315
 21
106.93
 31
0.0
  0
LINE
  8
0
 62
     140
 10
139.315
 20
106.93
 30
0.0
 11
139.329
 21
106.937
 31
0.0
  0
LINE
  8
0
 62
     140
 10
139.329
 20
106.937
 30
0.0
 11
139.455
 21
106.969
 31
0.0
  0
LINE
  8
0
 62
     140
 10
139.455
 20
106.969
 30
0.0
 11
139.498
 21
106.969
 31
0.0
  0
LINE
  8
0
 62
     140
 10
139.498
 20
106.969
 30
0.0
 11
139.546
 21
106.969
 31
0.0
  0
LINE
  8
0
 62
     140
 10
139.546
 20
106.969
 30
0.0
 11
139.681
 21
106.923
 31
0.0
  0
LINE
  8
0
 62
     140
 10
139.681
 20
106.923
 30
0.0
 11
139.694
 21
106.914
 31
0.0
  0
LINE
  8
0
 62
     140
 10
139.694
 20
106.914
 30
0.0
 11
139.708
 21
106.905
 31
0.0
  0
LINE
  8
0
 62
     140
 10
139.708
 20
106.905
 30
0.0
 11
139.809
 21
106.773
 31
0.0
  0
LINE
  8
0
 62
     140
 10
139.809
 20
106.773
 30
0.0
 11
139.816
 21
106.754
 31
0.0
  0
LINE
  8
0
 62
     140
 10
139.816
 20
106.754
 30
0.0
 11
139.827
 21
106.773
 31
0.0
  0
LINE
  8
0
 62
     140
 10
139.827
 20
106.773
 30
0.0
 11
139.965
 21
106.905
 31
0.0
  0
LINE
  8
0
 62
     140
 10
139.965
 20
106.905
 30
0.0
 11
139.981
 21
106.914
 31
0.0
  0
LINE
  8
0
 62
     140
 10
139.981
 20
106.914
 30
0.0
 11
139.996
 21
106.923
 31
0.0
  0
LINE
  8
0
 62
     140
 10
139.996
 20
106.923
 30
0.0
 11
140.145
 21
106.969
 31
0.0
  0
LINE
  8
0
 62
     140
 10
140.145
 20
106.969
 30
0.0
 11
140.195
 21
106.969
 31
0.0
  0
LINE
  8
0
 62
     140
 10
140.195
 20
106.969
 30
0.0
 11
140.276
 21
106.969
 31
0.0
  0
LINE
  8
0
 62
     140
 10
140.276
 20
106.969
 30
0.0
 11
140.503
 21
106.845
 31
0.0
  0
LINE
  8
0
 62
     140
 10
140.503
 20
106.845
 30
0.0
 11
140.52
 21
106.82
 31
0.0
  0
LINE
  8
0
 62
     140
 10
140.52
 20
106.82
 30
0.0
 11
140.536
 21
106.796
 31
0.0
  0
LINE
  8
0
 62
     140
 10
140.536
 20
106.796
 30
0.0
 11
140.625
 21
106.469
 31
0.0
  0
LINE
  8
0
 62
     140
 10
140.625
 20
106.469
 30
0.0
 11
140.625
 21
106.358
 31
0.0
  0
LINE
  8
0
 62
     140
 10
140.625
 20
106.358
 30
0.0
 11
140.625
 21
105.577
 31
0.0
  0
LINE
  8
0
 62
     140
 10
140.625
 20
105.577
 30
0.0
 11
140.652
 21
105.577
 31
0.0
  0
LINE
  8
0
 62
     140
 10
140.652
 20
105.577
 30
0.0
 11
140.685
 21
105.577
 31
0.0
  0
LINE
  8
0
 62
     140
 10
140.685
 20
105.577
 30
0.0
 11
140.783
 21
105.555
 31
0.0
  0
LINE
  8
0
 62
     140
 10
140.783
 20
105.555
 30
0.0
 11
140.789
 21
105.549
 31
0.0
  0
LINE
  8
0
 62
     140
 10
140.789
 20
105.549
 30
0.0
 11
140.794
 21
105.547
 31
0.0
  0
LINE
  8
0
 62
     140
 10
140.794
 20
105.547
 30
0.0
 11
140.827
 21
105.483
 31
0.0
  0
LINE
  8
0
 62
     140
 10
140.827
 20
105.483
 30
0.0
 11
140.827
 21
105.461
 31
0.0
  0
LINE
  8
0
 62
     140
 10
140.827
 20
105.461
 30
0.0
 11
140.827
 21
105.436
 31
0.0
  0
LINE
  8
0
 62
     140
 10
140.827
 20
105.436
 30
0.0
 11
140.8
 21
105.368
 31
0.0
  0
LINE
  8
0
 62
     140
 10
140.8
 20
105.368
 30
0.0
 11
140.794
 21
105.362
 31
0.0
  0
LINE
  8
0
 62
     140
 10
140.794
 20
105.362
 30
0.0
 11
140.789
 21
105.358
 31
0.0
  0
LINE
  8
0
 62
     140
 10
140.789
 20
105.358
 30
0.0
 11
140.727
 21
105.335
 31
0.0
  0
LINE
  8
0
 62
     140
 10
140.727
 20
105.335
 30
0.0
 11
140.707
 21
105.335
 31
0.0
  0
LINE
  8
0
 62
     140
 10
140.707
 20
105.335
 30
0.0
 11
140.498
 21
105.335
 31
0.0
  0
LINE
  8
0
 62
     140
 10
140.498
 20
105.335
 30
0.0
 11
140.473
 21
105.335
 31
0.0
  0
LINE
  8
0
 62
     140
 10
140.473
 20
105.335
 30
0.0
 11
140.404
 21
105.368
 31
0.0
  0
LINE
  8
0
 62
     140
 10
140.404
 20
105.368
 30
0.0
 11
140.399
 21
105.373
 31
0.0
  0
LINE
  8
0
 62
     140
 10
140.399
 20
105.373
 30
0.0
 11
140.393
 21
105.381
 31
0.0
  0
LINE
  8
0
 62
     140
 10
140.393
 20
105.381
 30
0.0
 11
140.366
 21
105.475
 31
0.0
  0
LINE
  8
0
 62
     140
 10
140.366
 20
105.475
 30
0.0
 11
140.366
 21
105.505
 31
0.0
  0
LINE
  8
0
 62
     140
 10
140.366
 20
105.505
 30
0.0
 11
140.366
 21
106.292
 31
0.0
  0
ENDSEC
  0
EOF
