  0
SECTION
  2
HEADER
  9
$ACADVER
  1
AC1009
  9
$INSBASE
 10
0.0
 20
0.0
 30
0.0
  9
$EXTMIN
 10
0.0
 20
0.0
 30
0.0
  9
$EXTMAX
 10
0.0
 20
0.0
 30
0.0
  0
ENDSEC
  0
SECTION
  2
TABLES
  0
TABLE
  2
VPORT
 70
0
  0
ENDTAB
  0
TABLE
  2
LTYPE
 70
1
  0
LTYPE
  2
CONTINUOUS
 70
0
  3
Solid line
 72
65
 73
0
 40
0.0
  0
ENDTAB
  0
TABLE
  2
LAYER
 70
1
  0
LAYER
  2
0
 70
64
 62
7
  6
continuous
  0
ENDTAB
  0
TABLE
  2
STYLE
 70
1
  0
STYLE
  2
STANDARD
 70
0
 40
0
 41
1.0
 50
0.0
 71
0
 42
1
 3
ARIAL.TTF
 4

  0
ENDTAB
  0
TABLE
  2
VIEW
 70
0
  0
ENDTAB
  0
ENDSEC
  0
SECTION
  2
BLOCKS
  0
ENDSEC
  0
SECTION
  2
ENTITIES
  0
POLYLINE
  8
0
 62
230
 70
1
 66
1
 10
0.0
 20
0.0
 30
0.0
  0
VERTEX
  8
0
 10
31.176035
 20
-253.32397
 30
0.0
  0
VERTEX
  8
0
 10
36.097632833333336
 20
-253.32397
 30
0.0
  0
VERTEX
  8
0
 10
41.019230666666665
 20
-253.32397
 30
0.0
  0
VERTEX
  8
0
 10
45.9408285
 20
-253.32397
 30
0.0
  0
VERTEX
  8
0
 10
50.86242633333333
 20
-253.32397
 30
0.0
  0
VERTEX
  8
0
 10
55.78402416666667
 20
-253.32397
 30
0.0
  0
VERTEX
  8
0
 10
60.705622000000005
 20
-253.32397
 30
0.0
  0
VERTEX
  8
0
 10
65.62721983333333
 20
-253.32397
 30
0.0
  0
VERTEX
  8
0
 10
70.54881766666668
 20
-253.32397
 30
0.0
  0
VERTEX
  8
0
 10
75.4704155
 20
-253.32397
 30
0.0
  0
VERTEX
  8
0
 10
80.39201333333334
 20
-253.32397
 30
0.0
  0
VERTEX
  8
0
 10
85.31361116666667
 20
-253.32397
 30
0.0
  0
VERTEX
  8
0
 10
90.23520900000001
 20
-253.32397
 30
0.0
  0
VERTEX
  8
0
 10
95.15680683333335
 20
-253.32397
 30
0.0
  0
VERTEX
  8
0
 10
100.07840466666667
 20
-253.32397
 30
0.0
  0
VERTEX
  8
0
 10
105.00000250000001
 20
-253.32397
 30
0.0
  0
VERTEX
  8
0
 10
109.92160033333334
 20
-253.32397
 30
0.0
  0
VERTEX
  8
0
 10
114.84319816666667
 20
-253.32397
 30
0.0
  0
VERTEX
  8
0
 10
119.76479600000002
 20
-253.32397
 30
0.0
  0
VERTEX
  8
0
 10
124.68639383333334
 20
-253.32397
 30
0.0
  0
VERTEX
  8
0
 10
129.6079916666667
 20
-253.32397
 30
0.0
  0
VERTEX
  8
0
 10
134.52958950000001
 20
-253.32397
 30
0.0
  0
VERTEX
  8
0
 10
139.45118733333334
 20
-253.32397
 30
0.0
  0
VERTEX
  8
0
 10
144.3727851666667
 20
-253.32397
 30
0.0
  0
VERTEX
  8
0
 10
149.29438300000004
 20
-253.32397
 30
0.0
  0
VERTEX
  8
0
 10
154.21598083333333
 20
-253.32397
 30
0.0
  0
VERTEX
  8
0
 10
159.13757866666668
 20
-253.32397
 30
0.0
  0
VERTEX
  8
0
 10
164.05917650000004
 20
-253.32397
 30
0.0
  0
VERTEX
  8
0
 10
168.98077433333333
 20
-253.32397
 30
0.0
  0
VERTEX
  8
0
 10
173.90237216666668
 20
-253.32397
 30
0.0
  0
VERTEX
  8
0
 10
178.82397
 20
-253.32397
 30
0.0
  0
VERTEX
  8
0
 10
178.82397
 20
-248.33235247619047
 30
0.0
  0
VERTEX
  8
0
 10
178.82397
 20
-243.34073495238096
 30
0.0
  0
VERTEX
  8
0
 10
178.82397
 20
-238.34911742857142
 30
0.0
  0
VERTEX
  8
0
 10
178.82397
 20
-233.3574999047619
 30
0.0
  0
VERTEX
  8
0
 10
178.82397
 20
-228.36588238095237
 30
0.0
  0
VERTEX
  8
0
 10
178.82397
 20
-223.37426485714286
 30
0.0
  0
VERTEX
  8
0
 10
178.82397
 20
-218.38264733333332
 30
0.0
  0
VERTEX
  8
0
 10
178.82397
 20
-213.39102980952381
 30
0.0
  0
VERTEX
  8
0
 10
178.82397
 20
-208.39941228571428
 30
0.0
  0
VERTEX
  8
0
 10
178.82397
 20
-203.40779476190477
 30
0.0
  0
VERTEX
  8
0
 10
178.82397
 20
-198.41617723809523
 30
0.0
  0
VERTEX
  8
0
 10
178.82397
 20
-193.4245597142857
 30
0.0
  0
VERTEX
  8
0
 10
178.82397
 20
-188.43294219047618
 30
0.0
  0
VERTEX
  8
0
 10
178.82397
 20
-183.44132466666667
 30
0.0
  0
VERTEX
  8
0
 10
178.82397
 20
-178.44970714285714
 30
0.0
  0
VERTEX
  8
0
 10
178.82397
 20
-173.4580896190476
 30
0.0
  0
VERTEX
  8
0
 10
178.82397
 20
-168.4664720952381
 30
0.0
  0
VERTEX
  8
0
 10
178.82397
 20
-163.47485457142858
 30
0.0
  0
VERTEX
  8
0
 10
178.82397
 20
-158.48323704761904
 30
0.0
  0
VERTEX
  8
0
 10
178.82397
 20
-153.4916195238095
 30
0.0
  0
VERTEX
  8
0
 10
178.82397
 20
-148.500002
 30
0.0
  0
VERTEX
  8
0
 10
178.82397
 20
-143.50838447619049
 30
0.0
  0
VERTEX
  8
0
 10
178.82397
 20
-138.51676695238098
 30
0.0
  0
VERTEX
  8
0
 10
178.82397
 20
-133.5251494285714
 30
0.0
  0
VERTEX
  8
0
 10
178.82397
 20
-128.53353190476187
 30
0.0
  0
VERTEX
  8
0
 10
178.82397
 20
-123.54191438095236
 30
0.0
  0
VERTEX
  8
0
 10
178.82397
 20
-118.55029685714285
 30
0.0
  0
VERTEX
  8
0
 10
178.82397
 20
-113.55867933333332
 30
0.0
  0
VERTEX
  8
0
 10
178.82397
 20
-108.5670618095238
 30
0.0
  0
VERTEX
  8
0
 10
178.82397
 20
-103.57544428571427
 30
0.0
  0
VERTEX
  8
0
 10
178.82397
 20
-98.58382676190476
 30
0.0
  0
VERTEX
  8
0
 10
178.82397
 20
-93.59220923809522
 30
0.0
  0
VERTEX
  8
0
 10
178.82397
 20
-88.60059171428568
 30
0.0
  0
VERTEX
  8
0
 10
178.82397
 20
-83.60897419047618
 30
0.0
  0
VERTEX
  8
0
 10
178.82397
 20
-78.61735666666664
 30
0.0
  0
VERTEX
  8
0
 10
178.82397
 20
-73.62573914285713
 30
0.0
  0
VERTEX
  8
0
 10
178.82397
 20
-68.63412161904759
 30
0.0
  0
VERTEX
  8
0
 10
178.82397
 20
-63.64250409523808
 30
0.0
  0
VERTEX
  8
0
 10
178.82397
 20
-58.65088657142854
 30
0.0
  0
VERTEX
  8
0
 10
178.82397
 20
-53.659269047619034
 30
0.0
  0
VERTEX
  8
0
 10
178.82397
 20
-48.667651523809496
 30
0.0
  0
VERTEX
  8
0
 10
178.82397
 20
-43.676034
 30
0.0
  0
VERTEX
  8
0
 10
173.90237216666668
 20
-43.676034
 30
0.0
  0
VERTEX
  8
0
 10
168.98077433333333
 20
-43.676034
 30
0.0
  0
VERTEX
  8
0
 10
164.0591765
 20
-43.676034
 30
0.0
  0
VERTEX
  8
0
 10
159.13757866666666
 20
-43.676034
 30
0.0
  0
VERTEX
  8
0
 10
154.21598083333333
 20
-43.676034
 30
0.0
  0
VERTEX
  8
0
 10
149.29438299999998
 20
-43.676034
 30
0.0
  0
VERTEX
  8
0
 10
144.37278516666666
 20
-43.676034
 30
0.0
  0
VERTEX
  8
0
 10
139.45118733333334
 20
-43.676034
 30
0.0
  0
VERTEX
  8
0
 10
134.5295895
 20
-43.676034
 30
0.0
  0
VERTEX
  8
0
 10
129.60799166666666
 20
-43.676034
 30
0.0
  0
VERTEX
  8
0
 10
124.68639383333333
 20
-43.676034
 30
0.0
  0
VERTEX
  8
0
 10
119.76479599999999
 20
-43.676034
 30
0.0
  0
VERTEX
  8
0
 10
114.84319816666667
 20
-43.676034
 30
0.0
  0
VERTEX
  8
0
 10
109.92160033333333
 20
-43.676034
 30
0.0
  0
VERTEX
  8
0
 10
105.0000025
 20
-43.676034
 30
0.0
  0
VERTEX
  8
0
 10
100.07840466666666
 20
-43.676034
 30
0.0
  0
VERTEX
  8
0
 10
95.15680683333333
 20
-43.676034
 30
0.0
  0
VERTEX
  8
0
 10
90.23520899999998
 20
-43.676034
 30
0.0
  0
VERTEX
  8
0
 10
85.31361116666666
 20
-43.676034
 30
0.0
  0
VERTEX
  8
0
 10
80.39201333333332
 20
-43.676034
 30
0.0
  0
VERTEX
  8
0
 10
75.47041549999999
 20
-43.676034
 30
0.0
  0
VERTEX
  8
0
 10
70.54881766666665
 20
-43.676034
 30
0.0
  0
VERTEX
  8
0
 10
65.62721983333331
 20
-43.676034
 30
0.0
  0
VERTEX
  8
0
 10
60.70562199999998
 20
-43.676034
 30
0.0
  0
VERTEX
  8
0
 10
55.784024166666654
 20
-43.676034
 30
0.0
  0
VERTEX
  8
0
 10
50.86242633333332
 20
-43.676034
 30
0.0
  0
VERTEX
  8
0
 10
45.94082849999998
 20
-43.676034
 30
0.0
  0
VERTEX
  8
0
 10
41.01923066666666
 20
-43.676034
 30
0.0
  0
VERTEX
  8
0
 10
36.09763283333331
 20
-43.676034
 30
0.0
  0
VERTEX
  8
0
 10
31.176035
 20
-43.676034
 30
0.0
  0
VERTEX
  8
0
 10
31.176035
 20
-48.667651523809525
 30
0.0
  0
VERTEX
  8
0
 10
31.176035
 20
-53.65926904761905
 30
0.0
  0
VERTEX
  8
0
 10
31.176035
 20
-58.65088657142857
 30
0.0
  0
VERTEX
  8
0
 10
31.176035
 20
-63.642504095238095
 30
0.0
  0
VERTEX
  8
0
 10
31.176035
 20
-68.63412161904762
 30
0.0
  0
VERTEX
  8
0
 10
31.176035
 20
-73.62573914285716
 30
0.0
  0
VERTEX
  8
0
 10
31.176035
 20
-78.61735666666667
 30
0.0
  0
VERTEX
  8
0
 10
31.176035
 20
-83.6089741904762
 30
0.0
  0
VERTEX
  8
0
 10
31.176035
 20
-88.60059171428571
 30
0.0
  0
VERTEX
  8
0
 10
31.176035
 20
-93.59220923809525
 30
0.0
  0
VERTEX
  8
0
 10
31.176035
 20
-98.58382676190476
 30
0.0
  0
VERTEX
  8
0
 10
31.176035
 20
-103.5754442857143
 30
0.0
  0
VERTEX
  8
0
 10
31.176035
 20
-108.56706180952382
 30
0.0
  0
VERTEX
  8
0
 10
31.176035
 20
-113.55867933333334
 30
0.0
  0
VERTEX
  8
0
 10
31.176035
 20
-118.55029685714287
 30
0.0
  0
VERTEX
  8
0
 10
31.176035
 20
-123.54191438095239
 30
0.0
  0
VERTEX
  8
0
 10
31.176035
 20
-128.5335319047619
 30
0.0
  0
VERTEX
  8
0
 10
31.176035
 20
-133.52514942857144
 30
0.0
  0
VERTEX
  8
0
 10
31.176035
 20
-138.51676695238098
 30
0.0
  0
VERTEX
  8
0
 10
31.176035
 20
-143.50838447619049
 30
0.0
  0
VERTEX
  8
0
 10
31.176035
 20
-148.500002
 30
0.0
  0
VERTEX
  8
0
 10
31.176035
 20
-153.49161952380953
 30
0.0
  0
VERTEX
  8
0
 10
31.176035
 20
-158.48323704761904
 30
0.0
  0
VERTEX
  8
0
 10
31.176035
 20
-163.47485457142858
 30
0.0
  0
VERTEX
  8
0
 10
31.176035
 20
-168.46647209523815
 30
0.0
  0
VERTEX
  8
0
 10
31.176035
 20
-173.45808961904766
 30
0.0
  0
VERTEX
  8
0
 10
31.176035
 20
-178.44970714285716
 30
0.0
  0
VERTEX
  8
0
 10
31.176035
 20
-183.44132466666667
 30
0.0
  0
VERTEX
  8
0
 10
31.176035
 20
-188.43294219047618
 30
0.0
  0
VERTEX
  8
0
 10
31.176035
 20
-193.42455971428575
 30
0.0
  0
VERTEX
  8
0
 10
31.176035
 20
-198.41617723809526
 30
0.0
  0
VERTEX
  8
0
 10
31.176035
 20
-203.40779476190477
 30
0.0
  0
VERTEX
  8
0
 10
31.176035
 20
-208.39941228571433
 30
0.0
  0
VERTEX
  8
0
 10
31.176035
 20
-213.39102980952384
 30
0.0
  0
VERTEX
  8
0
 10
31.176035
 20
-218.38264733333335
 30
0.0
  0
VERTEX
  8
0
 10
31.176035
 20
-223.37426485714286
 30
0.0
  0
VERTEX
  8
0
 10
31.176035
 20
-228.36588238095243
 30
0.0
  0
VERTEX
  8
0
 10
31.176035
 20
-233.35749990476194
 30
0.0
  0
VERTEX
  8
0
 10
31.176035
 20
-238.34911742857145
 30
0.0
  0
VERTEX
  8
0
 10
31.176035
 20
-243.34073495238096
 30
0.0
  0
VERTEX
  8
0
 10
31.176035
 20
-248.33235247619052
 30
0.0
  0
SEQEND
  8
0
  0
ENDSEC
  0
EOF
