  0
SECTION
  2
HEADER
  9
$ACADVER
  1
AC1014
  9
$HANDSEED
  5
FFFF
  9
$MEASUREMENT
 70
     1
  0
ENDSEC
  0
SECTION
  2
TABLES
  0
TABLE
  2
VPORT
  5
8
330
0
100
AcDbSymbolTable
 70
     4
  0
VPORT
  5
2E
330
8
100
AcDbSymbolTableRecord
100
AcDbViewportTableRecord
  2
*ACTIVE
 70
     0
 10
0.0
 20
0.0
 11
1.0
 21
1.0
 12
210.0
 22
148.5
 13
0.0
 23
0.0
 14
10.0
 24
10.0
 15
10.0
 25
10.0
 16
0.0
 26
0.0
 36
1.0
 17
0.0
 27
0.0
 37
0.0
 40
341.0
 41
1.24
 42
50.0
 43
0.0
 44
0.0
 50
0.0
 51
0.0
 71
     0
 72
   100
 73
     1
 74
     3
 75
     0
 76
     0
 77
     0
 78
     0
  0
ENDTAB
  0
TABLE
  2
LTYPE
  5
5
330
0
100
AcDbSymbolTable
 70
     1
  0
LTYPE
  5
14
330
5
100
AcDbSymbolTableRecord
100
AcDbLinetypeTableRecord
  2
BYBLOCK
 70
     0
  3

 72
    65
 73
     0
 40
0.0
  0
LTYPE
  5
15
330
5
100
AcDbSymbolTableRecord
100
AcDbLinetypeTableRecord
  2
BYLAYER
 70
     0
  3

 72
    65
 73
     0
 40
0.0
  0
LTYPE
  5
16
330
5
100
AcDbSymbolTableRecord
100
AcDbLinetypeTableRecord
  2
CONTINUOUS
 70
     0
  3
Solid line
 72
    65
 73
     0
 40
0.0
  0
ENDTAB
  0
TABLE
  2
LAYER
  5
2
100
AcDbSymbolTable
 70
2
  0
LAYER
  5
50
100
AcDbSymbolTableRecord
100
AcDbLayerTableRecord
  2
0
 70
0
  6
CONTINUOUS
  0
LAYER
  5
51
100
AcDbSymbolTableRecord
100
AcDbLayerTableRecord
  2
Ebene_1
 70
0
  6
CONTINUOUS
  0
ENDTAB
  0
TABLE
  2
STYLE
  5
3
330
0
100
AcDbSymbolTable
 70
     1
  0
STYLE
  5
11
330
3
100
AcDbSymbolTableRecord
100
AcDbTextStyleTableRecord
  2
STANDARD
 70
     0
 40
0.0
 41
1.0
 50
0.0
 71
     0
 42
2.5
  3
txt
  4

  0
ENDTAB
  0
TABLE
  2
VIEW
  5
6
330
0
100
AcDbSymbolTable
 70
     0
  0
ENDTAB
  0
TABLE
  2
UCS
  5
7
330
0
100
AcDbSymbolTable
 70
     0
  0
ENDTAB
  0
TABLE
  2
APPID
  5
9
330
0
100
AcDbSymbolTable
 70
     2
  0
APPID
  5
12
330
9
100
AcDbSymbolTableRecord
100
AcDbRegAppTableRecord
  2
ACAD
 70
     0
  0
ENDTAB
  0
TABLE
  2
DIMSTYLE
  5
A
330
0
100
AcDbSymbolTable
 70
     1
  0
DIMSTYLE
105
27
330
A
100
AcDbSymbolTableRecord
100
AcDbDimStyleTableRecord
  2
ISO-25
 70
     0
  3

  4

  5

  6

  7

 40
1.0
 41
2.5
 42
0.625
 43
3.75
 44
1.25
 45
0.0
 46
0.0
 47
0.0
 48
0.0
140
2.5
141
2.5
142
0.0
143
0.03937007874016
144
1.0
145
0.0
146
1.0
147
0.625
 71
     0
 72
     0
 73
     0
 74
     0
 75
     0
 76
     0
 77
     1
 78
     8
170
     0
171
     3
172
     1
173
     0
174
     0
175
     0
176
     0
177
     0
178
     0
270
     2
271
     2
272
     2
273
     2
274
     3
340
11
275
     0
280
     0
281
     0
282
     0
283
     0
284
     8
285
     0
286
     0
287
     3
288
     0
  0
ENDTAB
  0
TABLE
  2
BLOCK_RECORD
  5
1
330
0
100
AcDbSymbolTable
 70
     1
  0
BLOCK_RECORD
  5
1F
330
1
100
AcDbSymbolTableRecord
100
AcDbBlockTableRecord
  2
*MODEL_SPACE
  0
BLOCK_RECORD
  5
1B
330
1
100
AcDbSymbolTableRecord
100
AcDbBlockTableRecord
  2
*PAPER_SPACE
  0
ENDTAB
  0
ENDSEC
  0
SECTION
  2
BLOCKS
  0
BLOCK
  5
20
330
1F
100
AcDbEntity
  8
0
100
AcDbBlockBegin
  2
*MODEL_SPACE
 70
     0
 10
0.0
 20
0.0
 30
0.0
  3
*MODEL_SPACE
  1

  0
ENDBLK
  5
21
330
1F
100
AcDbEntity
  8
0
100
AcDbBlockEnd
  0
BLOCK
  5
1C
330
1B
100
AcDbEntity
 67
     1
  8
0
100
AcDbBlockBegin
  2
*PAPER_SPACE
  1

  0
ENDBLK
  5
1D
330
1B
100
AcDbEntity
 67
     1
  8
0
100
AcDbBlockEnd
  0
ENDSEC
  0
SECTION
  2
ENTITIES
  0
SPLINE
  5
100
100
AcDbEntity
  8
Ebene_1
 62
7
100
AcDbSpline
 70
8
 71
3
 72
8
 73
4
 74
0
 40
0
 40
0
 40
0
 40
0
 40
1
 40
1
 40
1
 40
1
 10
101.799341
 20
143.862846
 30
0.0
 10
101.851581
 20
143.854592
 30
0.0
 10
101.884576
 20
143.840834
 30
0.0
 10
101.903822
 20
143.818823
 30
0.0
  0
SPLINE
  5
101
100
AcDbEntity
  8
Ebene_1
 62
7
100
AcDbSpline
 70
8
 71
3
 72
8
 73
4
 74
0
 40
0
 40
0
 40
0
 40
0
 40
1
 40
1
 40
1
 40
1
 10
101.903822
 20
143.818823
 30
0.0
 10
101.925819
 20
143.799562
 30
0.0
 10
101.936817
 20
143.769296
 30
0.0
 10
101.936817
 20
143.725273
 30
0.0
  0
SPLINE
  5
102
100
AcDbEntity
  8
Ebene_1
 62
7
100
AcDbSpline
 70
8
 71
3
 72
8
 73
4
 74
0
 40
0
 40
0
 40
0
 40
0
 40
1
 40
1
 40
1
 40
1
 10
101.936817
 20
143.725273
 30
0.0
 10
101.936817
 20
143.677122
 30
0.0
 10
101.921694
 20
143.639977
 30
0.0
 10
101.892824
 20
143.615214
 30
0.0
  0
SPLINE
  5
103
100
AcDbEntity
  8
Ebene_1
 62
7
100
AcDbSpline
 70
8
 71
3
 72
8
 73
4
 74
0
 40
0
 40
0
 40
0
 40
0
 40
1
 40
1
 40
1
 40
1
 10
101.892824
 20
143.615214
 30
0.0
 10
101.866704
 20
143.593202
 30
0.0
 10
101.824086
 20
143.579445
 30
0.0
 10
101.760847
 20
143.576694
 30
0.0
  0
LWPOLYLINE
  5
104
100
AcDbEntity
  8
Ebene_1
 62
6
100
AcDbPolyline
 90
4
 70
1
 10
31.176035
 20
43.676030
 30
0.0
 10
178.823970
 20
43.676030
 30
0.0
 10
178.823970
 20
253.323966
 30
0.0
 10
31.176035
 20
253.323966
 30
0.0
  0
SPLINE
  5
105
100
AcDbEntity
  8
Ebene_1
 62
7
100
AcDbSpline
 70
8
 71
3
 72
8
 73
4
 74
0
 40
0
 40
0
 40
0
 40
0
 40
1
 40
1
 40
1
 40
1
 10
101.326423
 20
143.554682
 30
0.0
 10
101.271432
 20
143.554682
 30
0.0
 10
101.232939
 20
143.562936
 30
0.0
 10
101.210943
 20
143.582197
 30
0.0
  0
SPLINE
  5
106
100
AcDbEntity
  8
Ebene_1
 62
7
100
AcDbSpline
 70
8
 71
3
 72
8
 73
4
 74
0
 40
0
 40
0
 40
0
 40
0
 40
1
 40
1
 40
1
 40
1
 10
101.210943
 20
143.582197
 30
0.0
 10
101.188947
 20
143.604208
 30
0.0
 10
101.177948
 20
143.639977
 30
0.0
 10
101.177948
 20
143.692255
 30
0.0
  0
SPLINE
  5
107
100
AcDbEntity
  8
Ebene_1
 62
7
100
AcDbSpline
 70
8
 71
3
 72
8
 73
4
 74
0
 40
0
 40
0
 40
0
 40
0
 40
1
 40
1
 40
1
 40
1
 10
101.177948
 20
143.692255
 30
0.0
 10
101.177948
 20
143.758290
 30
0.0
 10
101.227440
 20
143.807817
 30
0.0
 10
101.326423
 20
143.840834
 30
0.0
  0
SPLINE
  5
108
100
AcDbEntity
  8
Ebene_1
 62
7
100
AcDbSpline
 70
8
 71
3
 72
8
 73
4
 74
0
 40
0
 40
0
 40
0
 40
0
 40
1
 40
1
 40
1
 40
1
 10
101.326423
 20
143.840834
 30
0.0
 10
101.374539
 20
143.851840
 30
0.0
 10
101.411658
 20
143.864222
 30
0.0
 10
101.436404
 20
143.879355
 30
0.0
  0
SPLINE
  5
109
100
AcDbEntity
  8
Ebene_1
 62
7
100
AcDbSpline
 70
8
 71
3
 72
8
 73
4
 74
0
 40
0
 40
0
 40
0
 40
0
 40
1
 40
1
 40
1
 40
1
 10
101.436404
 20
143.879355
 30
0.0
 10
101.517515
 20
143.919251
 30
0.0
 10
101.579379
 20
143.981159
 30
0.0
 10
101.623371
 20
144.066454
 30
0.0
  0
SPLINE
  5
10a
100
AcDbEntity
  8
Ebene_1
 62
7
100
AcDbSpline
 70
8
 71
3
 72
8
 73
4
 74
0
 40
0
 40
0
 40
0
 40
0
 40
1
 40
1
 40
1
 40
1
 10
101.623371
 20
144.066454
 30
0.0
 10
101.667363
 20
144.154501
 30
0.0
 10
101.689360
 20
144.259057
 30
0.0
 10
101.689360
 20
144.380122
 30
0.0
  0
SPLINE
  5
10b
100
AcDbEntity
  8
Ebene_1
 62
7
100
AcDbSpline
 70
8
 71
3
 72
8
 73
4
 74
0
 40
0
 40
0
 40
0
 40
0
 40
1
 40
1
 40
1
 40
1
 10
101.689360
 20
144.380122
 30
0.0
 10
101.689360
 20
144.525949
 30
0.0
 10
101.654991
 20
144.645638
 30
0.0
 10
101.584878
 20
144.737812
 30
0.0
  0
SPLINE
  5
10c
100
AcDbEntity
  8
Ebene_1
 62
7
100
AcDbSpline
 70
8
 71
3
 72
8
 73
4
 74
0
 40
0
 40
0
 40
0
 40
0
 40
1
 40
1
 40
1
 40
1
 10
101.584878
 20
144.737812
 30
0.0
 10
101.516140
 20
144.828610
 30
0.0
 10
101.425405
 20
144.875385
 30
0.0
 10
101.315425
 20
144.875385
 30
0.0
  0
SPLINE
  5
10d
100
AcDbEntity
  8
Ebene_1
 62
7
100
AcDbSpline
 70
8
 71
3
 72
8
 73
4
 74
0
 40
0
 40
0
 40
0
 40
0
 40
1
 40
1
 40
1
 40
1
 10
101.315425
 20
144.875385
 30
0.0
 10
101.224690
 20
144.875385
 30
0.0
 10
101.150453
 20
144.845119
 30
0.0
 10
101.095463
 20
144.787338
 30
0.0
  0
SPLINE
  5
10e
100
AcDbEntity
  8
Ebene_1
 62
7
100
AcDbSpline
 70
8
 71
3
 72
8
 73
4
 74
0
 40
0
 40
0
 40
0
 40
0
 40
1
 40
1
 40
1
 40
1
 10
101.095463
 20
144.787338
 30
0.0
 10
101.040472
 20
144.732309
 30
0.0
 10
101.006103
 20
144.651141
 30
0.0
 10
100.990981
 20
144.545209
 30
0.0
  0
LWPOLYLINE
  5
10f
100
AcDbEntity
  8
Ebene_1
 62
7
100
AcDbPolyline
 90
3
 70
0
 10
101.760847
 20
143.576694
 30
0.0
 10
101.359417
 20
143.554682
 30
0.0
 10
101.326423
 20
143.554682
 30
0.0
  0
SPLINE
  5
110
100
AcDbEntity
  8
Ebene_1
 62
7
100
AcDbSpline
 70
8
 71
3
 72
8
 73
4
 74
0
 40
0
 40
0
 40
0
 40
0
 40
1
 40
1
 40
1
 40
1
 10
100.957987
 20
144.286572
 30
0.0
 10
100.924992
 20
144.051321
 30
0.0
 10
100.863128
 20
143.879355
 30
0.0
 10
100.771019
 20
143.769296
 30
0.0
  0
SPLINE
  5
111
100
AcDbEntity
  8
Ebene_1
 62
7
100
AcDbSpline
 70
8
 71
3
 72
8
 73
4
 74
0
 40
0
 40
0
 40
0
 40
0
 40
1
 40
1
 40
1
 40
1
 10
100.771019
 20
143.769296
 30
0.0
 10
100.680285
 20
143.659238
 30
0.0
 10
100.549683
 20
143.604208
 30
0.0
 10
100.380587
 20
143.604208
 30
0.0
  0
SPLINE
  5
112
100
AcDbEntity
  8
Ebene_1
 62
7
100
AcDbSpline
 70
8
 71
3
 72
8
 73
4
 74
0
 40
0
 40
0
 40
0
 40
0
 40
1
 40
1
 40
1
 40
1
 10
100.380587
 20
143.604208
 30
0.0
 10
100.204618
 20
143.604208
 30
0.0
 10
100.058893
 20
143.675746
 30
0.0
 10
99.940663
 20
143.818823
 30
0.0
  0
SPLINE
  5
113
100
AcDbEntity
  8
Ebene_1
 62
7
100
AcDbSpline
 70
8
 71
3
 72
8
 73
4
 74
0
 40
0
 40
0
 40
0
 40
0
 40
1
 40
1
 40
1
 40
1
 10
99.940663
 20
143.818823
 30
0.0
 10
99.819684
 20
143.964650
 30
0.0
 10
99.759195
 20
144.148998
 30
0.0
 10
99.759195
 20
144.369116
 30
0.0
  0
SPLINE
  5
114
100
AcDbEntity
  8
Ebene_1
 62
7
100
AcDbSpline
 70
8
 71
3
 72
8
 73
4
 74
0
 40
0
 40
0
 40
0
 40
0
 40
1
 40
1
 40
1
 40
1
 10
99.759195
 20
144.369116
 30
0.0
 10
99.759195
 20
144.431024
 30
0.0
 10
99.768818
 20
144.497059
 30
0.0
 10
99.786690
 20
144.567221
 30
0.0
  0
SPLINE
  5
115
100
AcDbEntity
  8
Ebene_1
 62
7
100
AcDbSpline
 70
8
 71
3
 72
8
 73
4
 74
0
 40
0
 40
0
 40
0
 40
0
 40
1
 40
1
 40
1
 40
1
 10
99.786690
 20
144.567221
 30
0.0
 10
99.801813
 20
144.636008
 30
0.0
 10
99.827933
 20
144.715800
 30
0.0
 10
99.863677
 20
144.803847
 30
0.0
  0
SPLINE
  5
116
100
AcDbEntity
  8
Ebene_1
 62
7
100
AcDbSpline
 70
8
 71
3
 72
8
 73
4
 74
0
 40
0
 40
0
 40
0
 40
0
 40
1
 40
1
 40
1
 40
1
 10
99.863677
 20
144.803847
 30
0.0
 10
99.830683
 20
144.806598
 30
0.0
 10
99.808686
 20
144.816229
 30
0.0
 10
99.797688
 20
144.831362
 30
0.0
  0
SPLINE
  5
117
100
AcDbEntity
  8
Ebene_1
 62
7
100
AcDbSpline
 70
8
 71
3
 72
8
 73
4
 74
0
 40
0
 40
0
 40
0
 40
0
 40
1
 40
1
 40
1
 40
1
 10
99.797688
 20
144.831362
 30
0.0
 10
99.783940
 20
144.845119
 30
0.0
 10
99.775692
 20
144.872634
 30
0.0
 10
99.775692
 20
144.913906
 30
0.0
  0
SPLINE
  5
118
100
AcDbEntity
  8
Ebene_1
 62
7
100
AcDbSpline
 70
8
 71
3
 72
8
 73
4
 74
0
 40
0
 40
0
 40
0
 40
0
 40
1
 40
1
 40
1
 40
1
 10
99.775692
 20
144.913906
 30
0.0
 10
99.775692
 20
144.964808
 30
0.0
 10
99.783940
 20
144.999201
 30
0.0
 10
99.797688
 20
145.018461
 30
0.0
  0
SPLINE
  5
119
100
AcDbEntity
  8
Ebene_1
 62
7
100
AcDbSpline
 70
8
 71
3
 72
8
 73
4
 74
0
 40
0
 40
0
 40
0
 40
0
 40
1
 40
1
 40
1
 40
1
 10
99.797688
 20
145.018461
 30
0.0
 10
99.812811
 20
145.036346
 30
0.0
 10
99.849929
 20
145.048727
 30
0.0
 10
99.907669
 20
145.056982
 30
0.0
  0
LWPOLYLINE
  5
11a
100
AcDbEntity
  8
Ebene_1
 62
7
100
AcDbPolyline
 90
2
 70
0
 10
100.990981
 20
144.545209
 30
0.0
 10
100.957987
 20
144.286572
 30
0.0
  0
SPLINE
  5
11b
100
AcDbEntity
  8
Ebene_1
 62
7
100
AcDbSpline
 70
8
 71
3
 72
8
 73
4
 74
0
 40
0
 40
0
 40
0
 40
0
 40
1
 40
1
 40
1
 40
1
 10
100.281604
 20
145.078994
 30
0.0
 10
100.322847
 20
145.078994
 30
0.0
 10
100.353092
 20
145.065237
 30
0.0
 10
100.375088
 20
145.040473
 30
0.0
  0
SPLINE
  5
11c
100
AcDbEntity
  8
Ebene_1
 62
7
100
AcDbSpline
 70
8
 71
3
 72
8
 73
4
 74
0
 40
0
 40
0
 40
0
 40
0
 40
1
 40
1
 40
1
 40
1
 10
100.375088
 20
145.040473
 30
0.0
 10
100.397084
 20
145.018461
 30
0.0
 10
100.408082
 20
144.986820
 30
0.0
 10
100.408082
 20
144.946923
 30
0.0
  0
SPLINE
  5
11d
100
AcDbEntity
  8
Ebene_1
 62
7
100
AcDbSpline
 70
8
 71
3
 72
8
 73
4
 74
0
 40
0
 40
0
 40
0
 40
0
 40
1
 40
1
 40
1
 40
1
 10
100.408082
 20
144.946923
 30
0.0
 10
100.408082
 20
144.887767
 30
0.0
 10
100.366839
 20
144.842368
 30
0.0
 10
100.281604
 20
144.809350
 30
0.0
  0
SPLINE
  5
11e
100
AcDbEntity
  8
Ebene_1
 62
7
100
AcDbSpline
 70
8
 71
3
 72
8
 73
4
 74
0
 40
0
 40
0
 40
0
 40
0
 40
1
 40
1
 40
1
 40
1
 10
100.281604
 20
144.809350
 30
0.0
 10
100.234862
 20
144.790090
 30
0.0
 10
100.197744
 20
144.773581
 30
0.0
 10
100.171623
 20
144.759824
 30
0.0
  0
SPLINE
  5
11f
100
AcDbEntity
  8
Ebene_1
 62
7
100
AcDbSpline
 70
8
 71
3
 72
8
 73
4
 74
0
 40
0
 40
0
 40
0
 40
0
 40
1
 40
1
 40
1
 40
1
 10
100.171623
 20
144.759824
 30
0.0
 10
100.116633
 20
144.718552
 30
0.0
 10
100.075390
 20
144.663522
 30
0.0
 10
100.045145
 20
144.594736
 30
0.0
  0
SPLINE
  5
120
100
AcDbEntity
  8
Ebene_1
 62
7
100
AcDbSpline
 70
8
 71
3
 72
8
 73
4
 74
0
 40
0
 40
0
 40
0
 40
0
 40
1
 40
1
 40
1
 40
1
 10
100.045145
 20
144.594736
 30
0.0
 10
100.012151
 20
144.524573
 30
0.0
 10
99.995654
 20
144.443405
 30
0.0
 10
99.995654
 20
144.352607
 30
0.0
  0
SPLINE
  5
121
100
AcDbEntity
  8
Ebene_1
 62
7
100
AcDbSpline
 70
8
 71
3
 72
8
 73
4
 74
0
 40
0
 40
0
 40
0
 40
0
 40
1
 40
1
 40
1
 40
1
 10
99.995654
 20
144.352607
 30
0.0
 10
99.995654
 20
144.212282
 30
0.0
 10
100.031398
 20
144.099472
 30
0.0
 10
100.100136
 20
144.011425
 30
0.0
  0
SPLINE
  5
122
100
AcDbEntity
  8
Ebene_1
 62
7
100
AcDbSpline
 70
8
 71
3
 72
8
 73
4
 74
0
 40
0
 40
0
 40
0
 40
0
 40
1
 40
1
 40
1
 40
1
 10
100.100136
 20
144.011425
 30
0.0
 10
100.166124
 20
143.926130
 30
0.0
 10
100.256858
 20
143.884858
 30
0.0
 10
100.369589
 20
143.884858
 30
0.0
  0
SPLINE
  5
123
100
AcDbEntity
  8
Ebene_1
 62
7
100
AcDbSpline
 70
8
 71
3
 72
8
 73
4
 74
0
 40
0
 40
0
 40
0
 40
0
 40
1
 40
1
 40
1
 40
1
 10
100.369589
 20
143.884858
 30
0.0
 10
100.454824
 20
143.884858
 30
0.0
 10
100.522187
 20
143.915124
 30
0.0
 10
100.573054
 20
143.978408
 30
0.0
  0
SPLINE
  5
124
100
AcDbEntity
  8
Ebene_1
 62
7
100
AcDbSpline
 70
8
 71
3
 72
8
 73
4
 74
0
 40
0
 40
0
 40
0
 40
0
 40
1
 40
1
 40
1
 40
1
 10
100.573054
 20
143.978408
 30
0.0
 10
100.625295
 20
144.044443
 30
0.0
 10
100.659664
 20
144.144871
 30
0.0
 10
100.677535
 20
144.281069
 30
0.0
  0
LWPOLYLINE
  5
125
100
AcDbEntity
  8
Ebene_1
 62
7
100
AcDbPolyline
 90
3
 70
0
 10
99.907669
 20
145.056982
 30
0.0
 10
100.265107
 20
145.078994
 30
0.0
 10
100.281604
 20
145.078994
 30
0.0
  0
SPLINE
  5
126
100
AcDbEntity
  8
Ebene_1
 62
7
100
AcDbSpline
 70
8
 71
3
 72
8
 73
4
 74
0
 40
0
 40
0
 40
0
 40
0
 40
1
 40
1
 40
1
 40
1
 10
100.710530
 20
144.556215
 30
0.0
 10
100.736650
 20
144.754321
 30
0.0
 10
100.798514
 20
144.902900
 30
0.0
 10
100.897497
 20
145.001953
 30
0.0
  0
SPLINE
  5
127
100
AcDbEntity
  8
Ebene_1
 62
7
100
AcDbSpline
 70
8
 71
3
 72
8
 73
4
 74
0
 40
0
 40
0
 40
0
 40
0
 40
1
 40
1
 40
1
 40
1
 10
100.897497
 20
145.001953
 30
0.0
 10
100.993730
 20
145.103757
 30
0.0
 10
101.121583
 20
145.156035
 30
0.0
 10
101.282430
 20
145.156035
 30
0.0
  0
SPLINE
  5
128
100
AcDbEntity
  8
Ebene_1
 62
7
100
AcDbSpline
 70
8
 71
3
 72
8
 73
4
 74
0
 40
0
 40
0
 40
0
 40
0
 40
1
 40
1
 40
1
 40
1
 10
101.282430
 20
145.156035
 30
0.0
 10
101.473522
 20
145.156035
 30
0.0
 10
101.627495
 20
145.084497
 30
0.0
 10
101.744350
 20
144.941420
 30
0.0
  0
SPLINE
  5
129
100
AcDbEntity
  8
Ebene_1
 62
7
100
AcDbSpline
 70
8
 71
3
 72
8
 73
4
 74
0
 40
0
 40
0
 40
0
 40
0
 40
1
 40
1
 40
1
 40
1
 10
101.744350
 20
144.941420
 30
0.0
 10
101.861205
 20
144.798344
 30
0.0
 10
101.920319
 20
144.607117
 30
0.0
 10
101.920319
 20
144.369116
 30
0.0
  0
SPLINE
  5
12a
100
AcDbEntity
  8
Ebene_1
 62
7
100
AcDbSpline
 70
8
 71
3
 72
8
 73
4
 74
0
 40
0
 40
0
 40
0
 40
0
 40
1
 40
1
 40
1
 40
1
 10
101.920319
 20
144.369116
 30
0.0
 10
101.920319
 20
144.283820
 30
0.0
 10
101.909321
 20
144.201276
 30
0.0
 10
101.887325
 20
144.121484
 30
0.0
  0
SPLINE
  5
12b
100
AcDbEntity
  8
Ebene_1
 62
7
100
AcDbSpline
 70
8
 71
3
 72
8
 73
4
 74
0
 40
0
 40
0
 40
0
 40
0
 40
1
 40
1
 40
1
 40
1
 10
101.887325
 20
144.121484
 30
0.0
 10
101.868079
 20
144.040315
 30
0.0
 10
101.840583
 20
143.953645
 30
0.0
 10
101.799341
 20
143.862846
 30
0.0
  0
LWPOLYLINE
  5
12c
100
AcDbEntity
  8
Ebene_1
 62
7
100
AcDbPolyline
 90
2
 70
0
 10
100.677535
 20
144.281069
 30
0.0
 10
100.710530
 20
144.556215
 30
0.0
  0
LWPOLYLINE
  5
12d
100
AcDbEntity
  8
Ebene_1
 62
7
100
AcDbPolyline
 90
1
 70
1
 10
101.799341
 20
143.862846
 30
0.0
  0
SPLINE
  5
12e
100
AcDbEntity
  8
Ebene_1
 62
7
100
AcDbSpline
 70
8
 71
3
 72
8
 73
4
 74
0
 40
0
 40
0
 40
0
 40
0
 40
1
 40
1
 40
1
 40
1
 10
99.858178
 20
145.794729
 30
0.0
 10
99.858178
 20
145.717688
 30
0.0
 10
99.849929
 20
145.664035
 30
0.0
 10
99.830683
 20
145.635144
 30
0.0
  0
SPLINE
  5
12f
100
AcDbEntity
  8
Ebene_1
 62
7
100
AcDbSpline
 70
8
 71
3
 72
8
 73
4
 74
0
 40
0
 40
0
 40
0
 40
0
 40
1
 40
1
 40
1
 40
1
 10
99.830683
 20
145.635144
 30
0.0
 10
99.812811
 20
145.604878
 30
0.0
 10
99.779816
 20
145.591121
 30
0.0
 10
99.731700
 20
145.591121
 30
0.0
  0
SPLINE
  5
130
100
AcDbEntity
  8
Ebene_1
 62
7
100
AcDbSpline
 70
8
 71
3
 72
8
 73
4
 74
0
 40
0
 40
0
 40
0
 40
0
 40
1
 40
1
 40
1
 40
1
 10
99.731700
 20
145.591121
 30
0.0
 10
99.691832
 20
145.591121
 30
0.0
 10
99.662961
 20
145.602127
 30
0.0
 10
99.643715
 20
145.624138
 30
0.0
  0
SPLINE
  5
131
100
AcDbEntity
  8
Ebene_1
 62
7
100
AcDbSpline
 70
8
 71
3
 72
8
 73
4
 74
0
 40
0
 40
0
 40
0
 40
0
 40
1
 40
1
 40
1
 40
1
 10
99.643715
 20
145.624138
 30
0.0
 10
99.621719
 20
145.648902
 30
0.0
 10
99.610721
 20
145.684671
 30
0.0
 10
99.610721
 20
145.728694
 30
0.0
  0
LWPOLYLINE
  5
132
100
AcDbEntity
  8
Ebene_1
 62
7
100
AcDbPolyline
 90
3
 70
0
 10
101.617872
 20
145.827747
 30
0.0
 10
99.858178
 20
145.827747
 30
0.0
 10
99.858178
 20
145.794729
 30
0.0
  0
SPLINE
  5
133
100
AcDbEntity
  8
Ebene_1
 62
7
100
AcDbSpline
 70
8
 71
3
 72
8
 73
4
 74
0
 40
0
 40
0
 40
0
 40
0
 40
1
 40
1
 40
1
 40
1
 10
99.610721
 20
145.992835
 30
0.0
 10
99.610721
 20
146.021725
 30
0.0
 10
99.618969
 20
146.045113
 30
0.0
 10
99.632717
 20
146.064373
 30
0.0
  0
SPLINE
  5
134
100
AcDbEntity
  8
Ebene_1
 62
7
100
AcDbSpline
 70
8
 71
3
 72
8
 73
4
 74
0
 40
0
 40
0
 40
0
 40
0
 40
1
 40
1
 40
1
 40
1
 10
99.632717
 20
146.064373
 30
0.0
 10
99.643715
 20
146.082257
 30
0.0
 10
99.660212
 20
146.091888
 30
0.0
 10
99.682208
 20
146.091888
 30
0.0
  0
LWPOLYLINE
  5
135
100
AcDbEntity
  8
Ebene_1
 62
7
100
AcDbPolyline
 90
2
 70
0
 10
99.610721
 20
145.728694
 30
0.0
 10
99.610721
 20
145.992835
 30
0.0
  0
SPLINE
  5
136
100
AcDbEntity
  8
Ebene_1
 62
7
100
AcDbSpline
 70
8
 71
3
 72
8
 73
4
 74
0
 40
0
 40
0
 40
0
 40
0
 40
1
 40
1
 40
1
 40
1
 10
100.457574
 20
146.091888
 30
0.0
 10
100.380587
 20
146.171680
 30
0.0
 10
100.324222
 20
146.252848
 30
0.0
 10
100.287103
 20
146.334017
 30
0.0
  0
SPLINE
  5
137
100
AcDbEntity
  8
Ebene_1
 62
7
100
AcDbSpline
 70
8
 71
3
 72
8
 73
4
 74
0
 40
0
 40
0
 40
0
 40
0
 40
1
 40
1
 40
1
 40
1
 10
100.287103
 20
146.334017
 30
0.0
 10
100.251360
 20
146.417936
 30
0.0
 10
100.232113
 20
146.504607
 30
0.0
 10
100.232113
 20
146.592654
 30
0.0
  0
SPLINE
  5
138
100
AcDbEntity
  8
Ebene_1
 62
7
100
AcDbSpline
 70
8
 71
3
 72
8
 73
4
 74
0
 40
0
 40
0
 40
0
 40
0
 40
1
 40
1
 40
1
 40
1
 10
100.232113
 20
146.592654
 30
0.0
 10
100.232113
 20
146.764621
 30
0.0
 10
100.285729
 20
146.900818
 30
0.0
 10
100.391585
 20
146.999871
 30
0.0
  0
SPLINE
  5
139
100
AcDbEntity
  8
Ebene_1
 62
7
100
AcDbSpline
 70
8
 71
3
 72
8
 73
4
 74
0
 40
0
 40
0
 40
0
 40
0
 40
1
 40
1
 40
1
 40
1
 10
100.391585
 20
146.999871
 30
0.0
 10
100.498816
 20
147.098924
 30
0.0
 10
100.647291
 20
147.148450
 30
0.0
 10
100.837008
 20
147.148450
 30
0.0
  0
LWPOLYLINE
  5
13a
100
AcDbEntity
  8
Ebene_1
 62
7
100
AcDbPolyline
 90
2
 70
0
 10
99.682208
 20
146.091888
 30
0.0
 10
100.457574
 20
146.091888
 30
0.0
  0
SPLINE
  5
13b
100
AcDbEntity
  8
Ebene_1
 62
7
100
AcDbSpline
 70
8
 71
3
 72
8
 73
4
 74
0
 40
0
 40
0
 40
0
 40
0
 40
1
 40
1
 40
1
 40
1
 10
101.617872
 20
147.230994
 30
0.0
 10
101.617872
 20
147.288775
 30
0.0
 10
101.627495
 20
147.330047
 30
0.0
 10
101.645367
 20
147.352059
 30
0.0
  0
SPLINE
  5
13c
100
AcDbEntity
  8
Ebene_1
 62
7
100
AcDbSpline
 70
8
 71
3
 72
8
 73
4
 74
0
 40
0
 40
0
 40
0
 40
0
 40
1
 40
1
 40
1
 40
1
 10
101.645367
 20
147.352059
 30
0.0
 10
101.664614
 20
147.376822
 30
0.0
 10
101.693484
 20
147.390579
 30
0.0
 10
101.733352
 20
147.390579
 30
0.0
  0
SPLINE
  5
13d
100
AcDbEntity
  8
Ebene_1
 62
7
100
AcDbSpline
 70
8
 71
3
 72
8
 73
4
 74
0
 40
0
 40
0
 40
0
 40
0
 40
1
 40
1
 40
1
 40
1
 10
101.733352
 20
147.390579
 30
0.0
 10
101.777344
 20
147.390579
 30
0.0
 10
101.810339
 20
147.379573
 30
0.0
 10
101.832335
 20
147.357562
 30
0.0
  0
SPLINE
  5
13e
100
AcDbEntity
  8
Ebene_1
 62
7
100
AcDbSpline
 70
8
 71
3
 72
8
 73
4
 74
0
 40
0
 40
0
 40
0
 40
0
 40
1
 40
1
 40
1
 40
1
 10
101.832335
 20
147.357562
 30
0.0
 10
101.851581
 20
147.335550
 30
0.0
 10
101.859830
 20
147.299781
 30
0.0
 10
101.859830
 20
147.253006
 30
0.0
  0
LWPOLYLINE
  5
13f
100
AcDbEntity
  8
Ebene_1
 62
7
100
AcDbPolyline
 90
3
 70
0
 10
100.837008
 20
147.148450
 30
0.0
 10
101.617872
 20
147.148450
 30
0.0
 10
101.617872
 20
147.230994
 30
0.0
  0
SPLINE
  5
140
100
AcDbEntity
  8
Ebene_1
 62
7
100
AcDbSpline
 70
8
 71
3
 72
8
 73
4
 74
0
 40
0
 40
0
 40
0
 40
0
 40
1
 40
1
 40
1
 40
1
 10
101.859830
 20
146.796263
 30
0.0
 10
101.859830
 20
146.743985
 30
0.0
 10
101.851581
 20
146.708216
 30
0.0
 10
101.832335
 20
146.686204
 30
0.0
  0
SPLINE
  5
141
100
AcDbEntity
  8
Ebene_1
 62
7
100
AcDbSpline
 70
8
 71
3
 72
8
 73
4
 74
0
 40
0
 40
0
 40
0
 40
0
 40
1
 40
1
 40
1
 40
1
 10
101.832335
 20
146.686204
 30
0.0
 10
101.814463
 20
146.666944
 30
0.0
 10
101.781469
 20
146.658689
 30
0.0
 10
101.733352
 20
146.658689
 30
0.0
  0
SPLINE
  5
142
100
AcDbEntity
  8
Ebene_1
 62
7
100
AcDbSpline
 70
8
 71
3
 72
8
 73
4
 74
0
 40
0
 40
0
 40
0
 40
0
 40
1
 40
1
 40
1
 40
1
 10
101.733352
 20
146.658689
 30
0.0
 10
101.689360
 20
146.658689
 30
0.0
 10
101.660490
 20
146.669695
 30
0.0
 10
101.645367
 20
146.691707
 30
0.0
  0
SPLINE
  5
143
100
AcDbEntity
  8
Ebene_1
 62
7
100
AcDbSpline
 70
8
 71
3
 72
8
 73
4
 74
0
 40
0
 40
0
 40
0
 40
0
 40
1
 40
1
 40
1
 40
1
 10
101.645367
 20
146.691707
 30
0.0
 10
101.627495
 20
146.716470
 30
0.0
 10
101.617872
 20
146.763245
 30
0.0
 10
101.617872
 20
146.829280
 30
0.0
  0
LWPOLYLINE
  5
144
100
AcDbEntity
  8
Ebene_1
 62
7
100
AcDbPolyline
 90
2
 70
0
 10
101.859830
 20
147.253006
 30
0.0
 10
101.859830
 20
146.796263
 30
0.0
  0
SPLINE
  5
145
100
AcDbEntity
  8
Ebene_1
 62
7
100
AcDbSpline
 70
8
 71
3
 72
8
 73
4
 74
0
 40
0
 40
0
 40
0
 40
0
 40
1
 40
1
 40
1
 40
1
 10
100.902996
 20
146.889813
 30
0.0
 10
100.768270
 20
146.889813
 30
0.0
 10
100.665163
 20
146.858171
 30
0.0
 10
100.595050
 20
146.796263
 30
0.0
  0
SPLINE
  5
146
100
AcDbEntity
  8
Ebene_1
 62
7
100
AcDbSpline
 70
8
 71
3
 72
8
 73
4
 74
0
 40
0
 40
0
 40
0
 40
0
 40
1
 40
1
 40
1
 40
1
 10
100.595050
 20
146.796263
 30
0.0
 10
100.526312
 20
146.737106
 30
0.0
 10
100.490568
 20
146.649059
 30
0.0
 10
100.490568
 20
146.532122
 30
0.0
  0
SPLINE
  5
147
100
AcDbEntity
  8
Ebene_1
 62
7
100
AcDbSpline
 70
8
 71
3
 72
8
 73
4
 74
0
 40
0
 40
0
 40
0
 40
0
 40
1
 40
1
 40
1
 40
1
 10
100.490568
 20
146.532122
 30
0.0
 10
100.490568
 20
146.413809
 30
0.0
 10
100.531811
 20
146.312005
 30
0.0
 10
100.611547
 20
146.223958
 30
0.0
  0
SPLINE
  5
148
100
AcDbEntity
  8
Ebene_1
 62
7
100
AcDbSpline
 70
8
 71
3
 72
8
 73
4
 74
0
 40
0
 40
0
 40
0
 40
0
 40
1
 40
1
 40
1
 40
1
 10
100.611547
 20
146.223958
 30
0.0
 10
100.688533
 20
146.135911
 30
0.0
 10
100.786142
 20
146.091888
 30
0.0
 10
100.902996
 20
146.091888
 30
0.0
  0
LWPOLYLINE
  5
149
100
AcDbEntity
  8
Ebene_1
 62
7
100
AcDbPolyline
 90
3
 70
0
 10
101.617872
 20
146.829280
 30
0.0
 10
101.617872
 20
146.889813
 30
0.0
 10
100.902996
 20
146.889813
 30
0.0
  0
SPLINE
  5
14a
100
AcDbEntity
  8
Ebene_1
 62
7
100
AcDbSpline
 70
8
 71
3
 72
8
 73
4
 74
0
 40
0
 40
0
 40
0
 40
0
 40
1
 40
1
 40
1
 40
1
 10
101.617872
 20
146.152420
 30
0.0
 10
101.617872
 20
146.218455
 30
0.0
 10
101.627495
 20
146.262478
 30
0.0
 10
101.645367
 20
146.284490
 30
0.0
  0
SPLINE
  5
14b
100
AcDbEntity
  8
Ebene_1
 62
7
100
AcDbSpline
 70
8
 71
3
 72
8
 73
4
 74
0
 40
0
 40
0
 40
0
 40
0
 40
1
 40
1
 40
1
 40
1
 10
101.645367
 20
146.284490
 30
0.0
 10
101.660490
 20
146.309254
 30
0.0
 10
101.689360
 20
146.323011
 30
0.0
 10
101.733352
 20
146.323011
 30
0.0
  0
SPLINE
  5
14c
100
AcDbEntity
  8
Ebene_1
 62
7
100
AcDbSpline
 70
8
 71
3
 72
8
 73
4
 74
0
 40
0
 40
0
 40
0
 40
0
 40
1
 40
1
 40
1
 40
1
 10
101.733352
 20
146.323011
 30
0.0
 10
101.781469
 20
146.323011
 30
0.0
 10
101.814463
 20
146.313380
 30
0.0
 10
101.832335
 20
146.295496
 30
0.0
  0
SPLINE
  5
14d
100
AcDbEntity
  8
Ebene_1
 62
7
100
AcDbSpline
 70
8
 71
3
 72
8
 73
4
 74
0
 40
0
 40
0
 40
0
 40
0
 40
1
 40
1
 40
1
 40
1
 10
101.832335
 20
146.295496
 30
0.0
 10
101.851581
 20
146.276236
 30
0.0
 10
101.859830
 20
146.240467
 30
0.0
 10
101.859830
 20
146.185437
 30
0.0
  0
LWPOLYLINE
  5
14e
100
AcDbEntity
  8
Ebene_1
 62
7
100
AcDbPolyline
 90
3
 70
0
 10
100.902996
 20
146.091888
 30
0.0
 10
101.617872
 20
146.091888
 30
0.0
 10
101.617872
 20
146.152420
 30
0.0
  0
SPLINE
  5
14f
100
AcDbEntity
  8
Ebene_1
 62
7
100
AcDbSpline
 70
8
 71
3
 72
8
 73
4
 74
0
 40
0
 40
0
 40
0
 40
0
 40
1
 40
1
 40
1
 40
1
 10
101.859830
 20
145.728694
 30
0.0
 10
101.859830
 20
145.684671
 30
0.0
 10
101.851581
 20
145.651653
 30
0.0
 10
101.832335
 20
145.629641
 30
0.0
  0
SPLINE
  5
150
100
AcDbEntity
  8
Ebene_1
 62
7
100
AcDbSpline
 70
8
 71
3
 72
8
 73
4
 74
0
 40
0
 40
0
 40
0
 40
0
 40
1
 40
1
 40
1
 40
1
 10
101.832335
 20
145.629641
 30
0.0
 10
101.810339
 20
145.607630
 30
0.0
 10
101.777344
 20
145.596624
 30
0.0
 10
101.733352
 20
145.596624
 30
0.0
  0
SPLINE
  5
151
100
AcDbEntity
  8
Ebene_1
 62
7
100
AcDbSpline
 70
8
 71
3
 72
8
 73
4
 74
0
 40
0
 40
0
 40
0
 40
0
 40
1
 40
1
 40
1
 40
1
 10
101.733352
 20
145.596624
 30
0.0
 10
101.689360
 20
145.596624
 30
0.0
 10
101.660490
 20
145.609005
 30
0.0
 10
101.645367
 20
145.635144
 30
0.0
  0
SPLINE
  5
152
100
AcDbEntity
  8
Ebene_1
 62
7
100
AcDbSpline
 70
8
 71
3
 72
8
 73
4
 74
0
 40
0
 40
0
 40
0
 40
0
 40
1
 40
1
 40
1
 40
1
 10
101.645367
 20
145.635144
 30
0.0
 10
101.627495
 20
145.664035
 30
0.0
 10
101.617872
 20
145.717688
 30
0.0
 10
101.617872
 20
145.794729
 30
0.0
  0
LWPOLYLINE
  5
153
100
AcDbEntity
  8
Ebene_1
 62
7
100
AcDbPolyline
 90
2
 70
0
 10
101.859830
 20
146.185437
 30
0.0
 10
101.859830
 20
145.728694
 30
0.0
  0
SPLINE
  5
154
100
AcDbEntity
  8
Ebene_1
 62
7
100
AcDbSpline
 70
8
 71
3
 72
8
 73
4
 74
0
 40
0
 40
0
 40
0
 40
0
 40
1
 40
1
 40
1
 40
1
 10
101.139455
 20
148.007262
 30
0.0
 10
101.304426
 20
148.018268
 30
0.0
 10
101.433654
 20
148.074673
 30
0.0
 10
101.524388
 20
148.177853
 30
0.0
  0
SPLINE
  5
155
100
AcDbEntity
  8
Ebene_1
 62
7
100
AcDbSpline
 70
8
 71
3
 72
8
 73
4
 74
0
 40
0
 40
0
 40
0
 40
0
 40
1
 40
1
 40
1
 40
1
 10
101.524388
 20
148.177853
 30
0.0
 10
101.612373
 20
148.279657
 30
0.0
 10
101.656365
 20
148.419982
 30
0.0
 10
101.656365
 20
148.596076
 30
0.0
  0
SPLINE
  5
156
100
AcDbEntity
  8
Ebene_1
 62
7
100
AcDbSpline
 70
8
 71
3
 72
8
 73
4
 74
0
 40
0
 40
0
 40
0
 40
0
 40
1
 40
1
 40
1
 40
1
 10
101.656365
 20
148.596076
 30
0.0
 10
101.656365
 20
148.730898
 30
0.0
 10
101.621996
 20
148.878101
 30
0.0
 10
101.551883
 20
149.036310
 30
0.0
  0
SPLINE
  5
157
100
AcDbEntity
  8
Ebene_1
 62
7
100
AcDbSpline
 70
8
 71
3
 72
8
 73
4
 74
0
 40
0
 40
0
 40
0
 40
0
 40
1
 40
1
 40
1
 40
1
 10
101.551883
 20
149.036310
 30
0.0
 10
101.479021
 20
149.193144
 30
0.0
 10
101.441903
 20
149.289445
 30
0.0
 10
101.441903
 20
149.322463
 30
0.0
  0
SPLINE
  5
158
100
AcDbEntity
  8
Ebene_1
 62
7
100
AcDbSpline
 70
8
 71
3
 72
8
 73
4
 74
0
 40
0
 40
0
 40
0
 40
0
 40
1
 40
1
 40
1
 40
1
 10
101.441903
 20
149.322463
 30
0.0
 10
101.441903
 20
149.355480
 30
0.0
 10
101.452901
 20
149.382995
 30
0.0
 10
101.474897
 20
149.405006
 30
0.0
  0
SPLINE
  5
159
100
AcDbEntity
  8
Ebene_1
 62
7
100
AcDbSpline
 70
8
 71
3
 72
8
 73
4
 74
0
 40
0
 40
0
 40
0
 40
0
 40
1
 40
1
 40
1
 40
1
 10
101.474897
 20
149.405006
 30
0.0
 10
101.496893
 20
149.429769
 30
0.0
 10
101.524388
 20
149.443527
 30
0.0
 10
101.557383
 20
149.443527
 30
0.0
  0
SPLINE
  5
15a
100
AcDbEntity
  8
Ebene_1
 62
7
100
AcDbSpline
 70
8
 71
3
 72
8
 73
4
 74
0
 40
0
 40
0
 40
0
 40
0
 40
1
 40
1
 40
1
 40
1
 10
101.557383
 20
149.443527
 30
0.0
 10
101.590377
 20
149.443527
 30
0.0
 10
101.621996
 20
149.429769
 30
0.0
 10
101.650866
 20
149.405006
 30
0.0
  0
SPLINE
  5
15b
100
AcDbEntity
  8
Ebene_1
 62
7
100
AcDbSpline
 70
8
 71
3
 72
8
 73
4
 74
0
 40
0
 40
0
 40
0
 40
0
 40
1
 40
1
 40
1
 40
1
 10
101.650866
 20
149.405006
 30
0.0
 10
101.676987
 20
149.382995
 30
0.0
 10
101.703107
 20
149.344474
 30
0.0
 10
101.727853
 20
149.289445
 30
0.0
  0
SPLINE
  5
15c
100
AcDbEntity
  8
Ebene_1
 62
7
100
AcDbSpline
 70
8
 71
3
 72
8
 73
4
 74
0
 40
0
 40
0
 40
0
 40
0
 40
1
 40
1
 40
1
 40
1
 10
101.727853
 20
149.289445
 30
0.0
 10
101.786968
 20
149.175259
 30
0.0
 10
101.830960
 20
149.058322
 30
0.0
 10
101.859830
 20
148.937257
 30
0.0
  0
SPLINE
  5
15d
100
AcDbEntity
  8
Ebene_1
 62
7
100
AcDbSpline
 70
8
 71
3
 72
8
 73
4
 74
0
 40
0
 40
0
 40
0
 40
0
 40
1
 40
1
 40
1
 40
1
 10
101.859830
 20
148.937257
 30
0.0
 10
101.888700
 20
148.816193
 30
0.0
 10
101.903822
 20
148.695128
 30
0.0
 10
101.903822
 20
148.574064
 30
0.0
  0
SPLINE
  5
15e
100
AcDbEntity
  8
Ebene_1
 62
7
100
AcDbSpline
 70
8
 71
3
 72
8
 73
4
 74
0
 40
0
 40
0
 40
0
 40
0
 40
1
 40
1
 40
1
 40
1
 10
101.903822
 20
148.574064
 30
0.0
 10
101.903822
 20
148.312675
 30
0.0
 10
101.829585
 20
148.103564
 30
0.0
 10
101.678362
 20
147.946730
 30
0.0
  0
SPLINE
  5
15f
100
AcDbEntity
  8
Ebene_1
 62
7
100
AcDbSpline
 70
8
 71
3
 72
8
 73
4
 74
0
 40
0
 40
0
 40
0
 40
0
 40
1
 40
1
 40
1
 40
1
 10
101.678362
 20
147.946730
 30
0.0
 10
101.528513
 20
147.788520
 30
0.0
 10
101.329172
 20
147.710104
 30
0.0
 10
101.078966
 20
147.710104
 30
0.0
  0
SPLINE
  5
160
100
AcDbEntity
  8
Ebene_1
 62
7
100
AcDbSpline
 70
8
 71
3
 72
8
 73
4
 74
0
 40
0
 40
0
 40
0
 40
0
 40
1
 40
1
 40
1
 40
1
 10
101.078966
 20
147.710104
 30
0.0
 10
100.826010
 20
147.710104
 30
0.0
 10
100.621170
 20
147.792648
 30
0.0
 10
100.463073
 20
147.957736
 30
0.0
  0
SPLINE
  5
161
100
AcDbEntity
  8
Ebene_1
 62
7
100
AcDbSpline
 70
8
 71
3
 72
8
 73
4
 74
0
 40
0
 40
0
 40
0
 40
0
 40
1
 40
1
 40
1
 40
1
 10
100.463073
 20
147.957736
 30
0.0
 10
100.306350
 20
148.125575
 30
0.0
 10
100.226614
 20
148.342941
 30
0.0
 10
100.226614
 20
148.607082
 30
0.0
  0
SPLINE
  5
162
100
AcDbEntity
  8
Ebene_1
 62
7
100
AcDbSpline
 70
8
 71
3
 72
8
 73
4
 74
0
 40
0
 40
0
 40
0
 40
0
 40
1
 40
1
 40
1
 40
1
 10
100.226614
 20
148.607082
 30
0.0
 10
100.226614
 20
148.849210
 30
0.0
 10
100.300851
 20
149.048692
 30
0.0
 10
100.446576
 20
149.206901
 30
0.0
  0
SPLINE
  5
163
100
AcDbEntity
  8
Ebene_1
 62
7
100
AcDbSpline
 70
8
 71
3
 72
8
 73
4
 74
0
 40
0
 40
0
 40
0
 40
0
 40
1
 40
1
 40
1
 40
1
 10
100.446576
 20
149.206901
 30
0.0
 10
100.593675
 20
149.367862
 30
0.0
 10
100.771019
 20
149.449030
 30
0.0
 10
100.979983
 20
149.449030
 30
0.0
  0
SPLINE
  5
164
100
AcDbEntity
  8
Ebene_1
 62
7
100
AcDbSpline
 70
8
 71
3
 72
8
 73
4
 74
0
 40
0
 40
0
 40
0
 40
0
 40
1
 40
1
 40
1
 40
1
 10
100.979983
 20
149.449030
 30
0.0
 10
101.043222
 20
149.449030
 30
0.0
 10
101.084465
 20
149.433897
 30
0.0
 10
101.106461
 20
149.405006
 30
0.0
  0
SPLINE
  5
165
100
AcDbEntity
  8
Ebene_1
 62
7
100
AcDbSpline
 70
8
 71
3
 72
8
 73
4
 74
0
 40
0
 40
0
 40
0
 40
0
 40
1
 40
1
 40
1
 40
1
 10
101.106461
 20
149.405006
 30
0.0
 10
101.128457
 20
149.378867
 30
0.0
 10
101.139455
 20
149.307329
 30
0.0
 10
101.139455
 20
149.190392
 30
0.0
  0
LWPOLYLINE
  5
166
100
AcDbEntity
  8
Ebene_1
 62
7
100
AcDbPolyline
 90
2
 70
0
 10
101.617872
 20
145.794729
 30
0.0
 10
101.617872
 20
145.827747
 30
0.0
  0
LWPOLYLINE
  5
167
100
AcDbEntity
  8
Ebene_1
 62
7
100
AcDbPolyline
 90
2
 70
0
 10
101.139455
 20
149.190392
 30
0.0
 10
101.139455
 20
148.007262
 30
0.0
  0
SPLINE
  5
168
100
AcDbEntity
  8
Ebene_1
 62
7
100
AcDbSpline
 70
8
 71
3
 72
8
 73
4
 74
0
 40
0
 40
0
 40
0
 40
0
 40
1
 40
1
 40
1
 40
1
 10
100.913994
 20
149.135363
 30
0.0
 10
100.779268
 20
149.120230
 30
0.0
 10
100.670662
 20
149.063825
 30
0.0
 10
100.589551
 20
148.964772
 30
0.0
  0
SPLINE
  5
169
100
AcDbEntity
  8
Ebene_1
 62
7
100
AcDbSpline
 70
8
 71
3
 72
8
 73
4
 74
0
 40
0
 40
0
 40
0
 40
0
 40
1
 40
1
 40
1
 40
1
 10
100.589551
 20
148.964772
 30
0.0
 10
100.505690
 20
148.868471
 30
0.0
 10
100.463073
 20
148.750158
 30
0.0
 10
100.463073
 20
148.607082
 30
0.0
  0
SPLINE
  5
16a
100
AcDbEntity
  8
Ebene_1
 62
7
100
AcDbSpline
 70
8
 71
3
 72
8
 73
4
 74
0
 40
0
 40
0
 40
0
 40
0
 40
1
 40
1
 40
1
 40
1
 10
100.463073
 20
148.607082
 30
0.0
 10
100.463073
 20
148.455751
 30
0.0
 10
100.504316
 20
148.327808
 30
0.0
 10
100.584052
 20
148.221876
 30
0.0
  0
SPLINE
  5
16b
100
AcDbEntity
  8
Ebene_1
 62
7
100
AcDbSpline
 70
8
 71
3
 72
8
 73
4
 74
0
 40
0
 40
0
 40
0
 40
0
 40
1
 40
1
 40
1
 40
1
 10
100.584052
 20
148.221876
 30
0.0
 10
100.665163
 20
148.118696
 30
0.0
 10
100.775144
 20
148.051285
 30
0.0
 10
100.913994
 20
148.018268
 30
0.0
  0
LWPOLYLINE
  5
16c
100
AcDbEntity
  8
Ebene_1
 62
7
100
AcDbPolyline
 90
2
 70
0
 10
100.913994
 20
148.018268
 30
0.0
 10
100.913994
 20
149.135363
 30
0.0
  0
SPLINE
  5
16d
100
AcDbEntity
  8
Ebene_1
 62
7
100
AcDbSpline
 70
8
 71
3
 72
8
 73
4
 74
0
 40
0
 40
0
 40
0
 40
0
 40
1
 40
1
 40
1
 40
1
 10
101.139455
 20
150.120742
 30
0.0
 10
101.304426
 20
150.131748
 30
0.0
 10
101.433654
 20
150.188153
 30
0.0
 10
101.524388
 20
150.291333
 30
0.0
  0
SPLINE
  5
16e
100
AcDbEntity
  8
Ebene_1
 62
7
100
AcDbSpline
 70
8
 71
3
 72
8
 73
4
 74
0
 40
0
 40
0
 40
0
 40
0
 40
1
 40
1
 40
1
 40
1
 10
101.524388
 20
150.291333
 30
0.0
 10
101.612373
 20
150.393137
 30
0.0
 10
101.656365
 20
150.533462
 30
0.0
 10
101.656365
 20
150.709556
 30
0.0
  0
SPLINE
  5
16f
100
AcDbEntity
  8
Ebene_1
 62
7
100
AcDbSpline
 70
8
 71
3
 72
8
 73
4
 74
0
 40
0
 40
0
 40
0
 40
0
 40
1
 40
1
 40
1
 40
1
 10
101.656365
 20
150.709556
 30
0.0
 10
101.656365
 20
150.844378
 30
0.0
 10
101.621996
 20
150.991581
 30
0.0
 10
101.551883
 20
151.149790
 30
0.0
  0
SPLINE
  5
170
100
AcDbEntity
  8
Ebene_1
 62
7
100
AcDbSpline
 70
8
 71
3
 72
8
 73
4
 74
0
 40
0
 40
0
 40
0
 40
0
 40
1
 40
1
 40
1
 40
1
 10
101.551883
 20
151.149790
 30
0.0
 10
101.479021
 20
151.306624
 30
0.0
 10
101.441903
 20
151.402925
 30
0.0
 10
101.441903
 20
151.435943
 30
0.0
  0
SPLINE
  5
171
100
AcDbEntity
  8
Ebene_1
 62
7
100
AcDbSpline
 70
8
 71
3
 72
8
 73
4
 74
0
 40
0
 40
0
 40
0
 40
0
 40
1
 40
1
 40
1
 40
1
 10
101.441903
 20
151.435943
 30
0.0
 10
101.441903
 20
151.468960
 30
0.0
 10
101.452901
 20
151.496475
 30
0.0
 10
101.474897
 20
151.518486
 30
0.0
  0
SPLINE
  5
172
100
AcDbEntity
  8
Ebene_1
 62
7
100
AcDbSpline
 70
8
 71
3
 72
8
 73
4
 74
0
 40
0
 40
0
 40
0
 40
0
 40
1
 40
1
 40
1
 40
1
 10
101.474897
 20
151.518486
 30
0.0
 10
101.496893
 20
151.543249
 30
0.0
 10
101.524388
 20
151.557007
 30
0.0
 10
101.557383
 20
151.557007
 30
0.0
  0
SPLINE
  5
173
100
AcDbEntity
  8
Ebene_1
 62
7
100
AcDbSpline
 70
8
 71
3
 72
8
 73
4
 74
0
 40
0
 40
0
 40
0
 40
0
 40
1
 40
1
 40
1
 40
1
 10
101.557383
 20
151.557007
 30
0.0
 10
101.590377
 20
151.557007
 30
0.0
 10
101.621996
 20
151.543249
 30
0.0
 10
101.650866
 20
151.518486
 30
0.0
  0
SPLINE
  5
174
100
AcDbEntity
  8
Ebene_1
 62
7
100
AcDbSpline
 70
8
 71
3
 72
8
 73
4
 74
0
 40
0
 40
0
 40
0
 40
0
 40
1
 40
1
 40
1
 40
1
 10
101.650866
 20
151.518486
 30
0.0
 10
101.676987
 20
151.496475
 30
0.0
 10
101.703107
 20
151.457954
 30
0.0
 10
101.727853
 20
151.402925
 30
0.0
  0
SPLINE
  5
175
100
AcDbEntity
  8
Ebene_1
 62
7
100
AcDbSpline
 70
8
 71
3
 72
8
 73
4
 74
0
 40
0
 40
0
 40
0
 40
0
 40
1
 40
1
 40
1
 40
1
 10
101.727853
 20
151.402925
 30
0.0
 10
101.786968
 20
151.288739
 30
0.0
 10
101.830960
 20
151.171802
 30
0.0
 10
101.859830
 20
151.050737
 30
0.0
  0
SPLINE
  5
176
100
AcDbEntity
  8
Ebene_1
 62
7
100
AcDbSpline
 70
8
 71
3
 72
8
 73
4
 74
0
 40
0
 40
0
 40
0
 40
0
 40
1
 40
1
 40
1
 40
1
 10
101.859830
 20
151.050737
 30
0.0
 10
101.888700
 20
150.929673
 30
0.0
 10
101.903822
 20
150.808608
 30
0.0
 10
101.903822
 20
150.687544
 30
0.0
  0
SPLINE
  5
177
100
AcDbEntity
  8
Ebene_1
 62
7
100
AcDbSpline
 70
8
 71
3
 72
8
 73
4
 74
0
 40
0
 40
0
 40
0
 40
0
 40
1
 40
1
 40
1
 40
1
 10
101.903822
 20
150.687544
 30
0.0
 10
101.903822
 20
150.426155
 30
0.0
 10
101.829585
 20
150.217044
 30
0.0
 10
101.678362
 20
150.060210
 30
0.0
  0
SPLINE
  5
178
100
AcDbEntity
  8
Ebene_1
 62
7
100
AcDbSpline
 70
8
 71
3
 72
8
 73
4
 74
0
 40
0
 40
0
 40
0
 40
0
 40
1
 40
1
 40
1
 40
1
 10
101.678362
 20
150.060210
 30
0.0
 10
101.528513
 20
149.902000
 30
0.0
 10
101.329172
 20
149.823584
 30
0.0
 10
101.078966
 20
149.823584
 30
0.0
  0
SPLINE
  5
179
100
AcDbEntity
  8
Ebene_1
 62
7
100
AcDbSpline
 70
8
 71
3
 72
8
 73
4
 74
0
 40
0
 40
0
 40
0
 40
0
 40
1
 40
1
 40
1
 40
1
 10
101.078966
 20
149.823584
 30
0.0
 10
100.826010
 20
149.823584
 30
0.0
 10
100.621170
 20
149.906128
 30
0.0
 10
100.463073
 20
150.071216
 30
0.0
  0
SPLINE
  5
17a
100
AcDbEntity
  8
Ebene_1
 62
7
100
AcDbSpline
 70
8
 71
3
 72
8
 73
4
 74
0
 40
0
 40
0
 40
0
 40
0
 40
1
 40
1
 40
1
 40
1
 10
100.463073
 20
150.071216
 30
0.0
 10
100.306350
 20
150.239055
 30
0.0
 10
100.226614
 20
150.456421
 30
0.0
 10
100.226614
 20
150.720562
 30
0.0
  0
SPLINE
  5
17b
100
AcDbEntity
  8
Ebene_1
 62
7
100
AcDbSpline
 70
8
 71
3
 72
8
 73
4
 74
0
 40
0
 40
0
 40
0
 40
0
 40
1
 40
1
 40
1
 40
1
 10
100.226614
 20
150.720562
 30
0.0
 10
100.226614
 20
150.962690
 30
0.0
 10
100.300851
 20
151.162172
 30
0.0
 10
100.446576
 20
151.320381
 30
0.0
  0
SPLINE
  5
17c
100
AcDbEntity
  8
Ebene_1
 62
7
100
AcDbSpline
 70
8
 71
3
 72
8
 73
4
 74
0
 40
0
 40
0
 40
0
 40
0
 40
1
 40
1
 40
1
 40
1
 10
100.446576
 20
151.320381
 30
0.0
 10
100.593675
 20
151.481342
 30
0.0
 10
100.771019
 20
151.562510
 30
0.0
 10
100.979983
 20
151.562510
 30
0.0
  0
SPLINE
  5
17d
100
AcDbEntity
  8
Ebene_1
 62
7
100
AcDbSpline
 70
8
 71
3
 72
8
 73
4
 74
0
 40
0
 40
0
 40
0
 40
0
 40
1
 40
1
 40
1
 40
1
 10
100.979983
 20
151.562510
 30
0.0
 10
101.043222
 20
151.562510
 30
0.0
 10
101.084465
 20
151.547377
 30
0.0
 10
101.106461
 20
151.518486
 30
0.0
  0
SPLINE
  5
17e
100
AcDbEntity
  8
Ebene_1
 62
7
100
AcDbSpline
 70
8
 71
3
 72
8
 73
4
 74
0
 40
0
 40
0
 40
0
 40
0
 40
1
 40
1
 40
1
 40
1
 10
101.106461
 20
151.518486
 30
0.0
 10
101.128457
 20
151.492347
 30
0.0
 10
101.139455
 20
151.420809
 30
0.0
 10
101.139455
 20
151.303872
 30
0.0
  0
LWPOLYLINE
  5
17f
100
AcDbEntity
  8
Ebene_1
 62
7
100
AcDbPolyline
 90
1
 70
1
 10
100.913994
 20
148.018268
 30
0.0
  0
LWPOLYLINE
  5
180
100
AcDbEntity
  8
Ebene_1
 62
7
100
AcDbPolyline
 90
2
 70
0
 10
101.139455
 20
151.303872
 30
0.0
 10
101.139455
 20
150.120742
 30
0.0
  0
SPLINE
  5
181
100
AcDbEntity
  8
Ebene_1
 62
7
100
AcDbSpline
 70
8
 71
3
 72
8
 73
4
 74
0
 40
0
 40
0
 40
0
 40
0
 40
1
 40
1
 40
1
 40
1
 10
100.913994
 20
151.248843
 30
0.0
 10
100.779268
 20
151.233710
 30
0.0
 10
100.670662
 20
151.177305
 30
0.0
 10
100.589551
 20
151.078252
 30
0.0
  0
SPLINE
  5
182
100
AcDbEntity
  8
Ebene_1
 62
7
100
AcDbSpline
 70
8
 71
3
 72
8
 73
4
 74
0
 40
0
 40
0
 40
0
 40
0
 40
1
 40
1
 40
1
 40
1
 10
100.589551
 20
151.078252
 30
0.0
 10
100.505690
 20
150.981951
 30
0.0
 10
100.463073
 20
150.863638
 30
0.0
 10
100.463073
 20
150.720562
 30
0.0
  0
SPLINE
  5
183
100
AcDbEntity
  8
Ebene_1
 62
7
100
AcDbSpline
 70
8
 71
3
 72
8
 73
4
 74
0
 40
0
 40
0
 40
0
 40
0
 40
1
 40
1
 40
1
 40
1
 10
100.463073
 20
150.720562
 30
0.0
 10
100.463073
 20
150.569231
 30
0.0
 10
100.504316
 20
150.441288
 30
0.0
 10
100.584052
 20
150.335356
 30
0.0
  0
SPLINE
  5
184
100
AcDbEntity
  8
Ebene_1
 62
7
100
AcDbSpline
 70
8
 71
3
 72
8
 73
4
 74
0
 40
0
 40
0
 40
0
 40
0
 40
1
 40
1
 40
1
 40
1
 10
100.584052
 20
150.335356
 30
0.0
 10
100.665163
 20
150.232176
 30
0.0
 10
100.775144
 20
150.164765
 30
0.0
 10
100.913994
 20
150.131748
 30
0.0
  0
LWPOLYLINE
  5
185
100
AcDbEntity
  8
Ebene_1
 62
7
100
AcDbPolyline
 90
2
 70
0
 10
100.913994
 20
150.131748
 30
0.0
 10
100.913994
 20
151.248843
 30
0.0
  0
SPLINE
  5
186
100
AcDbEntity
  8
Ebene_1
 62
7
100
AcDbSpline
 70
8
 71
3
 72
8
 73
4
 74
0
 40
0
 40
0
 40
0
 40
0
 40
1
 40
1
 40
1
 40
1
 10
100.369589
 20
153.285272
 30
0.0
 10
100.369589
 20
153.343053
 30
0.0
 10
100.379212
 20
153.385700
 30
0.0
 10
100.397084
 20
153.411839
 30
0.0
  0
SPLINE
  5
187
100
AcDbEntity
  8
Ebene_1
 62
7
100
AcDbSpline
 70
8
 71
3
 72
8
 73
4
 74
0
 40
0
 40
0
 40
0
 40
0
 40
1
 40
1
 40
1
 40
1
 10
100.397084
 20
153.411839
 30
0.0
 10
100.416331
 20
153.436602
 30
0.0
 10
100.446576
 20
153.450360
 30
0.0
 10
100.490568
 20
153.450360
 30
0.0
  0
SPLINE
  5
188
100
AcDbEntity
  8
Ebene_1
 62
7
100
AcDbSpline
 70
8
 71
3
 72
8
 73
4
 74
0
 40
0
 40
0
 40
0
 40
0
 40
1
 40
1
 40
1
 40
1
 10
100.490568
 20
153.450360
 30
0.0
 10
100.531811
 20
153.450360
 30
0.0
 10
100.562055
 20
153.436602
 30
0.0
 10
100.584052
 20
153.411839
 30
0.0
  0
SPLINE
  5
189
100
AcDbEntity
  8
Ebene_1
 62
7
100
AcDbSpline
 70
8
 71
3
 72
8
 73
4
 74
0
 40
0
 40
0
 40
0
 40
0
 40
1
 40
1
 40
1
 40
1
 10
100.584052
 20
153.411839
 30
0.0
 10
100.603298
 20
153.385700
 30
0.0
 10
100.611547
 20
153.348555
 30
0.0
 10
100.611547
 20
153.301781
 30
0.0
  0
LWPOLYLINE
  5
18a
100
AcDbEntity
  8
Ebene_1
 62
7
100
AcDbPolyline
 90
1
 70
1
 10
100.913994
 20
150.131748
 30
0.0
  0
SPLINE
  5
18b
100
AcDbEntity
  8
Ebene_1
 62
7
100
AcDbSpline
 70
8
 71
3
 72
8
 73
4
 74
0
 40
0
 40
0
 40
0
 40
0
 40
1
 40
1
 40
1
 40
1
 10
101.183448
 20
152.608411
 30
0.0
 10
101.370415
 20
152.608411
 30
0.0
 10
101.495518
 20
152.631799
 30
0.0
 10
101.557383
 20
152.679949
 30
0.0
  0
SPLINE
  5
18c
100
AcDbEntity
  8
Ebene_1
 62
7
100
AcDbSpline
 70
8
 71
3
 72
8
 73
4
 74
0
 40
0
 40
0
 40
0
 40
0
 40
1
 40
1
 40
1
 40
1
 10
101.557383
 20
152.679949
 30
0.0
 10
101.616497
 20
152.726725
 30
0.0
 10
101.645367
 20
152.812020
 30
0.0
 10
101.645367
 20
152.933084
 30
0.0
  0
SPLINE
  5
18d
100
AcDbEntity
  8
Ebene_1
 62
7
100
AcDbSpline
 70
8
 71
3
 72
8
 73
4
 74
0
 40
0
 40
0
 40
0
 40
0
 40
1
 40
1
 40
1
 40
1
 10
101.645367
 20
152.933084
 30
0.0
 10
101.645367
 20
153.034889
 30
0.0
 10
101.616497
 20
153.158704
 30
0.0
 10
101.557383
 20
153.301781
 30
0.0
  0
SPLINE
  5
18e
100
AcDbEntity
  8
Ebene_1
 62
7
100
AcDbSpline
 70
8
 71
3
 72
8
 73
4
 74
0
 40
0
 40
0
 40
0
 40
0
 40
1
 40
1
 40
1
 40
1
 10
101.557383
 20
153.301781
 30
0.0
 10
101.495518
 20
153.447608
 30
0.0
 10
101.463899
 20
153.539782
 30
0.0
 10
101.463899
 20
153.576927
 30
0.0
  0
SPLINE
  5
18f
100
AcDbEntity
  8
Ebene_1
 62
7
100
AcDbSpline
 70
8
 71
3
 72
8
 73
4
 74
0
 40
0
 40
0
 40
0
 40
0
 40
1
 40
1
 40
1
 40
1
 10
101.463899
 20
153.576927
 30
0.0
 10
101.463899
 20
153.605817
 30
0.0
 10
101.474897
 20
153.631956
 30
0.0
 10
101.496893
 20
153.653968
 30
0.0
  0
SPLINE
  5
190
100
AcDbEntity
  8
Ebene_1
 62
7
100
AcDbSpline
 70
8
 71
3
 72
8
 73
4
 74
0
 40
0
 40
0
 40
0
 40
0
 40
1
 40
1
 40
1
 40
1
 10
101.496893
 20
153.653968
 30
0.0
 10
101.518889
 20
153.678731
 30
0.0
 10
101.546384
 20
153.692489
 30
0.0
 10
101.579379
 20
153.692489
 30
0.0
  0
SPLINE
  5
191
100
AcDbEntity
  8
Ebene_1
 62
7
100
AcDbSpline
 70
8
 71
3
 72
8
 73
4
 74
0
 40
0
 40
0
 40
0
 40
0
 40
1
 40
1
 40
1
 40
1
 10
101.579379
 20
153.692489
 30
0.0
 10
101.620621
 20
153.692489
 30
0.0
 10
101.654991
 20
153.677356
 30
0.0
 10
101.683861
 20
153.648465
 30
0.0
  0
SPLINE
  5
192
100
AcDbEntity
  8
Ebene_1
 62
7
100
AcDbSpline
 70
8
 71
3
 72
8
 73
4
 74
0
 40
0
 40
0
 40
0
 40
0
 40
1
 40
1
 40
1
 40
1
 10
101.683861
 20
153.648465
 30
0.0
 10
101.709981
 20
153.618199
 30
0.0
 10
101.736102
 20
153.571424
 30
0.0
 10
101.760847
 20
153.505389
 30
0.0
  0
SPLINE
  5
193
100
AcDbEntity
  8
Ebene_1
 62
7
100
AcDbSpline
 70
8
 71
3
 72
8
 73
4
 74
0
 40
0
 40
0
 40
0
 40
0
 40
1
 40
1
 40
1
 40
1
 10
101.760847
 20
153.505389
 30
0.0
 10
101.804840
 20
153.391203
 30
0.0
 10
101.837834
 20
153.288023
 30
0.0
 10
101.859830
 20
153.197225
 30
0.0
  0
SPLINE
  5
194
100
AcDbEntity
  8
Ebene_1
 62
7
100
AcDbSpline
 70
8
 71
3
 72
8
 73
4
 74
0
 40
0
 40
0
 40
0
 40
0
 40
1
 40
1
 40
1
 40
1
 10
101.859830
 20
153.197225
 30
0.0
 10
101.881826
 20
153.109178
 30
0.0
 10
101.892824
 20
153.026634
 30
0.0
 10
101.892824
 20
152.949593
 30
0.0
  0
SPLINE
  5
195
100
AcDbEntity
  8
Ebene_1
 62
7
100
AcDbSpline
 70
8
 71
3
 72
8
 73
4
 74
0
 40
0
 40
0
 40
0
 40
0
 40
1
 40
1
 40
1
 40
1
 10
101.892824
 20
152.949593
 30
0.0
 10
101.892824
 20
152.813395
 30
0.0
 10
101.870828
 20
152.699210
 30
0.0
 10
101.826836
 20
152.608411
 30
0.0
  0
SPLINE
  5
196
100
AcDbEntity
  8
Ebene_1
 62
7
100
AcDbSpline
 70
8
 71
3
 72
8
 73
4
 74
0
 40
0
 40
0
 40
0
 40
0
 40
1
 40
1
 40
1
 40
1
 10
101.826836
 20
152.608411
 30
0.0
 10
101.782843
 20
152.516237
 30
0.0
 10
101.719604
 20
152.448826
 30
0.0
 10
101.634369
 20
152.404803
 30
0.0
  0
SPLINE
  5
197
100
AcDbEntity
  8
Ebene_1
 62
7
100
AcDbSpline
 70
8
 71
3
 72
8
 73
4
 74
0
 40
0
 40
0
 40
0
 40
0
 40
1
 40
1
 40
1
 40
1
 10
101.634369
 20
152.404803
 30
0.0
 10
101.594501
 20
152.382791
 30
0.0
 10
101.546384
 20
152.366282
 30
0.0
 10
101.491394
 20
152.355277
 30
0.0
  0
SPLINE
  5
198
100
AcDbEntity
  8
Ebene_1
 62
7
100
AcDbSpline
 70
8
 71
3
 72
8
 73
4
 74
0
 40
0
 40
0
 40
0
 40
0
 40
1
 40
1
 40
1
 40
1
 10
101.491394
 20
152.355277
 30
0.0
 10
101.436404
 20
152.347022
 30
0.0
 10
101.352543
 20
152.344271
 30
0.0
 10
101.238438
 20
152.344271
 30
0.0
  0
LWPOLYLINE
  5
199
100
AcDbEntity
  8
Ebene_1
 62
7
100
AcDbPolyline
 90
3
 70
0
 10
100.611547
 20
153.301781
 30
0.0
 10
100.611547
 20
152.608411
 30
0.0
 10
101.183448
 20
152.608411
 30
0.0
  0
SPLINE
  5
19a
100
AcDbEntity
  8
Ebene_1
 62
7
100
AcDbSpline
 70
8
 71
3
 72
8
 73
4
 74
0
 40
0
 40
0
 40
0
 40
0
 40
1
 40
1
 40
1
 40
1
 10
100.611547
 20
152.052615
 30
0.0
 10
100.611547
 20
152.000338
 30
0.0
 10
100.603298
 20
151.964568
 30
0.0
 10
100.584052
 20
151.942557
 30
0.0
  0
SPLINE
  5
19b
100
AcDbEntity
  8
Ebene_1
 62
7
100
AcDbSpline
 70
8
 71
3
 72
8
 73
4
 74
0
 40
0
 40
0
 40
0
 40
0
 40
1
 40
1
 40
1
 40
1
 10
100.584052
 20
151.942557
 30
0.0
 10
100.562055
 20
151.923297
 30
0.0
 10
100.531811
 20
151.915042
 30
0.0
 10
100.490568
 20
151.915042
 30
0.0
  0
SPLINE
  5
19c
100
AcDbEntity
  8
Ebene_1
 62
7
100
AcDbSpline
 70
8
 71
3
 72
8
 73
4
 74
0
 40
0
 40
0
 40
0
 40
0
 40
1
 40
1
 40
1
 40
1
 10
100.490568
 20
151.915042
 30
0.0
 10
100.443826
 20
151.915042
 30
0.0
 10
100.412207
 20
151.928799
 30
0.0
 10
100.397084
 20
151.959066
 30
0.0
  0
SPLINE
  5
19d
100
AcDbEntity
  8
Ebene_1
 62
7
100
AcDbSpline
 70
8
 71
3
 72
8
 73
4
 74
0
 40
0
 40
0
 40
0
 40
0
 40
1
 40
1
 40
1
 40
1
 10
100.397084
 20
151.959066
 30
0.0
 10
100.379212
 20
151.987956
 30
0.0
 10
100.369589
 20
152.049864
 30
0.0
 10
100.369589
 20
152.146165
 30
0.0
  0
LWPOLYLINE
  5
19e
100
AcDbEntity
  8
Ebene_1
 62
7
100
AcDbPolyline
 90
3
 70
0
 10
101.238438
 20
152.344271
 30
0.0
 10
100.611547
 20
152.344271
 30
0.0
 10
100.611547
 20
152.052615
 30
0.0
  0
SPLINE
  5
19f
100
AcDbEntity
  8
Ebene_1
 62
7
100
AcDbSpline
 70
8
 71
3
 72
8
 73
4
 74
0
 40
0
 40
0
 40
0
 40
0
 40
1
 40
1
 40
1
 40
1
 10
99.924166
 20
152.344271
 30
0.0
 10
99.877425
 20
152.344271
 30
0.0
 10
99.841681
 20
152.352525
 30
0.0
 10
99.819684
 20
152.371785
 30
0.0
  0
SPLINE
  5
1a0
100
AcDbEntity
  8
Ebene_1
 62
7
100
AcDbSpline
 70
8
 71
3
 72
8
 73
4
 74
0
 40
0
 40
0
 40
0
 40
0
 40
1
 40
1
 40
1
 40
1
 10
99.819684
 20
152.371785
 30
0.0
 10
99.794939
 20
152.393797
 30
0.0
 10
99.781191
 20
152.426815
 30
0.0
 10
99.781191
 20
152.470838
 30
0.0
  0
SPLINE
  5
1a1
100
AcDbEntity
  8
Ebene_1
 62
7
100
AcDbSpline
 70
8
 71
3
 72
8
 73
4
 74
0
 40
0
 40
0
 40
0
 40
0
 40
1
 40
1
 40
1
 40
1
 10
99.781191
 20
152.470838
 30
0.0
 10
99.781191
 20
152.521740
 30
0.0
 10
99.796314
 20
152.556133
 30
0.0
 10
99.825183
 20
152.575394
 30
0.0
  0
SPLINE
  5
1a2
100
AcDbEntity
  8
Ebene_1
 62
7
100
AcDbSpline
 70
8
 71
3
 72
8
 73
4
 74
0
 40
0
 40
0
 40
0
 40
0
 40
1
 40
1
 40
1
 40
1
 10
99.825183
 20
152.575394
 30
0.0
 10
99.851304
 20
152.597405
 30
0.0
 10
99.915918
 20
152.608411
 30
0.0
 10
100.017650
 20
152.608411
 30
0.0
  0
LWPOLYLINE
  5
1a3
100
AcDbEntity
  8
Ebene_1
 62
7
100
AcDbPolyline
 90
3
 70
0
 10
100.369589
 20
152.146165
 30
0.0
 10
100.369589
 20
152.344271
 30
0.0
 10
99.924166
 20
152.344271
 30
0.0
  0
SPLINE
  5
1a4
100
AcDbEntity
  8
Ebene_1
 62
7
100
AcDbSpline
 70
8
 71
3
 72
8
 73
4
 74
0
 40
0
 40
0
 40
0
 40
0
 40
1
 40
1
 40
1
 40
1
 10
99.880174
 20
157.044463
 30
0.0
 10
99.880174
 20
156.912392
 30
0.0
 10
99.959910
 20
156.809212
 30
0.0
 10
100.116633
 20
156.736299
 30
0.0
  0
SPLINE
  5
1a5
100
AcDbEntity
  8
Ebene_1
 62
7
100
AcDbSpline
 70
8
 71
3
 72
8
 73
4
 74
0
 40
0
 40
0
 40
0
 40
0
 40
1
 40
1
 40
1
 40
1
 10
100.116633
 20
156.736299
 30
0.0
 10
100.270606
 20
156.662009
 30
0.0
 10
100.490568
 20
156.626240
 30
0.0
 10
100.776518
 20
156.626240
 30
0.0
  0
SPLINE
  5
1a6
100
AcDbEntity
  8
Ebene_1
 62
7
100
AcDbSpline
 70
8
 71
3
 72
8
 73
4
 74
0
 40
0
 40
0
 40
0
 40
0
 40
1
 40
1
 40
1
 40
1
 10
100.776518
 20
156.626240
 30
0.0
 10
101.062469
 20
156.626240
 30
0.0
 10
101.285180
 20
156.662009
 30
0.0
 10
101.441903
 20
156.736299
 30
0.0
  0
SPLINE
  5
1a7
100
AcDbEntity
  8
Ebene_1
 62
7
100
AcDbSpline
 70
8
 71
3
 72
8
 73
4
 74
0
 40
0
 40
0
 40
0
 40
0
 40
1
 40
1
 40
1
 40
1
 10
101.441903
 20
156.736299
 30
0.0
 10
101.595876
 20
156.809212
 30
0.0
 10
101.672862
 20
156.912392
 30
0.0
 10
101.672862
 20
157.044463
 30
0.0
  0
SPLINE
  5
1a8
100
AcDbEntity
  8
Ebene_1
 62
7
100
AcDbSpline
 70
8
 71
3
 72
8
 73
4
 74
0
 40
0
 40
0
 40
0
 40
0
 40
1
 40
1
 40
1
 40
1
 10
101.672862
 20
157.044463
 30
0.0
 10
101.672862
 20
157.176533
 30
0.0
 10
101.595876
 20
157.278337
 30
0.0
 10
101.441903
 20
157.352627
 30
0.0
  0
SPLINE
  5
1a9
100
AcDbEntity
  8
Ebene_1
 62
7
100
AcDbSpline
 70
8
 71
3
 72
8
 73
4
 74
0
 40
0
 40
0
 40
0
 40
0
 40
1
 40
1
 40
1
 40
1
 10
101.441903
 20
157.352627
 30
0.0
 10
101.285180
 20
157.425541
 30
0.0
 10
101.062469
 20
157.462685
 30
0.0
 10
100.776518
 20
157.462685
 30
0.0
  0
SPLINE
  5
1aa
100
AcDbEntity
  8
Ebene_1
 62
7
100
AcDbSpline
 70
8
 71
3
 72
8
 73
4
 74
0
 40
0
 40
0
 40
0
 40
0
 40
1
 40
1
 40
1
 40
1
 10
100.776518
 20
157.462685
 30
0.0
 10
100.490568
 20
157.462685
 30
0.0
 10
100.270606
 20
157.425541
 30
0.0
 10
100.116633
 20
157.352627
 30
0.0
  0
SPLINE
  5
1ab
100
AcDbEntity
  8
Ebene_1
 62
7
100
AcDbSpline
 70
8
 71
3
 72
8
 73
4
 74
0
 40
0
 40
0
 40
0
 40
0
 40
1
 40
1
 40
1
 40
1
 10
100.116633
 20
157.352627
 30
0.0
 10
99.959910
 20
157.278337
 30
0.0
 10
99.880174
 20
157.176533
 30
0.0
 10
99.880174
 20
157.044463
 30
0.0
  0
LWPOLYLINE
  5
1ac
100
AcDbEntity
  8
Ebene_1
 62
7
100
AcDbPolyline
 90
3
 70
0
 10
100.017650
 20
152.608411
 30
0.0
 10
100.369589
 20
152.608411
 30
0.0
 10
100.369589
 20
153.285272
 30
0.0
  0
SPLINE
  5
1ad
100
AcDbEntity
  8
Ebene_1
 62
7
100
AcDbSpline
 70
8
 71
3
 72
8
 73
4
 74
0
 40
0
 40
0
 40
0
 40
0
 40
1
 40
1
 40
1
 40
1
 10
101.914820
 20
157.044463
 30
0.0
 10
101.914820
 20
156.827097
 30
0.0
 10
101.814463
 20
156.655130
 30
0.0
 10
101.612373
 20
156.527187
 30
0.0
  0
SPLINE
  5
1ae
100
AcDbEntity
  8
Ebene_1
 62
7
100
AcDbSpline
 70
8
 71
3
 72
8
 73
4
 74
0
 40
0
 40
0
 40
0
 40
0
 40
1
 40
1
 40
1
 40
1
 10
101.612373
 20
156.527187
 30
0.0
 10
101.407534
 20
156.401995
 30
0.0
 10
101.128457
 20
156.340088
 30
0.0
 10
100.776518
 20
156.340088
 30
0.0
  0
SPLINE
  5
1af
100
AcDbEntity
  8
Ebene_1
 62
7
100
AcDbSpline
 70
8
 71
3
 72
8
 73
4
 74
0
 40
0
 40
0
 40
0
 40
0
 40
1
 40
1
 40
1
 40
1
 10
100.776518
 20
156.340088
 30
0.0
 10
100.424579
 20
156.340088
 30
0.0
 10
100.148252
 20
156.401995
 30
0.0
 10
99.946162
 20
156.527187
 30
0.0
  0
SPLINE
  5
1b0
100
AcDbEntity
  8
Ebene_1
 62
7
100
AcDbSpline
 70
8
 71
3
 72
8
 73
4
 74
0
 40
0
 40
0
 40
0
 40
0
 40
1
 40
1
 40
1
 40
1
 10
99.946162
 20
156.527187
 30
0.0
 10
99.741323
 20
156.655130
 30
0.0
 10
99.638216
 20
156.827097
 30
0.0
 10
99.638216
 20
157.044463
 30
0.0
  0
SPLINE
  5
1b1
100
AcDbEntity
  8
Ebene_1
 62
7
100
AcDbSpline
 70
8
 71
3
 72
8
 73
4
 74
0
 40
0
 40
0
 40
0
 40
0
 40
1
 40
1
 40
1
 40
1
 10
99.638216
 20
157.044463
 30
0.0
 10
99.638216
 20
157.260453
 30
0.0
 10
99.741323
 20
157.431044
 30
0.0
 10
99.946162
 20
157.556235
 30
0.0
  0
SPLINE
  5
1b2
100
AcDbEntity
  8
Ebene_1
 62
7
100
AcDbSpline
 70
8
 71
3
 72
8
 73
4
 74
0
 40
0
 40
0
 40
0
 40
0
 40
1
 40
1
 40
1
 40
1
 10
99.946162
 20
157.556235
 30
0.0
 10
100.148252
 20
157.684178
 30
0.0
 10
100.424579
 20
157.748838
 30
0.0
 10
100.776518
 20
157.748838
 30
0.0
  0
SPLINE
  5
1b3
100
AcDbEntity
  8
Ebene_1
 62
7
100
AcDbSpline
 70
8
 71
3
 72
8
 73
4
 74
0
 40
0
 40
0
 40
0
 40
0
 40
1
 40
1
 40
1
 40
1
 10
100.776518
 20
157.748838
 30
0.0
 10
101.128457
 20
157.748838
 30
0.0
 10
101.407534
 20
157.684178
 30
0.0
 10
101.612373
 20
157.556235
 30
0.0
  0
SPLINE
  5
1b4
100
AcDbEntity
  8
Ebene_1
 62
7
100
AcDbSpline
 70
8
 71
3
 72
8
 73
4
 74
0
 40
0
 40
0
 40
0
 40
0
 40
1
 40
1
 40
1
 40
1
 10
101.612373
 20
157.556235
 30
0.0
 10
101.814463
 20
157.431044
 30
0.0
 10
101.914820
 20
157.260453
 30
0.0
 10
101.914820
 20
157.044463
 30
0.0
  0
LWPOLYLINE
  5
1b5
100
AcDbEntity
  8
Ebene_1
 62
7
100
AcDbPolyline
 90
1
 70
1
 10
99.880174
 20
157.044463
 30
0.0
  0
SPLINE
  5
1b6
100
AcDbEntity
  8
Ebene_1
 62
7
100
AcDbSpline
 70
8
 71
3
 72
8
 73
4
 74
0
 40
0
 40
0
 40
0
 40
0
 40
1
 40
1
 40
1
 40
1
 10
108.354968
 20
243.009206
 30
0.0
 10
108.339846
 20
243.009206
 30
0.0
 10
108.328848
 20
243.006455
 30
0.0
 10
108.321974
 20
243.003703
 30
0.0
  0
SPLINE
  5
1b7
100
AcDbEntity
  8
Ebene_1
 62
7
100
AcDbSpline
 70
8
 71
3
 72
8
 73
4
 74
0
 40
0
 40
0
 40
0
 40
0
 40
1
 40
1
 40
1
 40
1
 10
108.321974
 20
243.003703
 30
0.0
 10
108.313726
 20
243.003703
 30
0.0
 10
108.308226
 20
243.003703
 30
0.0
 10
108.305477
 20
243.003703
 30
0.0
  0
SPLINE
  5
1b8
100
AcDbEntity
  8
Ebene_1
 62
7
100
AcDbSpline
 70
8
 71
3
 72
8
 73
4
 74
0
 40
0
 40
0
 40
0
 40
0
 40
1
 40
1
 40
1
 40
1
 10
108.305477
 20
243.003703
 30
0.0
 10
108.268358
 20
243.003703
 30
0.0
 10
108.239488
 20
243.011957
 30
0.0
 10
108.217492
 20
243.031218
 30
0.0
  0
SPLINE
  5
1b9
100
AcDbEntity
  8
Ebene_1
 62
7
100
AcDbSpline
 70
8
 71
3
 72
8
 73
4
 74
0
 40
0
 40
0
 40
0
 40
0
 40
1
 40
1
 40
1
 40
1
 10
108.217492
 20
243.031218
 30
0.0
 10
108.195496
 20
243.053229
 30
0.0
 10
108.184498
 20
243.080744
 30
0.0
 10
108.184498
 20
243.113762
 30
0.0
  0
SPLINE
  5
1ba
100
AcDbEntity
  8
Ebene_1
 62
7
100
AcDbSpline
 70
8
 71
3
 72
8
 73
4
 74
0
 40
0
 40
0
 40
0
 40
0
 40
1
 40
1
 40
1
 40
1
 10
108.184498
 20
243.113762
 30
0.0
 10
108.184498
 20
243.142652
 30
0.0
 10
108.192747
 20
243.166040
 30
0.0
 10
108.211993
 20
243.185300
 30
0.0
  0
SPLINE
  5
1bb
100
AcDbEntity
  8
Ebene_1
 62
7
100
AcDbSpline
 70
8
 71
3
 72
8
 73
4
 74
0
 40
0
 40
0
 40
0
 40
0
 40
1
 40
1
 40
1
 40
1
 10
108.211993
 20
243.185300
 30
0.0
 10
108.229865
 20
243.207311
 30
0.0
 10
108.257360
 20
243.223820
 30
0.0
 10
108.294479
 20
243.234826
 30
0.0
  0
LWPOLYLINE
  5
1bc
100
AcDbEntity
  8
Ebene_1
 62
7
100
AcDbPolyline
 90
1
 70
1
 10
101.914820
 20
157.044463
 30
0.0
  0
SPLINE
  5
1bd
100
AcDbEntity
  8
Ebene_1
 62
7
100
AcDbSpline
 70
8
 71
3
 72
8
 73
4
 74
0
 40
0
 40
0
 40
0
 40
0
 40
1
 40
1
 40
1
 40
1
 10
108.805890
 20
243.372399
 30
0.0
 10
108.819638
 20
243.375151
 30
0.0
 10
108.833385
 20
243.377902
 30
0.0
 10
108.844383
 20
243.377902
 30
0.0
  0
SPLINE
  5
1be
100
AcDbEntity
  8
Ebene_1
 62
7
100
AcDbSpline
 70
8
 71
3
 72
8
 73
4
 74
0
 40
0
 40
0
 40
0
 40
0
 40
1
 40
1
 40
1
 40
1
 10
108.844383
 20
243.377902
 30
0.0
 10
108.855381
 20
243.380653
 30
0.0
 10
108.867754
 20
243.383405
 30
0.0
 10
108.882877
 20
243.383405
 30
0.0
  0
SPLINE
  5
1bf
100
AcDbEntity
  8
Ebene_1
 62
7
100
AcDbSpline
 70
8
 71
3
 72
8
 73
4
 74
0
 40
0
 40
0
 40
0
 40
0
 40
1
 40
1
 40
1
 40
1
 10
108.882877
 20
243.383405
 30
0.0
 10
108.900748
 20
243.383405
 30
0.0
 10
108.915871
 20
243.372399
 30
0.0
 10
108.926869
 20
243.350388
 30
0.0
  0
SPLINE
  5
1c0
100
AcDbEntity
  8
Ebene_1
 62
7
100
AcDbSpline
 70
8
 71
3
 72
8
 73
4
 74
0
 40
0
 40
0
 40
0
 40
0
 40
1
 40
1
 40
1
 40
1
 10
108.926869
 20
243.350388
 30
0.0
 10
108.940617
 20
243.331127
 30
0.0
 10
108.948865
 20
243.303612
 30
0.0
 10
108.948865
 20
243.267844
 30
0.0
  0
LWPOLYLINE
  5
1c1
100
AcDbEntity
  8
Ebene_1
 62
7
100
AcDbPolyline
 90
2
 70
0
 10
108.294479
 20
243.234826
 30
0.0
 10
108.805890
 20
243.372399
 30
0.0
  0
SPLINE
  5
1c2
100
AcDbEntity
  8
Ebene_1
 62
7
100
AcDbSpline
 70
8
 71
3
 72
8
 73
4
 74
0
 40
0
 40
0
 40
0
 40
0
 40
1
 40
1
 40
1
 40
1
 10
109.223817
 20
241.407853
 30
0.0
 10
109.325550
 20
241.407853
 30
0.0
 10
109.390163
 20
241.398223
 30
0.0
 10
109.416284
 20
241.380338
 30
0.0
  0
SPLINE
  5
1c3
100
AcDbEntity
  8
Ebene_1
 62
7
100
AcDbSpline
 70
8
 71
3
 72
8
 73
4
 74
0
 40
0
 40
0
 40
0
 40
0
 40
1
 40
1
 40
1
 40
1
 10
109.416284
 20
241.380338
 30
0.0
 10
109.445154
 20
241.365205
 30
0.0
 10
109.460276
 20
241.336315
 30
0.0
 10
109.460276
 20
241.292291
 30
0.0
  0
SPLINE
  5
1c4
100
AcDbEntity
  8
Ebene_1
 62
7
100
AcDbSpline
 70
8
 71
3
 72
8
 73
4
 74
0
 40
0
 40
0
 40
0
 40
0
 40
1
 40
1
 40
1
 40
1
 10
109.460276
 20
241.292291
 30
0.0
 10
109.460276
 20
241.248268
 30
0.0
 10
109.449278
 20
241.215250
 30
0.0
 10
109.427282
 20
241.193239
 30
0.0
  0
SPLINE
  5
1c5
100
AcDbEntity
  8
Ebene_1
 62
7
100
AcDbSpline
 70
8
 71
3
 72
8
 73
4
 74
0
 40
0
 40
0
 40
0
 40
0
 40
1
 40
1
 40
1
 40
1
 10
109.427282
 20
241.193239
 30
0.0
 10
109.405286
 20
241.173978
 30
0.0
 10
109.369542
 20
241.165724
 30
0.0
 10
109.322800
 20
241.165724
 30
0.0
  0
LWPOLYLINE
  5
1c6
100
AcDbEntity
  8
Ebene_1
 62
7
100
AcDbPolyline
 90
3
 70
0
 10
108.948865
 20
243.267844
 30
0.0
 10
108.948865
 20
241.407853
 30
0.0
 10
109.223817
 20
241.407853
 30
0.0
  0
SPLINE
  5
1c7
100
AcDbEntity
  8
Ebene_1
 62
7
100
AcDbSpline
 70
8
 71
3
 72
8
 73
4
 74
0
 40
0
 40
0
 40
0
 40
0
 40
1
 40
1
 40
1
 40
1
 10
108.294479
 20
241.165724
 30
0.0
 10
108.250486
 20
241.165724
 30
0.0
 10
108.214743
 20
241.173978
 30
0.0
 10
108.189997
 20
241.193239
 30
0.0
  0
SPLINE
  5
1c8
100
AcDbEntity
  8
Ebene_1
 62
7
100
AcDbSpline
 70
8
 71
3
 72
8
 73
4
 74
0
 40
0
 40
0
 40
0
 40
0
 40
1
 40
1
 40
1
 40
1
 10
108.189997
 20
241.193239
 30
0.0
 10
108.168001
 20
241.215250
 30
0.0
 10
108.157003
 20
241.248268
 30
0.0
 10
108.157003
 20
241.292291
 30
0.0
  0
SPLINE
  5
1c9
100
AcDbEntity
  8
Ebene_1
 62
7
100
AcDbSpline
 70
8
 71
3
 72
8
 73
4
 74
0
 40
0
 40
0
 40
0
 40
0
 40
1
 40
1
 40
1
 40
1
 10
108.157003
 20
241.292291
 30
0.0
 10
108.157003
 20
241.336315
 30
0.0
 10
108.169375
 20
241.365205
 30
0.0
 10
108.195496
 20
241.380338
 30
0.0
  0
SPLINE
  5
1ca
100
AcDbEntity
  8
Ebene_1
 62
7
100
AcDbSpline
 70
8
 71
3
 72
8
 73
4
 74
0
 40
0
 40
0
 40
0
 40
0
 40
1
 40
1
 40
1
 40
1
 10
108.195496
 20
241.380338
 30
0.0
 10
108.224366
 20
241.398223
 30
0.0
 10
108.290354
 20
241.407853
 30
0.0
 10
108.393462
 20
241.407853
 30
0.0
  0
LWPOLYLINE
  5
1cb
100
AcDbEntity
  8
Ebene_1
 62
7
100
AcDbPolyline
 90
2
 70
0
 10
109.322800
 20
241.165724
 30
0.0
 10
108.294479
 20
241.165724
 30
0.0
  0
LWPOLYLINE
  5
1cc
100
AcDbEntity
  8
Ebene_1
 62
7
100
AcDbPolyline
 90
4
 70
0
 10
108.393462
 20
241.407853
 30
0.0
 10
108.679412
 20
241.407853
 30
0.0
 10
108.679412
 20
243.086247
 30
0.0
 10
108.354968
 20
243.009206
 30
0.0
  0
SPLINE
  5
1cd
100
AcDbEntity
  8
Ebene_1
 62
7
100
AcDbSpline
 70
8
 71
3
 72
8
 73
4
 74
0
 40
0
 40
0
 40
0
 40
0
 40
1
 40
1
 40
1
 40
1
 10
110.835384
 20
241.165724
 30
0.0
 10
110.780394
 20
241.165724
 30
0.0
 10
110.743275
 20
241.173978
 30
0.0
 10
110.725403
 20
241.193239
 30
0.0
  0
SPLINE
  5
1ce
100
AcDbEntity
  8
Ebene_1
 62
7
100
AcDbSpline
 70
8
 71
3
 72
8
 73
4
 74
0
 40
0
 40
0
 40
0
 40
0
 40
1
 40
1
 40
1
 40
1
 10
110.725403
 20
241.193239
 30
0.0
 10
110.706156
 20
241.211123
 30
0.0
 10
110.697908
 20
241.244141
 30
0.0
 10
110.697908
 20
241.292291
 30
0.0
  0
SPLINE
  5
1cf
100
AcDbEntity
  8
Ebene_1
 62
7
100
AcDbSpline
 70
8
 71
3
 72
8
 73
4
 74
0
 40
0
 40
0
 40
0
 40
0
 40
1
 40
1
 40
1
 40
1
 10
110.697908
 20
241.292291
 30
0.0
 10
110.697908
 20
241.332188
 30
0.0
 10
110.706156
 20
241.361078
 30
0.0
 10
110.725403
 20
241.380338
 30
0.0
  0
SPLINE
  5
1d0
100
AcDbEntity
  8
Ebene_1
 62
7
100
AcDbSpline
 70
8
 71
3
 72
8
 73
4
 74
0
 40
0
 40
0
 40
0
 40
0
 40
1
 40
1
 40
1
 40
1
 10
110.725403
 20
241.380338
 30
0.0
 10
110.747400
 20
241.398223
 30
0.0
 10
110.780394
 20
241.407853
 30
0.0
 10
110.824386
 20
241.407853
 30
0.0
  0
LWPOLYLINE
  5
1d1
100
AcDbEntity
  8
Ebene_1
 62
7
100
AcDbPolyline
 90
3
 70
1
 10
111.022352
 20
241.958146
 30
0.0
 10
111.022352
 20
243.124767
 30
0.0
 10
110.373464
 20
241.958146
 30
0.0
  0
SPLINE
  5
1d2
100
AcDbEntity
  8
Ebene_1
 62
7
100
AcDbSpline
 70
8
 71
3
 72
8
 73
4
 74
0
 40
0
 40
0
 40
0
 40
0
 40
1
 40
1
 40
1
 40
1
 10
110.219491
 20
241.699508
 30
0.0
 10
110.189246
 20
241.699508
 30
0.0
 10
110.167250
 20
241.707763
 30
0.0
 10
110.153503
 20
241.727023
 30
0.0
  0
SPLINE
  5
1d3
100
AcDbEntity
  8
Ebene_1
 62
7
100
AcDbSpline
 70
8
 71
3
 72
8
 73
4
 74
0
 40
0
 40
0
 40
0
 40
0
 40
1
 40
1
 40
1
 40
1
 10
110.153503
 20
241.727023
 30
0.0
 10
110.138380
 20
241.744907
 30
0.0
 10
110.131507
 20
241.771046
 30
0.0
 10
110.131507
 20
241.804064
 30
0.0
  0
LWPOLYLINE
  5
1d4
100
AcDbEntity
  8
Ebene_1
 62
7
100
AcDbPolyline
 90
4
 70
0
 10
110.824386
 20
241.407853
 30
0.0
 10
111.022352
 20
241.407853
 30
0.0
 10
111.022352
 20
241.699508
 30
0.0
 10
110.219491
 20
241.699508
 30
0.0
  0
SPLINE
  5
1d5
100
AcDbEntity
  8
Ebene_1
 62
7
100
AcDbSpline
 70
8
 71
3
 72
8
 73
4
 74
0
 40
0
 40
0
 40
0
 40
0
 40
1
 40
1
 40
1
 40
1
 10
110.131507
 20
241.925128
 30
0.0
 10
110.131507
 20
241.969152
 30
0.0
 10
110.148004
 20
242.015927
 30
0.0
 10
110.180998
 20
242.068205
 30
0.0
  0
SPLINE
  5
1d6
100
AcDbEntity
  8
Ebene_1
 62
7
100
AcDbSpline
 70
8
 71
3
 72
8
 73
4
 74
0
 40
0
 40
0
 40
0
 40
0
 40
1
 40
1
 40
1
 40
1
 10
110.180998
 20
242.068205
 30
0.0
 10
110.183747
 20
242.075083
 30
0.0
 10
110.187872
 20
242.081962
 30
0.0
 10
110.191996
 20
242.090216
 30
0.0
  0
LWPOLYLINE
  5
1d7
100
AcDbEntity
  8
Ebene_1
 62
7
100
AcDbPolyline
 90
2
 70
0
 10
110.131507
 20
241.804064
 30
0.0
 10
110.131507
 20
241.925128
 30
0.0
  0
SPLINE
  5
1d8
100
AcDbEntity
  8
Ebene_1
 62
7
100
AcDbSpline
 70
8
 71
3
 72
8
 73
4
 74
0
 40
0
 40
0
 40
0
 40
0
 40
1
 40
1
 40
1
 40
1
 10
110.917870
 20
243.322873
 30
0.0
 10
110.931618
 20
243.347636
 30
0.0
 10
110.945365
 20
243.364145
 30
0.0
 10
110.956363
 20
243.372399
 30
0.0
  0
SPLINE
  5
1d9
100
AcDbEntity
  8
Ebene_1
 62
7
100
AcDbSpline
 70
8
 71
3
 72
8
 73
4
 74
0
 40
0
 40
0
 40
0
 40
0
 40
1
 40
1
 40
1
 40
1
 10
110.956363
 20
243.372399
 30
0.0
 10
110.967361
 20
243.383405
 30
0.0
 10
110.981109
 20
243.388908
 30
0.0
 10
111.000356
 20
243.388908
 30
0.0
  0
SPLINE
  5
1da
100
AcDbEntity
  8
Ebene_1
 62
7
100
AcDbSpline
 70
8
 71
3
 72
8
 73
4
 74
0
 40
0
 40
0
 40
0
 40
0
 40
1
 40
1
 40
1
 40
1
 10
111.000356
 20
243.388908
 30
0.0
 10
111.007229
 20
243.388908
 30
0.0
 10
111.018227
 20
243.386157
 30
0.0
 10
111.033350
 20
243.383405
 30
0.0
  0
SPLINE
  5
1db
100
AcDbEntity
  8
Ebene_1
 62
7
100
AcDbSpline
 70
8
 71
3
 72
8
 73
4
 74
0
 40
0
 40
0
 40
0
 40
0
 40
1
 40
1
 40
1
 40
1
 10
111.033350
 20
243.383405
 30
0.0
 10
111.040224
 20
243.383405
 30
0.0
 10
111.045723
 20
243.383405
 30
0.0
 10
111.049847
 20
243.383405
 30
0.0
  0
LWPOLYLINE
  5
1dc
100
AcDbEntity
  8
Ebene_1
 62
7
100
AcDbPolyline
 90
2
 70
0
 10
110.191996
 20
242.090216
 30
0.0
 10
110.917870
 20
243.322873
 30
0.0
  0
SPLINE
  5
1dd
100
AcDbEntity
  8
Ebene_1
 62
7
100
AcDbSpline
 70
8
 71
3
 72
8
 73
4
 74
0
 40
0
 40
0
 40
0
 40
0
 40
1
 40
1
 40
1
 40
1
 10
111.225816
 20
243.355890
 30
0.0
 10
111.239564
 20
243.351763
 30
0.0
 10
111.250562
 20
243.340757
 30
0.0
 10
111.258811
 20
243.322873
 30
0.0
  0
SPLINE
  5
1de
100
AcDbEntity
  8
Ebene_1
 62
7
100
AcDbSpline
 70
8
 71
3
 72
8
 73
4
 74
0
 40
0
 40
0
 40
0
 40
0
 40
1
 40
1
 40
1
 40
1
 10
111.258811
 20
243.322873
 30
0.0
 10
111.269809
 20
243.307740
 30
0.0
 10
111.275308
 20
243.289855
 30
0.0
 10
111.275308
 20
243.267844
 30
0.0
  0
LWPOLYLINE
  5
1df
100
AcDbEntity
  8
Ebene_1
 62
7
100
AcDbPolyline
 90
2
 70
0
 10
111.049847
 20
243.383405
 30
0.0
 10
111.225816
 20
243.355890
 30
0.0
  0
SPLINE
  5
1e0
100
AcDbEntity
  8
Ebene_1
 62
7
100
AcDbSpline
 70
8
 71
3
 72
8
 73
4
 74
0
 40
0
 40
0
 40
0
 40
0
 40
1
 40
1
 40
1
 40
1
 10
111.363293
 20
241.958146
 30
0.0
 10
111.388038
 20
241.958146
 30
0.0
 10
111.408660
 20
241.966401
 30
0.0
 10
111.423782
 20
241.985661
 30
0.0
  0
SPLINE
  5
1e1
100
AcDbEntity
  8
Ebene_1
 62
7
100
AcDbSpline
 70
8
 71
3
 72
8
 73
4
 74
0
 40
0
 40
0
 40
0
 40
0
 40
1
 40
1
 40
1
 40
1
 10
111.423782
 20
241.985661
 30
0.0
 10
111.437530
 20
242.007672
 30
0.0
 10
111.452652
 20
242.018678
 30
0.0
 10
111.467774
 20
242.018678
 30
0.0
  0
SPLINE
  5
1e2
100
AcDbEntity
  8
Ebene_1
 62
7
100
AcDbSpline
 70
8
 71
3
 72
8
 73
4
 74
0
 40
0
 40
0
 40
0
 40
0
 40
1
 40
1
 40
1
 40
1
 10
111.467774
 20
242.018678
 30
0.0
 10
111.492520
 20
242.018678
 30
0.0
 10
111.513141
 20
242.009048
 30
0.0
 10
111.528264
 20
241.991164
 30
0.0
  0
SPLINE
  5
1e3
100
AcDbEntity
  8
Ebene_1
 62
7
100
AcDbSpline
 70
8
 71
3
 72
8
 73
4
 74
0
 40
0
 40
0
 40
0
 40
0
 40
1
 40
1
 40
1
 40
1
 10
111.528264
 20
241.991164
 30
0.0
 10
111.542011
 20
241.976030
 30
0.0
 10
111.550260
 20
241.955395
 30
0.0
 10
111.550260
 20
241.930631
 30
0.0
  0
SPLINE
  5
1e4
100
AcDbEntity
  8
Ebene_1
 62
7
100
AcDbSpline
 70
8
 71
3
 72
8
 73
4
 74
0
 40
0
 40
0
 40
0
 40
0
 40
1
 40
1
 40
1
 40
1
 10
111.550260
 20
241.930631
 30
0.0
 10
111.550260
 20
241.919626
 30
0.0
 10
111.550260
 20
241.908620
 30
0.0
 10
111.550260
 20
241.897614
 30
0.0
  0
SPLINE
  5
1e5
100
AcDbEntity
  8
Ebene_1
 62
7
100
AcDbSpline
 70
8
 71
3
 72
8
 73
4
 74
0
 40
0
 40
0
 40
0
 40
0
 40
1
 40
1
 40
1
 40
1
 10
111.550260
 20
241.897614
 30
0.0
 10
111.550260
 20
241.889360
 30
0.0
 10
111.547511
 20
241.882481
 30
0.0
 10
111.544761
 20
241.875602
 30
0.0
  0
LWPOLYLINE
  5
1e6
100
AcDbEntity
  8
Ebene_1
 62
7
100
AcDbPolyline
 90
3
 70
0
 10
111.275308
 20
243.267844
 30
0.0
 10
111.275308
 20
241.958146
 30
0.0
 10
111.363293
 20
241.958146
 30
0.0
  0
SPLINE
  5
1e7
100
AcDbEntity
  8
Ebene_1
 62
7
100
AcDbSpline
 70
8
 71
3
 72
8
 73
4
 74
0
 40
0
 40
0
 40
0
 40
0
 40
1
 40
1
 40
1
 40
1
 10
111.528264
 20
241.804064
 30
0.0
 10
111.520015
 20
241.762792
 30
0.0
 10
111.509017
 20
241.735278
 30
0.0
 10
111.495270
 20
241.721520
 30
0.0
  0
SPLINE
  5
1e8
100
AcDbEntity
  8
Ebene_1
 62
7
100
AcDbSpline
 70
8
 71
3
 72
8
 73
4
 74
0
 40
0
 40
0
 40
0
 40
0
 40
1
 40
1
 40
1
 40
1
 10
111.495270
 20
241.721520
 30
0.0
 10
111.480147
 20
241.706387
 30
0.0
 10
111.456776
 20
241.699508
 30
0.0
 10
111.423782
 20
241.699508
 30
0.0
  0
LWPOLYLINE
  5
1e9
100
AcDbEntity
  8
Ebene_1
 62
7
100
AcDbPolyline
 90
2
 70
0
 10
111.544761
 20
241.875602
 30
0.0
 10
111.528264
 20
241.804064
 30
0.0
  0
SPLINE
  5
1ea
100
AcDbEntity
  8
Ebene_1
 62
7
100
AcDbSpline
 70
8
 71
3
 72
8
 73
4
 74
0
 40
0
 40
0
 40
0
 40
0
 40
1
 40
1
 40
1
 40
1
 10
111.335797
 20
241.407853
 30
0.0
 10
111.408660
 20
241.407853
 30
0.0
 10
111.458151
 20
241.398223
 30
0.0
 10
111.484271
 20
241.380338
 30
0.0
  0
SPLINE
  5
1eb
100
AcDbEntity
  8
Ebene_1
 62
7
100
AcDbSpline
 70
8
 71
3
 72
8
 73
4
 74
0
 40
0
 40
0
 40
0
 40
0
 40
1
 40
1
 40
1
 40
1
 10
111.484271
 20
241.380338
 30
0.0
 10
111.513141
 20
241.361078
 30
0.0
 10
111.528264
 20
241.332188
 30
0.0
 10
111.528264
 20
241.292291
 30
0.0
  0
SPLINE
  5
1ec
100
AcDbEntity
  8
Ebene_1
 62
7
100
AcDbSpline
 70
8
 71
3
 72
8
 73
4
 74
0
 40
0
 40
0
 40
0
 40
0
 40
1
 40
1
 40
1
 40
1
 10
111.528264
 20
241.292291
 30
0.0
 10
111.528264
 20
241.248268
 30
0.0
 10
111.517266
 20
241.215250
 30
0.0
 10
111.495270
 20
241.193239
 30
0.0
  0
SPLINE
  5
1ed
100
AcDbEntity
  8
Ebene_1
 62
7
100
AcDbSpline
 70
8
 71
3
 72
8
 73
4
 74
0
 40
0
 40
0
 40
0
 40
0
 40
1
 40
1
 40
1
 40
1
 10
111.495270
 20
241.193239
 30
0.0
 10
111.473273
 20
241.173978
 30
0.0
 10
111.437530
 20
241.165724
 30
0.0
 10
111.390788
 20
241.165724
 30
0.0
  0
LWPOLYLINE
  5
1ee
100
AcDbEntity
  8
Ebene_1
 62
7
100
AcDbPolyline
 90
4
 70
0
 10
111.423782
 20
241.699508
 30
0.0
 10
111.275308
 20
241.699508
 30
0.0
 10
111.275308
 20
241.407853
 30
0.0
 10
111.335797
 20
241.407853
 30
0.0
  0
SPLINE
  5
1ef
100
AcDbEntity
  8
Ebene_1
 62
7
100
AcDbSpline
 70
8
 71
3
 72
8
 73
4
 74
0
 40
0
 40
0
 40
0
 40
0
 40
1
 40
1
 40
1
 40
1
 10
112.573439
 20
241.760041
 30
0.0
 10
112.573439
 20
241.634849
 30
0.0
 10
112.611932
 20
241.534420
 30
0.0
 10
112.688919
 20
241.457379
 30
0.0
  0
SPLINE
  5
1f0
100
AcDbEntity
  8
Ebene_1
 62
7
100
AcDbSpline
 70
8
 71
3
 72
8
 73
4
 74
0
 40
0
 40
0
 40
0
 40
0
 40
1
 40
1
 40
1
 40
1
 10
112.688919
 20
241.457379
 30
0.0
 10
112.765906
 20
241.383090
 30
0.0
 10
112.866263
 20
241.347321
 30
0.0
 10
112.991367
 20
241.347321
 30
0.0
  0
SPLINE
  5
1f1
100
AcDbEntity
  8
Ebene_1
 62
7
100
AcDbSpline
 70
8
 71
3
 72
8
 73
4
 74
0
 40
0
 40
0
 40
0
 40
0
 40
1
 40
1
 40
1
 40
1
 10
112.991367
 20
241.347321
 30
0.0
 10
113.119219
 20
241.347321
 30
0.0
 10
113.219577
 20
241.383090
 30
0.0
 10
113.293814
 20
241.457379
 30
0.0
  0
SPLINE
  5
1f2
100
AcDbEntity
  8
Ebene_1
 62
7
100
AcDbSpline
 70
8
 71
3
 72
8
 73
4
 74
0
 40
0
 40
0
 40
0
 40
0
 40
1
 40
1
 40
1
 40
1
 10
113.293814
 20
241.457379
 30
0.0
 10
113.370801
 20
241.530293
 30
0.0
 10
113.409294
 20
241.627970
 30
0.0
 10
113.409294
 20
241.749035
 30
0.0
  0
SPLINE
  5
1f3
100
AcDbEntity
  8
Ebene_1
 62
7
100
AcDbSpline
 70
8
 71
3
 72
8
 73
4
 74
0
 40
0
 40
0
 40
0
 40
0
 40
1
 40
1
 40
1
 40
1
 10
113.409294
 20
241.749035
 30
0.0
 10
113.409294
 20
241.870099
 30
0.0
 10
113.370801
 20
241.966401
 30
0.0
 10
113.293814
 20
242.040690
 30
0.0
  0
SPLINE
  5
1f4
100
AcDbEntity
  8
Ebene_1
 62
7
100
AcDbSpline
 70
8
 71
3
 72
8
 73
4
 74
0
 40
0
 40
0
 40
0
 40
0
 40
1
 40
1
 40
1
 40
1
 10
113.293814
 20
242.040690
 30
0.0
 10
113.216827
 20
242.113604
 30
0.0
 10
113.115095
 20
242.150749
 30
0.0
 10
112.991367
 20
242.150749
 30
0.0
  0
SPLINE
  5
1f5
100
AcDbEntity
  8
Ebene_1
 62
7
100
AcDbSpline
 70
8
 71
3
 72
8
 73
4
 74
0
 40
0
 40
0
 40
0
 40
0
 40
1
 40
1
 40
1
 40
1
 10
112.991367
 20
242.150749
 30
0.0
 10
112.866263
 20
242.150749
 30
0.0
 10
112.765906
 20
242.113604
 30
0.0
 10
112.688919
 20
242.040690
 30
0.0
  0
SPLINE
  5
1f6
100
AcDbEntity
  8
Ebene_1
 62
7
100
AcDbSpline
 70
8
 71
3
 72
8
 73
4
 74
0
 40
0
 40
0
 40
0
 40
0
 40
1
 40
1
 40
1
 40
1
 10
112.688919
 20
242.040690
 30
0.0
 10
112.611932
 20
241.966401
 30
0.0
 10
112.573439
 20
241.872850
 30
0.0
 10
112.573439
 20
241.760041
 30
0.0
  0
LWPOLYLINE
  5
1f7
100
AcDbEntity
  8
Ebene_1
 62
7
100
AcDbPolyline
 90
2
 70
0
 10
111.390788
 20
241.165724
 30
0.0
 10
110.835384
 20
241.165724
 30
0.0
  0
SPLINE
  5
1f8
100
AcDbEntity
  8
Ebene_1
 62
7
100
AcDbSpline
 70
8
 71
3
 72
8
 73
4
 74
0
 40
0
 40
0
 40
0
 40
0
 40
1
 40
1
 40
1
 40
1
 10
112.589936
 20
242.783586
 30
0.0
 10
112.589936
 20
242.669400
 30
0.0
 10
112.625680
 20
242.575850
 30
0.0
 10
112.699917
 20
242.502936
 30
0.0
  0
SPLINE
  5
1f9
100
AcDbEntity
  8
Ebene_1
 62
7
100
AcDbSpline
 70
8
 71
3
 72
8
 73
4
 74
0
 40
0
 40
0
 40
0
 40
0
 40
1
 40
1
 40
1
 40
1
 10
112.699917
 20
242.502936
 30
0.0
 10
112.776904
 20
242.428647
 30
0.0
 10
112.873137
 20
242.392878
 30
0.0
 10
112.991367
 20
242.392878
 30
0.0
  0
SPLINE
  5
1fa
100
AcDbEntity
  8
Ebene_1
 62
7
100
AcDbSpline
 70
8
 71
3
 72
8
 73
4
 74
0
 40
0
 40
0
 40
0
 40
0
 40
1
 40
1
 40
1
 40
1
 10
112.991367
 20
242.392878
 30
0.0
 10
113.108221
 20
242.392878
 30
0.0
 10
113.203080
 20
242.428647
 30
0.0
 10
113.277317
 20
242.502936
 30
0.0
  0
SPLINE
  5
1fb
100
AcDbEntity
  8
Ebene_1
 62
7
100
AcDbSpline
 70
8
 71
3
 72
8
 73
4
 74
0
 40
0
 40
0
 40
0
 40
0
 40
1
 40
1
 40
1
 40
1
 10
113.277317
 20
242.502936
 30
0.0
 10
113.354304
 20
242.575850
 30
0.0
 10
113.392797
 20
242.669400
 30
0.0
 10
113.392797
 20
242.783586
 30
0.0
  0
SPLINE
  5
1fc
100
AcDbEntity
  8
Ebene_1
 62
7
100
AcDbSpline
 70
8
 71
3
 72
8
 73
4
 74
0
 40
0
 40
0
 40
0
 40
0
 40
1
 40
1
 40
1
 40
1
 10
113.392797
 20
242.783586
 30
0.0
 10
113.392797
 20
242.893644
 30
0.0
 10
113.354304
 20
242.983067
 30
0.0
 10
113.277317
 20
243.053229
 30
0.0
  0
SPLINE
  5
1fd
100
AcDbEntity
  8
Ebene_1
 62
7
100
AcDbSpline
 70
8
 71
3
 72
8
 73
4
 74
0
 40
0
 40
0
 40
0
 40
0
 40
1
 40
1
 40
1
 40
1
 10
113.277317
 20
243.053229
 30
0.0
 10
113.203080
 20
243.126143
 30
0.0
 10
113.108221
 20
243.163288
 30
0.0
 10
112.991367
 20
243.163288
 30
0.0
  0
SPLINE
  5
1fe
100
AcDbEntity
  8
Ebene_1
 62
7
100
AcDbSpline
 70
8
 71
3
 72
8
 73
4
 74
0
 40
0
 40
0
 40
0
 40
0
 40
1
 40
1
 40
1
 40
1
 10
112.991367
 20
243.163288
 30
0.0
 10
112.873137
 20
243.163288
 30
0.0
 10
112.776904
 20
243.126143
 30
0.0
 10
112.699917
 20
243.053229
 30
0.0
  0
SPLINE
  5
1ff
100
AcDbEntity
  8
Ebene_1
 62
7
100
AcDbSpline
 70
8
 71
3
 72
8
 73
4
 74
0
 40
0
 40
0
 40
0
 40
0
 40
1
 40
1
 40
1
 40
1
 10
112.699917
 20
243.053229
 30
0.0
 10
112.625680
 20
242.983067
 30
0.0
 10
112.589936
 20
242.893644
 30
0.0
 10
112.589936
 20
242.783586
 30
0.0
  0
LWPOLYLINE
  5
200
100
AcDbEntity
  8
Ebene_1
 62
7
100
AcDbPolyline
 90
1
 70
1
 10
112.573439
 20
241.760041
 30
0.0
  0
SPLINE
  5
201
100
AcDbEntity
  8
Ebene_1
 62
7
100
AcDbSpline
 70
8
 71
3
 72
8
 73
4
 74
0
 40
0
 40
0
 40
0
 40
0
 40
1
 40
1
 40
1
 40
1
 10
112.644927
 20
242.277316
 30
0.0
 10
112.534946
 20
242.332345
 30
0.0
 10
112.449711
 20
242.401132
 30
0.0
 10
112.391971
 20
242.486427
 30
0.0
  0
SPLINE
  5
202
100
AcDbEntity
  8
Ebene_1
 62
7
100
AcDbSpline
 70
8
 71
3
 72
8
 73
4
 74
0
 40
0
 40
0
 40
0
 40
0
 40
1
 40
1
 40
1
 40
1
 10
112.391971
 20
242.486427
 30
0.0
 10
112.336980
 20
242.570347
 30
0.0
 10
112.309485
 20
242.669400
 30
0.0
 10
112.309485
 20
242.783586
 30
0.0
  0
SPLINE
  5
203
100
AcDbEntity
  8
Ebene_1
 62
7
100
AcDbSpline
 70
8
 71
3
 72
8
 73
4
 74
0
 40
0
 40
0
 40
0
 40
0
 40
1
 40
1
 40
1
 40
1
 10
112.309485
 20
242.783586
 30
0.0
 10
112.309485
 20
242.959679
 30
0.0
 10
112.372724
 20
243.104131
 30
0.0
 10
112.501952
 20
243.218317
 30
0.0
  0
SPLINE
  5
204
100
AcDbEntity
  8
Ebene_1
 62
7
100
AcDbSpline
 70
8
 71
3
 72
8
 73
4
 74
0
 40
0
 40
0
 40
0
 40
0
 40
1
 40
1
 40
1
 40
1
 10
112.501952
 20
243.218317
 30
0.0
 10
112.629804
 20
243.331127
 30
0.0
 10
112.793401
 20
243.388908
 30
0.0
 10
112.991367
 20
243.388908
 30
0.0
  0
SPLINE
  5
205
100
AcDbEntity
  8
Ebene_1
 62
7
100
AcDbSpline
 70
8
 71
3
 72
8
 73
4
 74
0
 40
0
 40
0
 40
0
 40
0
 40
1
 40
1
 40
1
 40
1
 10
112.991367
 20
243.388908
 30
0.0
 10
113.185208
 20
243.388908
 30
0.0
 10
113.346055
 20
243.331127
 30
0.0
 10
113.475283
 20
243.218317
 30
0.0
  0
SPLINE
  5
206
100
AcDbEntity
  8
Ebene_1
 62
7
100
AcDbSpline
 70
8
 71
3
 72
8
 73
4
 74
0
 40
0
 40
0
 40
0
 40
0
 40
1
 40
1
 40
1
 40
1
 10
113.475283
 20
243.218317
 30
0.0
 10
113.607260
 20
243.104131
 30
0.0
 10
113.673248
 20
242.965182
 30
0.0
 10
113.673248
 20
242.800094
 30
0.0
  0
SPLINE
  5
207
100
AcDbEntity
  8
Ebene_1
 62
7
100
AcDbSpline
 70
8
 71
3
 72
8
 73
4
 74
0
 40
0
 40
0
 40
0
 40
0
 40
1
 40
1
 40
1
 40
1
 10
113.673248
 20
242.800094
 30
0.0
 10
113.673248
 20
242.674903
 30
0.0
 10
113.645753
 20
242.570347
 30
0.0
 10
113.590762
 20
242.486427
 30
0.0
  0
SPLINE
  5
208
100
AcDbEntity
  8
Ebene_1
 62
7
100
AcDbSpline
 70
8
 71
3
 72
8
 73
4
 74
0
 40
0
 40
0
 40
0
 40
0
 40
1
 40
1
 40
1
 40
1
 10
113.590762
 20
242.486427
 30
0.0
 10
113.535772
 20
242.401132
 30
0.0
 10
113.449162
 20
242.332345
 30
0.0
 10
113.332307
 20
242.277316
 30
0.0
  0
SPLINE
  5
209
100
AcDbEntity
  8
Ebene_1
 62
7
100
AcDbSpline
 70
8
 71
3
 72
8
 73
4
 74
0
 40
0
 40
0
 40
0
 40
0
 40
1
 40
1
 40
1
 40
1
 10
113.332307
 20
242.277316
 30
0.0
 10
113.449162
 20
242.229165
 30
0.0
 10
113.537147
 20
242.159003
 30
0.0
 10
113.596261
 20
242.068205
 30
0.0
  0
SPLINE
  5
20a
100
AcDbEntity
  8
Ebene_1
 62
7
100
AcDbSpline
 70
8
 71
3
 72
8
 73
4
 74
0
 40
0
 40
0
 40
0
 40
0
 40
1
 40
1
 40
1
 40
1
 10
113.596261
 20
242.068205
 30
0.0
 10
113.658126
 20
241.980158
 30
0.0
 10
113.689745
 20
241.872850
 30
0.0
 10
113.689745
 20
241.749035
 30
0.0
  0
SPLINE
  5
20b
100
AcDbEntity
  8
Ebene_1
 62
7
100
AcDbSpline
 70
8
 71
3
 72
8
 73
4
 74
0
 40
0
 40
0
 40
0
 40
0
 40
1
 40
1
 40
1
 40
1
 10
113.689745
 20
241.749035
 30
0.0
 10
113.689745
 20
241.561935
 30
0.0
 10
113.623757
 20
241.407853
 30
0.0
 10
113.491780
 20
241.286788
 30
0.0
  0
SPLINE
  5
20c
100
AcDbEntity
  8
Ebene_1
 62
7
100
AcDbSpline
 70
8
 71
3
 72
8
 73
4
 74
0
 40
0
 40
0
 40
0
 40
0
 40
1
 40
1
 40
1
 40
1
 10
113.491780
 20
241.286788
 30
0.0
 10
113.362552
 20
241.168475
 30
0.0
 10
113.196206
 20
241.110695
 30
0.0
 10
112.991367
 20
241.110695
 30
0.0
  0
SPLINE
  5
20d
100
AcDbEntity
  8
Ebene_1
 62
7
100
AcDbSpline
 70
8
 71
3
 72
8
 73
4
 74
0
 40
0
 40
0
 40
0
 40
0
 40
1
 40
1
 40
1
 40
1
 10
112.991367
 20
241.110695
 30
0.0
 10
112.782403
 20
241.110695
 30
0.0
 10
112.613307
 20
241.168475
 30
0.0
 10
112.485454
 20
241.286788
 30
0.0
  0
SPLINE
  5
20e
100
AcDbEntity
  8
Ebene_1
 62
7
100
AcDbSpline
 70
8
 71
3
 72
8
 73
4
 74
0
 40
0
 40
0
 40
0
 40
0
 40
1
 40
1
 40
1
 40
1
 10
112.485454
 20
241.286788
 30
0.0
 10
112.356227
 20
241.407853
 30
0.0
 10
112.292988
 20
241.564686
 30
0.0
 10
112.292988
 20
241.760041
 30
0.0
  0
SPLINE
  5
20f
100
AcDbEntity
  8
Ebene_1
 62
7
100
AcDbSpline
 70
8
 71
3
 72
8
 73
4
 74
0
 40
0
 40
0
 40
0
 40
0
 40
1
 40
1
 40
1
 40
1
 10
112.292988
 20
241.760041
 30
0.0
 10
112.292988
 20
241.872850
 30
0.0
 10
112.321858
 20
241.976030
 30
0.0
 10
112.380973
 20
242.068205
 30
0.0
  0
SPLINE
  5
210
100
AcDbEntity
  8
Ebene_1
 62
7
100
AcDbSpline
 70
8
 71
3
 72
8
 73
4
 74
0
 40
0
 40
0
 40
0
 40
0
 40
1
 40
1
 40
1
 40
1
 10
112.380973
 20
242.068205
 30
0.0
 10
112.442837
 20
242.159003
 30
0.0
 10
112.530822
 20
242.229165
 30
0.0
 10
112.644927
 20
242.277316
 30
0.0
  0
LWPOLYLINE
  5
211
100
AcDbEntity
  8
Ebene_1
 62
7
100
AcDbPolyline
 90
1
 70
1
 10
112.589936
 20
242.783586
 30
0.0
  0
SPLINE
  5
212
100
AcDbEntity
  8
Ebene_1
 62
7
100
AcDbSpline
 70
8
 71
3
 72
8
 73
4
 74
0
 40
0
 40
0
 40
0
 40
0
 40
1
 40
1
 40
1
 40
1
 10
117.853226
 20
242.123234
 30
0.0
 10
117.853226
 20
242.284195
 30
0.0
 10
117.838103
 20
242.392878
 30
0.0
 10
117.809233
 20
242.447907
 30
0.0
  0
SPLINE
  5
213
100
AcDbEntity
  8
Ebene_1
 62
7
100
AcDbSpline
 70
8
 71
3
 72
8
 73
4
 74
0
 40
0
 40
0
 40
0
 40
0
 40
1
 40
1
 40
1
 40
1
 10
117.809233
 20
242.447907
 30
0.0
 10
117.778988
 20
242.505688
 30
0.0
 10
117.729497
 20
242.535954
 30
0.0
 10
117.660759
 20
242.535954
 30
0.0
  0
SPLINE
  5
214
100
AcDbEntity
  8
Ebene_1
 62
7
100
AcDbSpline
 70
8
 71
3
 72
8
 73
4
 74
0
 40
0
 40
0
 40
0
 40
0
 40
1
 40
1
 40
1
 40
1
 10
117.660759
 20
242.535954
 30
0.0
 10
117.572774
 20
242.535954
 30
0.0
 10
117.502662
 20
242.498809
 30
0.0
 10
117.451796
 20
242.425895
 30
0.0
  0
SPLINE
  5
215
100
AcDbEntity
  8
Ebene_1
 62
7
100
AcDbSpline
 70
8
 71
3
 72
8
 73
4
 74
0
 40
0
 40
0
 40
0
 40
0
 40
1
 40
1
 40
1
 40
1
 10
117.451796
 20
242.425895
 30
0.0
 10
117.403679
 20
242.351606
 30
0.0
 10
117.380308
 20
242.251177
 30
0.0
 10
117.380308
 20
242.123234
 30
0.0
  0
LWPOLYLINE
  5
216
100
AcDbEntity
  8
Ebene_1
 62
7
100
AcDbPolyline
 90
1
 70
1
 10
112.644927
 20
242.277316
 30
0.0
  0
SPLINE
  5
217
100
AcDbEntity
  8
Ebene_1
 62
7
100
AcDbSpline
 70
8
 71
3
 72
8
 73
4
 74
0
 40
0
 40
0
 40
0
 40
0
 40
1
 40
1
 40
1
 40
1
 10
117.413302
 20
241.407853
 30
0.0
 10
117.482040
 20
241.407853
 30
0.0
 10
117.528782
 20
241.398223
 30
0.0
 10
117.550778
 20
241.380338
 30
0.0
  0
SPLINE
  5
218
100
AcDbEntity
  8
Ebene_1
 62
7
100
AcDbSpline
 70
8
 71
3
 72
8
 73
4
 74
0
 40
0
 40
0
 40
0
 40
0
 40
1
 40
1
 40
1
 40
1
 10
117.550778
 20
241.380338
 30
0.0
 10
117.575524
 20
241.365205
 30
0.0
 10
117.589272
 20
241.336315
 30
0.0
 10
117.589272
 20
241.292291
 30
0.0
  0
SPLINE
  5
219
100
AcDbEntity
  8
Ebene_1
 62
7
100
AcDbSpline
 70
8
 71
3
 72
8
 73
4
 74
0
 40
0
 40
0
 40
0
 40
0
 40
1
 40
1
 40
1
 40
1
 10
117.589272
 20
241.292291
 30
0.0
 10
117.589272
 20
241.248268
 30
0.0
 10
117.578274
 20
241.215250
 30
0.0
 10
117.556277
 20
241.193239
 30
0.0
  0
SPLINE
  5
21a
100
AcDbEntity
  8
Ebene_1
 62
7
100
AcDbSpline
 70
8
 71
3
 72
8
 73
4
 74
0
 40
0
 40
0
 40
0
 40
0
 40
1
 40
1
 40
1
 40
1
 10
117.556277
 20
241.193239
 30
0.0
 10
117.537031
 20
241.173978
 30
0.0
 10
117.508161
 20
241.165724
 30
0.0
 10
117.468293
 20
241.165724
 30
0.0
  0
LWPOLYLINE
  5
21b
100
AcDbEntity
  8
Ebene_1
 62
7
100
AcDbPolyline
 90
3
 70
0
 10
117.380308
 20
242.123234
 30
0.0
 10
117.380308
 20
241.407853
 30
0.0
 10
117.413302
 20
241.407853
 30
0.0
  0
SPLINE
  5
21c
100
AcDbEntity
  8
Ebene_1
 62
7
100
AcDbSpline
 70
8
 71
3
 72
8
 73
4
 74
0
 40
0
 40
0
 40
0
 40
0
 40
1
 40
1
 40
1
 40
1
 10
117.248331
 20
241.165724
 30
0.0
 10
117.200214
 20
241.165724
 30
0.0
 10
117.167220
 20
241.176730
 30
0.0
 10
117.149348
 20
241.198742
 30
0.0
  0
SPLINE
  5
21d
100
AcDbEntity
  8
Ebene_1
 62
7
100
AcDbSpline
 70
8
 71
3
 72
8
 73
4
 74
0
 40
0
 40
0
 40
0
 40
0
 40
1
 40
1
 40
1
 40
1
 10
117.149348
 20
241.198742
 30
0.0
 10
117.130101
 20
241.223505
 30
0.0
 10
117.121853
 20
241.273031
 30
0.0
 10
117.121853
 20
241.347321
 30
0.0
  0
LWPOLYLINE
  5
21e
100
AcDbEntity
  8
Ebene_1
 62
7
100
AcDbPolyline
 90
2
 70
0
 10
117.468293
 20
241.165724
 30
0.0
 10
117.248331
 20
241.165724
 30
0.0
  0
SPLINE
  5
21f
100
AcDbEntity
  8
Ebene_1
 62
7
100
AcDbSpline
 70
8
 71
3
 72
8
 73
4
 74
0
 40
0
 40
0
 40
0
 40
0
 40
1
 40
1
 40
1
 40
1
 10
117.121853
 20
242.255304
 30
0.0
 10
117.121853
 20
242.343351
 30
0.0
 10
117.101231
 20
242.410762
 30
0.0
 10
117.061363
 20
242.458913
 30
0.0
  0
SPLINE
  5
220
100
AcDbEntity
  8
Ebene_1
 62
7
100
AcDbSpline
 70
8
 71
3
 72
8
 73
4
 74
0
 40
0
 40
0
 40
0
 40
0
 40
1
 40
1
 40
1
 40
1
 10
117.061363
 20
242.458913
 30
0.0
 10
117.024245
 20
242.509815
 30
0.0
 10
116.973379
 20
242.535954
 30
0.0
 10
116.907390
 20
242.535954
 30
0.0
  0
SPLINE
  5
221
100
AcDbEntity
  8
Ebene_1
 62
7
100
AcDbSpline
 70
8
 71
3
 72
8
 73
4
 74
0
 40
0
 40
0
 40
0
 40
0
 40
1
 40
1
 40
1
 40
1
 10
116.907390
 20
242.535954
 30
0.0
 10
116.855149
 20
242.535954
 30
0.0
 10
116.808407
 20
242.520821
 30
0.0
 10
116.764415
 20
242.491930
 30
0.0
  0
SPLINE
  5
222
100
AcDbEntity
  8
Ebene_1
 62
7
100
AcDbSpline
 70
8
 71
3
 72
8
 73
4
 74
0
 40
0
 40
0
 40
0
 40
0
 40
1
 40
1
 40
1
 40
1
 10
116.764415
 20
242.491930
 30
0.0
 10
116.720423
 20
242.461664
 30
0.0
 10
116.683304
 20
242.416265
 30
0.0
 10
116.654434
 20
242.354357
 30
0.0
  0
LWPOLYLINE
  5
223
100
AcDbEntity
  8
Ebene_1
 62
7
100
AcDbPolyline
 90
2
 70
0
 10
117.121853
 20
241.347321
 30
0.0
 10
117.121853
 20
242.255304
 30
0.0
  0
SPLINE
  5
224
100
AcDbEntity
  8
Ebene_1
 62
7
100
AcDbSpline
 70
8
 71
3
 72
8
 73
4
 74
0
 40
0
 40
0
 40
0
 40
0
 40
1
 40
1
 40
1
 40
1
 10
116.714924
 20
241.407853
 30
0.0
 10
116.783662
 20
241.407853
 30
0.0
 10
116.830403
 20
241.398223
 30
0.0
 10
116.852400
 20
241.380338
 30
0.0
  0
SPLINE
  5
225
100
AcDbEntity
  8
Ebene_1
 62
7
100
AcDbSpline
 70
8
 71
3
 72
8
 73
4
 74
0
 40
0
 40
0
 40
0
 40
0
 40
1
 40
1
 40
1
 40
1
 10
116.852400
 20
241.380338
 30
0.0
 10
116.877145
 20
241.365205
 30
0.0
 10
116.890893
 20
241.336315
 30
0.0
 10
116.890893
 20
241.292291
 30
0.0
  0
SPLINE
  5
226
100
AcDbEntity
  8
Ebene_1
 62
7
100
AcDbSpline
 70
8
 71
3
 72
8
 73
4
 74
0
 40
0
 40
0
 40
0
 40
0
 40
1
 40
1
 40
1
 40
1
 10
116.890893
 20
241.292291
 30
0.0
 10
116.890893
 20
241.244141
 30
0.0
 10
116.881270
 20
241.211123
 30
0.0
 10
116.863398
 20
241.193239
 30
0.0
  0
SPLINE
  5
227
100
AcDbEntity
  8
Ebene_1
 62
7
100
AcDbSpline
 70
8
 71
3
 72
8
 73
4
 74
0
 40
0
 40
0
 40
0
 40
0
 40
1
 40
1
 40
1
 40
1
 10
116.863398
 20
241.193239
 30
0.0
 10
116.844151
 20
241.173978
 30
0.0
 10
116.808407
 20
241.165724
 30
0.0
 10
116.753417
 20
241.165724
 30
0.0
  0
LWPOLYLINE
  5
228
100
AcDbEntity
  8
Ebene_1
 62
7
100
AcDbPolyline
 90
3
 70
0
 10
116.654434
 20
242.354357
 30
0.0
 10
116.654434
 20
241.407853
 30
0.0
 10
116.714924
 20
241.407853
 30
0.0
  0
SPLINE
  5
229
100
AcDbEntity
  8
Ebene_1
 62
7
100
AcDbSpline
 70
8
 71
3
 72
8
 73
4
 74
0
 40
0
 40
0
 40
0
 40
0
 40
1
 40
1
 40
1
 40
1
 10
116.291497
 20
241.165724
 30
0.0
 10
116.247505
 20
241.165724
 30
0.0
 10
116.214510
 20
241.173978
 30
0.0
 10
116.192514
 20
241.193239
 30
0.0
  0
SPLINE
  5
22a
100
AcDbEntity
  8
Ebene_1
 62
7
100
AcDbSpline
 70
8
 71
3
 72
8
 73
4
 74
0
 40
0
 40
0
 40
0
 40
0
 40
1
 40
1
 40
1
 40
1
 10
116.192514
 20
241.193239
 30
0.0
 10
116.173268
 20
241.215250
 30
0.0
 10
116.165019
 20
241.248268
 30
0.0
 10
116.165019
 20
241.292291
 30
0.0
  0
SPLINE
  5
22b
100
AcDbEntity
  8
Ebene_1
 62
7
100
AcDbSpline
 70
8
 71
3
 72
8
 73
4
 74
0
 40
0
 40
0
 40
0
 40
0
 40
1
 40
1
 40
1
 40
1
 10
116.165019
 20
241.292291
 30
0.0
 10
116.165019
 20
241.336315
 30
0.0
 10
116.177392
 20
241.365205
 30
0.0
 10
116.203512
 20
241.380338
 30
0.0
  0
SPLINE
  5
22c
100
AcDbEntity
  8
Ebene_1
 62
7
100
AcDbSpline
 70
8
 71
3
 72
8
 73
4
 74
0
 40
0
 40
0
 40
0
 40
0
 40
1
 40
1
 40
1
 40
1
 10
116.203512
 20
241.380338
 30
0.0
 10
116.228258
 20
241.398223
 30
0.0
 10
116.281874
 20
241.407853
 30
0.0
 10
116.362985
 20
241.407853
 30
0.0
  0
LWPOLYLINE
  5
22d
100
AcDbEntity
  8
Ebene_1
 62
7
100
AcDbPolyline
 90
2
 70
0
 10
116.753417
 20
241.165724
 30
0.0
 10
116.291497
 20
241.165724
 30
0.0
  0
SPLINE
  5
22e
100
AcDbEntity
  8
Ebene_1
 62
7
100
AcDbSpline
 70
8
 71
3
 72
8
 73
4
 74
0
 40
0
 40
0
 40
0
 40
0
 40
1
 40
1
 40
1
 40
1
 10
116.362985
 20
242.508439
 30
0.0
 10
116.281874
 20
242.508439
 30
0.0
 10
116.226883
 20
242.516694
 30
0.0
 10
116.198013
 20
242.535954
 30
0.0
  0
SPLINE
  5
22f
100
AcDbEntity
  8
Ebene_1
 62
7
100
AcDbSpline
 70
8
 71
3
 72
8
 73
4
 74
0
 40
0
 40
0
 40
0
 40
0
 40
1
 40
1
 40
1
 40
1
 10
116.198013
 20
242.535954
 30
0.0
 10
116.167769
 20
242.553838
 30
0.0
 10
116.154021
 20
242.586856
 30
0.0
 10
116.154021
 20
242.635007
 30
0.0
  0
SPLINE
  5
230
100
AcDbEntity
  8
Ebene_1
 62
7
100
AcDbSpline
 70
8
 71
3
 72
8
 73
4
 74
0
 40
0
 40
0
 40
0
 40
0
 40
1
 40
1
 40
1
 40
1
 10
116.154021
 20
242.635007
 30
0.0
 10
116.154021
 20
242.674903
 30
0.0
 10
116.165019
 20
242.703793
 30
0.0
 10
116.187015
 20
242.723053
 30
0.0
  0
SPLINE
  5
231
100
AcDbEntity
  8
Ebene_1
 62
7
100
AcDbSpline
 70
8
 71
3
 72
8
 73
4
 74
0
 40
0
 40
0
 40
0
 40
0
 40
1
 40
1
 40
1
 40
1
 10
116.187015
 20
242.723053
 30
0.0
 10
116.211761
 20
242.745065
 30
0.0
 10
116.247505
 20
242.756071
 30
0.0
 10
116.291497
 20
242.756071
 30
0.0
  0
LWPOLYLINE
  5
232
100
AcDbEntity
  8
Ebene_1
 62
7
100
AcDbPolyline
 90
4
 70
0
 10
116.362985
 20
241.407853
 30
0.0
 10
116.395979
 20
241.407853
 30
0.0
 10
116.395979
 20
242.508439
 30
0.0
 10
116.362985
 20
242.508439
 30
0.0
  0
SPLINE
  5
233
100
AcDbEntity
  8
Ebene_1
 62
7
100
AcDbSpline
 70
8
 71
3
 72
8
 73
4
 74
0
 40
0
 40
0
 40
0
 40
0
 40
1
 40
1
 40
1
 40
1
 10
116.555451
 20
242.756071
 30
0.0
 10
116.595319
 20
242.756071
 30
0.0
 10
116.621440
 20
242.747817
 30
0.0
 10
116.632438
 20
242.734059
 30
0.0
  0
SPLINE
  5
234
100
AcDbEntity
  8
Ebene_1
 62
7
100
AcDbSpline
 70
8
 71
3
 72
8
 73
4
 74
0
 40
0
 40
0
 40
0
 40
0
 40
1
 40
1
 40
1
 40
1
 10
116.632438
 20
242.734059
 30
0.0
 10
116.643436
 20
242.723053
 30
0.0
 10
116.650310
 20
242.695539
 30
0.0
 10
116.654434
 20
242.651515
 30
0.0
  0
SPLINE
  5
235
100
AcDbEntity
  8
Ebene_1
 62
7
100
AcDbSpline
 70
8
 71
3
 72
8
 73
4
 74
0
 40
0
 40
0
 40
0
 40
0
 40
1
 40
1
 40
1
 40
1
 10
116.654434
 20
242.651515
 30
0.0
 10
116.701176
 20
242.702417
 30
0.0
 10
116.750667
 20
242.739562
 30
0.0
 10
116.802908
 20
242.761574
 30
0.0
  0
SPLINE
  5
236
100
AcDbEntity
  8
Ebene_1
 62
7
100
AcDbSpline
 70
8
 71
3
 72
8
 73
4
 74
0
 40
0
 40
0
 40
0
 40
0
 40
1
 40
1
 40
1
 40
1
 10
116.802908
 20
242.761574
 30
0.0
 10
116.857899
 20
242.786337
 30
0.0
 10
116.918388
 20
242.800094
 30
0.0
 10
116.984377
 20
242.800094
 30
0.0
  0
SPLINE
  5
237
100
AcDbEntity
  8
Ebene_1
 62
7
100
AcDbSpline
 70
8
 71
3
 72
8
 73
4
 74
0
 40
0
 40
0
 40
0
 40
0
 40
1
 40
1
 40
1
 40
1
 10
116.984377
 20
242.800094
 30
0.0
 10
117.064113
 20
242.800094
 30
0.0
 10
117.130101
 20
242.780834
 30
0.0
 10
117.182342
 20
242.745065
 30
0.0
  0
SPLINE
  5
238
100
AcDbEntity
  8
Ebene_1
 62
7
100
AcDbSpline
 70
8
 71
3
 72
8
 73
4
 74
0
 40
0
 40
0
 40
0
 40
0
 40
1
 40
1
 40
1
 40
1
 10
117.182342
 20
242.745065
 30
0.0
 10
117.237333
 20
242.712048
 30
0.0
 10
117.277201
 20
242.658394
 30
0.0
 10
117.303321
 20
242.585480
 30
0.0
  0
SPLINE
  5
239
100
AcDbEntity
  8
Ebene_1
 62
7
100
AcDbSpline
 70
8
 71
3
 72
8
 73
4
 74
0
 40
0
 40
0
 40
0
 40
0
 40
1
 40
1
 40
1
 40
1
 10
117.303321
 20
242.585480
 30
0.0
 10
117.350063
 20
242.658394
 30
0.0
 10
117.405053
 20
242.712048
 30
0.0
 10
117.468293
 20
242.745065
 30
0.0
  0
SPLINE
  5
23a
100
AcDbEntity
  8
Ebene_1
 62
7
100
AcDbSpline
 70
8
 71
3
 72
8
 73
4
 74
0
 40
0
 40
0
 40
0
 40
0
 40
1
 40
1
 40
1
 40
1
 10
117.468293
 20
242.745065
 30
0.0
 10
117.530157
 20
242.780834
 30
0.0
 10
117.601644
 20
242.800094
 30
0.0
 10
117.682755
 20
242.800094
 30
0.0
  0
SPLINE
  5
23b
100
AcDbEntity
  8
Ebene_1
 62
7
100
AcDbSpline
 70
8
 71
3
 72
8
 73
4
 74
0
 40
0
 40
0
 40
0
 40
0
 40
1
 40
1
 40
1
 40
1
 10
117.682755
 20
242.800094
 30
0.0
 10
117.832604
 20
242.800094
 30
0.0
 10
117.941210
 20
242.750568
 30
0.0
 10
118.007199
 20
242.651515
 30
0.0
  0
SPLINE
  5
23c
100
AcDbEntity
  8
Ebene_1
 62
7
100
AcDbSpline
 70
8
 71
3
 72
8
 73
4
 74
0
 40
0
 40
0
 40
0
 40
0
 40
1
 40
1
 40
1
 40
1
 10
118.007199
 20
242.651515
 30
0.0
 10
118.075937
 20
242.555214
 30
0.0
 10
118.111681
 20
242.401132
 30
0.0
 10
118.111681
 20
242.189269
 30
0.0
  0
LWPOLYLINE
  5
23d
100
AcDbEntity
  8
Ebene_1
 62
7
100
AcDbPolyline
 90
2
 70
0
 10
116.291497
 20
242.756071
 30
0.0
 10
116.555451
 20
242.756071
 30
0.0
  0
SPLINE
  5
23e
100
AcDbEntity
  8
Ebene_1
 62
7
100
AcDbSpline
 70
8
 71
3
 72
8
 73
4
 74
0
 40
0
 40
0
 40
0
 40
0
 40
1
 40
1
 40
1
 40
1
 10
118.139176
 20
241.407853
 30
0.0
 10
118.207914
 20
241.407853
 30
0.0
 10
118.254656
 20
241.398223
 30
0.0
 10
118.276652
 20
241.380338
 30
0.0
  0
SPLINE
  5
23f
100
AcDbEntity
  8
Ebene_1
 62
7
100
AcDbSpline
 70
8
 71
3
 72
8
 73
4
 74
0
 40
0
 40
0
 40
0
 40
0
 40
1
 40
1
 40
1
 40
1
 10
118.276652
 20
241.380338
 30
0.0
 10
118.301398
 20
241.365205
 30
0.0
 10
118.315146
 20
241.336315
 30
0.0
 10
118.315146
 20
241.292291
 30
0.0
  0
SPLINE
  5
240
100
AcDbEntity
  8
Ebene_1
 62
7
100
AcDbSpline
 70
8
 71
3
 72
8
 73
4
 74
0
 40
0
 40
0
 40
0
 40
0
 40
1
 40
1
 40
1
 40
1
 10
118.315146
 20
241.292291
 30
0.0
 10
118.315146
 20
241.248268
 30
0.0
 10
118.304147
 20
241.215250
 30
0.0
 10
118.282151
 20
241.193239
 30
0.0
  0
SPLINE
  5
241
100
AcDbEntity
  8
Ebene_1
 62
7
100
AcDbSpline
 70
8
 71
3
 72
8
 73
4
 74
0
 40
0
 40
0
 40
0
 40
0
 40
1
 40
1
 40
1
 40
1
 10
118.282151
 20
241.193239
 30
0.0
 10
118.262904
 20
241.173978
 30
0.0
 10
118.234035
 20
241.165724
 30
0.0
 10
118.194167
 20
241.165724
 30
0.0
  0
LWPOLYLINE
  5
242
100
AcDbEntity
  8
Ebene_1
 62
7
100
AcDbPolyline
 90
3
 70
0
 10
118.111681
 20
242.189269
 30
0.0
 10
118.111681
 20
241.407853
 30
0.0
 10
118.139176
 20
241.407853
 30
0.0
  0
SPLINE
  5
243
100
AcDbEntity
  8
Ebene_1
 62
7
100
AcDbSpline
 70
8
 71
3
 72
8
 73
4
 74
0
 40
0
 40
0
 40
0
 40
0
 40
1
 40
1
 40
1
 40
1
 10
117.985203
 20
241.165724
 30
0.0
 10
117.941210
 20
241.165724
 30
0.0
 10
117.908216
 20
241.178106
 30
0.0
 10
117.886220
 20
241.204245
 30
0.0
  0
SPLINE
  5
244
100
AcDbEntity
  8
Ebene_1
 62
7
100
AcDbSpline
 70
8
 71
3
 72
8
 73
4
 74
0
 40
0
 40
0
 40
0
 40
0
 40
1
 40
1
 40
1
 40
1
 10
117.886220
 20
241.204245
 30
0.0
 10
117.864224
 20
241.233135
 30
0.0
 10
117.853226
 20
241.277158
 30
0.0
 10
117.853226
 20
241.336315
 30
0.0
  0
LWPOLYLINE
  5
245
100
AcDbEntity
  8
Ebene_1
 62
7
100
AcDbPolyline
 90
2
 70
0
 10
118.194167
 20
241.165724
 30
0.0
 10
117.985203
 20
241.165724
 30
0.0
  0
SPLINE
  5
246
100
AcDbEntity
  8
Ebene_1
 62
7
100
AcDbSpline
 70
8
 71
3
 72
8
 73
4
 74
0
 40
0
 40
0
 40
0
 40
0
 40
1
 40
1
 40
1
 40
1
 10
119.965206
 20
242.123234
 30
0.0
 10
119.965206
 20
242.284195
 30
0.0
 10
119.950083
 20
242.392878
 30
0.0
 10
119.921213
 20
242.447907
 30
0.0
  0
SPLINE
  5
247
100
AcDbEntity
  8
Ebene_1
 62
7
100
AcDbSpline
 70
8
 71
3
 72
8
 73
4
 74
0
 40
0
 40
0
 40
0
 40
0
 40
1
 40
1
 40
1
 40
1
 10
119.921213
 20
242.447907
 30
0.0
 10
119.890968
 20
242.505688
 30
0.0
 10
119.841477
 20
242.535954
 30
0.0
 10
119.772739
 20
242.535954
 30
0.0
  0
SPLINE
  5
248
100
AcDbEntity
  8
Ebene_1
 62
7
100
AcDbSpline
 70
8
 71
3
 72
8
 73
4
 74
0
 40
0
 40
0
 40
0
 40
0
 40
1
 40
1
 40
1
 40
1
 10
119.772739
 20
242.535954
 30
0.0
 10
119.684754
 20
242.535954
 30
0.0
 10
119.614642
 20
242.498809
 30
0.0
 10
119.563776
 20
242.425895
 30
0.0
  0
SPLINE
  5
249
100
AcDbEntity
  8
Ebene_1
 62
7
100
AcDbSpline
 70
8
 71
3
 72
8
 73
4
 74
0
 40
0
 40
0
 40
0
 40
0
 40
1
 40
1
 40
1
 40
1
 10
119.563776
 20
242.425895
 30
0.0
 10
119.515659
 20
242.351606
 30
0.0
 10
119.492288
 20
242.251177
 30
0.0
 10
119.492288
 20
242.123234
 30
0.0
  0
LWPOLYLINE
  5
24a
100
AcDbEntity
  8
Ebene_1
 62
7
100
AcDbPolyline
 90
2
 70
0
 10
117.853226
 20
241.336315
 30
0.0
 10
117.853226
 20
242.123234
 30
0.0
  0
SPLINE
  5
24b
100
AcDbEntity
  8
Ebene_1
 62
7
100
AcDbSpline
 70
8
 71
3
 72
8
 73
4
 74
0
 40
0
 40
0
 40
0
 40
0
 40
1
 40
1
 40
1
 40
1
 10
119.525282
 20
241.407853
 30
0.0
 10
119.594020
 20
241.407853
 30
0.0
 10
119.640762
 20
241.398223
 30
0.0
 10
119.662758
 20
241.380338
 30
0.0
  0
SPLINE
  5
24c
100
AcDbEntity
  8
Ebene_1
 62
7
100
AcDbSpline
 70
8
 71
3
 72
8
 73
4
 74
0
 40
0
 40
0
 40
0
 40
0
 40
1
 40
1
 40
1
 40
1
 10
119.662758
 20
241.380338
 30
0.0
 10
119.687504
 20
241.365205
 30
0.0
 10
119.701252
 20
241.336315
 30
0.0
 10
119.701252
 20
241.292291
 30
0.0
  0
SPLINE
  5
24d
100
AcDbEntity
  8
Ebene_1
 62
7
100
AcDbSpline
 70
8
 71
3
 72
8
 73
4
 74
0
 40
0
 40
0
 40
0
 40
0
 40
1
 40
1
 40
1
 40
1
 10
119.701252
 20
241.292291
 30
0.0
 10
119.701252
 20
241.248268
 30
0.0
 10
119.690254
 20
241.215250
 30
0.0
 10
119.668257
 20
241.193239
 30
0.0
  0
SPLINE
  5
24e
100
AcDbEntity
  8
Ebene_1
 62
7
100
AcDbSpline
 70
8
 71
3
 72
8
 73
4
 74
0
 40
0
 40
0
 40
0
 40
0
 40
1
 40
1
 40
1
 40
1
 10
119.668257
 20
241.193239
 30
0.0
 10
119.649011
 20
241.173978
 30
0.0
 10
119.620141
 20
241.165724
 30
0.0
 10
119.580273
 20
241.165724
 30
0.0
  0
LWPOLYLINE
  5
24f
100
AcDbEntity
  8
Ebene_1
 62
7
100
AcDbPolyline
 90
3
 70
0
 10
119.492288
 20
242.123234
 30
0.0
 10
119.492288
 20
241.407853
 30
0.0
 10
119.525282
 20
241.407853
 30
0.0
  0
SPLINE
  5
250
100
AcDbEntity
  8
Ebene_1
 62
7
100
AcDbSpline
 70
8
 71
3
 72
8
 73
4
 74
0
 40
0
 40
0
 40
0
 40
0
 40
1
 40
1
 40
1
 40
1
 10
119.360311
 20
241.165724
 30
0.0
 10
119.312194
 20
241.165724
 30
0.0
 10
119.279200
 20
241.176730
 30
0.0
 10
119.261328
 20
241.198742
 30
0.0
  0
SPLINE
  5
251
100
AcDbEntity
  8
Ebene_1
 62
7
100
AcDbSpline
 70
8
 71
3
 72
8
 73
4
 74
0
 40
0
 40
0
 40
0
 40
0
 40
1
 40
1
 40
1
 40
1
 10
119.261328
 20
241.198742
 30
0.0
 10
119.242081
 20
241.223505
 30
0.0
 10
119.233833
 20
241.273031
 30
0.0
 10
119.233833
 20
241.347321
 30
0.0
  0
LWPOLYLINE
  5
252
100
AcDbEntity
  8
Ebene_1
 62
7
100
AcDbPolyline
 90
2
 70
0
 10
119.580273
 20
241.165724
 30
0.0
 10
119.360311
 20
241.165724
 30
0.0
  0
SPLINE
  5
253
100
AcDbEntity
  8
Ebene_1
 62
7
100
AcDbSpline
 70
8
 71
3
 72
8
 73
4
 74
0
 40
0
 40
0
 40
0
 40
0
 40
1
 40
1
 40
1
 40
1
 10
119.233833
 20
242.255304
 30
0.0
 10
119.233833
 20
242.343351
 30
0.0
 10
119.213211
 20
242.410762
 30
0.0
 10
119.173343
 20
242.458913
 30
0.0
  0
SPLINE
  5
254
100
AcDbEntity
  8
Ebene_1
 62
7
100
AcDbSpline
 70
8
 71
3
 72
8
 73
4
 74
0
 40
0
 40
0
 40
0
 40
0
 40
1
 40
1
 40
1
 40
1
 10
119.173343
 20
242.458913
 30
0.0
 10
119.136225
 20
242.509815
 30
0.0
 10
119.085359
 20
242.535954
 30
0.0
 10
119.019370
 20
242.535954
 30
0.0
  0
SPLINE
  5
255
100
AcDbEntity
  8
Ebene_1
 62
7
100
AcDbSpline
 70
8
 71
3
 72
8
 73
4
 74
0
 40
0
 40
0
 40
0
 40
0
 40
1
 40
1
 40
1
 40
1
 10
119.019370
 20
242.535954
 30
0.0
 10
118.967129
 20
242.535954
 30
0.0
 10
118.920387
 20
242.520821
 30
0.0
 10
118.876395
 20
242.491930
 30
0.0
  0
SPLINE
  5
256
100
AcDbEntity
  8
Ebene_1
 62
7
100
AcDbSpline
 70
8
 71
3
 72
8
 73
4
 74
0
 40
0
 40
0
 40
0
 40
0
 40
1
 40
1
 40
1
 40
1
 10
118.876395
 20
242.491930
 30
0.0
 10
118.832403
 20
242.461664
 30
0.0
 10
118.795284
 20
242.416265
 30
0.0
 10
118.766414
 20
242.354357
 30
0.0
  0
LWPOLYLINE
  5
257
100
AcDbEntity
  8
Ebene_1
 62
7
100
AcDbPolyline
 90
2
 70
0
 10
119.233833
 20
241.347321
 30
0.0
 10
119.233833
 20
242.255304
 30
0.0
  0
SPLINE
  5
258
100
AcDbEntity
  8
Ebene_1
 62
7
100
AcDbSpline
 70
8
 71
3
 72
8
 73
4
 74
0
 40
0
 40
0
 40
0
 40
0
 40
1
 40
1
 40
1
 40
1
 10
118.826904
 20
241.407853
 30
0.0
 10
118.895642
 20
241.407853
 30
0.0
 10
118.942383
 20
241.398223
 30
0.0
 10
118.964380
 20
241.380338
 30
0.0
  0
SPLINE
  5
259
100
AcDbEntity
  8
Ebene_1
 62
7
100
AcDbSpline
 70
8
 71
3
 72
8
 73
4
 74
0
 40
0
 40
0
 40
0
 40
0
 40
1
 40
1
 40
1
 40
1
 10
118.964380
 20
241.380338
 30
0.0
 10
118.989125
 20
241.365205
 30
0.0
 10
119.002873
 20
241.336315
 30
0.0
 10
119.002873
 20
241.292291
 30
0.0
  0
SPLINE
  5
25a
100
AcDbEntity
  8
Ebene_1
 62
7
100
AcDbSpline
 70
8
 71
3
 72
8
 73
4
 74
0
 40
0
 40
0
 40
0
 40
0
 40
1
 40
1
 40
1
 40
1
 10
119.002873
 20
241.292291
 30
0.0
 10
119.002873
 20
241.244141
 30
0.0
 10
118.993250
 20
241.211123
 30
0.0
 10
118.975378
 20
241.193239
 30
0.0
  0
SPLINE
  5
25b
100
AcDbEntity
  8
Ebene_1
 62
7
100
AcDbSpline
 70
8
 71
3
 72
8
 73
4
 74
0
 40
0
 40
0
 40
0
 40
0
 40
1
 40
1
 40
1
 40
1
 10
118.975378
 20
241.193239
 30
0.0
 10
118.956131
 20
241.173978
 30
0.0
 10
118.920387
 20
241.165724
 30
0.0
 10
118.865397
 20
241.165724
 30
0.0
  0
LWPOLYLINE
  5
25c
100
AcDbEntity
  8
Ebene_1
 62
7
100
AcDbPolyline
 90
3
 70
0
 10
118.766414
 20
242.354357
 30
0.0
 10
118.766414
 20
241.407853
 30
0.0
 10
118.826904
 20
241.407853
 30
0.0
  0
SPLINE
  5
25d
100
AcDbEntity
  8
Ebene_1
 62
7
100
AcDbSpline
 70
8
 71
3
 72
8
 73
4
 74
0
 40
0
 40
0
 40
0
 40
0
 40
1
 40
1
 40
1
 40
1
 10
118.403477
 20
241.165724
 30
0.0
 10
118.359485
 20
241.165724
 30
0.0
 10
118.326490
 20
241.173978
 30
0.0
 10
118.304494
 20
241.193239
 30
0.0
  0
SPLINE
  5
25e
100
AcDbEntity
  8
Ebene_1
 62
7
100
AcDbSpline
 70
8
 71
3
 72
8
 73
4
 74
0
 40
0
 40
0
 40
0
 40
0
 40
1
 40
1
 40
1
 40
1
 10
118.304494
 20
241.193239
 30
0.0
 10
118.285248
 20
241.215250
 30
0.0
 10
118.276999
 20
241.248268
 30
0.0
 10
118.276999
 20
241.292291
 30
0.0
  0
SPLINE
  5
25f
100
AcDbEntity
  8
Ebene_1
 62
7
100
AcDbSpline
 70
8
 71
3
 72
8
 73
4
 74
0
 40
0
 40
0
 40
0
 40
0
 40
1
 40
1
 40
1
 40
1
 10
118.276999
 20
241.292291
 30
0.0
 10
118.276999
 20
241.336315
 30
0.0
 10
118.289372
 20
241.365205
 30
0.0
 10
118.315492
 20
241.380338
 30
0.0
  0
SPLINE
  5
260
100
AcDbEntity
  8
Ebene_1
 62
7
100
AcDbSpline
 70
8
 71
3
 72
8
 73
4
 74
0
 40
0
 40
0
 40
0
 40
0
 40
1
 40
1
 40
1
 40
1
 10
118.315492
 20
241.380338
 30
0.0
 10
118.340238
 20
241.398223
 30
0.0
 10
118.393854
 20
241.407853
 30
0.0
 10
118.474965
 20
241.407853
 30
0.0
  0
LWPOLYLINE
  5
261
100
AcDbEntity
  8
Ebene_1
 62
7
100
AcDbPolyline
 90
2
 70
0
 10
118.865397
 20
241.165724
 30
0.0
 10
118.403477
 20
241.165724
 30
0.0
  0
SPLINE
  5
262
100
AcDbEntity
  8
Ebene_1
 62
7
100
AcDbSpline
 70
8
 71
3
 72
8
 73
4
 74
0
 40
0
 40
0
 40
0
 40
0
 40
1
 40
1
 40
1
 40
1
 10
118.474965
 20
242.508439
 30
0.0
 10
118.393854
 20
242.508439
 30
0.0
 10
118.338863
 20
242.516694
 30
0.0
 10
118.309993
 20
242.535954
 30
0.0
  0
SPLINE
  5
263
100
AcDbEntity
  8
Ebene_1
 62
7
100
AcDbSpline
 70
8
 71
3
 72
8
 73
4
 74
0
 40
0
 40
0
 40
0
 40
0
 40
1
 40
1
 40
1
 40
1
 10
118.309993
 20
242.535954
 30
0.0
 10
118.279749
 20
242.553838
 30
0.0
 10
118.266001
 20
242.586856
 30
0.0
 10
118.266001
 20
242.635007
 30
0.0
  0
SPLINE
  5
264
100
AcDbEntity
  8
Ebene_1
 62
7
100
AcDbSpline
 70
8
 71
3
 72
8
 73
4
 74
0
 40
0
 40
0
 40
0
 40
0
 40
1
 40
1
 40
1
 40
1
 10
118.266001
 20
242.635007
 30
0.0
 10
118.266001
 20
242.674903
 30
0.0
 10
118.276999
 20
242.703793
 30
0.0
 10
118.298995
 20
242.723053
 30
0.0
  0
SPLINE
  5
265
100
AcDbEntity
  8
Ebene_1
 62
7
100
AcDbSpline
 70
8
 71
3
 72
8
 73
4
 74
0
 40
0
 40
0
 40
0
 40
0
 40
1
 40
1
 40
1
 40
1
 10
118.298995
 20
242.723053
 30
0.0
 10
118.323741
 20
242.745065
 30
0.0
 10
118.359485
 20
242.756071
 30
0.0
 10
118.403477
 20
242.756071
 30
0.0
  0
LWPOLYLINE
  5
266
100
AcDbEntity
  8
Ebene_1
 62
7
100
AcDbPolyline
 90
4
 70
0
 10
118.474965
 20
241.407853
 30
0.0
 10
118.507959
 20
241.407853
 30
0.0
 10
118.507959
 20
242.508439
 30
0.0
 10
118.474965
 20
242.508439
 30
0.0
  0
SPLINE
  5
267
100
AcDbEntity
  8
Ebene_1
 62
7
100
AcDbSpline
 70
8
 71
3
 72
8
 73
4
 74
0
 40
0
 40
0
 40
0
 40
0
 40
1
 40
1
 40
1
 40
1
 10
118.667431
 20
242.756071
 30
0.0
 10
118.707299
 20
242.756071
 30
0.0
 10
118.733420
 20
242.747817
 30
0.0
 10
118.744418
 20
242.734059
 30
0.0
  0
SPLINE
  5
268
100
AcDbEntity
  8
Ebene_1
 62
7
100
AcDbSpline
 70
8
 71
3
 72
8
 73
4
 74
0
 40
0
 40
0
 40
0
 40
0
 40
1
 40
1
 40
1
 40
1
 10
118.744418
 20
242.734059
 30
0.0
 10
118.755416
 20
242.723053
 30
0.0
 10
118.762290
 20
242.695539
 30
0.0
 10
118.766414
 20
242.651515
 30
0.0
  0
SPLINE
  5
269
100
AcDbEntity
  8
Ebene_1
 62
7
100
AcDbSpline
 70
8
 71
3
 72
8
 73
4
 74
0
 40
0
 40
0
 40
0
 40
0
 40
1
 40
1
 40
1
 40
1
 10
118.766414
 20
242.651515
 30
0.0
 10
118.813156
 20
242.702417
 30
0.0
 10
118.862647
 20
242.739562
 30
0.0
 10
118.914888
 20
242.761574
 30
0.0
  0
SPLINE
  5
26a
100
AcDbEntity
  8
Ebene_1
 62
7
100
AcDbSpline
 70
8
 71
3
 72
8
 73
4
 74
0
 40
0
 40
0
 40
0
 40
0
 40
1
 40
1
 40
1
 40
1
 10
118.914888
 20
242.761574
 30
0.0
 10
118.969879
 20
242.786337
 30
0.0
 10
119.030368
 20
242.800094
 30
0.0
 10
119.096357
 20
242.800094
 30
0.0
  0
SPLINE
  5
26b
100
AcDbEntity
  8
Ebene_1
 62
7
100
AcDbSpline
 70
8
 71
3
 72
8
 73
4
 74
0
 40
0
 40
0
 40
0
 40
0
 40
1
 40
1
 40
1
 40
1
 10
119.096357
 20
242.800094
 30
0.0
 10
119.176093
 20
242.800094
 30
0.0
 10
119.242081
 20
242.780834
 30
0.0
 10
119.294322
 20
242.745065
 30
0.0
  0
SPLINE
  5
26c
100
AcDbEntity
  8
Ebene_1
 62
7
100
AcDbSpline
 70
8
 71
3
 72
8
 73
4
 74
0
 40
0
 40
0
 40
0
 40
0
 40
1
 40
1
 40
1
 40
1
 10
119.294322
 20
242.745065
 30
0.0
 10
119.349313
 20
242.712048
 30
0.0
 10
119.389181
 20
242.658394
 30
0.0
 10
119.415301
 20
242.585480
 30
0.0
  0
SPLINE
  5
26d
100
AcDbEntity
  8
Ebene_1
 62
7
100
AcDbSpline
 70
8
 71
3
 72
8
 73
4
 74
0
 40
0
 40
0
 40
0
 40
0
 40
1
 40
1
 40
1
 40
1
 10
119.415301
 20
242.585480
 30
0.0
 10
119.462043
 20
242.658394
 30
0.0
 10
119.517033
 20
242.712048
 30
0.0
 10
119.580273
 20
242.745065
 30
0.0
  0
SPLINE
  5
26e
100
AcDbEntity
  8
Ebene_1
 62
7
100
AcDbSpline
 70
8
 71
3
 72
8
 73
4
 74
0
 40
0
 40
0
 40
0
 40
0
 40
1
 40
1
 40
1
 40
1
 10
119.580273
 20
242.745065
 30
0.0
 10
119.642137
 20
242.780834
 30
0.0
 10
119.713624
 20
242.800094
 30
0.0
 10
119.794735
 20
242.800094
 30
0.0
  0
SPLINE
  5
26f
100
AcDbEntity
  8
Ebene_1
 62
7
100
AcDbSpline
 70
8
 71
3
 72
8
 73
4
 74
0
 40
0
 40
0
 40
0
 40
0
 40
1
 40
1
 40
1
 40
1
 10
119.794735
 20
242.800094
 30
0.0
 10
119.944584
 20
242.800094
 30
0.0
 10
120.053190
 20
242.750568
 30
0.0
 10
120.119179
 20
242.651515
 30
0.0
  0
SPLINE
  5
270
100
AcDbEntity
  8
Ebene_1
 62
7
100
AcDbSpline
 70
8
 71
3
 72
8
 73
4
 74
0
 40
0
 40
0
 40
0
 40
0
 40
1
 40
1
 40
1
 40
1
 10
120.119179
 20
242.651515
 30
0.0
 10
120.187917
 20
242.555214
 30
0.0
 10
120.223661
 20
242.401132
 30
0.0
 10
120.223661
 20
242.189269
 30
0.0
  0
LWPOLYLINE
  5
271
100
AcDbEntity
  8
Ebene_1
 62
7
100
AcDbPolyline
 90
2
 70
0
 10
118.403477
 20
242.756071
 30
0.0
 10
118.667431
 20
242.756071
 30
0.0
  0
SPLINE
  5
272
100
AcDbEntity
  8
Ebene_1
 62
7
100
AcDbSpline
 70
8
 71
3
 72
8
 73
4
 74
0
 40
0
 40
0
 40
0
 40
0
 40
1
 40
1
 40
1
 40
1
 10
120.251156
 20
241.407853
 30
0.0
 10
120.319894
 20
241.407853
 30
0.0
 10
120.366636
 20
241.398223
 30
0.0
 10
120.388632
 20
241.380338
 30
0.0
  0
SPLINE
  5
273
100
AcDbEntity
  8
Ebene_1
 62
7
100
AcDbSpline
 70
8
 71
3
 72
8
 73
4
 74
0
 40
0
 40
0
 40
0
 40
0
 40
1
 40
1
 40
1
 40
1
 10
120.388632
 20
241.380338
 30
0.0
 10
120.413378
 20
241.365205
 30
0.0
 10
120.427126
 20
241.336315
 30
0.0
 10
120.427126
 20
241.292291
 30
0.0
  0
SPLINE
  5
274
100
AcDbEntity
  8
Ebene_1
 62
7
100
AcDbSpline
 70
8
 71
3
 72
8
 73
4
 74
0
 40
0
 40
0
 40
0
 40
0
 40
1
 40
1
 40
1
 40
1
 10
120.427126
 20
241.292291
 30
0.0
 10
120.427126
 20
241.248268
 30
0.0
 10
120.416127
 20
241.215250
 30
0.0
 10
120.394131
 20
241.193239
 30
0.0
  0
SPLINE
  5
275
100
AcDbEntity
  8
Ebene_1
 62
7
100
AcDbSpline
 70
8
 71
3
 72
8
 73
4
 74
0
 40
0
 40
0
 40
0
 40
0
 40
1
 40
1
 40
1
 40
1
 10
120.394131
 20
241.193239
 30
0.0
 10
120.374884
 20
241.173978
 30
0.0
 10
120.346015
 20
241.165724
 30
0.0
 10
120.306147
 20
241.165724
 30
0.0
  0
LWPOLYLINE
  5
276
100
AcDbEntity
  8
Ebene_1
 62
7
100
AcDbPolyline
 90
3
 70
0
 10
120.223661
 20
242.189269
 30
0.0
 10
120.223661
 20
241.407853
 30
0.0
 10
120.251156
 20
241.407853
 30
0.0
  0
SPLINE
  5
277
100
AcDbEntity
  8
Ebene_1
 62
7
100
AcDbSpline
 70
8
 71
3
 72
8
 73
4
 74
0
 40
0
 40
0
 40
0
 40
0
 40
1
 40
1
 40
1
 40
1
 10
120.097183
 20
241.165724
 30
0.0
 10
120.053190
 20
241.165724
 30
0.0
 10
120.020196
 20
241.178106
 30
0.0
 10
119.998200
 20
241.204245
 30
0.0
  0
SPLINE
  5
278
100
AcDbEntity
  8
Ebene_1
 62
7
100
AcDbSpline
 70
8
 71
3
 72
8
 73
4
 74
0
 40
0
 40
0
 40
0
 40
0
 40
1
 40
1
 40
1
 40
1
 10
119.998200
 20
241.204245
 30
0.0
 10
119.976204
 20
241.233135
 30
0.0
 10
119.965206
 20
241.277158
 30
0.0
 10
119.965206
 20
241.336315
 30
0.0
  0
LWPOLYLINE
  5
279
100
AcDbEntity
  8
Ebene_1
 62
7
100
AcDbPolyline
 90
2
 70
0
 10
120.306147
 20
241.165724
 30
0.0
 10
120.097183
 20
241.165724
 30
0.0
  0
SPLINE
  5
27a
100
AcDbEntity
  8
Ebene_1
 62
7
100
AcDbSpline
 70
8
 71
3
 72
8
 73
4
 74
0
 40
0
 40
0
 40
0
 40
0
 40
1
 40
1
 40
1
 40
1
 10
159.568671
 20
148.579140
 30
0.0
 10
159.509556
 20
148.579140
 30
0.0
 10
159.465564
 20
148.590146
 30
0.0
 10
159.436694
 20
148.612158
 30
0.0
  0
SPLINE
  5
27b
100
AcDbEntity
  8
Ebene_1
 62
7
100
AcDbSpline
 70
8
 71
3
 72
8
 73
4
 74
0
 40
0
 40
0
 40
0
 40
0
 40
1
 40
1
 40
1
 40
1
 10
159.436694
 20
148.612158
 30
0.0
 10
159.406449
 20
148.636921
 30
0.0
 10
159.392701
 20
148.678193
 30
0.0
 10
159.392701
 20
148.733222
 30
0.0
  0
SPLINE
  5
27c
100
AcDbEntity
  8
Ebene_1
 62
7
100
AcDbSpline
 70
8
 71
3
 72
8
 73
4
 74
0
 40
0
 40
0
 40
0
 40
0
 40
1
 40
1
 40
1
 40
1
 10
159.392701
 20
148.733222
 30
0.0
 10
159.392701
 20
148.806136
 30
0.0
 10
159.502682
 20
148.945085
 30
0.0
 10
159.722644
 20
149.151445
 30
0.0
  0
LWPOLYLINE
  5
27d
100
AcDbEntity
  8
Ebene_1
 62
7
100
AcDbPolyline
 90
2
 70
0
 10
119.965206
 20
241.336315
 30
0.0
 10
119.965206
 20
242.123234
 30
0.0
  0
SPLINE
  5
27e
100
AcDbEntity
  8
Ebene_1
 62
7
100
AcDbSpline
 70
8
 71
3
 72
8
 73
4
 74
0
 40
0
 40
0
 40
0
 40
0
 40
1
 40
1
 40
1
 40
1
 10
159.772135
 20
149.200971
 30
0.0
 10
159.805130
 20
149.229861
 30
0.0
 10
159.851871
 20
149.275261
 30
0.0
 10
159.915111
 20
149.338544
 30
0.0
  0
SPLINE
  5
27f
100
AcDbEntity
  8
Ebene_1
 62
7
100
AcDbSpline
 70
8
 71
3
 72
8
 73
4
 74
0
 40
0
 40
0
 40
0
 40
0
 40
1
 40
1
 40
1
 40
1
 10
159.915111
 20
149.338544
 30
0.0
 10
160.311042
 20
149.708616
 30
0.0
 10
160.509007
 20
149.979636
 30
0.0
 10
160.509007
 20
150.152978
 30
0.0
  0
SPLINE
  5
280
100
AcDbEntity
  8
Ebene_1
 62
7
100
AcDbSpline
 70
8
 71
3
 72
8
 73
4
 74
0
 40
0
 40
0
 40
0
 40
0
 40
1
 40
1
 40
1
 40
1
 10
160.509007
 20
150.152978
 30
0.0
 10
160.509007
 20
150.274043
 30
0.0
 10
160.473264
 20
150.373095
 30
0.0
 10
160.404526
 20
150.450136
 30
0.0
  0
SPLINE
  5
281
100
AcDbEntity
  8
Ebene_1
 62
7
100
AcDbSpline
 70
8
 71
3
 72
8
 73
4
 74
0
 40
0
 40
0
 40
0
 40
0
 40
1
 40
1
 40
1
 40
1
 10
160.404526
 20
150.450136
 30
0.0
 10
160.334413
 20
150.527177
 30
0.0
 10
160.245053
 20
150.565698
 30
0.0
 10
160.135072
 20
150.565698
 30
0.0
  0
SPLINE
  5
282
100
AcDbEntity
  8
Ebene_1
 62
7
100
AcDbSpline
 70
8
 71
3
 72
8
 73
4
 74
0
 40
0
 40
0
 40
0
 40
0
 40
1
 40
1
 40
1
 40
1
 10
160.135072
 20
150.565698
 30
0.0
 10
160.060835
 20
150.565698
 30
0.0
 10
159.992097
 20
150.550565
 30
0.0
 10
159.926109
 20
150.521675
 30
0.0
  0
SPLINE
  5
283
100
AcDbEntity
  8
Ebene_1
 62
7
100
AcDbSpline
 70
8
 71
3
 72
8
 73
4
 74
0
 40
0
 40
0
 40
0
 40
0
 40
1
 40
1
 40
1
 40
1
 10
159.926109
 20
150.521675
 30
0.0
 10
159.860120
 20
150.491409
 30
0.0
 10
159.806504
 20
150.451512
 30
0.0
 10
159.766636
 20
150.400610
 30
0.0
  0
SPLINE
  5
284
100
AcDbEntity
  8
Ebene_1
 62
7
100
AcDbSpline
 70
8
 71
3
 72
8
 73
4
 74
0
 40
0
 40
0
 40
0
 40
0
 40
1
 40
1
 40
1
 40
1
 10
159.766636
 20
150.400610
 30
0.0
 10
159.758388
 20
150.389604
 30
0.0
 10
159.747390
 20
150.374471
 30
0.0
 10
159.733642
 20
150.356587
 30
0.0
  0
SPLINE
  5
285
100
AcDbEntity
  8
Ebene_1
 62
7
100
AcDbSpline
 70
8
 71
3
 72
8
 73
4
 74
0
 40
0
 40
0
 40
0
 40
0
 40
1
 40
1
 40
1
 40
1
 10
159.733642
 20
150.356587
 30
0.0
 10
159.692399
 20
150.279546
 30
0.0
 10
159.645657
 20
150.241025
 30
0.0
 10
159.590667
 20
150.241025
 30
0.0
  0
SPLINE
  5
286
100
AcDbEntity
  8
Ebene_1
 62
7
100
AcDbSpline
 70
8
 71
3
 72
8
 73
4
 74
0
 40
0
 40
0
 40
0
 40
0
 40
1
 40
1
 40
1
 40
1
 10
159.590667
 20
150.241025
 30
0.0
 10
159.549424
 20
150.241025
 30
0.0
 10
159.520554
 20
150.252031
 30
0.0
 10
159.502682
 20
150.274043
 30
0.0
  0
SPLINE
  5
287
100
AcDbEntity
  8
Ebene_1
 62
7
100
AcDbSpline
 70
8
 71
3
 72
8
 73
4
 74
0
 40
0
 40
0
 40
0
 40
0
 40
1
 40
1
 40
1
 40
1
 10
159.502682
 20
150.274043
 30
0.0
 10
159.487560
 20
150.298806
 30
0.0
 10
159.480686
 20
150.348332
 30
0.0
 10
159.480686
 20
150.422622
 30
0.0
  0
SPLINE
  5
288
100
AcDbEntity
  8
Ebene_1
 62
7
100
AcDbSpline
 70
8
 71
3
 72
8
 73
4
 74
0
 40
0
 40
0
 40
0
 40
0
 40
1
 40
1
 40
1
 40
1
 10
159.480686
 20
150.422622
 30
0.0
 10
159.480686
 20
150.462518
 30
0.0
 10
159.483435
 20
150.491409
 30
0.0
 10
159.491684
 20
150.510669
 30
0.0
  0
SPLINE
  5
289
100
AcDbEntity
  8
Ebene_1
 62
7
100
AcDbSpline
 70
8
 71
3
 72
8
 73
4
 74
0
 40
0
 40
0
 40
0
 40
0
 40
1
 40
1
 40
1
 40
1
 10
159.491684
 20
150.510669
 30
0.0
 10
159.498558
 20
150.528553
 30
0.0
 10
159.513680
 20
150.549189
 30
0.0
 10
159.535676
 20
150.571201
 30
0.0
  0
SPLINE
  5
28a
100
AcDbEntity
  8
Ebene_1
 62
7
100
AcDbSpline
 70
8
 71
3
 72
8
 73
4
 74
0
 40
0
 40
0
 40
0
 40
0
 40
1
 40
1
 40
1
 40
1
 10
159.535676
 20
150.571201
 30
0.0
 10
159.608539
 20
150.644115
 30
0.0
 10
159.697898
 20
150.700520
 30
0.0
 10
159.805130
 20
150.741792
 30
0.0
  0
SPLINE
  5
28b
100
AcDbEntity
  8
Ebene_1
 62
7
100
AcDbSpline
 70
8
 71
3
 72
8
 73
4
 74
0
 40
0
 40
0
 40
0
 40
0
 40
1
 40
1
 40
1
 40
1
 10
159.805130
 20
150.741792
 30
0.0
 10
159.915111
 20
150.781688
 30
0.0
 10
160.026466
 20
150.802324
 30
0.0
 10
160.140571
 20
150.802324
 30
0.0
  0
SPLINE
  5
28c
100
AcDbEntity
  8
Ebene_1
 62
7
100
AcDbSpline
 70
8
 71
3
 72
8
 73
4
 74
0
 40
0
 40
0
 40
0
 40
0
 40
1
 40
1
 40
1
 40
1
 10
160.140571
 20
150.802324
 30
0.0
 10
160.330289
 20
150.802324
 30
0.0
 10
160.488386
 20
150.741792
 30
0.0
 10
160.613489
 20
150.620727
 30
0.0
  0
SPLINE
  5
28d
100
AcDbEntity
  8
Ebene_1
 62
7
100
AcDbSpline
 70
8
 71
3
 72
8
 73
4
 74
0
 40
0
 40
0
 40
0
 40
0
 40
1
 40
1
 40
1
 40
1
 10
160.613489
 20
150.620727
 30
0.0
 10
160.741342
 20
150.499663
 30
0.0
 10
160.805956
 20
150.348332
 30
0.0
 10
160.805956
 20
150.169487
 30
0.0
  0
SPLINE
  5
28e
100
AcDbEntity
  8
Ebene_1
 62
7
100
AcDbSpline
 70
8
 71
3
 72
8
 73
4
 74
0
 40
0
 40
0
 40
0
 40
0
 40
1
 40
1
 40
1
 40
1
 10
160.805956
 20
150.169487
 30
0.0
 10
160.805956
 20
149.945242
 30
0.0
 10
160.610740
 20
149.646709
 30
0.0
 10
160.223057
 20
149.272509
 30
0.0
  0
SPLINE
  5
28f
100
AcDbEntity
  8
Ebene_1
 62
7
100
AcDbSpline
 70
8
 71
3
 72
8
 73
4
 74
0
 40
0
 40
0
 40
0
 40
0
 40
1
 40
1
 40
1
 40
1
 10
160.223057
 20
149.272509
 30
0.0
 10
160.124074
 20
149.180335
 30
0.0
 10
160.048462
 20
149.107421
 30
0.0
 10
159.997596
 20
149.052392
 30
0.0
  0
LWPOLYLINE
  5
290
100
AcDbEntity
  8
Ebene_1
 62
7
100
AcDbPolyline
 90
2
 70
0
 10
159.722644
 20
149.151445
 30
0.0
 10
159.772135
 20
149.200971
 30
0.0
  0
SPLINE
  5
291
100
AcDbEntity
  8
Ebene_1
 62
7
100
AcDbSpline
 70
8
 71
3
 72
8
 73
4
 74
0
 40
0
 40
0
 40
0
 40
0
 40
1
 40
1
 40
1
 40
1
 10
160.569497
 20
148.848784
 30
0.0
 10
160.572247
 20
148.899686
 30
0.0
 10
160.585994
 20
148.938206
 30
0.0
 10
160.607990
 20
148.964345
 30
0.0
  0
SPLINE
  5
292
100
AcDbEntity
  8
Ebene_1
 62
7
100
AcDbSpline
 70
8
 71
3
 72
8
 73
4
 74
0
 40
0
 40
0
 40
0
 40
0
 40
1
 40
1
 40
1
 40
1
 10
160.607990
 20
148.964345
 30
0.0
 10
160.629986
 20
148.989108
 30
0.0
 10
160.660231
 20
149.002866
 30
0.0
 10
160.701474
 20
149.002866
 30
0.0
  0
SPLINE
  5
293
100
AcDbEntity
  8
Ebene_1
 62
7
100
AcDbSpline
 70
8
 71
3
 72
8
 73
4
 74
0
 40
0
 40
0
 40
0
 40
0
 40
1
 40
1
 40
1
 40
1
 10
160.701474
 20
149.002866
 30
0.0
 10
160.737218
 20
149.002866
 30
0.0
 10
160.767462
 20
148.989108
 30
0.0
 10
160.789459
 20
148.964345
 30
0.0
  0
SPLINE
  5
294
100
AcDbEntity
  8
Ebene_1
 62
7
100
AcDbSpline
 70
8
 71
3
 72
8
 73
4
 74
0
 40
0
 40
0
 40
0
 40
0
 40
1
 40
1
 40
1
 40
1
 10
160.789459
 20
148.964345
 30
0.0
 10
160.811455
 20
148.938206
 30
0.0
 10
160.822453
 20
148.903813
 30
0.0
 10
160.822453
 20
148.859789
 30
0.0
  0
SPLINE
  5
295
100
AcDbEntity
  8
Ebene_1
 62
7
100
AcDbSpline
 70
8
 71
3
 72
8
 73
4
 74
0
 40
0
 40
0
 40
0
 40
0
 40
1
 40
1
 40
1
 40
1
 10
160.822453
 20
148.859789
 30
0.0
 10
160.822453
 20
148.855662
 30
0.0
 10
160.819704
 20
148.850159
 30
0.0
 10
160.816954
 20
148.843281
 30
0.0
  0
SPLINE
  5
296
100
AcDbEntity
  8
Ebene_1
 62
7
100
AcDbSpline
 70
8
 71
3
 72
8
 73
4
 74
0
 40
0
 40
0
 40
0
 40
0
 40
1
 40
1
 40
1
 40
1
 10
160.816954
 20
148.843281
 30
0.0
 10
160.816954
 20
148.835026
 30
0.0
 10
160.816954
 20
148.829524
 30
0.0
 10
160.816954
 20
148.826772
 30
0.0
  0
LWPOLYLINE
  5
297
100
AcDbEntity
  8
Ebene_1
 62
7
100
AcDbPolyline
 90
3
 70
0
 10
159.997596
 20
149.052392
 30
0.0
 10
159.783133
 20
148.848784
 30
0.0
 10
160.569497
 20
148.848784
 30
0.0
  0
SPLINE
  5
298
100
AcDbEntity
  8
Ebene_1
 62
7
100
AcDbSpline
 70
8
 71
3
 72
8
 73
4
 74
0
 40
0
 40
0
 40
0
 40
0
 40
1
 40
1
 40
1
 40
1
 10
160.805956
 20
148.694702
 30
0.0
 10
160.801831
 20
148.657557
 30
0.0
 10
160.790833
 20
148.628666
 30
0.0
 10
160.772961
 20
148.606655
 30
0.0
  0
SPLINE
  5
299
100
AcDbEntity
  8
Ebene_1
 62
7
100
AcDbSpline
 70
8
 71
3
 72
8
 73
4
 74
0
 40
0
 40
0
 40
0
 40
0
 40
1
 40
1
 40
1
 40
1
 10
160.772961
 20
148.606655
 30
0.0
 10
160.757839
 20
148.587394
 30
0.0
 10
160.735843
 20
148.579140
 30
0.0
 10
160.706973
 20
148.579140
 30
0.0
  0
LWPOLYLINE
  5
29a
100
AcDbEntity
  8
Ebene_1
 62
7
100
AcDbPolyline
 90
2
 70
0
 10
160.816954
 20
148.826772
 30
0.0
 10
160.805956
 20
148.694702
 30
0.0
  0
SPLINE
  5
29b
100
AcDbEntity
  8
Ebene_1
 62
7
100
AcDbSpline
 70
8
 71
3
 72
8
 73
4
 74
0
 40
0
 40
0
 40
0
 40
0
 40
1
 40
1
 40
1
 40
1
 10
161.867628
 20
150.422622
 30
0.0
 10
161.852506
 20
150.422622
 30
0.0
 10
161.841508
 20
150.419871
 30
0.0
 10
161.834634
 20
150.417119
 30
0.0
  0
SPLINE
  5
29c
100
AcDbEntity
  8
Ebene_1
 62
7
100
AcDbSpline
 70
8
 71
3
 72
8
 73
4
 74
0
 40
0
 40
0
 40
0
 40
0
 40
1
 40
1
 40
1
 40
1
 10
161.834634
 20
150.417119
 30
0.0
 10
161.826386
 20
150.417119
 30
0.0
 10
161.820886
 20
150.417119
 30
0.0
 10
161.818137
 20
150.417119
 30
0.0
  0
SPLINE
  5
29d
100
AcDbEntity
  8
Ebene_1
 62
7
100
AcDbSpline
 70
8
 71
3
 72
8
 73
4
 74
0
 40
0
 40
0
 40
0
 40
0
 40
1
 40
1
 40
1
 40
1
 10
161.818137
 20
150.417119
 30
0.0
 10
161.781018
 20
150.417119
 30
0.0
 10
161.752148
 20
150.425373
 30
0.0
 10
161.730152
 20
150.444634
 30
0.0
  0
SPLINE
  5
29e
100
AcDbEntity
  8
Ebene_1
 62
7
100
AcDbSpline
 70
8
 71
3
 72
8
 73
4
 74
0
 40
0
 40
0
 40
0
 40
0
 40
1
 40
1
 40
1
 40
1
 10
161.730152
 20
150.444634
 30
0.0
 10
161.708156
 20
150.466645
 30
0.0
 10
161.697158
 20
150.494160
 30
0.0
 10
161.697158
 20
150.527177
 30
0.0
  0
SPLINE
  5
29f
100
AcDbEntity
  8
Ebene_1
 62
7
100
AcDbSpline
 70
8
 71
3
 72
8
 73
4
 74
0
 40
0
 40
0
 40
0
 40
0
 40
1
 40
1
 40
1
 40
1
 10
161.697158
 20
150.527177
 30
0.0
 10
161.697158
 20
150.556068
 30
0.0
 10
161.705407
 20
150.579456
 30
0.0
 10
161.724653
 20
150.598716
 30
0.0
  0
SPLINE
  5
2a0
100
AcDbEntity
  8
Ebene_1
 62
7
100
AcDbSpline
 70
8
 71
3
 72
8
 73
4
 74
0
 40
0
 40
0
 40
0
 40
0
 40
1
 40
1
 40
1
 40
1
 10
161.724653
 20
150.598716
 30
0.0
 10
161.742525
 20
150.620727
 30
0.0
 10
161.770020
 20
150.637236
 30
0.0
 10
161.807139
 20
150.648242
 30
0.0
  0
LWPOLYLINE
  5
2a1
100
AcDbEntity
  8
Ebene_1
 62
7
100
AcDbPolyline
 90
2
 70
0
 10
160.706973
 20
148.579140
 30
0.0
 10
159.568671
 20
148.579140
 30
0.0
  0
SPLINE
  5
2a2
100
AcDbEntity
  8
Ebene_1
 62
7
100
AcDbSpline
 70
8
 71
3
 72
8
 73
4
 74
0
 40
0
 40
0
 40
0
 40
0
 40
1
 40
1
 40
1
 40
1
 10
162.318550
 20
150.785815
 30
0.0
 10
162.332298
 20
150.788567
 30
0.0
 10
162.346045
 20
150.791318
 30
0.0
 10
162.357043
 20
150.791318
 30
0.0
  0
SPLINE
  5
2a3
100
AcDbEntity
  8
Ebene_1
 62
7
100
AcDbSpline
 70
8
 71
3
 72
8
 73
4
 74
0
 40
0
 40
0
 40
0
 40
0
 40
1
 40
1
 40
1
 40
1
 10
162.357043
 20
150.791318
 30
0.0
 10
162.368041
 20
150.794069
 30
0.0
 10
162.380414
 20
150.796821
 30
0.0
 10
162.395537
 20
150.796821
 30
0.0
  0
SPLINE
  5
2a4
100
AcDbEntity
  8
Ebene_1
 62
7
100
AcDbSpline
 70
8
 71
3
 72
8
 73
4
 74
0
 40
0
 40
0
 40
0
 40
0
 40
1
 40
1
 40
1
 40
1
 10
162.395537
 20
150.796821
 30
0.0
 10
162.413408
 20
150.796821
 30
0.0
 10
162.428531
 20
150.785815
 30
0.0
 10
162.439529
 20
150.763804
 30
0.0
  0
SPLINE
  5
2a5
100
AcDbEntity
  8
Ebene_1
 62
7
100
AcDbSpline
 70
8
 71
3
 72
8
 73
4
 74
0
 40
0
 40
0
 40
0
 40
0
 40
1
 40
1
 40
1
 40
1
 10
162.439529
 20
150.763804
 30
0.0
 10
162.453277
 20
150.744543
 30
0.0
 10
162.461525
 20
150.717028
 30
0.0
 10
162.461525
 20
150.681260
 30
0.0
  0
LWPOLYLINE
  5
2a6
100
AcDbEntity
  8
Ebene_1
 62
7
100
AcDbPolyline
 90
2
 70
0
 10
161.807139
 20
150.648242
 30
0.0
 10
162.318550
 20
150.785815
 30
0.0
  0
SPLINE
  5
2a7
100
AcDbEntity
  8
Ebene_1
 62
7
100
AcDbSpline
 70
8
 71
3
 72
8
 73
4
 74
0
 40
0
 40
0
 40
0
 40
0
 40
1
 40
1
 40
1
 40
1
 10
162.736477
 20
148.821269
 30
0.0
 10
162.838210
 20
148.821269
 30
0.0
 10
162.902823
 20
148.811639
 30
0.0
 10
162.928944
 20
148.793754
 30
0.0
  0
SPLINE
  5
2a8
100
AcDbEntity
  8
Ebene_1
 62
7
100
AcDbSpline
 70
8
 71
3
 72
8
 73
4
 74
0
 40
0
 40
0
 40
0
 40
0
 40
1
 40
1
 40
1
 40
1
 10
162.928944
 20
148.793754
 30
0.0
 10
162.957814
 20
148.778621
 30
0.0
 10
162.972936
 20
148.749731
 30
0.0
 10
162.972936
 20
148.705707
 30
0.0
  0
SPLINE
  5
2a9
100
AcDbEntity
  8
Ebene_1
 62
7
100
AcDbSpline
 70
8
 71
3
 72
8
 73
4
 74
0
 40
0
 40
0
 40
0
 40
0
 40
1
 40
1
 40
1
 40
1
 10
162.972936
 20
148.705707
 30
0.0
 10
162.972936
 20
148.661684
 30
0.0
 10
162.961938
 20
148.628666
 30
0.0
 10
162.939942
 20
148.606655
 30
0.0
  0
SPLINE
  5
2aa
100
AcDbEntity
  8
Ebene_1
 62
7
100
AcDbSpline
 70
8
 71
3
 72
8
 73
4
 74
0
 40
0
 40
0
 40
0
 40
0
 40
1
 40
1
 40
1
 40
1
 10
162.939942
 20
148.606655
 30
0.0
 10
162.917946
 20
148.587394
 30
0.0
 10
162.882202
 20
148.579140
 30
0.0
 10
162.835460
 20
148.579140
 30
0.0
  0
LWPOLYLINE
  5
2ab
100
AcDbEntity
  8
Ebene_1
 62
7
100
AcDbPolyline
 90
3
 70
0
 10
162.461525
 20
150.681260
 30
0.0
 10
162.461525
 20
148.821269
 30
0.0
 10
162.736477
 20
148.821269
 30
0.0
  0
SPLINE
  5
2ac
100
AcDbEntity
  8
Ebene_1
 62
7
100
AcDbSpline
 70
8
 71
3
 72
8
 73
4
 74
0
 40
0
 40
0
 40
0
 40
0
 40
1
 40
1
 40
1
 40
1
 10
161.807139
 20
148.579140
 30
0.0
 10
161.763146
 20
148.579140
 30
0.0
 10
161.727403
 20
148.587394
 30
0.0
 10
161.702657
 20
148.606655
 30
0.0
  0
SPLINE
  5
2ad
100
AcDbEntity
  8
Ebene_1
 62
7
100
AcDbSpline
 70
8
 71
3
 72
8
 73
4
 74
0
 40
0
 40
0
 40
0
 40
0
 40
1
 40
1
 40
1
 40
1
 10
161.702657
 20
148.606655
 30
0.0
 10
161.680661
 20
148.628666
 30
0.0
 10
161.669663
 20
148.661684
 30
0.0
 10
161.669663
 20
148.705707
 30
0.0
  0
SPLINE
  5
2ae
100
AcDbEntity
  8
Ebene_1
 62
7
100
AcDbSpline
 70
8
 71
3
 72
8
 73
4
 74
0
 40
0
 40
0
 40
0
 40
0
 40
1
 40
1
 40
1
 40
1
 10
161.669663
 20
148.705707
 30
0.0
 10
161.669663
 20
148.749731
 30
0.0
 10
161.682035
 20
148.778621
 30
0.0
 10
161.708156
 20
148.793754
 30
0.0
  0
SPLINE
  5
2af
100
AcDbEntity
  8
Ebene_1
 62
7
100
AcDbSpline
 70
8
 71
3
 72
8
 73
4
 74
0
 40
0
 40
0
 40
0
 40
0
 40
1
 40
1
 40
1
 40
1
 10
161.708156
 20
148.793754
 30
0.0
 10
161.737026
 20
148.811639
 30
0.0
 10
161.803014
 20
148.821269
 30
0.0
 10
161.906122
 20
148.821269
 30
0.0
  0
LWPOLYLINE
  5
2b0
100
AcDbEntity
  8
Ebene_1
 62
7
100
AcDbPolyline
 90
2
 70
0
 10
162.835460
 20
148.579140
 30
0.0
 10
161.807139
 20
148.579140
 30
0.0
  0
SPLINE
  5
2b1
100
AcDbEntity
  8
Ebene_1
 62
7
100
AcDbSpline
 70
8
 71
3
 72
8
 73
4
 74
0
 40
0
 40
0
 40
0
 40
0
 40
1
 40
1
 40
1
 40
1
 10
164.392037
 20
150.560195
 30
0.0
 10
164.260060
 20
150.560195
 30
0.0
 10
164.156952
 20
150.480403
 30
0.0
 10
164.084090
 20
150.323569
 30
0.0
  0
SPLINE
  5
2b2
100
AcDbEntity
  8
Ebene_1
 62
7
100
AcDbSpline
 70
8
 71
3
 72
8
 73
4
 74
0
 40
0
 40
0
 40
0
 40
0
 40
1
 40
1
 40
1
 40
1
 10
164.084090
 20
150.323569
 30
0.0
 10
164.009853
 20
150.169487
 30
0.0
 10
163.974109
 20
149.949370
 30
0.0
 10
163.974109
 20
149.663217
 30
0.0
  0
SPLINE
  5
2b3
100
AcDbEntity
  8
Ebene_1
 62
7
100
AcDbSpline
 70
8
 71
3
 72
8
 73
4
 74
0
 40
0
 40
0
 40
0
 40
0
 40
1
 40
1
 40
1
 40
1
 10
163.974109
 20
149.663217
 30
0.0
 10
163.974109
 20
149.377065
 30
0.0
 10
164.009853
 20
149.154196
 30
0.0
 10
164.084090
 20
148.997363
 30
0.0
  0
SPLINE
  5
2b4
100
AcDbEntity
  8
Ebene_1
 62
7
100
AcDbSpline
 70
8
 71
3
 72
8
 73
4
 74
0
 40
0
 40
0
 40
0
 40
0
 40
1
 40
1
 40
1
 40
1
 10
164.084090
 20
148.997363
 30
0.0
 10
164.156952
 20
148.843281
 30
0.0
 10
164.260060
 20
148.766240
 30
0.0
 10
164.392037
 20
148.766240
 30
0.0
  0
SPLINE
  5
2b5
100
AcDbEntity
  8
Ebene_1
 62
7
100
AcDbSpline
 70
8
 71
3
 72
8
 73
4
 74
0
 40
0
 40
0
 40
0
 40
0
 40
1
 40
1
 40
1
 40
1
 10
164.392037
 20
148.766240
 30
0.0
 10
164.524014
 20
148.766240
 30
0.0
 10
164.625746
 20
148.843281
 30
0.0
 10
164.699983
 20
148.997363
 30
0.0
  0
SPLINE
  5
2b6
100
AcDbEntity
  8
Ebene_1
 62
7
100
AcDbSpline
 70
8
 71
3
 72
8
 73
4
 74
0
 40
0
 40
0
 40
0
 40
0
 40
1
 40
1
 40
1
 40
1
 10
164.699983
 20
148.997363
 30
0.0
 10
164.772845
 20
149.154196
 30
0.0
 10
164.809964
 20
149.377065
 30
0.0
 10
164.809964
 20
149.663217
 30
0.0
  0
SPLINE
  5
2b7
100
AcDbEntity
  8
Ebene_1
 62
7
100
AcDbSpline
 70
8
 71
3
 72
8
 73
4
 74
0
 40
0
 40
0
 40
0
 40
0
 40
1
 40
1
 40
1
 40
1
 10
164.809964
 20
149.663217
 30
0.0
 10
164.809964
 20
149.949370
 30
0.0
 10
164.772845
 20
150.169487
 30
0.0
 10
164.699983
 20
150.323569
 30
0.0
  0
SPLINE
  5
2b8
100
AcDbEntity
  8
Ebene_1
 62
7
100
AcDbSpline
 70
8
 71
3
 72
8
 73
4
 74
0
 40
0
 40
0
 40
0
 40
0
 40
1
 40
1
 40
1
 40
1
 10
164.699983
 20
150.323569
 30
0.0
 10
164.625746
 20
150.480403
 30
0.0
 10
164.524014
 20
150.560195
 30
0.0
 10
164.392037
 20
150.560195
 30
0.0
  0
LWPOLYLINE
  5
2b9
100
AcDbEntity
  8
Ebene_1
 62
7
100
AcDbPolyline
 90
4
 70
0
 10
161.906122
 20
148.821269
 30
0.0
 10
162.192072
 20
148.821269
 30
0.0
 10
162.192072
 20
150.499663
 30
0.0
 10
161.867628
 20
150.422622
 30
0.0
  0
SPLINE
  5
2ba
100
AcDbEntity
  8
Ebene_1
 62
7
100
AcDbSpline
 70
8
 71
3
 72
8
 73
4
 74
0
 40
0
 40
0
 40
0
 40
0
 40
1
 40
1
 40
1
 40
1
 10
164.392037
 20
148.524111
 30
0.0
 10
164.174824
 20
148.524111
 30
0.0
 10
164.002979
 20
148.624539
 30
0.0
 10
163.875126
 20
148.826772
 30
0.0
  0
SPLINE
  5
2bb
100
AcDbEntity
  8
Ebene_1
 62
7
100
AcDbSpline
 70
8
 71
3
 72
8
 73
4
 74
0
 40
0
 40
0
 40
0
 40
0
 40
1
 40
1
 40
1
 40
1
 10
163.875126
 20
148.826772
 30
0.0
 10
163.750023
 20
149.031756
 30
0.0
 10
163.688159
 20
149.311030
 30
0.0
 10
163.688159
 20
149.663217
 30
0.0
  0
SPLINE
  5
2bc
100
AcDbEntity
  8
Ebene_1
 62
7
100
AcDbSpline
 70
8
 71
3
 72
8
 73
4
 74
0
 40
0
 40
0
 40
0
 40
0
 40
1
 40
1
 40
1
 40
1
 10
163.688159
 20
149.663217
 30
0.0
 10
163.688159
 20
150.015405
 30
0.0
 10
163.750023
 20
150.291927
 30
0.0
 10
163.875126
 20
150.494160
 30
0.0
  0
SPLINE
  5
2bd
100
AcDbEntity
  8
Ebene_1
 62
7
100
AcDbSpline
 70
8
 71
3
 72
8
 73
4
 74
0
 40
0
 40
0
 40
0
 40
0
 40
1
 40
1
 40
1
 40
1
 10
163.875126
 20
150.494160
 30
0.0
 10
164.002979
 20
150.699144
 30
0.0
 10
164.174824
 20
150.802324
 30
0.0
 10
164.392037
 20
150.802324
 30
0.0
  0
SPLINE
  5
2be
100
AcDbEntity
  8
Ebene_1
 62
7
100
AcDbSpline
 70
8
 71
3
 72
8
 73
4
 74
0
 40
0
 40
0
 40
0
 40
0
 40
1
 40
1
 40
1
 40
1
 10
164.392037
 20
150.802324
 30
0.0
 10
164.607874
 20
150.802324
 30
0.0
 10
164.778344
 20
150.699144
 30
0.0
 10
164.903448
 20
150.494160
 30
0.0
  0
SPLINE
  5
2bf
100
AcDbEntity
  8
Ebene_1
 62
7
100
AcDbSpline
 70
8
 71
3
 72
8
 73
4
 74
0
 40
0
 40
0
 40
0
 40
0
 40
1
 40
1
 40
1
 40
1
 10
164.903448
 20
150.494160
 30
0.0
 10
165.031300
 20
150.291927
 30
0.0
 10
165.095914
 20
150.015405
 30
0.0
 10
165.095914
 20
149.663217
 30
0.0
  0
SPLINE
  5
2c0
100
AcDbEntity
  8
Ebene_1
 62
7
100
AcDbSpline
 70
8
 71
3
 72
8
 73
4
 74
0
 40
0
 40
0
 40
0
 40
0
 40
1
 40
1
 40
1
 40
1
 10
165.095914
 20
149.663217
 30
0.0
 10
165.095914
 20
149.311030
 30
0.0
 10
165.031300
 20
149.031756
 30
0.0
 10
164.903448
 20
148.826772
 30
0.0
  0
SPLINE
  5
2c1
100
AcDbEntity
  8
Ebene_1
 62
7
100
AcDbSpline
 70
8
 71
3
 72
8
 73
4
 74
0
 40
0
 40
0
 40
0
 40
0
 40
1
 40
1
 40
1
 40
1
 10
164.903448
 20
148.826772
 30
0.0
 10
164.778344
 20
148.624539
 30
0.0
 10
164.607874
 20
148.524111
 30
0.0
 10
164.392037
 20
148.524111
 30
0.0
  0
LWPOLYLINE
  5
2c2
100
AcDbEntity
  8
Ebene_1
 62
7
100
AcDbPolyline
 90
1
 70
1
 10
164.392037
 20
150.560195
 30
0.0
  0
SPLINE
  5
2c3
100
AcDbEntity
  8
Ebene_1
 62
7
100
AcDbSpline
 70
8
 71
3
 72
8
 73
4
 74
0
 40
0
 40
0
 40
0
 40
0
 40
1
 40
1
 40
1
 40
1
 10
169.253896
 20
149.536650
 30
0.0
 10
169.253896
 20
149.697611
 30
0.0
 10
169.238773
 20
149.806294
 30
0.0
 10
169.209903
 20
149.861323
 30
0.0
  0
SPLINE
  5
2c4
100
AcDbEntity
  8
Ebene_1
 62
7
100
AcDbSpline
 70
8
 71
3
 72
8
 73
4
 74
0
 40
0
 40
0
 40
0
 40
0
 40
1
 40
1
 40
1
 40
1
 10
169.209903
 20
149.861323
 30
0.0
 10
169.179658
 20
149.919104
 30
0.0
 10
169.130167
 20
149.949370
 30
0.0
 10
169.061429
 20
149.949370
 30
0.0
  0
SPLINE
  5
2c5
100
AcDbEntity
  8
Ebene_1
 62
7
100
AcDbSpline
 70
8
 71
3
 72
8
 73
4
 74
0
 40
0
 40
0
 40
0
 40
0
 40
1
 40
1
 40
1
 40
1
 10
169.061429
 20
149.949370
 30
0.0
 10
168.973444
 20
149.949370
 30
0.0
 10
168.903332
 20
149.912225
 30
0.0
 10
168.852466
 20
149.839311
 30
0.0
  0
SPLINE
  5
2c6
100
AcDbEntity
  8
Ebene_1
 62
7
100
AcDbSpline
 70
8
 71
3
 72
8
 73
4
 74
0
 40
0
 40
0
 40
0
 40
0
 40
1
 40
1
 40
1
 40
1
 10
168.852466
 20
149.839311
 30
0.0
 10
168.804349
 20
149.765022
 30
0.0
 10
168.780978
 20
149.664593
 30
0.0
 10
168.780978
 20
149.536650
 30
0.0
  0
LWPOLYLINE
  5
2c7
100
AcDbEntity
  8
Ebene_1
 62
7
100
AcDbPolyline
 90
1
 70
1
 10
164.392037
 20
148.524111
 30
0.0
  0
SPLINE
  5
2c8
100
AcDbEntity
  8
Ebene_1
 62
7
100
AcDbSpline
 70
8
 71
3
 72
8
 73
4
 74
0
 40
0
 40
0
 40
0
 40
0
 40
1
 40
1
 40
1
 40
1
 10
168.813972
 20
148.821269
 30
0.0
 10
168.882710
 20
148.821269
 30
0.0
 10
168.929452
 20
148.811639
 30
0.0
 10
168.951448
 20
148.793754
 30
0.0
  0
SPLINE
  5
2c9
100
AcDbEntity
  8
Ebene_1
 62
7
100
AcDbSpline
 70
8
 71
3
 72
8
 73
4
 74
0
 40
0
 40
0
 40
0
 40
0
 40
1
 40
1
 40
1
 40
1
 10
168.951448
 20
148.793754
 30
0.0
 10
168.976194
 20
148.778621
 30
0.0
 10
168.989942
 20
148.749731
 30
0.0
 10
168.989942
 20
148.705707
 30
0.0
  0
SPLINE
  5
2ca
100
AcDbEntity
  8
Ebene_1
 62
7
100
AcDbSpline
 70
8
 71
3
 72
8
 73
4
 74
0
 40
0
 40
0
 40
0
 40
0
 40
1
 40
1
 40
1
 40
1
 10
168.989942
 20
148.705707
 30
0.0
 10
168.989942
 20
148.661684
 30
0.0
 10
168.978944
 20
148.628666
 30
0.0
 10
168.956947
 20
148.606655
 30
0.0
  0
SPLINE
  5
2cb
100
AcDbEntity
  8
Ebene_1
 62
7
100
AcDbSpline
 70
8
 71
3
 72
8
 73
4
 74
0
 40
0
 40
0
 40
0
 40
0
 40
1
 40
1
 40
1
 40
1
 10
168.956947
 20
148.606655
 30
0.0
 10
168.937701
 20
148.587394
 30
0.0
 10
168.908831
 20
148.579140
 30
0.0
 10
168.868963
 20
148.579140
 30
0.0
  0
LWPOLYLINE
  5
2cc
100
AcDbEntity
  8
Ebene_1
 62
7
100
AcDbPolyline
 90
3
 70
0
 10
168.780978
 20
149.536650
 30
0.0
 10
168.780978
 20
148.821269
 30
0.0
 10
168.813972
 20
148.821269
 30
0.0
  0
SPLINE
  5
2cd
100
AcDbEntity
  8
Ebene_1
 62
7
100
AcDbSpline
 70
8
 71
3
 72
8
 73
4
 74
0
 40
0
 40
0
 40
0
 40
0
 40
1
 40
1
 40
1
 40
1
 10
168.649001
 20
148.579140
 30
0.0
 10
168.600884
 20
148.579140
 30
0.0
 10
168.567890
 20
148.590146
 30
0.0
 10
168.550018
 20
148.612158
 30
0.0
  0
SPLINE
  5
2ce
100
AcDbEntity
  8
Ebene_1
 62
7
100
AcDbSpline
 70
8
 71
3
 72
8
 73
4
 74
0
 40
0
 40
0
 40
0
 40
0
 40
1
 40
1
 40
1
 40
1
 10
168.550018
 20
148.612158
 30
0.0
 10
168.530771
 20
148.636921
 30
0.0
 10
168.522523
 20
148.686447
 30
0.0
 10
168.522523
 20
148.760737
 30
0.0
  0
LWPOLYLINE
  5
2cf
100
AcDbEntity
  8
Ebene_1
 62
7
100
AcDbPolyline
 90
2
 70
0
 10
168.868963
 20
148.579140
 30
0.0
 10
168.649001
 20
148.579140
 30
0.0
  0
SPLINE
  5
2d0
100
AcDbEntity
  8
Ebene_1
 62
7
100
AcDbSpline
 70
8
 71
3
 72
8
 73
4
 74
0
 40
0
 40
0
 40
0
 40
0
 40
1
 40
1
 40
1
 40
1
 10
168.522523
 20
149.668720
 30
0.0
 10
168.522523
 20
149.756767
 30
0.0
 10
168.501901
 20
149.824178
 30
0.0
 10
168.462033
 20
149.872329
 30
0.0
  0
SPLINE
  5
2d1
100
AcDbEntity
  8
Ebene_1
 62
7
100
AcDbSpline
 70
8
 71
3
 72
8
 73
4
 74
0
 40
0
 40
0
 40
0
 40
0
 40
1
 40
1
 40
1
 40
1
 10
168.462033
 20
149.872329
 30
0.0
 10
168.424915
 20
149.923231
 30
0.0
 10
168.374049
 20
149.949370
 30
0.0
 10
168.308060
 20
149.949370
 30
0.0
  0
SPLINE
  5
2d2
100
AcDbEntity
  8
Ebene_1
 62
7
100
AcDbSpline
 70
8
 71
3
 72
8
 73
4
 74
0
 40
0
 40
0
 40
0
 40
0
 40
1
 40
1
 40
1
 40
1
 10
168.308060
 20
149.949370
 30
0.0
 10
168.255819
 20
149.949370
 30
0.0
 10
168.209077
 20
149.934237
 30
0.0
 10
168.165085
 20
149.905346
 30
0.0
  0
SPLINE
  5
2d3
100
AcDbEntity
  8
Ebene_1
 62
7
100
AcDbSpline
 70
8
 71
3
 72
8
 73
4
 74
0
 40
0
 40
0
 40
0
 40
0
 40
1
 40
1
 40
1
 40
1
 10
168.165085
 20
149.905346
 30
0.0
 10
168.121093
 20
149.875080
 30
0.0
 10
168.083974
 20
149.829681
 30
0.0
 10
168.055104
 20
149.767773
 30
0.0
  0
LWPOLYLINE
  5
2d4
100
AcDbEntity
  8
Ebene_1
 62
7
100
AcDbPolyline
 90
2
 70
0
 10
168.522523
 20
148.760737
 30
0.0
 10
168.522523
 20
149.668720
 30
0.0
  0
SPLINE
  5
2d5
100
AcDbEntity
  8
Ebene_1
 62
7
100
AcDbSpline
 70
8
 71
3
 72
8
 73
4
 74
0
 40
0
 40
0
 40
0
 40
0
 40
1
 40
1
 40
1
 40
1
 10
168.115594
 20
148.821269
 30
0.0
 10
168.184332
 20
148.821269
 30
0.0
 10
168.231073
 20
148.811639
 30
0.0
 10
168.253070
 20
148.793754
 30
0.0
  0
SPLINE
  5
2d6
100
AcDbEntity
  8
Ebene_1
 62
7
100
AcDbSpline
 70
8
 71
3
 72
8
 73
4
 74
0
 40
0
 40
0
 40
0
 40
0
 40
1
 40
1
 40
1
 40
1
 10
168.253070
 20
148.793754
 30
0.0
 10
168.277815
 20
148.778621
 30
0.0
 10
168.291563
 20
148.749731
 30
0.0
 10
168.291563
 20
148.705707
 30
0.0
  0
SPLINE
  5
2d7
100
AcDbEntity
  8
Ebene_1
 62
7
100
AcDbSpline
 70
8
 71
3
 72
8
 73
4
 74
0
 40
0
 40
0
 40
0
 40
0
 40
1
 40
1
 40
1
 40
1
 10
168.291563
 20
148.705707
 30
0.0
 10
168.291563
 20
148.657557
 30
0.0
 10
168.281940
 20
148.624539
 30
0.0
 10
168.264068
 20
148.606655
 30
0.0
  0
SPLINE
  5
2d8
100
AcDbEntity
  8
Ebene_1
 62
7
100
AcDbSpline
 70
8
 71
3
 72
8
 73
4
 74
0
 40
0
 40
0
 40
0
 40
0
 40
1
 40
1
 40
1
 40
1
 10
168.264068
 20
148.606655
 30
0.0
 10
168.244821
 20
148.587394
 30
0.0
 10
168.209077
 20
148.579140
 30
0.0
 10
168.154087
 20
148.579140
 30
0.0
  0
LWPOLYLINE
  5
2d9
100
AcDbEntity
  8
Ebene_1
 62
7
100
AcDbPolyline
 90
3
 70
0
 10
168.055104
 20
149.767773
 30
0.0
 10
168.055104
 20
148.821269
 30
0.0
 10
168.115594
 20
148.821269
 30
0.0
  0
SPLINE
  5
2da
100
AcDbEntity
  8
Ebene_1
 62
7
100
AcDbSpline
 70
8
 71
3
 72
8
 73
4
 74
0
 40
0
 40
0
 40
0
 40
0
 40
1
 40
1
 40
1
 40
1
 10
167.692167
 20
148.579140
 30
0.0
 10
167.648175
 20
148.579140
 30
0.0
 10
167.615180
 20
148.587394
 30
0.0
 10
167.593184
 20
148.606655
 30
0.0
  0
SPLINE
  5
2db
100
AcDbEntity
  8
Ebene_1
 62
7
100
AcDbSpline
 70
8
 71
3
 72
8
 73
4
 74
0
 40
0
 40
0
 40
0
 40
0
 40
1
 40
1
 40
1
 40
1
 10
167.593184
 20
148.606655
 30
0.0
 10
167.573938
 20
148.628666
 30
0.0
 10
167.565689
 20
148.661684
 30
0.0
 10
167.565689
 20
148.705707
 30
0.0
  0
SPLINE
  5
2dc
100
AcDbEntity
  8
Ebene_1
 62
7
100
AcDbSpline
 70
8
 71
3
 72
8
 73
4
 74
0
 40
0
 40
0
 40
0
 40
0
 40
1
 40
1
 40
1
 40
1
 10
167.565689
 20
148.705707
 30
0.0
 10
167.565689
 20
148.749731
 30
0.0
 10
167.578062
 20
148.778621
 30
0.0
 10
167.604182
 20
148.793754
 30
0.0
  0
SPLINE
  5
2dd
100
AcDbEntity
  8
Ebene_1
 62
7
100
AcDbSpline
 70
8
 71
3
 72
8
 73
4
 74
0
 40
0
 40
0
 40
0
 40
0
 40
1
 40
1
 40
1
 40
1
 10
167.604182
 20
148.793754
 30
0.0
 10
167.628928
 20
148.811639
 30
0.0
 10
167.682544
 20
148.821269
 30
0.0
 10
167.763655
 20
148.821269
 30
0.0
  0
LWPOLYLINE
  5
2de
100
AcDbEntity
  8
Ebene_1
 62
7
100
AcDbPolyline
 90
2
 70
0
 10
168.154087
 20
148.579140
 30
0.0
 10
167.692167
 20
148.579140
 30
0.0
  0
SPLINE
  5
2df
100
AcDbEntity
  8
Ebene_1
 62
7
100
AcDbSpline
 70
8
 71
3
 72
8
 73
4
 74
0
 40
0
 40
0
 40
0
 40
0
 40
1
 40
1
 40
1
 40
1
 10
167.763655
 20
149.921855
 30
0.0
 10
167.682544
 20
149.921855
 30
0.0
 10
167.627553
 20
149.930110
 30
0.0
 10
167.598683
 20
149.949370
 30
0.0
  0
SPLINE
  5
2e0
100
AcDbEntity
  8
Ebene_1
 62
7
100
AcDbSpline
 70
8
 71
3
 72
8
 73
4
 74
0
 40
0
 40
0
 40
0
 40
0
 40
1
 40
1
 40
1
 40
1
 10
167.598683
 20
149.949370
 30
0.0
 10
167.568439
 20
149.967254
 30
0.0
 10
167.554691
 20
150.000272
 30
0.0
 10
167.554691
 20
150.048423
 30
0.0
  0
SPLINE
  5
2e1
100
AcDbEntity
  8
Ebene_1
 62
7
100
AcDbSpline
 70
8
 71
3
 72
8
 73
4
 74
0
 40
0
 40
0
 40
0
 40
0
 40
1
 40
1
 40
1
 40
1
 10
167.554691
 20
150.048423
 30
0.0
 10
167.554691
 20
150.088319
 30
0.0
 10
167.565689
 20
150.117209
 30
0.0
 10
167.587685
 20
150.136469
 30
0.0
  0
SPLINE
  5
2e2
100
AcDbEntity
  8
Ebene_1
 62
7
100
AcDbSpline
 70
8
 71
3
 72
8
 73
4
 74
0
 40
0
 40
0
 40
0
 40
0
 40
1
 40
1
 40
1
 40
1
 10
167.587685
 20
150.136469
 30
0.0
 10
167.612431
 20
150.158481
 30
0.0
 10
167.648175
 20
150.169487
 30
0.0
 10
167.692167
 20
150.169487
 30
0.0
  0
LWPOLYLINE
  5
2e3
100
AcDbEntity
  8
Ebene_1
 62
7
100
AcDbPolyline
 90
4
 70
0
 10
167.763655
 20
148.821269
 30
0.0
 10
167.796649
 20
148.821269
 30
0.0
 10
167.796649
 20
149.921855
 30
0.0
 10
167.763655
 20
149.921855
 30
0.0
  0
SPLINE
  5
2e4
100
AcDbEntity
  8
Ebene_1
 62
7
100
AcDbSpline
 70
8
 71
3
 72
8
 73
4
 74
0
 40
0
 40
0
 40
0
 40
0
 40
1
 40
1
 40
1
 40
1
 10
167.956121
 20
150.169487
 30
0.0
 10
167.995989
 20
150.169487
 30
0.0
 10
168.022110
 20
150.161233
 30
0.0
 10
168.033108
 20
150.147475
 30
0.0
  0
SPLINE
  5
2e5
100
AcDbEntity
  8
Ebene_1
 62
7
100
AcDbSpline
 70
8
 71
3
 72
8
 73
4
 74
0
 40
0
 40
0
 40
0
 40
0
 40
1
 40
1
 40
1
 40
1
 10
168.033108
 20
150.147475
 30
0.0
 10
168.044106
 20
150.136469
 30
0.0
 10
168.050980
 20
150.108955
 30
0.0
 10
168.055104
 20
150.064931
 30
0.0
  0
SPLINE
  5
2e6
100
AcDbEntity
  8
Ebene_1
 62
7
100
AcDbSpline
 70
8
 71
3
 72
8
 73
4
 74
0
 40
0
 40
0
 40
0
 40
0
 40
1
 40
1
 40
1
 40
1
 10
168.055104
 20
150.064931
 30
0.0
 10
168.101846
 20
150.115833
 30
0.0
 10
168.151337
 20
150.152978
 30
0.0
 10
168.203578
 20
150.174990
 30
0.0
  0
SPLINE
  5
2e7
100
AcDbEntity
  8
Ebene_1
 62
7
100
AcDbSpline
 70
8
 71
3
 72
8
 73
4
 74
0
 40
0
 40
0
 40
0
 40
0
 40
1
 40
1
 40
1
 40
1
 10
168.203578
 20
150.174990
 30
0.0
 10
168.258569
 20
150.199753
 30
0.0
 10
168.319058
 20
150.213510
 30
0.0
 10
168.385047
 20
150.213510
 30
0.0
  0
SPLINE
  5
2e8
100
AcDbEntity
  8
Ebene_1
 62
7
100
AcDbSpline
 70
8
 71
3
 72
8
 73
4
 74
0
 40
0
 40
0
 40
0
 40
0
 40
1
 40
1
 40
1
 40
1
 10
168.385047
 20
150.213510
 30
0.0
 10
168.464783
 20
150.213510
 30
0.0
 10
168.530771
 20
150.194250
 30
0.0
 10
168.583012
 20
150.158481
 30
0.0
  0
SPLINE
  5
2e9
100
AcDbEntity
  8
Ebene_1
 62
7
100
AcDbSpline
 70
8
 71
3
 72
8
 73
4
 74
0
 40
0
 40
0
 40
0
 40
0
 40
1
 40
1
 40
1
 40
1
 10
168.583012
 20
150.158481
 30
0.0
 10
168.638003
 20
150.125464
 30
0.0
 10
168.677871
 20
150.071810
 30
0.0
 10
168.703991
 20
149.998896
 30
0.0
  0
SPLINE
  5
2ea
100
AcDbEntity
  8
Ebene_1
 62
7
100
AcDbSpline
 70
8
 71
3
 72
8
 73
4
 74
0
 40
0
 40
0
 40
0
 40
0
 40
1
 40
1
 40
1
 40
1
 10
168.703991
 20
149.998896
 30
0.0
 10
168.750733
 20
150.071810
 30
0.0
 10
168.805723
 20
150.125464
 30
0.0
 10
168.868963
 20
150.158481
 30
0.0
  0
SPLINE
  5
2eb
100
AcDbEntity
  8
Ebene_1
 62
7
100
AcDbSpline
 70
8
 71
3
 72
8
 73
4
 74
0
 40
0
 40
0
 40
0
 40
0
 40
1
 40
1
 40
1
 40
1
 10
168.868963
 20
150.158481
 30
0.0
 10
168.930827
 20
150.194250
 30
0.0
 10
169.002314
 20
150.213510
 30
0.0
 10
169.083425
 20
150.213510
 30
0.0
  0
SPLINE
  5
2ec
100
AcDbEntity
  8
Ebene_1
 62
7
100
AcDbSpline
 70
8
 71
3
 72
8
 73
4
 74
0
 40
0
 40
0
 40
0
 40
0
 40
1
 40
1
 40
1
 40
1
 10
169.083425
 20
150.213510
 30
0.0
 10
169.233274
 20
150.213510
 30
0.0
 10
169.341880
 20
150.163984
 30
0.0
 10
169.407869
 20
150.064931
 30
0.0
  0
SPLINE
  5
2ed
100
AcDbEntity
  8
Ebene_1
 62
7
100
AcDbSpline
 70
8
 71
3
 72
8
 73
4
 74
0
 40
0
 40
0
 40
0
 40
0
 40
1
 40
1
 40
1
 40
1
 10
169.407869
 20
150.064931
 30
0.0
 10
169.476607
 20
149.968630
 30
0.0
 10
169.512351
 20
149.814548
 30
0.0
 10
169.512351
 20
149.602685
 30
0.0
  0
LWPOLYLINE
  5
2ee
100
AcDbEntity
  8
Ebene_1
 62
7
100
AcDbPolyline
 90
2
 70
0
 10
167.692167
 20
150.169487
 30
0.0
 10
167.956121
 20
150.169487
 30
0.0
  0
SPLINE
  5
2ef
100
AcDbEntity
  8
Ebene_1
 62
7
100
AcDbSpline
 70
8
 71
3
 72
8
 73
4
 74
0
 40
0
 40
0
 40
0
 40
0
 40
1
 40
1
 40
1
 40
1
 10
169.539846
 20
148.821269
 30
0.0
 10
169.608584
 20
148.821269
 30
0.0
 10
169.655326
 20
148.811639
 30
0.0
 10
169.677322
 20
148.793754
 30
0.0
  0
SPLINE
  5
2f0
100
AcDbEntity
  8
Ebene_1
 62
7
100
AcDbSpline
 70
8
 71
3
 72
8
 73
4
 74
0
 40
0
 40
0
 40
0
 40
0
 40
1
 40
1
 40
1
 40
1
 10
169.677322
 20
148.793754
 30
0.0
 10
169.702068
 20
148.778621
 30
0.0
 10
169.715816
 20
148.749731
 30
0.0
 10
169.715816
 20
148.705707
 30
0.0
  0
SPLINE
  5
2f1
100
AcDbEntity
  8
Ebene_1
 62
7
100
AcDbSpline
 70
8
 71
3
 72
8
 73
4
 74
0
 40
0
 40
0
 40
0
 40
0
 40
1
 40
1
 40
1
 40
1
 10
169.715816
 20
148.705707
 30
0.0
 10
169.715816
 20
148.661684
 30
0.0
 10
169.704817
 20
148.628666
 30
0.0
 10
169.682821
 20
148.606655
 30
0.0
  0
SPLINE
  5
2f2
100
AcDbEntity
  8
Ebene_1
 62
7
100
AcDbSpline
 70
8
 71
3
 72
8
 73
4
 74
0
 40
0
 40
0
 40
0
 40
0
 40
1
 40
1
 40
1
 40
1
 10
169.682821
 20
148.606655
 30
0.0
 10
169.663574
 20
148.587394
 30
0.0
 10
169.634705
 20
148.579140
 30
0.0
 10
169.594837
 20
148.579140
 30
0.0
  0
LWPOLYLINE
  5
2f3
100
AcDbEntity
  8
Ebene_1
 62
7
100
AcDbPolyline
 90
3
 70
0
 10
169.512351
 20
149.602685
 30
0.0
 10
169.512351
 20
148.821269
 30
0.0
 10
169.539846
 20
148.821269
 30
0.0
  0
SPLINE
  5
2f4
100
AcDbEntity
  8
Ebene_1
 62
7
100
AcDbSpline
 70
8
 71
3
 72
8
 73
4
 74
0
 40
0
 40
0
 40
0
 40
0
 40
1
 40
1
 40
1
 40
1
 10
169.385873
 20
148.579140
 30
0.0
 10
169.341880
 20
148.579140
 30
0.0
 10
169.308886
 20
148.591522
 30
0.0
 10
169.286890
 20
148.617661
 30
0.0
  0
SPLINE
  5
2f5
100
AcDbEntity
  8
Ebene_1
 62
7
100
AcDbSpline
 70
8
 71
3
 72
8
 73
4
 74
0
 40
0
 40
0
 40
0
 40
0
 40
1
 40
1
 40
1
 40
1
 10
169.286890
 20
148.617661
 30
0.0
 10
169.264894
 20
148.646551
 30
0.0
 10
169.253896
 20
148.690574
 30
0.0
 10
169.253896
 20
148.749731
 30
0.0
  0
LWPOLYLINE
  5
2f6
100
AcDbEntity
  8
Ebene_1
 62
7
100
AcDbPolyline
 90
2
 70
0
 10
169.594837
 20
148.579140
 30
0.0
 10
169.385873
 20
148.579140
 30
0.0
  0
SPLINE
  5
2f7
100
AcDbEntity
  8
Ebene_1
 62
7
100
AcDbSpline
 70
8
 71
3
 72
8
 73
4
 74
0
 40
0
 40
0
 40
0
 40
0
 40
1
 40
1
 40
1
 40
1
 10
171.365876
 20
149.536650
 30
0.0
 10
171.365876
 20
149.697611
 30
0.0
 10
171.350753
 20
149.806294
 30
0.0
 10
171.321883
 20
149.861323
 30
0.0
  0
SPLINE
  5
2f8
100
AcDbEntity
  8
Ebene_1
 62
7
100
AcDbSpline
 70
8
 71
3
 72
8
 73
4
 74
0
 40
0
 40
0
 40
0
 40
0
 40
1
 40
1
 40
1
 40
1
 10
171.321883
 20
149.861323
 30
0.0
 10
171.291638
 20
149.919104
 30
0.0
 10
171.242147
 20
149.949370
 30
0.0
 10
171.173409
 20
149.949370
 30
0.0
  0
SPLINE
  5
2f9
100
AcDbEntity
  8
Ebene_1
 62
7
100
AcDbSpline
 70
8
 71
3
 72
8
 73
4
 74
0
 40
0
 40
0
 40
0
 40
0
 40
1
 40
1
 40
1
 40
1
 10
171.173409
 20
149.949370
 30
0.0
 10
171.085424
 20
149.949370
 30
0.0
 10
171.015312
 20
149.912225
 30
0.0
 10
170.964446
 20
149.839311
 30
0.0
  0
SPLINE
  5
2fa
100
AcDbEntity
  8
Ebene_1
 62
7
100
AcDbSpline
 70
8
 71
3
 72
8
 73
4
 74
0
 40
0
 40
0
 40
0
 40
0
 40
1
 40
1
 40
1
 40
1
 10
170.964446
 20
149.839311
 30
0.0
 10
170.916329
 20
149.765022
 30
0.0
 10
170.892958
 20
149.664593
 30
0.0
 10
170.892958
 20
149.536650
 30
0.0
  0
LWPOLYLINE
  5
2fb
100
AcDbEntity
  8
Ebene_1
 62
7
100
AcDbPolyline
 90
2
 70
0
 10
169.253896
 20
148.749731
 30
0.0
 10
169.253896
 20
149.536650
 30
0.0
  0
SPLINE
  5
2fc
100
AcDbEntity
  8
Ebene_1
 62
7
100
AcDbSpline
 70
8
 71
3
 72
8
 73
4
 74
0
 40
0
 40
0
 40
0
 40
0
 40
1
 40
1
 40
1
 40
1
 10
170.925952
 20
148.821269
 30
0.0
 10
170.994690
 20
148.821269
 30
0.0
 10
171.041432
 20
148.811639
 30
0.0
 10
171.063428
 20
148.793754
 30
0.0
  0
SPLINE
  5
2fd
100
AcDbEntity
  8
Ebene_1
 62
7
100
AcDbSpline
 70
8
 71
3
 72
8
 73
4
 74
0
 40
0
 40
0
 40
0
 40
0
 40
1
 40
1
 40
1
 40
1
 10
171.063428
 20
148.793754
 30
0.0
 10
171.088174
 20
148.778621
 30
0.0
 10
171.101922
 20
148.749731
 30
0.0
 10
171.101922
 20
148.705707
 30
0.0
  0
SPLINE
  5
2fe
100
AcDbEntity
  8
Ebene_1
 62
7
100
AcDbSpline
 70
8
 71
3
 72
8
 73
4
 74
0
 40
0
 40
0
 40
0
 40
0
 40
1
 40
1
 40
1
 40
1
 10
171.101922
 20
148.705707
 30
0.0
 10
171.101922
 20
148.661684
 30
0.0
 10
171.090924
 20
148.628666
 30
0.0
 10
171.068927
 20
148.606655
 30
0.0
  0
SPLINE
  5
2ff
100
AcDbEntity
  8
Ebene_1
 62
7
100
AcDbSpline
 70
8
 71
3
 72
8
 73
4
 74
0
 40
0
 40
0
 40
0
 40
0
 40
1
 40
1
 40
1
 40
1
 10
171.068927
 20
148.606655
 30
0.0
 10
171.049681
 20
148.587394
 30
0.0
 10
171.020811
 20
148.579140
 30
0.0
 10
170.980943
 20
148.579140
 30
0.0
  0
LWPOLYLINE
  5
300
100
AcDbEntity
  8
Ebene_1
 62
7
100
AcDbPolyline
 90
3
 70
0
 10
170.892958
 20
149.536650
 30
0.0
 10
170.892958
 20
148.821269
 30
0.0
 10
170.925952
 20
148.821269
 30
0.0
  0
SPLINE
  5
301
100
AcDbEntity
  8
Ebene_1
 62
7
100
AcDbSpline
 70
8
 71
3
 72
8
 73
4
 74
0
 40
0
 40
0
 40
0
 40
0
 40
1
 40
1
 40
1
 40
1
 10
170.760981
 20
148.579140
 30
0.0
 10
170.712864
 20
148.579140
 30
0.0
 10
170.679870
 20
148.590146
 30
0.0
 10
170.661998
 20
148.612158
 30
0.0
  0
SPLINE
  5
302
100
AcDbEntity
  8
Ebene_1
 62
7
100
AcDbSpline
 70
8
 71
3
 72
8
 73
4
 74
0
 40
0
 40
0
 40
0
 40
0
 40
1
 40
1
 40
1
 40
1
 10
170.661998
 20
148.612158
 30
0.0
 10
170.642751
 20
148.636921
 30
0.0
 10
170.634503
 20
148.686447
 30
0.0
 10
170.634503
 20
148.760737
 30
0.0
  0
LWPOLYLINE
  5
303
100
AcDbEntity
  8
Ebene_1
 62
7
100
AcDbPolyline
 90
2
 70
0
 10
170.980943
 20
148.579140
 30
0.0
 10
170.760981
 20
148.579140
 30
0.0
  0
SPLINE
  5
304
100
AcDbEntity
  8
Ebene_1
 62
7
100
AcDbSpline
 70
8
 71
3
 72
8
 73
4
 74
0
 40
0
 40
0
 40
0
 40
0
 40
1
 40
1
 40
1
 40
1
 10
170.634503
 20
149.668720
 30
0.0
 10
170.634503
 20
149.756767
 30
0.0
 10
170.613881
 20
149.824178
 30
0.0
 10
170.574013
 20
149.872329
 30
0.0
  0
SPLINE
  5
305
100
AcDbEntity
  8
Ebene_1
 62
7
100
AcDbSpline
 70
8
 71
3
 72
8
 73
4
 74
0
 40
0
 40
0
 40
0
 40
0
 40
1
 40
1
 40
1
 40
1
 10
170.574013
 20
149.872329
 30
0.0
 10
170.536895
 20
149.923231
 30
0.0
 10
170.486029
 20
149.949370
 30
0.0
 10
170.420040
 20
149.949370
 30
0.0
  0
SPLINE
  5
306
100
AcDbEntity
  8
Ebene_1
 62
7
100
AcDbSpline
 70
8
 71
3
 72
8
 73
4
 74
0
 40
0
 40
0
 40
0
 40
0
 40
1
 40
1
 40
1
 40
1
 10
170.420040
 20
149.949370
 30
0.0
 10
170.367799
 20
149.949370
 30
0.0
 10
170.321057
 20
149.934237
 30
0.0
 10
170.277065
 20
149.905346
 30
0.0
  0
SPLINE
  5
307
100
AcDbEntity
  8
Ebene_1
 62
7
100
AcDbSpline
 70
8
 71
3
 72
8
 73
4
 74
0
 40
0
 40
0
 40
0
 40
0
 40
1
 40
1
 40
1
 40
1
 10
170.277065
 20
149.905346
 30
0.0
 10
170.233073
 20
149.875080
 30
0.0
 10
170.195954
 20
149.829681
 30
0.0
 10
170.167084
 20
149.767773
 30
0.0
  0
LWPOLYLINE
  5
308
100
AcDbEntity
  8
Ebene_1
 62
7
100
AcDbPolyline
 90
2
 70
0
 10
170.634503
 20
148.760737
 30
0.0
 10
170.634503
 20
149.668720
 30
0.0
  0
SPLINE
  5
309
100
AcDbEntity
  8
Ebene_1
 62
7
100
AcDbSpline
 70
8
 71
3
 72
8
 73
4
 74
0
 40
0
 40
0
 40
0
 40
0
 40
1
 40
1
 40
1
 40
1
 10
170.227574
 20
148.821269
 30
0.0
 10
170.296312
 20
148.821269
 30
0.0
 10
170.343053
 20
148.811639
 30
0.0
 10
170.365050
 20
148.793754
 30
0.0
  0
SPLINE
  5
30a
100
AcDbEntity
  8
Ebene_1
 62
7
100
AcDbSpline
 70
8
 71
3
 72
8
 73
4
 74
0
 40
0
 40
0
 40
0
 40
0
 40
1
 40
1
 40
1
 40
1
 10
170.365050
 20
148.793754
 30
0.0
 10
170.389795
 20
148.778621
 30
0.0
 10
170.403543
 20
148.749731
 30
0.0
 10
170.403543
 20
148.705707
 30
0.0
  0
SPLINE
  5
30b
100
AcDbEntity
  8
Ebene_1
 62
7
100
AcDbSpline
 70
8
 71
3
 72
8
 73
4
 74
0
 40
0
 40
0
 40
0
 40
0
 40
1
 40
1
 40
1
 40
1
 10
170.403543
 20
148.705707
 30
0.0
 10
170.403543
 20
148.657557
 30
0.0
 10
170.393920
 20
148.624539
 30
0.0
 10
170.376048
 20
148.606655
 30
0.0
  0
SPLINE
  5
30c
100
AcDbEntity
  8
Ebene_1
 62
7
100
AcDbSpline
 70
8
 71
3
 72
8
 73
4
 74
0
 40
0
 40
0
 40
0
 40
0
 40
1
 40
1
 40
1
 40
1
 10
170.376048
 20
148.606655
 30
0.0
 10
170.356801
 20
148.587394
 30
0.0
 10
170.321057
 20
148.579140
 30
0.0
 10
170.266067
 20
148.579140
 30
0.0
  0
LWPOLYLINE
  5
30d
100
AcDbEntity
  8
Ebene_1
 62
7
100
AcDbPolyline
 90
3
 70
0
 10
170.167084
 20
149.767773
 30
0.0
 10
170.167084
 20
148.821269
 30
0.0
 10
170.227574
 20
148.821269
 30
0.0
  0
SPLINE
  5
30e
100
AcDbEntity
  8
Ebene_1
 62
7
100
AcDbSpline
 70
8
 71
3
 72
8
 73
4
 74
0
 40
0
 40
0
 40
0
 40
0
 40
1
 40
1
 40
1
 40
1
 10
169.804147
 20
148.579140
 30
0.0
 10
169.760155
 20
148.579140
 30
0.0
 10
169.727160
 20
148.587394
 30
0.0
 10
169.705164
 20
148.606655
 30
0.0
  0
SPLINE
  5
30f
100
AcDbEntity
  8
Ebene_1
 62
7
100
AcDbSpline
 70
8
 71
3
 72
8
 73
4
 74
0
 40
0
 40
0
 40
0
 40
0
 40
1
 40
1
 40
1
 40
1
 10
169.705164
 20
148.606655
 30
0.0
 10
169.685918
 20
148.628666
 30
0.0
 10
169.677669
 20
148.661684
 30
0.0
 10
169.677669
 20
148.705707
 30
0.0
  0
SPLINE
  5
310
100
AcDbEntity
  8
Ebene_1
 62
7
100
AcDbSpline
 70
8
 71
3
 72
8
 73
4
 74
0
 40
0
 40
0
 40
0
 40
0
 40
1
 40
1
 40
1
 40
1
 10
169.677669
 20
148.705707
 30
0.0
 10
169.677669
 20
148.749731
 30
0.0
 10
169.690042
 20
148.778621
 30
0.0
 10
169.716162
 20
148.793754
 30
0.0
  0
SPLINE
  5
311
100
AcDbEntity
  8
Ebene_1
 62
7
100
AcDbSpline
 70
8
 71
3
 72
8
 73
4
 74
0
 40
0
 40
0
 40
0
 40
0
 40
1
 40
1
 40
1
 40
1
 10
169.716162
 20
148.793754
 30
0.0
 10
169.740908
 20
148.811639
 30
0.0
 10
169.794524
 20
148.821269
 30
0.0
 10
169.875635
 20
148.821269
 30
0.0
  0
LWPOLYLINE
  5
312
100
AcDbEntity
  8
Ebene_1
 62
7
100
AcDbPolyline
 90
2
 70
0
 10
170.266067
 20
148.579140
 30
0.0
 10
169.804147
 20
148.579140
 30
0.0
  0
SPLINE
  5
313
100
AcDbEntity
  8
Ebene_1
 62
7
100
AcDbSpline
 70
8
 71
3
 72
8
 73
4
 74
0
 40
0
 40
0
 40
0
 40
0
 40
1
 40
1
 40
1
 40
1
 10
169.875635
 20
149.921855
 30
0.0
 10
169.794524
 20
149.921855
 30
0.0
 10
169.739533
 20
149.930110
 30
0.0
 10
169.710663
 20
149.949370
 30
0.0
  0
SPLINE
  5
314
100
AcDbEntity
  8
Ebene_1
 62
7
100
AcDbSpline
 70
8
 71
3
 72
8
 73
4
 74
0
 40
0
 40
0
 40
0
 40
0
 40
1
 40
1
 40
1
 40
1
 10
169.710663
 20
149.949370
 30
0.0
 10
169.680419
 20
149.967254
 30
0.0
 10
169.666671
 20
150.000272
 30
0.0
 10
169.666671
 20
150.048423
 30
0.0
  0
SPLINE
  5
315
100
AcDbEntity
  8
Ebene_1
 62
7
100
AcDbSpline
 70
8
 71
3
 72
8
 73
4
 74
0
 40
0
 40
0
 40
0
 40
0
 40
1
 40
1
 40
1
 40
1
 10
169.666671
 20
150.048423
 30
0.0
 10
169.666671
 20
150.088319
 30
0.0
 10
169.677669
 20
150.117209
 30
0.0
 10
169.699665
 20
150.136469
 30
0.0
  0
SPLINE
  5
316
100
AcDbEntity
  8
Ebene_1
 62
7
100
AcDbSpline
 70
8
 71
3
 72
8
 73
4
 74
0
 40
0
 40
0
 40
0
 40
0
 40
1
 40
1
 40
1
 40
1
 10
169.699665
 20
150.136469
 30
0.0
 10
169.724411
 20
150.158481
 30
0.0
 10
169.760155
 20
150.169487
 30
0.0
 10
169.804147
 20
150.169487
 30
0.0
  0
LWPOLYLINE
  5
317
100
AcDbEntity
  8
Ebene_1
 62
7
100
AcDbPolyline
 90
4
 70
0
 10
169.875635
 20
148.821269
 30
0.0
 10
169.908629
 20
148.821269
 30
0.0
 10
169.908629
 20
149.921855
 30
0.0
 10
169.875635
 20
149.921855
 30
0.0
  0
SPLINE
  5
318
100
AcDbEntity
  8
Ebene_1
 62
7
100
AcDbSpline
 70
8
 71
3
 72
8
 73
4
 74
0
 40
0
 40
0
 40
0
 40
0
 40
1
 40
1
 40
1
 40
1
 10
170.068101
 20
150.169487
 30
0.0
 10
170.107969
 20
150.169487
 30
0.0
 10
170.134090
 20
150.161233
 30
0.0
 10
170.145088
 20
150.147475
 30
0.0
  0
SPLINE
  5
319
100
AcDbEntity
  8
Ebene_1
 62
7
100
AcDbSpline
 70
8
 71
3
 72
8
 73
4
 74
0
 40
0
 40
0
 40
0
 40
0
 40
1
 40
1
 40
1
 40
1
 10
170.145088
 20
150.147475
 30
0.0
 10
170.156086
 20
150.136469
 30
0.0
 10
170.162960
 20
150.108955
 30
0.0
 10
170.167084
 20
150.064931
 30
0.0
  0
SPLINE
  5
31a
100
AcDbEntity
  8
Ebene_1
 62
7
100
AcDbSpline
 70
8
 71
3
 72
8
 73
4
 74
0
 40
0
 40
0
 40
0
 40
0
 40
1
 40
1
 40
1
 40
1
 10
170.167084
 20
150.064931
 30
0.0
 10
170.213826
 20
150.115833
 30
0.0
 10
170.263317
 20
150.152978
 30
0.0
 10
170.315558
 20
150.174990
 30
0.0
  0
SPLINE
  5
31b
100
AcDbEntity
  8
Ebene_1
 62
7
100
AcDbSpline
 70
8
 71
3
 72
8
 73
4
 74
0
 40
0
 40
0
 40
0
 40
0
 40
1
 40
1
 40
1
 40
1
 10
170.315558
 20
150.174990
 30
0.0
 10
170.370549
 20
150.199753
 30
0.0
 10
170.431038
 20
150.213510
 30
0.0
 10
170.497027
 20
150.213510
 30
0.0
  0
SPLINE
  5
31c
100
AcDbEntity
  8
Ebene_1
 62
7
100
AcDbSpline
 70
8
 71
3
 72
8
 73
4
 74
0
 40
0
 40
0
 40
0
 40
0
 40
1
 40
1
 40
1
 40
1
 10
170.497027
 20
150.213510
 30
0.0
 10
170.576763
 20
150.213510
 30
0.0
 10
170.642751
 20
150.194250
 30
0.0
 10
170.694992
 20
150.158481
 30
0.0
  0
SPLINE
  5
31d
100
AcDbEntity
  8
Ebene_1
 62
7
100
AcDbSpline
 70
8
 71
3
 72
8
 73
4
 74
0
 40
0
 40
0
 40
0
 40
0
 40
1
 40
1
 40
1
 40
1
 10
170.694992
 20
150.158481
 30
0.0
 10
170.749983
 20
150.125464
 30
0.0
 10
170.789851
 20
150.071810
 30
0.0
 10
170.815971
 20
149.998896
 30
0.0
  0
SPLINE
  5
31e
100
AcDbEntity
  8
Ebene_1
 62
7
100
AcDbSpline
 70
8
 71
3
 72
8
 73
4
 74
0
 40
0
 40
0
 40
0
 40
0
 40
1
 40
1
 40
1
 40
1
 10
170.815971
 20
149.998896
 30
0.0
 10
170.862713
 20
150.071810
 30
0.0
 10
170.917703
 20
150.125464
 30
0.0
 10
170.980943
 20
150.158481
 30
0.0
  0
SPLINE
  5
31f
100
AcDbEntity
  8
Ebene_1
 62
7
100
AcDbSpline
 70
8
 71
3
 72
8
 73
4
 74
0
 40
0
 40
0
 40
0
 40
0
 40
1
 40
1
 40
1
 40
1
 10
170.980943
 20
150.158481
 30
0.0
 10
171.042807
 20
150.194250
 30
0.0
 10
171.114294
 20
150.213510
 30
0.0
 10
171.195405
 20
150.213510
 30
0.0
  0
SPLINE
  5
320
100
AcDbEntity
  8
Ebene_1
 62
7
100
AcDbSpline
 70
8
 71
3
 72
8
 73
4
 74
0
 40
0
 40
0
 40
0
 40
0
 40
1
 40
1
 40
1
 40
1
 10
171.195405
 20
150.213510
 30
0.0
 10
171.345254
 20
150.213510
 30
0.0
 10
171.453860
 20
150.163984
 30
0.0
 10
171.519849
 20
150.064931
 30
0.0
  0
SPLINE
  5
321
100
AcDbEntity
  8
Ebene_1
 62
7
100
AcDbSpline
 70
8
 71
3
 72
8
 73
4
 74
0
 40
0
 40
0
 40
0
 40
0
 40
1
 40
1
 40
1
 40
1
 10
171.519849
 20
150.064931
 30
0.0
 10
171.588587
 20
149.968630
 30
0.0
 10
171.624331
 20
149.814548
 30
0.0
 10
171.624331
 20
149.602685
 30
0.0
  0
LWPOLYLINE
  5
322
100
AcDbEntity
  8
Ebene_1
 62
7
100
AcDbPolyline
 90
2
 70
0
 10
169.804147
 20
150.169487
 30
0.0
 10
170.068101
 20
150.169487
 30
0.0
  0
SPLINE
  5
323
100
AcDbEntity
  8
Ebene_1
 62
7
100
AcDbSpline
 70
8
 71
3
 72
8
 73
4
 74
0
 40
0
 40
0
 40
0
 40
0
 40
1
 40
1
 40
1
 40
1
 10
171.651826
 20
148.821269
 30
0.0
 10
171.720564
 20
148.821269
 30
0.0
 10
171.767306
 20
148.811639
 30
0.0
 10
171.789302
 20
148.793754
 30
0.0
  0
SPLINE
  5
324
100
AcDbEntity
  8
Ebene_1
 62
7
100
AcDbSpline
 70
8
 71
3
 72
8
 73
4
 74
0
 40
0
 40
0
 40
0
 40
0
 40
1
 40
1
 40
1
 40
1
 10
171.789302
 20
148.793754
 30
0.0
 10
171.814048
 20
148.778621
 30
0.0
 10
171.827796
 20
148.749731
 30
0.0
 10
171.827796
 20
148.705707
 30
0.0
  0
SPLINE
  5
325
100
AcDbEntity
  8
Ebene_1
 62
7
100
AcDbSpline
 70
8
 71
3
 72
8
 73
4
 74
0
 40
0
 40
0
 40
0
 40
0
 40
1
 40
1
 40
1
 40
1
 10
171.827796
 20
148.705707
 30
0.0
 10
171.827796
 20
148.661684
 30
0.0
 10
171.816797
 20
148.628666
 30
0.0
 10
171.794801
 20
148.606655
 30
0.0
  0
SPLINE
  5
326
100
AcDbEntity
  8
Ebene_1
 62
7
100
AcDbSpline
 70
8
 71
3
 72
8
 73
4
 74
0
 40
0
 40
0
 40
0
 40
0
 40
1
 40
1
 40
1
 40
1
 10
171.794801
 20
148.606655
 30
0.0
 10
171.775554
 20
148.587394
 30
0.0
 10
171.746685
 20
148.579140
 30
0.0
 10
171.706817
 20
148.579140
 30
0.0
  0
LWPOLYLINE
  5
327
100
AcDbEntity
  8
Ebene_1
 62
7
100
AcDbPolyline
 90
3
 70
0
 10
171.624331
 20
149.602685
 30
0.0
 10
171.624331
 20
148.821269
 30
0.0
 10
171.651826
 20
148.821269
 30
0.0
  0
SPLINE
  5
328
100
AcDbEntity
  8
Ebene_1
 62
7
100
AcDbSpline
 70
8
 71
3
 72
8
 73
4
 74
0
 40
0
 40
0
 40
0
 40
0
 40
1
 40
1
 40
1
 40
1
 10
171.497853
 20
148.579140
 30
0.0
 10
171.453860
 20
148.579140
 30
0.0
 10
171.420866
 20
148.591522
 30
0.0
 10
171.398870
 20
148.617661
 30
0.0
  0
SPLINE
  5
329
100
AcDbEntity
  8
Ebene_1
 62
7
100
AcDbSpline
 70
8
 71
3
 72
8
 73
4
 74
0
 40
0
 40
0
 40
0
 40
0
 40
1
 40
1
 40
1
 40
1
 10
171.398870
 20
148.617661
 30
0.0
 10
171.376874
 20
148.646551
 30
0.0
 10
171.365876
 20
148.690574
 30
0.0
 10
171.365876
 20
148.749731
 30
0.0
  0
LWPOLYLINE
  5
32a
100
AcDbEntity
  8
Ebene_1
 62
7
100
AcDbPolyline
 90
2
 70
0
 10
171.706817
 20
148.579140
 30
0.0
 10
171.497853
 20
148.579140
 30
0.0
  0
LWPOLYLINE
  5
32b
100
AcDbEntity
  8
Ebene_1
 62
7
100
AcDbPolyline
 90
2
 70
0
 10
171.365876
 20
148.749731
 30
0.0
 10
171.365876
 20
149.536650
 30
0.0
  0
ENDSEC
  0
SECTION
  2
OBJECTS
  0
DICTIONARY
  5
C
330
0
100
AcDbDictionary
  3
ACAD_GROUP
350
D
  3
ACAD_MLINESTYLE
350
17
  0
DICTIONARY
  5
D
330
C
100
AcDbDictionary
  0
DICTIONARY
  5
1A
330
C
100
AcDbDictionary
  0
DICTIONARY
  5
17
330
C
100
AcDbDictionary
  3
STANDARD
350
18
  0
DICTIONARY
  5
19
330
C
100
AcDbDictionary
  0
ENDSEC
  0
EOF
