<?xml version="1.0" encoding="UTF-8" standalone="no"?>
<svg
   xmlns:dc="http://purl.org/dc/elements/1.1/"
   xmlns:cc="http://creativecommons.org/ns#"
   xmlns:rdf="http://www.w3.org/1999/02/22-rdf-syntax-ns#"
   xmlns:svg="http://www.w3.org/2000/svg"
   xmlns="http://www.w3.org/2000/svg"
   id="svg2405"
   version="1.1"
   viewBox="0 0 420 297"
   height="297mm"
   width="420mm">
  <defs
     id="defs2399" />
  <metadata
     id="metadata2402">
    <rdf:RDF>
      <cc:Work
         rdf:about="">
        <dc:format>image/svg+xml</dc:format>
        <dc:type
           rdf:resource="http://purl.org/dc/dcmitype/StillImage" />
        <dc:title></dc:title>
      </cc:Work>
    </rdf:RDF>
  </metadata>
  <rect
     style="stroke:#000000;stroke-dasharray:none;stroke-opacity:1;fill-opacity:1;stroke-miterlimit:10;stroke-width:0.09994243;fill:none"
     id="rect2407"
     width="209.90005"
     height="147.90005"
     x="0.049971219"
     y="0.54997385"
     transform="matrix(1.000000,0.000000,0.000000,1.000000,0.000000,0.000000)" />
  <rect
     style="stroke:#000000;stroke-dasharray:none;stroke-opacity:1;fill-opacity:1;stroke-miterlimit:10;stroke-width:0.09994243;fill:none"
     id="rect2407-3"
     width="209.90005"
     height="147.90005"
     x="0.049971219"
     y="148.54997"
     transform="matrix(1.000000,0.000000,0.000000,1.000000,0.000000,0.000000)" />
  <rect
     style="stroke:#000000;stroke-dasharray:none;stroke-opacity:1;fill-opacity:1;stroke-miterlimit:10;stroke-width:0.09994243;fill:none"
     id="rect2407-6"
     width="209.90005"
     height="147.90005"
     x="210.04997"
     y="148.54997"
     transform="matrix(1.000000,0.000000,0.000000,1.000000,0.000000,0.000000)" />
  <rect
     style="stroke:#000000;stroke-dasharray:none;stroke-opacity:1;fill-opacity:1;stroke-miterlimit:10;stroke-width:0.09994243;fill:none"
     id="rect2407-0"
     width="209.90005"
     height="147.90005"
     x="210.04997"
     y="0.54997385"
     transform="matrix(1.000000,0.000000,0.000000,1.000000,0.000000,0.000000)" />
  <rect
     y="139.01599"
     x="0.45324814"
     height="9.0292444"
     width="9.0905075"
     id="rect2407-36"
     style="stroke:#000000;stroke-dasharray:none;stroke-opacity:1;fill-opacity:1;stroke-miterlimit:10;stroke-width:0.90649629;fill:none"
     transform="matrix(1.000000,0.000000,0.000000,1.000000,0.000000,0.000000)" />
  <rect
     y="0.95171738"
     x="0.45324814"
     height="9.0292444"
     width="9.0905075"
     id="rect2407-36-7"
     style="stroke:#000000;stroke-dasharray:none;stroke-opacity:1;fill-opacity:1;stroke-miterlimit:10;stroke-width:0.90649629;fill:none"
     transform="matrix(1.000000,0.000000,0.000000,1.000000,0.000000,0.000000)" />
  <rect
     y="0.95171738"
     x="200.45461"
     height="9.0292444"
     width="9.0905075"
     id="rect2407-36-7-5"
     style="stroke:#000000;stroke-dasharray:none;stroke-opacity:1;fill-opacity:1;stroke-miterlimit:10;stroke-width:0.90649629;fill:none"
     transform="matrix(1.000000,0.000000,0.000000,1.000000,0.000000,0.000000)" />
  <rect
     y="139.01599"
     x="200.45461"
     height="9.0292444"
     width="9.0905075"
     id="rect2407-36-7-5-3"
     style="stroke:#000000;stroke-dasharray:none;stroke-opacity:1;fill-opacity:1;stroke-miterlimit:10;stroke-width:0.90649629;fill:none"
     transform="matrix(1.000000,0.000000,0.000000,1.000000,0.000000,0.000000)" />
  <rect
     y="139.01598"
     x="210.45465"
     height="9.0292444"
     width="9.0905075"
     id="rect2407-36-9"
     style="stroke:#000000;stroke-dasharray:none;stroke-opacity:1;fill-opacity:1;stroke-miterlimit:10;stroke-width:0.90649629;fill:none"
     transform="matrix(1.000000,0.000000,0.000000,1.000000,0.000000,0.000000)" />
  <rect
     y="0.95171738"
     x="210.45465"
     height="9.0292444"
     width="9.0905075"
     id="rect2407-36-7-2"
     style="stroke:#000000;stroke-dasharray:none;stroke-opacity:1;fill-opacity:1;stroke-miterlimit:10;stroke-width:0.90649629;fill:none"
     transform="matrix(1.000000,0.000000,0.000000,1.000000,0.000000,0.000000)" />
  <rect
     y="0.95171738"
     x="410.45639"
     height="9.0292444"
     width="9.0905075"
     id="rect2407-36-7-5-0"
     style="stroke:#000000;stroke-dasharray:none;stroke-opacity:1;fill-opacity:1;stroke-miterlimit:10;stroke-width:0.90649629;fill:none"
     transform="matrix(1.000000,0.000000,0.000000,1.000000,0.000000,0.000000)" />
  <rect
     y="139.01598"
     x="410.45639"
     height="9.0292444"
     width="9.0905075"
     id="rect2407-36-7-5-3-2"
     style="stroke:#000000;stroke-dasharray:none;stroke-opacity:1;fill-opacity:1;stroke-miterlimit:10;stroke-width:0.90649629;fill:none"
     transform="matrix(1.000000,0.000000,0.000000,1.000000,0.000000,0.000000)" />
  <rect
     y="287.0173"
     x="0.45477402"
     height="9.0294352"
     width="9.0904408"
     id="rect2407-36-75"
     style="stroke:#000000;stroke-dasharray:none;stroke-opacity:1;fill-opacity:1;stroke-miterlimit:10;stroke-width:0.90650254;fill:none"
     transform="matrix(1.000000,0.000000,0.000000,1.000000,0.000000,0.000000)" />
  <rect
     y="148.95015"
     x="0.45477402"
     height="9.0294352"
     width="9.0904408"
     id="rect2407-36-7-3"
     style="stroke:#000000;stroke-dasharray:none;stroke-opacity:1;fill-opacity:1;stroke-miterlimit:10;stroke-width:0.90650254;fill:none"
     transform="matrix(1.000000,0.000000,0.000000,1.000000,0.000000,0.000000)" />
  <rect
     y="148.95015"
     x="200.45465"
     height="9.0294352"
     width="9.0904408"
     id="rect2407-36-7-5-5"
     style="stroke:#000000;stroke-dasharray:none;stroke-opacity:1;fill-opacity:1;stroke-miterlimit:10;stroke-width:0.90650254;fill:none"
     transform="matrix(1.000000,0.000000,0.000000,1.000000,0.000000,0.000000)" />
  <rect
     y="287.0173"
     x="200.45465"
     height="9.0294352"
     width="9.0904408"
     id="rect2407-36-7-5-3-6"
     style="stroke:#000000;stroke-dasharray:none;stroke-opacity:1;fill-opacity:1;stroke-miterlimit:10;stroke-width:0.90650254;fill:none"
     transform="matrix(1.000000,0.000000,0.000000,1.000000,0.000000,0.000000)" />
  <rect
     y="287.0173"
     x="210.45465"
     height="9.0294352"
     width="9.0904408"
     id="rect2407-36-9-9"
     style="stroke:#000000;stroke-dasharray:none;stroke-opacity:1;fill-opacity:1;stroke-miterlimit:10;stroke-width:0.90650254;fill:none"
     transform="matrix(1.000000,0.000000,0.000000,1.000000,0.000000,0.000000)" />
  <rect
     y="148.95015"
     x="210.45465"
     height="9.0294352"
     width="9.0904408"
     id="rect2407-36-7-2-1"
     style="stroke:#000000;stroke-dasharray:none;stroke-opacity:1;fill-opacity:1;stroke-miterlimit:10;stroke-width:0.90650254;fill:none"
     transform="matrix(1.000000,0.000000,0.000000,1.000000,0.000000,0.000000)" />
  <rect
     y="148.95015"
     x="410.45493"
     height="9.0294352"
     width="9.0904408"
     id="rect2407-36-7-5-0-2"
     style="stroke:#000000;stroke-dasharray:none;stroke-opacity:1;fill-opacity:1;stroke-miterlimit:10;stroke-width:0.90650254;fill:none"
     transform="matrix(1.000000,0.000000,0.000000,1.000000,0.000000,0.000000)" />
  <rect
     y="287.0173"
     x="410.45493"
     height="9.0294352"
     width="9.0904408"
     id="rect2407-36-7-5-3-2-7"
     style="stroke:#000000;stroke-dasharray:none;stroke-opacity:1;fill-opacity:1;stroke-miterlimit:10;stroke-width:0.90650254;fill:none"
     transform="matrix(1.000000,0.000000,0.000000,1.000000,0.000000,0.000000)" />
</svg>
