<?xml version="1.0" encoding="UTF-8" standalone="no"?>
<svg
   xmlns:dc="http://purl.org/dc/elements/1.1/"
   xmlns:cc="http://creativecommons.org/ns#"
   xmlns:rdf="http://www.w3.org/1999/02/22-rdf-syntax-ns#"
   xmlns:svg="http://www.w3.org/2000/svg"
   xmlns="http://www.w3.org/2000/svg"
   width="420mm"
   height="297mm"
   viewBox="0 0 420 297"
   version="1.1"
   id="svg2405">
  <defs
     id="defs2399" />
  <metadata
     id="metadata2402">
    <rdf:RDF>
      <cc:Work
         rdf:about="">
        <dc:format>image/svg+xml</dc:format>
        <dc:type
           rdf:resource="http://purl.org/dc/dcmitype/StillImage" />
        <dc:title></dc:title>
      </cc:Work>
    </rdf:RDF>
  </metadata>
  <rect
     transform="matrix(1.000000,0.000000,0.000000,1.000000,0.000000,0.000000)"
     y="0.54997385"
     x="0.049971219"
     height="147.90005"
     width="209.90005"
     id="rect2407"
     style="stroke:#000000;stroke-dasharray:none;stroke-opacity:1;fill-opacity:1;stroke-miterlimit:10;stroke-width:0.09994243;fill:none" />
  <rect
     transform="matrix(1.000000,0.000000,0.000000,1.000000,0.000000,0.000000)"
     y="148.54997"
     x="0.049971219"
     height="147.90005"
     width="209.90005"
     id="rect2407-3"
     style="stroke:#000000;stroke-dasharray:none;stroke-opacity:1;fill-opacity:1;stroke-miterlimit:10;stroke-width:0.09994243;fill:none" />
  <rect
     transform="matrix(1.000000,0.000000,0.000000,1.000000,0.000000,0.000000)"
     y="148.54997"
     x="210.04997"
     height="147.90005"
     width="209.90005"
     id="rect2407-6"
     style="stroke:#000000;stroke-dasharray:none;stroke-opacity:1;fill-opacity:1;stroke-miterlimit:10;stroke-width:0.09994243;fill:none" />
  <rect
     transform="matrix(1.000000,0.000000,0.000000,1.000000,0.000000,0.000000)"
     y="0.54997385"
     x="210.04997"
     height="147.90005"
     width="209.90005"
     id="rect2407-0"
     style="stroke:#000000;stroke-dasharray:none;stroke-opacity:1;fill-opacity:1;stroke-miterlimit:10;stroke-width:0.09994243;fill:none" />
  <rect
     transform="matrix(1.000000,0.000000,0.000000,1.000000,0.000000,0.000000)"
     style="stroke:#000000;stroke-dasharray:none;stroke-opacity:1;fill-opacity:1;stroke-miterlimit:10;stroke-width:0.90649629;fill:none"
     id="rect2407-36"
     width="9.0905075"
     height="9.0292444"
     x="0.45324814"
     y="139.01599" />
  <rect
     transform="matrix(1.000000,0.000000,0.000000,1.000000,0.000000,0.000000)"
     style="stroke:#000000;stroke-dasharray:none;stroke-opacity:1;fill-opacity:1;stroke-miterlimit:10;stroke-width:0.90649629;fill:none"
     id="rect2407-36-7"
     width="9.0905075"
     height="9.0292444"
     x="0.45324814"
     y="0.95171738" />
  <rect
     transform="matrix(1.000000,0.000000,0.000000,1.000000,0.000000,0.000000)"
     style="stroke:#000000;stroke-dasharray:none;stroke-opacity:1;fill-opacity:1;stroke-miterlimit:10;stroke-width:0.90649629;fill:none"
     id="rect2407-36-7-5"
     width="9.0905075"
     height="9.0292444"
     x="200.45461"
     y="0.95171738" />
  <rect
     transform="matrix(1.000000,0.000000,0.000000,1.000000,0.000000,0.000000)"
     style="stroke:#000000;stroke-dasharray:none;stroke-opacity:1;fill-opacity:1;stroke-miterlimit:10;stroke-width:0.90649629;fill:none"
     id="rect2407-36-7-5-3"
     width="9.0905075"
     height="9.0292444"
     x="200.45461"
     y="139.01599" />
  <rect
     transform="matrix(1.000000,0.000000,0.000000,1.000000,0.000000,0.000000)"
     style="stroke:#000000;stroke-dasharray:none;stroke-opacity:1;fill-opacity:1;stroke-miterlimit:10;stroke-width:0.90649629;fill:none"
     id="rect2407-36-9"
     width="9.0905075"
     height="9.0292444"
     x="210.45465"
     y="139.01598" />
  <rect
     transform="matrix(1.000000,0.000000,0.000000,1.000000,0.000000,0.000000)"
     style="stroke:#000000;stroke-dasharray:none;stroke-opacity:1;fill-opacity:1;stroke-miterlimit:10;stroke-width:0.90649629;fill:none"
     id="rect2407-36-7-2"
     width="9.0905075"
     height="9.0292444"
     x="210.45465"
     y="0.95171738" />
  <rect
     transform="matrix(1.000000,0.000000,0.000000,1.000000,0.000000,0.000000)"
     style="stroke:#000000;stroke-dasharray:none;stroke-opacity:1;fill-opacity:1;stroke-miterlimit:10;stroke-width:0.90649629;fill:none"
     id="rect2407-36-7-5-0"
     width="9.0905075"
     height="9.0292444"
     x="410.45639"
     y="0.95171738" />
  <rect
     transform="matrix(1.000000,0.000000,0.000000,1.000000,0.000000,0.000000)"
     style="stroke:#000000;stroke-dasharray:none;stroke-opacity:1;fill-opacity:1;stroke-miterlimit:10;stroke-width:0.90649629;fill:none"
     id="rect2407-36-7-5-3-2"
     width="9.0905075"
     height="9.0292444"
     x="410.45639"
     y="139.01598" />
  <rect
     transform="matrix(1.000000,0.000000,0.000000,1.000000,0.000000,0.000000)"
     style="stroke:#000000;stroke-dasharray:none;stroke-opacity:1;fill-opacity:1;stroke-miterlimit:10;stroke-width:0.90650254;fill:none"
     id="rect2407-36-75"
     width="9.0904408"
     height="9.0294352"
     x="0.45477402"
     y="287.0173" />
  <rect
     transform="matrix(1.000000,0.000000,0.000000,1.000000,0.000000,0.000000)"
     style="stroke:#000000;stroke-dasharray:none;stroke-opacity:1;fill-opacity:1;stroke-miterlimit:10;stroke-width:0.90650254;fill:none"
     id="rect2407-36-7-3"
     width="9.0904408"
     height="9.0294352"
     x="0.45477402"
     y="148.95015" />
  <rect
     transform="matrix(1.000000,0.000000,0.000000,1.000000,0.000000,0.000000)"
     style="stroke:#000000;stroke-dasharray:none;stroke-opacity:1;fill-opacity:1;stroke-miterlimit:10;stroke-width:0.90650254;fill:none"
     id="rect2407-36-7-5-5"
     width="9.0904408"
     height="9.0294352"
     x="200.45465"
     y="148.95015" />
  <rect
     transform="matrix(1.000000,0.000000,0.000000,1.000000,0.000000,0.000000)"
     style="stroke:#000000;stroke-dasharray:none;stroke-opacity:1;fill-opacity:1;stroke-miterlimit:10;stroke-width:0.90650254;fill:none"
     id="rect2407-36-7-5-3-6"
     width="9.0904408"
     height="9.0294352"
     x="200.45465"
     y="287.0173" />
  <rect
     transform="matrix(1.000000,0.000000,0.000000,1.000000,0.000000,0.000000)"
     style="stroke:#000000;stroke-dasharray:none;stroke-opacity:1;fill-opacity:1;stroke-miterlimit:10;stroke-width:0.90650254;fill:none"
     id="rect2407-36-9-9"
     width="9.0904408"
     height="9.0294352"
     x="210.45465"
     y="287.0173" />
  <rect
     transform="matrix(1.000000,0.000000,0.000000,1.000000,0.000000,0.000000)"
     style="stroke:#000000;stroke-dasharray:none;stroke-opacity:1;fill-opacity:1;stroke-miterlimit:10;stroke-width:0.90650254;fill:none"
     id="rect2407-36-7-2-1"
     width="9.0904408"
     height="9.0294352"
     x="210.45465"
     y="148.95015" />
  <rect
     transform="matrix(1.000000,0.000000,0.000000,1.000000,0.000000,0.000000)"
     style="stroke:#000000;stroke-dasharray:none;stroke-opacity:1;fill-opacity:1;stroke-miterlimit:10;stroke-width:0.90650254;fill:none"
     id="rect2407-36-7-5-0-2"
     width="9.0904408"
     height="9.0294352"
     x="410.45493"
     y="148.95015" />
  <rect
     transform="matrix(1.000000,0.000000,0.000000,1.000000,0.000000,0.000000)"
     style="stroke:#000000;stroke-dasharray:none;stroke-opacity:1;fill-opacity:1;stroke-miterlimit:10;stroke-width:0.90650254;fill:none"
     id="rect2407-36-7-5-3-2-7"
     width="9.0904408"
     height="9.0294352"
     x="410.45493"
     y="287.0173" />
</svg>
