<?xml version="1.0" encoding="UTF-8" standalone="no"?>
<!-- Created with Inkscape (http://www.inkscape.org/) -->

<svg
   width="210mm"
   height="297mm"
   viewBox="0 0 210 297"
   version="1.1"
   id="svg1"
   inkscape:version="1.3.1 (9b9bdc1480, 2023-11-25, custom)"
   sodipodi:docname="sheet_0.svg"
   xmlns:inkscape="http://www.inkscape.org/namespaces/inkscape"
   xmlns:sodipodi="http://sodipodi.sourceforge.net/DTD/sodipodi-0.dtd"
   xmlns="http://www.w3.org/2000/svg"
   xmlns:svg="http://www.w3.org/2000/svg">
  <sodipodi:namedview
     id="namedview1"
     pagecolor="#ffffff"
     bordercolor="#666666"
     borderopacity="1.0"
     inkscape:showpageshadow="2"
     inkscape:pageopacity="0.0"
     inkscape:pagecheckerboard="0"
     inkscape:deskcolor="#d1d1d1"
     inkscape:document-units="mm"
     inkscape:zoom="0.54698373"
     inkscape:cx="396.72113"
     inkscape:cy="561.25984"
     inkscape:window-width="1517"
     inkscape:window-height="812"
     inkscape:window-x="0"
     inkscape:window-y="0"
     inkscape:window-maximized="0"
     inkscape:current-layer="layer1" />
  <defs
     id="defs1" />
  <g
     inkscape:label="Ebene 1"
     inkscape:groupmode="layer"
     id="layer1">
    <path
       id="path42"
       d="M 31.176035,253.32397 H 178.82397 V 43.676034 H 31.176035 Z m 0,0"
       style="fill:none;stroke:#ec008c;stroke-width:0.352063;stroke-linecap:butt;stroke-linejoin:miter;stroke-miterlimit:1.5;stroke-opacity:1" />
    <g
       id="use50"
       style="fill:#000000;fill-opacity:1;stroke:none"
       transform="matrix(0,-0.35218757,0.35193886,0,101.85983,153.69295)">
      <path
         style="stroke:none"
         d="M 1.578125,-0.171875 C 1.554688,-0.0234375 1.515625,0.0703125 1.453125,0.125 1.398438,0.1875 1.3125,0.21875 1.1875,0.21875 1.050781,0.21875 0.945312,0.175781 0.875,0.09375 0.8125,0.0195312 0.773438,-0.101562 0.765625,-0.28125 l -0.0625,-1.140625 v -0.09375 c 0,-0.15625 0.023437,-0.265625 0.078125,-0.328125 0.0625,-0.0625 0.164062,-0.09375 0.3125,-0.09375 0.1875,0 0.328125,0.140625 0.421875,0.421875 0.03125,0.136719 0.066406,0.242187 0.109375,0.3125 0.113281,0.230469 0.289062,0.40625 0.53125,0.53125 0.25,0.125 0.546875,0.1875 0.890625,0.1875 0.414063,0 0.753906,-0.097656 1.015625,-0.296875 0.257812,-0.195312 0.390625,-0.453125 0.390625,-0.765625 0,-0.257813 -0.085937,-0.46875 -0.25,-0.625 -0.15625,-0.15625 -0.386719,-0.253906 -0.6875,-0.296875 L 2.78125,-2.5625 C 2.113281,-2.65625 1.625,-2.832031 1.3125,-3.09375 1,-3.351562 0.84375,-3.722656 0.84375,-4.203125 c 0,-0.5 0.203125,-0.914063 0.609375,-1.25 0.414063,-0.34375 0.9375,-0.515625 1.5625,-0.515625 0.175781,0 0.363281,0.027344 0.5625,0.078125 C 3.773438,-5.847656 4,-5.773438 4.25,-5.671875 c 0.00781,-0.09375 0.035156,-0.15625 0.078125,-0.1875 0.039063,-0.039063 0.117187,-0.0625 0.234375,-0.0625 0.144531,0 0.242188,0.023437 0.296875,0.0625 0.050781,0.042969 0.085937,0.148437 0.109375,0.3125 l 0.0625,1.015625 v 0.046875 c 0,0.117187 -0.039062,0.203125 -0.109375,0.265625 C 4.859375,-4.15625 4.769531,-4.125 4.65625,-4.125 4.488281,-4.125 4.359375,-4.242188 4.265625,-4.484375 4.210938,-4.617188 4.164062,-4.722656 4.125,-4.796875 4.007812,-4.953125 3.851562,-5.070312 3.65625,-5.15625 3.457031,-5.25 3.226562,-5.296875 2.96875,-5.296875 2.570312,-5.296875 2.25,-5.195312 2,-5 c -0.242188,0.1875 -0.359375,0.445312 -0.359375,0.765625 0,0.242187 0.085937,0.433594 0.265625,0.578125 0.1875,0.148438 0.472656,0.246094 0.859375,0.296875 l 0.78125,0.09375 c 0.5625,0.074219 0.984375,0.25 1.265625,0.53125 0.289062,0.273437 0.4375,0.636719 0.4375,1.09375 0,0.542969 -0.203125,0.980469 -0.609375,1.3125 -0.40625,0.33203125 -0.949219,0.5 -1.625,0.5 -0.242187,0 -0.476563,-0.03125 -0.703125,-0.09375 -0.230469,-0.0546875 -0.476562,-0.1328125 -0.734375,-0.25 z m 0,0"
         id="path4" />
    </g>
    <g
       id="use54"
       style="fill:#000000;fill-opacity:1;stroke:none"
       transform="matrix(0,-0.35218757,0.35193886,0,101.85983,151.57947)">
      <path
         style="stroke:none"
         d="m 1.15625,-0.6875 v -5 H 1.0625 c -0.21875,0 -0.371094,-0.023438 -0.453125,-0.078125 -0.085937,-0.050781 -0.125,-0.144531 -0.125,-0.28125 0,-0.113281 0.03125,-0.195313 0.09375,-0.25 C 0.648438,-6.359375 0.75,-6.390625 0.875,-6.390625 h 0.75 c 0.082031,0 0.148438,0.023437 0.203125,0.0625 C 1.878906,-6.296875 1.90625,-6.25 1.90625,-6.1875 v 2.203125 C 2.132812,-4.203125 2.363281,-4.363281 2.59375,-4.46875 2.832031,-4.570312 3.078125,-4.625 3.328125,-4.625 c 0.488281,0 0.875,0.152344 1.15625,0.453125 0.28125,0.304687 0.421875,0.726563 0.421875,1.265625 v 2.21875 h 0.234375 c 0.164063,0 0.28125,0.027344 0.34375,0.078125 0.070313,0.054687 0.109375,0.136719 0.109375,0.25 0,0.125 -0.03125,0.21875 -0.09375,0.28125 C 5.4375,-0.0234375 5.335938,0 5.203125,0 H 3.90625 c -0.148438,0 -0.25,-0.0234375 -0.3125,-0.078125 -0.054688,-0.050781 -0.078125,-0.144531 -0.078125,-0.28125 0,-0.125 0.03125,-0.207031 0.09375,-0.25 C 3.679688,-0.660156 3.8125,-0.6875 4,-0.6875 h 0.171875 v -2.03125 c 0,-0.382812 -0.089844,-0.675781 -0.265625,-0.875 -0.167969,-0.195312 -0.417969,-0.296875 -0.75,-0.296875 -0.335938,0 -0.625,0.117187 -0.875,0.34375 -0.25,0.21875 -0.375,0.496094 -0.375,0.828125 v 2.03125 h 0.171875 c 0.1875,0 0.3125,0.027344 0.375,0.078125 0.070313,0.042969 0.109375,0.125 0.109375,0.25 0,0.136719 -0.027344,0.230469 -0.078125,0.28125 C 2.429688,-0.0234375 2.328125,0 2.171875,0 H 0.875 C 0.75,0 0.65625,-0.0234375 0.59375,-0.078125 0.53125,-0.140625 0.5,-0.234375 0.5,-0.359375 c 0,-0.125 0.035156,-0.207031 0.109375,-0.25 C 0.691406,-0.660156 0.84375,-0.6875 1.0625,-0.6875 Z m 0,0"
         id="path13" />
    </g>
    <g
       id="use58"
       style="fill:#000000;fill-opacity:1;stroke:none"
       transform="matrix(0,-0.35218757,0.35193886,0,101.85983,149.46599)">
      <path
         style="stroke:none"
         d="m 1.34375,-2.046875 c 0.03125,0.46875 0.191406,0.835937 0.484375,1.09375 0.289063,0.25 0.6875,0.375 1.1875,0.375 0.382813,0 0.800781,-0.097656 1.25,-0.296875 0.445313,-0.207031 0.71875,-0.3125 0.8125,-0.3125 0.09375,0 0.171875,0.03125 0.234375,0.09375 0.070312,0.0625 0.109375,0.140625 0.109375,0.234375 0,0.09375 -0.039063,0.183594 -0.109375,0.265625 -0.0625,0.074219 -0.171875,0.148438 -0.328125,0.21875 -0.324219,0.167969 -0.65625,0.2929688 -1,0.375 -0.34375,0.0820312 -0.6875,0.125 -1.03125,0.125 -0.742187,0 -1.335937,-0.2109375 -1.78125,-0.640625 C 0.722656,-0.941406 0.5,-1.507812 0.5,-2.21875 c 0,-0.71875 0.234375,-1.300781 0.703125,-1.75 0.476563,-0.445312 1.09375,-0.671875 1.84375,-0.671875 0.6875,0 1.253906,0.210937 1.703125,0.625 0.457031,0.417969 0.6875,0.921875 0.6875,1.515625 0,0.179688 -0.042969,0.296875 -0.125,0.359375 -0.074219,0.0625 -0.277344,0.09375 -0.609375,0.09375 z M 1.375,-2.6875 H 4.546875 C 4.503906,-3.070312 4.34375,-3.378906 4.0625,-3.609375 3.789062,-3.847656 3.453125,-3.96875 3.046875,-3.96875 c -0.429687,0 -0.792969,0.117188 -1.09375,0.34375 C 1.660156,-3.394531 1.46875,-3.082031 1.375,-2.6875 Z m 0,0"
         id="path5" />
    </g>
    <g
       id="use62"
       style="fill:#000000;fill-opacity:1;stroke:none"
       transform="matrix(0,-0.35218757,0.35193886,0,101.85983,147.35251)">
      <path
         style="stroke:none"
         d="m 1.34375,-2.046875 c 0.03125,0.46875 0.191406,0.835937 0.484375,1.09375 0.289063,0.25 0.6875,0.375 1.1875,0.375 0.382813,0 0.800781,-0.097656 1.25,-0.296875 0.445313,-0.207031 0.71875,-0.3125 0.8125,-0.3125 0.09375,0 0.171875,0.03125 0.234375,0.09375 0.070312,0.0625 0.109375,0.140625 0.109375,0.234375 0,0.09375 -0.039063,0.183594 -0.109375,0.265625 -0.0625,0.074219 -0.171875,0.148438 -0.328125,0.21875 -0.324219,0.167969 -0.65625,0.2929688 -1,0.375 -0.34375,0.0820312 -0.6875,0.125 -1.03125,0.125 -0.742187,0 -1.335937,-0.2109375 -1.78125,-0.640625 C 0.722656,-0.941406 0.5,-1.507812 0.5,-2.21875 c 0,-0.71875 0.234375,-1.300781 0.703125,-1.75 0.476563,-0.445312 1.09375,-0.671875 1.84375,-0.671875 0.6875,0 1.253906,0.210937 1.703125,0.625 0.457031,0.417969 0.6875,0.921875 0.6875,1.515625 0,0.179688 -0.042969,0.296875 -0.125,0.359375 -0.074219,0.0625 -0.277344,0.09375 -0.609375,0.09375 z M 1.375,-2.6875 H 4.546875 C 4.503906,-3.070312 4.34375,-3.378906 4.0625,-3.609375 3.789062,-3.847656 3.453125,-3.96875 3.046875,-3.96875 c -0.429687,0 -0.792969,0.117188 -1.09375,0.34375 C 1.660156,-3.394531 1.46875,-3.082031 1.375,-2.6875 Z m 0,0"
         id="path6" />
    </g>
    <g
       id="use66"
       style="fill:#000000;fill-opacity:1;stroke:none"
       transform="matrix(0,-0.35218757,0.35193886,0,101.85983,145.23904)">
      <path
         style="stroke:none"
         d="m 4.328125,-4.234375 c 0.164063,0 0.285156,0.027344 0.359375,0.078125 0.070312,0.054688 0.109375,0.140625 0.109375,0.265625 0,0.117187 -0.039063,0.203125 -0.109375,0.265625 -0.074219,0.054688 -0.179688,0.078125 -0.3125,0.078125 H 2.40625 v 1.625 c 0,0.53125 0.066406,0.886719 0.203125,1.0625 0.132813,0.167969 0.375,0.25 0.71875,0.25 0.289063,0 0.640625,-0.082031 1.046875,-0.25 C 4.789062,-1.035156 5.050781,-1.125 5.15625,-1.125 c 0.082031,0 0.15625,0.03125 0.21875,0.09375 0.070312,0.0625 0.109375,0.140625 0.109375,0.234375 0,0.117187 -0.042969,0.214844 -0.125,0.296875 -0.085937,0.074219 -0.21875,0.148438 -0.40625,0.21875 C 4.628906,-0.15625 4.335938,-0.0625 4.078125,0 3.828125,0.0625 3.59375,0.09375 3.375,0.09375 c -0.386719,0 -0.710938,-0.0625 -0.96875,-0.1875 -0.261719,-0.125 -0.453125,-0.304688 -0.578125,-0.546875 -0.0625,-0.113281 -0.109375,-0.25 -0.140625,-0.40625 -0.023438,-0.15625 -0.03125,-0.394531 -0.03125,-0.71875 v -1.78125 H 0.828125 c -0.148437,0 -0.25,-0.023437 -0.3125,-0.078125 C 0.460938,-3.6875 0.4375,-3.773438 0.4375,-3.890625 c 0,-0.132813 0.039062,-0.222656 0.125,-0.265625 0.082031,-0.050781 0.257812,-0.078125 0.53125,-0.078125 h 0.5625 V -5.5 c 0,-0.132812 0.023438,-0.234375 0.078125,-0.296875 0.0625,-0.070313 0.15625,-0.109375 0.28125,-0.109375 0.144531,0 0.242187,0.042969 0.296875,0.125 0.0625,0.074219 0.09375,0.257812 0.09375,0.546875 v 1 z m 0,0"
         id="path15" />
    </g>
    <g
       id="use70"
       style="fill:#000000;fill-opacity:1;stroke:none"
       transform="matrix(0,-0.35218757,0.35193886,0,101.85983,141.0121)">
      <path
         style="stroke:none"
         d="m 3,-5.625 c -0.375,0 -0.667969,0.226562 -0.875,0.671875 -0.210938,0.4375 -0.3125,1.0625 -0.3125,1.875 0,0.8125 0.101562,1.445313 0.3125,1.890625 0.207031,0.4375 0.5,0.65625 0.875,0.65625 0.375,0 0.664062,-0.21875 0.875,-0.65625 0.207031,-0.445312 0.3125,-1.078125 0.3125,-1.890625 0,-0.8125 -0.105469,-1.4375 -0.3125,-1.875 C 3.664062,-5.398438 3.375,-5.625 3,-5.625 Z m 0,5.78125 c -0.617188,0 -1.105469,-0.285156 -1.46875,-0.859375 C 1.175781,-1.285156 1,-2.078125 1,-3.078125 c 0,-1 0.175781,-1.785156 0.53125,-2.359375 0.363281,-0.582031 0.851562,-0.875 1.46875,-0.875 0.613281,0 1.097656,0.292969 1.453125,0.875 C 4.816406,-4.863281 5,-4.078125 5,-3.078125 c 0,1 -0.183594,1.792969 -0.546875,2.375 C 4.097656,-0.128906 3.613281,0.15625 3,0.15625 Z m 0,0"
         id="path16" />
    </g>
    <g
       id="use74"
       style="fill:#00aeee;fill-opacity:1;stroke:none"
       transform="matrix(0.35193886,0,0,0.35218757,107.71158,55.834276)">
      <path
         style="stroke:none"
         d="m 1.828125,-5.234375 c -0.042969,0 -0.074219,0.00781 -0.09375,0.015625 -0.023437,0 -0.039063,0 -0.046875,0 -0.105469,0 -0.1875,-0.023438 -0.25,-0.078125 C 1.375,-5.359375 1.34375,-5.4375 1.34375,-5.53125 c 0,-0.082031 0.023438,-0.148438 0.078125,-0.203125 C 1.472656,-5.796875 1.550781,-5.84375 1.65625,-5.875 L 3.109375,-6.265625 C 3.148438,-6.273438 3.1875,-6.28125 3.21875,-6.28125 3.25,-6.289062 3.285156,-6.296875 3.328125,-6.296875 c 0.050781,0 0.09375,0.03125 0.125,0.09375 0.039063,0.054687 0.0625,0.132813 0.0625,0.234375 v 5.28125 h 0.78125 c 0.289063,0 0.472656,0.027344 0.546875,0.078125 0.082031,0.042969 0.125,0.125 0.125,0.25 0,0.125 -0.03125,0.21875 -0.09375,0.28125 C 4.8125,-0.0234375 4.710938,0 4.578125,0 H 1.65625 c -0.125,0 -0.226562,-0.0234375 -0.296875,-0.078125 -0.0625,-0.0625 -0.09375,-0.15625 -0.09375,-0.28125 0,-0.125 0.035156,-0.207031 0.109375,-0.25 C 1.457031,-0.660156 1.644531,-0.6875 1.9375,-0.6875 H 2.75 v -4.765625 z m 0,0"
         id="path19" />
    </g>
    <g
       id="use78"
       style="fill:#00aeee;fill-opacity:1;stroke:none"
       transform="matrix(0.35193886,0,0,0.35218757,109.82356,55.834276)">
      <path
         style="stroke:none"
         d="M 3.40625,-2.25 V -5.5625 L 1.5625,-2.25 Z M 2.875,0 C 2.71875,0 2.613281,-0.0234375 2.5625,-0.078125 2.507812,-0.128906 2.484375,-0.222656 2.484375,-0.359375 c 0,-0.113281 0.023437,-0.195313 0.078125,-0.25 C 2.625,-0.660156 2.71875,-0.6875 2.84375,-0.6875 h 0.5625 V -1.515625 H 1.125 c -0.085938,0 -0.148438,-0.023437 -0.1875,-0.078125 C 0.894531,-1.644531 0.875,-1.71875 0.875,-1.8125 v -0.34375 c 0,-0.125 0.046875,-0.257812 0.140625,-0.40625 0.00781,-0.019531 0.019531,-0.039062 0.03125,-0.0625 l 2.0625,-3.5 C 3.148438,-6.195312 3.1875,-6.242188 3.21875,-6.265625 3.25,-6.296875 3.289062,-6.3125 3.34375,-6.3125 c 0.019531,0 0.050781,0.00781 0.09375,0.015625 0.019531,0 0.035156,0 0.046875,0 l 0.5,0.078125 C 4.023438,-6.207031 4.054688,-6.175781 4.078125,-6.125 4.109375,-6.082031 4.125,-6.03125 4.125,-5.96875 V -2.25 h 0.25 c 0.070312,0 0.128906,-0.023438 0.171875,-0.078125 0.039063,-0.0625 0.082031,-0.09375 0.125,-0.09375 0.070313,0 0.128906,0.027344 0.171875,0.078125 0.039062,0.042969 0.0625,0.101562 0.0625,0.171875 0,0.03125 0,0.0625 0,0.09375 0,0.023437 -0.00781,0.042969 -0.015625,0.0625 L 4.84375,-1.8125 C 4.820312,-1.695312 4.789062,-1.617188 4.75,-1.578125 c -0.042969,0.042969 -0.109375,0.0625 -0.203125,0.0625 H 4.125 V -0.6875 h 0.171875 c 0.207031,0 0.347656,0.027344 0.421875,0.078125 0.082031,0.054687 0.125,0.136719 0.125,0.25 0,0.125 -0.03125,0.21875 -0.09375,0.28125 C 4.6875,-0.0234375 4.585938,0 4.453125,0 Z m 0,0"
         id="path3" />
    </g>
    <g
       id="use82"
       style="fill:#00aeee;fill-opacity:1;stroke:none"
       transform="matrix(0.35193886,0,0,0.35218757,111.93555,55.834276)">
      <path
         style="stroke:none"
         d="m 1.8125,-1.6875 c 0,0.355469 0.109375,0.640625 0.328125,0.859375 0.21875,0.210937 0.503906,0.3125 0.859375,0.3125 0.363281,0 0.648438,-0.101563 0.859375,-0.3125 C 4.078125,-1.035156 4.1875,-1.3125 4.1875,-1.65625 4.1875,-2 4.078125,-2.273438 3.859375,-2.484375 3.640625,-2.691406 3.351562,-2.796875 3,-2.796875 c -0.355469,0 -0.640625,0.105469 -0.859375,0.3125 C 1.921875,-2.273438 1.8125,-2.007812 1.8125,-1.6875 Z m 0.046875,-2.90625 c 0,0.324219 0.101563,0.589844 0.3125,0.796875 0.21875,0.210937 0.492187,0.3125 0.828125,0.3125 0.332031,0 0.601562,-0.101563 0.8125,-0.3125 0.21875,-0.207031 0.328125,-0.472656 0.328125,-0.796875 0,-0.3125 -0.109375,-0.566406 -0.328125,-0.765625 -0.210938,-0.207031 -0.480469,-0.3125 -0.8125,-0.3125 -0.335938,0 -0.609375,0.105469 -0.828125,0.3125 -0.210937,0.199219 -0.3125,0.453125 -0.3125,0.765625 z m 0.15625,1.4375 C 1.703125,-3.3125 1.460938,-3.507812 1.296875,-3.75 1.140625,-3.988281 1.0625,-4.269531 1.0625,-4.59375 c 0,-0.5 0.179688,-0.910156 0.546875,-1.234375 C 1.972656,-6.148438 2.4375,-6.3125 3,-6.3125 c 0.550781,0 1.007812,0.164062 1.375,0.484375 0.375,0.324219 0.5625,0.71875 0.5625,1.1875 0,0.355469 -0.078125,0.652344 -0.234375,0.890625 -0.15625,0.242188 -0.402344,0.4375 -0.734375,0.59375 0.332031,0.136719 0.582031,0.335938 0.75,0.59375 0.175781,0.25 0.265625,0.554688 0.265625,0.90625 0,0.53125 -0.1875,0.96875 -0.5625,1.3125 -0.367187,0.3359375 -0.839844,0.5 -1.421875,0.5 -0.59375,0 -1.074219,-0.1640625 -1.4375,-0.5 C 1.195312,-0.6875 1.015625,-1.132812 1.015625,-1.6875 c 0,-0.320312 0.082031,-0.613281 0.25,-0.875 0.175781,-0.257812 0.425781,-0.457031 0.75,-0.59375 z m 0,0"
         id="path7" />
    </g>
    <g
       id="use86"
       style="fill:#00aeee;fill-opacity:1;stroke:none"
       transform="matrix(0.35193886,0,0,0.35218757,116.15952,55.834276)">
      <path
         style="stroke:none"
         d="m 4.8125,-2.71875 c 0,-0.457031 -0.042969,-0.765625 -0.125,-0.921875 -0.085938,-0.164063 -0.226562,-0.25 -0.421875,-0.25 -0.25,0 -0.449219,0.105469 -0.59375,0.3125 C 3.535156,-3.367188 3.46875,-3.082031 3.46875,-2.71875 V -0.6875 H 3.5625 c 0.195312,0 0.328125,0.027344 0.390625,0.078125 0.070313,0.042969 0.109375,0.125 0.109375,0.25 0,0.125 -0.03125,0.21875 -0.09375,0.28125 C 3.914062,-0.0234375 3.832031,0 3.71875,0 h -0.625 C 2.957031,0 2.863281,-0.03125 2.8125,-0.09375 2.757812,-0.164062 2.734375,-0.304688 2.734375,-0.515625 V -3.09375 c 0,-0.25 -0.058594,-0.441406 -0.171875,-0.578125 -0.105469,-0.144531 -0.25,-0.21875 -0.4375,-0.21875 -0.148438,0 -0.28125,0.042969 -0.40625,0.125 -0.125,0.085937 -0.230469,0.214844 -0.3125,0.390625 v 2.6875 h 0.171875 c 0.195313,0 0.328125,0.027344 0.390625,0.078125 0.070312,0.042969 0.109375,0.125 0.109375,0.25 0,0.136719 -0.027344,0.230469 -0.078125,0.28125 C 1.945312,-0.0234375 1.84375,0 1.6875,0 H 0.375 C 0.25,0 0.15625,-0.0234375 0.09375,-0.078125 c -0.0546875,-0.0625 -0.078125,-0.15625 -0.078125,-0.28125 0,-0.125 0.0351562,-0.207031 0.109375,-0.25 C 0.195312,-0.660156 0.347656,-0.6875 0.578125,-0.6875 h 0.09375 v -3.125 h -0.09375 c -0.230469,0 -0.386719,-0.023438 -0.46875,-0.078125 -0.0859375,-0.050781 -0.125,-0.144531 -0.125,-0.28125 0,-0.113281 0.03125,-0.195313 0.09375,-0.25 C 0.148438,-4.484375 0.25,-4.515625 0.375,-4.515625 h 0.75 c 0.113281,0 0.1875,0.023437 0.21875,0.0625 0.03125,0.03125 0.050781,0.109375 0.0625,0.234375 0.132812,-0.144531 0.273438,-0.25 0.421875,-0.3125 0.15625,-0.070312 0.328125,-0.109375 0.515625,-0.109375 0.226562,0 0.414062,0.054687 0.5625,0.15625 0.15625,0.09375 0.269531,0.246094 0.34375,0.453125 0.132812,-0.207031 0.289062,-0.359375 0.46875,-0.453125 0.175781,-0.101563 0.378906,-0.15625 0.609375,-0.15625 0.425781,0 0.734375,0.140625 0.921875,0.421875 0.195312,0.273438 0.296875,0.710938 0.296875,1.3125 V -0.6875 H 5.625 c 0.195312,0 0.328125,0.027344 0.390625,0.078125 0.070313,0.042969 0.109375,0.125 0.109375,0.25 0,0.125 -0.03125,0.21875 -0.09375,0.28125 C 5.976562,-0.0234375 5.894531,0 5.78125,0 H 5.1875 C 5.0625,0 4.96875,-0.0351562 4.90625,-0.109375 4.84375,-0.191406 4.8125,-0.316406 4.8125,-0.484375 Z m 0,0"
         id="path9" />
    </g>
    <g
       id="use90"
       style="fill:#00aeee;fill-opacity:1;stroke:none"
       transform="matrix(0.35193886,0,0,0.35218757,118.2715,55.834276)">
      <path
         style="stroke:none"
         d="m 4.8125,-2.71875 c 0,-0.457031 -0.042969,-0.765625 -0.125,-0.921875 -0.085938,-0.164063 -0.226562,-0.25 -0.421875,-0.25 -0.25,0 -0.449219,0.105469 -0.59375,0.3125 C 3.535156,-3.367188 3.46875,-3.082031 3.46875,-2.71875 V -0.6875 H 3.5625 c 0.195312,0 0.328125,0.027344 0.390625,0.078125 0.070313,0.042969 0.109375,0.125 0.109375,0.25 0,0.125 -0.03125,0.21875 -0.09375,0.28125 C 3.914062,-0.0234375 3.832031,0 3.71875,0 h -0.625 C 2.957031,0 2.863281,-0.03125 2.8125,-0.09375 2.757812,-0.164062 2.734375,-0.304688 2.734375,-0.515625 V -3.09375 c 0,-0.25 -0.058594,-0.441406 -0.171875,-0.578125 -0.105469,-0.144531 -0.25,-0.21875 -0.4375,-0.21875 -0.148438,0 -0.28125,0.042969 -0.40625,0.125 -0.125,0.085937 -0.230469,0.214844 -0.3125,0.390625 v 2.6875 h 0.171875 c 0.195313,0 0.328125,0.027344 0.390625,0.078125 0.070312,0.042969 0.109375,0.125 0.109375,0.25 0,0.136719 -0.027344,0.230469 -0.078125,0.28125 C 1.945312,-0.0234375 1.84375,0 1.6875,0 H 0.375 C 0.25,0 0.15625,-0.0234375 0.09375,-0.078125 c -0.0546875,-0.0625 -0.078125,-0.15625 -0.078125,-0.28125 0,-0.125 0.0351562,-0.207031 0.109375,-0.25 C 0.195312,-0.660156 0.347656,-0.6875 0.578125,-0.6875 h 0.09375 v -3.125 h -0.09375 c -0.230469,0 -0.386719,-0.023438 -0.46875,-0.078125 -0.0859375,-0.050781 -0.125,-0.144531 -0.125,-0.28125 0,-0.113281 0.03125,-0.195313 0.09375,-0.25 C 0.148438,-4.484375 0.25,-4.515625 0.375,-4.515625 h 0.75 c 0.113281,0 0.1875,0.023437 0.21875,0.0625 0.03125,0.03125 0.050781,0.109375 0.0625,0.234375 0.132812,-0.144531 0.273438,-0.25 0.421875,-0.3125 0.15625,-0.070312 0.328125,-0.109375 0.515625,-0.109375 0.226562,0 0.414062,0.054687 0.5625,0.15625 0.15625,0.09375 0.269531,0.246094 0.34375,0.453125 0.132812,-0.207031 0.289062,-0.359375 0.46875,-0.453125 0.175781,-0.101563 0.378906,-0.15625 0.609375,-0.15625 0.425781,0 0.734375,0.140625 0.921875,0.421875 0.195312,0.273438 0.296875,0.710938 0.296875,1.3125 V -0.6875 H 5.625 c 0.195312,0 0.328125,0.027344 0.390625,0.078125 0.070313,0.042969 0.109375,0.125 0.109375,0.25 0,0.125 -0.03125,0.21875 -0.09375,0.28125 C 5.976562,-0.0234375 5.894531,0 5.78125,0 H 5.1875 C 5.0625,0 4.96875,-0.0351562 4.90625,-0.109375 4.84375,-0.191406 4.8125,-0.316406 4.8125,-0.484375 Z m 0,0"
         id="path10" />
    </g>
    <g
       id="use94"
       style="fill:#00aeee;fill-opacity:1;stroke:none"
       transform="matrix(0.35193886,0,0,0.35218757,159.11225,148.42086)">
      <path
         style="stroke:none"
         d="m 1.296875,0 c -0.167969,0 -0.292969,-0.03125 -0.375,-0.09375 -0.085937,-0.070312 -0.125,-0.1875 -0.125,-0.34375 0,-0.207031 0.3125,-0.601562 0.9375,-1.1875 L 1.875,-1.765625 c 0.09375,-0.082031 0.226562,-0.210937 0.40625,-0.390625 1.125,-1.050781 1.6875,-1.820312 1.6875,-2.3125 0,-0.34375 -0.101562,-0.625 -0.296875,-0.84375 C 3.472656,-5.53125 3.21875,-5.640625 2.90625,-5.640625 c -0.210938,0 -0.40625,0.042969 -0.59375,0.125 -0.1875,0.085937 -0.339844,0.199219 -0.453125,0.34375 -0.023437,0.03125 -0.054687,0.074219 -0.09375,0.125 -0.117187,0.21875 -0.25,0.328125 -0.40625,0.328125 -0.117187,0 -0.199219,-0.03125 -0.25,-0.09375 -0.042969,-0.070312 -0.0625,-0.210938 -0.0625,-0.421875 0,-0.113281 0.00781,-0.195313 0.03125,-0.25 0.019531,-0.050781 0.0625,-0.109375 0.125,-0.171875 0.207031,-0.207031 0.460937,-0.367188 0.765625,-0.484375 0.3125,-0.113281 0.628906,-0.171875 0.953125,-0.171875 0.539063,0 0.988281,0.171875 1.34375,0.515625 0.363281,0.34375 0.546875,0.773437 0.546875,1.28125 0,0.636719 -0.554688,1.484375 -1.65625,2.546875 C 2.875,-1.707031 2.660156,-1.5 2.515625,-1.34375 L 1.90625,-0.765625 H 4.140625 C 4.148438,-0.910156 4.1875,-1.019531 4.25,-1.09375 c 0.0625,-0.070312 0.148438,-0.109375 0.265625,-0.109375 0.101563,0 0.1875,0.039063 0.25,0.109375 0.0625,0.074219 0.09375,0.171875 0.09375,0.296875 0,0.011719 -0.00781,0.027344 -0.015625,0.046875 0,0.023438 0,0.039062 0,0.046875 l -0.03125,0.375 c -0.011719,0.105469 -0.042969,0.1875 -0.09375,0.25 C 4.675781,-0.0234375 4.613281,0 4.53125,0 Z m 0,0"
         id="path1" />
    </g>
    <g
       id="use98"
       style="fill:#00aeee;fill-opacity:1;stroke:none"
       transform="matrix(0.35193886,0,0,0.35218757,161.22424,148.42086)">
      <path
         style="stroke:none"
         d="m 1.828125,-5.234375 c -0.042969,0 -0.074219,0.00781 -0.09375,0.015625 -0.023437,0 -0.039063,0 -0.046875,0 -0.105469,0 -0.1875,-0.023438 -0.25,-0.078125 C 1.375,-5.359375 1.34375,-5.4375 1.34375,-5.53125 c 0,-0.082031 0.023438,-0.148438 0.078125,-0.203125 C 1.472656,-5.796875 1.550781,-5.84375 1.65625,-5.875 L 3.109375,-6.265625 C 3.148438,-6.273438 3.1875,-6.28125 3.21875,-6.28125 3.25,-6.289062 3.285156,-6.296875 3.328125,-6.296875 c 0.050781,0 0.09375,0.03125 0.125,0.09375 0.039063,0.054687 0.0625,0.132813 0.0625,0.234375 v 5.28125 h 0.78125 c 0.289063,0 0.472656,0.027344 0.546875,0.078125 0.082031,0.042969 0.125,0.125 0.125,0.25 0,0.125 -0.03125,0.21875 -0.09375,0.28125 C 4.8125,-0.0234375 4.710938,0 4.578125,0 H 1.65625 c -0.125,0 -0.226562,-0.0234375 -0.296875,-0.078125 -0.0625,-0.0625 -0.09375,-0.15625 -0.09375,-0.28125 0,-0.125 0.035156,-0.207031 0.109375,-0.25 C 1.457031,-0.660156 1.644531,-0.6875 1.9375,-0.6875 H 2.75 v -4.765625 z m 0,0"
         id="path21" />
    </g>
    <g
       id="use102"
       style="fill:#00aeee;fill-opacity:1;stroke:none"
       transform="matrix(0.35193886,0,0,0.35218757,163.33622,148.42086)">
      <path
         style="stroke:none"
         d="m 3,-5.625 c -0.375,0 -0.667969,0.226562 -0.875,0.671875 -0.210938,0.4375 -0.3125,1.0625 -0.3125,1.875 0,0.8125 0.101562,1.445313 0.3125,1.890625 0.207031,0.4375 0.5,0.65625 0.875,0.65625 0.375,0 0.664062,-0.21875 0.875,-0.65625 0.207031,-0.445312 0.3125,-1.078125 0.3125,-1.890625 0,-0.8125 -0.105469,-1.4375 -0.3125,-1.875 C 3.664062,-5.398438 3.375,-5.625 3,-5.625 Z m 0,5.78125 c -0.617188,0 -1.105469,-0.285156 -1.46875,-0.859375 C 1.175781,-1.285156 1,-2.078125 1,-3.078125 c 0,-1 0.175781,-1.785156 0.53125,-2.359375 0.363281,-0.582031 0.851562,-0.875 1.46875,-0.875 0.613281,0 1.097656,0.292969 1.453125,0.875 C 4.816406,-4.863281 5,-4.078125 5,-3.078125 c 0,1 -0.183594,1.792969 -0.546875,2.375 C 4.097656,-0.128906 3.613281,0.15625 3,0.15625 Z m 0,0"
         id="path18" />
    </g>
    <g
       id="use106"
       style="fill:#00aeee;fill-opacity:1;stroke:none"
       transform="matrix(0.35193886,0,0,0.35218757,167.56019,148.42086)">
      <path
         style="stroke:none"
         d="m 4.8125,-2.71875 c 0,-0.457031 -0.042969,-0.765625 -0.125,-0.921875 -0.085938,-0.164063 -0.226562,-0.25 -0.421875,-0.25 -0.25,0 -0.449219,0.105469 -0.59375,0.3125 C 3.535156,-3.367188 3.46875,-3.082031 3.46875,-2.71875 V -0.6875 H 3.5625 c 0.195312,0 0.328125,0.027344 0.390625,0.078125 0.070313,0.042969 0.109375,0.125 0.109375,0.25 0,0.125 -0.03125,0.21875 -0.09375,0.28125 C 3.914062,-0.0234375 3.832031,0 3.71875,0 h -0.625 C 2.957031,0 2.863281,-0.03125 2.8125,-0.09375 2.757812,-0.164062 2.734375,-0.304688 2.734375,-0.515625 V -3.09375 c 0,-0.25 -0.058594,-0.441406 -0.171875,-0.578125 -0.105469,-0.144531 -0.25,-0.21875 -0.4375,-0.21875 -0.148438,0 -0.28125,0.042969 -0.40625,0.125 -0.125,0.085937 -0.230469,0.214844 -0.3125,0.390625 v 2.6875 h 0.171875 c 0.195313,0 0.328125,0.027344 0.390625,0.078125 0.070312,0.042969 0.109375,0.125 0.109375,0.25 0,0.136719 -0.027344,0.230469 -0.078125,0.28125 C 1.945312,-0.0234375 1.84375,0 1.6875,0 H 0.375 C 0.25,0 0.15625,-0.0234375 0.09375,-0.078125 c -0.0546875,-0.0625 -0.078125,-0.15625 -0.078125,-0.28125 0,-0.125 0.0351562,-0.207031 0.109375,-0.25 C 0.195312,-0.660156 0.347656,-0.6875 0.578125,-0.6875 h 0.09375 v -3.125 h -0.09375 c -0.230469,0 -0.386719,-0.023438 -0.46875,-0.078125 -0.0859375,-0.050781 -0.125,-0.144531 -0.125,-0.28125 0,-0.113281 0.03125,-0.195313 0.09375,-0.25 C 0.148438,-4.484375 0.25,-4.515625 0.375,-4.515625 h 0.75 c 0.113281,0 0.1875,0.023437 0.21875,0.0625 0.03125,0.03125 0.050781,0.109375 0.0625,0.234375 0.132812,-0.144531 0.273438,-0.25 0.421875,-0.3125 0.15625,-0.070312 0.328125,-0.109375 0.515625,-0.109375 0.226562,0 0.414062,0.054687 0.5625,0.15625 0.15625,0.09375 0.269531,0.246094 0.34375,0.453125 0.132812,-0.207031 0.289062,-0.359375 0.46875,-0.453125 0.175781,-0.101563 0.378906,-0.15625 0.609375,-0.15625 0.425781,0 0.734375,0.140625 0.921875,0.421875 0.195312,0.273438 0.296875,0.710938 0.296875,1.3125 V -0.6875 H 5.625 c 0.195312,0 0.328125,0.027344 0.390625,0.078125 0.070313,0.042969 0.109375,0.125 0.109375,0.25 0,0.125 -0.03125,0.21875 -0.09375,0.28125 C 5.976562,-0.0234375 5.894531,0 5.78125,0 H 5.1875 C 5.0625,0 4.96875,-0.0351562 4.90625,-0.109375 4.84375,-0.191406 4.8125,-0.316406 4.8125,-0.484375 Z m 0,0"
         id="path11" />
    </g>
    <g
       id="use110"
       style="fill:#00aeee;fill-opacity:1;stroke:none"
       transform="matrix(0.35193886,0,0,0.35218757,169.67217,148.42086)">
      <path
         style="stroke:none"
         d="m 4.8125,-2.71875 c 0,-0.457031 -0.042969,-0.765625 -0.125,-0.921875 -0.085938,-0.164063 -0.226562,-0.25 -0.421875,-0.25 -0.25,0 -0.449219,0.105469 -0.59375,0.3125 C 3.535156,-3.367188 3.46875,-3.082031 3.46875,-2.71875 V -0.6875 H 3.5625 c 0.195312,0 0.328125,0.027344 0.390625,0.078125 0.070313,0.042969 0.109375,0.125 0.109375,0.25 0,0.125 -0.03125,0.21875 -0.09375,0.28125 C 3.914062,-0.0234375 3.832031,0 3.71875,0 h -0.625 C 2.957031,0 2.863281,-0.03125 2.8125,-0.09375 2.757812,-0.164062 2.734375,-0.304688 2.734375,-0.515625 V -3.09375 c 0,-0.25 -0.058594,-0.441406 -0.171875,-0.578125 -0.105469,-0.144531 -0.25,-0.21875 -0.4375,-0.21875 -0.148438,0 -0.28125,0.042969 -0.40625,0.125 -0.125,0.085937 -0.230469,0.214844 -0.3125,0.390625 v 2.6875 h 0.171875 c 0.195313,0 0.328125,0.027344 0.390625,0.078125 0.070312,0.042969 0.109375,0.125 0.109375,0.25 0,0.136719 -0.027344,0.230469 -0.078125,0.28125 C 1.945312,-0.0234375 1.84375,0 1.6875,0 H 0.375 C 0.25,0 0.15625,-0.0234375 0.09375,-0.078125 c -0.0546875,-0.0625 -0.078125,-0.15625 -0.078125,-0.28125 0,-0.125 0.0351562,-0.207031 0.109375,-0.25 C 0.195312,-0.660156 0.347656,-0.6875 0.578125,-0.6875 h 0.09375 v -3.125 h -0.09375 c -0.230469,0 -0.386719,-0.023438 -0.46875,-0.078125 -0.0859375,-0.050781 -0.125,-0.144531 -0.125,-0.28125 0,-0.113281 0.03125,-0.195313 0.09375,-0.25 C 0.148438,-4.484375 0.25,-4.515625 0.375,-4.515625 h 0.75 c 0.113281,0 0.1875,0.023437 0.21875,0.0625 0.03125,0.03125 0.050781,0.109375 0.0625,0.234375 0.132812,-0.144531 0.273438,-0.25 0.421875,-0.3125 0.15625,-0.070312 0.328125,-0.109375 0.515625,-0.109375 0.226562,0 0.414062,0.054687 0.5625,0.15625 0.15625,0.09375 0.269531,0.246094 0.34375,0.453125 0.132812,-0.207031 0.289062,-0.359375 0.46875,-0.453125 0.175781,-0.101563 0.378906,-0.15625 0.609375,-0.15625 0.425781,0 0.734375,0.140625 0.921875,0.421875 0.195312,0.273438 0.296875,0.710938 0.296875,1.3125 V -0.6875 H 5.625 c 0.195312,0 0.328125,0.027344 0.390625,0.078125 0.070313,0.042969 0.109375,0.125 0.109375,0.25 0,0.125 -0.03125,0.21875 -0.09375,0.28125 C 5.976562,-0.0234375 5.894531,0 5.78125,0 H 5.1875 C 5.0625,0 4.96875,-0.0351562 4.90625,-0.109375 4.84375,-0.191406 4.8125,-0.316406 4.8125,-0.484375 Z m 0,0"
         id="path12" />
    </g>
  </g>
</svg>
