<?xml version="1.0" encoding="UTF-8" standalone="no"?>
<svg
   xmlns:dc="http://purl.org/dc/elements/1.1/"
   xmlns:cc="http://creativecommons.org/ns#"
   xmlns:rdf="http://www.w3.org/1999/02/22-rdf-syntax-ns#"
   xmlns:svg="http://www.w3.org/2000/svg"
   xmlns="http://www.w3.org/2000/svg"
   xmlns:sodipodi="http://sodipodi.sourceforge.net/DTD/sodipodi-0.dtd"
   xmlns:inkscape="http://www.inkscape.org/namespaces/inkscape"
   id="svg5150"
   version="1.1"
   viewBox="0 0 210 297"
   height="297mm"
   width="210mm"
   sodipodi:docname="sheet_5_veco.svg"
   inkscape:version="0.92.5 (2060ec1f9f, 2020-04-08)">
  <sodipodi:namedview
     pagecolor="#ffffff"
     bordercolor="#666666"
     borderopacity="1"
     objecttolerance="10"
     gridtolerance="10"
     guidetolerance="10"
     inkscape:pageopacity="0"
     inkscape:pageshadow="2"
     inkscape:window-width="1600"
     inkscape:window-height="820"
     id="namedview6386"
     showgrid="false"
     inkscape:zoom="1.1893044"
     inkscape:cx="396.85039"
     inkscape:cy="561.25984"
     inkscape:window-x="-4"
     inkscape:window-y="-4"
     inkscape:window-maximized="1"
     inkscape:current-layer="svg5150" />
  <defs
     id="defs5144" />
  <metadata
     id="metadata5147">
    <rdf:RDF>
      <cc:Work
         rdf:about="">
        <dc:format>image/svg+xml</dc:format>
        <dc:type
           rdf:resource="http://purl.org/dc/dcmitype/StillImage" />
        <dc:title />
      </cc:Work>
    </rdf:RDF>
  </metadata>
  <path
     style="fill:none;stroke:#211e1e;stroke-width:0.06760765;stroke-linecap:butt;stroke-linejoin:miter;stroke-miterlimit:10;stroke-opacity:1"
     d="M 41.977598,253.48493 H 30.936354 V 43.806473 h 11.041244"
     id="path110" />
  <path
     id="path20065"
     style="font-style:normal;font-variant:normal;font-weight:bold;font-stretch:normal;font-size:13.33333302px;line-height:1.25;font-family:monospace;-inkscape-font-specification:'monospace Bold';letter-spacing:0px;word-spacing:0px;fill:#00aeee;fill-opacity:1;stroke:none;stroke-width:0.26404658"
     d="m 58.394417,237.25984 h 0.759556 v -0.33705 q 0,-0.24247 -0.08249,-0.33877 -0.08249,-0.098 -0.286983,-0.098 -0.207931,0 -0.299008,0.10145 -0.09108,0.10147 -0.09108,0.33534 z m -1.00014,0 h 0.596302 v -0.33705 q 0,-0.1926 -0.06874,-0.27343 -0.06874,-0.0825 -0.226833,-0.0825 -0.158099,0 -0.228557,0.0843 -0.07217,0.0825 -0.07217,0.27171 z m -0.403836,0.4901 v -0.82715 q 0,-0.42819 0.163253,-0.64315 0.161535,-0.21668 0.484605,-0.21668 0.247457,0 0.386649,0.12726 0.139195,0.12725 0.161536,0.37316 0.02922,-0.29406 0.197623,-0.44195 0.168407,-0.14961 0.470855,-0.14961 0.371186,0 0.537874,0.22356 0.16669,0.22355 0.16669,0.72741 v 0.82715 z" />
  <path
     id="path20067"
     style="font-style:normal;font-variant:normal;font-weight:bold;font-stretch:normal;font-size:13.33333302px;line-height:1.25;font-family:monospace;-inkscape-font-specification:'monospace Bold';letter-spacing:0px;word-spacing:0px;fill:#00aeee;fill-opacity:1;stroke:none;stroke-width:0.26404658"
     d="m 57.997452,234.78526 q 0,0.18056 0.159817,0.28374 0.158099,0.10318 0.441642,0.10318 0.283546,0 0.443363,-0.10318 0.158096,-0.10318 0.158096,-0.28374 0,-0.18228 -0.158096,-0.28546 -0.159817,-0.10318 -0.443363,-0.10318 -0.283543,0 -0.441642,0.10318 -0.159817,0.10318 -0.159817,0.28546 z m 0.601459,0.89078 q -0.465698,0 -0.737216,-0.24075 -0.273233,-0.24247 -0.273233,-0.65003 0,-0.40928 0.273233,-0.65003 0.271518,-0.24247 0.737216,-0.24247 0.465701,0 0.738937,0.24247 0.271512,0.24075 0.271512,0.65003 0,0.40756 -0.271512,0.65003 -0.273236,0.24075 -0.738937,0.24075 z" />
  <path
     id="path20069"
     style="font-style:normal;font-variant:normal;font-weight:bold;font-stretch:normal;font-size:13.33333302px;line-height:1.25;font-family:monospace;-inkscape-font-specification:'monospace Bold';letter-spacing:0px;word-spacing:0px;fill:#00aeee;fill-opacity:1;stroke:none;stroke-width:0.26404658"
     d="m 57.908095,232.36399 h -1.022481 v -0.50214 h 2.673912 v 0.50214 h -0.285263 q 0.16669,0.0808 0.250894,0.20979 0.0842,0.12726 0.0842,0.30094 0,0.33018 -0.264639,0.51246 -0.264641,0.18228 -0.74581,0.18228 -0.48804,0 -0.749244,-0.184 -0.261205,-0.18572 -0.261205,-0.52793 0,-0.15477 0.08077,-0.27687 0.07905,-0.12381 0.238866,-0.21667 z m 0.694253,0.70161 q 0.278392,0 0.436489,-0.0928 0.158096,-0.0929 0.158096,-0.25623 0,-0.16337 -0.158096,-0.25795 -0.158097,-0.0946 -0.436489,-0.0946 -0.278389,0 -0.436486,0.0946 -0.158096,0.0946 -0.158096,0.25795 0,0.16337 0.158096,0.25623 0.158097,0.0928 0.436486,0.0928 z" />
  <path
     id="path20071"
     style="font-style:normal;font-variant:normal;font-weight:bold;font-stretch:normal;font-size:13.33333302px;line-height:1.25;font-family:monospace;-inkscape-font-specification:'monospace Bold';letter-spacing:0px;word-spacing:0px;fill:#00aeee;fill-opacity:1;stroke:none;stroke-width:0.26404658"
     d="m 59.465012,229.70884 q 0.07218,0.17541 0.108262,0.35769 0.03609,0.18228 0.03609,0.3852 0,0.48322 -0.257765,0.73946 -0.259487,0.2545 -0.74581,0.2545 -0.470855,0 -0.74409,-0.24591 -0.273233,-0.24591 -0.273233,-0.67066 0,-0.4282 0.254331,-0.66379 0.252614,-0.23731 0.713158,-0.23731 h 0.204496 v 1.30521 q 0.226836,-0.002 0.338535,-0.13413 0.111699,-0.13241 0.111699,-0.39552 0,-0.17368 -0.04984,-0.34221 -0.04983,-0.16853 -0.158094,-0.35253 z m -1.082625,0.42648 q -0.19934,0.003 -0.300731,0.10318 -0.103105,0.098 -0.103105,0.29062 0,0.17368 0.106542,0.27686 0.104828,0.10318 0.299014,0.1221 z" />
  <path
     id="path20073"
     style="font-style:normal;font-variant:normal;font-weight:bold;font-stretch:normal;font-size:13.33333302px;line-height:1.25;font-family:monospace;-inkscape-font-specification:'monospace Bold';letter-spacing:0px;word-spacing:0px;fill:#00aeee;fill-opacity:1;stroke:none;stroke-width:0.26404658"
     d="m 58.310211,227.64182 h 1.249315 v 0.50042 h -1.171982 q -0.209651,0 -0.299011,0.0602 -0.09108,0.0585 -0.09108,0.1926 0,0.13585 0.12201,0.21495 0.12201,0.0774 0.338535,0.0774 h 1.101529 v 0.50042 h -1.924664 v -0.50042 h 0.2887 q -0.159816,-0.0533 -0.247457,-0.18229 -0.08764,-0.12897 -0.08764,-0.31125 0,-0.27343 0.182155,-0.41272 0.180438,-0.13929 0.539594,-0.13929 z" />
  <path
     id="path20075"
     style="font-style:normal;font-variant:normal;font-weight:bold;font-stretch:normal;font-size:13.33333302px;line-height:1.25;font-family:monospace;-inkscape-font-specification:'monospace Bold';letter-spacing:0px;word-spacing:0px;fill:#00aeee;fill-opacity:1;stroke:none;stroke-width:0.26404658"
     d="m 59.288013,226.60315 h 1.003575 v 0.50214 h -2.656726 v -0.50214 h 0.2887 q -0.166692,-0.0791 -0.250896,-0.20808 -0.0842,-0.12898 -0.0842,-0.30266 0,-0.33017 0.264642,-0.51246 0.264641,-0.18228 0.745807,-0.18228 0.488043,0 0.749247,0.18572 0.261202,0.184 0.261202,0.52622 0,0.15476 -0.07905,0.27858 -0.08077,0.1221 -0.242301,0.21496 z m -0.692536,-0.70162 q -0.278392,0 -0.436488,0.0929 -0.1581,0.0929 -0.1581,0.25623 0,0.16336 0.1581,0.25795 0.158096,0.0946 0.436488,0.0946 0.278389,0 0.436483,-0.0946 0.158099,-0.0946 0.158099,-0.25795 0,-0.16337 -0.158099,-0.25623 -0.158094,-0.0929 -0.436483,-0.0929 z" />
  <path
     id="path20077"
     style="font-style:normal;font-variant:normal;font-weight:bold;font-stretch:normal;font-size:13.33333302px;line-height:1.25;font-family:monospace;-inkscape-font-specification:'monospace Bold';letter-spacing:0px;word-spacing:0px;fill:#00aeee;fill-opacity:1;stroke:none;stroke-width:0.26404658"
     d="m 58.75701,224.57739 h -1.484743 v 0.51074 h -0.386653 v -1.01459 h 1.871396 q 0.226836,0 0.32135,-0.0705 0.09452,-0.0705 0.09452,-0.23903 v -0.4024 h 0.386649 v 0.54341 q 0,0.35941 -0.185592,0.5159 -0.185592,0.15648 -0.616924,0.15648 z" />
  <path
     id="path20079"
     style="font-style:normal;font-variant:normal;font-weight:bold;font-stretch:normal;font-size:13.33333302px;line-height:1.25;font-family:monospace;-inkscape-font-specification:'monospace Bold';letter-spacing:0px;word-spacing:0px;fill:#00aeee;fill-opacity:1;stroke:none;stroke-width:0.26404658"
     d="m 58.655619,221.91881 q 0,0.28202 0.07218,0.3938 0.07218,0.11178 0.24746,0.11178 0.130601,0 0.20793,-0.0774 0.07733,-0.0774 0.07733,-0.2098 0,-0.19948 -0.149508,-0.30953 -0.151223,-0.11006 -0.421021,-0.11006 h -0.03437 z m -0.194183,-0.70162 h 1.09809 v 0.50042 h -0.214805 q 0.127164,0.0911 0.195903,0.23387 0.06874,0.14273 0.06874,0.3147 0,0.32845 -0.173561,0.51246 -0.173564,0.18228 -0.484606,0.18228 -0.336814,0 -0.496633,-0.2184 -0.161534,-0.21839 -0.161534,-0.67582 v -0.34909 h -0.0842 q -0.12201,0 -0.183875,0.0894 -0.06358,0.0877 -0.06358,0.25967 0,0.18056 0.0464,0.35081 0.04468,0.16853 0.144349,0.35253 h -0.429612 q -0.06874,-0.16681 -0.101391,-0.33878 -0.03265,-0.17196 -0.03265,-0.36456 0,-0.46947 0.190749,-0.65863 0.190749,-0.19088 0.682225,-0.19088 z" />
  <path
     id="path20081"
     style="font-style:normal;font-variant:normal;font-weight:bold;font-stretch:normal;font-size:13.33333302px;line-height:1.25;font-family:monospace;-inkscape-font-specification:'monospace Bold';letter-spacing:0px;word-spacing:0px;fill:#00aeee;fill-opacity:1;stroke:none;stroke-width:0.26404658"
     d="m 57.088392,219.81567 h 0.54647 v -0.65862 h 0.386652 v 0.65862 h 0.910778 q 0.128883,0 0.185592,-0.0619 0.05499,-0.0636 0.05499,-0.2098 v -0.38692 h 0.386649 v 0.42303 q 0,0.43335 -0.137475,0.5864 -0.139197,0.15305 -0.513818,0.15305 h -0.886716 v 0.49182 h -0.386652 v -0.49182 h -0.54647 z" />
  <path
     id="path20083"
     style="font-style:normal;font-variant:normal;font-weight:bold;font-stretch:normal;font-size:13.33333302px;line-height:1.25;font-family:monospace;-inkscape-font-specification:'monospace Bold';letter-spacing:0px;word-spacing:0px;fill:#00aeee;fill-opacity:1;stroke:none;stroke-width:0.26404658"
     d="m 57.088392,217.69534 h 0.54647 v -0.65863 h 0.386652 v 0.65863 h 0.910778 q 0.128883,0 0.185592,-0.0619 0.05499,-0.0636 0.05499,-0.2098 v -0.38692 h 0.386649 v 0.42304 q 0,0.43335 -0.137475,0.5864 -0.139197,0.15305 -0.513818,0.15305 h -0.886716 v 0.49182 h -0.386652 v -0.49182 h -0.54647 z" />
  <path
     id="path20085"
     style="font-style:normal;font-variant:normal;font-weight:bold;font-stretch:normal;font-size:13.33333302px;line-height:1.25;font-family:monospace;-inkscape-font-specification:'monospace Bold';letter-spacing:0px;word-spacing:0px;fill:#00aeee;fill-opacity:1;stroke:none;stroke-width:0.26404658"
     d="m 59.465012,214.86651 q 0.07218,0.1754 0.108262,0.35769 0.03609,0.18228 0.03609,0.3852 0,0.48322 -0.257765,0.73945 -0.259487,0.25451 -0.74581,0.25451 -0.470855,0 -0.74409,-0.24591 -0.273233,-0.24591 -0.273233,-0.67067 0,-0.42819 0.254331,-0.66378 0.252614,-0.23732 0.713158,-0.23732 h 0.204496 v 1.30522 q 0.226836,-0.002 0.338535,-0.13413 0.111699,-0.13242 0.111699,-0.39552 0,-0.17369 -0.04984,-0.34221 -0.04983,-0.16853 -0.158094,-0.35253 z m -1.082625,0.42647 q -0.19934,0.003 -0.300731,0.10318 -0.103105,0.098 -0.103105,0.29062 0,0.17369 0.106542,0.27687 0.104828,0.10318 0.299014,0.12209 z" />
  <path
     id="path20087"
     style="font-style:normal;font-variant:normal;font-weight:bold;font-stretch:normal;font-size:13.33333302px;line-height:1.25;font-family:monospace;-inkscape-font-specification:'monospace Bold';letter-spacing:0px;word-spacing:0px;fill:#00aeee;fill-opacity:1;stroke:none;stroke-width:0.26404658"
     d="m 59.559526,212.13398 h -2.565648 v -0.5073 h 2.118851 v -1.0851 h 0.446797 z" />
  <path
     id="path20089"
     style="font-style:normal;font-variant:normal;font-weight:bold;font-stretch:normal;font-size:13.33333302px;line-height:1.25;font-family:monospace;-inkscape-font-specification:'monospace Bold';letter-spacing:0px;word-spacing:0px;fill:#00aeee;fill-opacity:1;stroke:none;stroke-width:0.26404658"
     d="m 58.655619,209.19681 q 0,0.28202 0.07218,0.3938 0.07218,0.11178 0.24746,0.11178 0.130601,0 0.20793,-0.0774 0.07733,-0.0774 0.07733,-0.20979 0,-0.19948 -0.149508,-0.30954 -0.151223,-0.11006 -0.421021,-0.11006 h -0.03437 z m -0.194183,-0.70162 h 1.09809 v 0.50042 h -0.214805 q 0.127164,0.0911 0.195903,0.23388 0.06874,0.14272 0.06874,0.31469 0,0.32845 -0.173561,0.51246 -0.173564,0.18228 -0.484606,0.18228 -0.336814,0 -0.496633,-0.21839 -0.161534,-0.2184 -0.161534,-0.67583 v -0.34909 h -0.0842 q -0.12201,0 -0.183875,0.0894 -0.06358,0.0877 -0.06358,0.25967 0,0.18057 0.0464,0.35081 0.04468,0.16853 0.144349,0.35253 h -0.429612 q -0.06874,-0.16681 -0.101391,-0.33877 -0.03265,-0.17197 -0.03265,-0.36457 0,-0.46947 0.190749,-0.65863 0.190749,-0.19088 0.682225,-0.19088 z" />
  <path
     id="path20091"
     style="font-style:normal;font-variant:normal;font-weight:bold;font-stretch:normal;font-size:13.33333302px;line-height:1.25;font-family:monospace;-inkscape-font-specification:'monospace Bold';letter-spacing:0px;word-spacing:0px;fill:#00aeee;fill-opacity:1;stroke:none;stroke-width:0.26404658"
     d="m 59.767459,207.05756 q 0.271516,0.10146 0.395246,0.24419 0.125446,0.14101 0.125446,0.34393 v 0.41616 h -0.383214 v -0.20464 q 0,-0.15477 -0.05327,-0.22699 -0.05155,-0.0722 -0.242303,-0.14618 l -0.103105,-0.0378 -1.871393,0.73257 v -0.52965 l 1.249315,-0.44023 -1.249315,-0.42132 v -0.52965 z" />
  <path
     id="path20093"
     style="font-style:normal;font-variant:normal;font-weight:bold;font-stretch:normal;font-size:13.33333302px;line-height:1.25;font-family:monospace;-inkscape-font-specification:'monospace Bold';letter-spacing:0px;word-spacing:0px;fill:#00aeee;fill-opacity:1;stroke:none;stroke-width:0.26404658"
     d="m 59.465012,204.26484 q 0.07218,0.17541 0.108262,0.35769 0.03609,0.18228 0.03609,0.3852 0,0.48323 -0.257765,0.73945 -0.259487,0.25451 -0.74581,0.25451 -0.470855,0 -0.74409,-0.24591 -0.273233,-0.24591 -0.273233,-0.67066 0,-0.4282 0.254331,-0.66379 0.252614,-0.23731 0.713158,-0.23731 h 0.204496 v 1.30522 q 0.226836,-0.002 0.338535,-0.13414 0.111699,-0.13241 0.111699,-0.39552 0,-0.17368 -0.04984,-0.34221 -0.04983,-0.16852 -0.158094,-0.35253 z m -1.082625,0.42648 q -0.19934,0.003 -0.300731,0.10318 -0.103105,0.098 -0.103105,0.29062 0,0.17368 0.106542,0.27686 0.104828,0.10318 0.299014,0.1221 z" />
  <path
     id="path20095"
     style="font-style:normal;font-variant:normal;font-weight:bold;font-stretch:normal;font-size:13.33333302px;line-height:1.25;font-family:monospace;-inkscape-font-specification:'monospace Bold';letter-spacing:0px;word-spacing:0px;fill:#00aeee;fill-opacity:1;stroke:none;stroke-width:0.26404658"
     d="m 58.165862,202.06025 q -0.07561,0.0825 -0.113416,0.19432 -0.03781,0.11005 -0.03781,0.24247 0,0.15993 0.05671,0.2803 0.05499,0.11866 0.161533,0.18401 0.0653,0.0413 0.1581,0.0585 0.09279,0.0155 0.281826,0.0155 h 0.886719 v 0.50386 H 57.63486 v -0.50386 h 0.299008 q -0.16497,-0.0739 -0.254328,-0.22699 -0.09108,-0.15305 -0.09108,-0.35769 0,-0.10318 0.0258,-0.2012 0.02405,-0.0997 0.07218,-0.18916 z" />
  <path
     id="path20097"
     style="font-style:normal;font-variant:normal;font-weight:bold;font-stretch:normal;font-size:13.33333302px;line-height:1.25;font-family:monospace;-inkscape-font-specification:'monospace Bold';letter-spacing:0px;word-spacing:0px;fill:#00aeee;fill-opacity:1;stroke:none;stroke-width:0.26404658"
     d="m 59.112729,199.05257 v -1.08166 h 0.446797 v 1.63023 H 59.126477 L 58.83434,199.326 q -0.520692,-0.4901 -0.640982,-0.595 -0.147788,-0.12898 -0.261205,-0.18573 -0.115136,-0.0567 -0.226838,-0.0567 -0.171844,0 -0.264638,0.1049 -0.09452,0.10317 -0.09452,0.29406 0,0.13585 0.05499,0.30609 0.05327,0.16853 0.15638,0.35253 h -0.472575 q -0.06702,-0.184 -0.101387,-0.35941 -0.03609,-0.17712 -0.03609,-0.33877 0,-0.40756 0.190746,-0.63971 0.189031,-0.23387 0.517255,-0.23387 0.151225,0 0.283546,0.0516 0.132321,0.0499 0.293854,0.17368 0.116856,0.0911 0.525849,0.50042 0.221679,0.22184 0.353999,0.35253 z" />
  <path
     d="m -238.83789,496.06771 q -1.45182,-0.55339 -1.96615,-1.15886 -0.51432,-0.61198 -0.51432,-1.64062 0,-1.32162 0.84635,-2.07682 0.84636,-0.75521 2.32422,-0.75521 0.67058,0 1.34115,0.15625 0.67057,0.14974 1.32812,0.44922 v 1.875 q -0.61849,-0.4362 -1.25651,-0.66407 -0.63802,-0.22786 -1.26302,-0.22786 -0.69661,0 -1.06771,0.27995 -0.37109,0.27995 -0.37109,0.80078 0,0.40364 0.26693,0.67057 0.27344,0.26042 1.13281,0.57943 l 0.82682,0.3125 q 1.17188,0.42969 1.72526,1.13932 0.55339,0.70964 0.55339,1.79037 0,1.47135 -0.8724,2.20052 -0.86588,0.72265 -2.62369,0.72265 -0.72266,0 -1.45183,-0.17578 -0.72265,-0.16927 -1.39974,-0.50781 v -1.98568 q 0.76823,0.54688 1.48438,0.8138 0.72265,0.26693 1.42578,0.26693 0.70963,0 1.10026,-0.31901 0.39062,-0.32552 0.39062,-0.90495 0,-0.43619 -0.26041,-0.76172 -0.26042,-0.33203 -0.75521,-0.52083 z"
     style="stroke-linejoin:miter;font-size:13.33333302px;-inkscape-font-specification:'monospace Bold';fill-opacity:1;letter-spacing:0px;word-spacing:0px;stroke:none;stroke-linecap:butt;stroke-width:1px;font-style:normal;fill:#000000;font-family:monospace;stroke-opacity:1;font-stretch:normal;font-variant:normal;font-weight:bold;line-height:125%"
     id="path16986"
     transform="matrix(0.000000,-0.264583,0.264583,0.000000,-95.333984,107.967790)" />
  <path
     d="m -227.16471,495.59896 v 4.73307 h -1.89454 v -4.4401 q 0,-0.78776 -0.22786,-1.12631 -0.22135,-0.33854 -0.72917,-0.33854 -0.52083,0 -0.8138,0.46224 -0.29297,0.45573 -0.29297,1.26953 v 4.17318 h -1.89453 v -10.13021 h 1.89453 v 3.93229 q 0.20183,-0.60546 0.69011,-0.9375 0.48828,-0.33203 1.17838,-0.33203 1.03516,0 1.5625,0.69011 0.52735,0.68359 0.52735,2.04427 z"
     style="stroke-linejoin:miter;font-size:13.33333302px;-inkscape-font-specification:'monospace Bold';fill-opacity:1;letter-spacing:0px;word-spacing:0px;stroke:none;stroke-linecap:butt;stroke-width:1px;font-style:normal;fill:#000000;font-family:monospace;stroke-opacity:1;font-stretch:normal;font-variant:normal;font-weight:bold;line-height:125%"
     id="path16988"
     transform="matrix(0.000000,-0.264583,0.264583,0.000000,-95.333984,107.967790)" />
  <path
     d="m -218.94206,499.97396 q -0.66406,0.27344 -1.35416,0.41015 -0.69011,0.13672 -1.45834,0.13672 -1.82943,0 -2.79948,-0.97656 -0.96354,-0.98307 -0.96354,-2.82552 0,-1.78385 0.93099,-2.81901 0.93099,-1.03516 2.53906,-1.03516 1.6211,0 2.51302,0.96354 0.89844,0.95704 0.89844,2.70183 v 0.77474 h -4.9414 q 0.007,0.85937 0.50781,1.28255 0.5013,0.42318 1.49739,0.42318 0.65756,0 1.29558,-0.18881 0.63802,-0.1888 1.33463,-0.59895 z m -1.61458,-4.10156 q -0.013,-0.75521 -0.39063,-1.13933 -0.37109,-0.39062 -1.10026,-0.39062 -0.65755,0 -1.04817,0.40364 -0.39063,0.39714 -0.46224,1.13282 z"
     style="stroke-linejoin:miter;font-size:13.33333302px;-inkscape-font-specification:'monospace Bold';fill-opacity:1;letter-spacing:0px;word-spacing:0px;stroke:none;stroke-linecap:butt;stroke-width:1px;font-style:normal;fill:#000000;font-family:monospace;stroke-opacity:1;font-stretch:normal;font-variant:normal;font-weight:bold;line-height:125%"
     id="path16990"
     transform="matrix(0.000000,-0.264583,0.264583,0.000000,-95.333984,107.967790)" />
  <path
     d="m -210.92122,499.97396 q -0.66407,0.27344 -1.35417,0.41015 -0.6901,0.13672 -1.45833,0.13672 -1.82943,0 -2.79948,-0.97656 -0.96354,-0.98307 -0.96354,-2.82552 0,-1.78385 0.93098,-2.81901 0.93099,-1.03516 2.53907,-1.03516 1.62109,0 2.51302,0.96354 0.89844,0.95704 0.89844,2.70183 v 0.77474 h -4.94141 q 0.007,0.85937 0.50781,1.28255 0.5013,0.42318 1.4974,0.42318 0.65755,0 1.29557,-0.18881 0.63802,-0.1888 1.33464,-0.59895 z m -1.61459,-4.10156 q -0.013,-0.75521 -0.39062,-1.13933 -0.3711,-0.39062 -1.10026,-0.39062 -0.65755,0 -1.04818,0.40364 -0.39062,0.39714 -0.46224,1.13282 z"
     style="stroke-linejoin:miter;font-size:13.33333302px;-inkscape-font-specification:'monospace Bold';fill-opacity:1;letter-spacing:0px;word-spacing:0px;stroke:none;stroke-linecap:butt;stroke-width:1px;font-style:normal;fill:#000000;font-family:monospace;stroke-opacity:1;font-stretch:normal;font-variant:normal;font-weight:bold;line-height:125%"
     id="path16992"
     transform="matrix(0.000000,-0.264583,0.264583,0.000000,-95.333984,107.967790)" />
  <path
     d="m -205.58268,490.97005 v 2.07031 h 2.49349 v 1.46485 h -2.49349 v 3.45052 q 0,0.48828 0.23437,0.70312 0.24089,0.20834 0.79427,0.20834 h 1.46485 v 1.46484 h -1.60157 q -1.64062,0 -2.22005,-0.52083 -0.57943,-0.52735 -0.57943,-1.94662 v -3.35937 h -1.86197 v -1.46485 h 1.86197 v -2.07031 z"
     style="stroke-linejoin:miter;font-size:13.33333302px;-inkscape-font-specification:'monospace Bold';fill-opacity:1;letter-spacing:0px;word-spacing:0px;stroke:none;stroke-linecap:butt;stroke-width:1px;font-style:normal;fill:#000000;font-family:monospace;stroke-opacity:1;font-stretch:normal;font-variant:normal;font-weight:bold;line-height:125%"
     id="path16994"
     transform="matrix(0.000000,-0.264583,0.264583,0.000000,-95.333984,107.967790)" />
  <path
     d="m -192.77669,490.61198 h 5.27995 v 1.69271 h -3.72396 v 1.80338 q 0.23437,-0.0911 0.5013,-0.13021 0.26693,-0.0456 0.56641,-0.0456 1.44531,0 2.34375,0.91146 0.89843,0.91146 0.89843,2.36979 0,1.52995 -0.97656,2.42188 -0.97005,0.88541 -2.64974,0.88541 -0.625,0 -1.26302,-0.10416 -0.63802,-0.10417 -1.30208,-0.3125 v -1.73177 q 0.54036,0.26692 1.10677,0.40364 0.57291,0.13021 1.14583,0.13021 1.01563,0 1.54297,-0.42969 0.52734,-0.4362 0.52734,-1.26302 0,-0.76172 -0.52734,-1.21745 -0.52083,-0.46224 -1.39323,-0.46224 -0.51432,0 -1.03516,0.13021 -0.51432,0.1237 -1.04166,0.37761 z"
     style="stroke-linejoin:miter;font-size:13.33333302px;-inkscape-font-specification:'monospace Bold';fill-opacity:1;letter-spacing:0px;word-spacing:0px;stroke:none;stroke-linecap:butt;stroke-width:1px;font-style:normal;fill:#000000;font-family:monospace;stroke-opacity:1;font-stretch:normal;font-variant:normal;font-weight:bold;line-height:125%"
     id="path16996"
     transform="matrix(0.000000,-0.264583,0.264583,0.000000,-95.333984,107.967790)" />
  <path
     d="m -176.0319,495.54687 h 4.10807 v 1.89454 h -4.10807 z"
     style="stroke-linejoin:miter;font-size:13.33333302px;-inkscape-font-specification:'monospace Bold';fill-opacity:1;letter-spacing:0px;word-spacing:0px;stroke:none;stroke-linecap:butt;stroke-width:1px;font-style:normal;fill:#000000;font-family:monospace;stroke-opacity:1;font-stretch:normal;font-variant:normal;font-weight:bold;line-height:125%"
     id="path16998"
     transform="matrix(0.000000,-0.264583,0.264583,0.000000,-95.333984,107.967790)" />
  <path
     id="path294"
     d="M 41.977598,253.45569 H 178.65481 V 43.806473 H 41.977598 Z m 0,0"
     style="fill:none;stroke:#ec008c;stroke-width:0.35078275;stroke-linecap:butt;stroke-linejoin:miter;stroke-miterlimit:10;stroke-opacity:1" />
  <path
     transform="matrix(1.000000,0.000000,0.000000,1.000000,0.095970,0.000000)"
     id="path561-9-1-81"
     style="stroke:#ea0088;clip-rule:evenodd;stroke-opacity:1;fill-rule:nonzero;stroke-miterlimit:10;stroke-width:0.35203058;fill:none"
     d="m 58.963121,52.271592 c 0.55073,0 0.997646,-0.446888 0.997646,-0.998015 0,-0.55148 -0.446916,-0.998369 -0.997646,-0.998369 -0.550727,0 -0.997294,0.446889 -0.997294,0.998369 0,0.551127 0.446567,0.998015 0.997294,0.998015" />
  <path
     transform="matrix(1.000000,0.000000,0.000000,1.000000,0.095970,0.000000)"
     id="path565-7-5-39"
     style="stroke:#000000;clip-rule:evenodd;stroke-opacity:1;fill-rule:nonzero;stroke-miterlimit:10;stroke-width:0.23753151px;fill:none"
     d="m 57.929892,51.273682 h 2.111454" />
  <path
     transform="matrix(1.000000,0.000000,0.000000,1.000000,0.095970,0.000000)"
     id="path569-2-4-8"
     style="stroke:#000000;clip-rule:evenodd;stroke-opacity:1;fill-rule:nonzero;stroke-miterlimit:10;stroke-width:0.23753138px;fill:none"
     d="m 58.963605,52.315527 v -2.11298" />
  <path
     transform="matrix(1.000000,0.000000,0.000000,1.000000,0.095970,0.000000)"
     id="path561-9-1-81-2"
     style="stroke:#ea0088;clip-rule:evenodd;stroke-opacity:1;fill-rule:nonzero;stroke-miterlimit:10;stroke-width:0.35203058;fill:none"
     d="m 58.963055,246.93309 c 0.550728,0 0.997646,-0.44688 0.997646,-0.99801 0,-0.55148 -0.446918,-0.99837 -0.997646,-0.99837 -0.550727,0 -0.997291,0.44689 -0.997291,0.99837 0,0.55113 0.446564,0.99801 0.997291,0.99801" />
  <path
     transform="matrix(1.000000,0.000000,0.000000,1.000000,0.095970,0.000000)"
     id="path565-7-5-39-6"
     style="stroke:#000000;clip-rule:evenodd;stroke-opacity:1;fill-rule:nonzero;stroke-miterlimit:10;stroke-width:0.23753151px;fill:none"
     d="m 57.929825,245.93518 h 2.111452" />
  <path
     transform="matrix(1.000000,0.000000,0.000000,1.000000,0.095970,0.000000)"
     id="path569-2-4-8-1"
     style="stroke:#000000;clip-rule:evenodd;stroke-opacity:1;fill-rule:nonzero;stroke-miterlimit:10;stroke-width:0.23753138px;fill:none"
     d="m 58.963539,246.97703 v -2.11298" />
  <path
     transform="matrix(1.000000,0.000000,0.000000,1.000000,10.063970,-0.000001)"
     id="path561-9-1-81-0"
     style="stroke:#ea0088;clip-rule:evenodd;stroke-opacity:1;fill-rule:nonzero;stroke-miterlimit:10;stroke-width:0.35203058;fill:none"
     d="m 58.963121,52.271592 c 0.55073,0 0.997646,-0.446888 0.997646,-0.998015 0,-0.55148 -0.446916,-0.998369 -0.997646,-0.998369 -0.550727,0 -0.997294,0.446889 -0.997294,0.998369 0,0.551127 0.446567,0.998015 0.997294,0.998015" />
  <path
     transform="matrix(1.000000,0.000000,0.000000,1.000000,10.063970,-0.000001)"
     id="path565-7-5-39-9"
     style="stroke:#000000;clip-rule:evenodd;stroke-opacity:1;fill-rule:nonzero;stroke-miterlimit:10;stroke-width:0.23753151px;fill:none"
     d="m 57.929892,51.273682 h 2.111454" />
  <path
     transform="matrix(1.000000,0.000000,0.000000,1.000000,10.063970,-0.000001)"
     id="path569-2-4-8-17"
     style="stroke:#000000;clip-rule:evenodd;stroke-opacity:1;fill-rule:nonzero;stroke-miterlimit:10;stroke-width:0.23753138px;fill:none"
     d="m 58.963605,52.315527 v -2.11298" />
  <path
     transform="matrix(1.000000,0.000000,0.000000,1.000000,10.063970,-0.000001)"
     id="path561-9-1-81-2-7"
     style="stroke:#ea0088;clip-rule:evenodd;stroke-opacity:1;fill-rule:nonzero;stroke-miterlimit:10;stroke-width:0.35203058;fill:none"
     d="m 58.963055,246.93309 c 0.550728,0 0.997646,-0.44688 0.997646,-0.99801 0,-0.55148 -0.446918,-0.99837 -0.997646,-0.99837 -0.550727,0 -0.997291,0.44689 -0.997291,0.99837 0,0.55113 0.446564,0.99801 0.997291,0.99801" />
  <path
     transform="matrix(1.000000,0.000000,0.000000,1.000000,10.063970,-0.000001)"
     id="path565-7-5-39-6-1"
     style="stroke:#000000;clip-rule:evenodd;stroke-opacity:1;fill-rule:nonzero;stroke-miterlimit:10;stroke-width:0.23753151px;fill:none"
     d="m 57.929825,245.93518 h 2.111452" />
  <path
     transform="matrix(1.000000,0.000000,0.000000,1.000000,10.063970,-0.000001)"
     id="path569-2-4-8-1-1"
     style="stroke:#000000;clip-rule:evenodd;stroke-opacity:1;fill-rule:nonzero;stroke-miterlimit:10;stroke-width:0.23753138px;fill:none"
     d="m 58.963539,246.97703 v -2.11298" />
  <path
     transform="matrix(1.000000,0.000000,0.000000,1.000000,89.802765,0.000000)"
     id="path561-9-1-81-7"
     style="stroke:#ea0088;clip-rule:evenodd;stroke-opacity:1;fill-rule:nonzero;stroke-miterlimit:10;stroke-width:0.35203058;fill:none"
     d="m 58.963121,52.271592 c 0.55073,0 0.997646,-0.446888 0.997646,-0.998015 0,-0.55148 -0.446916,-0.998369 -0.997646,-0.998369 -0.550727,0 -0.997294,0.446889 -0.997294,0.998369 0,0.551127 0.446567,0.998015 0.997294,0.998015" />
  <path
     transform="matrix(1.000000,0.000000,0.000000,1.000000,89.802765,0.000000)"
     id="path565-7-5-39-67"
     style="stroke:#000000;clip-rule:evenodd;stroke-opacity:1;fill-rule:nonzero;stroke-miterlimit:10;stroke-width:0.23753151px;fill:none"
     d="m 57.929892,51.273682 h 2.111454" />
  <path
     transform="matrix(1.000000,0.000000,0.000000,1.000000,89.802765,0.000000)"
     id="path569-2-4-8-3"
     style="stroke:#000000;clip-rule:evenodd;stroke-opacity:1;fill-rule:nonzero;stroke-miterlimit:10;stroke-width:0.23753138px;fill:none"
     d="m 58.963605,52.315527 v -2.11298" />
  <path
     transform="matrix(1.000000,0.000000,0.000000,1.000000,89.802765,0.000000)"
     id="path561-9-1-81-2-6"
     style="stroke:#ea0088;clip-rule:evenodd;stroke-opacity:1;fill-rule:nonzero;stroke-miterlimit:10;stroke-width:0.35203058;fill:none"
     d="m 58.963055,246.93309 c 0.550728,0 0.997646,-0.44688 0.997646,-0.99801 0,-0.55148 -0.446918,-0.99837 -0.997646,-0.99837 -0.550727,0 -0.997291,0.44689 -0.997291,0.99837 0,0.55113 0.446564,0.99801 0.997291,0.99801" />
  <path
     transform="matrix(1.000000,0.000000,0.000000,1.000000,89.802765,0.000000)"
     id="path565-7-5-39-6-5"
     style="stroke:#000000;clip-rule:evenodd;stroke-opacity:1;fill-rule:nonzero;stroke-miterlimit:10;stroke-width:0.23753151px;fill:none"
     d="m 57.929825,245.93518 h 2.111452" />
  <path
     transform="matrix(1.000000,0.000000,0.000000,1.000000,89.802765,0.000000)"
     id="path569-2-4-8-1-6"
     style="stroke:#000000;clip-rule:evenodd;stroke-opacity:1;fill-rule:nonzero;stroke-miterlimit:10;stroke-width:0.23753138px;fill:none"
     d="m 58.963539,246.97703 v -2.11298" />
  <path
     transform="matrix(1.000000,0.000000,0.000000,1.000000,99.770765,-0.000001)"
     id="path561-9-1-81-0-9"
     style="stroke:#ea0088;clip-rule:evenodd;stroke-opacity:1;fill-rule:nonzero;stroke-miterlimit:10;stroke-width:0.35203058;fill:none"
     d="m 58.963121,52.271592 c 0.55073,0 0.997646,-0.446888 0.997646,-0.998015 0,-0.55148 -0.446916,-0.998369 -0.997646,-0.998369 -0.550727,0 -0.997294,0.446889 -0.997294,0.998369 0,0.551127 0.446567,0.998015 0.997294,0.998015" />
  <path
     transform="matrix(1.000000,0.000000,0.000000,1.000000,99.770765,-0.000001)"
     id="path565-7-5-39-9-4"
     style="stroke:#000000;clip-rule:evenodd;stroke-opacity:1;fill-rule:nonzero;stroke-miterlimit:10;stroke-width:0.23753151px;fill:none"
     d="m 57.929892,51.273682 h 2.111454" />
  <path
     transform="matrix(1.000000,0.000000,0.000000,1.000000,99.770765,-0.000001)"
     id="path569-2-4-8-17-8"
     style="stroke:#000000;clip-rule:evenodd;stroke-opacity:1;fill-rule:nonzero;stroke-miterlimit:10;stroke-width:0.23753138px;fill:none"
     d="m 58.963605,52.315527 v -2.11298" />
  <path
     transform="matrix(1.000000,0.000000,0.000000,1.000000,99.770765,-0.000001)"
     id="path561-9-1-81-2-7-1"
     style="stroke:#ea0088;clip-rule:evenodd;stroke-opacity:1;fill-rule:nonzero;stroke-miterlimit:10;stroke-width:0.35203058;fill:none"
     d="m 58.963055,246.93309 c 0.550728,0 0.997646,-0.44688 0.997646,-0.99801 0,-0.55148 -0.446918,-0.99837 -0.997646,-0.99837 -0.550727,0 -0.997291,0.44689 -0.997291,0.99837 0,0.55113 0.446564,0.99801 0.997291,0.99801" />
  <path
     transform="matrix(1.000000,0.000000,0.000000,1.000000,99.770765,-0.000001)"
     id="path565-7-5-39-6-1-2"
     style="stroke:#000000;clip-rule:evenodd;stroke-opacity:1;fill-rule:nonzero;stroke-miterlimit:10;stroke-width:0.23753151px;fill:none"
     d="m 57.929825,245.93518 h 2.111452" />
  <path
     transform="matrix(1.000000,0.000000,0.000000,1.000000,99.770765,-0.000001)"
     id="path569-2-4-8-1-1-9"
     style="stroke:#000000;clip-rule:evenodd;stroke-opacity:1;fill-rule:nonzero;stroke-miterlimit:10;stroke-width:0.23753138px;fill:none"
     d="m 58.963539,246.97703 v -2.11298" />
  <path
     d="m 127.80299,169.11337 -2.14802,-0.45303 v -0.5116 l 2.57177,0.6115 v 0.70453 l -2.57177,0.6115 v -0.5116 z"
     style="font-size:13.33333302px;font-family:monospace;fill-opacity:1;font-weight:bold;letter-spacing:0px;line-height:1.25;word-spacing:0px;stroke:none;-inkscape-font-specification:'monospace Bold';font-stretch:normal;font-variant:normal;stroke-width:0.26458332;font-style:normal;fill:#000000"
     id="path7265"
     transform="matrix(1.000000,0.000000,0.000000,1.000000,-91.183084,-19.481504)" />
  <path
     d="m 128.22674,166.1592 v 1.60197 h -2.57177 v -1.60197 h 0.44787 v 1.09382 h 0.55466 v -0.99047 h 0.44786 v 0.99047 h 0.67352 v -1.09382 z"
     style="font-size:13.33333302px;font-family:monospace;fill-opacity:1;font-weight:bold;letter-spacing:0px;line-height:1.25;word-spacing:0px;stroke:none;-inkscape-font-specification:'monospace Bold';font-stretch:normal;font-variant:normal;stroke-width:0.26458332;font-style:normal;fill:#000000"
     id="path7267"
     transform="matrix(1.000000,0.000000,0.000000,1.000000,-91.183084,-19.481504)" />
  <path
     d="m 128.15267,164.06458 q 0.062,0.12058 0.093,0.25321 0.031,0.13264 0.031,0.27905 0,0.52022 -0.34278,0.7941 -0.34279,0.27388 -0.99047,0.27388 -0.6494,0 -0.99219,-0.27388 -0.34278,-0.27388 -0.34278,-0.7941 0,-0.14641 0.031,-0.28077 0.031,-0.13436 0.093,-0.25149 h 0.565 q -0.12058,0.13091 -0.1757,0.25494 -0.0568,0.1223 -0.0568,0.25321 0,0.27905 0.22221,0.42202 0.22049,0.14125 0.65629,0.14125 0.43408,0 0.65629,-0.14125 0.22049,-0.14297 0.22049,-0.42202 0,-0.13091 -0.0551,-0.25321 -0.0568,-0.12403 -0.17743,-0.25494 z"
     style="font-size:13.33333302px;font-family:monospace;fill-opacity:1;font-weight:bold;letter-spacing:0px;line-height:1.25;word-spacing:0px;stroke:none;-inkscape-font-specification:'monospace Bold';font-stretch:normal;font-variant:normal;stroke-width:0.26458332;font-style:normal;fill:#000000"
     id="path7269"
     transform="matrix(1.000000,0.000000,0.000000,1.000000,-91.183084,-19.481504)" />
  <path
     d="m 126.06494,162.74166 q 0,0.19465 0.20843,0.28422 0.2067,0.0896 0.67007,0.0896 0.46164,0 0.67007,-0.0896 0.20671,-0.0896 0.20671,-0.28422 0,-0.19637 -0.20671,-0.28594 -0.20843,-0.0896 -0.67007,-0.0896 -0.46337,0 -0.67007,0.0896 -0.20843,0.0896 -0.20843,0.28594 z m 0.8785,0.90262 q -0.65973,0 -0.99735,-0.22738 -0.33762,-0.2291 -0.33762,-0.67524 0,-0.44786 0.33762,-0.67524 0.33762,-0.22909 0.99735,-0.22909 0.65802,0 0.99563,0.22909 0.33762,0.22738 0.33762,0.67524 0,0.44614 -0.33762,0.67524 -0.33761,0.22738 -0.99563,0.22738 z"
     style="font-size:13.33333302px;font-family:monospace;fill-opacity:1;font-weight:bold;letter-spacing:0px;line-height:1.25;word-spacing:0px;stroke:none;-inkscape-font-specification:'monospace Bold';font-stretch:normal;font-variant:normal;stroke-width:0.26458332;font-style:normal;fill:#000000"
     id="path7271"
     transform="matrix(1.000000,0.000000,0.000000,1.000000,-91.183084,-19.481504)" />
  <path
     d="m 126.21997,158.3595 1.01631,0.6494 v -0.6494 z m -0.565,0.0448 v -0.53227 h 1.58131 v -0.2825 h 0.4358 v 0.2825 h 0.55466 v 0.48748 h -0.55466 v 1.01975 h -0.49265 z"
     style="font-size:13.33333302px;font-family:monospace;fill-opacity:1;font-weight:bold;letter-spacing:0px;line-height:1.25;word-spacing:0px;stroke:none;-inkscape-font-specification:'monospace Bold';font-stretch:normal;font-variant:normal;stroke-width:0.26458332;font-style:normal;fill:#000000"
     id="path7273"
     transform="matrix(1.000000,0.000000,0.000000,1.000000,-91.183084,-19.481504)" />
  <path
     d="m 126.94344,156.58355 q -0.0913,0 -0.15331,-0.062 -0.062,-0.062 -0.062,-0.15158 0,-0.0913 0.062,-0.15331 0.062,-0.062 0.15331,-0.062 0.0896,0 0.15158,0.062 0.062,0.062 0.062,0.15331 0,0.0896 -0.0603,0.15158 -0.062,0.062 -0.15331,0.062 z m -0.90434,-0.21359 q 0,0.1757 0.21532,0.25666 0.21532,0.081 0.68902,0.081 0.47198,0 0.6873,-0.081 0.21532,-0.081 0.21532,-0.25666 0,-0.17743 -0.21532,-0.25838 -0.21532,-0.081 -0.6873,-0.081 -0.4737,0 -0.68902,0.081 -0.21532,0.081 -0.21532,0.25838 z m 0.90434,0.84921 q -0.66835,0 -1.0008,-0.21187 -0.33417,-0.21187 -0.33417,-0.63734 0,-0.42719 0.33245,-0.63907 0.33245,-0.21187 1.00252,-0.21187 0.66835,0 1.0008,0.21187 0.33245,0.21188 0.33245,0.63907 0,0.42547 -0.33245,0.63734 -0.33417,0.21187 -1.0008,0.21187 z"
     style="font-size:13.33333302px;font-family:monospace;fill-opacity:1;font-weight:bold;letter-spacing:0px;line-height:1.25;word-spacing:0px;stroke:none;-inkscape-font-specification:'monospace Bold';font-stretch:normal;font-variant:normal;stroke-width:0.26458332;font-style:normal;fill:#000000"
     id="path7275"
     transform="matrix(1.000000,0.000000,0.000000,1.000000,-91.183084,-19.481504)" />
  <path
     d="m 125.65497,155.10561 v -0.50815 h 1.01631 l -1.01631,-0.79582 v -0.57533 l 1.01286,0.81132 1.55891,-0.8406 v 0.56499 l -1.15755,0.60978 0.28594,0.22566 h 0.87161 v 0.50815 z"
     style="font-size:13.33333302px;font-family:monospace;fill-opacity:1;font-weight:bold;letter-spacing:0px;line-height:1.25;word-spacing:0px;stroke:none;-inkscape-font-specification:'monospace Bold';font-stretch:normal;font-variant:normal;stroke-width:0.26458332;font-style:normal;fill:#000000"
     id="path7277"
     transform="matrix(1.000000,0.000000,0.000000,1.000000,-91.183084,-19.481504)" />
  <path
     d="m 127.09847,152.30474 q -0.14642,0.38413 -0.30661,0.52022 -0.16192,0.13608 -0.43409,0.13608 -0.34967,0 -0.54949,-0.22393 -0.19981,-0.22394 -0.19981,-0.61495 0,-0.17743 0.0413,-0.35485 0.0396,-0.17742 0.11885,-0.3514 h 0.4961 q -0.11541,0.16364 -0.1757,0.33245 -0.0603,0.16881 -0.0603,0.33418 0,0.18431 0.0741,0.2825 0.0741,0.0982 0.21187,0.0982 0.1068,0 0.17742,-0.0706 0.0689,-0.0723 0.15331,-0.29972 l 0.0827,-0.21876 q 0.11369,-0.31006 0.30145,-0.45648 0.18776,-0.14641 0.4737,-0.14641 0.3893,0 0.58222,0.23082 0.1912,0.2291 0.1912,0.69419 0,0.1912 -0.0465,0.38412 -0.0448,0.1912 -0.13437,0.37035 h -0.52537 q 0.14469,-0.20326 0.21532,-0.39274 0.0706,-0.1912 0.0706,-0.37724 0,-0.18775 -0.0844,-0.29111 -0.0861,-0.10335 -0.23944,-0.10335 -0.11541,0 -0.20154,0.0689 -0.0878,0.0689 -0.1378,0.19982 z"
     style="font-size:13.33333302px;font-family:monospace;fill-opacity:1;font-weight:bold;letter-spacing:0px;line-height:1.25;word-spacing:0px;stroke:none;-inkscape-font-specification:'monospace Bold';font-stretch:normal;font-variant:normal;stroke-width:0.26458332;font-style:normal;fill:#000000"
     id="path7279"
     transform="matrix(1.000000,0.000000,0.000000,1.000000,-91.183084,-19.481504)" />
  <path
     d="m 126.94344,150.21185 q -0.0913,0 -0.15331,-0.062 -0.062,-0.062 -0.062,-0.15159 0,-0.0913 0.062,-0.1533 0.062,-0.062 0.15331,-0.062 0.0896,0 0.15158,0.062 0.062,0.062 0.062,0.1533 0,0.0896 -0.0603,0.15159 -0.062,0.062 -0.15331,0.062 z m -0.90434,-0.2136 q 0,0.1757 0.21532,0.25666 0.21532,0.081 0.68902,0.081 0.47198,0 0.6873,-0.081 0.21532,-0.081 0.21532,-0.25666 0,-0.17742 -0.21532,-0.25838 -0.21532,-0.081 -0.6873,-0.081 -0.4737,0 -0.68902,0.081 -0.21532,0.081 -0.21532,0.25838 z m 0.90434,0.84922 q -0.66835,0 -1.0008,-0.21187 -0.33417,-0.21188 -0.33417,-0.63735 0,-0.42719 0.33245,-0.63906 0.33245,-0.21187 1.00252,-0.21187 0.66835,0 1.0008,0.21187 0.33245,0.21187 0.33245,0.63906 0,0.42547 -0.33245,0.63735 -0.33417,0.21187 -1.0008,0.21187 z"
     style="font-size:13.33333302px;font-family:monospace;fill-opacity:1;font-weight:bold;letter-spacing:0px;line-height:1.25;word-spacing:0px;stroke:none;-inkscape-font-specification:'monospace Bold';font-stretch:normal;font-variant:normal;stroke-width:0.26458332;font-style:normal;fill:#000000"
     id="path7281"
     transform="matrix(1.000000,0.000000,0.000000,1.000000,-91.183084,-19.481504)" />
  <path
     d="m 126.21997,147.73999 1.01631,0.6494 v -0.6494 z m -0.565,0.0448 v -0.53227 h 1.58131 v -0.2825 h 0.4358 v 0.2825 h 0.55466 V 147.74 h -0.55466 v 1.01975 h -0.49265 z"
     style="font-size:13.33333302px;font-family:monospace;fill-opacity:1;font-weight:bold;letter-spacing:0px;line-height:1.25;word-spacing:0px;stroke:none;-inkscape-font-specification:'monospace Bold';font-stretch:normal;font-variant:normal;stroke-width:0.26458332;font-style:normal;fill:#000000"
     id="path7283"
     transform="matrix(1.000000,0.000000,0.000000,1.000000,-91.183084,-19.481504)" />
  <path
     d="m 126.08217,146.02434 h 0.75447 v -0.20843 q 0,-0.24977 -0.0844,-0.34968 -0.0844,-0.10163 -0.29283,-0.10163 -0.20843,0 -0.29284,0.10163 -0.0844,0.0999 -0.0844,0.34968 z m -0.4272,0.50815 v -0.69763 q 0,-0.53227 0.18949,-0.76482 0.18948,-0.23426 0.61495,-0.23426 0.42546,0 0.61495,0.23426 0.18947,0.23255 0.18947,0.76482 v 0.18948 h 0.96291 v 0.50815 z"
     style="font-size:13.33333302px;font-family:monospace;fill-opacity:1;font-weight:bold;letter-spacing:0px;line-height:1.25;word-spacing:0px;stroke:none;-inkscape-font-specification:'monospace Bold';font-stretch:normal;font-variant:normal;stroke-width:0.26458332;font-style:normal;fill:#000000"
     id="path7285"
     transform="matrix(1.000000,0.000000,0.000000,1.000000,-91.183084,-19.481504)" />
  <path
     d="m 125.65497,144.48266 v -0.54605 l 1.86897,-0.71658 h -1.86897 v -0.44786 h 2.57177 v 0.5426 l -1.86897,0.72002 h 1.86897 v 0.44787 z"
     style="font-size:13.33333302px;font-family:monospace;fill-opacity:1;font-weight:bold;letter-spacing:0px;line-height:1.25;word-spacing:0px;stroke:none;-inkscape-font-specification:'monospace Bold';font-stretch:normal;font-variant:normal;stroke-width:0.26458332;font-style:normal;fill:#000000"
     id="path7287"
     transform="matrix(1.000000,0.000000,0.000000,1.000000,-91.183084,-19.481504)" />
  <path
     d="m 126.96067,142.04525 v -1.08693 h 0.50126 v 1.08693 z"
     style="font-size:13.33333302px;font-family:monospace;fill-opacity:1;font-weight:bold;letter-spacing:0px;line-height:1.25;word-spacing:0px;stroke:none;-inkscape-font-specification:'monospace Bold';font-stretch:normal;font-variant:normal;stroke-width:0.26458332;font-style:normal;fill:#000000"
     id="path7289"
     transform="matrix(1.000000,0.000000,0.000000,1.000000,-91.183084,-19.481504)" />
  <path
     d="m 127.77888,140.116 v -0.56844 h -1.66915 l 0.13091,0.52882 h -0.45819 l -0.12748,-0.53227 v -0.49092 h 2.12391 v -0.56844 h 0.44786 v 1.63125 z"
     style="font-size:13.33333302px;font-family:monospace;fill-opacity:1;font-weight:bold;letter-spacing:0px;line-height:1.25;word-spacing:0px;stroke:none;-inkscape-font-specification:'monospace Bold';font-stretch:normal;font-variant:normal;stroke-width:0.26458332;font-style:normal;fill:#000000"
     id="path7291"
     transform="matrix(1.000000,0.000000,0.000000,1.000000,-91.183084,-19.481504)" />
  <path
     d="m 127.80299,169.11337 -2.14802,-0.45303 v -0.5116 l 2.57177,0.6115 v 0.70453 l -2.57177,0.6115 v -0.5116 z"
     style="font-size:13.33333302px;-inkscape-font-specification:'monospace Bold';fill-opacity:1;letter-spacing:0px;word-spacing:0px;stroke:none;stroke-width:0.26458332;font-style:normal;fill:#00aeee;font-family:monospace;font-stretch:normal;font-variant:normal;font-weight:bold;line-height:1.25"
     id="path7265-0"
     transform="matrix(1.000000,0.000000,0.000000,1.000000,-68.665867,25.260130)" />
  <path
     d="m 128.22674,166.1592 v 1.60197 h -2.57177 v -1.60197 h 0.44787 v 1.09382 h 0.55466 v -0.99047 h 0.44786 v 0.99047 h 0.67352 v -1.09382 z"
     style="font-size:13.33333302px;-inkscape-font-specification:'monospace Bold';fill-opacity:1;letter-spacing:0px;word-spacing:0px;stroke:none;stroke-width:0.26458332;font-style:normal;fill:#00aeee;font-family:monospace;font-stretch:normal;font-variant:normal;font-weight:bold;line-height:1.25"
     id="path7267-3"
     transform="matrix(1.000000,0.000000,0.000000,1.000000,-68.665867,25.260130)" />
  <path
     d="m 128.15267,164.06458 q 0.062,0.12058 0.093,0.25321 0.031,0.13264 0.031,0.27905 0,0.52022 -0.34278,0.7941 -0.34279,0.27388 -0.99047,0.27388 -0.6494,0 -0.99219,-0.27388 -0.34278,-0.27388 -0.34278,-0.7941 0,-0.14641 0.031,-0.28077 0.031,-0.13436 0.093,-0.25149 h 0.565 q -0.12058,0.13091 -0.1757,0.25494 -0.0568,0.1223 -0.0568,0.25321 0,0.27905 0.22221,0.42202 0.22049,0.14125 0.65629,0.14125 0.43408,0 0.65629,-0.14125 0.22049,-0.14297 0.22049,-0.42202 0,-0.13091 -0.0551,-0.25321 -0.0568,-0.12403 -0.17743,-0.25494 z"
     style="font-size:13.33333302px;-inkscape-font-specification:'monospace Bold';fill-opacity:1;letter-spacing:0px;word-spacing:0px;stroke:none;stroke-width:0.26458332;font-style:normal;fill:#00aeee;font-family:monospace;font-stretch:normal;font-variant:normal;font-weight:bold;line-height:1.25"
     id="path7269-6"
     transform="matrix(1.000000,0.000000,0.000000,1.000000,-68.665867,25.260130)" />
  <path
     d="m 126.06494,162.74166 q 0,0.19465 0.20843,0.28422 0.2067,0.0896 0.67007,0.0896 0.46164,0 0.67007,-0.0896 0.20671,-0.0896 0.20671,-0.28422 0,-0.19637 -0.20671,-0.28594 -0.20843,-0.0896 -0.67007,-0.0896 -0.46337,0 -0.67007,0.0896 -0.20843,0.0896 -0.20843,0.28594 z m 0.8785,0.90262 q -0.65973,0 -0.99735,-0.22738 -0.33762,-0.2291 -0.33762,-0.67524 0,-0.44786 0.33762,-0.67524 0.33762,-0.22909 0.99735,-0.22909 0.65802,0 0.99563,0.22909 0.33762,0.22738 0.33762,0.67524 0,0.44614 -0.33762,0.67524 -0.33761,0.22738 -0.99563,0.22738 z"
     style="font-size:13.33333302px;-inkscape-font-specification:'monospace Bold';fill-opacity:1;letter-spacing:0px;word-spacing:0px;stroke:none;stroke-width:0.26458332;font-style:normal;fill:#00aeee;font-family:monospace;font-stretch:normal;font-variant:normal;font-weight:bold;line-height:1.25"
     id="path7271-1"
     transform="matrix(1.000000,0.000000,0.000000,1.000000,-68.665867,25.260130)" />
  <path
     d="m 126.21997,158.3595 1.01631,0.6494 v -0.6494 z m -0.565,0.0448 v -0.53227 h 1.58131 v -0.2825 h 0.4358 v 0.2825 h 0.55466 v 0.48748 h -0.55466 v 1.01975 h -0.49265 z"
     style="font-size:13.33333302px;-inkscape-font-specification:'monospace Bold';fill-opacity:1;letter-spacing:0px;word-spacing:0px;stroke:none;stroke-width:0.26458332;font-style:normal;fill:#00aeee;font-family:monospace;font-stretch:normal;font-variant:normal;font-weight:bold;line-height:1.25"
     id="path7273-0"
     transform="matrix(1.000000,0.000000,0.000000,1.000000,-68.665867,25.260130)" />
  <path
     d="m 126.94344,156.58355 q -0.0913,0 -0.15331,-0.062 -0.062,-0.062 -0.062,-0.15158 0,-0.0913 0.062,-0.15331 0.062,-0.062 0.15331,-0.062 0.0896,0 0.15158,0.062 0.062,0.062 0.062,0.15331 0,0.0896 -0.0603,0.15158 -0.062,0.062 -0.15331,0.062 z m -0.90434,-0.21359 q 0,0.1757 0.21532,0.25666 0.21532,0.081 0.68902,0.081 0.47198,0 0.6873,-0.081 0.21532,-0.081 0.21532,-0.25666 0,-0.17743 -0.21532,-0.25838 -0.21532,-0.081 -0.6873,-0.081 -0.4737,0 -0.68902,0.081 -0.21532,0.081 -0.21532,0.25838 z m 0.90434,0.84921 q -0.66835,0 -1.0008,-0.21187 -0.33417,-0.21187 -0.33417,-0.63734 0,-0.42719 0.33245,-0.63907 0.33245,-0.21187 1.00252,-0.21187 0.66835,0 1.0008,0.21187 0.33245,0.21188 0.33245,0.63907 0,0.42547 -0.33245,0.63734 -0.33417,0.21187 -1.0008,0.21187 z"
     style="font-size:13.33333302px;-inkscape-font-specification:'monospace Bold';fill-opacity:1;letter-spacing:0px;word-spacing:0px;stroke:none;stroke-width:0.26458332;font-style:normal;fill:#00aeee;font-family:monospace;font-stretch:normal;font-variant:normal;font-weight:bold;line-height:1.25"
     id="path7275-6"
     transform="matrix(1.000000,0.000000,0.000000,1.000000,-68.665867,25.260130)" />
  <path
     d="m 125.65497,155.10561 v -0.50815 h 1.01631 l -1.01631,-0.79582 v -0.57533 l 1.01286,0.81132 1.55891,-0.8406 v 0.56499 l -1.15755,0.60978 0.28594,0.22566 h 0.87161 v 0.50815 z"
     style="font-size:13.33333302px;-inkscape-font-specification:'monospace Bold';fill-opacity:1;letter-spacing:0px;word-spacing:0px;stroke:none;stroke-width:0.26458332;font-style:normal;fill:#00aeee;font-family:monospace;font-stretch:normal;font-variant:normal;font-weight:bold;line-height:1.25"
     id="path7277-3"
     transform="matrix(1.000000,0.000000,0.000000,1.000000,-68.665867,25.260130)" />
  <path
     d="m 127.09847,152.30474 q -0.14642,0.38413 -0.30661,0.52022 -0.16192,0.13608 -0.43409,0.13608 -0.34967,0 -0.54949,-0.22393 -0.19981,-0.22394 -0.19981,-0.61495 0,-0.17743 0.0413,-0.35485 0.0396,-0.17742 0.11885,-0.3514 h 0.4961 q -0.11541,0.16364 -0.1757,0.33245 -0.0603,0.16881 -0.0603,0.33418 0,0.18431 0.0741,0.2825 0.0741,0.0982 0.21187,0.0982 0.1068,0 0.17742,-0.0706 0.0689,-0.0723 0.15331,-0.29972 l 0.0827,-0.21876 q 0.11369,-0.31006 0.30145,-0.45648 0.18776,-0.14641 0.4737,-0.14641 0.3893,0 0.58222,0.23082 0.1912,0.2291 0.1912,0.69419 0,0.1912 -0.0465,0.38412 -0.0448,0.1912 -0.13437,0.37035 h -0.52537 q 0.14469,-0.20326 0.21532,-0.39274 0.0706,-0.1912 0.0706,-0.37724 0,-0.18775 -0.0844,-0.29111 -0.0861,-0.10335 -0.23944,-0.10335 -0.11541,0 -0.20154,0.0689 -0.0878,0.0689 -0.1378,0.19982 z"
     style="font-size:13.33333302px;-inkscape-font-specification:'monospace Bold';fill-opacity:1;letter-spacing:0px;word-spacing:0px;stroke:none;stroke-width:0.26458332;font-style:normal;fill:#00aeee;font-family:monospace;font-stretch:normal;font-variant:normal;font-weight:bold;line-height:1.25"
     id="path7279-2"
     transform="matrix(1.000000,0.000000,0.000000,1.000000,-68.665867,25.260130)" />
  <path
     d="m 126.94344,150.21185 q -0.0913,0 -0.15331,-0.062 -0.062,-0.062 -0.062,-0.15159 0,-0.0913 0.062,-0.1533 0.062,-0.062 0.15331,-0.062 0.0896,0 0.15158,0.062 0.062,0.062 0.062,0.1533 0,0.0896 -0.0603,0.15159 -0.062,0.062 -0.15331,0.062 z m -0.90434,-0.2136 q 0,0.1757 0.21532,0.25666 0.21532,0.081 0.68902,0.081 0.47198,0 0.6873,-0.081 0.21532,-0.081 0.21532,-0.25666 0,-0.17742 -0.21532,-0.25838 -0.21532,-0.081 -0.6873,-0.081 -0.4737,0 -0.68902,0.081 -0.21532,0.081 -0.21532,0.25838 z m 0.90434,0.84922 q -0.66835,0 -1.0008,-0.21187 -0.33417,-0.21188 -0.33417,-0.63735 0,-0.42719 0.33245,-0.63906 0.33245,-0.21187 1.00252,-0.21187 0.66835,0 1.0008,0.21187 0.33245,0.21187 0.33245,0.63906 0,0.42547 -0.33245,0.63735 -0.33417,0.21187 -1.0008,0.21187 z"
     style="font-size:13.33333302px;-inkscape-font-specification:'monospace Bold';fill-opacity:1;letter-spacing:0px;word-spacing:0px;stroke:none;stroke-width:0.26458332;font-style:normal;fill:#00aeee;font-family:monospace;font-stretch:normal;font-variant:normal;font-weight:bold;line-height:1.25"
     id="path7281-0"
     transform="matrix(1.000000,0.000000,0.000000,1.000000,-68.665867,25.260130)" />
  <path
     d="m 126.21997,147.73999 1.01631,0.6494 v -0.6494 z m -0.565,0.0448 v -0.53227 h 1.58131 v -0.2825 h 0.4358 v 0.2825 h 0.55466 V 147.74 h -0.55466 v 1.01975 h -0.49265 z"
     style="font-size:13.33333302px;-inkscape-font-specification:'monospace Bold';fill-opacity:1;letter-spacing:0px;word-spacing:0px;stroke:none;stroke-width:0.26458332;font-style:normal;fill:#00aeee;font-family:monospace;font-stretch:normal;font-variant:normal;font-weight:bold;line-height:1.25"
     id="path7283-6"
     transform="matrix(1.000000,0.000000,0.000000,1.000000,-68.665867,25.260130)" />
  <path
     d="m 126.08217,146.02434 h 0.75447 v -0.20843 q 0,-0.24977 -0.0844,-0.34968 -0.0844,-0.10163 -0.29283,-0.10163 -0.20843,0 -0.29284,0.10163 -0.0844,0.0999 -0.0844,0.34968 z m -0.4272,0.50815 v -0.69763 q 0,-0.53227 0.18949,-0.76482 0.18948,-0.23426 0.61495,-0.23426 0.42546,0 0.61495,0.23426 0.18947,0.23255 0.18947,0.76482 v 0.18948 h 0.96291 v 0.50815 z"
     style="font-size:13.33333302px;-inkscape-font-specification:'monospace Bold';fill-opacity:1;letter-spacing:0px;word-spacing:0px;stroke:none;stroke-width:0.26458332;font-style:normal;fill:#00aeee;font-family:monospace;font-stretch:normal;font-variant:normal;font-weight:bold;line-height:1.25"
     id="path7285-1"
     transform="matrix(1.000000,0.000000,0.000000,1.000000,-68.665867,25.260130)" />
  <path
     d="m 125.65497,144.48266 v -0.54605 l 1.86897,-0.71658 h -1.86897 v -0.44786 h 2.57177 v 0.5426 l -1.86897,0.72002 h 1.86897 v 0.44787 z"
     style="font-size:13.33333302px;-inkscape-font-specification:'monospace Bold';fill-opacity:1;letter-spacing:0px;word-spacing:0px;stroke:none;stroke-width:0.26458332;font-style:normal;fill:#00aeee;font-family:monospace;font-stretch:normal;font-variant:normal;font-weight:bold;line-height:1.25"
     id="path7287-5"
     transform="matrix(1.000000,0.000000,0.000000,1.000000,-68.665867,25.260130)" />
  <path
     d="m 126.96067,142.04525 v -1.08693 h 0.50126 v 1.08693 z"
     style="font-size:13.33333302px;-inkscape-font-specification:'monospace Bold';fill-opacity:1;letter-spacing:0px;word-spacing:0px;stroke:none;stroke-width:0.26458332;font-style:normal;fill:#00aeee;font-family:monospace;font-stretch:normal;font-variant:normal;font-weight:bold;line-height:1.25"
     id="path7289-5"
     transform="matrix(1.000000,0.000000,0.000000,1.000000,-68.665867,25.260130)" />
  <path
     d="m 127.77888,140.116 v -0.56844 h -1.66915 l 0.13091,0.52882 h -0.45819 l -0.12748,-0.53227 v -0.49092 h 2.12391 v -0.56844 h 0.44786 v 1.63125 z"
     style="font-size:13.33333302px;-inkscape-font-specification:'monospace Bold';fill-opacity:1;letter-spacing:0px;word-spacing:0px;stroke:none;stroke-width:0.26458332;font-style:normal;fill:#00aeee;font-family:monospace;font-stretch:normal;font-variant:normal;font-weight:bold;line-height:1.25"
     id="path7291-4"
     transform="matrix(1.000000,0.000000,0.000000,1.000000,-68.665867,25.260130)" />
  <rect
     transform="rotate(-90)"
     y="143.89104"
     x="-134.88831"
     height="20.302692"
     width="40.302696"
     id="rect2479-0-9-15-0-9-3"
     style="fill:none;fill-opacity:1;fill-rule:evenodd;stroke:#ec008c;stroke-width:0.19730496;stroke-linecap:butt;stroke-miterlimit:4;stroke-dasharray:none;stroke-opacity:1" />
  <rect
     transform="rotate(-90)"
     y="143.89099"
     x="-202.73535"
     height="20.302689"
     width="40.302696"
     id="rect2479-0-9-15-0-9-3-6"
     style="fill:none;fill-opacity:1;fill-rule:evenodd;stroke:#ec008c;stroke-width:0.19730496;stroke-linecap:butt;stroke-miterlimit:4;stroke-dasharray:none;stroke-opacity:1" />
</svg>
