<?xml version="1.0" encoding="UTF-8" standalone="no"?>
<svg
   width="210mm"
   height="297mm"
   viewBox="0 0 210 297"
   version="1.1"
   id="svg5150"
   sodipodi:docname="sheet_5_siedle_noamp.svg"
   inkscape:version="1.2.2 (732a01da63, 2022-12-09, custom)"
   xmlns:inkscape="http://www.inkscape.org/namespaces/inkscape"
   xmlns:sodipodi="http://sodipodi.sourceforge.net/DTD/sodipodi-0.dtd"
   xmlns="http://www.w3.org/2000/svg"
   xmlns:svg="http://www.w3.org/2000/svg"
   xmlns:rdf="http://www.w3.org/1999/02/22-rdf-syntax-ns#"
   xmlns:cc="http://creativecommons.org/ns#"
   xmlns:dc="http://purl.org/dc/elements/1.1/">
  <sodipodi:namedview
     id="namedview1214"
     pagecolor="#ffffff"
     bordercolor="#666666"
     borderopacity="1.0"
     inkscape:showpageshadow="2"
     inkscape:pageopacity="0.0"
     inkscape:pagecheckerboard="0"
     inkscape:deskcolor="#d1d1d1"
     inkscape:document-units="mm"
     showgrid="false"
     inkscape:zoom="1.534505"
     inkscape:cx="343.43321"
     inkscape:cy="679.37216"
     inkscape:window-width="1600"
     inkscape:window-height="820"
     inkscape:window-x="-4"
     inkscape:window-y="-4"
     inkscape:window-maximized="1"
     inkscape:current-layer="svg5150" />
  <defs
     id="defs5144" />
  <metadata
     id="metadata5147">
    <rdf:RDF>
      <cc:Work
         rdf:about="">
        <dc:format>image/svg+xml</dc:format>
        <dc:type
           rdf:resource="http://purl.org/dc/dcmitype/StillImage" />
      </cc:Work>
    </rdf:RDF>
  </metadata>
  <path
     style="fill:none;stroke:#211e1e;stroke-width:0.06760765;stroke-linecap:butt;stroke-linejoin:miter;stroke-miterlimit:10;stroke-opacity:1"
     d="M 41.977598,253.48493 H 30.936354 V 43.806473 h 11.041244"
     id="path110" />
  <path
     id="path20065"
     style="font-style:normal;font-variant:normal;font-weight:bold;font-stretch:normal;font-size:13.33333302px;line-height:1.25;font-family:monospace;-inkscape-font-specification:'monospace Bold';letter-spacing:0px;word-spacing:0px;fill:#00aeee;fill-opacity:1;stroke:none;stroke-width:0.26404658"
     d="m 58.394417,237.25984 h 0.759556 v -0.33705 q 0,-0.24247 -0.08249,-0.33877 -0.08249,-0.098 -0.286983,-0.098 -0.207931,0 -0.299008,0.10145 -0.09108,0.10147 -0.09108,0.33534 z m -1.00014,0 h 0.596302 v -0.33705 q 0,-0.1926 -0.06874,-0.27343 -0.06874,-0.0825 -0.226833,-0.0825 -0.158099,0 -0.228557,0.0843 -0.07217,0.0825 -0.07217,0.27171 z m -0.403836,0.4901 v -0.82715 q 0,-0.42819 0.163253,-0.64315 0.161535,-0.21668 0.484605,-0.21668 0.247457,0 0.386649,0.12726 0.139195,0.12725 0.161536,0.37316 0.02922,-0.29406 0.197623,-0.44195 0.168407,-0.14961 0.470855,-0.14961 0.371186,0 0.537874,0.22356 0.16669,0.22355 0.16669,0.72741 v 0.82715 z" />
  <path
     id="path20067"
     style="font-style:normal;font-variant:normal;font-weight:bold;font-stretch:normal;font-size:13.33333302px;line-height:1.25;font-family:monospace;-inkscape-font-specification:'monospace Bold';letter-spacing:0px;word-spacing:0px;fill:#00aeee;fill-opacity:1;stroke:none;stroke-width:0.26404658"
     d="m 57.997452,234.78526 q 0,0.18056 0.159817,0.28374 0.158099,0.10318 0.441642,0.10318 0.283546,0 0.443363,-0.10318 0.158096,-0.10318 0.158096,-0.28374 0,-0.18228 -0.158096,-0.28546 -0.159817,-0.10318 -0.443363,-0.10318 -0.283543,0 -0.441642,0.10318 -0.159817,0.10318 -0.159817,0.28546 z m 0.601459,0.89078 q -0.465698,0 -0.737216,-0.24075 -0.273233,-0.24247 -0.273233,-0.65003 0,-0.40928 0.273233,-0.65003 0.271518,-0.24247 0.737216,-0.24247 0.465701,0 0.738937,0.24247 0.271512,0.24075 0.271512,0.65003 0,0.40756 -0.271512,0.65003 -0.273236,0.24075 -0.738937,0.24075 z" />
  <path
     id="path20069"
     style="font-style:normal;font-variant:normal;font-weight:bold;font-stretch:normal;font-size:13.33333302px;line-height:1.25;font-family:monospace;-inkscape-font-specification:'monospace Bold';letter-spacing:0px;word-spacing:0px;fill:#00aeee;fill-opacity:1;stroke:none;stroke-width:0.26404658"
     d="m 57.908095,232.36399 h -1.022481 v -0.50214 h 2.673912 v 0.50214 h -0.285263 q 0.16669,0.0808 0.250894,0.20979 0.0842,0.12726 0.0842,0.30094 0,0.33018 -0.264639,0.51246 -0.264641,0.18228 -0.74581,0.18228 -0.48804,0 -0.749244,-0.184 -0.261205,-0.18572 -0.261205,-0.52793 0,-0.15477 0.08077,-0.27687 0.07905,-0.12381 0.238866,-0.21667 z m 0.694253,0.70161 q 0.278392,0 0.436489,-0.0928 0.158096,-0.0929 0.158096,-0.25623 0,-0.16337 -0.158096,-0.25795 -0.158097,-0.0946 -0.436489,-0.0946 -0.278389,0 -0.436486,0.0946 -0.158096,0.0946 -0.158096,0.25795 0,0.16337 0.158096,0.25623 0.158097,0.0928 0.436486,0.0928 z" />
  <path
     id="path20071"
     style="font-style:normal;font-variant:normal;font-weight:bold;font-stretch:normal;font-size:13.33333302px;line-height:1.25;font-family:monospace;-inkscape-font-specification:'monospace Bold';letter-spacing:0px;word-spacing:0px;fill:#00aeee;fill-opacity:1;stroke:none;stroke-width:0.26404658"
     d="m 59.465012,229.70884 q 0.07218,0.17541 0.108262,0.35769 0.03609,0.18228 0.03609,0.3852 0,0.48322 -0.257765,0.73946 -0.259487,0.2545 -0.74581,0.2545 -0.470855,0 -0.74409,-0.24591 -0.273233,-0.24591 -0.273233,-0.67066 0,-0.4282 0.254331,-0.66379 0.252614,-0.23731 0.713158,-0.23731 h 0.204496 v 1.30521 q 0.226836,-0.002 0.338535,-0.13413 0.111699,-0.13241 0.111699,-0.39552 0,-0.17368 -0.04984,-0.34221 -0.04983,-0.16853 -0.158094,-0.35253 z m -1.082625,0.42648 q -0.19934,0.003 -0.300731,0.10318 -0.103105,0.098 -0.103105,0.29062 0,0.17368 0.106542,0.27686 0.104828,0.10318 0.299014,0.1221 z" />
  <path
     id="path20073"
     style="font-style:normal;font-variant:normal;font-weight:bold;font-stretch:normal;font-size:13.33333302px;line-height:1.25;font-family:monospace;-inkscape-font-specification:'monospace Bold';letter-spacing:0px;word-spacing:0px;fill:#00aeee;fill-opacity:1;stroke:none;stroke-width:0.26404658"
     d="m 58.310211,227.64182 h 1.249315 v 0.50042 h -1.171982 q -0.209651,0 -0.299011,0.0602 -0.09108,0.0585 -0.09108,0.1926 0,0.13585 0.12201,0.21495 0.12201,0.0774 0.338535,0.0774 h 1.101529 v 0.50042 h -1.924664 v -0.50042 h 0.2887 q -0.159816,-0.0533 -0.247457,-0.18229 -0.08764,-0.12897 -0.08764,-0.31125 0,-0.27343 0.182155,-0.41272 0.180438,-0.13929 0.539594,-0.13929 z" />
  <path
     id="path20075"
     style="font-style:normal;font-variant:normal;font-weight:bold;font-stretch:normal;font-size:13.33333302px;line-height:1.25;font-family:monospace;-inkscape-font-specification:'monospace Bold';letter-spacing:0px;word-spacing:0px;fill:#00aeee;fill-opacity:1;stroke:none;stroke-width:0.26404658"
     d="m 59.288013,226.60315 h 1.003575 v 0.50214 h -2.656726 v -0.50214 h 0.2887 q -0.166692,-0.0791 -0.250896,-0.20808 -0.0842,-0.12898 -0.0842,-0.30266 0,-0.33017 0.264642,-0.51246 0.264641,-0.18228 0.745807,-0.18228 0.488043,0 0.749247,0.18572 0.261202,0.184 0.261202,0.52622 0,0.15476 -0.07905,0.27858 -0.08077,0.1221 -0.242301,0.21496 z m -0.692536,-0.70162 q -0.278392,0 -0.436488,0.0929 -0.1581,0.0929 -0.1581,0.25623 0,0.16336 0.1581,0.25795 0.158096,0.0946 0.436488,0.0946 0.278389,0 0.436483,-0.0946 0.158099,-0.0946 0.158099,-0.25795 0,-0.16337 -0.158099,-0.25623 -0.158094,-0.0929 -0.436483,-0.0929 z" />
  <path
     id="path20077"
     style="font-style:normal;font-variant:normal;font-weight:bold;font-stretch:normal;font-size:13.33333302px;line-height:1.25;font-family:monospace;-inkscape-font-specification:'monospace Bold';letter-spacing:0px;word-spacing:0px;fill:#00aeee;fill-opacity:1;stroke:none;stroke-width:0.26404658"
     d="m 58.75701,224.57739 h -1.484743 v 0.51074 h -0.386653 v -1.01459 h 1.871396 q 0.226836,0 0.32135,-0.0705 0.09452,-0.0705 0.09452,-0.23903 v -0.4024 h 0.386649 v 0.54341 q 0,0.35941 -0.185592,0.5159 -0.185592,0.15648 -0.616924,0.15648 z" />
  <path
     id="path20079"
     style="font-style:normal;font-variant:normal;font-weight:bold;font-stretch:normal;font-size:13.33333302px;line-height:1.25;font-family:monospace;-inkscape-font-specification:'monospace Bold';letter-spacing:0px;word-spacing:0px;fill:#00aeee;fill-opacity:1;stroke:none;stroke-width:0.26404658"
     d="m 58.655619,221.91881 q 0,0.28202 0.07218,0.3938 0.07218,0.11178 0.24746,0.11178 0.130601,0 0.20793,-0.0774 0.07733,-0.0774 0.07733,-0.2098 0,-0.19948 -0.149508,-0.30953 -0.151223,-0.11006 -0.421021,-0.11006 h -0.03437 z m -0.194183,-0.70162 h 1.09809 v 0.50042 h -0.214805 q 0.127164,0.0911 0.195903,0.23387 0.06874,0.14273 0.06874,0.3147 0,0.32845 -0.173561,0.51246 -0.173564,0.18228 -0.484606,0.18228 -0.336814,0 -0.496633,-0.2184 -0.161534,-0.21839 -0.161534,-0.67582 v -0.34909 h -0.0842 q -0.12201,0 -0.183875,0.0894 -0.06358,0.0877 -0.06358,0.25967 0,0.18056 0.0464,0.35081 0.04468,0.16853 0.144349,0.35253 h -0.429612 q -0.06874,-0.16681 -0.101391,-0.33878 -0.03265,-0.17196 -0.03265,-0.36456 0,-0.46947 0.190749,-0.65863 0.190749,-0.19088 0.682225,-0.19088 z" />
  <path
     id="path20081"
     style="font-style:normal;font-variant:normal;font-weight:bold;font-stretch:normal;font-size:13.33333302px;line-height:1.25;font-family:monospace;-inkscape-font-specification:'monospace Bold';letter-spacing:0px;word-spacing:0px;fill:#00aeee;fill-opacity:1;stroke:none;stroke-width:0.26404658"
     d="m 57.088392,219.81567 h 0.54647 v -0.65862 h 0.386652 v 0.65862 h 0.910778 q 0.128883,0 0.185592,-0.0619 0.05499,-0.0636 0.05499,-0.2098 v -0.38692 h 0.386649 v 0.42303 q 0,0.43335 -0.137475,0.5864 -0.139197,0.15305 -0.513818,0.15305 h -0.886716 v 0.49182 h -0.386652 v -0.49182 h -0.54647 z" />
  <path
     id="path20083"
     style="font-style:normal;font-variant:normal;font-weight:bold;font-stretch:normal;font-size:13.33333302px;line-height:1.25;font-family:monospace;-inkscape-font-specification:'monospace Bold';letter-spacing:0px;word-spacing:0px;fill:#00aeee;fill-opacity:1;stroke:none;stroke-width:0.26404658"
     d="m 57.088392,217.69534 h 0.54647 v -0.65863 h 0.386652 v 0.65863 h 0.910778 q 0.128883,0 0.185592,-0.0619 0.05499,-0.0636 0.05499,-0.2098 v -0.38692 h 0.386649 v 0.42304 q 0,0.43335 -0.137475,0.5864 -0.139197,0.15305 -0.513818,0.15305 h -0.886716 v 0.49182 h -0.386652 v -0.49182 h -0.54647 z" />
  <path
     id="path20085"
     style="font-style:normal;font-variant:normal;font-weight:bold;font-stretch:normal;font-size:13.33333302px;line-height:1.25;font-family:monospace;-inkscape-font-specification:'monospace Bold';letter-spacing:0px;word-spacing:0px;fill:#00aeee;fill-opacity:1;stroke:none;stroke-width:0.26404658"
     d="m 59.465012,214.86651 q 0.07218,0.1754 0.108262,0.35769 0.03609,0.18228 0.03609,0.3852 0,0.48322 -0.257765,0.73945 -0.259487,0.25451 -0.74581,0.25451 -0.470855,0 -0.74409,-0.24591 -0.273233,-0.24591 -0.273233,-0.67067 0,-0.42819 0.254331,-0.66378 0.252614,-0.23732 0.713158,-0.23732 h 0.204496 v 1.30522 q 0.226836,-0.002 0.338535,-0.13413 0.111699,-0.13242 0.111699,-0.39552 0,-0.17369 -0.04984,-0.34221 -0.04983,-0.16853 -0.158094,-0.35253 z m -1.082625,0.42647 q -0.19934,0.003 -0.300731,0.10318 -0.103105,0.098 -0.103105,0.29062 0,0.17369 0.106542,0.27687 0.104828,0.10318 0.299014,0.12209 z" />
  <path
     id="path20087"
     style="font-style:normal;font-variant:normal;font-weight:bold;font-stretch:normal;font-size:13.33333302px;line-height:1.25;font-family:monospace;-inkscape-font-specification:'monospace Bold';letter-spacing:0px;word-spacing:0px;fill:#00aeee;fill-opacity:1;stroke:none;stroke-width:0.26404658"
     d="m 59.559526,212.13398 h -2.565648 v -0.5073 h 2.118851 v -1.0851 h 0.446797 z" />
  <path
     id="path20089"
     style="font-style:normal;font-variant:normal;font-weight:bold;font-stretch:normal;font-size:13.33333302px;line-height:1.25;font-family:monospace;-inkscape-font-specification:'monospace Bold';letter-spacing:0px;word-spacing:0px;fill:#00aeee;fill-opacity:1;stroke:none;stroke-width:0.26404658"
     d="m 58.655619,209.19681 q 0,0.28202 0.07218,0.3938 0.07218,0.11178 0.24746,0.11178 0.130601,0 0.20793,-0.0774 0.07733,-0.0774 0.07733,-0.20979 0,-0.19948 -0.149508,-0.30954 -0.151223,-0.11006 -0.421021,-0.11006 h -0.03437 z m -0.194183,-0.70162 h 1.09809 v 0.50042 h -0.214805 q 0.127164,0.0911 0.195903,0.23388 0.06874,0.14272 0.06874,0.31469 0,0.32845 -0.173561,0.51246 -0.173564,0.18228 -0.484606,0.18228 -0.336814,0 -0.496633,-0.21839 -0.161534,-0.2184 -0.161534,-0.67583 v -0.34909 h -0.0842 q -0.12201,0 -0.183875,0.0894 -0.06358,0.0877 -0.06358,0.25967 0,0.18057 0.0464,0.35081 0.04468,0.16853 0.144349,0.35253 h -0.429612 q -0.06874,-0.16681 -0.101391,-0.33877 -0.03265,-0.17197 -0.03265,-0.36457 0,-0.46947 0.190749,-0.65863 0.190749,-0.19088 0.682225,-0.19088 z" />
  <path
     id="path20091"
     style="font-style:normal;font-variant:normal;font-weight:bold;font-stretch:normal;font-size:13.33333302px;line-height:1.25;font-family:monospace;-inkscape-font-specification:'monospace Bold';letter-spacing:0px;word-spacing:0px;fill:#00aeee;fill-opacity:1;stroke:none;stroke-width:0.26404658"
     d="m 59.767459,207.05756 q 0.271516,0.10146 0.395246,0.24419 0.125446,0.14101 0.125446,0.34393 v 0.41616 h -0.383214 v -0.20464 q 0,-0.15477 -0.05327,-0.22699 -0.05155,-0.0722 -0.242303,-0.14618 l -0.103105,-0.0378 -1.871393,0.73257 v -0.52965 l 1.249315,-0.44023 -1.249315,-0.42132 v -0.52965 z" />
  <path
     id="path20093"
     style="font-style:normal;font-variant:normal;font-weight:bold;font-stretch:normal;font-size:13.33333302px;line-height:1.25;font-family:monospace;-inkscape-font-specification:'monospace Bold';letter-spacing:0px;word-spacing:0px;fill:#00aeee;fill-opacity:1;stroke:none;stroke-width:0.26404658"
     d="m 59.465012,204.26484 q 0.07218,0.17541 0.108262,0.35769 0.03609,0.18228 0.03609,0.3852 0,0.48323 -0.257765,0.73945 -0.259487,0.25451 -0.74581,0.25451 -0.470855,0 -0.74409,-0.24591 -0.273233,-0.24591 -0.273233,-0.67066 0,-0.4282 0.254331,-0.66379 0.252614,-0.23731 0.713158,-0.23731 h 0.204496 v 1.30522 q 0.226836,-0.002 0.338535,-0.13414 0.111699,-0.13241 0.111699,-0.39552 0,-0.17368 -0.04984,-0.34221 -0.04983,-0.16852 -0.158094,-0.35253 z m -1.082625,0.42648 q -0.19934,0.003 -0.300731,0.10318 -0.103105,0.098 -0.103105,0.29062 0,0.17368 0.106542,0.27686 0.104828,0.10318 0.299014,0.1221 z" />
  <path
     id="path20095"
     style="font-style:normal;font-variant:normal;font-weight:bold;font-stretch:normal;font-size:13.33333302px;line-height:1.25;font-family:monospace;-inkscape-font-specification:'monospace Bold';letter-spacing:0px;word-spacing:0px;fill:#00aeee;fill-opacity:1;stroke:none;stroke-width:0.26404658"
     d="m 58.165862,202.06025 q -0.07561,0.0825 -0.113416,0.19432 -0.03781,0.11005 -0.03781,0.24247 0,0.15993 0.05671,0.2803 0.05499,0.11866 0.161533,0.18401 0.0653,0.0413 0.1581,0.0585 0.09279,0.0155 0.281826,0.0155 h 0.886719 v 0.50386 H 57.63486 v -0.50386 h 0.299008 q -0.16497,-0.0739 -0.254328,-0.22699 -0.09108,-0.15305 -0.09108,-0.35769 0,-0.10318 0.0258,-0.2012 0.02405,-0.0997 0.07218,-0.18916 z" />
  <path
     id="path20097"
     style="font-style:normal;font-variant:normal;font-weight:bold;font-stretch:normal;font-size:13.33333302px;line-height:1.25;font-family:monospace;-inkscape-font-specification:'monospace Bold';letter-spacing:0px;word-spacing:0px;fill:#00aeee;fill-opacity:1;stroke:none;stroke-width:0.26404658"
     d="m 59.112729,199.05257 v -1.08166 h 0.446797 v 1.63023 H 59.126477 L 58.83434,199.326 q -0.520692,-0.4901 -0.640982,-0.595 -0.147788,-0.12898 -0.261205,-0.18573 -0.115136,-0.0567 -0.226838,-0.0567 -0.171844,0 -0.264638,0.1049 -0.09452,0.10317 -0.09452,0.29406 0,0.13585 0.05499,0.30609 0.05327,0.16853 0.15638,0.35253 h -0.472575 q -0.06702,-0.184 -0.101387,-0.35941 -0.03609,-0.17712 -0.03609,-0.33877 0,-0.40756 0.190746,-0.63971 0.189031,-0.23387 0.517255,-0.23387 0.151225,0 0.283546,0.0516 0.132321,0.0499 0.293854,0.17368 0.116856,0.0911 0.525849,0.50042 0.221679,0.22184 0.353999,0.35253 z" />
  <path
     id="path20099"
     style="font-style:normal;font-variant:normal;font-weight:bold;font-stretch:normal;font-size:13.33333302px;line-height:1.25;font-family:monospace;-inkscape-font-specification:'monospace Bold';letter-spacing:0px;word-spacing:0px;fill:#00aeee;fill-opacity:1;stroke:none;stroke-width:0.26404658"
     d="m 58.433941,194.68121 q -0.146069,0.38348 -0.305885,0.51934 -0.161533,0.13585 -0.433049,0.13585 -0.348845,0 -0.548186,-0.22355 -0.199341,-0.22356 -0.199341,-0.61392 0,-0.17713 0.04124,-0.35425 0.03953,-0.17712 0.118574,-0.35081 h 0.494914 q -0.115136,0.16337 -0.175284,0.33189 -0.06014,0.16853 -0.06014,0.33362 0,0.184 0.0739,0.28202 0.07389,0.098 0.211367,0.098 0.106545,0 0.177001,-0.0705 0.06874,-0.0722 0.152943,-0.29921 l 0.08249,-0.2184 q 0.113419,-0.30954 0.300728,-0.45571 0.187312,-0.14617 0.472575,-0.14617 0.388371,0 0.580837,0.23044 0.190746,0.22871 0.190746,0.69301 0,0.19089 -0.0464,0.38349 -0.04468,0.19088 -0.134038,0.36972 h -0.524129 q 0.144351,-0.20292 0.214807,-0.39208 0.07046,-0.19088 0.07046,-0.3766 0,-0.18745 -0.0842,-0.29062 -0.08592,-0.10319 -0.238866,-0.10319 -0.115134,0 -0.201057,0.0688 -0.08764,0.0688 -0.137478,0.19948 z" />
  <path
     id="path20101"
     style="font-style:normal;font-variant:normal;font-weight:bold;font-stretch:normal;font-size:13.33333302px;line-height:1.25;font-family:monospace;-inkscape-font-specification:'monospace Bold';letter-spacing:0px;word-spacing:0px;fill:#00aeee;fill-opacity:1;stroke:none;stroke-width:0.26404658"
     d="m 57.634862,193.05786 v -0.9974 h 1.538015 v -0.62596 h 0.386649 v 1.75749 h -0.386649 v -0.62767 h -1.151363 v 0.49354 z m -0.936558,-0.49354 v -0.50386 h 0.58771 v 0.50386 z" />
  <path
     id="path20103"
     style="font-style:normal;font-variant:normal;font-weight:bold;font-stretch:normal;font-size:13.33333302px;line-height:1.25;font-family:monospace;-inkscape-font-specification:'monospace Bold';letter-spacing:0px;word-spacing:0px;fill:#00aeee;fill-opacity:1;stroke:none;stroke-width:0.26404658"
     d="m 59.465012,189.42251 q 0.07218,0.17541 0.108262,0.35769 0.03609,0.18228 0.03609,0.3852 0,0.48322 -0.257765,0.73945 -0.259487,0.25451 -0.74581,0.25451 -0.470855,0 -0.74409,-0.24591 -0.273233,-0.24591 -0.273233,-0.67067 0,-0.42819 0.254331,-0.66378 0.252614,-0.23731 0.713158,-0.23731 h 0.204496 v 1.30521 q 0.226836,-0.002 0.338535,-0.13413 0.111699,-0.13241 0.111699,-0.39552 0,-0.17369 -0.04984,-0.34221 -0.04983,-0.16853 -0.158094,-0.35253 z m -1.082625,0.42648 q -0.19934,0.003 -0.300731,0.10317 -0.103105,0.098 -0.103105,0.29062 0,0.17369 0.106542,0.27687 0.104828,0.10318 0.299014,0.12209 z" />
  <path
     id="path20105"
     style="font-style:normal;font-variant:normal;font-weight:bold;font-stretch:normal;font-size:13.33333302px;line-height:1.25;font-family:monospace;-inkscape-font-specification:'monospace Bold';letter-spacing:0px;word-spacing:0px;fill:#00aeee;fill-opacity:1;stroke:none;stroke-width:0.26404658"
     d="m 57.908095,187.83699 h -1.022481 v -0.50214 h 2.673912 v 0.50214 h -0.285263 q 0.16669,0.0808 0.250894,0.2098 0.0842,0.12725 0.0842,0.30094 0,0.33017 -0.264639,0.51245 -0.264641,0.18228 -0.74581,0.18228 -0.48804,0 -0.749244,-0.18399 -0.261205,-0.18573 -0.261205,-0.52794 0,-0.15477 0.08077,-0.27687 0.07905,-0.12381 0.238866,-0.21667 z m 0.694253,0.70162 q 0.278392,0 0.436489,-0.0929 0.158096,-0.0929 0.158096,-0.25623 0,-0.16337 -0.158096,-0.25795 -0.158097,-0.0946 -0.436489,-0.0946 -0.278389,0 -0.436486,0.0946 -0.158096,0.0946 -0.158096,0.25795 0,0.16337 0.158096,0.25623 0.158097,0.0929 0.436486,0.0929 z" />
  <path
     id="path20107"
     style="font-style:normal;font-variant:normal;font-weight:bold;font-stretch:normal;font-size:13.33333302px;line-height:1.25;font-family:monospace;-inkscape-font-specification:'monospace Bold';letter-spacing:0px;word-spacing:0px;fill:#00aeee;fill-opacity:1;stroke:none;stroke-width:0.26404658"
     d="m 58.75701,186.4114 h -1.484743 v 0.51073 h -0.386653 v -1.01459 h 1.871396 q 0.226836,0 0.32135,-0.0705 0.09452,-0.0705 0.09452,-0.23903 v -0.4024 h 0.386649 v 0.54341 q 0,0.35941 -0.185592,0.5159 -0.185592,0.15649 -0.616924,0.15649 z" />
  <path
     id="path20109"
     style="font-style:normal;font-variant:normal;font-weight:bold;font-stretch:normal;font-size:13.33333302px;line-height:1.25;font-family:monospace;-inkscape-font-specification:'monospace Bold';letter-spacing:0px;word-spacing:0px;fill:#00aeee;fill-opacity:1;stroke:none;stroke-width:0.26404658"
     d="m 59.465012,183.06151 q 0.07218,0.17541 0.108262,0.35769 0.03609,0.18228 0.03609,0.3852 0,0.48322 -0.257765,0.73945 -0.259487,0.25451 -0.74581,0.25451 -0.470855,0 -0.74409,-0.24591 -0.273233,-0.24591 -0.273233,-0.67066 0,-0.4282 0.254331,-0.66379 0.252614,-0.23731 0.713158,-0.23731 h 0.204496 v 1.30521 q 0.226836,-0.002 0.338535,-0.13413 0.111699,-0.13241 0.111699,-0.39552 0,-0.17368 -0.04984,-0.34221 -0.04983,-0.16852 -0.158094,-0.35253 z m -1.082625,0.42647 q -0.19934,0.003 -0.300731,0.10318 -0.103105,0.098 -0.103105,0.29063 0,0.17368 0.106542,0.27686 0.104828,0.10318 0.299014,0.1221 z" />
  <path
     id="path20111"
     style="font-style:normal;font-variant:normal;font-weight:bold;font-stretch:normal;font-size:13.33333302px;line-height:1.25;font-family:monospace;-inkscape-font-specification:'monospace Bold';letter-spacing:0px;word-spacing:0px;fill:#00aeee;fill-opacity:1;stroke:none;stroke-width:0.26404658"
     d="m 56.993878,180.51127 v -0.54514 l 1.864521,-0.71537 h -1.864521 v -0.44711 h 2.565648 v 0.54169 l -1.864519,0.71881 h 1.864519 v 0.44712 z" />
  <path
     id="path20113"
     style="font-style:normal;font-variant:normal;font-weight:bold;font-stretch:normal;font-size:13.33333302px;line-height:1.25;font-family:monospace;-inkscape-font-specification:'monospace Bold';letter-spacing:0px;word-spacing:0px;fill:#00aeee;fill-opacity:1;stroke:none;stroke-width:0.26404658"
     d="m 57.997452,177.53626 q 0,0.18057 0.159817,0.28374 0.158099,0.10319 0.441642,0.10319 0.283546,0 0.443363,-0.10319 0.158096,-0.10317 0.158096,-0.28374 0,-0.18228 -0.158096,-0.28546 -0.159817,-0.10318 -0.443363,-0.10318 -0.283543,0 -0.441642,0.10318 -0.159817,0.10318 -0.159817,0.28546 z m 0.601459,0.89078 q -0.465698,0 -0.737216,-0.24075 -0.273233,-0.24247 -0.273233,-0.65003 0,-0.40927 0.273233,-0.65003 0.271518,-0.24247 0.737216,-0.24247 0.465701,0 0.738937,0.24247 0.271512,0.24076 0.271512,0.65003 0,0.40756 -0.271512,0.65003 -0.273236,0.24075 -0.738937,0.24075 z" />
  <path
     id="path20115"
     style="font-style:normal;font-variant:normal;font-weight:bold;font-stretch:normal;font-size:13.33333302px;line-height:1.25;font-family:monospace;-inkscape-font-specification:'monospace Bold';letter-spacing:0px;word-spacing:0px;fill:#00aeee;fill-opacity:1;stroke:none;stroke-width:0.26404658"
     d="m 57.457859,175.41593 1.049977,0.23903 v -0.47978 z m -0.463981,0.30954 v -0.6208 l 2.565648,-0.69302 v 0.5073 l -0.634108,0.15821 v 0.67926 l 0.634108,0.15477 v 0.5073 z" />
  <path
     id="path20117"
     style="font-style:normal;font-variant:normal;font-weight:bold;font-stretch:normal;font-size:13.33333302px;line-height:1.25;font-family:monospace;-inkscape-font-specification:'monospace Bold';letter-spacing:0px;word-spacing:0px;fill:#00aeee;fill-opacity:1;stroke:none;stroke-width:0.26404658"
     d="m 57.827325,173.16834 q -0.12201,-0.0567 -0.180435,-0.14445 -0.05843,-0.0877 -0.05843,-0.21496 0,-0.24935 0.171847,-0.34393 0.171844,-0.0963 0.714875,-0.0963 h 1.084342 v 0.41272 h -1.235567 q -0.214805,0 -0.28698,0.0327 -0.07217,0.0327 -0.07217,0.11866 0,0.086 0.07389,0.12038 0.07389,0.0344 0.285263,0.0344 h 1.235567 v 0.40756 H 58.32396 q -0.21137,0 -0.285263,0.0344 -0.07389,0.0344 -0.07389,0.12038 0,0.086 0.07217,0.11865 0.07218,0.0327 0.28698,0.0327 h 1.235567 v 0.41272 H 57.63486 v -0.36628 h 0.199337 q -0.113416,-0.043 -0.178718,-0.13758 -0.06702,-0.0946 -0.06702,-0.21151 0,-0.11694 0.07046,-0.21324 0.06874,-0.0963 0.168407,-0.11694 z" />
  <path
     id="path20119"
     style="font-style:normal;font-variant:normal;font-weight:bold;font-stretch:normal;font-size:13.33333302px;line-height:1.25;font-family:monospace;-inkscape-font-specification:'monospace Bold';letter-spacing:0px;word-spacing:0px;fill:#00aeee;fill-opacity:1;stroke:none;stroke-width:0.26404658"
     d="m 59.288013,171.47448 h 1.003575 v 0.50214 h -2.656726 v -0.50214 h 0.2887 q -0.166692,-0.0791 -0.250896,-0.20807 -0.0842,-0.12898 -0.0842,-0.30267 0,-0.33017 0.264642,-0.51245 0.264641,-0.18228 0.745807,-0.18228 0.488043,0 0.749247,0.18572 0.261202,0.184 0.261202,0.52621 0,0.15477 -0.07905,0.27859 -0.08077,0.12209 -0.242301,0.21495 z m -0.692536,-0.70162 q -0.278392,0 -0.436488,0.0929 -0.1581,0.0929 -0.1581,0.25623 0,0.16337 0.1581,0.25795 0.158096,0.0946 0.436488,0.0946 0.278389,0 0.436483,-0.0946 0.158099,-0.0946 0.158099,-0.25795 0,-0.16336 -0.158099,-0.25623 -0.158094,-0.0929 -0.436483,-0.0929 z" />
  <path
     d="m -238.83789,496.06771 q -1.45182,-0.55339 -1.96615,-1.15886 -0.51432,-0.61198 -0.51432,-1.64062 0,-1.32162 0.84635,-2.07682 0.84636,-0.75521 2.32422,-0.75521 0.67058,0 1.34115,0.15625 0.67057,0.14974 1.32812,0.44922 v 1.875 q -0.61849,-0.4362 -1.25651,-0.66407 -0.63802,-0.22786 -1.26302,-0.22786 -0.69661,0 -1.06771,0.27995 -0.37109,0.27995 -0.37109,0.80078 0,0.40364 0.26693,0.67057 0.27344,0.26042 1.13281,0.57943 l 0.82682,0.3125 q 1.17188,0.42969 1.72526,1.13932 0.55339,0.70964 0.55339,1.79037 0,1.47135 -0.8724,2.20052 -0.86588,0.72265 -2.62369,0.72265 -0.72266,0 -1.45183,-0.17578 -0.72265,-0.16927 -1.39974,-0.50781 v -1.98568 q 0.76823,0.54688 1.48438,0.8138 0.72265,0.26693 1.42578,0.26693 0.70963,0 1.10026,-0.31901 0.39062,-0.32552 0.39062,-0.90495 0,-0.43619 -0.26041,-0.76172 -0.26042,-0.33203 -0.75521,-0.52083 z"
     style="stroke-linejoin:miter;font-size:13.33333302px;-inkscape-font-specification:'monospace Bold';fill-opacity:1;letter-spacing:0px;word-spacing:0px;stroke:none;stroke-linecap:butt;stroke-width:1px;font-style:normal;fill:#000000;font-family:monospace;stroke-opacity:1;font-stretch:normal;font-variant:normal;font-weight:bold;line-height:125%"
     id="path16986"
     transform="matrix(0.000000,-0.264583,0.264583,0.000000,-95.333984,107.967790)" />
  <path
     d="m -227.16471,495.59896 v 4.73307 h -1.89454 v -4.4401 q 0,-0.78776 -0.22786,-1.12631 -0.22135,-0.33854 -0.72917,-0.33854 -0.52083,0 -0.8138,0.46224 -0.29297,0.45573 -0.29297,1.26953 v 4.17318 h -1.89453 v -10.13021 h 1.89453 v 3.93229 q 0.20183,-0.60546 0.69011,-0.9375 0.48828,-0.33203 1.17838,-0.33203 1.03516,0 1.5625,0.69011 0.52735,0.68359 0.52735,2.04427 z"
     style="stroke-linejoin:miter;font-size:13.33333302px;-inkscape-font-specification:'monospace Bold';fill-opacity:1;letter-spacing:0px;word-spacing:0px;stroke:none;stroke-linecap:butt;stroke-width:1px;font-style:normal;fill:#000000;font-family:monospace;stroke-opacity:1;font-stretch:normal;font-variant:normal;font-weight:bold;line-height:125%"
     id="path16988"
     transform="matrix(0.000000,-0.264583,0.264583,0.000000,-95.333984,107.967790)" />
  <path
     d="m -218.94206,499.97396 q -0.66406,0.27344 -1.35416,0.41015 -0.69011,0.13672 -1.45834,0.13672 -1.82943,0 -2.79948,-0.97656 -0.96354,-0.98307 -0.96354,-2.82552 0,-1.78385 0.93099,-2.81901 0.93099,-1.03516 2.53906,-1.03516 1.6211,0 2.51302,0.96354 0.89844,0.95704 0.89844,2.70183 v 0.77474 h -4.9414 q 0.007,0.85937 0.50781,1.28255 0.5013,0.42318 1.49739,0.42318 0.65756,0 1.29558,-0.18881 0.63802,-0.1888 1.33463,-0.59895 z m -1.61458,-4.10156 q -0.013,-0.75521 -0.39063,-1.13933 -0.37109,-0.39062 -1.10026,-0.39062 -0.65755,0 -1.04817,0.40364 -0.39063,0.39714 -0.46224,1.13282 z"
     style="stroke-linejoin:miter;font-size:13.33333302px;-inkscape-font-specification:'monospace Bold';fill-opacity:1;letter-spacing:0px;word-spacing:0px;stroke:none;stroke-linecap:butt;stroke-width:1px;font-style:normal;fill:#000000;font-family:monospace;stroke-opacity:1;font-stretch:normal;font-variant:normal;font-weight:bold;line-height:125%"
     id="path16990"
     transform="matrix(0.000000,-0.264583,0.264583,0.000000,-95.333984,107.967790)" />
  <path
     d="m -210.92122,499.97396 q -0.66407,0.27344 -1.35417,0.41015 -0.6901,0.13672 -1.45833,0.13672 -1.82943,0 -2.79948,-0.97656 -0.96354,-0.98307 -0.96354,-2.82552 0,-1.78385 0.93098,-2.81901 0.93099,-1.03516 2.53907,-1.03516 1.62109,0 2.51302,0.96354 0.89844,0.95704 0.89844,2.70183 v 0.77474 h -4.94141 q 0.007,0.85937 0.50781,1.28255 0.5013,0.42318 1.4974,0.42318 0.65755,0 1.29557,-0.18881 0.63802,-0.1888 1.33464,-0.59895 z m -1.61459,-4.10156 q -0.013,-0.75521 -0.39062,-1.13933 -0.3711,-0.39062 -1.10026,-0.39062 -0.65755,0 -1.04818,0.40364 -0.39062,0.39714 -0.46224,1.13282 z"
     style="stroke-linejoin:miter;font-size:13.33333302px;-inkscape-font-specification:'monospace Bold';fill-opacity:1;letter-spacing:0px;word-spacing:0px;stroke:none;stroke-linecap:butt;stroke-width:1px;font-style:normal;fill:#000000;font-family:monospace;stroke-opacity:1;font-stretch:normal;font-variant:normal;font-weight:bold;line-height:125%"
     id="path16992"
     transform="matrix(0.000000,-0.264583,0.264583,0.000000,-95.333984,107.967790)" />
  <path
     d="m -205.58268,490.97005 v 2.07031 h 2.49349 v 1.46485 h -2.49349 v 3.45052 q 0,0.48828 0.23437,0.70312 0.24089,0.20834 0.79427,0.20834 h 1.46485 v 1.46484 h -1.60157 q -1.64062,0 -2.22005,-0.52083 -0.57943,-0.52735 -0.57943,-1.94662 v -3.35937 h -1.86197 v -1.46485 h 1.86197 v -2.07031 z"
     style="stroke-linejoin:miter;font-size:13.33333302px;-inkscape-font-specification:'monospace Bold';fill-opacity:1;letter-spacing:0px;word-spacing:0px;stroke:none;stroke-linecap:butt;stroke-width:1px;font-style:normal;fill:#000000;font-family:monospace;stroke-opacity:1;font-stretch:normal;font-variant:normal;font-weight:bold;line-height:125%"
     id="path16994"
     transform="matrix(0.000000,-0.264583,0.264583,0.000000,-95.333984,107.967790)" />
  <path
     d="m -192.77669,490.61198 h 5.27995 v 1.69271 h -3.72396 v 1.80338 q 0.23437,-0.0911 0.5013,-0.13021 0.26693,-0.0456 0.56641,-0.0456 1.44531,0 2.34375,0.91146 0.89843,0.91146 0.89843,2.36979 0,1.52995 -0.97656,2.42188 -0.97005,0.88541 -2.64974,0.88541 -0.625,0 -1.26302,-0.10416 -0.63802,-0.10417 -1.30208,-0.3125 v -1.73177 q 0.54036,0.26692 1.10677,0.40364 0.57291,0.13021 1.14583,0.13021 1.01563,0 1.54297,-0.42969 0.52734,-0.4362 0.52734,-1.26302 0,-0.76172 -0.52734,-1.21745 -0.52083,-0.46224 -1.39323,-0.46224 -0.51432,0 -1.03516,0.13021 -0.51432,0.1237 -1.04166,0.37761 z"
     style="stroke-linejoin:miter;font-size:13.33333302px;-inkscape-font-specification:'monospace Bold';fill-opacity:1;letter-spacing:0px;word-spacing:0px;stroke:none;stroke-linecap:butt;stroke-width:1px;font-style:normal;fill:#000000;font-family:monospace;stroke-opacity:1;font-stretch:normal;font-variant:normal;font-weight:bold;line-height:125%"
     id="path16996"
     transform="matrix(0.000000,-0.264583,0.264583,0.000000,-95.333984,107.967790)" />
  <path
     d="m -176.0319,495.54687 h 4.10807 v 1.89454 h -4.10807 z"
     style="stroke-linejoin:miter;font-size:13.33333302px;-inkscape-font-specification:'monospace Bold';fill-opacity:1;letter-spacing:0px;word-spacing:0px;stroke:none;stroke-linecap:butt;stroke-width:1px;font-style:normal;fill:#000000;font-family:monospace;stroke-opacity:1;font-stretch:normal;font-variant:normal;font-weight:bold;line-height:125%"
     id="path16998"
     transform="matrix(0.000000,-0.264583,0.264583,0.000000,-95.333984,107.967790)" />
  <path
     d="m -158.62956,496.06771 q -1.45183,-0.55339 -1.96615,-1.15886 -0.51432,-0.61198 -0.51432,-1.64062 0,-1.32162 0.84635,-2.07682 0.84636,-0.75521 2.32422,-0.75521 0.67057,0 1.34115,0.15625 0.67057,0.14974 1.32812,0.44922 v 1.875 q -0.61849,-0.4362 -1.25651,-0.66407 -0.63802,-0.22786 -1.26302,-0.22786 -0.69661,0 -1.06771,0.27995 -0.37109,0.27995 -0.37109,0.80078 0,0.40364 0.26693,0.67057 0.27343,0.26042 1.13281,0.57943 l 0.82682,0.3125 q 1.17188,0.42969 1.72526,1.13932 0.55339,0.70964 0.55339,1.79037 0,1.47135 -0.8724,2.20052 -0.86588,0.72265 -2.6237,0.72265 -0.72265,0 -1.45182,-0.17578 -0.72266,-0.16927 -1.39974,-0.50781 v -1.98568 q 0.76823,0.54688 1.48438,0.8138 0.72265,0.26693 1.42578,0.26693 0.70963,0 1.10026,-0.31901 0.39062,-0.32552 0.39062,-0.90495 0,-0.43619 -0.26041,-0.76172 -0.26042,-0.33203 -0.75521,-0.52083 z"
     style="stroke-linejoin:miter;font-size:13.33333302px;-inkscape-font-specification:'monospace Bold';fill-opacity:1;letter-spacing:0px;word-spacing:0px;stroke:none;stroke-linecap:butt;stroke-width:1px;font-style:normal;fill:#000000;font-family:monospace;stroke-opacity:1;font-stretch:normal;font-variant:normal;font-weight:bold;line-height:125%"
     id="path17000"
     transform="matrix(0.000000,-0.264583,0.264583,0.000000,-95.333984,107.967790)" />
  <path
     d="m -152.49024,493.04036 h 3.77604 v 5.82683 h 2.3698 v 1.46484 h -6.65365 v -1.46484 h 2.3763 v -4.36198 h -1.86849 z m 1.86849,-3.54817 h 1.90755 v 2.22656 h -1.90755 z"
     style="stroke-linejoin:miter;font-size:13.33333302px;-inkscape-font-specification:'monospace Bold';fill-opacity:1;letter-spacing:0px;word-spacing:0px;stroke:none;stroke-linecap:butt;stroke-width:1px;font-style:normal;fill:#000000;font-family:monospace;stroke-opacity:1;font-stretch:normal;font-variant:normal;font-weight:bold;line-height:125%"
     id="path17002"
     transform="matrix(0.000000,-0.264583,0.264583,0.000000,-95.333984,107.967790)" />
  <path
     d="m -138.73372,499.97396 q -0.66407,0.27344 -1.35417,0.41015 -0.6901,0.13672 -1.45833,0.13672 -1.82943,0 -2.79948,-0.97656 -0.96354,-0.98307 -0.96354,-2.82552 0,-1.78385 0.93098,-2.81901 0.93099,-1.03516 2.53907,-1.03516 1.62109,0 2.51302,0.96354 0.89844,0.95704 0.89844,2.70183 v 0.77474 h -4.94141 q 0.007,0.85937 0.50781,1.28255 0.5013,0.42318 1.4974,0.42318 0.65755,0 1.29557,-0.18881 0.63802,-0.1888 1.33464,-0.59895 z m -1.61459,-4.10156 q -0.013,-0.75521 -0.39062,-1.13933 -0.3711,-0.39062 -1.10026,-0.39062 -0.65755,0 -1.04818,0.40364 -0.39062,0.39714 -0.46224,1.13282 z"
     style="stroke-linejoin:miter;font-size:13.33333302px;-inkscape-font-specification:'monospace Bold';fill-opacity:1;letter-spacing:0px;word-spacing:0px;stroke:none;stroke-linecap:butt;stroke-width:1px;font-style:normal;fill:#000000;font-family:monospace;stroke-opacity:1;font-stretch:normal;font-variant:normal;font-weight:bold;line-height:125%"
     id="path17004"
     transform="matrix(0.000000,-0.264583,0.264583,0.000000,-95.333984,107.967790)" />
  <path
     d="m -132.73764,494.07552 v -3.8737 h 1.90105 v 10.13021 h -1.90105 v -1.08073 q -0.30598,0.63151 -0.79427,0.95052 -0.48177,0.31901 -1.13932,0.31901 -1.25,0 -1.9401,-1.0026 -0.69011,-1.00261 -0.69011,-2.82552 0,-1.84896 0.69662,-2.83854 0.70312,-0.98959 1.9987,-0.98959 0.58593,0 1.04817,0.30599 0.46875,0.29948 0.82031,0.90495 z m -2.65625,2.63021 q 0,1.05469 0.35157,1.65364 0.35156,0.59896 0.97005,0.59896 0.61849,0 0.97656,-0.59896 0.35807,-0.59895 0.35807,-1.65364 0,-1.05469 -0.35807,-1.65365 -0.35807,-0.59896 -0.97656,-0.59896 -0.61849,0 -0.97005,0.59896 -0.35157,0.59896 -0.35157,1.65365 z"
     style="stroke-linejoin:miter;font-size:13.33333302px;-inkscape-font-specification:'monospace Bold';fill-opacity:1;letter-spacing:0px;word-spacing:0px;stroke:none;stroke-linecap:butt;stroke-width:1px;font-style:normal;fill:#000000;font-family:monospace;stroke-opacity:1;font-stretch:normal;font-variant:normal;font-weight:bold;line-height:125%"
     id="path17006"
     transform="matrix(0.000000,-0.264583,0.264583,0.000000,-95.333984,107.967790)" />
  <path
     d="m -127.34701,497.29167 v -5.625 h -1.93359 v -1.46485 h 3.84114 v 7.08985 q 0,0.85937 0.26693,1.21744 0.26693,0.35808 0.90495,0.35808 h 1.52344 v 1.46484 h -2.05729 q -1.36068,0 -1.95313,-0.70312 -0.59245,-0.70313 -0.59245,-2.33724 z"
     style="stroke-linejoin:miter;font-size:13.33333302px;-inkscape-font-specification:'monospace Bold';fill-opacity:1;letter-spacing:0px;word-spacing:0px;stroke:none;stroke-linecap:butt;stroke-width:1px;font-style:normal;fill:#000000;font-family:monospace;stroke-opacity:1;font-stretch:normal;font-variant:normal;font-weight:bold;line-height:125%"
     id="path17008"
     transform="matrix(0.000000,-0.264583,0.264583,0.000000,-95.333984,107.967790)" />
  <path
     d="m -114.67123,499.97396 q -0.66406,0.27344 -1.35417,0.41015 -0.6901,0.13672 -1.45833,0.13672 -1.82943,0 -2.79948,-0.97656 -0.96354,-0.98307 -0.96354,-2.82552 0,-1.78385 0.93099,-2.81901 0.93099,-1.03516 2.53906,-1.03516 1.62109,0 2.51302,0.96354 0.89844,0.95704 0.89844,2.70183 v 0.77474 h -4.94141 q 0.007,0.85937 0.50781,1.28255 0.50131,0.42318 1.4974,0.42318 0.65755,0 1.29557,-0.18881 0.63802,-0.1888 1.33464,-0.59895 z m -1.61459,-4.10156 q -0.013,-0.75521 -0.39062,-1.13933 -0.37109,-0.39062 -1.10026,-0.39062 -0.65755,0 -1.04818,0.40364 -0.39062,0.39714 -0.46224,1.13282 z"
     style="stroke-linejoin:miter;font-size:13.33333302px;-inkscape-font-specification:'monospace Bold';fill-opacity:1;letter-spacing:0px;word-spacing:0px;stroke:none;stroke-linecap:butt;stroke-width:1px;font-style:normal;fill:#000000;font-family:monospace;stroke-opacity:1;font-stretch:normal;font-variant:normal;font-weight:bold;line-height:125%"
     id="path17010"
     transform="matrix(0.000000,-0.264583,0.264583,0.000000,-95.333984,107.967790)" />
  <path
     d="m -105.02931,490.61198 h 2.0638 l 2.70834,7.0638 v -7.0638 h 1.692707 v 9.72005 h -2.050777 l -2.72136,-7.0638 v 7.0638 h -1.69271 z"
     style="stroke-linejoin:miter;font-size:13.33333302px;-inkscape-font-specification:'monospace Bold';fill-opacity:1;letter-spacing:0px;word-spacing:0px;stroke:none;stroke-linecap:butt;stroke-width:1px;font-style:normal;fill:#000000;font-family:monospace;stroke-opacity:1;font-stretch:normal;font-variant:normal;font-weight:bold;line-height:125%"
     id="path17012"
     transform="matrix(0.000000,-0.264583,0.264583,0.000000,-95.333984,107.967790)" />
  <path
     d="m -93.772787,494.41406 q -0.683593,0 -1.074218,0.60547 -0.390625,0.59896 -0.390625,1.67318 0,1.07422 0.390625,1.67969 0.390625,0.59895 1.074218,0.59895 0.690105,0 1.08073,-0.59895 0.390625,-0.60547 0.390625,-1.67969 0,-1.07422 -0.390625,-1.67318 -0.390625,-0.60547 -1.08073,-0.60547 z m -3.372395,2.27865 q 0,-1.76432 0.911458,-2.79297 0.917969,-1.03516 2.460937,-1.03516 1.54948,0 2.460938,1.03516 0.917969,1.02865 0.917969,2.79297 0,1.76432 -0.917969,2.79948 -0.911458,1.02864 -2.460938,1.02864 -1.542968,0 -2.460937,-1.02864 -0.911458,-1.03516 -0.911458,-2.79948 z"
     style="stroke-linejoin:miter;font-size:13.33333302px;-inkscape-font-specification:'monospace Bold';fill-opacity:1;letter-spacing:0px;word-spacing:0px;stroke:none;stroke-linecap:butt;stroke-width:1px;font-style:normal;fill:#000000;font-family:monospace;stroke-opacity:1;font-stretch:normal;font-variant:normal;font-weight:bold;line-height:125%"
     id="path17014"
     transform="matrix(0.000000,-0.264583,0.264583,0.000000,-95.333984,107.967790)" />
  <path
     d="m -85.751958,492.36979 -0.904948,3.97787 h 1.816406 z m -1.171875,-1.75781 h 2.35026 l 2.623698,9.72005 h -1.920573 l -0.598958,-2.40234 h -2.571615 l -0.585937,2.40234 h -1.920573 z"
     style="stroke-linejoin:miter;font-size:13.33333302px;-inkscape-font-specification:'monospace Bold';fill-opacity:1;letter-spacing:0px;word-spacing:0px;stroke:none;stroke-linecap:butt;stroke-width:1px;font-style:normal;fill:#000000;font-family:monospace;stroke-opacity:1;font-stretch:normal;font-variant:normal;font-weight:bold;line-height:125%"
     id="path17016"
     transform="matrix(0.000000,-0.264583,0.264583,0.000000,-95.333984,107.967790)" />
  <path
     d="m -77.249359,493.76953 q 0.214844,-0.46224 0.546875,-0.68359 0.332031,-0.22136 0.813802,-0.22136 0.94401,0 1.302083,0.65104 0.364583,0.65105 0.364583,2.70834 v 4.10807 h -1.5625 v -4.68099 q 0,-0.8138 -0.123697,-1.08724 -0.123698,-0.27344 -0.449219,-0.27344 -0.325521,0 -0.455729,0.27995 -0.130209,0.27995 -0.130209,1.08073 v 4.68099 h -1.542968 v -4.68099 q 0,-0.80078 -0.130209,-1.08073 -0.130208,-0.27995 -0.455729,-0.27995 -0.325521,0 -0.449219,0.27344 -0.123698,0.27344 -0.123698,1.08724 v 4.68099 h -1.562499 v -7.29167 h 1.386718 v 0.75521 q 0.162761,-0.42968 0.520834,-0.67708 0.358072,-0.25391 0.800781,-0.25391 0.442708,0 0.807291,0.26693 0.364584,0.26042 0.442709,0.63802 z"
     style="stroke-linejoin:miter;font-size:13.33333302px;-inkscape-font-specification:'monospace Bold';fill-opacity:1;letter-spacing:0px;word-spacing:0px;stroke:none;stroke-linecap:butt;stroke-width:1px;font-style:normal;fill:#000000;font-family:monospace;stroke-opacity:1;font-stretch:normal;font-variant:normal;font-weight:bold;line-height:125%"
     id="path17018"
     transform="matrix(0.000000,-0.264583,0.264583,0.000000,-95.333984,107.967790)" />
  <path
     d="m -70.843099,499.30339 v 3.80208 h -1.901042 v -10.06511 h 1.901042 v 1.09375 q 0.299479,-0.63151 0.78776,-0.95052 0.488282,-0.31901 1.145834,-0.31901 1.25,0 1.940104,1.00261 0.690104,1.0026 0.690104,2.82552 0,1.84896 -0.703125,2.83854 -0.696615,0.98958 -1.992187,0.98958 -0.585938,0 -1.054688,-0.29948 -0.46224,-0.30599 -0.813802,-0.91796 z m 2.65625,-2.6237 q 0,-1.05469 -0.351563,-1.65365 -0.351562,-0.59896 -0.970052,-0.59896 -0.618489,0 -0.976562,0.59896 -0.358073,0.59896 -0.358073,1.65365 0,1.05468 0.358073,1.65364 0.358073,0.59896 0.976562,0.59896 0.61849,0 0.970052,-0.59896 0.351563,-0.59896 0.351563,-1.65364 z"
     style="stroke-linejoin:miter;font-size:13.33333302px;-inkscape-font-specification:'monospace Bold';fill-opacity:1;letter-spacing:0px;word-spacing:0px;stroke:none;stroke-linecap:butt;stroke-width:1px;font-style:normal;fill:#000000;font-family:monospace;stroke-opacity:1;font-stretch:normal;font-variant:normal;font-weight:bold;line-height:125%"
     id="path17020"
     transform="matrix(0.000000,-0.264583,0.264583,0.000000,-95.333984,107.967790)" />
  <path
     id="path294"
     d="M 41.977598,253.45569 H 178.65481 V 43.806473 H 41.977598 Z m 0,0"
     style="fill:none;stroke:#ec008c;stroke-width:0.35078275;stroke-linecap:butt;stroke-linejoin:miter;stroke-miterlimit:10;stroke-opacity:1" />
  <path
     transform="matrix(1.000000,0.000000,0.000000,1.000000,0.095970,0.000000)"
     id="path561-9-1-81"
     style="stroke:#ea0088;clip-rule:evenodd;stroke-opacity:1;fill-rule:nonzero;stroke-miterlimit:10;stroke-width:0.35203058;fill:none"
     d="m 58.963121,52.271592 c 0.55073,0 0.997646,-0.446888 0.997646,-0.998015 0,-0.55148 -0.446916,-0.998369 -0.997646,-0.998369 -0.550727,0 -0.997294,0.446889 -0.997294,0.998369 0,0.551127 0.446567,0.998015 0.997294,0.998015" />
  <path
     transform="matrix(1.000000,0.000000,0.000000,1.000000,0.095970,0.000000)"
     id="path565-7-5-39"
     style="stroke:#000000;clip-rule:evenodd;stroke-opacity:1;fill-rule:nonzero;stroke-miterlimit:10;stroke-width:0.23753151px;fill:none"
     d="m 57.929892,51.273682 h 2.111454" />
  <path
     transform="matrix(1.000000,0.000000,0.000000,1.000000,0.095970,0.000000)"
     id="path569-2-4-8"
     style="stroke:#000000;clip-rule:evenodd;stroke-opacity:1;fill-rule:nonzero;stroke-miterlimit:10;stroke-width:0.23753138px;fill:none"
     d="m 58.963605,52.315527 v -2.11298" />
  <path
     transform="matrix(1.000000,0.000000,0.000000,1.000000,0.095970,0.000000)"
     id="path561-9-1-81-2"
     style="stroke:#ea0088;clip-rule:evenodd;stroke-opacity:1;fill-rule:nonzero;stroke-miterlimit:10;stroke-width:0.35203058;fill:none"
     d="m 58.963055,246.93309 c 0.550728,0 0.997646,-0.44688 0.997646,-0.99801 0,-0.55148 -0.446918,-0.99837 -0.997646,-0.99837 -0.550727,0 -0.997291,0.44689 -0.997291,0.99837 0,0.55113 0.446564,0.99801 0.997291,0.99801" />
  <path
     transform="matrix(1.000000,0.000000,0.000000,1.000000,0.095970,0.000000)"
     id="path565-7-5-39-6"
     style="stroke:#000000;clip-rule:evenodd;stroke-opacity:1;fill-rule:nonzero;stroke-miterlimit:10;stroke-width:0.23753151px;fill:none"
     d="m 57.929825,245.93518 h 2.111452" />
  <path
     transform="matrix(1.000000,0.000000,0.000000,1.000000,0.095970,0.000000)"
     id="path569-2-4-8-1"
     style="stroke:#000000;clip-rule:evenodd;stroke-opacity:1;fill-rule:nonzero;stroke-miterlimit:10;stroke-width:0.23753138px;fill:none"
     d="m 58.963539,246.97703 v -2.11298" />
  <path
     transform="matrix(1.000000,0.000000,0.000000,1.000000,10.063970,-0.000001)"
     id="path561-9-1-81-0"
     style="stroke:#ea0088;clip-rule:evenodd;stroke-opacity:1;fill-rule:nonzero;stroke-miterlimit:10;stroke-width:0.35203058;fill:none"
     d="m 58.963121,52.271592 c 0.55073,0 0.997646,-0.446888 0.997646,-0.998015 0,-0.55148 -0.446916,-0.998369 -0.997646,-0.998369 -0.550727,0 -0.997294,0.446889 -0.997294,0.998369 0,0.551127 0.446567,0.998015 0.997294,0.998015" />
  <path
     transform="matrix(1.000000,0.000000,0.000000,1.000000,10.063970,-0.000001)"
     id="path565-7-5-39-9"
     style="stroke:#000000;clip-rule:evenodd;stroke-opacity:1;fill-rule:nonzero;stroke-miterlimit:10;stroke-width:0.23753151px;fill:none"
     d="m 57.929892,51.273682 h 2.111454" />
  <path
     transform="matrix(1.000000,0.000000,0.000000,1.000000,10.063970,-0.000001)"
     id="path569-2-4-8-17"
     style="stroke:#000000;clip-rule:evenodd;stroke-opacity:1;fill-rule:nonzero;stroke-miterlimit:10;stroke-width:0.23753138px;fill:none"
     d="m 58.963605,52.315527 v -2.11298" />
  <path
     transform="matrix(1.000000,0.000000,0.000000,1.000000,10.063970,-0.000001)"
     id="path561-9-1-81-2-7"
     style="stroke:#ea0088;clip-rule:evenodd;stroke-opacity:1;fill-rule:nonzero;stroke-miterlimit:10;stroke-width:0.35203058;fill:none"
     d="m 58.963055,246.93309 c 0.550728,0 0.997646,-0.44688 0.997646,-0.99801 0,-0.55148 -0.446918,-0.99837 -0.997646,-0.99837 -0.550727,0 -0.997291,0.44689 -0.997291,0.99837 0,0.55113 0.446564,0.99801 0.997291,0.99801" />
  <path
     transform="matrix(1.000000,0.000000,0.000000,1.000000,10.063970,-0.000001)"
     id="path565-7-5-39-6-1"
     style="stroke:#000000;clip-rule:evenodd;stroke-opacity:1;fill-rule:nonzero;stroke-miterlimit:10;stroke-width:0.23753151px;fill:none"
     d="m 57.929825,245.93518 h 2.111452" />
  <path
     transform="matrix(1.000000,0.000000,0.000000,1.000000,10.063970,-0.000001)"
     id="path569-2-4-8-1-1"
     style="stroke:#000000;clip-rule:evenodd;stroke-opacity:1;fill-rule:nonzero;stroke-miterlimit:10;stroke-width:0.23753138px;fill:none"
     d="m 58.963539,246.97703 v -2.11298" />
  <path
     transform="matrix(1.000000,0.000000,0.000000,1.000000,89.802765,0.000000)"
     id="path561-9-1-81-7"
     style="stroke:#ea0088;clip-rule:evenodd;stroke-opacity:1;fill-rule:nonzero;stroke-miterlimit:10;stroke-width:0.35203058;fill:none"
     d="m 58.963121,52.271592 c 0.55073,0 0.997646,-0.446888 0.997646,-0.998015 0,-0.55148 -0.446916,-0.998369 -0.997646,-0.998369 -0.550727,0 -0.997294,0.446889 -0.997294,0.998369 0,0.551127 0.446567,0.998015 0.997294,0.998015" />
  <path
     transform="matrix(1.000000,0.000000,0.000000,1.000000,89.802765,0.000000)"
     id="path565-7-5-39-67"
     style="stroke:#000000;clip-rule:evenodd;stroke-opacity:1;fill-rule:nonzero;stroke-miterlimit:10;stroke-width:0.23753151px;fill:none"
     d="m 57.929892,51.273682 h 2.111454" />
  <path
     transform="matrix(1.000000,0.000000,0.000000,1.000000,89.802765,0.000000)"
     id="path569-2-4-8-3"
     style="stroke:#000000;clip-rule:evenodd;stroke-opacity:1;fill-rule:nonzero;stroke-miterlimit:10;stroke-width:0.23753138px;fill:none"
     d="m 58.963605,52.315527 v -2.11298" />
  <path
     transform="matrix(1.000000,0.000000,0.000000,1.000000,89.802765,0.000000)"
     id="path561-9-1-81-2-6"
     style="stroke:#ea0088;clip-rule:evenodd;stroke-opacity:1;fill-rule:nonzero;stroke-miterlimit:10;stroke-width:0.35203058;fill:none"
     d="m 58.963055,246.93309 c 0.550728,0 0.997646,-0.44688 0.997646,-0.99801 0,-0.55148 -0.446918,-0.99837 -0.997646,-0.99837 -0.550727,0 -0.997291,0.44689 -0.997291,0.99837 0,0.55113 0.446564,0.99801 0.997291,0.99801" />
  <path
     transform="matrix(1.000000,0.000000,0.000000,1.000000,89.802765,0.000000)"
     id="path565-7-5-39-6-5"
     style="stroke:#000000;clip-rule:evenodd;stroke-opacity:1;fill-rule:nonzero;stroke-miterlimit:10;stroke-width:0.23753151px;fill:none"
     d="m 57.929825,245.93518 h 2.111452" />
  <path
     transform="matrix(1.000000,0.000000,0.000000,1.000000,89.802765,0.000000)"
     id="path569-2-4-8-1-6"
     style="stroke:#000000;clip-rule:evenodd;stroke-opacity:1;fill-rule:nonzero;stroke-miterlimit:10;stroke-width:0.23753138px;fill:none"
     d="m 58.963539,246.97703 v -2.11298" />
  <path
     transform="matrix(1.000000,0.000000,0.000000,1.000000,99.770765,-0.000001)"
     id="path561-9-1-81-0-9"
     style="stroke:#ea0088;clip-rule:evenodd;stroke-opacity:1;fill-rule:nonzero;stroke-miterlimit:10;stroke-width:0.35203058;fill:none"
     d="m 58.963121,52.271592 c 0.55073,0 0.997646,-0.446888 0.997646,-0.998015 0,-0.55148 -0.446916,-0.998369 -0.997646,-0.998369 -0.550727,0 -0.997294,0.446889 -0.997294,0.998369 0,0.551127 0.446567,0.998015 0.997294,0.998015" />
  <path
     transform="matrix(1.000000,0.000000,0.000000,1.000000,99.770765,-0.000001)"
     id="path565-7-5-39-9-4"
     style="stroke:#000000;clip-rule:evenodd;stroke-opacity:1;fill-rule:nonzero;stroke-miterlimit:10;stroke-width:0.23753151px;fill:none"
     d="m 57.929892,51.273682 h 2.111454" />
  <path
     transform="matrix(1.000000,0.000000,0.000000,1.000000,99.770765,-0.000001)"
     id="path569-2-4-8-17-8"
     style="stroke:#000000;clip-rule:evenodd;stroke-opacity:1;fill-rule:nonzero;stroke-miterlimit:10;stroke-width:0.23753138px;fill:none"
     d="m 58.963605,52.315527 v -2.11298" />
  <path
     transform="matrix(1.000000,0.000000,0.000000,1.000000,99.770765,-0.000001)"
     id="path561-9-1-81-2-7-1"
     style="stroke:#ea0088;clip-rule:evenodd;stroke-opacity:1;fill-rule:nonzero;stroke-miterlimit:10;stroke-width:0.35203058;fill:none"
     d="m 58.963055,246.93309 c 0.550728,0 0.997646,-0.44688 0.997646,-0.99801 0,-0.55148 -0.446918,-0.99837 -0.997646,-0.99837 -0.550727,0 -0.997291,0.44689 -0.997291,0.99837 0,0.55113 0.446564,0.99801 0.997291,0.99801" />
  <path
     transform="matrix(1.000000,0.000000,0.000000,1.000000,99.770765,-0.000001)"
     id="path565-7-5-39-6-1-2"
     style="stroke:#000000;clip-rule:evenodd;stroke-opacity:1;fill-rule:nonzero;stroke-miterlimit:10;stroke-width:0.23753151px;fill:none"
     d="m 57.929825,245.93518 h 2.111452" />
  <path
     transform="matrix(1.000000,0.000000,0.000000,1.000000,99.770765,-0.000001)"
     id="path569-2-4-8-1-1-9"
     style="stroke:#000000;clip-rule:evenodd;stroke-opacity:1;fill-rule:nonzero;stroke-miterlimit:10;stroke-width:0.23753138px;fill:none"
     d="m 58.963539,246.97703 v -2.11298" />
  <path
     id="path1025-5"
     d="m 55.950948,146.75718 v 2.82215"
     style="stroke-linejoin:miter;stroke:#211e1e;stroke-linecap:butt;stroke-miterlimit:10;stroke-opacity:1;stroke-width:0.08800907;fill:none"
     transform="matrix(1.000000,0.000000,0.000000,1.000000,51.903192,-4.998386)" />
  <path
     id="path1027-6"
     d="m 57.362358,148.16757 h -2.82282"
     style="stroke-linejoin:miter;stroke:#211e1e;stroke-linecap:butt;stroke-miterlimit:10;stroke-opacity:1;stroke-width:0.08800907;fill:none"
     transform="matrix(1.000000,0.000000,0.000000,1.000000,51.903192,-4.998386)" />
  <path
     id="path1025"
     d="m 67.630569,156.32334 v 2.82216"
     style="stroke-linejoin:miter;stroke:#211e1e;stroke-linecap:butt;stroke-miterlimit:10;stroke-opacity:1;stroke-width:0.08800907;fill:none"
     transform="matrix(1.000000,0.000000,0.000000,1.000000,40.223571,36.350838)" />
  <path
     id="path1027"
     d="m 69.041979,157.73373 h -2.82282"
     style="stroke-linejoin:miter;stroke:#211e1e;stroke-linecap:butt;stroke-miterlimit:10;stroke-opacity:1;stroke-width:0.08800907;fill:none"
     transform="matrix(1.000000,0.000000,0.000000,1.000000,40.223571,36.350838)" />
  <path
     id="path296"
     style="fill:none;stroke:#eb008a;stroke-width:0.351999;stroke-linecap:butt;stroke-linejoin:miter;stroke-miterlimit:10;stroke-dasharray:none;stroke-opacity:1"
     d="m 94.885165,118.21241 v 2.03192 l -9.976652,9.94771 H 83.41403 82.913801 82.41409 v 25.95552 h 0.499711 0.500229 1.494483 l 9.976652,10.01955 v 4.9413 l -9.976652,9.94823 v 0.0506 H 83.41403 82.913801 82.41409 v 25.95552 h 0.499711 v 5.3e-4 h 2.045872 l 9.925492,9.96838 v 2.01125 h 25.937955 v -2.01125 l 9.92549,-9.96838 h 2.04587 v -5.3e-4 h 0.50023 v -25.95552 h -0.50023 -0.49971 -1.495 v -0.0506 l -9.97665,-9.94823 v -4.9413 l 9.97665,-10.01955 h 1.495 0.49971 0.50023 v -25.95552 h -0.50023 -0.49971 -1.495 l -9.97665,-9.94771 v -2.03192 z" />
</svg>
