<?xml version="1.0" encoding="UTF-8" standalone="no"?>
<svg
   xmlns:dc="http://purl.org/dc/elements/1.1/"
   xmlns:cc="http://creativecommons.org/ns#"
   xmlns:rdf="http://www.w3.org/1999/02/22-rdf-syntax-ns#"
   xmlns:svg="http://www.w3.org/2000/svg"
   xmlns="http://www.w3.org/2000/svg"
   id="svg6150"
   version="1.1"
   viewBox="0 0 210 297"
   height="297mm"
   width="210mm">
  <defs
     id="defs6144" />
  <metadata
     id="metadata6147">
    <rdf:RDF>
      <cc:Work
         rdf:about="">
        <dc:format>image/svg+xml</dc:format>
        <dc:type
           rdf:resource="http://purl.org/dc/dcmitype/StillImage" />
        <dc:title></dc:title>
      </cc:Work>
    </rdf:RDF>
  </metadata>
  <g
     id="layer1">
    <path
       id="path96"
       d="M 41.059276,253.48472 H 178.73475 V 43.836791 H 41.059276 Z m 0,0"
       style="fill:none;stroke:#ec008c;stroke-width:0.35206211;stroke-linecap:butt;stroke-linejoin:miter;stroke-miterlimit:10;stroke-opacity:1" />
    <path
       id="path98"
       d="M 41.05982,253.48493 H 30.943355 V 43.83587 H 41.05982"
       style="fill:none;stroke:#211e1e;stroke-width:0.06470991;stroke-linecap:butt;stroke-linejoin:miter;stroke-miterlimit:10;stroke-opacity:1" />
    <g
       transform="matrix(0,-0.09318241,0.09311716,0,36.869514,174.24838)"
       style="fill:#211e1e;fill-opacity:1"
       id="use100">
      <path
         id="path7119"
         d="M 1.578125,-0.171875 C 1.554688,-0.0234375 1.515625,0.0703125 1.453125,0.125 1.398438,0.1875 1.3125,0.21875 1.1875,0.21875 1.050781,0.21875 0.945312,0.175781 0.875,0.09375 0.8125,0.0195312 0.773438,-0.101562 0.765625,-0.28125 l -0.0625,-1.140625 v -0.09375 c 0,-0.15625 0.023437,-0.265625 0.078125,-0.328125 0.0625,-0.0625 0.164062,-0.09375 0.3125,-0.09375 0.1875,0 0.328125,0.140625 0.421875,0.421875 0.03125,0.136719 0.066406,0.242187 0.109375,0.3125 0.113281,0.230469 0.289062,0.40625 0.53125,0.53125 0.25,0.125 0.546875,0.1875 0.890625,0.1875 0.414063,0 0.753906,-0.097656 1.015625,-0.296875 0.257812,-0.195312 0.390625,-0.453125 0.390625,-0.765625 0,-0.257813 -0.085937,-0.46875 -0.25,-0.625 -0.15625,-0.15625 -0.386719,-0.253906 -0.6875,-0.296875 L 2.78125,-2.5625 C 2.113281,-2.65625 1.625,-2.832031 1.3125,-3.09375 1,-3.351562 0.84375,-3.722656 0.84375,-4.203125 c 0,-0.5 0.203125,-0.914063 0.609375,-1.25 0.414063,-0.34375 0.9375,-0.515625 1.5625,-0.515625 0.175781,0 0.363281,0.027344 0.5625,0.078125 C 3.773438,-5.847656 4,-5.773438 4.25,-5.671875 c 0.00781,-0.09375 0.035156,-0.15625 0.078125,-0.1875 0.039063,-0.039063 0.117187,-0.0625 0.234375,-0.0625 0.144531,0 0.242188,0.023437 0.296875,0.0625 0.050781,0.042969 0.085937,0.148437 0.109375,0.3125 l 0.0625,1.015625 v 0.046875 c 0,0.117187 -0.039062,0.203125 -0.109375,0.265625 C 4.859375,-4.15625 4.769531,-4.125 4.65625,-4.125 4.488281,-4.125 4.359375,-4.242188 4.265625,-4.484375 4.210938,-4.617188 4.164062,-4.722656 4.125,-4.796875 4.007812,-4.953125 3.851562,-5.070312 3.65625,-5.15625 3.457031,-5.25 3.226562,-5.296875 2.96875,-5.296875 2.570312,-5.296875 2.25,-5.195312 2,-5 c -0.242188,0.1875 -0.359375,0.445312 -0.359375,0.765625 0,0.242187 0.085937,0.433594 0.265625,0.578125 0.1875,0.148438 0.472656,0.246094 0.859375,0.296875 l 0.78125,0.09375 c 0.5625,0.074219 0.984375,0.25 1.265625,0.53125 0.289062,0.273437 0.4375,0.636719 0.4375,1.09375 0,0.542969 -0.203125,0.980469 -0.609375,1.3125 -0.40625,0.33203125 -0.949219,0.5 -1.625,0.5 -0.242187,0 -0.476563,-0.03125 -0.703125,-0.09375 -0.230469,-0.0546875 -0.476562,-0.1328125 -0.734375,-0.25 z m 0,0"
         style="stroke:none" />
    </g>
    <g
       transform="matrix(0,-0.09318241,0.09311716,0,36.869514,172.13492)"
       style="fill:#211e1e;fill-opacity:1"
       id="use104">
      <path
         id="path7091"
         d="m 1.15625,-0.6875 v -5 H 1.0625 c -0.21875,0 -0.371094,-0.023438 -0.453125,-0.078125 -0.085937,-0.050781 -0.125,-0.144531 -0.125,-0.28125 0,-0.113281 0.03125,-0.195313 0.09375,-0.25 C 0.648438,-6.359375 0.75,-6.390625 0.875,-6.390625 h 0.75 c 0.082031,0 0.148438,0.023437 0.203125,0.0625 C 1.878906,-6.296875 1.90625,-6.25 1.90625,-6.1875 v 2.203125 C 2.132812,-4.203125 2.363281,-4.363281 2.59375,-4.46875 2.832031,-4.570312 3.078125,-4.625 3.328125,-4.625 c 0.488281,0 0.875,0.152344 1.15625,0.453125 0.28125,0.304687 0.421875,0.726563 0.421875,1.265625 v 2.21875 h 0.234375 c 0.164063,0 0.28125,0.027344 0.34375,0.078125 0.070313,0.054687 0.109375,0.136719 0.109375,0.25 0,0.125 -0.03125,0.21875 -0.09375,0.28125 C 5.4375,-0.0234375 5.335938,0 5.203125,0 H 3.90625 c -0.148438,0 -0.25,-0.0234375 -0.3125,-0.078125 -0.054688,-0.050781 -0.078125,-0.144531 -0.078125,-0.28125 0,-0.125 0.03125,-0.207031 0.09375,-0.25 C 3.679688,-0.660156 3.8125,-0.6875 4,-0.6875 h 0.171875 v -2.03125 c 0,-0.382812 -0.089844,-0.675781 -0.265625,-0.875 -0.167969,-0.195312 -0.417969,-0.296875 -0.75,-0.296875 -0.335938,0 -0.625,0.117187 -0.875,0.34375 -0.25,0.21875 -0.375,0.496094 -0.375,0.828125 v 2.03125 h 0.171875 c 0.1875,0 0.3125,0.027344 0.375,0.078125 0.070313,0.042969 0.109375,0.125 0.109375,0.25 0,0.136719 -0.027344,0.230469 -0.078125,0.28125 C 2.429688,-0.0234375 2.328125,0 2.171875,0 H 0.875 C 0.75,0 0.65625,-0.0234375 0.59375,-0.078125 0.53125,-0.140625 0.5,-0.234375 0.5,-0.359375 c 0,-0.125 0.035156,-0.207031 0.109375,-0.25 C 0.691406,-0.660156 0.84375,-0.6875 1.0625,-0.6875 Z m 0,0"
         style="stroke:none" />
    </g>
    <g
       transform="matrix(0,-0.09318241,0.09311716,0,36.869514,170.02145)"
       style="fill:#211e1e;fill-opacity:1"
       id="use108">
      <path
         id="path7103"
         d="m 1.34375,-2.046875 c 0.03125,0.46875 0.191406,0.835937 0.484375,1.09375 0.289063,0.25 0.6875,0.375 1.1875,0.375 0.382813,0 0.800781,-0.097656 1.25,-0.296875 0.445313,-0.207031 0.71875,-0.3125 0.8125,-0.3125 0.09375,0 0.171875,0.03125 0.234375,0.09375 0.070312,0.0625 0.109375,0.140625 0.109375,0.234375 0,0.09375 -0.039063,0.183594 -0.109375,0.265625 -0.0625,0.074219 -0.171875,0.148438 -0.328125,0.21875 -0.324219,0.167969 -0.65625,0.2929688 -1,0.375 -0.34375,0.0820312 -0.6875,0.125 -1.03125,0.125 -0.742187,0 -1.335937,-0.2109375 -1.78125,-0.640625 C 0.722656,-0.941406 0.5,-1.507812 0.5,-2.21875 c 0,-0.71875 0.234375,-1.300781 0.703125,-1.75 0.476563,-0.445312 1.09375,-0.671875 1.84375,-0.671875 0.6875,0 1.253906,0.210937 1.703125,0.625 0.457031,0.417969 0.6875,0.921875 0.6875,1.515625 0,0.179688 -0.042969,0.296875 -0.125,0.359375 -0.074219,0.0625 -0.277344,0.09375 -0.609375,0.09375 z M 1.375,-2.6875 H 4.546875 C 4.503906,-3.070312 4.34375,-3.378906 4.0625,-3.609375 3.789062,-3.847656 3.453125,-3.96875 3.046875,-3.96875 c -0.429687,0 -0.792969,0.117188 -1.09375,0.34375 C 1.660156,-3.394531 1.46875,-3.082031 1.375,-2.6875 Z m 0,0"
         style="stroke:none" />
    </g>
    <g
       transform="matrix(0,-0.09318241,0.09311716,0,36.869514,167.90799)"
       style="fill:#211e1e;fill-opacity:1"
       id="use112">
      <path
         id="path7107"
         d="m 1.34375,-2.046875 c 0.03125,0.46875 0.191406,0.835937 0.484375,1.09375 0.289063,0.25 0.6875,0.375 1.1875,0.375 0.382813,0 0.800781,-0.097656 1.25,-0.296875 0.445313,-0.207031 0.71875,-0.3125 0.8125,-0.3125 0.09375,0 0.171875,0.03125 0.234375,0.09375 0.070312,0.0625 0.109375,0.140625 0.109375,0.234375 0,0.09375 -0.039063,0.183594 -0.109375,0.265625 -0.0625,0.074219 -0.171875,0.148438 -0.328125,0.21875 -0.324219,0.167969 -0.65625,0.2929688 -1,0.375 -0.34375,0.0820312 -0.6875,0.125 -1.03125,0.125 -0.742187,0 -1.335937,-0.2109375 -1.78125,-0.640625 C 0.722656,-0.941406 0.5,-1.507812 0.5,-2.21875 c 0,-0.71875 0.234375,-1.300781 0.703125,-1.75 0.476563,-0.445312 1.09375,-0.671875 1.84375,-0.671875 0.6875,0 1.253906,0.210937 1.703125,0.625 0.457031,0.417969 0.6875,0.921875 0.6875,1.515625 0,0.179688 -0.042969,0.296875 -0.125,0.359375 -0.074219,0.0625 -0.277344,0.09375 -0.609375,0.09375 z M 1.375,-2.6875 H 4.546875 C 4.503906,-3.070312 4.34375,-3.378906 4.0625,-3.609375 3.789062,-3.847656 3.453125,-3.96875 3.046875,-3.96875 c -0.429687,0 -0.792969,0.117188 -1.09375,0.34375 C 1.660156,-3.394531 1.46875,-3.082031 1.375,-2.6875 Z m 0,0"
         style="stroke:none" />
    </g>
    <g
       transform="matrix(0,-0.09318241,0.09311716,0,36.869514,165.79452)"
       style="fill:#211e1e;fill-opacity:1"
       id="use116">
      <path
         id="path7135"
         d="m 4.328125,-4.234375 c 0.164063,0 0.285156,0.027344 0.359375,0.078125 0.070312,0.054688 0.109375,0.140625 0.109375,0.265625 0,0.117187 -0.039063,0.203125 -0.109375,0.265625 -0.074219,0.054688 -0.179688,0.078125 -0.3125,0.078125 H 2.40625 v 1.625 c 0,0.53125 0.066406,0.886719 0.203125,1.0625 0.132813,0.167969 0.375,0.25 0.71875,0.25 0.289063,0 0.640625,-0.082031 1.046875,-0.25 C 4.789062,-1.035156 5.050781,-1.125 5.15625,-1.125 c 0.082031,0 0.15625,0.03125 0.21875,0.09375 0.070312,0.0625 0.109375,0.140625 0.109375,0.234375 0,0.117187 -0.042969,0.214844 -0.125,0.296875 -0.085937,0.074219 -0.21875,0.148438 -0.40625,0.21875 C 4.628906,-0.15625 4.335938,-0.0625 4.078125,0 3.828125,0.0625 3.59375,0.09375 3.375,0.09375 c -0.386719,0 -0.710938,-0.0625 -0.96875,-0.1875 -0.261719,-0.125 -0.453125,-0.304688 -0.578125,-0.546875 -0.0625,-0.113281 -0.109375,-0.25 -0.140625,-0.40625 -0.023438,-0.15625 -0.03125,-0.394531 -0.03125,-0.71875 v -1.78125 H 0.828125 c -0.148437,0 -0.25,-0.023437 -0.3125,-0.078125 C 0.460938,-3.6875 0.4375,-3.773438 0.4375,-3.890625 c 0,-0.132813 0.039062,-0.222656 0.125,-0.265625 0.082031,-0.050781 0.257812,-0.078125 0.53125,-0.078125 h 0.5625 V -5.5 c 0,-0.132812 0.023438,-0.234375 0.078125,-0.296875 0.0625,-0.070313 0.15625,-0.109375 0.28125,-0.109375 0.144531,0 0.242187,0.042969 0.296875,0.125 0.0625,0.074219 0.09375,0.257812 0.09375,0.546875 v 1 z m 0,0"
         style="stroke:none" />
    </g>
    <g
       transform="matrix(0,-0.09318241,0.09311716,0,36.869514,161.56759)"
       style="fill:#211e1e;fill-opacity:1"
       id="use120">
      <path
         id="path7099"
         d="m 1.90625,-3.8125 c 0.207031,-0.082031 0.398438,-0.140625 0.578125,-0.171875 0.1875,-0.039063 0.363281,-0.0625 0.53125,-0.0625 0.570313,0 1.046875,0.199219 1.421875,0.59375 0.382812,0.398437 0.578125,0.886719 0.578125,1.46875 0,0.625 -0.214844,1.140625 -0.640625,1.546875 -0.417969,0.3984375 -0.953125,0.59375 -1.609375,0.59375 -0.542969,0 -1,-0.0742188 -1.375,-0.21875 C 1.023438,-0.207031 0.84375,-0.382812 0.84375,-0.59375 c 0,-0.09375 0.03125,-0.171875 0.09375,-0.234375 0.070312,-0.0625 0.15625,-0.09375 0.25,-0.09375 0.03125,0 0.21875,0.0625 0.5625,0.1875 0.351562,0.125 0.675781,0.1875 0.96875,0.1875 0.4375,0 0.789062,-0.128906 1.0625,-0.390625 0.269531,-0.269531 0.40625,-0.609375 0.40625,-1.015625 0,-0.40625 -0.132812,-0.742187 -0.390625,-1.015625 C 3.546875,-3.238281 3.222656,-3.375 2.828125,-3.375 2.535156,-3.375 2.25,-3.300781 1.96875,-3.15625 1.6875,-3.007812 1.515625,-2.9375 1.453125,-2.9375 1.359375,-2.9375 1.289062,-2.96875 1.25,-3.03125 1.207031,-3.101562 1.1875,-3.234375 1.1875,-3.421875 v -2.4375 c 0,-0.101563 0.03125,-0.175781 0.09375,-0.21875 0.070312,-0.050781 0.191406,-0.078125 0.359375,-0.078125 h 2.46875 c 0.15625,0 0.269531,0.03125 0.34375,0.09375 0.082031,0.0625 0.125,0.15625 0.125,0.28125 0,0.125 -0.042969,0.21875 -0.125,0.28125 -0.074219,0.0625 -0.1875,0.09375 -0.34375,0.09375 H 1.90625 Z m 0,0"
         style="stroke:none" />
    </g>
    <g
       transform="matrix(0,-0.09318241,0.09311716,0,36.869514,157.34067)"
       style="fill:#211e1e;fill-opacity:1"
       id="use124">
      <path
         id="path7111"
         d="m 0.96875,-1.78125 c -0.074219,0 -0.132812,-0.019531 -0.171875,-0.0625 C 0.765625,-1.882812 0.75,-1.941406 0.75,-2.015625 V -2.53125 c 0,-0.0625 0.015625,-0.109375 0.046875,-0.140625 0.039063,-0.039063 0.097656,-0.0625 0.171875,-0.0625 h 4.046875 c 0.070313,0 0.128906,0.023437 0.171875,0.0625 0.039062,0.03125 0.0625,0.078125 0.0625,0.140625 v 0.515625 c 0,0.0625 -0.027344,0.121094 -0.078125,0.171875 -0.042969,0.042969 -0.09375,0.0625 -0.15625,0.0625 z m 0,0"
         style="stroke:none" />
    </g>
    <g
       transform="matrix(0,-0.09318241,0.09311716,0,36.869514,153.11373)"
       style="fill:#211e1e;fill-opacity:1"
       id="use128">
      <path
         id="path7115"
         d="m 0.578125,-5.09375 h -0.0625 c -0.15625,0 -0.273437,-0.023438 -0.34375,-0.078125 C 0.0976562,-5.222656 0.0625,-5.3125 0.0625,-5.4375 c 0,-0.113281 0.03125,-0.203125 0.09375,-0.265625 0.0625,-0.0625 0.144531,-0.09375 0.25,-0.09375 h 1.484375 c 0.1875,0 0.3125,0.027344 0.375,0.078125 0.070313,0.054688 0.109375,0.148438 0.109375,0.28125 0,0.117188 -0.039062,0.203125 -0.109375,0.265625 -0.074219,0.054687 -0.1875,0.078125 -0.34375,0.078125 h -0.53125 l 1.65625,4.265625 1.625,-4.265625 h -0.65625 c -0.148437,0 -0.261719,-0.023438 -0.34375,-0.078125 C 3.597656,-5.234375 3.5625,-5.320312 3.5625,-5.4375 c 0,-0.132812 0.035156,-0.226562 0.109375,-0.28125 C 3.742188,-5.769531 3.875,-5.796875 4.0625,-5.796875 h 1.53125 c 0.101562,0 0.179688,0.03125 0.234375,0.09375 0.0625,0.0625 0.09375,0.152344 0.09375,0.265625 0,0.125 -0.039063,0.214844 -0.109375,0.265625 C 5.75,-5.117188 5.632812,-5.09375 5.46875,-5.09375 h -0.0625 l -1.75,4.609375 C 3.550781,-0.242188 3.46875,-0.09375 3.40625,-0.03125 3.351562,0.03125 3.28125,0.0625 3.1875,0.0625 H 2.90625 c -0.210938,0 -0.382812,-0.171875 -0.515625,-0.515625 L 2.375,-0.484375 Z m 0,0"
         style="stroke:none" />
    </g>
    <g
       transform="matrix(0,-0.09318241,0.09311716,0,36.869514,151.00027)"
       style="fill:#211e1e;fill-opacity:1"
       id="use132">
      <path
         id="path7131"
         d="m 2.546875,-5.921875 c 0,-0.351563 0.03125,-0.570313 0.09375,-0.65625 0.0625,-0.09375 0.195313,-0.140625 0.40625,-0.140625 0.207031,0 0.34375,0.042969 0.40625,0.125 0.0625,0.074219 0.09375,0.25 0.09375,0.53125 0,0.28125 -0.03125,0.460938 -0.09375,0.53125 -0.054687,0.0625 -0.1875,0.09375 -0.40625,0.09375 -0.210937,0 -0.34375,-0.03125 -0.40625,-0.09375 -0.0625,-0.0625 -0.09375,-0.191406 -0.09375,-0.390625 z m 0.90625,5.234375 h 1.5625 c 0.125,0 0.21875,0.027344 0.28125,0.078125 0.0625,0.054687 0.09375,0.136719 0.09375,0.25 0,0.136719 -0.03125,0.230469 -0.09375,0.28125 C 5.242188,-0.0234375 5.140625,0 4.984375,0 H 1.203125 C 1.066406,0 0.96875,-0.0234375 0.90625,-0.078125 c -0.0625,-0.0625 -0.09375,-0.15625 -0.09375,-0.28125 0,-0.101563 0.03125,-0.179687 0.09375,-0.234375 0.070312,-0.0625 0.175781,-0.09375 0.3125,-0.09375 h 1.484375 v -3.125 h -0.9375 c -0.136719,0 -0.242187,-0.03125 -0.3125,-0.09375 -0.074219,-0.0625 -0.109375,-0.148438 -0.109375,-0.265625 0,-0.113281 0.03125,-0.195313 0.09375,-0.25 0.070312,-0.0625 0.171875,-0.09375 0.296875,-0.09375 h 1.4375 c 0.082031,0 0.148437,0.023437 0.203125,0.0625 0.050781,0.03125 0.078125,0.078125 0.078125,0.140625 z m 0,0"
         style="stroke:none" />
    </g>
    <g
       transform="matrix(0,-0.09318241,0.09311716,0,36.869514,148.88681)"
       style="fill:#211e1e;fill-opacity:1"
       id="use136">
      <path
         id="path7095"
         d="M 0.875,-0.359375 V -1.21875 c 0,-0.144531 0.023438,-0.25 0.078125,-0.3125 C 1.003906,-1.59375 1.09375,-1.625 1.21875,-1.625 c 0.125,0 0.226562,0.09375 0.3125,0.28125 0.050781,0.105469 0.097656,0.1875 0.140625,0.25 0.132813,0.179688 0.332031,0.320312 0.59375,0.421875 0.269531,0.105469 0.566406,0.15625 0.890625,0.15625 0.34375,0 0.617188,-0.066406 0.828125,-0.203125 0.207031,-0.144531 0.3125,-0.332031 0.3125,-0.5625 0,-0.226562 -0.085937,-0.390625 -0.25,-0.484375 C 3.878906,-1.867188 3.59375,-1.921875 3.1875,-1.921875 H 2.921875 c -0.667969,0 -1.179687,-0.113281 -1.53125,-0.34375 -0.34375,-0.226563 -0.515625,-0.5625 -0.515625,-1 0,-0.4375 0.171875,-0.769531 0.515625,-1 0.34375,-0.238281 0.820313,-0.359375 1.4375,-0.359375 0.25,0 0.503906,0.039062 0.765625,0.109375 0.257812,0.0625 0.394531,0.09375 0.40625,0.09375 0.03125,0 0.097656,-0.03125 0.203125,-0.09375 0.101563,-0.0625 0.203125,-0.09375 0.296875,-0.09375 0.113281,0 0.195312,0.042969 0.25,0.125 0.050781,0.085937 0.078125,0.203125 0.078125,0.359375 v 0.578125 c 0,0.167969 -0.027344,0.292969 -0.078125,0.375 C 4.695312,-3.097656 4.613281,-3.0625 4.5,-3.0625 c -0.09375,0 -0.214844,-0.082031 -0.359375,-0.25 -0.105469,-0.113281 -0.1875,-0.195312 -0.25,-0.25 C 3.722656,-3.726562 3.539062,-3.84375 3.34375,-3.90625 3.144531,-3.976562 2.914062,-4.015625 2.65625,-4.015625 c -0.3125,0 -0.5625,0.070313 -0.75,0.203125 -0.1875,0.136719 -0.28125,0.308594 -0.28125,0.515625 0,0.199219 0.09375,0.34375 0.28125,0.4375 0.195312,0.085937 0.613281,0.136719 1.25,0.15625 0.675781,0.011719 1.171875,0.125 1.484375,0.34375 0.3125,0.21875 0.46875,0.558594 0.46875,1.015625 0,0.449219 -0.171875,0.804688 -0.515625,1.0625 C 4.25,-0.0195312 3.785156,0.109375 3.203125,0.109375 3.015625,0.109375 2.804688,0.09375 2.578125,0.0625 2.347656,0.03125 2.0625,-0.0234375 1.71875,-0.109375 1.601562,-0.0351562 1.503906,0.015625 1.421875,0.046875 1.335938,0.0859375 1.269531,0.109375 1.21875,0.109375 1.101562,0.109375 1.015625,0.0703125 0.953125,0 0.898438,-0.0820312 0.875,-0.203125 0.875,-0.359375 Z m 0,0"
         style="stroke:none" />
    </g>
    <g
       transform="matrix(0,-0.09318241,0.09311716,0,36.869514,146.77334)"
       style="fill:#211e1e;fill-opacity:1"
       id="use140">
      <path
         id="path7127"
         d="M 4.078125,-2.15625 C 3.898438,-2.21875 3.726562,-2.257812 3.5625,-2.28125 3.394531,-2.3125 3.226562,-2.328125 3.0625,-2.328125 c -0.5,0 -0.898438,0.085937 -1.1875,0.25 -0.292969,0.167969 -0.4375,0.398437 -0.4375,0.6875 0,0.21875 0.085938,0.402344 0.265625,0.546875 0.1875,0.148438 0.421875,0.21875 0.703125,0.21875 0.40625,0 0.785156,-0.109375 1.140625,-0.328125 0.351563,-0.21875 0.53125,-0.441406 0.53125,-0.671875 z M 4.125,-0.625 C 3.851562,-0.382812 3.5625,-0.195312 3.25,-0.0625 2.9375,0.0625 2.613281,0.125 2.28125,0.125 c -0.492188,0 -0.886719,-0.1328125 -1.1875,-0.40625 -0.292969,-0.269531 -0.4375,-0.625 -0.4375,-1.0625 0,-0.507812 0.195312,-0.90625 0.59375,-1.1875 0.394531,-0.28125 0.953125,-0.421875 1.671875,-0.421875 0.1875,0 0.375,0.011719 0.5625,0.03125 0.195313,0.023437 0.394531,0.058594 0.59375,0.109375 v -0.03125 c 0,-0.375 -0.089844,-0.648438 -0.265625,-0.828125 C 3.632812,-3.847656 3.359375,-3.9375 2.984375,-3.9375 2.722656,-3.9375 2.4375,-3.867188 2.125,-3.734375 1.8125,-3.597656 1.609375,-3.53125 1.515625,-3.53125 1.421875,-3.53125 1.34375,-3.566406 1.28125,-3.640625 1.21875,-3.722656 1.1875,-3.820312 1.1875,-3.9375 c 0,-0.195312 0.175781,-0.359375 0.53125,-0.484375 0.363281,-0.132813 0.820312,-0.203125 1.375,-0.203125 0.570312,0 1.003906,0.148438 1.296875,0.4375 0.300781,0.292969 0.453125,0.71875 0.453125,1.28125 v 2.21875 h 0.234375 c 0.226563,0 0.378906,0.027344 0.453125,0.078125 0.082031,0.042969 0.125,0.125 0.125,0.25 0,0.125 -0.03125,0.21875 -0.09375,0.28125 C 5.5,-0.0234375 5.398438,0 5.265625,0 H 4.5 C 4.40625,0 4.328125,-0.0234375 4.265625,-0.078125 c -0.054687,-0.0625 -0.089844,-0.144531 -0.109375,-0.25 z m 0,0"
         style="stroke:none" />
    </g>
    <g
       transform="matrix(0,-0.09318241,0.09311716,0,36.869514,144.65987)"
       style="fill:#211e1e;fill-opacity:1"
       id="use144">
      <path
         id="path7139"
         d="m 4.328125,-4.234375 c 0.164063,0 0.285156,0.027344 0.359375,0.078125 0.070312,0.054688 0.109375,0.140625 0.109375,0.265625 0,0.117187 -0.039063,0.203125 -0.109375,0.265625 -0.074219,0.054688 -0.179688,0.078125 -0.3125,0.078125 H 2.40625 v 1.625 c 0,0.53125 0.066406,0.886719 0.203125,1.0625 0.132813,0.167969 0.375,0.25 0.71875,0.25 0.289063,0 0.640625,-0.082031 1.046875,-0.25 C 4.789062,-1.035156 5.050781,-1.125 5.15625,-1.125 c 0.082031,0 0.15625,0.03125 0.21875,0.09375 0.070312,0.0625 0.109375,0.140625 0.109375,0.234375 0,0.117187 -0.042969,0.214844 -0.125,0.296875 -0.085937,0.074219 -0.21875,0.148438 -0.40625,0.21875 C 4.628906,-0.15625 4.335938,-0.0625 4.078125,0 3.828125,0.0625 3.59375,0.09375 3.375,0.09375 c -0.386719,0 -0.710938,-0.0625 -0.96875,-0.1875 -0.261719,-0.125 -0.453125,-0.304688 -0.578125,-0.546875 -0.0625,-0.113281 -0.109375,-0.25 -0.140625,-0.40625 -0.023438,-0.15625 -0.03125,-0.394531 -0.03125,-0.71875 v -1.78125 H 0.828125 c -0.148437,0 -0.25,-0.023437 -0.3125,-0.078125 C 0.460938,-3.6875 0.4375,-3.773438 0.4375,-3.890625 c 0,-0.132813 0.039062,-0.222656 0.125,-0.265625 0.082031,-0.050781 0.257812,-0.078125 0.53125,-0.078125 h 0.5625 V -5.5 c 0,-0.132812 0.023438,-0.234375 0.078125,-0.296875 0.0625,-0.070313 0.15625,-0.109375 0.28125,-0.109375 0.144531,0 0.242187,0.042969 0.296875,0.125 0.0625,0.074219 0.09375,0.257812 0.09375,0.546875 v 1 z m 0,0"
         style="stroke:none" />
    </g>
    <g
       transform="matrix(0,-0.09318241,0.09311716,0,36.869514,142.5464)"
       style="fill:#211e1e;fill-opacity:1"
       id="use148">
      <path
         id="path7123"
         d="m 3,-0.5625 c 0.5,0 0.910156,-0.15625 1.234375,-0.46875 C 4.554688,-1.351562 4.71875,-1.757812 4.71875,-2.25 4.71875,-2.738281 4.554688,-3.144531 4.234375,-3.46875 3.910156,-3.789062 3.5,-3.953125 3,-3.953125 c -0.5,0 -0.914062,0.164063 -1.234375,0.484375 -0.3125,0.324219 -0.46875,0.730469 -0.46875,1.21875 0,0.492188 0.15625,0.898438 0.46875,1.21875 C 2.085938,-0.71875 2.5,-0.5625 3,-0.5625 Z M 5.5625,-2.25 c 0,0.699219 -0.242188,1.273438 -0.71875,1.71875 C 4.375,-0.09375 3.757812,0.125 3,0.125 2.238281,0.125 1.617188,-0.09375 1.140625,-0.53125 0.671875,-0.976562 0.4375,-1.550781 0.4375,-2.25 c 0,-0.695312 0.234375,-1.265625 0.703125,-1.703125 C 1.617188,-4.398438 2.238281,-4.625 3,-4.625 c 0.75,0 1.363281,0.226562 1.84375,0.671875 0.476562,0.4375 0.71875,1.007813 0.71875,1.703125 z m 0,0"
         style="stroke:none" />
    </g>
    <g
       transform="matrix(0,-0.09318241,0.09311716,0,36.869514,140.43295)"
       style="fill:#211e1e;fill-opacity:1"
       id="use152">
      <path
         id="path7143"
         d="m 1.1875,-0.6875 v -3.125 H 1.09375 c -0.230469,0 -0.386719,-0.023438 -0.46875,-0.078125 -0.074219,-0.050781 -0.109375,-0.144531 -0.109375,-0.28125 0,-0.113281 0.03125,-0.195313 0.09375,-0.25 0.070313,-0.0625 0.179687,-0.09375 0.328125,-0.09375 h 0.703125 c 0.082031,0 0.148437,0.023437 0.203125,0.0625 0.050781,0.03125 0.078125,0.078125 0.078125,0.140625 v 0.328125 C 2.160156,-4.203125 2.394531,-4.363281 2.625,-4.46875 2.851562,-4.570312 3.09375,-4.625 3.34375,-4.625 c 0.5,0 0.890625,0.152344 1.171875,0.453125 0.28125,0.304687 0.421875,0.726563 0.421875,1.265625 v 2.21875 h 0.21875 c 0.164062,0 0.285156,0.027344 0.359375,0.078125 0.070313,0.054687 0.109375,0.136719 0.109375,0.25 0,0.136719 -0.042969,0.230469 -0.125,0.28125 C 5.425781,-0.0234375 5.289062,0 5.09375,0 H 4.015625 C 3.804688,0 3.671875,-0.0195312 3.609375,-0.0625 3.554688,-0.113281 3.53125,-0.210938 3.53125,-0.359375 c 0,-0.125 0.03125,-0.207031 0.09375,-0.25 C 3.695312,-0.660156 3.828125,-0.6875 4.015625,-0.6875 H 4.1875 v -2.03125 c 0,-0.382812 -0.089844,-0.675781 -0.265625,-0.875 -0.167969,-0.195312 -0.417969,-0.296875 -0.75,-0.296875 -0.324219,0 -0.617187,0.117187 -0.875,0.34375 -0.25,0.21875 -0.375,0.496094 -0.375,0.828125 V -0.6875 H 2.09375 c 0.195312,0 0.328125,0.027344 0.390625,0.078125 0.070313,0.042969 0.109375,0.125 0.109375,0.25 C 2.59375,-0.210938 2.5625,-0.113281 2.5,-0.0625 2.4375,-0.0195312 2.296875,0 2.078125,0 h -1.15625 c -0.136719,0 -0.242187,-0.0234375 -0.3125,-0.078125 -0.0625,-0.0625 -0.09375,-0.15625 -0.09375,-0.28125 0,-0.125 0.035156,-0.207031 0.109375,-0.25 C 0.707031,-0.660156 0.859375,-0.6875 1.078125,-0.6875 Z m 0,0"
         style="stroke:none" />
    </g>
    <path
       id="path260"
       d="m 106.92272,101.73963 h 3.93869 l 10.01101,9.98363 h 0.001 v 1.99755 h 25.93762 v -1.99755 l 9.9409,-9.98363 h 2.03052 V 75.783852 h -2.03052 l -9.94079,-9.983632 v -1.996175 h -25.93762 v 1.996175 h -0.001 l -10.01104,9.983632 H 106.9228 L 96.981905,65.80022 h -0.05087 V 63.804045 H 70.992042 v 2.047077 l -9.960147,9.93273 H 59.02062 v 25.955778 h 2.011275 l 9.960147,9.93273 v 2.04845 h 25.938994 v -1.99755 h 0.05087 z m 0,0"
       style="fill:none;stroke:#bbae00;stroke-width:0.35206211;stroke-linecap:butt;stroke-linejoin:miter;stroke-miterlimit:10;stroke-opacity:1" />
    <path
       id="path42"
       d="M 31.086765,253.48334 H 178.73475 V 43.836791 H 31.086765 Z m 0,0"
       style="fill:none;stroke:#000000;stroke-width:0.35206208;stroke-linecap:butt;stroke-linejoin:miter;stroke-miterlimit:1.5;stroke-opacity:1" />
    <path
       d="m 54.677301,244.98277 h 0.759555 v -0.33705 q 0,-0.24248 -0.08249,-0.33878 -0.08249,-0.098 -0.286998,-0.098 -0.207917,0 -0.299007,0.10146 -0.09107,0.10146 -0.09107,0.33534 z m -1.000146,0 h 0.596301 v -0.33705 q 0,-0.19261 -0.06874,-0.27343 -0.06874,-0.0825 -0.226837,-0.0825 -0.158098,0 -0.228553,0.0843 -0.07217,0.0825 -0.07217,0.27171 z m -0.403837,0.4901 v -0.82715 q 0,-0.4282 0.163253,-0.64316 0.161535,-0.21667 0.484604,-0.21667 0.247457,0 0.386651,0.12725 0.139196,0.12726 0.161535,0.37317 0.02921,-0.29406 0.19762,-0.44196 0.168402,-0.1496 0.470868,-0.1496 0.371172,0 0.53786,0.22355 0.166687,0.22356 0.166687,0.72742 v 0.82715 z"
       style="font-style:normal;font-variant:normal;font-weight:bold;font-stretch:normal;font-size:13.33333302px;line-height:1.25;font-family:monospace;-inkscape-font-specification:'monospace Bold';letter-spacing:0px;word-spacing:0px;fill:#00c0ee;fill-opacity:1;stroke:none;stroke-width:0.26404658"
       id="path24323" />
    <path
       d="m 54.280333,242.50818 q 0,0.18057 0.159813,0.28375 0.158098,0.10318 0.441641,0.10318 0.28354,0 0.443364,-0.10318 0.158108,-0.10318 0.158108,-0.28375 0,-0.18228 -0.158108,-0.28546 -0.159824,-0.10318 -0.443364,-0.10318 -0.283543,0 -0.441641,0.10318 -0.159813,0.10318 -0.159813,0.28546 z m 0.601454,0.89079 q -0.465697,0 -0.737214,-0.24075 -0.273233,-0.24248 -0.273233,-0.65004 0,-0.40927 0.273233,-0.65002 0.271517,-0.24248 0.737214,-0.24248 0.465694,0 0.73894,0.24248 0.271503,0.24075 0.271503,0.65002 0,0.40756 -0.271503,0.65004 -0.273246,0.24075 -0.73894,0.24075 z"
       style="font-style:normal;font-variant:normal;font-weight:bold;font-stretch:normal;font-size:13.33333302px;line-height:1.25;font-family:monospace;-inkscape-font-specification:'monospace Bold';letter-spacing:0px;word-spacing:0px;fill:#00c0ee;fill-opacity:1;stroke:none;stroke-width:0.26404658"
       id="path24325" />
    <path
       d="m 54.190971,240.08691 h -1.022478 v -0.50214 h 2.673903 v 0.50214 H 55.55714 q 0.166687,0.0808 0.250889,0.2098 0.0842,0.12725 0.0842,0.30094 0,0.33017 -0.26464,0.51245 -0.264641,0.18229 -0.745803,0.18229 -0.488039,0 -0.749242,-0.18401 -0.261205,-0.18571 -0.261205,-0.52793 0,-0.15476 0.08077,-0.27686 0.07905,-0.12382 0.238863,-0.21668 z m 0.694247,0.70162 q 0.278393,0 0.436501,-0.0929 0.158083,-0.0929 0.158083,-0.25623 0,-0.16337 -0.158083,-0.25795 -0.158108,-0.0946 -0.436501,-0.0946 -0.278382,0 -0.436477,0.0946 -0.158098,0.0946 -0.158098,0.25795 0,0.16337 0.158098,0.25623 0.158095,0.0929 0.436477,0.0929 z"
       style="font-style:normal;font-variant:normal;font-weight:bold;font-stretch:normal;font-size:13.33333302px;line-height:1.25;font-family:monospace;-inkscape-font-specification:'monospace Bold';letter-spacing:0px;word-spacing:0px;fill:#00c0ee;fill-opacity:1;stroke:none;stroke-width:0.26404658"
       id="path24327" />
    <path
       d="m 55.7479,237.43177 q 0.07217,0.1754 0.108248,0.35768 0.03608,0.18229 0.03608,0.38521 0,0.48322 -0.257751,0.73945 -0.259494,0.25451 -0.745803,0.25451 -0.470868,0 -0.744103,-0.24591 -0.273233,-0.24591 -0.273233,-0.67067 0,-0.42819 0.254331,-0.66379 0.252612,-0.23731 0.71317,-0.23731 h 0.204486 v 1.30522 q 0.226842,-0.002 0.338521,-0.13414 0.111706,-0.13241 0.111706,-0.39551 0,-0.17369 -0.04984,-0.34221 -0.04984,-0.16853 -0.158082,-0.35253 z m -1.082635,0.42647 q -0.199341,0.003 -0.300728,0.10318 -0.103109,0.098 -0.103109,0.29062 0,0.17369 0.106545,0.27687 0.104824,0.10317 0.299008,0.12209 z"
       style="font-style:normal;font-variant:normal;font-weight:bold;font-stretch:normal;font-size:13.33333302px;line-height:1.25;font-family:monospace;-inkscape-font-specification:'monospace Bold';letter-spacing:0px;word-spacing:0px;fill:#00c0ee;fill-opacity:1;stroke:none;stroke-width:0.26404658"
       id="path24329" />
    <path
       d="m 54.593089,235.36474 h 1.249307 v 0.50042 h -1.171984 q -0.209643,0 -0.299002,0.0602 -0.09108,0.0585 -0.09108,0.1926 0,0.13585 0.12201,0.21496 0.122007,0.0774 0.338545,0.0774 h 1.101508 v 0.50042 h -1.924658 v -0.50042 h 0.2887 q -0.159816,-0.0533 -0.247457,-0.18228 -0.08764,-0.12897 -0.08764,-0.31126 0,-0.27342 0.182156,-0.41272 0.180436,-0.13929 0.539593,-0.13929 z"
       style="font-style:normal;font-variant:normal;font-weight:bold;font-stretch:normal;font-size:13.33333302px;line-height:1.25;font-family:monospace;-inkscape-font-specification:'monospace Bold';letter-spacing:0px;word-spacing:0px;fill:#00c0ee;fill-opacity:1;stroke:none;stroke-width:0.26404658"
       id="path24331" />
    <path
       d="m 55.570892,234.32607 h 1.003581 v 0.50214 h -2.656735 v -0.50214 h 0.2887 q -0.166689,-0.0791 -0.250893,-0.20807 -0.08421,-0.12898 -0.08421,-0.30267 0,-0.33017 0.264641,-0.51245 0.264641,-0.18228 0.745806,-0.18228 0.488051,0 0.74926,0.18572 0.261183,0.184 0.261183,0.52621 0,0.15477 -0.07903,0.27859 -0.08077,0.12209 -0.242311,0.21495 z m -0.692537,-0.70162 q -0.278392,0 -0.43649,0.0929 -0.158096,0.0929 -0.158096,0.25623 0,0.16337 0.158096,0.25795 0.158098,0.0946 0.43649,0.0946 0.278393,0 0.436475,-0.0946 0.158109,-0.0946 0.158109,-0.25795 0,-0.16337 -0.158109,-0.25623 -0.158082,-0.0929 -0.436475,-0.0929 z"
       style="font-style:normal;font-variant:normal;font-weight:bold;font-stretch:normal;font-size:13.33333302px;line-height:1.25;font-family:monospace;-inkscape-font-specification:'monospace Bold';letter-spacing:0px;word-spacing:0px;fill:#00c0ee;fill-opacity:1;stroke:none;stroke-width:0.26404658"
       id="path24333" />
    <path
       d="m 55.039895,232.30032 h -1.484751 v 0.51074 h -0.386651 v -1.0146 h 1.871402 q 0.226816,0 0.321338,-0.0705 0.09452,-0.0705 0.09452,-0.23904 v -0.4024 h 0.386641 v 0.54341 q 0,0.35941 -0.185587,0.5159 -0.185586,0.15649 -0.616914,0.15649 z"
       style="font-style:normal;font-variant:normal;font-weight:bold;font-stretch:normal;font-size:13.33333302px;line-height:1.25;font-family:monospace;-inkscape-font-specification:'monospace Bold';letter-spacing:0px;word-spacing:0px;fill:#00c0ee;fill-opacity:1;stroke:none;stroke-width:0.26404658"
       id="path24335" />
    <path
       d="m 54.938511,229.64173 q 0,0.28203 0.07216,0.39381 0.07217,0.11177 0.247457,0.11177 0.130605,0 0.207943,-0.0774 0.07731,-0.0774 0.07731,-0.2098 0,-0.19948 -0.149504,-0.30954 -0.151219,-0.11005 -0.421007,-0.11005 H 54.9385 Z m -0.194192,-0.70161 h 1.098077 v 0.50042 H 55.62759 q 0.127173,0.0911 0.195907,0.23387 0.06873,0.14273 0.06873,0.3147 0,0.32845 -0.17355,0.51245 -0.173576,0.18228 -0.48462,0.18228 -0.336806,0 -0.49663,-0.21839 -0.161524,-0.2184 -0.161524,-0.67582 v -0.34909 h -0.0842 q -0.12201,0 -0.183876,0.0894 -0.06358,0.0877 -0.06358,0.25967 0,0.18056 0.0464,0.3508 0.04468,0.16853 0.144348,0.35253 h -0.429612 q -0.06874,-0.1668 -0.10139,-0.33877 -0.03265,-0.17197 -0.03265,-0.36456 0,-0.46947 0.190747,-0.65863 0.190749,-0.19088 0.682232,-0.19088 z"
       style="font-style:normal;font-variant:normal;font-weight:bold;font-stretch:normal;font-size:13.33333302px;line-height:1.25;font-family:monospace;-inkscape-font-specification:'monospace Bold';letter-spacing:0px;word-spacing:0px;fill:#00c0ee;fill-opacity:1;stroke:none;stroke-width:0.26404658"
       id="path24337" />
    <path
       d="m 53.371271,227.5386 h 0.546467 v -0.65863 h 0.386651 v 0.65863 h 0.910772 q 0.128889,0 0.185613,-0.0619 0.05498,-0.0636 0.05498,-0.2098 v -0.38692 h 0.386641 v 0.42304 q 0,0.43335 -0.137468,0.5864 -0.139183,0.15305 -0.513813,0.15305 h -0.886726 v 0.49182 h -0.386651 v -0.49182 H 53.37127 Z"
       style="font-style:normal;font-variant:normal;font-weight:bold;font-stretch:normal;font-size:13.33333302px;line-height:1.25;font-family:monospace;-inkscape-font-specification:'monospace Bold';letter-spacing:0px;word-spacing:0px;fill:#00c0ee;fill-opacity:1;stroke:none;stroke-width:0.26404658"
       id="path24339" />
    <path
       d="m 53.371271,225.41827 h 0.546467 v -0.65863 h 0.386651 v 0.65863 h 0.910772 q 0.128889,0 0.185613,-0.0619 0.05498,-0.0636 0.05498,-0.2098 v -0.38692 h 0.386641 v 0.42303 q 0,0.43336 -0.137468,0.5864 -0.139183,0.15305 -0.513813,0.15305 h -0.886726 v 0.49183 h -0.386651 v -0.49183 H 53.37127 Z"
       style="font-style:normal;font-variant:normal;font-weight:bold;font-stretch:normal;font-size:13.33333302px;line-height:1.25;font-family:monospace;-inkscape-font-specification:'monospace Bold';letter-spacing:0px;word-spacing:0px;fill:#00c0ee;fill-opacity:1;stroke:none;stroke-width:0.26404658"
       id="path24341" />
    <path
       d="m 55.7479,222.58943 q 0.07217,0.17541 0.108248,0.35769 0.03608,0.18229 0.03608,0.3852 0,0.48323 -0.257751,0.73945 -0.259494,0.25451 -0.745803,0.25451 -0.470868,0 -0.744103,-0.24591 -0.273233,-0.24591 -0.273233,-0.67066 0,-0.42819 0.254331,-0.66379 0.252612,-0.23731 0.71317,-0.23731 h 0.204486 v 1.30522 q 0.226842,-0.002 0.338521,-0.13413 0.111706,-0.13242 0.111706,-0.39553 0,-0.17368 -0.04984,-0.34221 -0.04984,-0.16852 -0.158082,-0.35253 z m -1.082635,0.42648 q -0.199341,0.003 -0.300728,0.10318 -0.103109,0.098 -0.103109,0.29062 0,0.17368 0.106545,0.27686 0.104824,0.10318 0.299008,0.1221 z"
       style="font-style:normal;font-variant:normal;font-weight:bold;font-stretch:normal;font-size:13.33333302px;line-height:1.25;font-family:monospace;-inkscape-font-specification:'monospace Bold';letter-spacing:0px;word-spacing:0px;fill:#00c0ee;fill-opacity:1;stroke:none;stroke-width:0.26404658"
       id="path24343" />
    <path
       d="m 55.842396,219.8569 h -2.565642 v -0.50729 H 55.3956 v -1.0851 h 0.446796 z"
       style="font-style:normal;font-variant:normal;font-weight:bold;font-stretch:normal;font-size:13.33333302px;line-height:1.25;font-family:monospace;-inkscape-font-specification:'monospace Bold';letter-spacing:0px;word-spacing:0px;fill:#00c0ee;fill-opacity:1;stroke:none;stroke-width:0.26404658"
       id="path24345" />
    <path
       d="m 54.938511,216.91973 q 0,0.28203 0.07216,0.39381 0.07217,0.11177 0.247457,0.11177 0.130605,0 0.207943,-0.0774 0.07731,-0.0774 0.07731,-0.2098 0,-0.19948 -0.149504,-0.30954 -0.151219,-0.11005 -0.421007,-0.11005 H 54.9385 Z m -0.194192,-0.70161 h 1.098077 v 0.50042 H 55.62759 q 0.127173,0.0911 0.195907,0.23387 0.06873,0.14273 0.06873,0.31469 0,0.32846 -0.17355,0.51246 -0.173576,0.18228 -0.48462,0.18228 -0.336806,0 -0.49663,-0.21839 -0.161524,-0.2184 -0.161524,-0.67582 v -0.34909 h -0.0842 q -0.12201,0 -0.183876,0.0894 -0.06358,0.0877 -0.06358,0.25967 0,0.18056 0.0464,0.3508 0.04468,0.16853 0.144348,0.35254 h -0.429612 q -0.06874,-0.16681 -0.10139,-0.33878 -0.03265,-0.17196 -0.03265,-0.36456 0,-0.46947 0.190747,-0.65863 0.190749,-0.19088 0.682232,-0.19088 z"
       style="font-style:normal;font-variant:normal;font-weight:bold;font-stretch:normal;font-size:13.33333302px;line-height:1.25;font-family:monospace;-inkscape-font-specification:'monospace Bold';letter-spacing:0px;word-spacing:0px;fill:#00c0ee;fill-opacity:1;stroke:none;stroke-width:0.26404658"
       id="path24347" />
    <path
       d="m 56.050339,214.78049 q 0.271503,0.10146 0.395245,0.24419 0.125458,0.14101 0.125458,0.34393 v 0.41615 h -0.383236 v -0.20463 q 0,-0.15477 -0.05327,-0.227 -0.05155,-0.0722 -0.24231,-0.14617 l -0.1031,-0.0378 -1.871392,0.73257 v -0.52965 l 1.249304,-0.44023 -1.249304,-0.42132 v -0.52965 z"
       style="font-style:normal;font-variant:normal;font-weight:bold;font-stretch:normal;font-size:13.33333302px;line-height:1.25;font-family:monospace;-inkscape-font-specification:'monospace Bold';letter-spacing:0px;word-spacing:0px;fill:#00c0ee;fill-opacity:1;stroke:none;stroke-width:0.26404658"
       id="path24349" />
    <path
       d="m 55.7479,211.98777 q 0.07217,0.1754 0.108248,0.35769 0.03608,0.18228 0.03608,0.3852 0,0.48322 -0.257751,0.73945 -0.259494,0.25451 -0.745803,0.25451 -0.470868,0 -0.744103,-0.24591 -0.273233,-0.24591 -0.273233,-0.67067 0,-0.42819 0.254331,-0.66378 0.252612,-0.23732 0.71317,-0.23732 h 0.204486 v 1.30522 q 0.226842,-0.002 0.338521,-0.13413 0.111706,-0.13241 0.111706,-0.39552 0,-0.17369 -0.04984,-0.34221 -0.04984,-0.16853 -0.158082,-0.35253 z m -1.082635,0.42647 q -0.199341,0.003 -0.300728,0.10318 -0.103109,0.098 -0.103109,0.29062 0,0.17369 0.106545,0.27687 0.104824,0.10318 0.299008,0.12209 z"
       style="font-style:normal;font-variant:normal;font-weight:bold;font-stretch:normal;font-size:13.33333302px;line-height:1.25;font-family:monospace;-inkscape-font-specification:'monospace Bold';letter-spacing:0px;word-spacing:0px;fill:#00c0ee;fill-opacity:1;stroke:none;stroke-width:0.26404658"
       id="path24351" />
    <path
       d="m 54.448741,209.78317 q -0.07561,0.0825 -0.113419,0.19432 -0.03781,0.11006 -0.03781,0.24247 0,0.15993 0.05671,0.28031 0.05499,0.11865 0.161535,0.184 0.0653,0.0413 0.158111,0.0585 0.09278,0.0155 0.281824,0.0155 h 0.886702 v 0.50386 h -1.924658 v -0.50386 h 0.29901 q -0.164971,-0.074 -0.25433,-0.227 -0.09108,-0.15305 -0.09108,-0.35769 0,-0.10318 0.02579,-0.2012 0.02405,-0.0997 0.07218,-0.18916 z"
       style="font-style:normal;font-variant:normal;font-weight:bold;font-stretch:normal;font-size:13.33333302px;line-height:1.25;font-family:monospace;-inkscape-font-specification:'monospace Bold';letter-spacing:0px;word-spacing:0px;fill:#00c0ee;fill-opacity:1;stroke:none;stroke-width:0.26404658"
       id="path24353" />
    <path
       d="m 54.694485,206.57774 v 0.2717 h -0.446804 v -0.2717 q 0,-0.18917 -0.07389,-0.29234 -0.07561,-0.1049 -0.211369,-0.1049 -0.142633,0 -0.221682,0.1049 -0.08076,0.10317 -0.08076,0.29234 0,0.14445 0.03608,0.30953 0.03609,0.16509 0.104827,0.34221 h -0.460545 q -0.05327,-0.17712 -0.08077,-0.34908 -0.02922,-0.17197 -0.02922,-0.33018 0,-0.40583 0.177,-0.63283 0.177003,-0.227 0.488041,-0.227 0.228556,0 0.374623,0.1307 0.144351,0.13069 0.189031,0.37316 0.04812,-0.27514 0.219966,-0.41959 0.170119,-0.14445 0.448511,-0.14445 0.372915,0 0.568795,0.23903 0.195907,0.23903 0.195907,0.69474 0,0.19432 -0.03265,0.38348 -0.03265,0.18745 -0.09449,0.35941 h -0.470869 q 0.08077,-0.16165 0.123742,-0.34909 0.04123,-0.18744 0.04123,-0.3938 0,-0.20636 -0.09452,-0.32673 -0.09621,-0.12038 -0.257752,-0.12038 -0.197622,0 -0.304181,0.12038 -0.108247,0.12037 -0.108247,0.34049 z"
       style="font-style:normal;font-variant:normal;font-weight:bold;font-stretch:normal;font-size:13.33333302px;line-height:1.25;font-family:monospace;-inkscape-font-specification:'monospace Bold';letter-spacing:0px;word-spacing:0px;fill:#00c0ee;fill-opacity:1;stroke:none;stroke-width:0.26404658"
       id="path24355" />
    <path
       d="m 55.419673,202.22185 -2.142919,-0.45227 v -0.51073 l 2.565642,0.61047 v 0.70334 l -2.565642,0.61048 v -0.51074 z"
       style="font-style:normal;font-variant:normal;font-weight:bold;font-stretch:normal;font-size:13.33333302px;line-height:1.25;font-family:monospace;-inkscape-font-specification:'monospace Bold';letter-spacing:0px;word-spacing:0px;fill:#00c0ee;fill-opacity:1;stroke:none;stroke-width:0.26404658"
       id="path24357" />
    <path
       d="m 53.917738,200.78078 v -0.9974 h 1.538017 v -0.62595 h 0.386641 v 1.75749 h -0.386641 v -0.62768 h -1.151366 v 0.49354 z m -0.936557,-0.49354 v -0.50386 h 0.58771 v 0.50386 z"
       style="font-style:normal;font-variant:normal;font-weight:bold;font-stretch:normal;font-size:13.33333302px;line-height:1.25;font-family:monospace;-inkscape-font-specification:'monospace Bold';letter-spacing:0px;word-spacing:0px;fill:#00c0ee;fill-opacity:1;stroke:none;stroke-width:0.26404658"
       id="path24359" />
    <path
       d="m 53.977883,197.33632 h 0.439925 q -0.08936,0.13929 -0.134039,0.29062 -0.0464,0.14961 -0.0464,0.30094 0,0.16852 0.04983,0.25451 0.04812,0.086 0.144349,0.086 0.137477,0 0.22339,-0.36801 l 0.0053,-0.0189 0.03437,-0.14446 q 0.0653,-0.27514 0.211375,-0.4024 0.14433,-0.12897 0.391787,-0.12897 0.297291,0 0.446795,0.19604 0.147788,0.19432 0.147788,0.5864 0,0.17369 -0.03094,0.35597 -0.02919,0.18228 -0.08935,0.36973 h -0.439932 q 0.09452,-0.16681 0.144356,-0.33877 0.04984,-0.17369 0.04984,-0.33534 0,-0.17712 -0.05155,-0.26826 -0.05155,-0.0911 -0.149504,-0.0911 -0.09624,0 -0.147788,0.0653 -0.05155,0.0636 -0.10999,0.3061 l -0.03093,0.13929 q -0.06528,0.2889 -0.204486,0.42132 -0.139183,0.13241 -0.372901,0.13241 -0.27839,0 -0.433052,-0.2012 -0.154658,-0.2012 -0.154658,-0.56576 0,-0.16337 0.02749,-0.32502 0.02579,-0.16337 0.07905,-0.31642 z"
       style="font-style:normal;font-variant:normal;font-weight:bold;font-stretch:normal;font-size:13.33333302px;line-height:1.25;font-family:monospace;-inkscape-font-specification:'monospace Bold';letter-spacing:0px;word-spacing:0px;fill:#00c0ee;fill-opacity:1;stroke:none;stroke-width:0.26404658"
       id="path24361" />
    <path
       d="m 54.938511,195.7164 q 0,0.28203 0.07216,0.39381 0.07217,0.11177 0.247457,0.11177 0.130605,0 0.207943,-0.0774 0.07731,-0.0774 0.07731,-0.2098 0,-0.19948 -0.149504,-0.30954 -0.151219,-0.11006 -0.421007,-0.11006 H 54.9385 Z m -0.194192,-0.70162 h 1.098077 v 0.50042 H 55.62759 q 0.127173,0.0911 0.195907,0.23388 0.06873,0.14273 0.06873,0.31469 0,0.32846 -0.17355,0.51246 -0.173576,0.18228 -0.48462,0.18228 -0.336806,0 -0.49663,-0.21839 -0.161524,-0.2184 -0.161524,-0.67583 v -0.34909 h -0.0842 q -0.12201,0 -0.183876,0.0894 -0.06358,0.0877 -0.06358,0.25966 0,0.18057 0.0464,0.35081 0.04468,0.16853 0.144348,0.35253 h -0.429612 q -0.06874,-0.1668 -0.10139,-0.33877 -0.03265,-0.17197 -0.03265,-0.36457 0,-0.46946 0.190747,-0.65862 0.190749,-0.19089 0.682232,-0.19089 z"
       style="font-style:normal;font-variant:normal;font-weight:bold;font-stretch:normal;font-size:13.33333302px;line-height:1.25;font-family:monospace;-inkscape-font-specification:'monospace Bold';letter-spacing:0px;word-spacing:0px;fill:#00c0ee;fill-opacity:1;stroke:none;stroke-width:0.26404658"
       id="path24363" />
    <path
       d="m 53.371271,193.61327 h 0.546467 v -0.65863 h 0.386651 v 0.65863 h 0.910772 q 0.128889,0 0.185613,-0.0619 0.05498,-0.0636 0.05498,-0.2098 v -0.38692 h 0.386641 v 0.42304 q 0,0.43335 -0.137468,0.5864 -0.139183,0.15304 -0.513813,0.15304 h -0.886726 v 0.49182 h -0.386651 v -0.49182 H 53.37127 Z"
       style="font-style:normal;font-variant:normal;font-weight:bold;font-stretch:normal;font-size:13.33333302px;line-height:1.25;font-family:monospace;-inkscape-font-specification:'monospace Bold';letter-spacing:0px;word-spacing:0px;fill:#00c0ee;fill-opacity:1;stroke:none;stroke-width:0.26404658"
       id="path24365" />
    <path
       d="m 54.280333,191.62019 q 0,0.18056 0.159813,0.28374 0.158098,0.10318 0.441641,0.10318 0.28354,0 0.443364,-0.10318 0.158108,-0.10318 0.158108,-0.28374 0,-0.18229 -0.158108,-0.28547 -0.159824,-0.10317 -0.443364,-0.10317 -0.283543,0 -0.441641,0.10317 -0.159813,0.10318 -0.159813,0.28547 z m 0.601454,0.89078 q -0.465697,0 -0.737214,-0.24075 -0.273233,-0.24247 -0.273233,-0.65003 0,-0.40928 0.273233,-0.65003 0.271517,-0.24247 0.737214,-0.24247 0.465694,0 0.73894,0.24247 0.271503,0.24075 0.271503,0.65003 0,0.40756 -0.271503,0.65003 -0.273246,0.24075 -0.73894,0.24075 z"
       style="font-style:normal;font-variant:normal;font-weight:bold;font-stretch:normal;font-size:13.33333302px;line-height:1.25;font-family:monospace;-inkscape-font-specification:'monospace Bold';letter-spacing:0px;word-spacing:0px;fill:#00c0ee;fill-opacity:1;stroke:none;stroke-width:0.26404658"
       id="path24367" />
    <path
       d="m 54.593089,188.71741 h 1.249307 v 0.50042 h -1.171984 q -0.209643,0 -0.299002,0.0602 -0.09108,0.0585 -0.09108,0.1926 0,0.13585 0.12201,0.21496 0.122007,0.0774 0.338545,0.0774 h 1.101508 v 0.50042 h -1.924658 v -0.50042 h 0.2887 q -0.159816,-0.0533 -0.247457,-0.18228 -0.08764,-0.12898 -0.08764,-0.31126 0,-0.27343 0.182156,-0.41272 0.180436,-0.13929 0.539593,-0.13929 z"
       style="font-style:normal;font-variant:normal;font-weight:bold;font-stretch:normal;font-size:13.33333302px;line-height:1.25;font-family:monospace;-inkscape-font-specification:'monospace Bold';letter-spacing:0px;word-spacing:0px;fill:#00c0ee;fill-opacity:1;stroke:none;stroke-width:0.26404658"
       id="path24369" />
    <path
       id="path1025-5"
       d="M 85.402762,88.762426 H 82.58061"
       style="fill:none;stroke:#211e1e;stroke-width:0.08800907;stroke-linecap:butt;stroke-linejoin:miter;stroke-miterlimit:10;stroke-opacity:1" />
    <path
       id="path1027-6"
       d="M 83.992376,90.173833 V 87.35102"
       style="fill:none;stroke:#211e1e;stroke-width:0.08800907;stroke-linecap:butt;stroke-linejoin:miter;stroke-miterlimit:10;stroke-opacity:1" />
    <path
       id="path1025"
       d="M 135.18375,88.762426 H 132.3616"
       style="fill:none;stroke:#211e1e;stroke-width:0.08800907;stroke-linecap:butt;stroke-linejoin:miter;stroke-miterlimit:10;stroke-opacity:1" />
    <path
       id="path1027"
       d="M 133.77337,90.173833 V 87.35102"
       style="fill:none;stroke:#211e1e;stroke-width:0.08800907;stroke-linecap:butt;stroke-linejoin:miter;stroke-miterlimit:10;stroke-opacity:1" />
    <path
       id="path561-9-1"
       style="clip-rule:evenodd;fill:none;fill-rule:nonzero;stroke:#ea0088;stroke-width:0.35205615;stroke-miterlimit:10;stroke-opacity:1"
       d="m 69.072964,52.322832 c 0.550775,0 0.997731,-0.446917 0.997731,-0.998075 0,-0.551516 -0.446956,-0.998429 -0.997731,-0.998429 -0.550778,0 -0.997381,0.446913 -0.997381,0.998429 0,0.551158 0.446603,0.998075 0.997381,0.998075" />
    <path
       id="path565-7-5"
       style="clip-rule:evenodd;fill:none;fill-rule:nonzero;stroke:#000000;stroke-width:0.23754881px;stroke-miterlimit:10;stroke-opacity:1"
       d="m 68.039544,51.324831 h 2.111637" />
    <path
       id="path569-2-4"
       style="clip-rule:evenodd;fill:none;fill-rule:nonzero;stroke:#000000;stroke-width:0.23754881px;stroke-miterlimit:10;stroke-opacity:1"
       d="M 69.073305,52.366671 V 50.253557" />
    <path
       id="path561-9-1-2-3"
       style="clip-rule:evenodd;fill:none;fill-rule:nonzero;stroke:#ea0088;stroke-width:0.35205615;stroke-miterlimit:10;stroke-opacity:1"
       d="m 168.83525,52.322828 c 0.55077,0 0.99773,-0.446913 0.99773,-0.998075 0,-0.551512 -0.44696,-0.998428 -0.99773,-0.998428 -0.55077,0 -0.99738,0.446916 -0.99738,0.998428 0,0.551162 0.44661,0.998075 0.99738,0.998075" />
    <path
       id="path565-7-5-3"
       style="clip-rule:evenodd;fill:none;fill-rule:nonzero;stroke:#000000;stroke-width:0.23754881px;stroke-miterlimit:10;stroke-opacity:1"
       d="m 167.80183,51.324827 h 2.11164" />
    <path
       id="path569-2-4-0-6"
       style="clip-rule:evenodd;fill:none;fill-rule:nonzero;stroke:#000000;stroke-width:0.23754881px;stroke-miterlimit:10;stroke-opacity:1"
       d="M 168.8356,52.366668 V 50.253554" />
    <path
       id="path561-9-1-81"
       style="clip-rule:evenodd;fill:none;fill-rule:nonzero;stroke:#ea0088;stroke-width:0.35203058;stroke-miterlimit:10;stroke-opacity:1"
       d="m 58.963121,52.271591 c 0.550725,0 0.997646,-0.446888 0.997646,-0.998015 0,-0.55148 -0.446921,-0.998369 -0.997646,-0.998369 -0.550728,0 -0.997294,0.446889 -0.997294,0.998369 0,0.551127 0.446566,0.998015 0.997294,0.998015" />
    <path
       id="path565-7-5-39"
       style="clip-rule:evenodd;fill:none;fill-rule:nonzero;stroke:#000000;stroke-width:0.23753151px;stroke-miterlimit:10;stroke-opacity:1"
       d="m 57.929891,51.273681 h 2.111455" />
    <path
       id="path569-2-4-8"
       style="clip-rule:evenodd;fill:none;fill-rule:nonzero;stroke:#000000;stroke-width:0.23753138px;stroke-miterlimit:10;stroke-opacity:1"
       d="m 58.963605,52.315526 v -2.11298" />
    <path
       id="path561-9-1-3"
       style="clip-rule:evenodd;fill:none;fill-rule:nonzero;stroke:#ea0088;stroke-width:0.35203058;stroke-miterlimit:10;stroke-opacity:1"
       d="m 158.71684,52.271591 c 0.55073,0 0.99764,-0.446888 0.99764,-0.998015 0,-0.55148 -0.44691,-0.998369 -0.99764,-0.998369 -0.55073,0 -0.99729,0.446889 -0.99729,0.998369 0,0.551127 0.44656,0.998015 0.99729,0.998015" />
    <path
       id="path565-7-5-6-8"
       style="clip-rule:evenodd;fill:none;fill-rule:nonzero;stroke:#000000;stroke-width:0.23753151px;stroke-miterlimit:10;stroke-opacity:1"
       d="m 157.68361,51.273681 h 2.11145" />
    <path
       id="path569-2-4-2-7"
       style="clip-rule:evenodd;fill:none;fill-rule:nonzero;stroke:#000000;stroke-width:0.23753138px;stroke-miterlimit:10;stroke-opacity:1"
       d="m 158.71733,52.315526 v -2.11298" />
    <path
       id="path561-9-1-27"
       style="clip-rule:evenodd;fill:none;fill-rule:nonzero;stroke:#ea0088;stroke-width:0.35205615;stroke-miterlimit:10;stroke-opacity:1"
       d="m 69.072898,246.98433 c 0.550772,0 0.997728,-0.44691 0.997728,-0.99807 0,-0.55151 -0.446956,-0.99843 -0.997728,-0.99843 -0.550775,0 -0.997379,0.44692 -0.997379,0.99843 0,0.55116 0.446604,0.99807 0.997379,0.99807" />
    <path
       id="path565-7-5-0"
       style="clip-rule:evenodd;fill:none;fill-rule:nonzero;stroke:#000000;stroke-width:0.23754881px;stroke-miterlimit:10;stroke-opacity:1"
       d="m 68.03948,245.98633 h 2.111632" />
    <path
       id="path569-2-4-9"
       style="clip-rule:evenodd;fill:none;fill-rule:nonzero;stroke:#000000;stroke-width:0.23754881px;stroke-miterlimit:10;stroke-opacity:1"
       d="m 69.073242,247.02818 v -2.11312" />
    <path
       id="path561-9-1-2-3-2"
       style="clip-rule:evenodd;fill:none;fill-rule:nonzero;stroke:#ea0088;stroke-width:0.35205615;stroke-miterlimit:10;stroke-opacity:1"
       d="m 168.83518,246.98433 c 0.55078,0 0.99774,-0.44691 0.99774,-0.99807 0,-0.55151 -0.44696,-0.99843 -0.99774,-0.99843 -0.55077,0 -0.99737,0.44692 -0.99737,0.99843 0,0.55116 0.4466,0.99807 0.99737,0.99807" />
    <path
       id="path565-7-5-3-6"
       style="clip-rule:evenodd;fill:none;fill-rule:nonzero;stroke:#000000;stroke-width:0.23754881px;stroke-miterlimit:10;stroke-opacity:1"
       d="m 167.80177,245.98633 h 2.11163" />
    <path
       id="path569-2-4-0-06"
       style="clip-rule:evenodd;fill:none;fill-rule:nonzero;stroke:#000000;stroke-width:0.23754881px;stroke-miterlimit:10;stroke-opacity:1"
       d="m 168.83553,247.02817 v -2.11311" />
    <path
       id="path561-9-1-81-2"
       style="clip-rule:evenodd;fill:none;fill-rule:nonzero;stroke:#ea0088;stroke-width:0.35203058;stroke-miterlimit:10;stroke-opacity:1"
       d="m 58.963055,246.93309 c 0.550727,0 0.997646,-0.44688 0.997646,-0.99801 0,-0.55148 -0.446919,-0.99837 -0.997646,-0.99837 -0.550728,0 -0.997291,0.44689 -0.997291,0.99837 0,0.55113 0.446563,0.99801 0.997291,0.99801" />
    <path
       id="path565-7-5-39-6"
       style="clip-rule:evenodd;fill:none;fill-rule:nonzero;stroke:#000000;stroke-width:0.23753151px;stroke-miterlimit:10;stroke-opacity:1"
       d="m 57.929825,245.93518 h 2.111452" />
    <path
       id="path569-2-4-8-1"
       style="clip-rule:evenodd;fill:none;fill-rule:nonzero;stroke:#000000;stroke-width:0.23753138px;stroke-miterlimit:10;stroke-opacity:1"
       d="m 58.963539,246.97703 v -2.11298" />
    <path
       id="path561-9-1-3-8"
       style="clip-rule:evenodd;fill:none;fill-rule:nonzero;stroke:#ea0088;stroke-width:0.35203058;stroke-miterlimit:10;stroke-opacity:1"
       d="m 158.71678,246.93309 c 0.55072,0 0.99764,-0.44688 0.99764,-0.99801 0,-0.55148 -0.44692,-0.99837 -0.99764,-0.99837 -0.55073,0 -0.9973,0.44689 -0.9973,0.99837 0,0.55113 0.44657,0.99801 0.9973,0.99801" />
    <path
       id="path565-7-5-6-8-7"
       style="clip-rule:evenodd;fill:none;fill-rule:nonzero;stroke:#000000;stroke-width:0.23753151px;stroke-miterlimit:10;stroke-opacity:1"
       d="m 157.68355,245.93518 h 2.11144" />
    <path
       id="path569-2-4-2-9"
       style="clip-rule:evenodd;fill:none;fill-rule:nonzero;stroke:#000000;stroke-width:0.23753138px;stroke-miterlimit:10;stroke-opacity:1"
       d="m 158.71726,246.97703 v -2.11298" />
    <g
       id="g4370"
       transform="matrix(0.35277777,0,0,0.35277777,-2.6266825e-7,-0.09532315)">
      <path
         id="path3626"
         style="font-style:normal;font-variant:normal;font-weight:bold;font-stretch:normal;font-size:medium;line-height:125%;font-family:monospace;-inkscape-font-specification:'monospace Bold';text-align:center;letter-spacing:0px;word-spacing:0px;text-anchor:middle;fill:#bbae00;fill-opacity:1;stroke:none;stroke-width:0.75px;stroke-linecap:butt;stroke-linejoin:miter;stroke-opacity:1"
         d="m 176.61566,331.64112 h 1.54785 l 2.03124,5.29785 v -5.29785 h 1.26954 v 7.29004 h -1.53809 l -2.04102,-5.29785 v 5.29785 h -1.26952 z" />
      <path
         id="path3628"
         style="font-style:normal;font-variant:normal;font-weight:bold;font-stretch:normal;font-size:medium;line-height:125%;font-family:monospace;-inkscape-font-specification:'monospace Bold';text-align:center;letter-spacing:0px;word-spacing:0px;text-anchor:middle;fill:#bbae00;fill-opacity:1;stroke:none;stroke-width:0.75px;stroke-linecap:butt;stroke-linejoin:miter;stroke-opacity:1"
         d="m 182.83148,337.02198 v -3.55957 h 1.43066 v 3.33984 q 0,0.59082 0.16601,0.84473 0.16602,0.2539 0.55176,0.2539 0.38574,0 0.60059,-0.34179 0.21972,-0.3418 0.21972,-0.95704 v -3.13964 h 1.43067 v 5.46875 h -1.43067 v -0.81055 q -0.15136,0.4541 -0.51757,0.70312 -0.36133,0.24903 -0.87403,0.24903 -0.78125,0 -1.18164,-0.51758 -0.3955,-0.51757 -0.3955,-1.5332 z" />
      <path
         id="path3630"
         style="font-style:normal;font-variant:normal;font-weight:bold;font-stretch:normal;font-size:medium;line-height:125%;font-family:monospace;-inkscape-font-specification:'monospace Bold';text-align:center;letter-spacing:0px;word-spacing:0px;text-anchor:middle;fill:#bbae00;fill-opacity:1;stroke:none;stroke-width:0.75px;stroke-linecap:butt;stroke-linejoin:miter;stroke-opacity:1"
         d="m 193.68596,334.9712 q -0.23437,-0.21484 -0.55175,-0.32227 -0.3125,-0.10742 -0.68848,-0.10742 -0.4541,0 -0.7959,0.16113 -0.33691,0.15626 -0.52246,0.45899 -0.11719,0.18555 -0.16601,0.44922 -0.044,0.26367 -0.044,0.80078 v 2.51953 h -1.43067 v -5.46875 h 1.43067 v 0.84961 q 0.20995,-0.46875 0.64452,-0.72266 0.43458,-0.25878 1.01563,-0.25878 0.29297,0 0.57129,0.0732 0.2832,0.0684 0.53711,0.20508 z" />
      <path
         id="path3632"
         style="font-style:normal;font-variant:normal;font-weight:bold;font-stretch:normal;font-size:medium;line-height:125%;font-family:monospace;-inkscape-font-specification:'monospace Bold';text-align:center;letter-spacing:0px;word-spacing:0px;text-anchor:middle;fill:#bbae00;fill-opacity:1;stroke:none;stroke-width:0.75px;stroke-linecap:butt;stroke-linejoin:miter;stroke-opacity:1"
         d="m 203.7055,332.9839 v 0.47851 h 1.67968 v 1.09863 h -1.67968 v 4.37012 h -1.43067 v -4.37012 h -1.32812 v -1.09863 h 1.32812 v -0.38086 q 0,-0.98633 0.41016,-1.36719 0.41015,-0.38086 1.52344,-0.38086 h 1.17675 v 1.09864 h -1.11816 q -0.32226,0 -0.43945,0.11718 -0.11231,0.11719 -0.12207,0.43458 z" />
      <path
         id="path3634"
         style="font-style:normal;font-variant:normal;font-weight:bold;font-stretch:normal;font-size:medium;line-height:125%;font-family:monospace;-inkscape-font-specification:'monospace Bold';text-align:center;letter-spacing:0px;word-spacing:0px;text-anchor:middle;fill:#bbae00;fill-opacity:1;stroke:none;stroke-width:0.75px;stroke-linecap:butt;stroke-linejoin:miter;stroke-opacity:1"
         d="m 206.89397,337.02198 v -3.55957 h 1.43067 v 3.33984 q 0,0.59082 0.16601,0.84473 0.16602,0.2539 0.55176,0.2539 0.38574,0 0.60058,-0.34179 0.21973,-0.3418 0.21973,-0.95704 v -3.13964 h 1.43066 v 5.46875 h -1.43066 v -0.81055 q -0.15136,0.4541 -0.51757,0.70312 -0.36133,0.24903 -0.87403,0.24903 -0.78125,0 -1.18164,-0.51758 -0.39551,-0.51757 -0.39551,-1.5332 z m 2.61719,-5.83008 h 1.15234 v 1.20118 h -1.15234 z m -1.92871,0 h 1.15234 v 1.20118 h -1.15234 z" />
      <path
         id="path3636"
         style="font-style:normal;font-variant:normal;font-weight:bold;font-stretch:normal;font-size:medium;line-height:125%;font-family:monospace;-inkscape-font-specification:'monospace Bold';text-align:center;letter-spacing:0px;word-spacing:0px;text-anchor:middle;fill:#bbae00;fill-opacity:1;stroke:none;stroke-width:0.75px;stroke-linecap:butt;stroke-linejoin:miter;stroke-opacity:1"
         d="m 217.74847,334.9712 q -0.23438,-0.21484 -0.55176,-0.32227 -0.3125,-0.10742 -0.68848,-0.10742 -0.4541,0 -0.7959,0.16113 -0.33691,0.15626 -0.52246,0.45899 -0.11718,0.18555 -0.16602,0.44922 -0.044,0.26367 -0.044,0.80078 v 2.51953 h -1.43066 v -5.46875 h 1.43066 v 0.84961 q 0.20997,-0.46875 0.64454,-0.72266 0.43456,-0.25878 1.01562,-0.25878 0.29297,0 0.57129,0.0732 0.2832,0.0684 0.53711,0.20508 z" />
      <path
         id="path3638"
         style="font-style:normal;font-variant:normal;font-weight:bold;font-stretch:normal;font-size:medium;line-height:125%;font-family:monospace;-inkscape-font-specification:'monospace Bold';text-align:center;letter-spacing:0px;word-spacing:0px;text-anchor:middle;fill:#bbae00;fill-opacity:1;stroke:none;stroke-width:0.75px;stroke-linecap:butt;stroke-linejoin:miter;stroke-opacity:1"
         d="m 225.25823,338.93116 v -7.29004 h 1.44043 v 6.0205 h 3.08105 v 1.26954 z" />
      <path
         id="path3640"
         style="font-style:normal;font-variant:normal;font-weight:bold;font-stretch:normal;font-size:medium;line-height:125%;font-family:monospace;-inkscape-font-specification:'monospace Bold';text-align:center;letter-spacing:0px;word-spacing:0px;text-anchor:middle;fill:#bbae00;fill-opacity:1;stroke:none;stroke-width:0.75px;stroke-linecap:butt;stroke-linejoin:miter;stroke-opacity:1"
         d="m 233.59319,336.3628 q -0.80078,0 -1.11816,0.20508 -0.31738,0.20508 -0.31738,0.70312 0,0.37109 0.21972,0.59082 0.21973,0.21973 0.59571,0.21973 0.5664,0 0.8789,-0.42481 0.3125,-0.42968 0.3125,-1.19629 v -0.0976 z m 1.99219,-0.55176 v 3.12012 h -1.4209 v -0.61035 q -0.25878,0.36132 -0.66406,0.55664 -0.40527,0.19531 -0.89356,0.19531 -0.93262,0 -1.45507,-0.49317 -0.51758,-0.49316 -0.51758,-1.37694 0,-0.95704 0.62012,-1.41114 0.62011,-0.45898 1.91894,-0.45898 h 0.99121 v -0.23926 q 0,-0.34668 -0.2539,-0.52246 -0.24903,-0.18066 -0.73731,-0.18066 -0.51269,0 -0.99609,0.13183 -0.47852,0.12695 -1.00098,0.41015 v -1.2207 q 0.47363,-0.19531 0.96191,-0.28809 0.48829,-0.0928 1.03516,-0.0928 1.33301,0 1.87012,0.54198 0.54199,0.542 0.54199,1.93848 z" />
      <path
         id="path3642"
         style="font-style:normal;font-variant:normal;font-weight:bold;font-stretch:normal;font-size:medium;line-height:125%;font-family:monospace;-inkscape-font-specification:'monospace Bold';text-align:center;letter-spacing:0px;word-spacing:0px;text-anchor:middle;fill:#bbae00;fill-opacity:1;stroke:none;stroke-width:0.75px;stroke-linecap:butt;stroke-linejoin:miter;stroke-opacity:1"
         d="m 236.97209,337.02198 v -3.55957 h 1.43067 v 3.33984 q 0,0.59082 0.16602,0.84473 0.16601,0.2539 0.55176,0.2539 0.38574,0 0.60058,-0.34179 0.21973,-0.3418 0.21973,-0.95704 v -3.13964 h 1.43066 v 5.46875 h -1.43066 v -0.81055 q -0.15137,0.4541 -0.51758,0.70312 -0.36133,0.24903 -0.87402,0.24903 -0.78126,0 -1.18164,-0.51758 -0.39552,-0.51757 -0.39552,-1.5332 z" />
      <path
         id="path3644"
         style="font-style:normal;font-variant:normal;font-weight:bold;font-stretch:normal;font-size:medium;line-height:125%;font-family:monospace;-inkscape-font-specification:'monospace Bold';text-align:center;letter-spacing:0px;word-spacing:0px;text-anchor:middle;fill:#bbae00;fill-opacity:1;stroke:none;stroke-width:0.75px;stroke-linecap:butt;stroke-linejoin:miter;stroke-opacity:1"
         d="m 245.57561,331.90967 v 1.55274 h 1.87012 v 1.09863 h -1.87012 v 2.58789 q 0,0.36621 0.17578,0.52735 0.18067,0.15625 0.5957,0.15625 h 1.09864 v 1.09863 h -1.20117 q -1.23047,0 -1.66504,-0.39063 -0.43457,-0.3955 -0.43457,-1.45996 v -2.51953 h -1.39648 v -1.09863 h 1.39648 v -1.55274 z" />
      <path
         id="path3646"
         style="font-style:normal;font-variant:normal;font-weight:bold;font-stretch:normal;font-size:medium;line-height:125%;font-family:monospace;-inkscape-font-specification:'monospace Bold';text-align:center;letter-spacing:0px;word-spacing:0px;text-anchor:middle;fill:#bbae00;fill-opacity:1;stroke:none;stroke-width:0.75px;stroke-linecap:butt;stroke-linejoin:miter;stroke-opacity:1"
         d="m 253.06097,333.63331 v 1.25 q -0.39551,-0.25391 -0.8252,-0.38086 -0.42481,-0.13184 -0.85449,-0.13184 -0.47851,0 -0.72266,0.14161 -0.24414,0.13671 -0.24414,0.41015 0,0.39062 1.04492,0.63477 l 0.0537,0.0146 0.41015,0.0977 q 0.78126,0.18555 1.14258,0.6006 0.36621,0.41015 0.36621,1.11327 0,0.84473 -0.55664,1.26954 -0.55175,0.41991 -1.66504,0.41991 -0.49316,0 -1.01073,-0.0879 -0.51759,-0.083 -1.04981,-0.25391 v -1.25 q 0.47363,0.26855 0.96191,0.41015 0.49317,0.14161 0.95215,0.14161 0.50293,0 0.76172,-0.14649 0.25879,-0.14648 0.25879,-0.4248 0,-0.27344 -0.18555,-0.41992 -0.18066,-0.14649 -0.86914,-0.31251 l -0.39551,-0.0879 q -0.82031,-0.18555 -1.19629,-0.58106 -0.37597,-0.39551 -0.37597,-1.05957 0,-0.79101 0.57129,-1.23047 0.57129,-0.43945 1.60644,-0.43945 0.46387,0 0.92285,0.0781 0.46387,0.0733 0.89844,0.22461 z" />
      <path
         id="path3648"
         style="font-style:normal;font-variant:normal;font-weight:bold;font-stretch:normal;font-size:medium;line-height:125%;font-family:monospace;-inkscape-font-specification:'monospace Bold';text-align:center;letter-spacing:0px;word-spacing:0px;text-anchor:middle;fill:#bbae00;fill-opacity:1;stroke:none;stroke-width:0.75px;stroke-linecap:butt;stroke-linejoin:miter;stroke-opacity:1"
         d="m 256.39592,338.15968 v 2.85156 h -1.42578 v -7.54883 h 1.42578 v 0.82031 q 0.22461,-0.47363 0.59082,-0.71289 0.36621,-0.23925 0.85938,-0.23925 0.9375,0 1.45508,0.75195 0.51757,0.75195 0.51757,2.11914 0,1.38672 -0.52734,2.1289 -0.52246,0.74219 -1.49414,0.74219 -0.43945,0 -0.79102,-0.22461 -0.34668,-0.22949 -0.61035,-0.68847 z m 1.99219,-1.96778 q 0,-0.79102 -0.26367,-1.24024 -0.26368,-0.44921 -0.72754,-0.44921 -0.46386,0 -0.73242,0.44921 -0.26856,0.44922 -0.26856,1.24024 0,0.79102 0.26856,1.24023 0.26856,0.44922 0.73242,0.44922 0.46386,0 0.72754,-0.44922 0.26367,-0.44921 0.26367,-1.24023 z" />
      <path
         id="path3650"
         style="font-style:normal;font-variant:normal;font-weight:bold;font-stretch:normal;font-size:medium;line-height:125%;font-family:monospace;-inkscape-font-specification:'monospace Bold';text-align:center;letter-spacing:0px;word-spacing:0px;text-anchor:middle;fill:#bbae00;fill-opacity:1;stroke:none;stroke-width:0.75px;stroke-linecap:butt;stroke-linejoin:miter;stroke-opacity:1"
         d="m 265.87346,334.9712 q -0.23437,-0.21484 -0.55176,-0.32227 -0.31249,-0.10742 -0.68847,-0.10742 -0.4541,0 -0.7959,0.16113 -0.33691,0.15626 -0.52246,0.45899 -0.11719,0.18555 -0.16601,0.44922 -0.0439,0.26367 -0.0439,0.80078 v 2.51953 h -1.43067 v -5.46875 h 1.43067 v 0.84961 q 0.20996,-0.46875 0.64453,-0.72266 0.43457,-0.25878 1.01563,-0.25878 0.29296,0 0.57128,0.0732 0.28321,0.0684 0.53711,0.20508 z" />
      <path
         id="path3652"
         style="font-style:normal;font-variant:normal;font-weight:bold;font-stretch:normal;font-size:medium;line-height:125%;font-family:monospace;-inkscape-font-specification:'monospace Bold';text-align:center;letter-spacing:0px;word-spacing:0px;text-anchor:middle;fill:#bbae00;fill-opacity:1;stroke:none;stroke-width:0.75px;stroke-linecap:butt;stroke-linejoin:miter;stroke-opacity:1"
         d="m 271.64983,338.6626 q -0.49805,0.20508 -1.01563,0.30762 -0.51757,0.10254 -1.09375,0.10254 -1.37207,0 -2.09961,-0.73242 -0.72265,-0.73731 -0.72265,-2.11914 0,-1.33789 0.69824,-2.11426 0.69824,-0.77636 1.9043,-0.77636 1.21581,0 1.88476,0.72265 0.67383,0.71777 0.67383,2.02637 v 0.58105 h -3.70606 q 0.005,0.64453 0.38086,0.96191 0.37598,0.31739 1.12305,0.31739 0.49316,0 0.97168,-0.1416 0.47851,-0.14161 1.00098,-0.44922 z m -1.21094,-3.07617 q -0.01,-0.5664 -0.29297,-0.85449 -0.27832,-0.29297 -0.82519,-0.29297 -0.49317,0 -0.78614,0.30274 -0.29296,0.29785 -0.34668,0.84961 z" />
      <path
         id="path3654"
         style="font-style:normal;font-variant:normal;font-weight:bold;font-stretch:normal;font-size:medium;line-height:125%;font-family:monospace;-inkscape-font-specification:'monospace Bold';text-align:center;letter-spacing:0px;word-spacing:0px;text-anchor:middle;fill:#bbae00;fill-opacity:1;stroke:none;stroke-width:0.75px;stroke-linecap:butt;stroke-linejoin:miter;stroke-opacity:1"
         d="m 277.46526,338.65284 q -0.36133,0.20996 -0.77637,0.3125 -0.41503,0.10742 -0.89356,0.10742 -1.26464,0 -1.97753,-0.76172 -0.71289,-0.76172 -0.71289,-2.10937 0,-1.35255 0.71777,-2.11426 0.71778,-0.76661 1.98243,-0.76661 0.43944,0 0.84472,0.10254 0.41015,0.10254 0.81543,0.31739 v 1.30859 q -0.3125,-0.26855 -0.68848,-0.41015 -0.37109,-0.14649 -0.77148,-0.14649 -0.69825,0 -1.07422,0.44434 -0.37598,0.44433 -0.37598,1.26465 0,0.82031 0.37598,1.25976 0.37597,0.43945 1.07422,0.43945 0.41504,0 0.77637,-0.13672 0.36132,-0.1416 0.68359,-0.4248 z" />
      <path
         id="path3656"
         style="font-style:normal;font-variant:normal;font-weight:bold;font-stretch:normal;font-size:medium;line-height:125%;font-family:monospace;-inkscape-font-specification:'monospace Bold';text-align:center;letter-spacing:0px;word-spacing:0px;text-anchor:middle;fill:#bbae00;fill-opacity:1;stroke:none;stroke-width:0.75px;stroke-linecap:butt;stroke-linejoin:miter;stroke-opacity:1"
         d="m 283.52971,335.38135 v 3.54981 h -1.4209 v -3.33008 q 0,-0.59082 -0.1709,-0.84472 -0.16601,-0.25391 -0.54687,-0.25391 -0.39063,0 -0.61035,0.34667 -0.21973,0.3418 -0.21973,0.95216 v 3.12988 h -1.4209 v -7.59766 h 1.4209 v 2.94922 q 0.15137,-0.4541 0.51758,-0.70312 0.36621,-0.24902 0.88379,-0.24902 0.77636,0 1.17187,0.51757 0.39551,0.51269 0.39551,1.5332 z" />
      <path
         id="path3658"
         style="font-style:normal;font-variant:normal;font-weight:bold;font-stretch:normal;font-size:medium;line-height:125%;font-family:monospace;-inkscape-font-specification:'monospace Bold';text-align:center;letter-spacing:0px;word-spacing:0px;text-anchor:middle;fill:#bbae00;fill-opacity:1;stroke:none;stroke-width:0.75px;stroke-linecap:butt;stroke-linejoin:miter;stroke-opacity:1"
         d="m 289.69671,338.6626 q -0.49805,0.20508 -1.01562,0.30762 -0.51758,0.10254 -1.09375,0.10254 -1.37207,0 -2.09961,-0.73242 -0.72266,-0.73731 -0.72266,-2.11914 0,-1.33789 0.69825,-2.11426 0.69823,-0.77636 1.90429,-0.77636 1.21582,0 1.88477,0.72265 0.67383,0.71777 0.67383,2.02637 v 0.58105 h -3.70606 q 0.005,0.64453 0.38086,0.96191 0.37597,0.31739 1.12305,0.31739 0.49316,0 0.97167,-0.1416 0.47852,-0.14161 1.00098,-0.44922 z m -1.21094,-3.07617 q -0.01,-0.5664 -0.29296,-0.85449 -0.27833,-0.29297 -0.8252,-0.29297 -0.49316,0 -0.78613,0.30274 -0.29297,0.29785 -0.34668,0.84961 z" />
      <path
         id="path3660"
         style="font-style:normal;font-variant:normal;font-weight:bold;font-stretch:normal;font-size:medium;line-height:125%;font-family:monospace;-inkscape-font-specification:'monospace Bold';text-align:center;letter-spacing:0px;word-spacing:0px;text-anchor:middle;fill:#bbae00;fill-opacity:1;stroke:none;stroke-width:0.75px;stroke-linecap:butt;stroke-linejoin:miter;stroke-opacity:1"
         d="m 295.95159,334.9712 q -0.23438,-0.21484 -0.55176,-0.32227 -0.3125,-0.10742 -0.68847,-0.10742 -0.45411,0 -0.7959,0.16113 -0.33692,0.15626 -0.52246,0.45899 -0.11719,0.18555 -0.16602,0.44922 -0.044,0.26367 -0.044,0.80078 v 2.51953 h -1.43066 v -5.46875 h 1.43066 v 0.84961 q 0.20996,-0.46875 0.64453,-0.72266 0.43457,-0.25878 1.01562,-0.25878 0.29298,0 0.57129,0.0732 0.2832,0.0684 0.53711,0.20508 z" />
      <path
         id="path3662"
         style="font-style:normal;font-variant:normal;font-weight:bold;font-stretch:normal;font-size:medium;line-height:125%;font-family:monospace;-inkscape-font-specification:'monospace Bold';text-align:center;letter-spacing:0px;word-spacing:0px;text-anchor:middle;fill:#bbae00;fill-opacity:1;stroke:none;stroke-width:0.75px;stroke-linecap:butt;stroke-linejoin:miter;stroke-opacity:1"
         d="m 307.99261,333.46241 -1.73828,5.46875 h -1.7627 l -1.73828,-5.46875 h 1.45019 l 1.167,4.26758 1.17187,-4.26758 z" />
      <path
         id="path3664"
         style="font-style:normal;font-variant:normal;font-weight:bold;font-stretch:normal;font-size:medium;line-height:125%;font-family:monospace;-inkscape-font-specification:'monospace Bold';text-align:center;letter-spacing:0px;word-spacing:0px;text-anchor:middle;fill:#bbae00;fill-opacity:1;stroke:none;stroke-width:0.75px;stroke-linecap:butt;stroke-linejoin:miter;stroke-opacity:1"
         d="m 311.38616,334.49268 q -0.51269,0 -0.80567,0.4541 -0.29296,0.44922 -0.29296,1.25489 0,0.80566 0.29296,1.25976 0.29298,0.44922 0.80567,0.44922 0.51758,0 0.81055,-0.44922 0.29297,-0.4541 0.29297,-1.25976 0,-0.80567 -0.29297,-1.25489 -0.29297,-0.4541 -0.81055,-0.4541 z m -2.52929,1.70899 q 0,-1.32324 0.68358,-2.09473 0.68848,-0.77636 1.84571,-0.77636 1.16211,0 1.8457,0.77636 0.68848,0.77149 0.68848,2.09473 0,1.32324 -0.68848,2.09961 -0.68359,0.77148 -1.8457,0.77148 -1.15723,0 -1.84571,-0.77148 -0.68358,-0.77637 -0.68358,-2.09961 z" />
      <path
         id="path3666"
         style="font-style:normal;font-variant:normal;font-weight:bold;font-stretch:normal;font-size:medium;line-height:125%;font-family:monospace;-inkscape-font-specification:'monospace Bold';text-align:center;letter-spacing:0px;word-spacing:0px;text-anchor:middle;fill:#bbae00;fill-opacity:1;stroke:none;stroke-width:0.75px;stroke-linecap:butt;stroke-linejoin:miter;stroke-opacity:1"
         d="m 317.76311,334.00928 q 0.16113,-0.34668 0.41016,-0.51269 0.24902,-0.16601 0.61035,-0.16601 0.70801,0 0.97656,0.48828 0.27343,0.48828 0.27343,2.03124 v 3.08106 h -1.17187 v -3.51075 q 0,-0.61035 -0.0928,-0.81543 -0.0928,-0.20507 -0.33691,-0.20507 -0.24414,0 -0.3418,0.20996 -0.0977,0.20996 -0.0977,0.81054 v 3.51075 h -1.15723 v -3.51075 q 0,-0.60058 -0.0976,-0.81054 -0.0977,-0.20996 -0.3418,-0.20996 -0.24414,0 -0.33691,0.20507 -0.0928,0.20508 -0.0928,0.81543 v 3.51075 h -1.17188 v -5.46875 h 1.04004 v 0.5664 q 0.12207,-0.32226 0.39062,-0.50781 0.26856,-0.19042 0.60059,-0.19042 0.33203,0 0.60547,0.20019 0.27344,0.19531 0.33203,0.47851 z" />
      <path
         id="path3668"
         style="font-style:normal;font-variant:normal;font-weight:bold;font-stretch:normal;font-size:medium;line-height:125%;font-family:monospace;-inkscape-font-specification:'monospace Bold';text-align:center;letter-spacing:0px;word-spacing:0px;text-anchor:middle;fill:#bbae00;fill-opacity:1;stroke:none;stroke-width:0.75px;stroke-linecap:butt;stroke-linejoin:miter;stroke-opacity:1"
         d="m 330.15569,338.93116 h -1.44043 v -6.03027 h -1.85059 v -1.25977 h 5.14161 v 1.25977 h -1.85059 z" />
      <path
         id="path3670"
         style="font-style:normal;font-variant:normal;font-weight:bold;font-stretch:normal;font-size:medium;line-height:125%;font-family:monospace;-inkscape-font-specification:'monospace Bold';text-align:center;letter-spacing:0px;word-spacing:0px;text-anchor:middle;fill:#bbae00;fill-opacity:1;stroke:none;stroke-width:0.75px;stroke-linecap:butt;stroke-linejoin:miter;stroke-opacity:1"
         d="m 335.91252,339.52198 q -0.28808,0.77148 -0.69336,1.12305 -0.40038,0.35644 -0.97656,0.35644 h -1.18164 v -1.08886 h 0.58106 q 0.43945,0 0.64453,-0.15138 0.20508,-0.14648 0.41504,-0.68847 l 0.10742,-0.29297 -2.08008,-5.31738 h 1.50391 l 1.24999,3.5498 1.1963,-3.5498 h 1.5039 z" />
      <path
         id="path3672"
         style="font-style:normal;font-variant:normal;font-weight:bold;font-stretch:normal;font-size:medium;line-height:125%;font-family:monospace;-inkscape-font-specification:'monospace Bold';text-align:center;letter-spacing:0px;word-spacing:0px;text-anchor:middle;fill:#bbae00;fill-opacity:1;stroke:none;stroke-width:0.75px;stroke-linecap:butt;stroke-linejoin:miter;stroke-opacity:1"
         d="m 340.61467,338.15968 v 2.85156 h -1.42579 v -7.54883 h 1.42579 v 0.82031 q 0.22461,-0.47363 0.59082,-0.71289 0.36621,-0.23925 0.85937,-0.23925 0.9375,0 1.45508,0.75195 0.51758,0.75195 0.51758,2.11914 0,1.38672 -0.52735,2.1289 -0.52245,0.74219 -1.49413,0.74219 -0.43946,0 -0.79102,-0.22461 -0.34668,-0.22949 -0.61035,-0.68847 z m 1.99219,-1.96778 q 0,-0.79102 -0.26368,-1.24024 -0.26367,-0.44921 -0.72754,-0.44921 -0.46386,0 -0.73242,0.44921 -0.26855,0.44922 -0.26855,1.24024 0,0.79102 0.26855,1.24023 0.26856,0.44922 0.73242,0.44922 0.46387,0 0.72754,-0.44922 0.26368,-0.44921 0.26368,-1.24023 z" />
      <path
         id="path3674"
         style="font-style:normal;font-variant:normal;font-weight:bold;font-stretch:normal;font-size:medium;line-height:125%;font-family:monospace;-inkscape-font-specification:'monospace Bold';text-align:center;letter-spacing:0px;word-spacing:0px;text-anchor:middle;fill:#bbae00;fill-opacity:1;stroke:none;stroke-width:0.75px;stroke-linecap:butt;stroke-linejoin:miter;stroke-opacity:1"
         d="m 353.49553,337.72999 1.28418,-6.08887 h 1.45019 l -1.73339,7.29004 h -1.99707 l -1.7334,-7.29004 h 1.45019 z" />
      <path
         id="path3676"
         style="font-style:normal;font-variant:normal;font-weight:bold;font-stretch:normal;font-size:medium;line-height:125%;font-family:monospace;-inkscape-font-specification:'monospace Bold';text-align:center;letter-spacing:0px;word-spacing:0px;text-anchor:middle;fill:#bbae00;fill-opacity:1;stroke:none;stroke-width:0.75px;stroke-linecap:butt;stroke-linejoin:miter;stroke-opacity:1"
         d="m 357.58244,333.46241 h 2.83204 v 4.37012 h 1.77734 v 1.09863 h -4.99024 v -1.09863 h 1.78223 v -3.27149 h -1.40137 z m 1.40137,-2.66113 h 1.43067 v 1.66992 h -1.43067 z" />
      <path
         id="path3678"
         style="font-style:normal;font-variant:normal;font-weight:bold;font-stretch:normal;font-size:medium;line-height:125%;font-family:monospace;-inkscape-font-specification:'monospace Bold';text-align:center;letter-spacing:0px;word-spacing:0px;text-anchor:middle;fill:#bbae00;fill-opacity:1;stroke:none;stroke-width:0.75px;stroke-linecap:butt;stroke-linejoin:miter;stroke-opacity:1"
         d="m 367.35784,333.63331 v 1.25 q -0.39551,-0.25391 -0.82519,-0.38086 -0.42481,-0.13184 -0.8545,-0.13184 -0.47852,0 -0.72266,0.14161 -0.24414,0.13671 -0.24414,0.41015 0,0.39062 1.04493,0.63477 l 0.0537,0.0146 0.41015,0.0977 q 0.78125,0.18555 1.14258,0.6006 0.36621,0.41015 0.36621,1.11327 0,0.84473 -0.55664,1.26954 -0.55176,0.41991 -1.66504,0.41991 -0.49316,0 -1.01075,-0.0879 -0.51757,-0.083 -1.0498,-0.25391 v -1.25 q 0.47363,0.26855 0.96192,0.41015 0.49316,0.14161 0.95215,0.14161 0.50292,0 0.76171,-0.14649 0.25879,-0.14648 0.25879,-0.4248 0,-0.27344 -0.18554,-0.41992 -0.18067,-0.14649 -0.86915,-0.31251 l -0.3955,-0.0879 q -0.82032,-0.18555 -1.19629,-0.58106 -0.37598,-0.39551 -0.37598,-1.05957 0,-0.79101 0.57129,-1.23047 0.57129,-0.43945 1.60644,-0.43945 0.46387,0 0.92286,0.0781 0.46386,0.0733 0.89844,0.22461 z" />
      <path
         id="path3680"
         style="font-style:normal;font-variant:normal;font-weight:bold;font-stretch:normal;font-size:medium;line-height:125%;font-family:monospace;-inkscape-font-specification:'monospace Bold';text-align:center;letter-spacing:0px;word-spacing:0px;text-anchor:middle;fill:#bbae00;fill-opacity:1;stroke:none;stroke-width:0.75px;stroke-linecap:butt;stroke-linejoin:miter;stroke-opacity:1"
         d="m 371.95257,336.3628 q -0.80079,0 -1.11817,0.20508 -0.31739,0.20508 -0.31739,0.70312 0,0.37109 0.21973,0.59082 0.21973,0.21973 0.5957,0.21973 0.56641,0 0.87891,-0.42481 0.3125,-0.42968 0.3125,-1.19629 v -0.0976 z m 1.99218,-0.55176 v 3.12012 h -1.4209 v -0.61035 q -0.25879,0.36132 -0.66406,0.55664 -0.40528,0.19531 -0.89356,0.19531 -0.93261,0 -1.45507,-0.49317 -0.51758,-0.49316 -0.51758,-1.37694 0,-0.95704 0.62012,-1.41114 0.62011,-0.45898 1.91894,-0.45898 h 0.99121 v -0.23926 q 0,-0.34668 -0.25391,-0.52246 -0.24902,-0.18066 -0.7373,-0.18066 -0.51269,0 -0.9961,0.13183 -0.47851,0.12695 -1.00097,0.41015 v -1.2207 q 0.47363,-0.19531 0.96191,-0.28809 0.48828,-0.0928 1.03516,-0.0928 1.33301,0 1.87012,0.54198 0.54199,0.542 0.54199,1.93848 z" />
      <path
         id="path3682"
         style="font-style:normal;font-variant:normal;font-weight:bold;font-stretch:normal;font-size:medium;line-height:125%;font-family:monospace;-inkscape-font-specification:'monospace Bold';text-align:center;letter-spacing:0px;word-spacing:0px;text-anchor:middle;fill:#bbae00;fill-opacity:1;stroke:none;stroke-width:0.75px;stroke-linecap:butt;stroke-linejoin:miter;stroke-opacity:1"
         d="m 377.91936,331.90967 v 1.55274 h 1.87012 v 1.09863 h -1.87012 v 2.58789 q 0,0.36621 0.17579,0.52735 0.18066,0.15625 0.5957,0.15625 h 1.09863 v 1.09863 h -1.20117 q -1.23046,0 -1.66504,-0.39063 -0.43457,-0.3955 -0.43457,-1.45996 v -2.51953 h -1.39648 v -1.09863 h 1.39648 v -1.55274 z" />
      <path
         id="path3684"
         style="font-style:normal;font-variant:normal;font-weight:bold;font-stretch:normal;font-size:medium;line-height:125%;font-family:monospace;-inkscape-font-specification:'monospace Bold';text-align:center;letter-spacing:0px;word-spacing:0px;text-anchor:middle;fill:#bbae00;fill-opacity:1;stroke:none;stroke-width:0.75px;stroke-linecap:butt;stroke-linejoin:miter;stroke-opacity:1"
         d="m 383.57365,334.49268 q -0.5127,0 -0.80566,0.4541 -0.29298,0.44922 -0.29298,1.25489 0,0.80566 0.29298,1.25976 0.29296,0.44922 0.80566,0.44922 0.51758,0 0.81055,-0.44922 0.29296,-0.4541 0.29296,-1.25976 0,-0.80567 -0.29296,-1.25489 -0.29297,-0.4541 -0.81055,-0.4541 z m -2.5293,1.70899 q 0,-1.32324 0.6836,-2.09473 0.68847,-0.77636 1.8457,-0.77636 1.16211,0 1.8457,0.77636 0.68848,0.77149 0.68848,2.09473 0,1.32324 -0.68848,2.09961 -0.68359,0.77148 -1.8457,0.77148 -1.15723,0 -1.8457,-0.77148 -0.6836,-0.77637 -0.6836,-2.09961 z" />
      <path
         id="path3686"
         style="font-style:normal;font-variant:normal;font-weight:bold;font-stretch:normal;font-size:medium;line-height:125%;font-family:monospace;-inkscape-font-specification:'monospace Bold';text-align:center;letter-spacing:0px;word-spacing:0px;text-anchor:middle;fill:#bbae00;fill-opacity:1;stroke:none;stroke-width:0.75px;stroke-linecap:butt;stroke-linejoin:miter;stroke-opacity:1"
         d="m 391.81096,335.38135 v 3.54981 h -1.4209 v -3.33008 q 0,-0.5957 -0.1709,-0.84961 -0.16601,-0.25879 -0.54687,-0.25879 -0.38575,0 -0.61035,0.34668 -0.21973,0.34668 -0.21973,0.96192 v 3.12988 h -1.42089 v -5.46875 h 1.42089 v 0.82031 q 0.15137,-0.4541 0.51758,-0.70312 0.36621,-0.24902 0.88379,-0.24902 0.77636,0 1.17188,0.51757 0.3955,0.51269 0.3955,1.5332 z" />
      <path
         id="path3688"
         style="font-style:normal;font-variant:normal;font-weight:bold;font-stretch:normal;font-size:medium;line-height:125%;font-family:monospace;-inkscape-font-specification:'monospace Bold';text-align:center;letter-spacing:0px;word-spacing:0px;text-anchor:middle;fill:#bbae00;fill-opacity:1;stroke:none;stroke-width:0.75px;stroke-linecap:butt;stroke-linejoin:miter;stroke-opacity:1"
         d="m 399.184,331.64112 h 1.44043 v 2.88086 l 2.25586,-2.88086 h 1.63086 l -2.2998,2.8711 2.38281,4.41894 h -1.60157 l -1.72851,-3.28125 -0.63965,0.81054 v 2.47071 H 399.184 Z" />
      <path
         id="path3690"
         style="font-style:normal;font-variant:normal;font-weight:bold;font-stretch:normal;font-size:medium;line-height:125%;font-family:monospace;-inkscape-font-specification:'monospace Bold';text-align:center;letter-spacing:0px;word-spacing:0px;text-anchor:middle;fill:#bbae00;fill-opacity:1;stroke:none;stroke-width:0.75px;stroke-linecap:butt;stroke-linejoin:miter;stroke-opacity:1"
         d="m 411.58636,331.64112 h 3.95996 v 1.26953 h -2.79297 v 1.35254 q 0.17578,-0.0683 0.37598,-0.0976 0.2002,-0.0342 0.42481,-0.0342 1.08398,0 1.75781,0.68359 0.67382,0.6836 0.67382,1.77734 0,1.14747 -0.73242,1.81641 -0.72754,0.66406 -1.9873,0.66406 -0.46875,0 -0.94727,-0.0781 -0.47851,-0.0781 -0.97656,-0.23437 v -1.29883 q 0.40527,0.20019 0.83008,0.30273 0.42968,0.0977 0.85937,0.0977 0.76172,0 1.15723,-0.32227 0.3955,-0.32714 0.3955,-0.94727 0,-0.57129 -0.3955,-0.91308 -0.39062,-0.34668 -1.04492,-0.34668 -0.38574,0 -0.77637,0.0976 -0.38574,0.0928 -0.78125,0.28321 z" />
      <path
         id="path3692"
         style="font-style:normal;font-variant:normal;font-weight:bold;font-stretch:normal;font-size:medium;line-height:125%;font-family:monospace;-inkscape-font-specification:'monospace Bold';text-align:center;letter-spacing:0px;word-spacing:0px;text-anchor:middle;fill:#bbae00;fill-opacity:1;stroke:none;stroke-width:0.75px;stroke-linecap:butt;stroke-linejoin:miter;stroke-opacity:1"
         d="m 419.06193,335.29346 q 0,-0.25879 0.17578,-0.43456 0.17579,-0.17579 0.42969,-0.17579 0.25879,0 0.43457,0.17579 0.17578,0.17577 0.17578,0.43456 0,0.25391 -0.17578,0.42969 -0.17578,0.17578 -0.43457,0.17578 -0.2539,0 -0.42969,-0.1709 -0.17578,-0.17578 -0.17578,-0.43457 z m 0.60547,-2.56348 q -0.49805,0 -0.72754,0.61036 -0.22949,0.61035 -0.22949,1.95312 0,1.3379 0.22949,1.94825 0.22949,0.61035 0.72754,0.61035 0.50293,0 0.73242,-0.61035 0.22949,-0.61035 0.22949,-1.94825 0,-1.34277 -0.22949,-1.95312 -0.22949,-0.61036 -0.73242,-0.61036 z m -2.40723,2.56348 q 0,-1.89453 0.60059,-2.83691 0.60058,-0.94727 1.80664,-0.94727 1.21094,0 1.81152,0.94239 0.60059,0.94238 0.60059,2.84179 0,1.89453 -0.60059,2.83691 -0.60058,0.94239 -1.81152,0.94239 -1.20606,0 -1.80664,-0.94239 -0.60059,-0.94726 -0.60059,-2.83691 z" />
      <path
         id="path3694"
         style="font-style:normal;font-variant:normal;font-weight:bold;font-stretch:normal;font-size:medium;line-height:125%;font-family:monospace;-inkscape-font-specification:'monospace Bold';text-align:center;letter-spacing:0px;word-spacing:0px;text-anchor:middle;fill:#bbae00;fill-opacity:1;stroke:none;stroke-width:0.75px;stroke-linecap:butt;stroke-linejoin:miter;stroke-opacity:1"
         d="m 428.69085,331.64112 h 1.25976 l 0.52247,5.35156 0.62988,-3.46191 h 1.19629 l 0.73242,3.46191 0.41016,-5.35156 h 1.26953 l -0.83984,7.29004 h -1.34278 l -0.83008,-3.82812 -0.77636,3.82812 h -1.33301 z" />
      <path
         id="path3696"
         style="font-style:normal;font-variant:normal;font-weight:bold;font-stretch:normal;font-size:medium;line-height:125%;font-family:monospace;-inkscape-font-specification:'monospace Bold';text-align:center;letter-spacing:0px;word-spacing:0px;text-anchor:middle;fill:#bbae00;fill-opacity:1;stroke:none;stroke-width:0.75px;stroke-linecap:butt;stroke-linejoin:miter;stroke-opacity:1"
         d="m 436.93791,332.85205 v 2.13868 h 0.59082 q 0.708,0 0.99121,-0.23926 0.28808,-0.23925 0.28808,-0.83007 0,-0.59082 -0.28808,-0.83009 -0.28321,-0.23926 -0.99121,-0.23926 z m -1.44043,-1.21093 h 1.97754 q 1.50878,0 2.16796,0.53711 0.66407,0.53711 0.66407,1.74317 0,1.20605 -0.66407,1.74315 -0.65918,0.53712 -2.16796,0.53712 h -0.53711 v 2.72949 h -1.44043 z" />
    </g>
    <g
       transform="matrix(0.35277777,0,0,0.35277777,7.5146137,-0.09532315)"
       id="g4332">
      <path
         id="path3698"
         style="font-style:normal;font-variant:normal;font-weight:bold;font-stretch:normal;font-size:medium;line-height:125%;font-family:monospace;-inkscape-font-specification:'monospace Bold';text-align:center;letter-spacing:0px;word-spacing:0px;text-anchor:middle;fill:#bbae00;fill-opacity:1;stroke:none;stroke-width:0.75px;stroke-linecap:butt;stroke-linejoin:miter;stroke-opacity:1"
         d="m 254.64788,348.86279 q -0.80079,0 -1.11816,0.20508 -0.31739,0.20508 -0.31739,0.70313 0,0.37109 0.21973,0.59082 0.21973,0.21972 0.5957,0.21972 0.56641,0 0.87891,-0.4248 0.3125,-0.42969 0.3125,-1.19629 v -0.0977 z m 1.99218,-0.55176 v 3.12012 h -1.42089 v -0.61035 q -0.25879,0.36133 -0.66406,0.55664 -0.40528,0.19531 -0.89356,0.19531 -0.93262,0 -1.45508,-0.49316 -0.51758,-0.49316 -0.51758,-1.37696 0,-0.95703 0.62012,-1.41113 0.62012,-0.45898 1.91895,-0.45898 h 0.99121 v -0.23926 q 0,-0.34668 -0.25391,-0.52246 -0.24902,-0.18067 -0.7373,-0.18067 -0.5127,0 -0.9961,0.13184 -0.47851,0.12695 -1.00097,0.41016 v -1.22071 q 0.47363,-0.19531 0.96191,-0.28808 0.48828,-0.0928 1.03516,-0.0928 1.333,0 1.87012,0.542 0.54198,0.54199 0.54198,1.93847 z" />
      <path
         id="path3700"
         style="font-style:normal;font-variant:normal;font-weight:bold;font-stretch:normal;font-size:medium;line-height:125%;font-family:monospace;-inkscape-font-specification:'monospace Bold';text-align:center;letter-spacing:0px;word-spacing:0px;text-anchor:middle;fill:#bbae00;fill-opacity:1;stroke:none;stroke-width:0.75px;stroke-linecap:butt;stroke-linejoin:miter;stroke-opacity:1"
         d="m 258.02678,349.52197 v -3.55957 h 1.43067 v 3.33985 q 0,0.59082 0.16602,0.84472 0.16601,0.25391 0.55175,0.25391 0.38575,0 0.60059,-0.3418 0.21972,-0.3418 0.21972,-0.95703 v -3.13965 h 1.43067 v 5.46875 h -1.43067 v -0.81055 q -0.15136,0.45411 -0.51757,0.70313 -0.36133,0.24902 -0.87402,0.24902 -0.78126,0 -1.18165,-0.51757 -0.39551,-0.51759 -0.39551,-1.53321 z" />
      <path
         id="path3702"
         style="font-style:normal;font-variant:normal;font-weight:bold;font-stretch:normal;font-size:medium;line-height:125%;font-family:monospace;-inkscape-font-specification:'monospace Bold';text-align:center;letter-spacing:0px;word-spacing:0px;text-anchor:middle;fill:#bbae00;fill-opacity:1;stroke:none;stroke-width:0.75px;stroke-linecap:butt;stroke-linejoin:miter;stroke-opacity:1"
         d="m 268.10003,346.1333 v 1.25 q -0.39551,-0.25391 -0.8252,-0.38086 -0.42481,-0.13184 -0.85449,-0.13184 -0.47851,0 -0.72265,0.1416 -0.24415,0.13672 -0.24415,0.41016 0,0.39063 1.04492,0.63477 l 0.0537,0.0146 0.41015,0.0977 q 0.78126,0.18555 1.14258,0.60058 0.36621,0.41016 0.36621,1.11329 0,0.84472 -0.55664,1.26953 -0.55175,0.41992 -1.66504,0.41992 -0.49316,0 -1.01073,-0.0879 -0.51759,-0.083 -1.04981,-0.25391 v -1.24999 q 0.47363,0.26855 0.96191,0.41015 0.49317,0.1416 0.95215,0.1416 0.50293,0 0.76172,-0.14648 0.25879,-0.14649 0.25879,-0.42481 0,-0.27344 -0.18555,-0.41992 -0.18066,-0.14648 -0.86914,-0.3125 l -0.39551,-0.0879 q -0.82031,-0.18555 -1.19629,-0.58106 -0.37597,-0.3955 -0.37597,-1.05957 0,-0.79101 0.57129,-1.23046 0.57129,-0.43946 1.60644,-0.43946 0.46387,0 0.92285,0.0781 0.46387,0.0732 0.89844,0.22461 z" />
      <path
         id="path3704"
         style="font-style:normal;font-variant:normal;font-weight:bold;font-stretch:normal;font-size:medium;line-height:125%;font-family:monospace;-inkscape-font-specification:'monospace Bold';text-align:center;letter-spacing:0px;word-spacing:0px;text-anchor:middle;fill:#bbae00;fill-opacity:1;stroke:none;stroke-width:0.75px;stroke-linecap:butt;stroke-linejoin:miter;stroke-opacity:1"
         d="m 274.11565,346.1333 v 1.25 q -0.39551,-0.25391 -0.8252,-0.38086 -0.4248,-0.13184 -0.85449,-0.13184 -0.47851,0 -0.72265,0.1416 -0.24414,0.13672 -0.24414,0.41016 0,0.39063 1.04492,0.63477 l 0.0537,0.0146 0.41016,0.0977 q 0.78125,0.18555 1.14257,0.60058 0.36622,0.41016 0.36622,1.11329 0,0.84472 -0.55664,1.26953 -0.55176,0.41992 -1.66504,0.41992 -0.49317,0 -1.01074,-0.0879 -0.51758,-0.083 -1.04981,-0.25391 v -1.24999 q 0.47363,0.26855 0.96191,0.41015 0.49317,0.1416 0.95215,0.1416 0.50294,0 0.76172,-0.14648 0.25879,-0.14649 0.25879,-0.42481 0,-0.27344 -0.18554,-0.41992 -0.18067,-0.14648 -0.86915,-0.3125 l -0.3955,-0.0879 q -0.82031,-0.18555 -1.19629,-0.58106 -0.37598,-0.3955 -0.37598,-1.05957 0,-0.79101 0.57129,-1.23046 0.57129,-0.43946 1.60645,-0.43946 0.46386,0 0.92285,0.0781 0.46387,0.0732 0.89843,0.22461 z" />
      <path
         id="path3706"
         style="font-style:normal;font-variant:normal;font-weight:bold;font-stretch:normal;font-size:medium;line-height:125%;font-family:monospace;-inkscape-font-specification:'monospace Bold';text-align:center;letter-spacing:0px;word-spacing:0px;text-anchor:middle;fill:#bbae00;fill-opacity:1;stroke:none;stroke-width:0.75px;stroke-linecap:butt;stroke-linejoin:miter;stroke-opacity:1"
         d="m 280.47308,351.15283 q -0.36134,0.20996 -0.77637,0.3125 -0.41505,0.10742 -0.89356,0.10742 -1.26464,0 -1.97754,-0.76171 -0.71289,-0.76173 -0.71289,-2.10938 0,-1.35254 0.71777,-2.11426 0.71778,-0.7666 1.98242,-0.7666 0.43946,0 0.84474,0.10254 0.41015,0.10254 0.81543,0.31738 v 1.3086 q -0.31251,-0.26856 -0.68848,-0.41016 -0.3711,-0.14649 -0.77149,-0.14649 -0.69824,0 -1.07422,0.44434 -0.37597,0.44434 -0.37597,1.26465 0,0.82031 0.37597,1.25976 0.37598,0.43946 1.07422,0.43946 0.41504,0 0.77637,-0.13672 0.36133,-0.1416 0.6836,-0.42481 z" />
      <path
         id="path3708"
         style="font-style:normal;font-variant:normal;font-weight:bold;font-stretch:normal;font-size:medium;line-height:125%;font-family:monospace;-inkscape-font-specification:'monospace Bold';text-align:center;letter-spacing:0px;word-spacing:0px;text-anchor:middle;fill:#bbae00;fill-opacity:1;stroke:none;stroke-width:0.75px;stroke-linecap:butt;stroke-linejoin:miter;stroke-opacity:1"
         d="m 286.53753,347.88135 v 3.5498 h -1.4209 v -3.33007 q 0,-0.59083 -0.1709,-0.84474 -0.16602,-0.2539 -0.54688,-0.2539 -0.39062,0 -0.61035,0.34668 -0.21972,0.3418 -0.21972,0.95215 v 3.12988 h -1.4209 v -7.59766 h 1.4209 v 2.94922 q 0.15136,-0.4541 0.51757,-0.70312 0.36621,-0.24903 0.8838,-0.24903 0.77636,0 1.17187,0.51759 0.39551,0.51269 0.39551,1.5332 z" />
      <path
         id="path3710"
         style="font-style:normal;font-variant:normal;font-weight:bold;font-stretch:normal;font-size:medium;line-height:125%;font-family:monospace;-inkscape-font-specification:'monospace Bold';text-align:center;letter-spacing:0px;word-spacing:0px;text-anchor:middle;fill:#bbae00;fill-opacity:1;stroke:none;stroke-width:0.75px;stroke-linecap:butt;stroke-linejoin:miter;stroke-opacity:1"
         d="m 292.55316,347.88135 v 3.5498 h -1.4209 v -3.33007 q 0,-0.59571 -0.1709,-0.84962 -0.16602,-0.25879 -0.54687,-0.25879 -0.38575,0 -0.61036,0.34668 -0.21973,0.34668 -0.21973,0.96192 v 3.12988 h -1.4209 v -5.46875 h 1.4209 v 0.82031 q 0.15137,-0.4541 0.51758,-0.70312 0.36621,-0.24903 0.88379,-0.24903 0.77637,0 1.17187,0.51759 0.39552,0.51269 0.39552,1.5332 z" />
      <path
         id="path3712"
         style="font-style:normal;font-variant:normal;font-weight:bold;font-stretch:normal;font-size:medium;line-height:125%;font-family:monospace;-inkscape-font-specification:'monospace Bold';text-align:center;letter-spacing:0px;word-spacing:0px;text-anchor:middle;fill:#bbae00;fill-opacity:1;stroke:none;stroke-width:0.75px;stroke-linecap:butt;stroke-linejoin:miter;stroke-opacity:1"
         d="m 298.72014,351.1626 q -0.49804,0.20507 -1.01562,0.30761 -0.51758,0.10254 -1.09375,0.10254 -1.37207,0 -2.09961,-0.73242 -0.72266,-0.7373 -0.72266,-2.11914 0,-1.33789 0.69825,-2.11426 0.69824,-0.77637 1.90429,-0.77637 1.21583,0 1.88477,0.72266 0.67383,0.71777 0.67383,2.02637 v 0.58106 h -3.70605 q 0.005,0.64452 0.38085,0.96191 0.37598,0.31738 1.12305,0.31738 0.49317,0 0.97168,-0.1416 0.47852,-0.1416 1.00097,-0.44922 z m -1.21093,-3.07618 q -0.01,-0.5664 -0.29297,-0.85449 -0.27832,-0.29296 -0.8252,-0.29296 -0.49316,0 -0.78613,0.30273 -0.29297,0.29785 -0.34668,0.8496 z" />
      <path
         id="path3714"
         style="font-style:normal;font-variant:normal;font-weight:bold;font-stretch:normal;font-size:medium;line-height:125%;font-family:monospace;-inkscape-font-specification:'monospace Bold';text-align:center;letter-spacing:0px;word-spacing:0px;text-anchor:middle;fill:#bbae00;fill-opacity:1;stroke:none;stroke-width:0.75px;stroke-linecap:butt;stroke-linejoin:miter;stroke-opacity:1"
         d="m 300.43401,345.9624 h 2.83203 v 4.37012 h 1.77735 v 1.09863 h -4.99023 v -1.09863 h 1.78222 v -3.27148 h -1.40137 z m 1.40137,-2.66113 h 1.43066 v 1.66992 h -1.43066 z" />
      <path
         id="path3716"
         style="font-style:normal;font-variant:normal;font-weight:bold;font-stretch:normal;font-size:medium;line-height:125%;font-family:monospace;-inkscape-font-specification:'monospace Bold';text-align:center;letter-spacing:0px;word-spacing:0px;text-anchor:middle;fill:#bbae00;fill-opacity:1;stroke:none;stroke-width:0.75px;stroke-linecap:butt;stroke-linejoin:miter;stroke-opacity:1"
         d="m 309.23284,346.73877 v -2.90528 h 1.42578 v 7.59766 h -1.42578 v -0.81055 q -0.22949,0.47364 -0.5957,0.71289 -0.36133,0.23926 -0.85449,0.23926 -0.9375,0 -1.45508,-0.75195 -0.51758,-0.75196 -0.51758,-2.11914 0,-1.38672 0.52246,-2.12891 0.52735,-0.74219 1.49902,-0.74219 0.43946,0 0.78614,0.2295 0.35156,0.22461 0.61523,0.67871 z m -1.99219,1.97266 q 0,0.79101 0.26367,1.24023 0.26368,0.44922 0.72755,0.44922 0.46387,0 0.73242,-0.44922 0.26855,-0.44922 0.26855,-1.24023 0,-0.79102 -0.26855,-1.24024 -0.26855,-0.44922 -0.73242,-0.44922 -0.46387,0 -0.72755,0.44922 -0.26367,0.44922 -0.26367,1.24024 z" />
      <path
         id="path3718"
         style="font-style:normal;font-variant:normal;font-weight:bold;font-stretch:normal;font-size:medium;line-height:125%;font-family:monospace;-inkscape-font-specification:'monospace Bold';text-align:center;letter-spacing:0px;word-spacing:0px;text-anchor:middle;fill:#bbae00;fill-opacity:1;stroke:none;stroke-width:0.75px;stroke-linecap:butt;stroke-linejoin:miter;stroke-opacity:1"
         d="m 316.76702,351.1626 q -0.49805,0.20507 -1.01563,0.30761 -0.51757,0.10254 -1.09375,0.10254 -1.37207,0 -2.09961,-0.73242 -0.72265,-0.7373 -0.72265,-2.11914 0,-1.33789 0.69824,-2.11426 0.69824,-0.77637 1.9043,-0.77637 1.21581,0 1.88476,0.72266 0.67383,0.71777 0.67383,2.02637 v 0.58106 h -3.70606 q 0.005,0.64452 0.38086,0.96191 0.37598,0.31738 1.12305,0.31738 0.49316,0 0.97168,-0.1416 0.47851,-0.1416 1.00098,-0.44922 z m -1.21094,-3.07618 q -0.01,-0.5664 -0.29297,-0.85449 -0.27832,-0.29296 -0.82519,-0.29296 -0.49317,0 -0.78614,0.30273 -0.29296,0.29785 -0.34668,0.8496 z" />
      <path
         id="path3720"
         style="font-style:normal;font-variant:normal;font-weight:bold;font-stretch:normal;font-size:medium;line-height:125%;font-family:monospace;-inkscape-font-specification:'monospace Bold';text-align:center;letter-spacing:0px;word-spacing:0px;text-anchor:middle;fill:#bbae00;fill-opacity:1;stroke:none;stroke-width:0.75px;stroke-linecap:butt;stroke-linejoin:miter;stroke-opacity:1"
         d="m 322.63128,347.88135 v 3.5498 h -1.4209 v -3.33007 q 0,-0.59571 -0.1709,-0.84962 -0.16602,-0.25879 -0.54687,-0.25879 -0.38574,0 -0.61035,0.34668 -0.21973,0.34668 -0.21973,0.96192 v 3.12988 h -1.4209 v -5.46875 h 1.4209 v 0.82031 q 0.15136,-0.4541 0.51757,-0.70312 0.36621,-0.24903 0.8838,-0.24903 0.77636,0 1.17187,0.51759 0.39551,0.51269 0.39551,1.5332 z" />
    </g>
  </g>
</svg>
