<?xml version="1.0" encoding="UTF-8" standalone="no"?>
<svg
   xmlns:dc="http://purl.org/dc/elements/1.1/"
   xmlns:cc="http://creativecommons.org/ns#"
   xmlns:rdf="http://www.w3.org/1999/02/22-rdf-syntax-ns#"
   xmlns:svg="http://www.w3.org/2000/svg"
   xmlns="http://www.w3.org/2000/svg"
   xmlns:sodipodi="http://sodipodi.sourceforge.net/DTD/sodipodi-0.dtd"
   xmlns:inkscape="http://www.inkscape.org/namespaces/inkscape"
   id="svg6150"
   version="1.1"
   viewBox="0 0 210 297"
   height="297mm"
   width="210mm"
   sodipodi:docname="sheet_5_visaton.svg"
   inkscape:version="0.92.3 (2405546, 2018-03-11)">
  <sodipodi:namedview
     pagecolor="#ffffff"
     bordercolor="#666666"
     borderopacity="1"
     objecttolerance="10"
     gridtolerance="10"
     guidetolerance="10"
     inkscape:pageopacity="0"
     inkscape:pageshadow="2"
     inkscape:window-width="1920"
     inkscape:window-height="976"
     id="namedview14151"
     showgrid="false"
     inkscape:zoom="0.8409652"
     inkscape:cx="237.50967"
     inkscape:cy="609.84577"
     inkscape:window-x="-4"
     inkscape:window-y="-4"
     inkscape:window-maximized="1"
     inkscape:current-layer="svg6150" />
  <defs
     id="defs6144" />
  <metadata
     id="metadata6147">
    <rdf:RDF>
      <cc:Work
         rdf:about="">
        <dc:format>image/svg+xml</dc:format>
        <dc:type
           rdf:resource="http://purl.org/dc/dcmitype/StillImage" />
        <dc:title />
      </cc:Work>
    </rdf:RDF>
  </metadata>
  <path
     inkscape:connector-curvature="0"
     style="fill:none;stroke:#bbae00;stroke-width:0.35206211;stroke-linecap:butt;stroke-linejoin:miter;stroke-miterlimit:10;stroke-opacity:1"
     d="m 106.92272,101.73963 h 3.93869 l 10.01101,9.98363 h 10e-4 v 1.99755 h 25.93762 v -1.99755 l 9.9409,-9.98363 h 2.03052 V 75.783852 h -2.03052 l -9.94079,-9.983632 v -1.996175 h -25.93762 v 1.996175 h -0.001 l -10.01104,9.983632 H 106.9228 L 96.981905,65.80022 h -0.05087 V 63.804045 H 70.992042 v 2.047077 l -9.960147,9.93273 H 59.02062 v 25.955778 h 2.011275 l 9.960147,9.93273 v 2.04845 h 25.938994 v -1.99755 h 0.05087 z m 0,0"
     id="path260" />
  <path
     inkscape:connector-curvature="0"
     style="fill:none;stroke:#000000;stroke-width:0.35206208;stroke-linecap:butt;stroke-linejoin:miter;stroke-miterlimit:1.5;stroke-opacity:1"
     d="M 31.08676,253.48334 H 178.73475 V 43.836791 H 31.08676 Z m 0,0"
     id="path42" />
  <path
     inkscape:connector-curvature="0"
     id="path24323"
     style="font-style:normal;font-variant:normal;font-weight:bold;font-stretch:normal;font-size:13.33333302px;line-height:1.25;font-family:monospace;-inkscape-font-specification:'monospace Bold';letter-spacing:0px;word-spacing:0px;fill:#00c0ee;fill-opacity:1;stroke:none;stroke-width:0.26404658"
     d="m 54.677301,244.98277 h 0.759555 v -0.33705 q 0,-0.24248 -0.08249,-0.33878 -0.08249,-0.098 -0.286998,-0.098 -0.207917,0 -0.299007,0.10146 -0.09107,0.10146 -0.09107,0.33534 z m -1.000146,0 h 0.596301 v -0.33705 q 0,-0.19261 -0.06874,-0.27343 -0.06874,-0.0825 -0.226837,-0.0825 -0.158098,0 -0.228553,0.0843 -0.07217,0.0825 -0.07217,0.27171 z m -0.403837,0.4901 v -0.82715 q 0,-0.4282 0.163253,-0.64316 0.161535,-0.21667 0.484604,-0.21667 0.247457,0 0.386651,0.12725 0.139196,0.12726 0.161535,0.37317 0.02921,-0.29406 0.19762,-0.44196 0.168402,-0.1496 0.470868,-0.1496 0.371172,0 0.53786,0.22355 0.166687,0.22356 0.166687,0.72742 v 0.82715 z" />
  <path
     inkscape:connector-curvature="0"
     id="path24325"
     style="font-style:normal;font-variant:normal;font-weight:bold;font-stretch:normal;font-size:13.33333302px;line-height:1.25;font-family:monospace;-inkscape-font-specification:'monospace Bold';letter-spacing:0px;word-spacing:0px;fill:#00c0ee;fill-opacity:1;stroke:none;stroke-width:0.26404658"
     d="m 54.280333,242.50818 q 0,0.18057 0.159813,0.28375 0.158098,0.10318 0.441641,0.10318 0.28354,0 0.443364,-0.10318 0.158108,-0.10318 0.158108,-0.28375 0,-0.18228 -0.158108,-0.28546 -0.159824,-0.10318 -0.443364,-0.10318 -0.283543,0 -0.441641,0.10318 -0.159813,0.10318 -0.159813,0.28546 z m 0.601454,0.89079 q -0.465697,0 -0.737214,-0.24075 -0.273233,-0.24248 -0.273233,-0.65004 0,-0.40927 0.273233,-0.65002 0.271517,-0.24248 0.737214,-0.24248 0.465694,0 0.73894,0.24248 0.271503,0.24075 0.271503,0.65002 0,0.40756 -0.271503,0.65004 -0.273246,0.24075 -0.73894,0.24075 z" />
  <path
     inkscape:connector-curvature="0"
     id="path24327"
     style="font-style:normal;font-variant:normal;font-weight:bold;font-stretch:normal;font-size:13.33333302px;line-height:1.25;font-family:monospace;-inkscape-font-specification:'monospace Bold';letter-spacing:0px;word-spacing:0px;fill:#00c0ee;fill-opacity:1;stroke:none;stroke-width:0.26404658"
     d="m 54.190971,240.08691 h -1.022478 v -0.50214 h 2.673903 v 0.50214 H 55.55714 q 0.166687,0.0808 0.250889,0.2098 0.0842,0.12725 0.0842,0.30094 0,0.33017 -0.26464,0.51245 -0.264641,0.18229 -0.745803,0.18229 -0.488039,0 -0.749242,-0.18401 -0.261205,-0.18571 -0.261205,-0.52793 0,-0.15476 0.08077,-0.27686 0.07905,-0.12382 0.238863,-0.21668 z m 0.694247,0.70162 q 0.278393,0 0.436501,-0.0929 0.158083,-0.0929 0.158083,-0.25623 0,-0.16337 -0.158083,-0.25795 -0.158108,-0.0946 -0.436501,-0.0946 -0.278382,0 -0.436477,0.0946 -0.158098,0.0946 -0.158098,0.25795 0,0.16337 0.158098,0.25623 0.158095,0.0929 0.436477,0.0929 z" />
  <path
     inkscape:connector-curvature="0"
     id="path24329"
     style="font-style:normal;font-variant:normal;font-weight:bold;font-stretch:normal;font-size:13.33333302px;line-height:1.25;font-family:monospace;-inkscape-font-specification:'monospace Bold';letter-spacing:0px;word-spacing:0px;fill:#00c0ee;fill-opacity:1;stroke:none;stroke-width:0.26404658"
     d="m 55.7479,237.43177 q 0.07217,0.1754 0.108248,0.35768 0.03608,0.18229 0.03608,0.38521 0,0.48322 -0.257751,0.73945 -0.259494,0.25451 -0.745803,0.25451 -0.470868,0 -0.744103,-0.24591 -0.273233,-0.24591 -0.273233,-0.67067 0,-0.42819 0.254331,-0.66379 0.252612,-0.23731 0.71317,-0.23731 h 0.204486 v 1.30522 q 0.226842,-0.002 0.338521,-0.13414 0.111706,-0.13241 0.111706,-0.39551 0,-0.17369 -0.04984,-0.34221 -0.04984,-0.16853 -0.158082,-0.35253 z m -1.082635,0.42647 q -0.199341,0.003 -0.300728,0.10318 -0.103109,0.098 -0.103109,0.29062 0,0.17369 0.106545,0.27687 0.104824,0.10317 0.299008,0.12209 z" />
  <path
     inkscape:connector-curvature="0"
     id="path24331"
     style="font-style:normal;font-variant:normal;font-weight:bold;font-stretch:normal;font-size:13.33333302px;line-height:1.25;font-family:monospace;-inkscape-font-specification:'monospace Bold';letter-spacing:0px;word-spacing:0px;fill:#00c0ee;fill-opacity:1;stroke:none;stroke-width:0.26404658"
     d="m 54.593089,235.36474 h 1.249307 v 0.50042 h -1.171984 q -0.209643,0 -0.299002,0.0602 -0.09108,0.0585 -0.09108,0.1926 0,0.13585 0.12201,0.21496 0.122007,0.0774 0.338545,0.0774 h 1.101508 v 0.50042 h -1.924658 v -0.50042 h 0.2887 q -0.159816,-0.0533 -0.247457,-0.18228 -0.08764,-0.12897 -0.08764,-0.31126 0,-0.27342 0.182156,-0.41272 0.180436,-0.13929 0.539593,-0.13929 z" />
  <path
     inkscape:connector-curvature="0"
     id="path24333"
     style="font-style:normal;font-variant:normal;font-weight:bold;font-stretch:normal;font-size:13.33333302px;line-height:1.25;font-family:monospace;-inkscape-font-specification:'monospace Bold';letter-spacing:0px;word-spacing:0px;fill:#00c0ee;fill-opacity:1;stroke:none;stroke-width:0.26404658"
     d="m 55.570892,234.32607 h 1.003581 v 0.50214 h -2.656735 v -0.50214 h 0.2887 q -0.166689,-0.0791 -0.250893,-0.20807 -0.08421,-0.12898 -0.08421,-0.30267 0,-0.33017 0.264641,-0.51245 0.264641,-0.18228 0.745806,-0.18228 0.488051,0 0.74926,0.18572 0.261183,0.184 0.261183,0.52621 0,0.15477 -0.07903,0.27859 -0.08077,0.12209 -0.242311,0.21495 z m -0.692537,-0.70162 q -0.278392,0 -0.43649,0.0929 -0.158096,0.0929 -0.158096,0.25623 0,0.16337 0.158096,0.25795 0.158098,0.0946 0.43649,0.0946 0.278393,0 0.436475,-0.0946 0.158109,-0.0946 0.158109,-0.25795 0,-0.16337 -0.158109,-0.25623 -0.158082,-0.0929 -0.436475,-0.0929 z" />
  <path
     inkscape:connector-curvature="0"
     id="path24335"
     style="font-style:normal;font-variant:normal;font-weight:bold;font-stretch:normal;font-size:13.33333302px;line-height:1.25;font-family:monospace;-inkscape-font-specification:'monospace Bold';letter-spacing:0px;word-spacing:0px;fill:#00c0ee;fill-opacity:1;stroke:none;stroke-width:0.26404658"
     d="m 55.039895,232.30032 h -1.484751 v 0.51074 h -0.386651 v -1.0146 h 1.871402 q 0.226816,0 0.321338,-0.0705 0.09452,-0.0705 0.09452,-0.23904 v -0.4024 h 0.386641 v 0.54341 q 0,0.35941 -0.185587,0.5159 -0.185586,0.15649 -0.616914,0.15649 z" />
  <path
     inkscape:connector-curvature="0"
     id="path24337"
     style="font-style:normal;font-variant:normal;font-weight:bold;font-stretch:normal;font-size:13.33333302px;line-height:1.25;font-family:monospace;-inkscape-font-specification:'monospace Bold';letter-spacing:0px;word-spacing:0px;fill:#00c0ee;fill-opacity:1;stroke:none;stroke-width:0.26404658"
     d="m 54.938511,229.64173 q 0,0.28203 0.07216,0.39381 0.07217,0.11177 0.247457,0.11177 0.130605,0 0.207943,-0.0774 0.07731,-0.0774 0.07731,-0.2098 0,-0.19948 -0.149504,-0.30954 -0.151219,-0.11005 -0.421007,-0.11005 H 54.9385 Z m -0.194192,-0.70161 h 1.098077 v 0.50042 H 55.62759 q 0.127173,0.0911 0.195907,0.23387 0.06873,0.14273 0.06873,0.3147 0,0.32845 -0.17355,0.51245 -0.173576,0.18228 -0.48462,0.18228 -0.336806,0 -0.49663,-0.21839 -0.161524,-0.2184 -0.161524,-0.67582 v -0.34909 h -0.0842 q -0.12201,0 -0.183876,0.0894 -0.06358,0.0877 -0.06358,0.25967 0,0.18056 0.0464,0.3508 0.04468,0.16853 0.144348,0.35253 h -0.429612 q -0.06874,-0.1668 -0.10139,-0.33877 -0.03265,-0.17197 -0.03265,-0.36456 0,-0.46947 0.190747,-0.65863 0.190749,-0.19088 0.682232,-0.19088 z" />
  <path
     inkscape:connector-curvature="0"
     id="path24339"
     style="font-style:normal;font-variant:normal;font-weight:bold;font-stretch:normal;font-size:13.33333302px;line-height:1.25;font-family:monospace;-inkscape-font-specification:'monospace Bold';letter-spacing:0px;word-spacing:0px;fill:#00c0ee;fill-opacity:1;stroke:none;stroke-width:0.26404658"
     d="m 53.371271,227.5386 h 0.546467 v -0.65863 h 0.386651 v 0.65863 h 0.910772 q 0.128889,0 0.185613,-0.0619 0.05498,-0.0636 0.05498,-0.2098 v -0.38692 h 0.386641 v 0.42304 q 0,0.43335 -0.137468,0.5864 -0.139183,0.15305 -0.513813,0.15305 h -0.886726 v 0.49182 h -0.386651 v -0.49182 H 53.37127 Z" />
  <path
     inkscape:connector-curvature="0"
     id="path24341"
     style="font-style:normal;font-variant:normal;font-weight:bold;font-stretch:normal;font-size:13.33333302px;line-height:1.25;font-family:monospace;-inkscape-font-specification:'monospace Bold';letter-spacing:0px;word-spacing:0px;fill:#00c0ee;fill-opacity:1;stroke:none;stroke-width:0.26404658"
     d="m 53.371271,225.41827 h 0.546467 v -0.65863 h 0.386651 v 0.65863 h 0.910772 q 0.128889,0 0.185613,-0.0619 0.05498,-0.0636 0.05498,-0.2098 v -0.38692 h 0.386641 v 0.42303 q 0,0.43336 -0.137468,0.5864 -0.139183,0.15305 -0.513813,0.15305 h -0.886726 v 0.49183 h -0.386651 v -0.49183 H 53.37127 Z" />
  <path
     inkscape:connector-curvature="0"
     id="path24343"
     style="font-style:normal;font-variant:normal;font-weight:bold;font-stretch:normal;font-size:13.33333302px;line-height:1.25;font-family:monospace;-inkscape-font-specification:'monospace Bold';letter-spacing:0px;word-spacing:0px;fill:#00c0ee;fill-opacity:1;stroke:none;stroke-width:0.26404658"
     d="m 55.7479,222.58943 q 0.07217,0.17541 0.108248,0.35769 0.03608,0.18229 0.03608,0.3852 0,0.48323 -0.257751,0.73945 -0.259494,0.25451 -0.745803,0.25451 -0.470868,0 -0.744103,-0.24591 -0.273233,-0.24591 -0.273233,-0.67066 0,-0.42819 0.254331,-0.66379 0.252612,-0.23731 0.71317,-0.23731 h 0.204486 v 1.30522 q 0.226842,-0.002 0.338521,-0.13413 0.111706,-0.13242 0.111706,-0.39553 0,-0.17368 -0.04984,-0.34221 -0.04984,-0.16852 -0.158082,-0.35253 z m -1.082635,0.42648 q -0.199341,0.003 -0.300728,0.10318 -0.103109,0.098 -0.103109,0.29062 0,0.17368 0.106545,0.27686 0.104824,0.10318 0.299008,0.1221 z" />
  <path
     inkscape:connector-curvature="0"
     id="path24345"
     style="font-style:normal;font-variant:normal;font-weight:bold;font-stretch:normal;font-size:13.33333302px;line-height:1.25;font-family:monospace;-inkscape-font-specification:'monospace Bold';letter-spacing:0px;word-spacing:0px;fill:#00c0ee;fill-opacity:1;stroke:none;stroke-width:0.26404658"
     d="m 55.842396,219.8569 h -2.565642 v -0.50729 H 55.3956 v -1.0851 h 0.446796 z" />
  <path
     inkscape:connector-curvature="0"
     id="path24347"
     style="font-style:normal;font-variant:normal;font-weight:bold;font-stretch:normal;font-size:13.33333302px;line-height:1.25;font-family:monospace;-inkscape-font-specification:'monospace Bold';letter-spacing:0px;word-spacing:0px;fill:#00c0ee;fill-opacity:1;stroke:none;stroke-width:0.26404658"
     d="m 54.938511,216.91973 q 0,0.28203 0.07216,0.39381 0.07217,0.11177 0.247457,0.11177 0.130605,0 0.207943,-0.0774 0.07731,-0.0774 0.07731,-0.2098 0,-0.19948 -0.149504,-0.30954 -0.151219,-0.11005 -0.421007,-0.11005 H 54.9385 Z m -0.194192,-0.70161 h 1.098077 v 0.50042 H 55.62759 q 0.127173,0.0911 0.195907,0.23387 0.06873,0.14273 0.06873,0.31469 0,0.32846 -0.17355,0.51246 -0.173576,0.18228 -0.48462,0.18228 -0.336806,0 -0.49663,-0.21839 -0.161524,-0.2184 -0.161524,-0.67582 v -0.34909 h -0.0842 q -0.12201,0 -0.183876,0.0894 -0.06358,0.0877 -0.06358,0.25967 0,0.18056 0.0464,0.3508 0.04468,0.16853 0.144348,0.35254 h -0.429612 q -0.06874,-0.16681 -0.10139,-0.33878 -0.03265,-0.17196 -0.03265,-0.36456 0,-0.46947 0.190747,-0.65863 0.190749,-0.19088 0.682232,-0.19088 z" />
  <path
     inkscape:connector-curvature="0"
     id="path24349"
     style="font-style:normal;font-variant:normal;font-weight:bold;font-stretch:normal;font-size:13.33333302px;line-height:1.25;font-family:monospace;-inkscape-font-specification:'monospace Bold';letter-spacing:0px;word-spacing:0px;fill:#00c0ee;fill-opacity:1;stroke:none;stroke-width:0.26404658"
     d="m 56.050339,214.78049 q 0.271503,0.10146 0.395245,0.24419 0.125458,0.14101 0.125458,0.34393 v 0.41615 h -0.383236 v -0.20463 q 0,-0.15477 -0.05327,-0.227 -0.05155,-0.0722 -0.24231,-0.14617 l -0.1031,-0.0378 -1.871392,0.73257 v -0.52965 l 1.249304,-0.44023 -1.249304,-0.42132 v -0.52965 z" />
  <path
     inkscape:connector-curvature="0"
     id="path24351"
     style="font-style:normal;font-variant:normal;font-weight:bold;font-stretch:normal;font-size:13.33333302px;line-height:1.25;font-family:monospace;-inkscape-font-specification:'monospace Bold';letter-spacing:0px;word-spacing:0px;fill:#00c0ee;fill-opacity:1;stroke:none;stroke-width:0.26404658"
     d="m 55.7479,211.98777 q 0.07217,0.1754 0.108248,0.35769 0.03608,0.18228 0.03608,0.3852 0,0.48322 -0.257751,0.73945 -0.259494,0.25451 -0.745803,0.25451 -0.470868,0 -0.744103,-0.24591 -0.273233,-0.24591 -0.273233,-0.67067 0,-0.42819 0.254331,-0.66378 0.252612,-0.23732 0.71317,-0.23732 h 0.204486 v 1.30522 q 0.226842,-0.002 0.338521,-0.13413 0.111706,-0.13241 0.111706,-0.39552 0,-0.17369 -0.04984,-0.34221 -0.04984,-0.16853 -0.158082,-0.35253 z m -1.082635,0.42647 q -0.199341,0.003 -0.300728,0.10318 -0.103109,0.098 -0.103109,0.29062 0,0.17369 0.106545,0.27687 0.104824,0.10318 0.299008,0.12209 z" />
  <path
     inkscape:connector-curvature="0"
     id="path24353"
     style="font-style:normal;font-variant:normal;font-weight:bold;font-stretch:normal;font-size:13.33333302px;line-height:1.25;font-family:monospace;-inkscape-font-specification:'monospace Bold';letter-spacing:0px;word-spacing:0px;fill:#00c0ee;fill-opacity:1;stroke:none;stroke-width:0.26404658"
     d="m 54.448741,209.78317 q -0.07561,0.0825 -0.113419,0.19432 -0.03781,0.11006 -0.03781,0.24247 0,0.15993 0.05671,0.28031 0.05499,0.11865 0.161535,0.184 0.0653,0.0413 0.158111,0.0585 0.09278,0.0155 0.281824,0.0155 h 0.886702 v 0.50386 h -1.924658 v -0.50386 h 0.29901 q -0.164971,-0.074 -0.25433,-0.227 -0.09108,-0.15305 -0.09108,-0.35769 0,-0.10318 0.02579,-0.2012 0.02405,-0.0997 0.07218,-0.18916 z" />
  <path
     inkscape:connector-curvature="0"
     id="path24355"
     style="font-style:normal;font-variant:normal;font-weight:bold;font-stretch:normal;font-size:13.33333302px;line-height:1.25;font-family:monospace;-inkscape-font-specification:'monospace Bold';letter-spacing:0px;word-spacing:0px;fill:#00c0ee;fill-opacity:1;stroke:none;stroke-width:0.26404658"
     d="m 54.694485,206.57774 v 0.2717 h -0.446804 v -0.2717 q 0,-0.18917 -0.07389,-0.29234 -0.07561,-0.1049 -0.211369,-0.1049 -0.142633,0 -0.221682,0.1049 -0.08076,0.10317 -0.08076,0.29234 0,0.14445 0.03608,0.30953 0.03609,0.16509 0.104827,0.34221 h -0.460545 q -0.05327,-0.17712 -0.08077,-0.34908 -0.02922,-0.17197 -0.02922,-0.33018 0,-0.40583 0.177,-0.63283 0.177003,-0.227 0.488041,-0.227 0.228556,0 0.374623,0.1307 0.144351,0.13069 0.189031,0.37316 0.04812,-0.27514 0.219966,-0.41959 0.170119,-0.14445 0.448511,-0.14445 0.372915,0 0.568795,0.23903 0.195907,0.23903 0.195907,0.69474 0,0.19432 -0.03265,0.38348 -0.03265,0.18745 -0.09449,0.35941 h -0.470869 q 0.08077,-0.16165 0.123742,-0.34909 0.04123,-0.18744 0.04123,-0.3938 0,-0.20636 -0.09452,-0.32673 -0.09621,-0.12038 -0.257752,-0.12038 -0.197622,0 -0.304181,0.12038 -0.108247,0.12037 -0.108247,0.34049 z" />
  <path
     inkscape:connector-curvature="0"
     id="path24357"
     style="font-style:normal;font-variant:normal;font-weight:bold;font-stretch:normal;font-size:13.33333302px;line-height:1.25;font-family:monospace;-inkscape-font-specification:'monospace Bold';letter-spacing:0px;word-spacing:0px;fill:#00c0ee;fill-opacity:1;stroke:none;stroke-width:0.26404658"
     d="m 55.419673,202.22185 -2.142919,-0.45227 v -0.51073 l 2.565642,0.61047 v 0.70334 l -2.565642,0.61048 v -0.51074 z" />
  <path
     inkscape:connector-curvature="0"
     id="path24359"
     style="font-style:normal;font-variant:normal;font-weight:bold;font-stretch:normal;font-size:13.33333302px;line-height:1.25;font-family:monospace;-inkscape-font-specification:'monospace Bold';letter-spacing:0px;word-spacing:0px;fill:#00c0ee;fill-opacity:1;stroke:none;stroke-width:0.26404658"
     d="m 53.917738,200.78078 v -0.9974 h 1.538017 v -0.62595 h 0.386641 v 1.75749 h -0.386641 v -0.62768 h -1.151366 v 0.49354 z m -0.936557,-0.49354 v -0.50386 h 0.58771 v 0.50386 z" />
  <path
     inkscape:connector-curvature="0"
     id="path24361"
     style="font-style:normal;font-variant:normal;font-weight:bold;font-stretch:normal;font-size:13.33333302px;line-height:1.25;font-family:monospace;-inkscape-font-specification:'monospace Bold';letter-spacing:0px;word-spacing:0px;fill:#00c0ee;fill-opacity:1;stroke:none;stroke-width:0.26404658"
     d="m 53.977883,197.33632 h 0.439925 q -0.08936,0.13929 -0.134039,0.29062 -0.0464,0.14961 -0.0464,0.30094 0,0.16852 0.04983,0.25451 0.04812,0.086 0.144349,0.086 0.137477,0 0.22339,-0.36801 l 0.0053,-0.0189 0.03437,-0.14446 q 0.0653,-0.27514 0.211375,-0.4024 0.14433,-0.12897 0.391787,-0.12897 0.297291,0 0.446795,0.19604 0.147788,0.19432 0.147788,0.5864 0,0.17369 -0.03094,0.35597 -0.02919,0.18228 -0.08935,0.36973 h -0.439932 q 0.09452,-0.16681 0.144356,-0.33877 0.04984,-0.17369 0.04984,-0.33534 0,-0.17712 -0.05155,-0.26826 -0.05155,-0.0911 -0.149504,-0.0911 -0.09624,0 -0.147788,0.0653 -0.05155,0.0636 -0.10999,0.3061 l -0.03093,0.13929 q -0.06528,0.2889 -0.204486,0.42132 -0.139183,0.13241 -0.372901,0.13241 -0.27839,0 -0.433052,-0.2012 -0.154658,-0.2012 -0.154658,-0.56576 0,-0.16337 0.02749,-0.32502 0.02579,-0.16337 0.07905,-0.31642 z" />
  <path
     inkscape:connector-curvature="0"
     id="path24363"
     style="font-style:normal;font-variant:normal;font-weight:bold;font-stretch:normal;font-size:13.33333302px;line-height:1.25;font-family:monospace;-inkscape-font-specification:'monospace Bold';letter-spacing:0px;word-spacing:0px;fill:#00c0ee;fill-opacity:1;stroke:none;stroke-width:0.26404658"
     d="m 54.938511,195.7164 q 0,0.28203 0.07216,0.39381 0.07217,0.11177 0.247457,0.11177 0.130605,0 0.207943,-0.0774 0.07731,-0.0774 0.07731,-0.2098 0,-0.19948 -0.149504,-0.30954 -0.151219,-0.11006 -0.421007,-0.11006 H 54.9385 Z m -0.194192,-0.70162 h 1.098077 v 0.50042 H 55.62759 q 0.127173,0.0911 0.195907,0.23388 0.06873,0.14273 0.06873,0.31469 0,0.32846 -0.17355,0.51246 -0.173576,0.18228 -0.48462,0.18228 -0.336806,0 -0.49663,-0.21839 -0.161524,-0.2184 -0.161524,-0.67583 v -0.34909 h -0.0842 q -0.12201,0 -0.183876,0.0894 -0.06358,0.0877 -0.06358,0.25966 0,0.18057 0.0464,0.35081 0.04468,0.16853 0.144348,0.35253 h -0.429612 q -0.06874,-0.1668 -0.10139,-0.33877 -0.03265,-0.17197 -0.03265,-0.36457 0,-0.46946 0.190747,-0.65862 0.190749,-0.19089 0.682232,-0.19089 z" />
  <path
     inkscape:connector-curvature="0"
     id="path24365"
     style="font-style:normal;font-variant:normal;font-weight:bold;font-stretch:normal;font-size:13.33333302px;line-height:1.25;font-family:monospace;-inkscape-font-specification:'monospace Bold';letter-spacing:0px;word-spacing:0px;fill:#00c0ee;fill-opacity:1;stroke:none;stroke-width:0.26404658"
     d="m 53.371271,193.61327 h 0.546467 v -0.65863 h 0.386651 v 0.65863 h 0.910772 q 0.128889,0 0.185613,-0.0619 0.05498,-0.0636 0.05498,-0.2098 v -0.38692 h 0.386641 v 0.42304 q 0,0.43335 -0.137468,0.5864 -0.139183,0.15304 -0.513813,0.15304 h -0.886726 v 0.49182 h -0.386651 v -0.49182 H 53.37127 Z" />
  <path
     inkscape:connector-curvature="0"
     id="path24367"
     style="font-style:normal;font-variant:normal;font-weight:bold;font-stretch:normal;font-size:13.33333302px;line-height:1.25;font-family:monospace;-inkscape-font-specification:'monospace Bold';letter-spacing:0px;word-spacing:0px;fill:#00c0ee;fill-opacity:1;stroke:none;stroke-width:0.26404658"
     d="m 54.280333,191.62019 q 0,0.18056 0.159813,0.28374 0.158098,0.10318 0.441641,0.10318 0.28354,0 0.443364,-0.10318 0.158108,-0.10318 0.158108,-0.28374 0,-0.18229 -0.158108,-0.28547 -0.159824,-0.10317 -0.443364,-0.10317 -0.283543,0 -0.441641,0.10317 -0.159813,0.10318 -0.159813,0.28547 z m 0.601454,0.89078 q -0.465697,0 -0.737214,-0.24075 -0.273233,-0.24247 -0.273233,-0.65003 0,-0.40928 0.273233,-0.65003 0.271517,-0.24247 0.737214,-0.24247 0.465694,0 0.73894,0.24247 0.271503,0.24075 0.271503,0.65003 0,0.40756 -0.271503,0.65003 -0.273246,0.24075 -0.73894,0.24075 z" />
  <path
     inkscape:connector-curvature="0"
     id="path24369"
     style="font-style:normal;font-variant:normal;font-weight:bold;font-stretch:normal;font-size:13.33333302px;line-height:1.25;font-family:monospace;-inkscape-font-specification:'monospace Bold';letter-spacing:0px;word-spacing:0px;fill:#00c0ee;fill-opacity:1;stroke:none;stroke-width:0.26404658"
     d="m 54.593089,188.71741 h 1.249307 v 0.50042 h -1.171984 q -0.209643,0 -0.299002,0.0602 -0.09108,0.0585 -0.09108,0.1926 0,0.13585 0.12201,0.21496 0.122007,0.0774 0.338545,0.0774 h 1.101508 v 0.50042 h -1.924658 v -0.50042 h 0.2887 q -0.159816,-0.0533 -0.247457,-0.18228 -0.08764,-0.12898 -0.08764,-0.31126 0,-0.27343 0.182156,-0.41272 0.180436,-0.13929 0.539593,-0.13929 z" />
  <path
     inkscape:connector-curvature="0"
     style="fill:none;stroke:#211e1e;stroke-width:0.08800907;stroke-linecap:butt;stroke-linejoin:miter;stroke-miterlimit:10;stroke-opacity:1"
     d="M 85.402762,88.762426 H 82.58061"
     id="path1025-5" />
  <path
     inkscape:connector-curvature="0"
     style="fill:none;stroke:#211e1e;stroke-width:0.08800907;stroke-linecap:butt;stroke-linejoin:miter;stroke-miterlimit:10;stroke-opacity:1"
     d="M 83.992376,90.173833 V 87.35102"
     id="path1027-6" />
  <path
     inkscape:connector-curvature="0"
     style="fill:none;stroke:#211e1e;stroke-width:0.08800907;stroke-linecap:butt;stroke-linejoin:miter;stroke-miterlimit:10;stroke-opacity:1"
     d="M 135.18375,88.762426 H 132.3616"
     id="path1025" />
  <path
     inkscape:connector-curvature="0"
     style="fill:none;stroke:#211e1e;stroke-width:0.08800907;stroke-linecap:butt;stroke-linejoin:miter;stroke-miterlimit:10;stroke-opacity:1"
     d="M 133.77337,90.173833 V 87.35102"
     id="path1027" />
  <path
     inkscape:connector-curvature="0"
     d="m 176.61566,331.64112 h 1.54785 l 2.03124,5.29785 v -5.29785 h 1.26954 v 7.29004 h -1.53809 l -2.04102,-5.29785 v 5.29785 h -1.26952 z"
     style="stroke-linejoin:miter;font-size:medium;-inkscape-font-specification:'monospace Bold';fill-opacity:1;letter-spacing:0px;word-spacing:0px;stroke:none;stroke-linecap:butt;text-align:center;stroke-width:0.75px;font-style:normal;fill:#bbae00;font-family:monospace;stroke-opacity:1;text-anchor:middle;font-stretch:normal;font-variant:normal;font-weight:bold;line-height:125%"
     id="path3626"
     transform="matrix(0.352778,0.000000,0.000000,0.352778,-0.000000,-0.095323)" />
  <path
     inkscape:connector-curvature="0"
     d="m 182.83148,337.02198 v -3.55957 h 1.43066 v 3.33984 q 0,0.59082 0.16601,0.84473 0.16602,0.2539 0.55176,0.2539 0.38574,0 0.60059,-0.34179 0.21972,-0.3418 0.21972,-0.95704 v -3.13964 h 1.43067 v 5.46875 h -1.43067 v -0.81055 q -0.15136,0.4541 -0.51757,0.70312 -0.36133,0.24903 -0.87403,0.24903 -0.78125,0 -1.18164,-0.51758 -0.3955,-0.51757 -0.3955,-1.5332 z"
     style="stroke-linejoin:miter;font-size:medium;-inkscape-font-specification:'monospace Bold';fill-opacity:1;letter-spacing:0px;word-spacing:0px;stroke:none;stroke-linecap:butt;text-align:center;stroke-width:0.75px;font-style:normal;fill:#bbae00;font-family:monospace;stroke-opacity:1;text-anchor:middle;font-stretch:normal;font-variant:normal;font-weight:bold;line-height:125%"
     id="path3628"
     transform="matrix(0.352778,0.000000,0.000000,0.352778,-0.000000,-0.095323)" />
  <path
     inkscape:connector-curvature="0"
     d="m 193.68596,334.9712 q -0.23437,-0.21484 -0.55175,-0.32227 -0.3125,-0.10742 -0.68848,-0.10742 -0.4541,0 -0.7959,0.16113 -0.33691,0.15626 -0.52246,0.45899 -0.11719,0.18555 -0.16601,0.44922 -0.044,0.26367 -0.044,0.80078 v 2.51953 h -1.43067 v -5.46875 h 1.43067 v 0.84961 q 0.20995,-0.46875 0.64452,-0.72266 0.43458,-0.25878 1.01563,-0.25878 0.29297,0 0.57129,0.0732 0.2832,0.0684 0.53711,0.20508 z"
     style="stroke-linejoin:miter;font-size:medium;-inkscape-font-specification:'monospace Bold';fill-opacity:1;letter-spacing:0px;word-spacing:0px;stroke:none;stroke-linecap:butt;text-align:center;stroke-width:0.75px;font-style:normal;fill:#bbae00;font-family:monospace;stroke-opacity:1;text-anchor:middle;font-stretch:normal;font-variant:normal;font-weight:bold;line-height:125%"
     id="path3630"
     transform="matrix(0.352778,0.000000,0.000000,0.352778,-0.000000,-0.095323)" />
  <path
     inkscape:connector-curvature="0"
     d="m 203.7055,332.9839 v 0.47851 h 1.67968 v 1.09863 h -1.67968 v 4.37012 h -1.43067 v -4.37012 h -1.32812 v -1.09863 h 1.32812 v -0.38086 q 0,-0.98633 0.41016,-1.36719 0.41015,-0.38086 1.52344,-0.38086 h 1.17675 v 1.09864 h -1.11816 q -0.32226,0 -0.43945,0.11718 -0.11231,0.11719 -0.12207,0.43458 z"
     style="stroke-linejoin:miter;font-size:medium;-inkscape-font-specification:'monospace Bold';fill-opacity:1;letter-spacing:0px;word-spacing:0px;stroke:none;stroke-linecap:butt;text-align:center;stroke-width:0.75px;font-style:normal;fill:#bbae00;font-family:monospace;stroke-opacity:1;text-anchor:middle;font-stretch:normal;font-variant:normal;font-weight:bold;line-height:125%"
     id="path3632"
     transform="matrix(0.352778,0.000000,0.000000,0.352778,-0.000000,-0.095323)" />
  <path
     inkscape:connector-curvature="0"
     d="m 206.89397,337.02198 v -3.55957 h 1.43067 v 3.33984 q 0,0.59082 0.16601,0.84473 0.16602,0.2539 0.55176,0.2539 0.38574,0 0.60058,-0.34179 0.21973,-0.3418 0.21973,-0.95704 v -3.13964 h 1.43066 v 5.46875 h -1.43066 v -0.81055 q -0.15136,0.4541 -0.51757,0.70312 -0.36133,0.24903 -0.87403,0.24903 -0.78125,0 -1.18164,-0.51758 -0.39551,-0.51757 -0.39551,-1.5332 z m 2.61719,-5.83008 h 1.15234 v 1.20118 h -1.15234 z m -1.92871,0 h 1.15234 v 1.20118 h -1.15234 z"
     style="stroke-linejoin:miter;font-size:medium;-inkscape-font-specification:'monospace Bold';fill-opacity:1;letter-spacing:0px;word-spacing:0px;stroke:none;stroke-linecap:butt;text-align:center;stroke-width:0.75px;font-style:normal;fill:#bbae00;font-family:monospace;stroke-opacity:1;text-anchor:middle;font-stretch:normal;font-variant:normal;font-weight:bold;line-height:125%"
     id="path3634"
     transform="matrix(0.352778,0.000000,0.000000,0.352778,-0.000000,-0.095323)" />
  <path
     inkscape:connector-curvature="0"
     d="m 217.74847,334.9712 q -0.23438,-0.21484 -0.55176,-0.32227 -0.3125,-0.10742 -0.68848,-0.10742 -0.4541,0 -0.7959,0.16113 -0.33691,0.15626 -0.52246,0.45899 -0.11718,0.18555 -0.16602,0.44922 -0.044,0.26367 -0.044,0.80078 v 2.51953 h -1.43066 v -5.46875 h 1.43066 v 0.84961 q 0.20997,-0.46875 0.64454,-0.72266 0.43456,-0.25878 1.01562,-0.25878 0.29297,0 0.57129,0.0732 0.2832,0.0684 0.53711,0.20508 z"
     style="stroke-linejoin:miter;font-size:medium;-inkscape-font-specification:'monospace Bold';fill-opacity:1;letter-spacing:0px;word-spacing:0px;stroke:none;stroke-linecap:butt;text-align:center;stroke-width:0.75px;font-style:normal;fill:#bbae00;font-family:monospace;stroke-opacity:1;text-anchor:middle;font-stretch:normal;font-variant:normal;font-weight:bold;line-height:125%"
     id="path3636"
     transform="matrix(0.352778,0.000000,0.000000,0.352778,-0.000000,-0.095323)" />
  <path
     inkscape:connector-curvature="0"
     d="m 225.25823,338.93116 v -7.29004 h 1.44043 v 6.0205 h 3.08105 v 1.26954 z"
     style="stroke-linejoin:miter;font-size:medium;-inkscape-font-specification:'monospace Bold';fill-opacity:1;letter-spacing:0px;word-spacing:0px;stroke:none;stroke-linecap:butt;text-align:center;stroke-width:0.75px;font-style:normal;fill:#bbae00;font-family:monospace;stroke-opacity:1;text-anchor:middle;font-stretch:normal;font-variant:normal;font-weight:bold;line-height:125%"
     id="path3638"
     transform="matrix(0.352778,0.000000,0.000000,0.352778,-0.000000,-0.095323)" />
  <path
     inkscape:connector-curvature="0"
     d="m 233.59319,336.3628 q -0.80078,0 -1.11816,0.20508 -0.31738,0.20508 -0.31738,0.70312 0,0.37109 0.21972,0.59082 0.21973,0.21973 0.59571,0.21973 0.5664,0 0.8789,-0.42481 0.3125,-0.42968 0.3125,-1.19629 v -0.0976 z m 1.99219,-0.55176 v 3.12012 h -1.4209 v -0.61035 q -0.25878,0.36132 -0.66406,0.55664 -0.40527,0.19531 -0.89356,0.19531 -0.93262,0 -1.45507,-0.49317 -0.51758,-0.49316 -0.51758,-1.37694 0,-0.95704 0.62012,-1.41114 0.62011,-0.45898 1.91894,-0.45898 h 0.99121 v -0.23926 q 0,-0.34668 -0.2539,-0.52246 -0.24903,-0.18066 -0.73731,-0.18066 -0.51269,0 -0.99609,0.13183 -0.47852,0.12695 -1.00098,0.41015 v -1.2207 q 0.47363,-0.19531 0.96191,-0.28809 0.48829,-0.0928 1.03516,-0.0928 1.33301,0 1.87012,0.54198 0.54199,0.542 0.54199,1.93848 z"
     style="stroke-linejoin:miter;font-size:medium;-inkscape-font-specification:'monospace Bold';fill-opacity:1;letter-spacing:0px;word-spacing:0px;stroke:none;stroke-linecap:butt;text-align:center;stroke-width:0.75px;font-style:normal;fill:#bbae00;font-family:monospace;stroke-opacity:1;text-anchor:middle;font-stretch:normal;font-variant:normal;font-weight:bold;line-height:125%"
     id="path3640"
     transform="matrix(0.352778,0.000000,0.000000,0.352778,-0.000000,-0.095323)" />
  <path
     inkscape:connector-curvature="0"
     d="m 236.97209,337.02198 v -3.55957 h 1.43067 v 3.33984 q 0,0.59082 0.16602,0.84473 0.16601,0.2539 0.55176,0.2539 0.38574,0 0.60058,-0.34179 0.21973,-0.3418 0.21973,-0.95704 v -3.13964 h 1.43066 v 5.46875 h -1.43066 v -0.81055 q -0.15137,0.4541 -0.51758,0.70312 -0.36133,0.24903 -0.87402,0.24903 -0.78126,0 -1.18164,-0.51758 -0.39552,-0.51757 -0.39552,-1.5332 z"
     style="stroke-linejoin:miter;font-size:medium;-inkscape-font-specification:'monospace Bold';fill-opacity:1;letter-spacing:0px;word-spacing:0px;stroke:none;stroke-linecap:butt;text-align:center;stroke-width:0.75px;font-style:normal;fill:#bbae00;font-family:monospace;stroke-opacity:1;text-anchor:middle;font-stretch:normal;font-variant:normal;font-weight:bold;line-height:125%"
     id="path3642"
     transform="matrix(0.352778,0.000000,0.000000,0.352778,-0.000000,-0.095323)" />
  <path
     inkscape:connector-curvature="0"
     d="m 245.57561,331.90967 v 1.55274 h 1.87012 v 1.09863 h -1.87012 v 2.58789 q 0,0.36621 0.17578,0.52735 0.18067,0.15625 0.5957,0.15625 h 1.09864 v 1.09863 h -1.20117 q -1.23047,0 -1.66504,-0.39063 -0.43457,-0.3955 -0.43457,-1.45996 v -2.51953 h -1.39648 v -1.09863 h 1.39648 v -1.55274 z"
     style="stroke-linejoin:miter;font-size:medium;-inkscape-font-specification:'monospace Bold';fill-opacity:1;letter-spacing:0px;word-spacing:0px;stroke:none;stroke-linecap:butt;text-align:center;stroke-width:0.75px;font-style:normal;fill:#bbae00;font-family:monospace;stroke-opacity:1;text-anchor:middle;font-stretch:normal;font-variant:normal;font-weight:bold;line-height:125%"
     id="path3644"
     transform="matrix(0.352778,0.000000,0.000000,0.352778,-0.000000,-0.095323)" />
  <path
     inkscape:connector-curvature="0"
     d="m 253.06097,333.63331 v 1.25 q -0.39551,-0.25391 -0.8252,-0.38086 -0.42481,-0.13184 -0.85449,-0.13184 -0.47851,0 -0.72266,0.14161 -0.24414,0.13671 -0.24414,0.41015 0,0.39062 1.04492,0.63477 l 0.0537,0.0146 0.41015,0.0977 q 0.78126,0.18555 1.14258,0.6006 0.36621,0.41015 0.36621,1.11327 0,0.84473 -0.55664,1.26954 -0.55175,0.41991 -1.66504,0.41991 -0.49316,0 -1.01073,-0.0879 -0.51759,-0.083 -1.04981,-0.25391 v -1.25 q 0.47363,0.26855 0.96191,0.41015 0.49317,0.14161 0.95215,0.14161 0.50293,0 0.76172,-0.14649 0.25879,-0.14648 0.25879,-0.4248 0,-0.27344 -0.18555,-0.41992 -0.18066,-0.14649 -0.86914,-0.31251 l -0.39551,-0.0879 q -0.82031,-0.18555 -1.19629,-0.58106 -0.37597,-0.39551 -0.37597,-1.05957 0,-0.79101 0.57129,-1.23047 0.57129,-0.43945 1.60644,-0.43945 0.46387,0 0.92285,0.0781 0.46387,0.0733 0.89844,0.22461 z"
     style="stroke-linejoin:miter;font-size:medium;-inkscape-font-specification:'monospace Bold';fill-opacity:1;letter-spacing:0px;word-spacing:0px;stroke:none;stroke-linecap:butt;text-align:center;stroke-width:0.75px;font-style:normal;fill:#bbae00;font-family:monospace;stroke-opacity:1;text-anchor:middle;font-stretch:normal;font-variant:normal;font-weight:bold;line-height:125%"
     id="path3646"
     transform="matrix(0.352778,0.000000,0.000000,0.352778,-0.000000,-0.095323)" />
  <path
     inkscape:connector-curvature="0"
     d="m 256.39592,338.15968 v 2.85156 h -1.42578 v -7.54883 h 1.42578 v 0.82031 q 0.22461,-0.47363 0.59082,-0.71289 0.36621,-0.23925 0.85938,-0.23925 0.9375,0 1.45508,0.75195 0.51757,0.75195 0.51757,2.11914 0,1.38672 -0.52734,2.1289 -0.52246,0.74219 -1.49414,0.74219 -0.43945,0 -0.79102,-0.22461 -0.34668,-0.22949 -0.61035,-0.68847 z m 1.99219,-1.96778 q 0,-0.79102 -0.26367,-1.24024 -0.26368,-0.44921 -0.72754,-0.44921 -0.46386,0 -0.73242,0.44921 -0.26856,0.44922 -0.26856,1.24024 0,0.79102 0.26856,1.24023 0.26856,0.44922 0.73242,0.44922 0.46386,0 0.72754,-0.44922 0.26367,-0.44921 0.26367,-1.24023 z"
     style="stroke-linejoin:miter;font-size:medium;-inkscape-font-specification:'monospace Bold';fill-opacity:1;letter-spacing:0px;word-spacing:0px;stroke:none;stroke-linecap:butt;text-align:center;stroke-width:0.75px;font-style:normal;fill:#bbae00;font-family:monospace;stroke-opacity:1;text-anchor:middle;font-stretch:normal;font-variant:normal;font-weight:bold;line-height:125%"
     id="path3648"
     transform="matrix(0.352778,0.000000,0.000000,0.352778,-0.000000,-0.095323)" />
  <path
     inkscape:connector-curvature="0"
     d="m 265.87346,334.9712 q -0.23437,-0.21484 -0.55176,-0.32227 -0.31249,-0.10742 -0.68847,-0.10742 -0.4541,0 -0.7959,0.16113 -0.33691,0.15626 -0.52246,0.45899 -0.11719,0.18555 -0.16601,0.44922 -0.0439,0.26367 -0.0439,0.80078 v 2.51953 h -1.43067 v -5.46875 h 1.43067 v 0.84961 q 0.20996,-0.46875 0.64453,-0.72266 0.43457,-0.25878 1.01563,-0.25878 0.29296,0 0.57128,0.0732 0.28321,0.0684 0.53711,0.20508 z"
     style="stroke-linejoin:miter;font-size:medium;-inkscape-font-specification:'monospace Bold';fill-opacity:1;letter-spacing:0px;word-spacing:0px;stroke:none;stroke-linecap:butt;text-align:center;stroke-width:0.75px;font-style:normal;fill:#bbae00;font-family:monospace;stroke-opacity:1;text-anchor:middle;font-stretch:normal;font-variant:normal;font-weight:bold;line-height:125%"
     id="path3650"
     transform="matrix(0.352778,0.000000,0.000000,0.352778,-0.000000,-0.095323)" />
  <path
     inkscape:connector-curvature="0"
     d="m 271.64983,338.6626 q -0.49805,0.20508 -1.01563,0.30762 -0.51757,0.10254 -1.09375,0.10254 -1.37207,0 -2.09961,-0.73242 -0.72265,-0.73731 -0.72265,-2.11914 0,-1.33789 0.69824,-2.11426 0.69824,-0.77636 1.9043,-0.77636 1.21581,0 1.88476,0.72265 0.67383,0.71777 0.67383,2.02637 v 0.58105 h -3.70606 q 0.005,0.64453 0.38086,0.96191 0.37598,0.31739 1.12305,0.31739 0.49316,0 0.97168,-0.1416 0.47851,-0.14161 1.00098,-0.44922 z m -1.21094,-3.07617 q -0.01,-0.5664 -0.29297,-0.85449 -0.27832,-0.29297 -0.82519,-0.29297 -0.49317,0 -0.78614,0.30274 -0.29296,0.29785 -0.34668,0.84961 z"
     style="stroke-linejoin:miter;font-size:medium;-inkscape-font-specification:'monospace Bold';fill-opacity:1;letter-spacing:0px;word-spacing:0px;stroke:none;stroke-linecap:butt;text-align:center;stroke-width:0.75px;font-style:normal;fill:#bbae00;font-family:monospace;stroke-opacity:1;text-anchor:middle;font-stretch:normal;font-variant:normal;font-weight:bold;line-height:125%"
     id="path3652"
     transform="matrix(0.352778,0.000000,0.000000,0.352778,-0.000000,-0.095323)" />
  <path
     inkscape:connector-curvature="0"
     d="m 277.46526,338.65284 q -0.36133,0.20996 -0.77637,0.3125 -0.41503,0.10742 -0.89356,0.10742 -1.26464,0 -1.97753,-0.76172 -0.71289,-0.76172 -0.71289,-2.10937 0,-1.35255 0.71777,-2.11426 0.71778,-0.76661 1.98243,-0.76661 0.43944,0 0.84472,0.10254 0.41015,0.10254 0.81543,0.31739 v 1.30859 q -0.3125,-0.26855 -0.68848,-0.41015 -0.37109,-0.14649 -0.77148,-0.14649 -0.69825,0 -1.07422,0.44434 -0.37598,0.44433 -0.37598,1.26465 0,0.82031 0.37598,1.25976 0.37597,0.43945 1.07422,0.43945 0.41504,0 0.77637,-0.13672 0.36132,-0.1416 0.68359,-0.4248 z"
     style="stroke-linejoin:miter;font-size:medium;-inkscape-font-specification:'monospace Bold';fill-opacity:1;letter-spacing:0px;word-spacing:0px;stroke:none;stroke-linecap:butt;text-align:center;stroke-width:0.75px;font-style:normal;fill:#bbae00;font-family:monospace;stroke-opacity:1;text-anchor:middle;font-stretch:normal;font-variant:normal;font-weight:bold;line-height:125%"
     id="path3654"
     transform="matrix(0.352778,0.000000,0.000000,0.352778,-0.000000,-0.095323)" />
  <path
     inkscape:connector-curvature="0"
     d="m 283.52971,335.38135 v 3.54981 h -1.4209 v -3.33008 q 0,-0.59082 -0.1709,-0.84472 -0.16601,-0.25391 -0.54687,-0.25391 -0.39063,0 -0.61035,0.34667 -0.21973,0.3418 -0.21973,0.95216 v 3.12988 h -1.4209 v -7.59766 h 1.4209 v 2.94922 q 0.15137,-0.4541 0.51758,-0.70312 0.36621,-0.24902 0.88379,-0.24902 0.77636,0 1.17187,0.51757 0.39551,0.51269 0.39551,1.5332 z"
     style="stroke-linejoin:miter;font-size:medium;-inkscape-font-specification:'monospace Bold';fill-opacity:1;letter-spacing:0px;word-spacing:0px;stroke:none;stroke-linecap:butt;text-align:center;stroke-width:0.75px;font-style:normal;fill:#bbae00;font-family:monospace;stroke-opacity:1;text-anchor:middle;font-stretch:normal;font-variant:normal;font-weight:bold;line-height:125%"
     id="path3656"
     transform="matrix(0.352778,0.000000,0.000000,0.352778,-0.000000,-0.095323)" />
  <path
     inkscape:connector-curvature="0"
     d="m 289.69671,338.6626 q -0.49805,0.20508 -1.01562,0.30762 -0.51758,0.10254 -1.09375,0.10254 -1.37207,0 -2.09961,-0.73242 -0.72266,-0.73731 -0.72266,-2.11914 0,-1.33789 0.69825,-2.11426 0.69823,-0.77636 1.90429,-0.77636 1.21582,0 1.88477,0.72265 0.67383,0.71777 0.67383,2.02637 v 0.58105 h -3.70606 q 0.005,0.64453 0.38086,0.96191 0.37597,0.31739 1.12305,0.31739 0.49316,0 0.97167,-0.1416 0.47852,-0.14161 1.00098,-0.44922 z m -1.21094,-3.07617 q -0.01,-0.5664 -0.29296,-0.85449 -0.27833,-0.29297 -0.8252,-0.29297 -0.49316,0 -0.78613,0.30274 -0.29297,0.29785 -0.34668,0.84961 z"
     style="stroke-linejoin:miter;font-size:medium;-inkscape-font-specification:'monospace Bold';fill-opacity:1;letter-spacing:0px;word-spacing:0px;stroke:none;stroke-linecap:butt;text-align:center;stroke-width:0.75px;font-style:normal;fill:#bbae00;font-family:monospace;stroke-opacity:1;text-anchor:middle;font-stretch:normal;font-variant:normal;font-weight:bold;line-height:125%"
     id="path3658"
     transform="matrix(0.352778,0.000000,0.000000,0.352778,-0.000000,-0.095323)" />
  <path
     inkscape:connector-curvature="0"
     d="m 295.95159,334.9712 q -0.23438,-0.21484 -0.55176,-0.32227 -0.3125,-0.10742 -0.68847,-0.10742 -0.45411,0 -0.7959,0.16113 -0.33692,0.15626 -0.52246,0.45899 -0.11719,0.18555 -0.16602,0.44922 -0.044,0.26367 -0.044,0.80078 v 2.51953 h -1.43066 v -5.46875 h 1.43066 v 0.84961 q 0.20996,-0.46875 0.64453,-0.72266 0.43457,-0.25878 1.01562,-0.25878 0.29298,0 0.57129,0.0732 0.2832,0.0684 0.53711,0.20508 z"
     style="stroke-linejoin:miter;font-size:medium;-inkscape-font-specification:'monospace Bold';fill-opacity:1;letter-spacing:0px;word-spacing:0px;stroke:none;stroke-linecap:butt;text-align:center;stroke-width:0.75px;font-style:normal;fill:#bbae00;font-family:monospace;stroke-opacity:1;text-anchor:middle;font-stretch:normal;font-variant:normal;font-weight:bold;line-height:125%"
     id="path3660"
     transform="matrix(0.352778,0.000000,0.000000,0.352778,-0.000000,-0.095323)" />
  <path
     inkscape:connector-curvature="0"
     d="m 307.99261,333.46241 -1.73828,5.46875 h -1.7627 l -1.73828,-5.46875 h 1.45019 l 1.167,4.26758 1.17187,-4.26758 z"
     style="stroke-linejoin:miter;font-size:medium;-inkscape-font-specification:'monospace Bold';fill-opacity:1;letter-spacing:0px;word-spacing:0px;stroke:none;stroke-linecap:butt;text-align:center;stroke-width:0.75px;font-style:normal;fill:#bbae00;font-family:monospace;stroke-opacity:1;text-anchor:middle;font-stretch:normal;font-variant:normal;font-weight:bold;line-height:125%"
     id="path3662"
     transform="matrix(0.352778,0.000000,0.000000,0.352778,-0.000000,-0.095323)" />
  <path
     inkscape:connector-curvature="0"
     d="m 311.38616,334.49268 q -0.51269,0 -0.80567,0.4541 -0.29296,0.44922 -0.29296,1.25489 0,0.80566 0.29296,1.25976 0.29298,0.44922 0.80567,0.44922 0.51758,0 0.81055,-0.44922 0.29297,-0.4541 0.29297,-1.25976 0,-0.80567 -0.29297,-1.25489 -0.29297,-0.4541 -0.81055,-0.4541 z m -2.52929,1.70899 q 0,-1.32324 0.68358,-2.09473 0.68848,-0.77636 1.84571,-0.77636 1.16211,0 1.8457,0.77636 0.68848,0.77149 0.68848,2.09473 0,1.32324 -0.68848,2.09961 -0.68359,0.77148 -1.8457,0.77148 -1.15723,0 -1.84571,-0.77148 -0.68358,-0.77637 -0.68358,-2.09961 z"
     style="stroke-linejoin:miter;font-size:medium;-inkscape-font-specification:'monospace Bold';fill-opacity:1;letter-spacing:0px;word-spacing:0px;stroke:none;stroke-linecap:butt;text-align:center;stroke-width:0.75px;font-style:normal;fill:#bbae00;font-family:monospace;stroke-opacity:1;text-anchor:middle;font-stretch:normal;font-variant:normal;font-weight:bold;line-height:125%"
     id="path3664"
     transform="matrix(0.352778,0.000000,0.000000,0.352778,-0.000000,-0.095323)" />
  <path
     inkscape:connector-curvature="0"
     d="m 317.76311,334.00928 q 0.16113,-0.34668 0.41016,-0.51269 0.24902,-0.16601 0.61035,-0.16601 0.70801,0 0.97656,0.48828 0.27343,0.48828 0.27343,2.03124 v 3.08106 h -1.17187 v -3.51075 q 0,-0.61035 -0.0928,-0.81543 -0.0928,-0.20507 -0.33691,-0.20507 -0.24414,0 -0.3418,0.20996 -0.0977,0.20996 -0.0977,0.81054 v 3.51075 h -1.15723 v -3.51075 q 0,-0.60058 -0.0976,-0.81054 -0.0977,-0.20996 -0.3418,-0.20996 -0.24414,0 -0.33691,0.20507 -0.0928,0.20508 -0.0928,0.81543 v 3.51075 h -1.17188 v -5.46875 h 1.04004 v 0.5664 q 0.12207,-0.32226 0.39062,-0.50781 0.26856,-0.19042 0.60059,-0.19042 0.33203,0 0.60547,0.20019 0.27344,0.19531 0.33203,0.47851 z"
     style="stroke-linejoin:miter;font-size:medium;-inkscape-font-specification:'monospace Bold';fill-opacity:1;letter-spacing:0px;word-spacing:0px;stroke:none;stroke-linecap:butt;text-align:center;stroke-width:0.75px;font-style:normal;fill:#bbae00;font-family:monospace;stroke-opacity:1;text-anchor:middle;font-stretch:normal;font-variant:normal;font-weight:bold;line-height:125%"
     id="path3666"
     transform="matrix(0.352778,0.000000,0.000000,0.352778,-0.000000,-0.095323)" />
  <path
     inkscape:connector-curvature="0"
     d="m 330.15569,338.93116 h -1.44043 v -6.03027 h -1.85059 v -1.25977 h 5.14161 v 1.25977 h -1.85059 z"
     style="stroke-linejoin:miter;font-size:medium;-inkscape-font-specification:'monospace Bold';fill-opacity:1;letter-spacing:0px;word-spacing:0px;stroke:none;stroke-linecap:butt;text-align:center;stroke-width:0.75px;font-style:normal;fill:#bbae00;font-family:monospace;stroke-opacity:1;text-anchor:middle;font-stretch:normal;font-variant:normal;font-weight:bold;line-height:125%"
     id="path3668"
     transform="matrix(0.352778,0.000000,0.000000,0.352778,-0.000000,-0.095323)" />
  <path
     inkscape:connector-curvature="0"
     d="m 335.91252,339.52198 q -0.28808,0.77148 -0.69336,1.12305 -0.40038,0.35644 -0.97656,0.35644 h -1.18164 v -1.08886 h 0.58106 q 0.43945,0 0.64453,-0.15138 0.20508,-0.14648 0.41504,-0.68847 l 0.10742,-0.29297 -2.08008,-5.31738 h 1.50391 l 1.24999,3.5498 1.1963,-3.5498 h 1.5039 z"
     style="stroke-linejoin:miter;font-size:medium;-inkscape-font-specification:'monospace Bold';fill-opacity:1;letter-spacing:0px;word-spacing:0px;stroke:none;stroke-linecap:butt;text-align:center;stroke-width:0.75px;font-style:normal;fill:#bbae00;font-family:monospace;stroke-opacity:1;text-anchor:middle;font-stretch:normal;font-variant:normal;font-weight:bold;line-height:125%"
     id="path3670"
     transform="matrix(0.352778,0.000000,0.000000,0.352778,-0.000000,-0.095323)" />
  <path
     inkscape:connector-curvature="0"
     d="m 340.61467,338.15968 v 2.85156 h -1.42579 v -7.54883 h 1.42579 v 0.82031 q 0.22461,-0.47363 0.59082,-0.71289 0.36621,-0.23925 0.85937,-0.23925 0.9375,0 1.45508,0.75195 0.51758,0.75195 0.51758,2.11914 0,1.38672 -0.52735,2.1289 -0.52245,0.74219 -1.49413,0.74219 -0.43946,0 -0.79102,-0.22461 -0.34668,-0.22949 -0.61035,-0.68847 z m 1.99219,-1.96778 q 0,-0.79102 -0.26368,-1.24024 -0.26367,-0.44921 -0.72754,-0.44921 -0.46386,0 -0.73242,0.44921 -0.26855,0.44922 -0.26855,1.24024 0,0.79102 0.26855,1.24023 0.26856,0.44922 0.73242,0.44922 0.46387,0 0.72754,-0.44922 0.26368,-0.44921 0.26368,-1.24023 z"
     style="stroke-linejoin:miter;font-size:medium;-inkscape-font-specification:'monospace Bold';fill-opacity:1;letter-spacing:0px;word-spacing:0px;stroke:none;stroke-linecap:butt;text-align:center;stroke-width:0.75px;font-style:normal;fill:#bbae00;font-family:monospace;stroke-opacity:1;text-anchor:middle;font-stretch:normal;font-variant:normal;font-weight:bold;line-height:125%"
     id="path3672"
     transform="matrix(0.352778,0.000000,0.000000,0.352778,-0.000000,-0.095323)" />
  <path
     inkscape:connector-curvature="0"
     d="m 353.49553,337.72999 1.28418,-6.08887 h 1.45019 l -1.73339,7.29004 h -1.99707 l -1.7334,-7.29004 h 1.45019 z"
     style="stroke-linejoin:miter;font-size:medium;-inkscape-font-specification:'monospace Bold';fill-opacity:1;letter-spacing:0px;word-spacing:0px;stroke:none;stroke-linecap:butt;text-align:center;stroke-width:0.75px;font-style:normal;fill:#bbae00;font-family:monospace;stroke-opacity:1;text-anchor:middle;font-stretch:normal;font-variant:normal;font-weight:bold;line-height:125%"
     id="path3674"
     transform="matrix(0.352778,0.000000,0.000000,0.352778,-0.000000,-0.095323)" />
  <path
     inkscape:connector-curvature="0"
     d="m 357.58244,333.46241 h 2.83204 v 4.37012 h 1.77734 v 1.09863 h -4.99024 v -1.09863 h 1.78223 v -3.27149 h -1.40137 z m 1.40137,-2.66113 h 1.43067 v 1.66992 h -1.43067 z"
     style="stroke-linejoin:miter;font-size:medium;-inkscape-font-specification:'monospace Bold';fill-opacity:1;letter-spacing:0px;word-spacing:0px;stroke:none;stroke-linecap:butt;text-align:center;stroke-width:0.75px;font-style:normal;fill:#bbae00;font-family:monospace;stroke-opacity:1;text-anchor:middle;font-stretch:normal;font-variant:normal;font-weight:bold;line-height:125%"
     id="path3676"
     transform="matrix(0.352778,0.000000,0.000000,0.352778,-0.000000,-0.095323)" />
  <path
     inkscape:connector-curvature="0"
     d="m 367.35784,333.63331 v 1.25 q -0.39551,-0.25391 -0.82519,-0.38086 -0.42481,-0.13184 -0.8545,-0.13184 -0.47852,0 -0.72266,0.14161 -0.24414,0.13671 -0.24414,0.41015 0,0.39062 1.04493,0.63477 l 0.0537,0.0146 0.41015,0.0977 q 0.78125,0.18555 1.14258,0.6006 0.36621,0.41015 0.36621,1.11327 0,0.84473 -0.55664,1.26954 -0.55176,0.41991 -1.66504,0.41991 -0.49316,0 -1.01075,-0.0879 -0.51757,-0.083 -1.0498,-0.25391 v -1.25 q 0.47363,0.26855 0.96192,0.41015 0.49316,0.14161 0.95215,0.14161 0.50292,0 0.76171,-0.14649 0.25879,-0.14648 0.25879,-0.4248 0,-0.27344 -0.18554,-0.41992 -0.18067,-0.14649 -0.86915,-0.31251 l -0.3955,-0.0879 q -0.82032,-0.18555 -1.19629,-0.58106 -0.37598,-0.39551 -0.37598,-1.05957 0,-0.79101 0.57129,-1.23047 0.57129,-0.43945 1.60644,-0.43945 0.46387,0 0.92286,0.0781 0.46386,0.0733 0.89844,0.22461 z"
     style="stroke-linejoin:miter;font-size:medium;-inkscape-font-specification:'monospace Bold';fill-opacity:1;letter-spacing:0px;word-spacing:0px;stroke:none;stroke-linecap:butt;text-align:center;stroke-width:0.75px;font-style:normal;fill:#bbae00;font-family:monospace;stroke-opacity:1;text-anchor:middle;font-stretch:normal;font-variant:normal;font-weight:bold;line-height:125%"
     id="path3678"
     transform="matrix(0.352778,0.000000,0.000000,0.352778,-0.000000,-0.095323)" />
  <path
     inkscape:connector-curvature="0"
     d="m 371.95257,336.3628 q -0.80079,0 -1.11817,0.20508 -0.31739,0.20508 -0.31739,0.70312 0,0.37109 0.21973,0.59082 0.21973,0.21973 0.5957,0.21973 0.56641,0 0.87891,-0.42481 0.3125,-0.42968 0.3125,-1.19629 v -0.0976 z m 1.99218,-0.55176 v 3.12012 h -1.4209 v -0.61035 q -0.25879,0.36132 -0.66406,0.55664 -0.40528,0.19531 -0.89356,0.19531 -0.93261,0 -1.45507,-0.49317 -0.51758,-0.49316 -0.51758,-1.37694 0,-0.95704 0.62012,-1.41114 0.62011,-0.45898 1.91894,-0.45898 h 0.99121 v -0.23926 q 0,-0.34668 -0.25391,-0.52246 -0.24902,-0.18066 -0.7373,-0.18066 -0.51269,0 -0.9961,0.13183 -0.47851,0.12695 -1.00097,0.41015 v -1.2207 q 0.47363,-0.19531 0.96191,-0.28809 0.48828,-0.0928 1.03516,-0.0928 1.33301,0 1.87012,0.54198 0.54199,0.542 0.54199,1.93848 z"
     style="stroke-linejoin:miter;font-size:medium;-inkscape-font-specification:'monospace Bold';fill-opacity:1;letter-spacing:0px;word-spacing:0px;stroke:none;stroke-linecap:butt;text-align:center;stroke-width:0.75px;font-style:normal;fill:#bbae00;font-family:monospace;stroke-opacity:1;text-anchor:middle;font-stretch:normal;font-variant:normal;font-weight:bold;line-height:125%"
     id="path3680"
     transform="matrix(0.352778,0.000000,0.000000,0.352778,-0.000000,-0.095323)" />
  <path
     inkscape:connector-curvature="0"
     d="m 377.91936,331.90967 v 1.55274 h 1.87012 v 1.09863 h -1.87012 v 2.58789 q 0,0.36621 0.17579,0.52735 0.18066,0.15625 0.5957,0.15625 h 1.09863 v 1.09863 h -1.20117 q -1.23046,0 -1.66504,-0.39063 -0.43457,-0.3955 -0.43457,-1.45996 v -2.51953 h -1.39648 v -1.09863 h 1.39648 v -1.55274 z"
     style="stroke-linejoin:miter;font-size:medium;-inkscape-font-specification:'monospace Bold';fill-opacity:1;letter-spacing:0px;word-spacing:0px;stroke:none;stroke-linecap:butt;text-align:center;stroke-width:0.75px;font-style:normal;fill:#bbae00;font-family:monospace;stroke-opacity:1;text-anchor:middle;font-stretch:normal;font-variant:normal;font-weight:bold;line-height:125%"
     id="path3682"
     transform="matrix(0.352778,0.000000,0.000000,0.352778,-0.000000,-0.095323)" />
  <path
     inkscape:connector-curvature="0"
     d="m 383.57365,334.49268 q -0.5127,0 -0.80566,0.4541 -0.29298,0.44922 -0.29298,1.25489 0,0.80566 0.29298,1.25976 0.29296,0.44922 0.80566,0.44922 0.51758,0 0.81055,-0.44922 0.29296,-0.4541 0.29296,-1.25976 0,-0.80567 -0.29296,-1.25489 -0.29297,-0.4541 -0.81055,-0.4541 z m -2.5293,1.70899 q 0,-1.32324 0.6836,-2.09473 0.68847,-0.77636 1.8457,-0.77636 1.16211,0 1.8457,0.77636 0.68848,0.77149 0.68848,2.09473 0,1.32324 -0.68848,2.09961 -0.68359,0.77148 -1.8457,0.77148 -1.15723,0 -1.8457,-0.77148 -0.6836,-0.77637 -0.6836,-2.09961 z"
     style="stroke-linejoin:miter;font-size:medium;-inkscape-font-specification:'monospace Bold';fill-opacity:1;letter-spacing:0px;word-spacing:0px;stroke:none;stroke-linecap:butt;text-align:center;stroke-width:0.75px;font-style:normal;fill:#bbae00;font-family:monospace;stroke-opacity:1;text-anchor:middle;font-stretch:normal;font-variant:normal;font-weight:bold;line-height:125%"
     id="path3684"
     transform="matrix(0.352778,0.000000,0.000000,0.352778,-0.000000,-0.095323)" />
  <path
     inkscape:connector-curvature="0"
     d="m 391.81096,335.38135 v 3.54981 h -1.4209 v -3.33008 q 0,-0.5957 -0.1709,-0.84961 -0.16601,-0.25879 -0.54687,-0.25879 -0.38575,0 -0.61035,0.34668 -0.21973,0.34668 -0.21973,0.96192 v 3.12988 h -1.42089 v -5.46875 h 1.42089 v 0.82031 q 0.15137,-0.4541 0.51758,-0.70312 0.36621,-0.24902 0.88379,-0.24902 0.77636,0 1.17188,0.51757 0.3955,0.51269 0.3955,1.5332 z"
     style="stroke-linejoin:miter;font-size:medium;-inkscape-font-specification:'monospace Bold';fill-opacity:1;letter-spacing:0px;word-spacing:0px;stroke:none;stroke-linecap:butt;text-align:center;stroke-width:0.75px;font-style:normal;fill:#bbae00;font-family:monospace;stroke-opacity:1;text-anchor:middle;font-stretch:normal;font-variant:normal;font-weight:bold;line-height:125%"
     id="path3686"
     transform="matrix(0.352778,0.000000,0.000000,0.352778,-0.000000,-0.095323)" />
  <path
     inkscape:connector-curvature="0"
     d="m 399.184,331.64112 h 1.44043 v 2.88086 l 2.25586,-2.88086 h 1.63086 l -2.2998,2.8711 2.38281,4.41894 h -1.60157 l -1.72851,-3.28125 -0.63965,0.81054 v 2.47071 H 399.184 Z"
     style="stroke-linejoin:miter;font-size:medium;-inkscape-font-specification:'monospace Bold';fill-opacity:1;letter-spacing:0px;word-spacing:0px;stroke:none;stroke-linecap:butt;text-align:center;stroke-width:0.75px;font-style:normal;fill:#bbae00;font-family:monospace;stroke-opacity:1;text-anchor:middle;font-stretch:normal;font-variant:normal;font-weight:bold;line-height:125%"
     id="path3688"
     transform="matrix(0.352778,0.000000,0.000000,0.352778,-0.000000,-0.095323)" />
  <path
     inkscape:connector-curvature="0"
     d="m 411.58636,331.64112 h 3.95996 v 1.26953 h -2.79297 v 1.35254 q 0.17578,-0.0683 0.37598,-0.0976 0.2002,-0.0342 0.42481,-0.0342 1.08398,0 1.75781,0.68359 0.67382,0.6836 0.67382,1.77734 0,1.14747 -0.73242,1.81641 -0.72754,0.66406 -1.9873,0.66406 -0.46875,0 -0.94727,-0.0781 -0.47851,-0.0781 -0.97656,-0.23437 v -1.29883 q 0.40527,0.20019 0.83008,0.30273 0.42968,0.0977 0.85937,0.0977 0.76172,0 1.15723,-0.32227 0.3955,-0.32714 0.3955,-0.94727 0,-0.57129 -0.3955,-0.91308 -0.39062,-0.34668 -1.04492,-0.34668 -0.38574,0 -0.77637,0.0976 -0.38574,0.0928 -0.78125,0.28321 z"
     style="stroke-linejoin:miter;font-size:medium;-inkscape-font-specification:'monospace Bold';fill-opacity:1;letter-spacing:0px;word-spacing:0px;stroke:none;stroke-linecap:butt;text-align:center;stroke-width:0.75px;font-style:normal;fill:#bbae00;font-family:monospace;stroke-opacity:1;text-anchor:middle;font-stretch:normal;font-variant:normal;font-weight:bold;line-height:125%"
     id="path3690"
     transform="matrix(0.352778,0.000000,0.000000,0.352778,-0.000000,-0.095323)" />
  <path
     inkscape:connector-curvature="0"
     d="m 419.06193,335.29346 q 0,-0.25879 0.17578,-0.43456 0.17579,-0.17579 0.42969,-0.17579 0.25879,0 0.43457,0.17579 0.17578,0.17577 0.17578,0.43456 0,0.25391 -0.17578,0.42969 -0.17578,0.17578 -0.43457,0.17578 -0.2539,0 -0.42969,-0.1709 -0.17578,-0.17578 -0.17578,-0.43457 z m 0.60547,-2.56348 q -0.49805,0 -0.72754,0.61036 -0.22949,0.61035 -0.22949,1.95312 0,1.3379 0.22949,1.94825 0.22949,0.61035 0.72754,0.61035 0.50293,0 0.73242,-0.61035 0.22949,-0.61035 0.22949,-1.94825 0,-1.34277 -0.22949,-1.95312 -0.22949,-0.61036 -0.73242,-0.61036 z m -2.40723,2.56348 q 0,-1.89453 0.60059,-2.83691 0.60058,-0.94727 1.80664,-0.94727 1.21094,0 1.81152,0.94239 0.60059,0.94238 0.60059,2.84179 0,1.89453 -0.60059,2.83691 -0.60058,0.94239 -1.81152,0.94239 -1.20606,0 -1.80664,-0.94239 -0.60059,-0.94726 -0.60059,-2.83691 z"
     style="stroke-linejoin:miter;font-size:medium;-inkscape-font-specification:'monospace Bold';fill-opacity:1;letter-spacing:0px;word-spacing:0px;stroke:none;stroke-linecap:butt;text-align:center;stroke-width:0.75px;font-style:normal;fill:#bbae00;font-family:monospace;stroke-opacity:1;text-anchor:middle;font-stretch:normal;font-variant:normal;font-weight:bold;line-height:125%"
     id="path3692"
     transform="matrix(0.352778,0.000000,0.000000,0.352778,-0.000000,-0.095323)" />
  <path
     inkscape:connector-curvature="0"
     d="m 428.69085,331.64112 h 1.25976 l 0.52247,5.35156 0.62988,-3.46191 h 1.19629 l 0.73242,3.46191 0.41016,-5.35156 h 1.26953 l -0.83984,7.29004 h -1.34278 l -0.83008,-3.82812 -0.77636,3.82812 h -1.33301 z"
     style="stroke-linejoin:miter;font-size:medium;-inkscape-font-specification:'monospace Bold';fill-opacity:1;letter-spacing:0px;word-spacing:0px;stroke:none;stroke-linecap:butt;text-align:center;stroke-width:0.75px;font-style:normal;fill:#bbae00;font-family:monospace;stroke-opacity:1;text-anchor:middle;font-stretch:normal;font-variant:normal;font-weight:bold;line-height:125%"
     id="path3694"
     transform="matrix(0.352778,0.000000,0.000000,0.352778,-0.000000,-0.095323)" />
  <path
     inkscape:connector-curvature="0"
     d="m 436.93791,332.85205 v 2.13868 h 0.59082 q 0.708,0 0.99121,-0.23926 0.28808,-0.23925 0.28808,-0.83007 0,-0.59082 -0.28808,-0.83009 -0.28321,-0.23926 -0.99121,-0.23926 z m -1.44043,-1.21093 h 1.97754 q 1.50878,0 2.16796,0.53711 0.66407,0.53711 0.66407,1.74317 0,1.20605 -0.66407,1.74315 -0.65918,0.53712 -2.16796,0.53712 h -0.53711 v 2.72949 h -1.44043 z"
     style="stroke-linejoin:miter;font-size:medium;-inkscape-font-specification:'monospace Bold';fill-opacity:1;letter-spacing:0px;word-spacing:0px;stroke:none;stroke-linecap:butt;text-align:center;stroke-width:0.75px;font-style:normal;fill:#bbae00;font-family:monospace;stroke-opacity:1;text-anchor:middle;font-stretch:normal;font-variant:normal;font-weight:bold;line-height:125%"
     id="path3696"
     transform="matrix(0.352778,0.000000,0.000000,0.352778,-0.000000,-0.095323)" />
  <path
     inkscape:connector-curvature="0"
     d="m 254.64788,348.86279 q -0.80079,0 -1.11816,0.20508 -0.31739,0.20508 -0.31739,0.70313 0,0.37109 0.21973,0.59082 0.21973,0.21972 0.5957,0.21972 0.56641,0 0.87891,-0.4248 0.3125,-0.42969 0.3125,-1.19629 v -0.0977 z m 1.99218,-0.55176 v 3.12012 h -1.42089 v -0.61035 q -0.25879,0.36133 -0.66406,0.55664 -0.40528,0.19531 -0.89356,0.19531 -0.93262,0 -1.45508,-0.49316 -0.51758,-0.49316 -0.51758,-1.37696 0,-0.95703 0.62012,-1.41113 0.62012,-0.45898 1.91895,-0.45898 h 0.99121 v -0.23926 q 0,-0.34668 -0.25391,-0.52246 -0.24902,-0.18067 -0.7373,-0.18067 -0.5127,0 -0.9961,0.13184 -0.47851,0.12695 -1.00097,0.41016 v -1.22071 q 0.47363,-0.19531 0.96191,-0.28808 0.48828,-0.0928 1.03516,-0.0928 1.333,0 1.87012,0.542 0.54198,0.54199 0.54198,1.93847 z"
     style="stroke-linejoin:miter;font-size:medium;-inkscape-font-specification:'monospace Bold';fill-opacity:1;letter-spacing:0px;word-spacing:0px;stroke:none;stroke-linecap:butt;text-align:center;stroke-width:0.75px;font-style:normal;fill:#bbae00;font-family:monospace;stroke-opacity:1;text-anchor:middle;font-stretch:normal;font-variant:normal;font-weight:bold;line-height:125%"
     id="path3698"
     transform="matrix(0.352778,0.000000,0.000000,0.352778,7.514614,-0.095323)" />
  <path
     inkscape:connector-curvature="0"
     d="m 258.02678,349.52197 v -3.55957 h 1.43067 v 3.33985 q 0,0.59082 0.16602,0.84472 0.16601,0.25391 0.55175,0.25391 0.38575,0 0.60059,-0.3418 0.21972,-0.3418 0.21972,-0.95703 v -3.13965 h 1.43067 v 5.46875 h -1.43067 v -0.81055 q -0.15136,0.45411 -0.51757,0.70313 -0.36133,0.24902 -0.87402,0.24902 -0.78126,0 -1.18165,-0.51757 -0.39551,-0.51759 -0.39551,-1.53321 z"
     style="stroke-linejoin:miter;font-size:medium;-inkscape-font-specification:'monospace Bold';fill-opacity:1;letter-spacing:0px;word-spacing:0px;stroke:none;stroke-linecap:butt;text-align:center;stroke-width:0.75px;font-style:normal;fill:#bbae00;font-family:monospace;stroke-opacity:1;text-anchor:middle;font-stretch:normal;font-variant:normal;font-weight:bold;line-height:125%"
     id="path3700"
     transform="matrix(0.352778,0.000000,0.000000,0.352778,7.514614,-0.095323)" />
  <path
     inkscape:connector-curvature="0"
     d="m 268.10003,346.1333 v 1.25 q -0.39551,-0.25391 -0.8252,-0.38086 -0.42481,-0.13184 -0.85449,-0.13184 -0.47851,0 -0.72265,0.1416 -0.24415,0.13672 -0.24415,0.41016 0,0.39063 1.04492,0.63477 l 0.0537,0.0146 0.41015,0.0977 q 0.78126,0.18555 1.14258,0.60058 0.36621,0.41016 0.36621,1.11329 0,0.84472 -0.55664,1.26953 -0.55175,0.41992 -1.66504,0.41992 -0.49316,0 -1.01073,-0.0879 -0.51759,-0.083 -1.04981,-0.25391 v -1.24999 q 0.47363,0.26855 0.96191,0.41015 0.49317,0.1416 0.95215,0.1416 0.50293,0 0.76172,-0.14648 0.25879,-0.14649 0.25879,-0.42481 0,-0.27344 -0.18555,-0.41992 -0.18066,-0.14648 -0.86914,-0.3125 l -0.39551,-0.0879 q -0.82031,-0.18555 -1.19629,-0.58106 -0.37597,-0.3955 -0.37597,-1.05957 0,-0.79101 0.57129,-1.23046 0.57129,-0.43946 1.60644,-0.43946 0.46387,0 0.92285,0.0781 0.46387,0.0732 0.89844,0.22461 z"
     style="stroke-linejoin:miter;font-size:medium;-inkscape-font-specification:'monospace Bold';fill-opacity:1;letter-spacing:0px;word-spacing:0px;stroke:none;stroke-linecap:butt;text-align:center;stroke-width:0.75px;font-style:normal;fill:#bbae00;font-family:monospace;stroke-opacity:1;text-anchor:middle;font-stretch:normal;font-variant:normal;font-weight:bold;line-height:125%"
     id="path3702"
     transform="matrix(0.352778,0.000000,0.000000,0.352778,7.514614,-0.095323)" />
  <path
     inkscape:connector-curvature="0"
     d="m 274.11565,346.1333 v 1.25 q -0.39551,-0.25391 -0.8252,-0.38086 -0.4248,-0.13184 -0.85449,-0.13184 -0.47851,0 -0.72265,0.1416 -0.24414,0.13672 -0.24414,0.41016 0,0.39063 1.04492,0.63477 l 0.0537,0.0146 0.41016,0.0977 q 0.78125,0.18555 1.14257,0.60058 0.36622,0.41016 0.36622,1.11329 0,0.84472 -0.55664,1.26953 -0.55176,0.41992 -1.66504,0.41992 -0.49317,0 -1.01074,-0.0879 -0.51758,-0.083 -1.04981,-0.25391 v -1.24999 q 0.47363,0.26855 0.96191,0.41015 0.49317,0.1416 0.95215,0.1416 0.50294,0 0.76172,-0.14648 0.25879,-0.14649 0.25879,-0.42481 0,-0.27344 -0.18554,-0.41992 -0.18067,-0.14648 -0.86915,-0.3125 l -0.3955,-0.0879 q -0.82031,-0.18555 -1.19629,-0.58106 -0.37598,-0.3955 -0.37598,-1.05957 0,-0.79101 0.57129,-1.23046 0.57129,-0.43946 1.60645,-0.43946 0.46386,0 0.92285,0.0781 0.46387,0.0732 0.89843,0.22461 z"
     style="stroke-linejoin:miter;font-size:medium;-inkscape-font-specification:'monospace Bold';fill-opacity:1;letter-spacing:0px;word-spacing:0px;stroke:none;stroke-linecap:butt;text-align:center;stroke-width:0.75px;font-style:normal;fill:#bbae00;font-family:monospace;stroke-opacity:1;text-anchor:middle;font-stretch:normal;font-variant:normal;font-weight:bold;line-height:125%"
     id="path3704"
     transform="matrix(0.352778,0.000000,0.000000,0.352778,7.514614,-0.095323)" />
  <path
     inkscape:connector-curvature="0"
     d="m 280.47308,351.15283 q -0.36134,0.20996 -0.77637,0.3125 -0.41505,0.10742 -0.89356,0.10742 -1.26464,0 -1.97754,-0.76171 -0.71289,-0.76173 -0.71289,-2.10938 0,-1.35254 0.71777,-2.11426 0.71778,-0.7666 1.98242,-0.7666 0.43946,0 0.84474,0.10254 0.41015,0.10254 0.81543,0.31738 v 1.3086 q -0.31251,-0.26856 -0.68848,-0.41016 -0.3711,-0.14649 -0.77149,-0.14649 -0.69824,0 -1.07422,0.44434 -0.37597,0.44434 -0.37597,1.26465 0,0.82031 0.37597,1.25976 0.37598,0.43946 1.07422,0.43946 0.41504,0 0.77637,-0.13672 0.36133,-0.1416 0.6836,-0.42481 z"
     style="stroke-linejoin:miter;font-size:medium;-inkscape-font-specification:'monospace Bold';fill-opacity:1;letter-spacing:0px;word-spacing:0px;stroke:none;stroke-linecap:butt;text-align:center;stroke-width:0.75px;font-style:normal;fill:#bbae00;font-family:monospace;stroke-opacity:1;text-anchor:middle;font-stretch:normal;font-variant:normal;font-weight:bold;line-height:125%"
     id="path3706"
     transform="matrix(0.352778,0.000000,0.000000,0.352778,7.514614,-0.095323)" />
  <path
     inkscape:connector-curvature="0"
     d="m 286.53753,347.88135 v 3.5498 h -1.4209 v -3.33007 q 0,-0.59083 -0.1709,-0.84474 -0.16602,-0.2539 -0.54688,-0.2539 -0.39062,0 -0.61035,0.34668 -0.21972,0.3418 -0.21972,0.95215 v 3.12988 h -1.4209 v -7.59766 h 1.4209 v 2.94922 q 0.15136,-0.4541 0.51757,-0.70312 0.36621,-0.24903 0.8838,-0.24903 0.77636,0 1.17187,0.51759 0.39551,0.51269 0.39551,1.5332 z"
     style="stroke-linejoin:miter;font-size:medium;-inkscape-font-specification:'monospace Bold';fill-opacity:1;letter-spacing:0px;word-spacing:0px;stroke:none;stroke-linecap:butt;text-align:center;stroke-width:0.75px;font-style:normal;fill:#bbae00;font-family:monospace;stroke-opacity:1;text-anchor:middle;font-stretch:normal;font-variant:normal;font-weight:bold;line-height:125%"
     id="path3708"
     transform="matrix(0.352778,0.000000,0.000000,0.352778,7.514614,-0.095323)" />
  <path
     inkscape:connector-curvature="0"
     d="m 292.55316,347.88135 v 3.5498 h -1.4209 v -3.33007 q 0,-0.59571 -0.1709,-0.84962 -0.16602,-0.25879 -0.54687,-0.25879 -0.38575,0 -0.61036,0.34668 -0.21973,0.34668 -0.21973,0.96192 v 3.12988 h -1.4209 v -5.46875 h 1.4209 v 0.82031 q 0.15137,-0.4541 0.51758,-0.70312 0.36621,-0.24903 0.88379,-0.24903 0.77637,0 1.17187,0.51759 0.39552,0.51269 0.39552,1.5332 z"
     style="stroke-linejoin:miter;font-size:medium;-inkscape-font-specification:'monospace Bold';fill-opacity:1;letter-spacing:0px;word-spacing:0px;stroke:none;stroke-linecap:butt;text-align:center;stroke-width:0.75px;font-style:normal;fill:#bbae00;font-family:monospace;stroke-opacity:1;text-anchor:middle;font-stretch:normal;font-variant:normal;font-weight:bold;line-height:125%"
     id="path3710"
     transform="matrix(0.352778,0.000000,0.000000,0.352778,7.514614,-0.095323)" />
  <path
     inkscape:connector-curvature="0"
     d="m 298.72014,351.1626 q -0.49804,0.20507 -1.01562,0.30761 -0.51758,0.10254 -1.09375,0.10254 -1.37207,0 -2.09961,-0.73242 -0.72266,-0.7373 -0.72266,-2.11914 0,-1.33789 0.69825,-2.11426 0.69824,-0.77637 1.90429,-0.77637 1.21583,0 1.88477,0.72266 0.67383,0.71777 0.67383,2.02637 v 0.58106 h -3.70605 q 0.005,0.64452 0.38085,0.96191 0.37598,0.31738 1.12305,0.31738 0.49317,0 0.97168,-0.1416 0.47852,-0.1416 1.00097,-0.44922 z m -1.21093,-3.07618 q -0.01,-0.5664 -0.29297,-0.85449 -0.27832,-0.29296 -0.8252,-0.29296 -0.49316,0 -0.78613,0.30273 -0.29297,0.29785 -0.34668,0.8496 z"
     style="stroke-linejoin:miter;font-size:medium;-inkscape-font-specification:'monospace Bold';fill-opacity:1;letter-spacing:0px;word-spacing:0px;stroke:none;stroke-linecap:butt;text-align:center;stroke-width:0.75px;font-style:normal;fill:#bbae00;font-family:monospace;stroke-opacity:1;text-anchor:middle;font-stretch:normal;font-variant:normal;font-weight:bold;line-height:125%"
     id="path3712"
     transform="matrix(0.352778,0.000000,0.000000,0.352778,7.514614,-0.095323)" />
  <path
     inkscape:connector-curvature="0"
     d="m 300.43401,345.9624 h 2.83203 v 4.37012 h 1.77735 v 1.09863 h -4.99023 v -1.09863 h 1.78222 v -3.27148 h -1.40137 z m 1.40137,-2.66113 h 1.43066 v 1.66992 h -1.43066 z"
     style="stroke-linejoin:miter;font-size:medium;-inkscape-font-specification:'monospace Bold';fill-opacity:1;letter-spacing:0px;word-spacing:0px;stroke:none;stroke-linecap:butt;text-align:center;stroke-width:0.75px;font-style:normal;fill:#bbae00;font-family:monospace;stroke-opacity:1;text-anchor:middle;font-stretch:normal;font-variant:normal;font-weight:bold;line-height:125%"
     id="path3714"
     transform="matrix(0.352778,0.000000,0.000000,0.352778,7.514614,-0.095323)" />
  <path
     inkscape:connector-curvature="0"
     d="m 309.23284,346.73877 v -2.90528 h 1.42578 v 7.59766 h -1.42578 v -0.81055 q -0.22949,0.47364 -0.5957,0.71289 -0.36133,0.23926 -0.85449,0.23926 -0.9375,0 -1.45508,-0.75195 -0.51758,-0.75196 -0.51758,-2.11914 0,-1.38672 0.52246,-2.12891 0.52735,-0.74219 1.49902,-0.74219 0.43946,0 0.78614,0.2295 0.35156,0.22461 0.61523,0.67871 z m -1.99219,1.97266 q 0,0.79101 0.26367,1.24023 0.26368,0.44922 0.72755,0.44922 0.46387,0 0.73242,-0.44922 0.26855,-0.44922 0.26855,-1.24023 0,-0.79102 -0.26855,-1.24024 -0.26855,-0.44922 -0.73242,-0.44922 -0.46387,0 -0.72755,0.44922 -0.26367,0.44922 -0.26367,1.24024 z"
     style="stroke-linejoin:miter;font-size:medium;-inkscape-font-specification:'monospace Bold';fill-opacity:1;letter-spacing:0px;word-spacing:0px;stroke:none;stroke-linecap:butt;text-align:center;stroke-width:0.75px;font-style:normal;fill:#bbae00;font-family:monospace;stroke-opacity:1;text-anchor:middle;font-stretch:normal;font-variant:normal;font-weight:bold;line-height:125%"
     id="path3716"
     transform="matrix(0.352778,0.000000,0.000000,0.352778,7.514614,-0.095323)" />
  <path
     inkscape:connector-curvature="0"
     d="m 316.76702,351.1626 q -0.49805,0.20507 -1.01563,0.30761 -0.51757,0.10254 -1.09375,0.10254 -1.37207,0 -2.09961,-0.73242 -0.72265,-0.7373 -0.72265,-2.11914 0,-1.33789 0.69824,-2.11426 0.69824,-0.77637 1.9043,-0.77637 1.21581,0 1.88476,0.72266 0.67383,0.71777 0.67383,2.02637 v 0.58106 h -3.70606 q 0.005,0.64452 0.38086,0.96191 0.37598,0.31738 1.12305,0.31738 0.49316,0 0.97168,-0.1416 0.47851,-0.1416 1.00098,-0.44922 z m -1.21094,-3.07618 q -0.01,-0.5664 -0.29297,-0.85449 -0.27832,-0.29296 -0.82519,-0.29296 -0.49317,0 -0.78614,0.30273 -0.29296,0.29785 -0.34668,0.8496 z"
     style="stroke-linejoin:miter;font-size:medium;-inkscape-font-specification:'monospace Bold';fill-opacity:1;letter-spacing:0px;word-spacing:0px;stroke:none;stroke-linecap:butt;text-align:center;stroke-width:0.75px;font-style:normal;fill:#bbae00;font-family:monospace;stroke-opacity:1;text-anchor:middle;font-stretch:normal;font-variant:normal;font-weight:bold;line-height:125%"
     id="path3718"
     transform="matrix(0.352778,0.000000,0.000000,0.352778,7.514614,-0.095323)" />
  <path
     inkscape:connector-curvature="0"
     d="m 322.63128,347.88135 v 3.5498 h -1.4209 v -3.33007 q 0,-0.59571 -0.1709,-0.84962 -0.16602,-0.25879 -0.54687,-0.25879 -0.38574,0 -0.61035,0.34668 -0.21973,0.34668 -0.21973,0.96192 v 3.12988 h -1.4209 v -5.46875 h 1.4209 v 0.82031 q 0.15136,-0.4541 0.51757,-0.70312 0.36621,-0.24903 0.8838,-0.24903 0.77636,0 1.17187,0.51759 0.39551,0.51269 0.39551,1.5332 z"
     style="stroke-linejoin:miter;font-size:medium;-inkscape-font-specification:'monospace Bold';fill-opacity:1;letter-spacing:0px;word-spacing:0px;stroke:none;stroke-linecap:butt;text-align:center;stroke-width:0.75px;font-style:normal;fill:#bbae00;font-family:monospace;stroke-opacity:1;text-anchor:middle;font-stretch:normal;font-variant:normal;font-weight:bold;line-height:125%"
     id="path3720"
     transform="matrix(0.352778,0.000000,0.000000,0.352778,7.514614,-0.095323)" />
  <path
     inkscape:connector-curvature="0"
     style="fill:none;stroke:#211e1e;stroke-width:0.06470991;stroke-linecap:butt;stroke-linejoin:miter;stroke-miterlimit:10;stroke-opacity:1"
     d="M 41.203225,253.48585 H 31.08676 V 43.836791 h 10.116465"
     id="path98" />
  <path
     d="m -91.214844,429.07161 q -1.451823,-0.55338 -1.966146,-1.15885 -0.514323,-0.61198 -0.514323,-1.64062 0,-1.32162 0.846355,-2.07683 0.846354,-0.75521 2.324218,-0.75521 0.670573,0 1.341146,0.15625 0.670573,0.14974 1.328125,0.44922 v 1.875 q -0.618489,-0.4362 -1.25651,-0.66406 -0.638021,-0.22786 -1.263021,-0.22786 -0.696615,0 -1.067708,0.27994 -0.371094,0.27995 -0.371094,0.80078 0,0.40365 0.266927,0.67058 0.273437,0.26041 1.132812,0.57942 l 0.826823,0.3125 q 1.171875,0.42969 1.725261,1.13933 0.553385,0.70963 0.553385,1.79036 0,1.47136 -0.872396,2.20052 -0.865885,0.72266 -2.623698,0.72266 -0.722656,0 -1.451822,-0.17578 -0.722657,-0.16927 -1.39974,-0.50781 v -1.98568 q 0.768229,0.54687 1.484375,0.8138 0.722656,0.26693 1.425781,0.26693 0.709636,0 1.100261,-0.31901 0.390625,-0.32552 0.390625,-0.90495 0,-0.4362 -0.260417,-0.76172 -0.260417,-0.33203 -0.755208,-0.52083 z"
     style="stroke-linejoin:miter;font-size:13.33333302px;-inkscape-font-specification:'monospace Bold';fill-opacity:1;letter-spacing:0px;word-spacing:0px;stroke:none;stroke-linecap:butt;stroke-width:1px;font-style:normal;fill:#000000;font-family:monospace;stroke-opacity:1;font-stretch:normal;font-variant:normal;font-weight:bold;line-height:125%"
     id="path17396"
     transform="matrix(0.000000,-0.264583,0.264583,0.000000,-77.115606,141.659850)" />
  <path
     d="m -79.541667,428.60286 v 4.73308 h -1.894531 v -4.44011 q 0,-0.78776 -0.227865,-1.1263 -0.221354,-0.33854 -0.729167,-0.33854 -0.520833,0 -0.813802,0.46224 Q -83.5,428.34896 -83.5,429.16276 v 4.17318 h -1.894532 V 423.20573 H -83.5 v 3.93229 q 0.201823,-0.60547 0.690104,-0.9375 0.488281,-0.33203 1.178385,-0.33203 1.035156,0 1.5625,0.6901 0.527344,0.6836 0.527344,2.04427 z"
     style="stroke-linejoin:miter;font-size:13.33333302px;-inkscape-font-specification:'monospace Bold';fill-opacity:1;letter-spacing:0px;word-spacing:0px;stroke:none;stroke-linecap:butt;stroke-width:1px;font-style:normal;fill:#000000;font-family:monospace;stroke-opacity:1;font-stretch:normal;font-variant:normal;font-weight:bold;line-height:125%"
     id="path17398"
     transform="matrix(0.000000,-0.264583,0.264583,0.000000,-77.115606,141.659850)" />
  <path
     d="m -71.319011,432.97786 q -0.664063,0.27344 -1.354167,0.41016 -0.690104,0.13672 -1.458333,0.13672 -1.829427,0 -2.799479,-0.97656 -0.963542,-0.98308 -0.963542,-2.82552 0,-1.78386 0.93099,-2.81901 0.930989,-1.03516 2.539062,-1.03516 1.621094,0 2.513021,0.96354 0.898437,0.95703 0.898437,2.70182 v 0.77474 h -4.941406 q 0.0065,0.85938 0.507813,1.28256 0.501302,0.42317 1.497396,0.42317 0.657552,0 1.295572,-0.1888 0.638021,-0.1888 1.334636,-0.59896 z m -1.614584,-4.10156 q -0.01302,-0.75521 -0.390625,-1.13932 -0.371093,-0.39063 -1.10026,-0.39063 -0.657552,0 -1.048177,0.40365 -0.390625,0.39714 -0.46224,1.13281 z"
     style="stroke-linejoin:miter;font-size:13.33333302px;-inkscape-font-specification:'monospace Bold';fill-opacity:1;letter-spacing:0px;word-spacing:0px;stroke:none;stroke-linecap:butt;stroke-width:1px;font-style:normal;fill:#000000;font-family:monospace;stroke-opacity:1;font-stretch:normal;font-variant:normal;font-weight:bold;line-height:125%"
     id="path17400"
     transform="matrix(0.000000,-0.264583,0.264583,0.000000,-77.115606,141.659850)" />
  <path
     d="m -63.298177,432.97786 q -0.664063,0.27344 -1.354167,0.41016 -0.690104,0.13672 -1.458333,0.13672 -1.829427,0 -2.799479,-0.97656 -0.963542,-0.98308 -0.963542,-2.82552 0,-1.78386 0.93099,-2.81901 0.930989,-1.03516 2.539062,-1.03516 1.621094,0 2.513021,0.96354 0.898437,0.95703 0.898437,2.70182 v 0.77474 h -4.941406 q 0.0065,0.85938 0.507813,1.28256 0.501302,0.42317 1.497395,0.42317 0.657553,0 1.295573,-0.1888 0.638021,-0.1888 1.334636,-0.59896 z m -1.614584,-4.10156 q -0.01302,-0.75521 -0.390625,-1.13932 -0.371093,-0.39063 -1.10026,-0.39063 -0.657552,0 -1.048177,0.40365 -0.390625,0.39714 -0.46224,1.13281 z"
     style="stroke-linejoin:miter;font-size:13.33333302px;-inkscape-font-specification:'monospace Bold';fill-opacity:1;letter-spacing:0px;word-spacing:0px;stroke:none;stroke-linecap:butt;stroke-width:1px;font-style:normal;fill:#000000;font-family:monospace;stroke-opacity:1;font-stretch:normal;font-variant:normal;font-weight:bold;line-height:125%"
     id="path17402"
     transform="matrix(0.000000,-0.264583,0.264583,0.000000,-77.115606,141.659850)" />
  <path
     d="m -57.959637,423.97396 v 2.07031 h 2.49349 v 1.46484 h -2.49349 v 3.45053 q 0,0.48828 0.234375,0.70312 0.240886,0.20833 0.794271,0.20833 h 1.464844 v 1.46485 h -1.601563 q -1.640625,0 -2.220052,-0.52084 -0.579427,-0.52734 -0.579427,-1.94661 v -3.35938 h -1.861979 v -1.46484 h 1.861979 v -2.07031 z"
     style="stroke-linejoin:miter;font-size:13.33333302px;-inkscape-font-specification:'monospace Bold';fill-opacity:1;letter-spacing:0px;word-spacing:0px;stroke:none;stroke-linecap:butt;stroke-width:1px;font-style:normal;fill:#000000;font-family:monospace;stroke-opacity:1;font-stretch:normal;font-variant:normal;font-weight:bold;line-height:125%"
     id="path17404"
     transform="matrix(0.000000,-0.264583,0.264583,0.000000,-77.115606,141.659850)" />
  <path
     d="m -45.153646,423.61589 h 5.279948 v 1.6927 h -3.723958 v 1.80339 q 0.234375,-0.0912 0.501302,-0.13021 0.266927,-0.0456 0.566406,-0.0456 1.445312,0 2.34375,0.91146 0.898437,0.91145 0.898437,2.36979 0,1.52995 -0.976562,2.42187 -0.970052,0.88542 -2.64974,0.88542 -0.625,0 -1.26302,-0.10417 -0.638021,-0.10416 -1.302084,-0.3125 v -1.73177 q 0.540365,0.26693 1.106771,0.40365 0.572917,0.13021 1.145833,0.13021 1.015625,0 1.542969,-0.42969 0.527344,-0.4362 0.527344,-1.26302 0,-0.76172 -0.527344,-1.21745 -0.520833,-0.46224 -1.393229,-0.46224 -0.514323,0 -1.035156,0.13021 -0.514323,0.1237 -1.041667,0.3776 z"
     style="stroke-linejoin:miter;font-size:13.33333302px;-inkscape-font-specification:'monospace Bold';fill-opacity:1;letter-spacing:0px;word-spacing:0px;stroke:none;stroke-linecap:butt;stroke-width:1px;font-style:normal;fill:#000000;font-family:monospace;stroke-opacity:1;font-stretch:normal;font-variant:normal;font-weight:bold;line-height:125%"
     id="path17406"
     transform="matrix(0.000000,-0.264583,0.264583,0.000000,-77.115606,141.659850)" />
  <path
     d="m -28.408857,428.55078 h 4.108073 v 1.89453 h -4.108073 z"
     style="stroke-linejoin:miter;font-size:13.33333302px;-inkscape-font-specification:'monospace Bold';fill-opacity:1;letter-spacing:0px;word-spacing:0px;stroke:none;stroke-linecap:butt;stroke-width:1px;font-style:normal;fill:#000000;font-family:monospace;stroke-opacity:1;font-stretch:normal;font-variant:normal;font-weight:bold;line-height:125%"
     id="path17408"
     transform="matrix(0.000000,-0.264583,0.264583,0.000000,-77.115606,141.659850)" />
  <path
     d="m -10.316411,431.73437 1.7122391,-8.11848 h 1.9335937 l -2.3111978,9.72005 h -2.66276 l -2.311198,-9.72005 h 1.933593 z"
     style="stroke-linejoin:miter;font-size:13.33333302px;-inkscape-font-specification:'monospace Bold';fill-opacity:1;letter-spacing:0px;word-spacing:0px;stroke:none;stroke-linecap:butt;stroke-width:1px;font-style:normal;fill:#000000;font-family:monospace;stroke-opacity:1;font-stretch:normal;font-variant:normal;font-weight:bold;line-height:125%"
     id="path17410"
     transform="matrix(0.000000,-0.264583,0.264583,0.000000,-77.115606,141.659850)" />
  <path
     d="m -4.8671901,426.04427 h 3.7760416 v 5.82682 h 2.3697916 v 1.46485 h -6.6536457 v -1.46485 h 2.3763021 v -4.36198 h -1.8684896 z m 1.8684896,-3.54818 h 1.907552 v 2.22657 h -1.907552 z"
     style="stroke-linejoin:miter;font-size:13.33333302px;-inkscape-font-specification:'monospace Bold';fill-opacity:1;letter-spacing:0px;word-spacing:0px;stroke:none;stroke-linecap:butt;stroke-width:1px;font-style:normal;fill:#000000;font-family:monospace;stroke-opacity:1;font-stretch:normal;font-variant:normal;font-weight:bold;line-height:125%"
     id="path17412"
     transform="matrix(0.000000,-0.264583,0.264583,0.000000,-77.115606,141.659850)" />
  <path
     d="m 8.1666665,426.27214 v 1.66666 q -0.5273437,-0.33854 -1.1002604,-0.50781 -0.5664062,-0.17578 -1.1393229,-0.17578 -0.6380208,0 -0.9635416,0.1888 -0.3255208,0.18229 -0.3255208,0.54688 0,0.52083 1.3932291,0.84635 l 0.071615,0.0195 0.546875,0.13021 q 1.0416666,0.24739 1.5234374,0.80078 0.4882813,0.54688 0.4882813,1.48438 0,1.1263 -0.7421875,1.6927 -0.7356771,0.5599 -2.220052,0.5599 -0.6575521,0 -1.3476563,-0.11719 -0.6901041,-0.11068 -1.3997395,-0.33854 v -1.66667 q 0.6315104,0.35808 1.282552,0.54688 0.6575521,0.1888 1.2695313,0.1888 0.6705729,0 1.0156249,-0.19531 0.3450521,-0.19531 0.3450521,-0.56641 0,-0.36458 -0.2473958,-0.55989 -0.2408854,-0.19532 -1.1588542,-0.41667 l -0.5273437,-0.11719 q -1.09375,-0.24739 -1.595052,-0.77474 -0.5013021,-0.52734 -0.5013021,-1.41276 0,-1.05469 0.7617187,-1.64062 0.7617188,-0.58594 2.1419271,-0.58594 0.6184895,0 1.2304687,0.10417 0.6184895,0.0976 1.1979166,0.29948 z"
     style="stroke-linejoin:miter;font-size:13.33333302px;-inkscape-font-specification:'monospace Bold';fill-opacity:1;letter-spacing:0px;word-spacing:0px;stroke:none;stroke-linecap:butt;stroke-width:1px;font-style:normal;fill:#000000;font-family:monospace;stroke-opacity:1;font-stretch:normal;font-variant:normal;font-weight:bold;line-height:125%"
     id="path17414"
     transform="matrix(0.000000,-0.264583,0.264583,0.000000,-77.115606,141.659850)" />
  <path
     d="m 14.292964,429.91146 q -1.067709,0 -1.490886,0.27344 -0.423177,0.27343 -0.423177,0.9375 0,0.49479 0.292969,0.78776 0.292969,0.29296 0.794271,0.29296 0.755208,0 1.171875,-0.5664 0.416666,-0.57292 0.416666,-1.59505 v -0.13021 z m 2.656249,-0.73568 v 4.16016 h -1.894531 v -0.8138 q -0.345052,0.48177 -0.885416,0.74218 -0.540365,0.26042 -1.191407,0.26042 -1.243489,0 -1.940104,-0.65755 -0.690104,-0.65755 -0.690104,-1.83594 0,-1.27604 0.826823,-1.88151 0.826823,-0.61198 2.558594,-0.61198 h 1.321614 v -0.31901 q 0,-0.46224 -0.338541,-0.69661 -0.332032,-0.24089 -0.983073,-0.24089 -0.683594,0 -1.328125,0.17578 -0.638021,0.16927 -1.334636,0.54688 v -1.62761 q 0.631511,-0.26041 1.282552,-0.38411 0.651042,-0.1237 1.380209,-0.1237 1.777343,0 2.493489,0.72266 0.722656,0.72265 0.722656,2.58463 z"
     style="stroke-linejoin:miter;font-size:13.33333302px;-inkscape-font-specification:'monospace Bold';fill-opacity:1;letter-spacing:0px;word-spacing:0px;stroke:none;stroke-linecap:butt;stroke-width:1px;font-style:normal;fill:#000000;font-family:monospace;stroke-opacity:1;font-stretch:normal;font-variant:normal;font-weight:bold;line-height:125%"
     id="path17416"
     transform="matrix(0.000000,-0.264583,0.264583,0.000000,-77.115606,141.659850)" />
  <path
     d="m 22.248695,423.97396 v 2.07031 h 2.49349 v 1.46484 h -2.49349 v 3.45053 q 0,0.48828 0.234375,0.70312 0.240886,0.20833 0.794271,0.20833 h 1.464844 v 1.46485 h -1.601563 q -1.640625,0 -2.220052,-0.52084 -0.579427,-0.52734 -0.579427,-1.94661 v -3.35938 h -1.861979 v -1.46484 h 1.861979 v -2.07031 z"
     style="stroke-linejoin:miter;font-size:13.33333302px;-inkscape-font-specification:'monospace Bold';fill-opacity:1;letter-spacing:0px;word-spacing:0px;stroke:none;stroke-linecap:butt;stroke-width:1px;font-style:normal;fill:#000000;font-family:monospace;stroke-opacity:1;font-stretch:normal;font-variant:normal;font-weight:bold;line-height:125%"
     id="path17418"
     transform="matrix(0.000000,-0.264583,0.264583,0.000000,-77.115606,141.659850)" />
  <path
     d="m 29.787753,427.41797 q -0.683594,0 -1.074219,0.60547 -0.390625,0.59896 -0.390625,1.67317 0,1.07422 0.390625,1.67969 0.390625,0.59896 1.074219,0.59896 0.690104,0 1.080729,-0.59896 0.390625,-0.60547 0.390625,-1.67969 0,-1.07421 -0.390625,-1.67317 -0.390625,-0.60547 -1.080729,-0.60547 z m -3.372396,2.27864 q 0,-1.76432 0.911458,-2.79296 0.917969,-1.03516 2.460938,-1.03516 1.549479,0 2.460937,1.03516 0.917969,1.02864 0.917969,2.79296 0,1.76433 -0.917969,2.79948 -0.911458,1.02865 -2.460937,1.02865 -1.542969,0 -2.460938,-1.02865 -0.911458,-1.03515 -0.911458,-2.79948 z"
     style="stroke-linejoin:miter;font-size:13.33333302px;-inkscape-font-specification:'monospace Bold';fill-opacity:1;letter-spacing:0px;word-spacing:0px;stroke:none;stroke-linecap:butt;stroke-width:1px;font-style:normal;fill:#000000;font-family:monospace;stroke-opacity:1;font-stretch:normal;font-variant:normal;font-weight:bold;line-height:125%"
     id="path17420"
     transform="matrix(0.000000,-0.264583,0.264583,0.000000,-77.115606,141.659850)" />
  <path
     d="m 40.770828,428.60286 v 4.73308 h -1.894531 v -4.44011 q 0,-0.79427 -0.227865,-1.13281 -0.221354,-0.34505 -0.729166,-0.34505 -0.514323,0 -0.813802,0.46224 -0.292969,0.46224 -0.292969,1.28255 v 4.17318 h -1.894531 v -7.29167 h 1.894531 v 1.09375 q 0.201823,-0.60547 0.690104,-0.9375 0.488281,-0.33203 1.178385,-0.33203 1.035157,0 1.5625,0.6901 0.527344,0.6836 0.527344,2.04427 z"
     style="stroke-linejoin:miter;font-size:13.33333302px;-inkscape-font-specification:'monospace Bold';fill-opacity:1;letter-spacing:0px;word-spacing:0px;stroke:none;stroke-linecap:butt;stroke-width:1px;font-style:normal;fill:#000000;font-family:monospace;stroke-opacity:1;font-stretch:normal;font-variant:normal;font-weight:bold;line-height:125%"
     id="path17422"
     transform="matrix(0.000000,-0.264583,0.264583,0.000000,-77.115606,141.659850)" />
  <path
     id="path294"
     d="M 41.977598,253.45569 H 178.65481 V 43.806473 H 41.977598 Z m 0,0"
     style="fill:none;stroke:#ec008c;stroke-width:0.35078275;stroke-linecap:butt;stroke-linejoin:miter;stroke-miterlimit:10;stroke-opacity:1"
     inkscape:connector-curvature="0" />
  <path
     transform="matrix(1.000000,0.000000,0.000000,1.000000,0.095970,0.000000)"
     id="path561-9-1-81"
     style="stroke:#ea0088;clip-rule:evenodd;stroke-opacity:1;fill-rule:nonzero;stroke-miterlimit:10;stroke-width:0.35203058;fill:none"
     d="m 58.963121,52.271592 c 0.55073,0 0.997646,-0.446888 0.997646,-0.998015 0,-0.55148 -0.446916,-0.998369 -0.997646,-0.998369 -0.550727,0 -0.997294,0.446889 -0.997294,0.998369 0,0.551127 0.446567,0.998015 0.997294,0.998015"
     inkscape:connector-curvature="0" />
  <path
     transform="matrix(1.000000,0.000000,0.000000,1.000000,0.095970,0.000000)"
     id="path565-7-5-39"
     style="stroke:#000000;clip-rule:evenodd;stroke-opacity:1;fill-rule:nonzero;stroke-miterlimit:10;stroke-width:0.23753151px;fill:none"
     d="m 57.929892,51.273682 h 2.111454"
     inkscape:connector-curvature="0" />
  <path
     transform="matrix(1.000000,0.000000,0.000000,1.000000,0.095970,0.000000)"
     id="path569-2-4-8"
     style="stroke:#000000;clip-rule:evenodd;stroke-opacity:1;fill-rule:nonzero;stroke-miterlimit:10;stroke-width:0.23753138px;fill:none"
     d="m 58.963605,52.315527 v -2.11298"
     inkscape:connector-curvature="0" />
  <path
     transform="matrix(1.000000,0.000000,0.000000,1.000000,0.095970,0.000000)"
     id="path561-9-1-81-2"
     style="stroke:#ea0088;clip-rule:evenodd;stroke-opacity:1;fill-rule:nonzero;stroke-miterlimit:10;stroke-width:0.35203058;fill:none"
     d="m 58.963055,246.93309 c 0.550728,0 0.997646,-0.44688 0.997646,-0.99801 0,-0.55148 -0.446918,-0.99837 -0.997646,-0.99837 -0.550727,0 -0.997291,0.44689 -0.997291,0.99837 0,0.55113 0.446564,0.99801 0.997291,0.99801"
     inkscape:connector-curvature="0" />
  <path
     transform="matrix(1.000000,0.000000,0.000000,1.000000,0.095970,0.000000)"
     id="path565-7-5-39-6"
     style="stroke:#000000;clip-rule:evenodd;stroke-opacity:1;fill-rule:nonzero;stroke-miterlimit:10;stroke-width:0.23753151px;fill:none"
     d="m 57.929825,245.93518 h 2.111452"
     inkscape:connector-curvature="0" />
  <path
     transform="matrix(1.000000,0.000000,0.000000,1.000000,0.095970,0.000000)"
     id="path569-2-4-8-1"
     style="stroke:#000000;clip-rule:evenodd;stroke-opacity:1;fill-rule:nonzero;stroke-miterlimit:10;stroke-width:0.23753138px;fill:none"
     d="m 58.963539,246.97703 v -2.11298"
     inkscape:connector-curvature="0" />
  <path
     transform="matrix(1.000000,0.000000,0.000000,1.000000,10.063970,-0.000001)"
     id="path561-9-1-81-0"
     style="stroke:#ea0088;clip-rule:evenodd;stroke-opacity:1;fill-rule:nonzero;stroke-miterlimit:10;stroke-width:0.35203058;fill:none"
     d="m 58.963121,52.271592 c 0.55073,0 0.997646,-0.446888 0.997646,-0.998015 0,-0.55148 -0.446916,-0.998369 -0.997646,-0.998369 -0.550727,0 -0.997294,0.446889 -0.997294,0.998369 0,0.551127 0.446567,0.998015 0.997294,0.998015"
     inkscape:connector-curvature="0" />
  <path
     transform="matrix(1.000000,0.000000,0.000000,1.000000,10.063970,-0.000001)"
     id="path565-7-5-39-9"
     style="stroke:#000000;clip-rule:evenodd;stroke-opacity:1;fill-rule:nonzero;stroke-miterlimit:10;stroke-width:0.23753151px;fill:none"
     d="m 57.929892,51.273682 h 2.111454"
     inkscape:connector-curvature="0" />
  <path
     transform="matrix(1.000000,0.000000,0.000000,1.000000,10.063970,-0.000001)"
     id="path569-2-4-8-17"
     style="stroke:#000000;clip-rule:evenodd;stroke-opacity:1;fill-rule:nonzero;stroke-miterlimit:10;stroke-width:0.23753138px;fill:none"
     d="m 58.963605,52.315527 v -2.11298"
     inkscape:connector-curvature="0" />
  <path
     transform="matrix(1.000000,0.000000,0.000000,1.000000,10.063970,-0.000001)"
     id="path561-9-1-81-2-7"
     style="stroke:#ea0088;clip-rule:evenodd;stroke-opacity:1;fill-rule:nonzero;stroke-miterlimit:10;stroke-width:0.35203058;fill:none"
     d="m 58.963055,246.93309 c 0.550728,0 0.997646,-0.44688 0.997646,-0.99801 0,-0.55148 -0.446918,-0.99837 -0.997646,-0.99837 -0.550727,0 -0.997291,0.44689 -0.997291,0.99837 0,0.55113 0.446564,0.99801 0.997291,0.99801"
     inkscape:connector-curvature="0" />
  <path
     transform="matrix(1.000000,0.000000,0.000000,1.000000,10.063970,-0.000001)"
     id="path565-7-5-39-6-1"
     style="stroke:#000000;clip-rule:evenodd;stroke-opacity:1;fill-rule:nonzero;stroke-miterlimit:10;stroke-width:0.23753151px;fill:none"
     d="m 57.929825,245.93518 h 2.111452"
     inkscape:connector-curvature="0" />
  <path
     transform="matrix(1.000000,0.000000,0.000000,1.000000,10.063970,-0.000001)"
     id="path569-2-4-8-1-1"
     style="stroke:#000000;clip-rule:evenodd;stroke-opacity:1;fill-rule:nonzero;stroke-miterlimit:10;stroke-width:0.23753138px;fill:none"
     d="m 58.963539,246.97703 v -2.11298"
     inkscape:connector-curvature="0" />
  <path
     transform="matrix(1.000000,0.000000,0.000000,1.000000,89.802765,0.000000)"
     id="path561-9-1-81-7"
     style="stroke:#ea0088;clip-rule:evenodd;stroke-opacity:1;fill-rule:nonzero;stroke-miterlimit:10;stroke-width:0.35203058;fill:none"
     d="m 58.963121,52.271592 c 0.55073,0 0.997646,-0.446888 0.997646,-0.998015 0,-0.55148 -0.446916,-0.998369 -0.997646,-0.998369 -0.550727,0 -0.997294,0.446889 -0.997294,0.998369 0,0.551127 0.446567,0.998015 0.997294,0.998015"
     inkscape:connector-curvature="0" />
  <path
     transform="matrix(1.000000,0.000000,0.000000,1.000000,89.802765,0.000000)"
     id="path565-7-5-39-67"
     style="stroke:#000000;clip-rule:evenodd;stroke-opacity:1;fill-rule:nonzero;stroke-miterlimit:10;stroke-width:0.23753151px;fill:none"
     d="m 57.929892,51.273682 h 2.111454"
     inkscape:connector-curvature="0" />
  <path
     transform="matrix(1.000000,0.000000,0.000000,1.000000,89.802765,0.000000)"
     id="path569-2-4-8-3"
     style="stroke:#000000;clip-rule:evenodd;stroke-opacity:1;fill-rule:nonzero;stroke-miterlimit:10;stroke-width:0.23753138px;fill:none"
     d="m 58.963605,52.315527 v -2.11298"
     inkscape:connector-curvature="0" />
  <path
     transform="matrix(1.000000,0.000000,0.000000,1.000000,89.802765,0.000000)"
     id="path561-9-1-81-2-6"
     style="stroke:#ea0088;clip-rule:evenodd;stroke-opacity:1;fill-rule:nonzero;stroke-miterlimit:10;stroke-width:0.35203058;fill:none"
     d="m 58.963055,246.93309 c 0.550728,0 0.997646,-0.44688 0.997646,-0.99801 0,-0.55148 -0.446918,-0.99837 -0.997646,-0.99837 -0.550727,0 -0.997291,0.44689 -0.997291,0.99837 0,0.55113 0.446564,0.99801 0.997291,0.99801"
     inkscape:connector-curvature="0" />
  <path
     transform="matrix(1.000000,0.000000,0.000000,1.000000,89.802765,0.000000)"
     id="path565-7-5-39-6-5"
     style="stroke:#000000;clip-rule:evenodd;stroke-opacity:1;fill-rule:nonzero;stroke-miterlimit:10;stroke-width:0.23753151px;fill:none"
     d="m 57.929825,245.93518 h 2.111452"
     inkscape:connector-curvature="0" />
  <path
     transform="matrix(1.000000,0.000000,0.000000,1.000000,89.802765,0.000000)"
     id="path569-2-4-8-1-6"
     style="stroke:#000000;clip-rule:evenodd;stroke-opacity:1;fill-rule:nonzero;stroke-miterlimit:10;stroke-width:0.23753138px;fill:none"
     d="m 58.963539,246.97703 v -2.11298"
     inkscape:connector-curvature="0" />
  <path
     transform="matrix(1.000000,0.000000,0.000000,1.000000,99.770765,-0.000001)"
     id="path561-9-1-81-0-9"
     style="stroke:#ea0088;clip-rule:evenodd;stroke-opacity:1;fill-rule:nonzero;stroke-miterlimit:10;stroke-width:0.35203058;fill:none"
     d="m 58.963121,52.271592 c 0.55073,0 0.997646,-0.446888 0.997646,-0.998015 0,-0.55148 -0.446916,-0.998369 -0.997646,-0.998369 -0.550727,0 -0.997294,0.446889 -0.997294,0.998369 0,0.551127 0.446567,0.998015 0.997294,0.998015"
     inkscape:connector-curvature="0" />
  <path
     transform="matrix(1.000000,0.000000,0.000000,1.000000,99.770765,-0.000001)"
     id="path565-7-5-39-9-4"
     style="stroke:#000000;clip-rule:evenodd;stroke-opacity:1;fill-rule:nonzero;stroke-miterlimit:10;stroke-width:0.23753151px;fill:none"
     d="m 57.929892,51.273682 h 2.111454"
     inkscape:connector-curvature="0" />
  <path
     transform="matrix(1.000000,0.000000,0.000000,1.000000,99.770765,-0.000001)"
     id="path569-2-4-8-17-8"
     style="stroke:#000000;clip-rule:evenodd;stroke-opacity:1;fill-rule:nonzero;stroke-miterlimit:10;stroke-width:0.23753138px;fill:none"
     d="m 58.963605,52.315527 v -2.11298"
     inkscape:connector-curvature="0" />
  <path
     transform="matrix(1.000000,0.000000,0.000000,1.000000,99.770765,-0.000001)"
     id="path561-9-1-81-2-7-1"
     style="stroke:#ea0088;clip-rule:evenodd;stroke-opacity:1;fill-rule:nonzero;stroke-miterlimit:10;stroke-width:0.35203058;fill:none"
     d="m 58.963055,246.93309 c 0.550728,0 0.997646,-0.44688 0.997646,-0.99801 0,-0.55148 -0.446918,-0.99837 -0.997646,-0.99837 -0.550727,0 -0.997291,0.44689 -0.997291,0.99837 0,0.55113 0.446564,0.99801 0.997291,0.99801"
     inkscape:connector-curvature="0" />
  <path
     transform="matrix(1.000000,0.000000,0.000000,1.000000,99.770765,-0.000001)"
     id="path565-7-5-39-6-1-2"
     style="stroke:#000000;clip-rule:evenodd;stroke-opacity:1;fill-rule:nonzero;stroke-miterlimit:10;stroke-width:0.23753151px;fill:none"
     d="m 57.929825,245.93518 h 2.111452"
     inkscape:connector-curvature="0" />
  <path
     transform="matrix(1.000000,0.000000,0.000000,1.000000,99.770765,-0.000001)"
     id="path569-2-4-8-1-1-9"
     style="stroke:#000000;clip-rule:evenodd;stroke-opacity:1;fill-rule:nonzero;stroke-miterlimit:10;stroke-width:0.23753138px;fill:none"
     d="m 58.963539,246.97703 v -2.11298"
     inkscape:connector-curvature="0" />
</svg>
