<?xml version="1.0" encoding="UTF-8" standalone="no"?>
<svg
   xmlns:dc="http://purl.org/dc/elements/1.1/"
   xmlns:cc="http://creativecommons.org/ns#"
   xmlns:rdf="http://www.w3.org/1999/02/22-rdf-syntax-ns#"
   xmlns:svg="http://www.w3.org/2000/svg"
   xmlns="http://www.w3.org/2000/svg"
   viewBox="0 0 793.70667 1122.52"
   height="1122.52"
   width="793.70667"
   xml:space="preserve"
   id="svg2"
   version="1.1"><metadata
     id="metadata8"><rdf:RDF><cc:Work
         rdf:about=""><dc:format>image/svg+xml</dc:format><dc:type
           rdf:resource="http://purl.org/dc/dcmitype/StillImage" /><dc:title></dc:title></cc:Work></rdf:RDF></metadata><defs
     id="defs6"><clipPath
       id="clipPath20"
       clipPathUnits="userSpaceOnUse"><path
         id="path18"
         d="M 58.042,93.473 H 537.239 V 748.416 H 58.042 Z" /></clipPath></defs><g
     transform="matrix(1.3333333,0,0,-1.3333333,0,1122.52)"
     id="g10"><path
       id="path12"
       style="fill:none;stroke:#ec008c;stroke-width:1;stroke-linecap:butt;stroke-linejoin:miter;stroke-miterlimit:10;stroke-dasharray:none;stroke-opacity:1"
       d="m 87.8762,123.307 h 419.528 V 718.583 H 87.8762 Z" /><g
       id="g14"><g
         clip-path="url(#clipPath20)"
         id="g16"><path
           id="path22"
           style="fill:none;stroke:#ffffff;stroke-width:1.25;stroke-linecap:butt;stroke-linejoin:miter;stroke-miterlimit:10;stroke-dasharray:none;stroke-opacity:1"
           d="m 85.042,718.583 h -27 m 452.195,0 h 27 M 85.042,123.307 h -27 m 452.195,0 h 27 M 87.876,721.418 v 27 m 0,-627.945 v -27 m 419.527,627.945 v 27 m 0,-627.945 v -27" /><path
           id="path24"
           style="fill:none;stroke:#00adef;stroke-width:0.25;stroke-linecap:butt;stroke-linejoin:miter;stroke-miterlimit:10;stroke-dasharray:none;stroke-opacity:1"
           d="m 85.042,718.583 h -27 m 452.195,0 h 27 M 85.042,123.307 h -27 m 452.195,0 h 27 M 87.876,721.418 v 27 m 0,-627.945 v -27 m 419.527,627.945 v 27 m 0,-627.945 v -27" /></g></g><g
       transform="translate(476.733,792.37)"
       id="g26"><text
         id="text30"
         style="font-variant:normal;font-weight:normal;font-size:10px;font-family:'Courier New';-inkscape-font-specification:Courier;writing-mode:lr-tb;fill:#231f20;fill-opacity:1;fill-rule:nonzero;stroke:none"
         transform="scale(1,-1)"><tspan
           id="tspan28"
           y="0"
           x="0 6.0009999 12.002 18.003 24.004 36.006001">Sheet0</tspan></text>
</g><g
       transform="translate(305.344,684.06)"
       id="g32"><text
         id="text36"
         style="font-variant:normal;font-weight:normal;font-size:10px;font-family:'Courier New';-inkscape-font-specification:Courier;writing-mode:lr-tb;fill:#00adef;fill-opacity:1;fill-rule:nonzero;stroke:none"
         transform="scale(1,-1)"><tspan
           id="tspan34"
           y="0"
           x="0 6.0009999 12.002 24.004 30.004999">148mm</tspan></text>
</g><g
       transform="translate(451.395,421.17)"
       id="g38"><text
         id="text42"
         style="font-variant:normal;font-weight:normal;font-size:10px;font-family:'Courier New';-inkscape-font-specification:Courier;writing-mode:lr-tb;fill:#00adef;fill-opacity:1;fill-rule:nonzero;stroke:none"
         transform="scale(1,-1)"><tspan
           id="tspan40"
           y="0"
           x="0 6.0009999 12.002 24.004 30.004999">210mm</tspan></text>
</g></g></svg>