<?xml version="1.0" encoding="UTF-8" standalone="no"?>
<svg
   id="svg115"
   version="1.1"
   viewBox="0 0 595.68 842.16"
   height="842.16pt"
   width="595.68pt"
   xmlns="http://www.w3.org/2000/svg"
   xmlns:svg="http://www.w3.org/2000/svg"
   xmlns:rdf="http://www.w3.org/1999/02/22-rdf-syntax-ns#"
   xmlns:cc="http://creativecommons.org/ns#"
   xmlns:dc="http://purl.org/dc/elements/1.1/">
  <metadata
     id="metadata119">
    <rdf:RDF>
      <cc:Work
         rdf:about="">
        <dc:format>image/svg+xml</dc:format>
        <dc:type
           rdf:resource="http://purl.org/dc/dcmitype/StillImage" />
      </cc:Work>
    </rdf:RDF>
  </metadata>
  <defs
     id="defs40" />
  <path
     id="path561-9-1-86"
     style="display:inline;clip-rule:evenodd;fill:none;fill-rule:nonzero;stroke:#ea0088;stroke-width:0.997689;stroke-miterlimit:10;stroke-opacity:1"
     d="m 408.82255,400.02368 c -1.56063,0 -2.82707,-1.26669 -2.82707,-2.82884 0,-1.56314 1.26644,-2.82982 2.82707,-2.82982 1.56063,0 2.82606,1.26668 2.82606,2.82982 0,1.56215 -1.26543,2.82884 -2.82606,2.82884"
     transform="matrix(-1 0 0 1 594.708 0)" />
  <path
     id="path565-7-5-4"
     style="display:inline;clip-rule:evenodd;fill:none;fill-rule:nonzero;stroke:#000000;stroke-width:0.673187px;stroke-miterlimit:10;stroke-opacity:1"
     d="m 411.75073,397.19491 h -5.98329"
     transform="matrix(-1 0 0 1 594.708 0)" />
  <path
     id="path569-2-4-88"
     style="display:inline;clip-rule:evenodd;fill:none;fill-rule:nonzero;stroke:#000000;stroke-width:0.673188px;stroke-miterlimit:10;stroke-opacity:1"
     d="m 408.82141,400.14793 v -5.98917"
     transform="matrix(-1 0 0 1 594.708 0)" />
  <path
     id="path561-9-1-30"
     style="display:inline;clip-rule:evenodd;fill:none;fill-rule:nonzero;stroke:#ea0088;stroke-width:0.997689;stroke-miterlimit:10;stroke-opacity:1"
     d="m 408.82256,456.58716 c -1.56061,0 -2.82706,-1.26667 -2.82706,-2.82883 0,-1.56314 1.26645,-2.82982 2.82706,-2.82982 1.56062,0 2.82608,1.26668 2.82608,2.82982 0,1.56216 -1.26546,2.82883 -2.82608,2.82883"
     transform="matrix(-1 0 0 1 594.708 0)" />
  <path
     id="path565-7-5-9"
     style="display:inline;clip-rule:evenodd;fill:none;fill-rule:nonzero;stroke:#000000;stroke-width:0.673187px;stroke-miterlimit:10;stroke-opacity:1"
     d="m 411.75076,453.7584 h -5.98331"
     transform="matrix(-1 0 0 1 594.708 0)" />
  <path
     id="path569-2-4-5"
     style="display:inline;clip-rule:evenodd;fill:none;fill-rule:nonzero;stroke:#000000;stroke-width:0.673188px;stroke-miterlimit:10;stroke-opacity:1"
     d="m 408.82142,456.71141 v -5.98917"
     transform="matrix(-1 0 0 1 594.708 0)" />
  <path
     d="M 506.15032,474.97776 H 387.48331 v -90.50203 l 90.39145,-175.34634 h 28.27556 z"
     style="display:inline;clip-rule:evenodd;fill:none;fill-rule:nonzero;stroke:#ec008c;stroke-width:1.00189px;stroke-linecap:butt;stroke-linejoin:miter;stroke-miterlimit:10"
     id="path803"
     transform="matrix(-1 0 0 1 594.708 0)" />
  <path
     id="path561-9-1-9-3-2"
     style="display:inline;clip-rule:evenodd;fill:none;fill-rule:nonzero;stroke:#ea0088;stroke-width:1.27559;stroke-miterlimit:10;stroke-opacity:1"
     d="m 487.78442,250.85442 c -1.99561,0 -3.61504,-1.6193 -3.61504,-3.61629 0,-1.99829 1.61943,-3.61758 3.61504,-3.61758 1.99559,0 3.61375,1.61929 3.61375,3.61758 0,1.99699 -1.61816,3.61629 -3.61375,3.61629"
     transform="matrix(-1 0 0 1 594.708 0)" />
  <path
     id="path565-7-5-3-9-1"
     style="display:inline;clip-rule:evenodd;fill:none;fill-rule:nonzero;stroke:#000000;stroke-width:0.802607px;stroke-miterlimit:10;stroke-opacity:1"
     d="m 492.03582,247.27881 h -8.50394"
     transform="matrix(-1 0 0 1 594.708 0)" />
  <path
     id="path569-2-4-1-7-5"
     style="display:inline;clip-rule:evenodd;fill:none;fill-rule:nonzero;stroke:#000000;stroke-width:0.802325px;stroke-miterlimit:10;stroke-opacity:1"
     d="m 487.84647,251.48932 v -8.50393"
     transform="matrix(-1 0 0 1 594.708 0)" />
  <path
     id="path561-9-1-9-3-5-6"
     style="display:inline;clip-rule:evenodd;fill:none;fill-rule:nonzero;stroke:#ea0088;stroke-width:1.27559;stroke-miterlimit:10;stroke-opacity:1"
     d="m 487.78442,437.62638 c -1.99561,0 -3.61504,-1.61929 -3.61504,-3.61629 0,-1.99828 1.61943,-3.61757 3.61504,-3.61757 1.99559,0 3.61375,1.61929 3.61375,3.61757 0,1.997 -1.61816,3.61629 -3.61375,3.61629"
     transform="matrix(-1 0 0 1 594.708 0)" />
  <path
     id="path565-7-5-3-9-3-6"
     style="display:inline;clip-rule:evenodd;fill:none;fill-rule:nonzero;stroke:#000000;stroke-width:0.802607px;stroke-miterlimit:10;stroke-opacity:1"
     d="m 492.03582,434.05076 h -8.50394"
     transform="matrix(-1 0 0 1 594.708 0)" />
  <path
     id="path569-2-4-1-7-1-3"
     style="display:inline;clip-rule:evenodd;fill:none;fill-rule:nonzero;stroke:#000000;stroke-width:0.802325px;stroke-miterlimit:10;stroke-opacity:1"
     d="m 487.84647,438.26129 v -8.50393"
     transform="matrix(-1 0 0 1 594.708 0)" />
  <path
     id="path561-9-8-1"
     style="display:inline;clip-rule:evenodd;fill:none;fill-rule:nonzero;stroke:#ea0088;stroke-width:0.997689;stroke-miterlimit:10;stroke-opacity:1"
     d="m 455.54676,148.33098 c -1.56062,0 -2.82707,-1.26668 -2.82707,-2.82883 0,-1.56315 1.26645,-2.82983 2.82707,-2.82983 1.56062,0 2.82607,1.26668 2.82607,2.82983 0,1.56215 -1.26545,2.82883 -2.82607,2.82883"
     transform="matrix(-1 0 0 1 594.708 0)" />
  <path
     id="path565-7-0-8"
     style="display:inline;clip-rule:evenodd;fill:none;fill-rule:nonzero;stroke:#000000;stroke-width:0.673187px;stroke-miterlimit:10;stroke-opacity:1"
     d="m 458.47495,145.5022 h -5.9833"
     transform="matrix(-1 0 0 1 594.708 0)" />
  <path
     id="path569-2-38-7"
     style="display:inline;clip-rule:evenodd;fill:none;fill-rule:nonzero;stroke:#000000;stroke-width:0.673188px;stroke-miterlimit:10;stroke-opacity:1"
     d="m 455.54562,148.45522 v -5.98916"
     transform="matrix(-1 0 0 1 594.708 0)" />
  <path
     id="path561-9-4-9"
     style="display:inline;clip-rule:evenodd;fill:none;fill-rule:nonzero;stroke:#ea0088;stroke-width:0.997689;stroke-miterlimit:10;stroke-opacity:1"
     d="m 370.78202,148.33096 c -1.56062,0 -2.82705,-1.26669 -2.82705,-2.82883 0,-1.56315 1.26643,-2.82984 2.82705,-2.82984 1.56063,0 2.82607,1.26669 2.82607,2.82984 0,1.56214 -1.26544,2.82883 -2.82607,2.82883"
     transform="matrix(-1 0 0 1 594.708 0)" />
  <path
     id="path565-7-12-2"
     style="display:inline;clip-rule:evenodd;fill:none;fill-rule:nonzero;stroke:#000000;stroke-width:0.673187px;stroke-miterlimit:10;stroke-opacity:1"
     d="m 373.71023,145.50218 h -5.98332"
     transform="matrix(-1 0 0 1 594.708 0)" />
  <path
     id="path569-2-3-0"
     style="display:inline;clip-rule:evenodd;fill:none;fill-rule:nonzero;stroke:#000000;stroke-width:0.673188px;stroke-miterlimit:10;stroke-opacity:1"
     d="m 370.78088,148.45521 v -5.98917"
     transform="matrix(-1 0 0 1 594.708 0)" />
  <path
     id="path561-9-6-2"
     style="display:inline;clip-rule:evenodd;fill:none;fill-rule:nonzero;stroke:#ea0088;stroke-width:0.997689;stroke-miterlimit:10;stroke-opacity:1"
     d="m 286.01726,148.32997 c -1.56061,0 -2.82705,-1.26669 -2.82705,-2.82883 0,-1.56315 1.26644,-2.82984 2.82705,-2.82984 1.56063,0 2.82608,1.26669 2.82608,2.82984 0,1.56214 -1.26545,2.82883 -2.82608,2.82883"
     transform="matrix(-1 0 0 1 594.708 0)" />
  <path
     id="path565-7-6-3"
     style="display:inline;clip-rule:evenodd;fill:none;fill-rule:nonzero;stroke:#000000;stroke-width:0.673187px;stroke-miterlimit:10;stroke-opacity:1"
     d="m 288.94546,145.50119 h -5.98331"
     transform="matrix(-1 0 0 1 594.708 0)" />
  <path
     id="path569-2-6-7"
     style="display:inline;clip-rule:evenodd;fill:none;fill-rule:nonzero;stroke:#000000;stroke-width:0.673188px;stroke-miterlimit:10;stroke-opacity:1"
     d="m 286.01612,148.45422 v -5.98917"
     transform="matrix(-1 0 0 1 594.708 0)" />
  <path
     id="path561-9-7-5"
     style="display:inline;clip-rule:evenodd;fill:none;fill-rule:nonzero;stroke:#ea0088;stroke-width:0.997689;stroke-miterlimit:10;stroke-opacity:1"
     d="m 201.25625,148.32997 c -1.56062,0 -2.82706,-1.26669 -2.82706,-2.82883 0,-1.56315 1.26644,-2.82984 2.82706,-2.82984 1.56062,0 2.82607,1.26669 2.82607,2.82984 0,1.56214 -1.26545,2.82883 -2.82607,2.82883"
     transform="matrix(-1 0 0 1 594.708 0)" />
  <path
     id="path565-7-1-9"
     style="display:inline;clip-rule:evenodd;fill:none;fill-rule:nonzero;stroke:#000000;stroke-width:0.673187px;stroke-miterlimit:10;stroke-opacity:1"
     d="m 204.18445,145.50119 h -5.98331"
     transform="matrix(-1 0 0 1 594.708 0)" />
  <path
     id="path569-2-5-2"
     style="display:inline;clip-rule:evenodd;fill:none;fill-rule:nonzero;stroke:#000000;stroke-width:0.673188px;stroke-miterlimit:10;stroke-opacity:1"
     d="m 201.25511,148.45422 v -5.98917"
     transform="matrix(-1 0 0 1 594.708 0)" />
  <path
     id="path561-9-2"
     style="display:inline;clip-rule:evenodd;fill:none;fill-rule:nonzero;stroke:#ea0088;stroke-width:0.997689;stroke-miterlimit:10;stroke-opacity:1"
     d="m 116.49891,148.32999 c -1.56062,0 -2.82707,-1.26668 -2.82707,-2.82883 0,-1.56315 1.26645,-2.82983 2.82707,-2.82983 1.56062,0 2.82606,1.26668 2.82606,2.82983 0,1.56215 -1.26544,2.82883 -2.82606,2.82883"
     transform="matrix(-1 0 0 1 594.708 0)" />
  <path
     id="path565-7-8"
     style="display:inline;clip-rule:evenodd;fill:none;fill-rule:nonzero;stroke:#000000;stroke-width:0.673187px;stroke-miterlimit:10;stroke-opacity:1"
     d="m 119.4271,145.50121 h -5.9833"
     transform="matrix(-1 0 0 1 594.708 0)" />
  <path
     id="path569-2-9"
     style="display:inline;clip-rule:evenodd;fill:none;fill-rule:nonzero;stroke:#000000;stroke-width:0.673188px;stroke-miterlimit:10;stroke-opacity:1"
     d="m 116.49776,148.45423 v -5.98916"
     transform="matrix(-1 0 0 1 594.708 0)" />
  <path
     id="path561-9-1-3-7"
     style="display:inline;clip-rule:evenodd;fill:none;fill-rule:nonzero;stroke:#ea0088;stroke-width:0.997689;stroke-miterlimit:10;stroke-opacity:1"
     d="m 281.75665,436.21677 c -1.56062,0 -2.82707,-1.26668 -2.82707,-2.82884 0,-1.56314 1.26645,-2.82982 2.82707,-2.82982 1.56061,0 2.82607,1.26668 2.82607,2.82982 0,1.56216 -1.26546,2.82884 -2.82607,2.82884"
     transform="matrix(-1 0 0 1 594.708 0)" />
  <path
     id="path565-7-5-7-3"
     style="display:inline;clip-rule:evenodd;fill:none;fill-rule:nonzero;stroke:#000000;stroke-width:0.673187px;stroke-miterlimit:10;stroke-opacity:1"
     d="m 284.68484,433.388 h -5.98332"
     transform="matrix(-1 0 0 1 594.708 0)" />
  <path
     id="path569-2-4-9-6"
     style="display:inline;clip-rule:evenodd;fill:none;fill-rule:nonzero;stroke:#000000;stroke-width:0.673188px;stroke-miterlimit:10;stroke-opacity:1"
     d="m 281.75551,436.34101 v -5.98917"
     transform="matrix(-1 0 0 1 594.708 0)" />
  <path
     id="path561-9-1-0-1"
     style="display:inline;clip-rule:evenodd;fill:none;fill-rule:nonzero;stroke:#ea0088;stroke-width:0.997689;stroke-miterlimit:10;stroke-opacity:1"
     d="m 209.70962,436.21677 c -1.56062,0 -2.82706,-1.26668 -2.82706,-2.82884 0,-1.56314 1.26644,-2.82982 2.82706,-2.82982 1.56062,0 2.82607,1.26668 2.82607,2.82982 0,1.56216 -1.26545,2.82884 -2.82607,2.82884"
     transform="matrix(-1 0 0 1 594.708 0)" />
  <path
     id="path565-7-5-0-2"
     style="display:inline;clip-rule:evenodd;fill:none;fill-rule:nonzero;stroke:#000000;stroke-width:0.673187px;stroke-miterlimit:10;stroke-opacity:1"
     d="m 212.63782,433.388 h -5.98331"
     transform="matrix(-1 0 0 1 594.708 0)" />
  <path
     id="path569-2-4-4-9"
     style="display:inline;clip-rule:evenodd;fill:none;fill-rule:nonzero;stroke:#000000;stroke-width:0.673188px;stroke-miterlimit:10;stroke-opacity:1"
     d="m 209.70848,436.34101 v -5.98917"
     transform="matrix(-1 0 0 1 594.708 0)" />
  <path
     id="path561-9-1-31"
     style="display:inline;clip-rule:evenodd;fill:none;fill-rule:nonzero;stroke:#ea0088;stroke-width:0.997689;stroke-miterlimit:10;stroke-opacity:1"
     d="m 137.66118,436.21684 c -1.56062,0 -2.82706,-1.26669 -2.82706,-2.82884 0,-1.56314 1.26644,-2.82982 2.82706,-2.82982 1.56062,0 2.82607,1.26668 2.82607,2.82982 0,1.56215 -1.26545,2.82884 -2.82607,2.82884"
     transform="matrix(-1 0 0 1 594.708 0)" />
  <path
     id="path565-7-5-9-4"
     style="display:inline;clip-rule:evenodd;fill:none;fill-rule:nonzero;stroke:#000000;stroke-width:0.673187px;stroke-miterlimit:10;stroke-opacity:1"
     d="m 140.58938,433.38807 h -5.98331"
     transform="matrix(-1 0 0 1 594.708 0)" />
  <path
     id="path569-2-4-47"
     style="display:inline;clip-rule:evenodd;fill:none;fill-rule:nonzero;stroke:#000000;stroke-width:0.673188px;stroke-miterlimit:10;stroke-opacity:1"
     d="m 137.66004,436.34109 v -5.98917"
     transform="matrix(-1 0 0 1 594.708 0)" />
  <path
     id="path231-8"
     style="display:inline;clip-rule:evenodd;fill:none;fill-rule:nonzero;stroke:#ec008c;stroke-width:0.997229px;stroke-linecap:butt;stroke-linejoin:miter;stroke-miterlimit:10"
     d="m 318.82594,477.73133 -230.605432,10e-4 V 124.21041 H 506.38025 Z"
     transform="matrix(-1 0 0 1 594.708 0)" />
  <rect
     style="display:inline;fill:none;fill-opacity:1;stroke:#ec008c;stroke-width:0.75;stroke-miterlimit:10;stroke-dasharray:none;stroke-opacity:1"
     id="rect26712"
     width="98.577667"
     height="226.33932"
     x="407.80258"
     y="492.06891"
     transform="matrix(-1 0 0 1 594.708 0)" />
  <rect
     y="-718.40826"
     x="-384.60001"
     height="220.54715"
     width="296.60986"
     id="rect15663-3"
     style="display:inline;clip-rule:evenodd;vector-effect:none;fill:none;fill-opacity:1;fill-rule:evenodd;stroke:#ec008c;stroke-width:0.983622;stroke-linecap:square;stroke-linejoin:miter;stroke-miterlimit:4;stroke-dasharray:none;stroke-dashoffset:0;stroke-opacity:1"
     transform="matrix(1 0 -0 -1 594.708 0)" />
  <path
     d="m 106.02193,649.52388 c 0,1.56062 1.26669,2.82705 2.82884,2.82705 1.56314,0 2.82982,-1.26643 2.82982,-2.82705 0,-1.56063 -1.26668,-2.82607 -2.82982,-2.82607 -1.56215,0 -2.82884,1.26544 -2.82884,2.82607"
     style="display:inline;clip-rule:evenodd;fill:none;fill-rule:nonzero;stroke:#bbae00;stroke-width:0.997689;stroke-miterlimit:10;stroke-opacity:1"
     id="path561-9-1-31-3-6-3"
     transform="matrix(-1 0 0 1 594.708 0)" />
  <path
     d="m 108.8507,646.59568 v 5.98331"
     style="display:inline;clip-rule:evenodd;fill:none;fill-rule:nonzero;stroke:#000000;stroke-width:0.673187px;stroke-miterlimit:10;stroke-opacity:1"
     id="path565-7-5-9-2-56-6"
     transform="matrix(-1 0 0 1 594.708 0)" />
  <path
     d="m 105.89768,649.52502 h 5.98917"
     style="display:inline;clip-rule:evenodd;fill:none;fill-rule:nonzero;stroke:#000000;stroke-width:0.673188px;stroke-miterlimit:10;stroke-opacity:1"
     id="path569-2-4-47-0-9-7"
     transform="matrix(-1 0 0 1 594.708 0)" />
  <path
     d="m 106.02193,577.47613 c 0,1.56062 1.26669,2.82706 2.82884,2.82706 1.56314,0 2.82982,-1.26644 2.82982,-2.82706 0,-1.56062 -1.26668,-2.82607 -2.82982,-2.82607 -1.56215,0 -2.82884,1.26545 -2.82884,2.82607"
     style="display:inline;clip-rule:evenodd;fill:none;fill-rule:nonzero;stroke:#bbae00;stroke-width:0.997689;stroke-miterlimit:10;stroke-opacity:1"
     id="path561-9-1-31-3-1-7-5"
     transform="matrix(-1 0 0 1 594.708 0)" />
  <path
     d="m 108.8507,574.54794 v 5.9833"
     style="display:inline;clip-rule:evenodd;fill:none;fill-rule:nonzero;stroke:#000000;stroke-width:0.673187px;stroke-miterlimit:10;stroke-opacity:1"
     id="path565-7-5-9-2-5-4-3"
     transform="matrix(-1 0 0 1 594.708 0)" />
  <path
     d="m 105.89768,577.47727 h 5.98917"
     style="display:inline;clip-rule:evenodd;fill:none;fill-rule:nonzero;stroke:#000000;stroke-width:0.673188px;stroke-miterlimit:10;stroke-opacity:1"
     id="path569-2-4-47-0-5-5-5"
     transform="matrix(-1 0 0 1 594.708 0)" />
  <path
     d="m 360.90958,649.52389 c 0,1.56062 1.26669,2.82705 2.82884,2.82705 1.56314,0 2.82982,-1.26643 2.82982,-2.82705 0,-1.56063 -1.26668,-2.82607 -2.82982,-2.82607 -1.56215,0 -2.82884,1.26544 -2.82884,2.82607"
     style="display:inline;clip-rule:evenodd;fill:none;fill-rule:nonzero;stroke:#bbae00;stroke-width:0.997689;stroke-miterlimit:10;stroke-opacity:1"
     id="path561-9-1-31-3-6-3-2"
     transform="matrix(-1 0 0 1 594.708 0)" />
  <path
     d="M 363.73835,646.59569 V 652.579"
     style="display:inline;clip-rule:evenodd;fill:none;fill-rule:nonzero;stroke:#000000;stroke-width:0.673187px;stroke-miterlimit:10;stroke-opacity:1"
     id="path565-7-5-9-2-56-6-9"
     transform="matrix(-1 0 0 1 594.708 0)" />
  <path
     d="m 360.78533,649.52503 h 5.98917"
     style="display:inline;clip-rule:evenodd;fill:none;fill-rule:nonzero;stroke:#000000;stroke-width:0.673188px;stroke-miterlimit:10;stroke-opacity:1"
     id="path569-2-4-47-0-9-7-1"
     transform="matrix(-1 0 0 1 594.708 0)" />
  <path
     d="m 360.90958,577.47614 c 0,1.56062 1.26669,2.82706 2.82884,2.82706 1.56314,0 2.82982,-1.26644 2.82982,-2.82706 0,-1.56062 -1.26668,-2.82607 -2.82982,-2.82607 -1.56215,0 -2.82884,1.26545 -2.82884,2.82607"
     style="display:inline;clip-rule:evenodd;fill:none;fill-rule:nonzero;stroke:#bbae00;stroke-width:0.997689;stroke-miterlimit:10;stroke-opacity:1"
     id="path561-9-1-31-3-1-7-5-2"
     transform="matrix(-1 0 0 1 594.708 0)" />
  <path
     d="m 363.73835,574.54795 v 5.9833"
     style="display:inline;clip-rule:evenodd;fill:none;fill-rule:nonzero;stroke:#000000;stroke-width:0.673187px;stroke-miterlimit:10;stroke-opacity:1"
     id="path565-7-5-9-2-5-4-3-7"
     transform="matrix(-1 0 0 1 594.708 0)" />
  <path
     d="m 360.78533,577.47728 h 5.98917"
     style="display:inline;clip-rule:evenodd;fill:none;fill-rule:nonzero;stroke:#000000;stroke-width:0.673188px;stroke-miterlimit:10;stroke-opacity:1"
     id="path569-2-4-47-0-5-5-5-0"
     transform="matrix(-1 0 0 1 594.708 0)" />
  <path
     id="path13886"
     d="m 490.91428,318.75967 q -0.41391,1.08689 -0.86678,1.47194 -0.45774,0.38504 -1.22714,0.38504 -0.98852,0 -1.55339,-0.63362 -0.56487,-0.63361 -0.56487,-1.74001 0,-0.50202 0.11687,-1.00404 0.112,-0.50202 0.336,-0.9943 h 1.40244 q -0.32627,0.46303 -0.4967,0.94068 -0.17044,0.47765 -0.17044,0.94556 0,0.52152 0.20939,0.79933 0.2094,0.27782 0.59896,0.27782 0.30192,0 0.50157,-0.19983 0.19478,-0.20471 0.43339,-0.84808 l 0.23374,-0.619 q 0.32139,-0.87731 0.85217,-1.2916 0.53079,-0.41429 1.33914,-0.41429 1.10052,0 1.64592,0.65311 0.54052,0.64825 0.54052,1.96422 0,0.54102 -0.13148,1.0869 -0.12661,0.54102 -0.37983,1.04791 h -1.48521 q 0.40904,-0.57513 0.60869,-1.11127 0.19965,-0.54101 0.19965,-1.0674 0,-0.53127 -0.23861,-0.8237 -0.24348,-0.29245 -0.67686,-0.29245 -0.32627,0 -0.56975,0.19496 -0.24834,0.19496 -0.38957,0.56539 z"
     style="display:inline;font-style:normal;font-variant:normal;font-weight:bold;font-stretch:normal;font-size:13.3333px;line-height:1.25;font-family:monospace;-inkscape-font-specification:'monospace Bold';letter-spacing:0px;word-spacing:0px;fill:#00aeee;fill-opacity:1;stroke:none;stroke-width:0.748306" />
  <path
     id="path13888"
     d="m 493.83603,309.86463 q 0.20452,0.49715 0.30678,1.01379 0.10226,0.51665 0.10226,1.09178 0,1.36958 -0.73044,2.09581 -0.7353,0.72135 -2.11339,0.72135 -1.33427,0 -2.10853,-0.69698 -0.77426,-0.69698 -0.77426,-1.90086 0,-1.21362 0.7207,-1.88136 0.71582,-0.6726 2.02087,-0.6726 h 0.57948 v 3.69935 q 0.64279,-0.005 0.9593,-0.38017 0.31653,-0.3753 0.31653,-1.12102 0,-0.49227 -0.14122,-0.96992 -0.14121,-0.47765 -0.448,-0.99917 z m -3.06784,1.20875 q -0.56487,0.01 -0.85217,0.29244 -0.29218,0.27782 -0.29218,0.8237 0,0.49228 0.30192,0.78472 0.29704,0.29244 0.8473,0.34605 z"
     style="display:inline;font-style:normal;font-variant:normal;font-weight:bold;font-stretch:normal;font-size:13.3333px;line-height:1.25;font-family:monospace;-inkscape-font-specification:'monospace Bold';letter-spacing:0px;word-spacing:0px;fill:#00aeee;fill-opacity:1;stroke:none;stroke-width:0.748306" />
  <path
     id="path13890"
     d="m 488.64993,308.14899 v -2.82692 h 4.35827 v -1.77413 h 1.09565 v 4.98122 h -1.09565 v -1.77901 h -3.26262 v 1.39884 z m -2.65392,-1.39884 v -1.42808 h 1.66539 v 1.42808 z"
     style="display:inline;font-style:normal;font-variant:normal;font-weight:bold;font-stretch:normal;font-size:13.3333px;line-height:1.25;font-family:monospace;-inkscape-font-specification:'monospace Bold';letter-spacing:0px;word-spacing:0px;fill:#00aeee;fill-opacity:1;stroke:none;stroke-width:0.748306" />
  <path
     id="path13892"
     d="m 487.1014,299.85345 h 1.54853 v -1.86674 h 1.09565 v 1.86674 h 2.58088 q 0.36521,0 0.52591,-0.17546 0.15583,-0.18034 0.15583,-0.59463 v -1.09665 h 1.09565 v 1.199 q 0,1.22825 -0.38956,1.66203 -0.39444,0.43379 -1.456,0.43379 h -2.51271 v 1.39396 h -1.09565 v -1.39396 h -1.54853 z"
     style="display:inline;font-style:normal;font-variant:normal;font-weight:bold;font-stretch:normal;font-size:13.3333px;line-height:1.25;font-family:monospace;-inkscape-font-specification:'monospace Bold';letter-spacing:0px;word-spacing:0px;fill:#00aeee;fill-opacity:1;stroke:none;stroke-width:0.748306" />
  <path
     id="path13894"
     d="m 493.83603,291.83573 q 0.20452,0.49716 0.30678,1.0138 0.10226,0.51664 0.10226,1.09177 0,1.36959 -0.73044,2.09582 -0.7353,0.72134 -2.11339,0.72134 -1.33427,0 -2.10853,-0.69697 -0.77426,-0.69698 -0.77426,-1.90086 0,-1.21362 0.7207,-1.88136 0.71582,-0.67261 2.02087,-0.67261 h 0.57948 v 3.69936 q 0.64279,-0.005 0.9593,-0.38017 0.31653,-0.3753 0.31653,-1.12102 0,-0.49227 -0.14122,-0.96992 -0.14121,-0.47765 -0.448,-0.99918 z m -3.06784,1.20876 q -0.56487,0.01 -0.85217,0.29244 -0.29218,0.27782 -0.29218,0.8237 0,0.49227 0.30192,0.78471 0.29704,0.29244 0.8473,0.34606 z"
     style="display:inline;font-style:normal;font-variant:normal;font-weight:bold;font-stretch:normal;font-size:13.3333px;line-height:1.25;font-family:monospace;-inkscape-font-specification:'monospace Bold';letter-spacing:0px;word-spacing:0px;fill:#00aeee;fill-opacity:1;stroke:none;stroke-width:0.748306" />
  <path
     id="path13896"
     d="m 490.56367,285.9772 h 3.54018 v 1.41833 h -3.32105 q -0.59409,0 -0.8473,0.17059 -0.25809,0.16572 -0.25809,0.54589 0,0.38505 0.34574,0.60925 0.34573,0.21933 0.95931,0.21933 h 3.12139 v 1.41833 h -5.45392 v -1.41833 h 0.81809 q -0.45287,-0.1511 -0.70122,-0.51665 -0.24835,-0.36555 -0.24835,-0.88219 0,-0.77496 0.51617,-1.16975 0.51131,-0.3948 1.52905,-0.3948 z"
     style="display:inline;font-style:normal;font-variant:normal;font-weight:bold;font-stretch:normal;font-size:13.3333px;line-height:1.25;font-family:monospace;-inkscape-font-specification:'monospace Bold';letter-spacing:0px;word-spacing:0px;fill:#00aeee;fill-opacity:1;stroke:none;stroke-width:0.748306" />
  <path
     id="path13898"
     d="m 488.64993,285.18762 v -1.18926 l 4.17809,-0.64824 -2.75131,-0.58975 v -1.15514 l 2.75131,-0.58 -4.17809,-0.658 v -1.18925 l 5.45392,0.98943 v 1.35496 l -2.83409,0.66287 2.83409,0.65799 v 1.35496 z"
     style="display:inline;font-style:normal;font-variant:normal;font-weight:bold;font-stretch:normal;font-size:13.3333px;line-height:1.25;font-family:monospace;-inkscape-font-specification:'monospace Bold';letter-spacing:0px;word-spacing:0px;fill:#00aeee;fill-opacity:1;stroke:none;stroke-width:0.748306" />
  <path
     id="path13900"
     d="m 491.54246,275.76619 q 0,0.79934 0.20452,1.11615 0.20452,0.3168 0.70121,0.3168 0.37009,0 0.58922,-0.21933 0.21914,-0.21932 0.21914,-0.59463 0,-0.56538 -0.42365,-0.87731 -0.42853,-0.31194 -1.19306,-0.31194 h -0.0974 z m -0.55027,-1.98859 h 3.11166 v 1.41833 h -0.6087 q 0.36035,0.25832 0.55514,0.66287 0.19478,0.40453 0.19478,0.89193 0,0.93094 -0.49183,1.45246 -0.49183,0.51664 -1.37322,0.51664 -0.95443,0 -1.4073,-0.619 -0.45774,-0.61899 -0.45774,-1.91547 v -0.98943 h -0.23861 q -0.34574,0 -0.52105,0.25345 -0.18017,0.24857 -0.18017,0.73598 0,0.51176 0.13148,0.99429 0.1266,0.47765 0.40904,0.99917 h -1.21739 q -0.19479,-0.47278 -0.28731,-0.96018 -0.0925,-0.4874 -0.0925,-1.03328 0,-1.33061 0.54052,-1.86674 0.54053,-0.54102 1.93322,-0.54102 z"
     style="display:inline;font-style:normal;font-variant:normal;font-weight:bold;font-stretch:normal;font-size:13.3333px;line-height:1.25;font-family:monospace;-inkscape-font-specification:'monospace Bold';letter-spacing:0px;word-spacing:0px;fill:#00aeee;fill-opacity:1;stroke:none;stroke-width:0.748306" />
  <path
     id="path13902"
     d="m 490.56367,267.94831 h 3.54018 v 1.41833 h -3.32105 q -0.59409,0 -0.8473,0.17059 -0.25809,0.16571 -0.25809,0.54588 0,0.38505 0.34574,0.60926 0.34573,0.21933 0.95931,0.21933 h 3.12139 v 1.41833 h -5.45392 v -1.41833 h 0.81809 q -0.45287,-0.1511 -0.70122,-0.51665 -0.24835,-0.36555 -0.24835,-0.88219 0,-0.77496 0.51617,-1.16976 0.51131,-0.39479 1.52905,-0.39479 z"
     style="display:inline;font-style:normal;font-variant:normal;font-weight:bold;font-stretch:normal;font-size:13.3333px;line-height:1.25;font-family:monospace;-inkscape-font-specification:'monospace Bold';letter-spacing:0px;word-spacing:0px;fill:#00aeee;fill-opacity:1;stroke:none;stroke-width:0.748306" />
  <path
     id="path13904"
     d="m 489.42419,263.30339 h -2.8974 v -1.4232 h 7.57706 v 1.4232 h -0.80835 q 0.47236,0.22908 0.71096,0.59464 0.23861,0.36067 0.23861,0.85294 0,0.93581 -0.74992,1.45245 -0.74991,0.51664 -2.11339,0.51664 -1.38296,0 -2.12314,-0.52152 -0.74017,-0.52638 -0.74017,-1.49631 0,-0.43866 0.22887,-0.78471 0.224,-0.35093 0.67687,-0.61413 z m 1.96731,1.98859 q 0.78887,0 1.23687,-0.26319 0.448,-0.2632 0.448,-0.72623 0,-0.46303 -0.448,-0.73109 -0.448,-0.26808 -1.23687,-0.26808 -0.78888,0 -1.23687,0.26808 -0.448,0.26806 -0.448,0.73109 0,0.46303 0.448,0.72623 0.44799,0.26319 1.23687,0.26319 z"
     style="display:inline;font-style:normal;font-variant:normal;font-weight:bold;font-stretch:normal;font-size:13.3333px;line-height:1.25;font-family:monospace;-inkscape-font-specification:'monospace Bold';letter-spacing:0px;word-spacing:0px;fill:#00aeee;fill-opacity:1;stroke:none;stroke-width:0.748306" />
  <path
     id="path13853"
     d="m 147.23429,439.20583 h 4.67967 v -0.38992 q 0,-0.84808 -0.53079,-1.20875 -0.53565,-0.36067 -1.81635,-0.36067 -1.27096,0 -1.80174,0.36067 -0.53079,0.36067 -0.53079,1.20875 z m -1.2953,1.43783 v -1.54018 q 0,-1.78388 0.85217,-2.5686 0.8473,-0.78471 2.77566,-0.78471 1.93322,0 2.79027,0.78471 0.85217,0.78472 0.85217,2.5686 v 1.54018 z"
     style="display:inline;font-style:normal;font-variant:normal;font-weight:bold;font-stretch:normal;font-size:13.3333px;line-height:1.25;font-family:monospace;-inkscape-font-specification:'monospace Bold';letter-spacing:0px;word-spacing:0px;fill:#00aeee;fill-opacity:1;stroke:none;stroke-width:0.748306" />
  <path
     id="path13855"
     d="m 147.75533,434.22461 v -2.82691 h 4.35828 v -1.77414 h 1.09565 v 4.98123 h -1.09565 v -1.77902 h -3.26262 v 1.39884 z m -2.65391,-1.39884 v -1.42807 h 1.66539 v 1.42807 z"
     style="display:inline;font-style:normal;font-variant:normal;font-weight:bold;font-stretch:normal;font-size:13.3333px;line-height:1.25;font-family:monospace;-inkscape-font-specification:'monospace Bold';letter-spacing:0px;word-spacing:0px;fill:#00aeee;fill-opacity:1;stroke:none;stroke-width:0.748306" />
  <path
     id="path13857"
     d="m 147.92577,424.46201 h 1.24662 q -0.25323,0.39479 -0.37983,0.8237 -0.13148,0.42404 -0.13148,0.85295 0,0.47765 0.14121,0.72135 0.13636,0.2437 0.40905,0.2437 0.38957,0 0.63304,-1.04303 l 0.0146,-0.0536 0.0974,-0.40941 q 0.18505,-0.77984 0.59896,-1.14052 0.40905,-0.36555 1.11027,-0.36555 0.84243,0 1.26609,0.55563 0.41878,0.55076 0.41878,1.66204 0,0.49227 -0.0876,1.00891 -0.0828,0.51665 -0.25322,1.04791 h -1.24661 q 0.26782,-0.47278 0.40904,-0.96018 0.14122,-0.49227 0.14122,-0.95042 0,-0.50202 -0.14609,-0.76035 -0.14608,-0.25832 -0.42365,-0.25832 -0.2727,0 -0.41878,0.18521 -0.14609,0.18034 -0.31166,0.86757 l -0.0876,0.3948 q -0.18504,0.81883 -0.57948,1.19413 -0.39444,0.37529 -1.05669,0.37529 -0.78888,0 -1.22714,-0.57026 -0.43827,-0.57025 -0.43827,-1.60354 0,-0.46303 0.0779,-0.92118 0.0731,-0.46303 0.224,-0.89682 z"
     style="display:inline;font-style:normal;font-variant:normal;font-weight:bold;font-stretch:normal;font-size:13.3333px;line-height:1.25;font-family:monospace;-inkscape-font-specification:'monospace Bold';letter-spacing:0px;word-spacing:0px;fill:#00aeee;fill-opacity:1;stroke:none;stroke-width:0.748306" />
  <path
     id="path13859"
     d="m 152.43987,421.1282 h 2.84383 v 1.42321 h -7.52837 v -1.42321 h 0.81809 q -0.47234,-0.22421 -0.71095,-0.58976 -0.23861,-0.36555 -0.23861,-0.85782 0,-0.9358 0.74992,-1.45244 0.74991,-0.51665 2.11339,-0.51665 1.38296,0 2.12314,0.52639 0.74017,0.52152 0.74017,1.49144 0,0.43866 -0.224,0.78959 -0.22887,0.34605 -0.68661,0.60925 z m -1.96244,-1.98859 q -0.78887,0 -1.23687,0.2632 -0.448,0.26319 -0.448,0.72622 0,0.46303 0.448,0.7311 0.448,0.26807 1.23687,0.26807 0.78887,0 1.23687,-0.26807 0.448,-0.26807 0.448,-0.7311 0,-0.46303 -0.448,-0.72622 -0.448,-0.2632 -1.23687,-0.2632 z"
     style="display:inline;font-style:normal;font-variant:normal;font-weight:bold;font-stretch:normal;font-size:13.3333px;line-height:1.25;font-family:monospace;-inkscape-font-specification:'monospace Bold';letter-spacing:0px;word-spacing:0px;fill:#00aeee;fill-opacity:1;stroke:none;stroke-width:0.748306" />
  <path
     id="path13861"
     d="m 150.93517,415.38664 h -4.20731 v 1.44758 h -1.09566 v -2.87566 h 5.30297 q 0.64278,0 0.91061,-0.19984 0.26783,-0.19983 0.26783,-0.67748 v -1.14051 h 1.09565 v 1.54018 q 0,1.01866 -0.52591,1.46219 -0.52592,0.44354 -1.74818,0.44354 z"
     style="display:inline;font-style:normal;font-variant:normal;font-weight:bold;font-stretch:normal;font-size:13.3333px;line-height:1.25;font-family:monospace;-inkscape-font-specification:'monospace Bold';letter-spacing:0px;word-spacing:0px;fill:#00aeee;fill-opacity:1;stroke:none;stroke-width:0.748306" />
  <path
     id="path13863"
     d="m 150.64787,407.85145 q 0,0.79933 0.20452,1.11614 0.20452,0.31681 0.70122,0.31681 0.37009,0 0.58922,-0.21933 0.21913,-0.21933 0.21913,-0.59463 0,-0.56538 -0.42366,-0.87731 -0.42851,-0.31194 -1.19304,-0.31194 h -0.0974 z m -0.55027,-1.98859 h 3.11166 v 1.41833 h -0.60869 q 0.36035,0.25832 0.55513,0.66287 0.19478,0.40453 0.19478,0.89193 0,0.93093 -0.49183,1.45245 -0.49182,0.51664 -1.37322,0.51664 -0.95443,0 -1.40731,-0.61899 -0.45774,-0.61899 -0.45774,-1.91548 v -0.98942 h -0.23861 q -0.34574,0 -0.52104,0.25345 -0.18017,0.24857 -0.18017,0.73597 0,0.51177 0.13147,0.99429 0.12662,0.47766 0.40905,0.99917 h -1.21739 q -0.19479,-0.47278 -0.28731,-0.96018 -0.0925,-0.48739 -0.0925,-1.03328 0,-1.3306 0.54052,-1.86674 0.54053,-0.54101 1.93322,-0.54101 z"
     style="display:inline;font-style:normal;font-variant:normal;font-weight:bold;font-stretch:normal;font-size:13.3333px;line-height:1.25;font-family:monospace;-inkscape-font-specification:'monospace Bold';letter-spacing:0px;word-spacing:0px;fill:#00aeee;fill-opacity:1;stroke:none;stroke-width:0.748306" />
  <path
     id="path13865"
     d="m 153.79848,401.7882 q 0.7694,0.28756 1.12001,0.69211 0.35548,0.39966 0.35548,0.9748 v 1.1795 h -1.08592 v -0.58 q 0,-0.43866 -0.15096,-0.64337 -0.14608,-0.20471 -0.68661,-0.41429 l -0.29217,-0.10723 -5.30298,2.07632 v -1.50119 l 3.54019,-1.24773 -3.54019,-1.19414 v -1.50118 z"
     style="display:inline;font-style:normal;font-variant:normal;font-weight:bold;font-stretch:normal;font-size:13.3333px;line-height:1.25;font-family:monospace;-inkscape-font-specification:'monospace Bold';letter-spacing:0px;word-spacing:0px;fill:#00aeee;fill-opacity:1;stroke:none;stroke-width:0.748306" />
  <path
     id="path13867"
     d="m 149.66908,394.02394 h 3.54018 v 1.41833 h -3.32104 q -0.58922,0 -0.84245,0.17058 -0.25321,0.16572 -0.25321,0.54589 0,0.38992 0.34574,0.60925 0.34087,0.21933 0.94956,0.21933 h 3.1214 v 1.41833 h -7.57706 v -1.41833 h 2.94122 q -0.45286,-0.15109 -0.70122,-0.51664 -0.24834,-0.36555 -0.24834,-0.88219 0,-0.77497 0.51618,-1.16976 0.5113,-0.39479 1.52904,-0.39479 z"
     style="display:inline;font-style:normal;font-variant:normal;font-weight:bold;font-stretch:normal;font-size:13.3333px;line-height:1.25;font-family:monospace;-inkscape-font-specification:'monospace Bold';letter-spacing:0px;word-spacing:0px;fill:#00aeee;fill-opacity:1;stroke:none;stroke-width:0.748306" />
  <path
     id="path13869"
     d="m 150.64787,389.82256 q 0,0.79933 0.20452,1.11614 0.20452,0.31681 0.70122,0.31681 0.37009,0 0.58922,-0.21933 0.21913,-0.21933 0.21913,-0.59463 0,-0.56538 -0.42366,-0.87731 -0.42851,-0.31194 -1.19304,-0.31194 h -0.0974 z m -0.55027,-1.98859 h 3.11166 v 1.41833 h -0.60869 q 0.36035,0.25832 0.55513,0.66286 0.19478,0.40454 0.19478,0.89194 0,0.93093 -0.49183,1.45245 -0.49182,0.51664 -1.37322,0.51664 -0.95443,0 -1.40731,-0.61899 -0.45774,-0.619 -0.45774,-1.91548 v -0.98942 h -0.23861 q -0.34574,0 -0.52104,0.25345 -0.18017,0.24857 -0.18017,0.73597 0,0.51177 0.13147,0.99429 0.12662,0.47765 0.40905,0.99917 h -1.21739 q -0.19479,-0.47278 -0.28731,-0.96018 -0.0925,-0.48739 -0.0925,-1.03328 0,-1.3306 0.54052,-1.86674 0.54053,-0.54101 1.93322,-0.54101 z"
     style="display:inline;font-style:normal;font-variant:normal;font-weight:bold;font-stretch:normal;font-size:13.3333px;line-height:1.25;font-family:monospace;-inkscape-font-specification:'monospace Bold';letter-spacing:0px;word-spacing:0px;fill:#00aeee;fill-opacity:1;stroke:none;stroke-width:0.748306" />
  <path
     id="path13871"
     d="m 150.93517,385.33848 h -4.20731 v 1.44758 h -1.09566 v -2.87566 h 5.30297 q 0.64278,0 0.91061,-0.19983 0.26783,-0.19983 0.26783,-0.67748 v -1.14052 h 1.09565 v 1.54018 q 0,1.01867 -0.52591,1.4622 -0.52592,0.44353 -1.74818,0.44353 z"
     style="display:inline;font-style:normal;font-variant:normal;font-weight:bold;font-stretch:normal;font-size:13.3333px;line-height:1.25;font-family:monospace;-inkscape-font-specification:'monospace Bold';letter-spacing:0px;word-spacing:0px;fill:#00aeee;fill-opacity:1;stroke:none;stroke-width:0.748306" />
  <path
     id="path13873"
     d="m 146.20681,377.85203 h 1.54852 v -1.86674 h 1.09566 v 1.86674 h 2.58088 q 0.36522,0 0.52591,-0.17546 0.15583,-0.18034 0.15583,-0.59463 v -1.09665 h 1.09565 v 1.19901 q 0,1.22824 -0.38956,1.66203 -0.39444,0.43379 -1.45601,0.43379 h -2.5127 v 1.39396 h -1.09566 v -1.39396 h -1.54852 z"
     style="display:inline;font-style:normal;font-variant:normal;font-weight:bold;font-stretch:normal;font-size:13.3333px;line-height:1.25;font-family:monospace;-inkscape-font-specification:'monospace Bold';letter-spacing:0px;word-spacing:0px;fill:#00aeee;fill-opacity:1;stroke:none;stroke-width:0.748306" />
  <path
     id="path13875"
     d="m 152.94144,369.83432 q 0.20452,0.49714 0.30678,1.01379 0.10226,0.51664 0.10226,1.09177 0,1.3696 -0.73044,2.09582 -0.7353,0.72135 -2.11339,0.72135 -1.33426,0 -2.10853,-0.69698 -0.77426,-0.69698 -0.77426,-1.90086 0,-1.21362 0.72069,-1.88136 0.71584,-0.67261 2.02088,-0.67261 h 0.57948 v 3.69936 q 0.64278,-0.005 0.95931,-0.38017 0.31652,-0.3753 0.31652,-1.12102 0,-0.49228 -0.14122,-0.96993 -0.14122,-0.47765 -0.448,-0.99916 z m -3.06783,1.20875 q -0.56487,0.01 -0.85218,0.29244 -0.29217,0.27781 -0.29217,0.8237 0,0.49228 0.3019,0.78471 0.29705,0.29244 0.84732,0.34605 z"
     style="display:inline;font-style:normal;font-variant:normal;font-weight:bold;font-stretch:normal;font-size:13.3333px;line-height:1.25;font-family:monospace;-inkscape-font-specification:'monospace Bold';letter-spacing:0px;word-spacing:0px;fill:#00aeee;fill-opacity:1;stroke:none;stroke-width:0.748306" />
  <path
     id="path13877"
     d="m 149.26003,363.58586 q -0.21426,0.23395 -0.32138,0.55076 -0.10713,0.31194 -0.10713,0.68724 0,0.45328 0.16069,0.79446 0.15582,0.3363 0.45774,0.52151 0.18505,0.11698 0.448,0.16572 0.26296,0.0439 0.79862,0.0439 h 2.51269 v 1.42808 h -5.45393 v -1.42808 h 0.84732 q -0.46748,-0.20958 -0.7207,-0.64336 -0.25809,-0.43379 -0.25809,-1.01379 0,-0.29245 0.0731,-0.57026 0.0681,-0.28269 0.20453,-0.53614 z"
     style="display:inline;font-style:normal;font-variant:normal;font-weight:bold;font-stretch:normal;font-size:13.3333px;line-height:1.25;font-family:monospace;-inkscape-font-specification:'monospace Bold';letter-spacing:0px;word-spacing:0px;fill:#00aeee;fill-opacity:1;stroke:none;stroke-width:0.748306" />
  <path
     id="path13879"
     d="m 151.30526,362.40635 h -3.54993 v -1.42807 h 3.3308 q 0.58922,0 0.84243,-0.16572 0.25322,-0.16572 0.25322,-0.55076 0,-0.38504 -0.34087,-0.5995 -0.34087,-0.21933 -0.95444,-0.21933 h -3.13114 v -1.42808 h 5.45393 v 1.42808 h -0.80835 q 0.45287,0.15109 0.70122,0.51664 0.24835,0.36068 0.24835,0.87245 0,0.77984 -0.51617,1.1795 -0.51618,0.39479 -1.52905,0.39479 z"
     style="display:inline;font-style:normal;font-variant:normal;font-weight:bold;font-stretch:normal;font-size:13.3333px;line-height:1.25;font-family:monospace;-inkscape-font-specification:'monospace Bold';letter-spacing:0px;word-spacing:0px;fill:#00aeee;fill-opacity:1;stroke:none;stroke-width:0.748306" />
  <path
     id="path13881"
     d="m 149.66908,351.95652 h 3.54018 v 1.41833 h -3.32104 q -0.59409,0 -0.84732,0.17059 -0.25808,0.16572 -0.25808,0.54589 0,0.38505 0.34574,0.60924 0.34574,0.21933 0.9593,0.21933 h 3.1214 v 1.41833 h -5.45393 v -1.41833 h 0.81809 q -0.45286,-0.15109 -0.70122,-0.51664 -0.24834,-0.36554 -0.24834,-0.88219 0,-0.77496 0.51618,-1.16976 0.5113,-0.39479 1.52904,-0.39479 z"
     style="display:inline;font-style:normal;font-variant:normal;font-weight:bold;font-stretch:normal;font-size:13.3333px;line-height:1.25;font-family:monospace;-inkscape-font-specification:'monospace Bold';letter-spacing:0px;word-spacing:0px;fill:#00aeee;fill-opacity:1;stroke:none;stroke-width:0.748306" />
  <path
     id="path13883"
     d="m 150.39465,347.25312 q -0.73044,0 -1.1687,0.27781 -0.44313,0.27783 -0.44313,0.7311 0,0.44841 0.43826,0.72623 0.43826,0.27294 1.17357,0.27294 0.74017,0 1.17844,-0.27294 0.43826,-0.27782 0.43826,-0.72623 0,-0.45327 -0.43826,-0.7311 -0.44314,-0.27781 -1.17844,-0.27781 z m 2.40557,-1.42808 q 1.30992,0 1.8894,0.59463 0.58435,0.58975 0.58435,1.92035 0,0.44841 -0.0681,0.88707 -0.0633,0.43865 -0.19966,0.89193 h -1.30991 q 0.224,-0.40454 0.33113,-0.8237 0.10713,-0.41916 0.10713,-0.86269 0,-0.60438 -0.2873,-0.89195 -0.28244,-0.28756 -0.88627,-0.28756 h -0.58922 q 0.38957,0.20958 0.57948,0.55564 0.18992,0.34605 0.18992,0.8432 0,0.9358 -0.73044,1.48656 -0.73044,0.55076 -1.98192,0.55076 -1.29531,0 -2.05496,-0.55076 -0.75965,-0.55076 -0.75965,-1.47682 0,-0.4679 0.21913,-0.83345 0.21913,-0.36555 0.61843,-0.57513 h -0.69635 v -1.42808 z"
     style="display:inline;font-style:normal;font-variant:normal;font-weight:bold;font-stretch:normal;font-size:13.3333px;line-height:1.25;font-family:monospace;-inkscape-font-specification:'monospace Bold';letter-spacing:0px;word-spacing:0px;fill:#00aeee;fill-opacity:1;stroke:none;stroke-width:0.748306" />
  <path
     style="display:inline;font-style:normal;font-variant:normal;font-weight:bold;font-stretch:normal;font-size:13.3333px;line-height:1.25;font-family:monospace;-inkscape-font-specification:'monospace Bold';letter-spacing:0px;word-spacing:0px;fill:#00aeee;fill-opacity:1;stroke:none;stroke-width:0.748279"
     id="path15166"
     d="m 235.77286,670.43159 v -1.43782 h 2.77059 v -1.7985 h -2.77059 v -1.43784 h 7.26975 v 1.43784 h -3.23316 v 1.7985 h 3.23316 v 1.43782 z" />
  <path
     style="display:inline;font-style:normal;font-variant:normal;font-weight:bold;font-stretch:normal;font-size:13.3333px;line-height:1.25;font-family:monospace;-inkscape-font-specification:'monospace Bold';letter-spacing:0px;word-spacing:0px;fill:#00aeee;fill-opacity:1;stroke:none;stroke-width:0.748279"
     id="path15168"
     d="m 235.44175,661.69741 v -1.15027 h 1.19783 v 1.15027 z m 0,1.92522 v -1.15026 h 1.19783 v 1.15026 z m 3.17474,-1.53531 q 0,0.51177 0.45283,0.80421 0.44797,0.29244 1.25139,0.29244 0.80343,0 1.25626,-0.29244 0.44798,-0.29244 0.44798,-0.80421 0,-0.51665 -0.44798,-0.80908 -0.45283,-0.29244 -1.25626,-0.29244 -0.80342,0 -1.25139,0.29244 -0.45283,0.29243 -0.45283,0.80908 z m 1.70422,2.52473 q -1.31955,0 -2.0889,-0.68236 -0.7742,-0.68723 -0.7742,-1.84237 0,-1.16001 0.7742,-1.84237 0.76935,-0.68723 2.0889,-0.68723 1.31957,0 2.09377,0.68723 0.76934,0.68236 0.76934,1.84237 0,1.15514 -0.76934,1.84237 -0.7742,0.68236 -2.09377,0.68236 z" />
  <path
     style="display:inline;font-style:normal;font-variant:normal;font-weight:bold;font-stretch:normal;font-size:13.3333px;line-height:1.25;font-family:monospace;-inkscape-font-specification:'monospace Bold';letter-spacing:0px;word-spacing:0px;fill:#00aeee;fill-opacity:1;stroke:none;stroke-width:0.748279"
     id="path15170"
     d="m 239.09367,653.4701 q -0.21425,0.23396 -0.32137,0.55076 -0.10712,0.31194 -0.10712,0.68724 0,0.45328 0.16068,0.79446 0.15582,0.3363 0.45771,0.52152 0.18503,0.11697 0.44797,0.16571 0.26293,0.0439 0.79855,0.0439 h 2.51252 v 1.42809 h -5.45353 v -1.42809 h 0.84724 q -0.46744,-0.20958 -0.72064,-0.64336 -0.25807,-0.43379 -0.25807,-1.01379 0,-0.29244 0.073,-0.57026 0.0682,-0.28269 0.20451,-0.53614 z" />
  <path
     style="display:inline;font-style:normal;font-variant:normal;font-weight:bold;font-stretch:normal;font-size:13.3333px;line-height:1.25;font-family:monospace;-inkscape-font-specification:'monospace Bold';letter-spacing:0px;word-spacing:0px;fill:#00aeee;fill-opacity:1;stroke:none;stroke-width:0.748279"
     id="path15172"
     d="m 242.7748,647.6993 q 0.20451,0.49715 0.30676,1.01379 0.10226,0.51665 0.10226,1.09178 0,1.36959 -0.73039,2.09581 -0.73525,0.72135 -2.11325,0.72135 -1.33416,0 -2.10837,-0.69698 -0.7742,-0.69698 -0.7742,-1.90085 0,-1.21363 0.72065,-1.88136 0.71577,-0.67262 2.02072,-0.67262 h 0.57944 v 3.69937 q 0.64274,-0.005 0.95923,-0.38018 0.31651,-0.3753 0.31651,-1.12101 0,-0.49228 -0.14121,-0.96993 -0.1412,-0.47766 -0.44797,-0.99917 z m -3.06761,1.20875 q -0.56483,0.01 -0.85211,0.29244 -0.29216,0.27782 -0.29216,0.82371 0,0.49227 0.30189,0.78471 0.29703,0.29244 0.84725,0.34605 z" />
  <path
     style="display:inline;font-style:normal;font-variant:normal;font-weight:bold;font-stretch:normal;font-size:13.3333px;line-height:1.25;font-family:monospace;-inkscape-font-specification:'monospace Bold';letter-spacing:0px;word-spacing:0px;fill:#00aeee;fill-opacity:1;stroke:none;stroke-width:0.748279"
     id="path15174"
     d="m 239.09367,641.45084 q -0.21425,0.23395 -0.32137,0.55076 -0.10712,0.31194 -0.10712,0.68724 0,0.45328 0.16068,0.79446 0.15582,0.3363 0.45771,0.52152 0.18503,0.11697 0.44797,0.16572 0.26293,0.0439 0.79855,0.0439 h 2.51252 v 1.42808 h -5.45353 v -1.42808 h 0.84724 q -0.46744,-0.20958 -0.72064,-0.64336 -0.25807,-0.43379 -0.25807,-1.01379 0,-0.29245 0.073,-0.57026 0.0682,-0.28269 0.20451,-0.53614 z" />
  <path
     style="display:inline;font-style:normal;font-variant:normal;font-weight:bold;font-stretch:normal;font-size:13.3333px;line-height:1.25;font-family:monospace;-inkscape-font-specification:'monospace Bold';letter-spacing:0px;word-spacing:0px;fill:#00aeee;fill-opacity:1;stroke:none;stroke-width:0.748279"
     id="path15176"
     d="m 240.4814,637.63939 q 0,0.79933 0.2045,1.11613 0.20451,0.31682 0.70117,0.31682 0.37007,0 0.58918,-0.21933 0.21911,-0.21933 0.21911,-0.59463 0,-0.56538 -0.42361,-0.87732 -0.4285,-0.31194 -1.19297,-0.31194 h -0.0974 z m -0.55022,-1.98859 h 3.11143 v 1.41832 h -0.60866 q 0.36032,0.25833 0.5551,0.66287 0.19477,0.40454 0.19477,0.89194 0,0.93093 -0.49179,1.45245 -0.4918,0.51664 -1.37313,0.51664 -0.95436,0 -1.4072,-0.619 -0.45771,-0.61899 -0.45771,-1.91547 v -0.98943 h -0.23859 q -0.34571,0 -0.52101,0.25345 -0.18016,0.24857 -0.18016,0.73598 0,0.51177 0.13147,0.99429 0.1266,0.47765 0.40901,0.99916 h -1.2173 q -0.19477,-0.47277 -0.28729,-0.96017 -0.0925,-0.4874 -0.0925,-1.03328 0,-1.3306 0.54048,-1.86675 0.54049,-0.541 1.93309,-0.541 z" />
  <path
     style="display:inline;font-style:normal;font-variant:normal;font-weight:bold;font-stretch:normal;font-size:13.3333px;line-height:1.25;font-family:monospace;-inkscape-font-specification:'monospace Bold';letter-spacing:0px;word-spacing:0px;fill:#00aeee;fill-opacity:1;stroke:none;stroke-width:0.748279"
     id="path15178"
     d="m 241.13874,634.26171 h -3.54966 v -1.42808 h 3.33055 q 0.58917,0 0.84237,-0.16572 0.2532,-0.16572 0.2532,-0.55076 0,-0.38505 -0.34084,-0.5995 -0.34085,-0.21933 -0.95437,-0.21933 h -3.13091 v -1.42808 h 5.45353 v 1.42808 h -0.80829 q 0.45283,0.1511 0.70117,0.51664 0.24833,0.36068 0.24833,0.87245 0,0.77984 -0.51615,1.17951 -0.51612,0.39479 -1.52893,0.39479 z" />
  <path
     style="display:inline;font-style:normal;font-variant:normal;font-weight:bold;font-stretch:normal;font-size:13.3333px;line-height:1.25;font-family:monospace;-inkscape-font-specification:'monospace Bold';letter-spacing:0px;word-spacing:0px;fill:#00aeee;fill-opacity:1;stroke:none;stroke-width:0.748279"
     id="path15180"
     d="m 237.1119,625.43003 h 0.47718 v -1.67665 h 1.09557 v 1.67665 h 4.35796 v 1.42808 h -4.35796 v 1.32573 h -1.09557 v -1.32573 h -0.3798 q -0.98359,0 -1.36338,-0.40941 -0.3798,-0.40941 -0.3798,-1.52069 v -1.17463 h 1.09557 v 1.11615 q 0,0.32168 0.11686,0.43866 0.11686,0.11209 0.43337,0.12184 z" />
  <path
     style="display:inline;font-style:normal;font-variant:normal;font-weight:bold;font-stretch:normal;font-size:13.3333px;line-height:1.25;font-family:monospace;-inkscape-font-specification:'monospace Bold';letter-spacing:0px;word-spacing:0px;fill:#00aeee;fill-opacity:1;stroke:none;stroke-width:0.748279"
     id="path15182"
     d="m 240.76868,621.13605 h -4.20701 v 1.44757 h -1.09557 v -2.87565 h 5.30258 q 0.64274,0 0.91055,-0.19983 0.26781,-0.19984 0.26781,-0.67749 v -1.14051 h 1.09557 v 1.54017 q 0,1.01867 -0.52587,1.4622 -0.52588,0.44354 -1.74806,0.44354 z" />
  <path
     style="display:inline;font-style:normal;font-variant:normal;font-weight:bold;font-stretch:normal;font-size:13.3333px;line-height:1.25;font-family:monospace;-inkscape-font-specification:'monospace Bold';letter-spacing:0px;word-spacing:0px;fill:#00aeee;fill-opacity:1;stroke:none;stroke-width:0.748279"
     id="path15184"
     d="m 240.4814,613.60086 q 0,0.79933 0.2045,1.11614 0.20451,0.31682 0.70117,0.31682 0.37007,0 0.58918,-0.21933 0.21911,-0.21933 0.21911,-0.59463 0,-0.56538 -0.42361,-0.87732 -0.4285,-0.31194 -1.19297,-0.31194 h -0.0974 z m -0.55022,-1.98859 h 3.11143 v 1.41833 h -0.60866 q 0.36032,0.25833 0.5551,0.66286 0.19477,0.40455 0.19477,0.89195 0,0.93093 -0.49179,1.45245 -0.4918,0.51664 -1.37313,0.51664 -0.95436,0 -1.4072,-0.619 -0.45771,-0.61899 -0.45771,-1.91547 v -0.98943 h -0.23859 q -0.34571,0 -0.52101,0.25345 -0.18016,0.24857 -0.18016,0.73598 0,0.51176 0.13147,0.99429 0.1266,0.47765 0.40901,0.99917 h -1.2173 q -0.19477,-0.47278 -0.28729,-0.96018 -0.0925,-0.4874 -0.0925,-1.03328 0,-1.3306 0.54048,-1.86675 0.54049,-0.54101 1.93309,-0.54101 z" />
  <path
     style="display:inline;font-style:normal;font-variant:normal;font-weight:bold;font-stretch:normal;font-size:13.3333px;line-height:1.25;font-family:monospace;-inkscape-font-specification:'monospace Bold';letter-spacing:0px;word-spacing:0px;fill:#00aeee;fill-opacity:1;stroke:none;stroke-width:0.748279"
     id="path15186"
     d="m 240.22819,607.08921 q -0.73038,0 -1.16861,0.27781 -0.44309,0.27782 -0.44309,0.7311 0,0.44841 0.43822,0.72624 0.43824,0.27294 1.17348,0.27294 0.74013,0 1.17837,-0.27294 0.43822,-0.27783 0.43822,-0.72624 0,-0.45328 -0.43822,-0.7311 -0.4431,-0.27781 -1.17837,-0.27781 z m 2.4054,-1.42808 q 1.30983,0 1.88926,0.59463 0.58431,0.58975 0.58431,1.92035 0,0.44841 -0.0681,0.88707 -0.0633,0.43865 -0.19964,0.89194 h -1.30982 q 0.22398,-0.40455 0.33111,-0.82371 0.10712,-0.41916 0.10712,-0.86269 0,-0.60438 -0.28728,-0.89195 -0.28241,-0.28756 -0.88621,-0.28756 h -0.58917 q 0.38954,0.20958 0.57944,0.55563 0.1899,0.34606 0.1899,0.84321 0,0.9358 -0.73038,1.48656 -0.73039,0.55076 -1.98178,0.55076 -1.29521,0 -2.05481,-0.55076 -0.7596,-0.55076 -0.7596,-1.47682 0,-0.4679 0.21912,-0.83345 0.2191,-0.36555 0.61839,-0.57513 h -0.6963 v -1.42808 z" />
  <path
     style="display:inline;font-style:normal;font-variant:normal;font-weight:bold;font-stretch:normal;font-size:13.3333px;line-height:1.25;font-family:monospace;-inkscape-font-specification:'monospace Bold';letter-spacing:0px;word-spacing:0px;fill:#00aeee;fill-opacity:1;stroke:none;stroke-width:0.748279"
     id="path15188"
     d="m 242.7748,599.62225 q 0.20451,0.49715 0.30676,1.0138 0.10226,0.51664 0.10226,1.09177 0,1.3696 -0.73039,2.09581 -0.73525,0.72135 -2.11325,0.72135 -1.33416,0 -2.10837,-0.69698 -0.7742,-0.69697 -0.7742,-1.90085 0,-1.21363 0.72065,-1.88136 0.71577,-0.67262 2.02072,-0.67262 h 0.57944 v 3.69937 q 0.64274,-0.005 0.95923,-0.38018 0.31651,-0.37529 0.31651,-1.12101 0,-0.49228 -0.14121,-0.96993 -0.1412,-0.47765 -0.44797,-0.99917 z m -3.06761,1.20876 q -0.56483,0.01 -0.85211,0.29244 -0.29216,0.27781 -0.29216,0.8237 0,0.49227 0.30189,0.78471 0.29703,0.29244 0.84725,0.34605 z" />
  <path
     style="display:inline;font-style:normal;font-variant:normal;font-weight:bold;font-stretch:normal;font-size:13.3333px;line-height:1.25;font-family:monospace;-inkscape-font-specification:'monospace Bold';letter-spacing:0px;word-spacing:0px;fill:#00aeee;fill-opacity:1;stroke:none;stroke-width:0.748279"
     id="path15190"
     d="m 243.04261,591.87748 h -7.26975 v -1.43783 h 6.00375 v -3.07549 h 1.266 z" />
  <path
     style="display:inline;font-style:normal;font-variant:normal;font-weight:bold;font-stretch:normal;font-size:13.3333px;line-height:1.25;font-family:monospace;-inkscape-font-specification:'monospace Bold';letter-spacing:0px;word-spacing:0px;fill:#00aeee;fill-opacity:1;stroke:none;stroke-width:0.748279"
     id="path15192"
     d="m 240.4814,583.5527 q 0,0.79934 0.2045,1.11615 0.20451,0.31681 0.70117,0.31681 0.37007,0 0.58918,-0.21933 0.21911,-0.21933 0.21911,-0.59462 0,-0.56539 -0.42361,-0.87732 -0.4285,-0.31194 -1.19297,-0.31194 h -0.0974 z m -0.55022,-1.98859 h 3.11143 v 1.41834 h -0.60866 q 0.36032,0.25832 0.5551,0.66286 0.19477,0.40454 0.19477,0.89195 0,0.93093 -0.49179,1.45244 -0.4918,0.51664 -1.37313,0.51664 -0.95436,0 -1.4072,-0.61899 -0.45771,-0.619 -0.45771,-1.91548 v -0.98942 h -0.23859 q -0.34571,0 -0.52101,0.25345 -0.18016,0.24857 -0.18016,0.73597 0,0.51177 0.13147,0.9943 0.1266,0.47765 0.40901,0.99916 h -1.2173 q -0.19477,-0.47278 -0.28729,-0.96017 -0.0925,-0.4874 -0.0925,-1.03329 0,-1.3306 0.54048,-1.86674 0.54049,-0.54102 1.93309,-0.54102 z" />
  <path
     style="display:inline;font-style:normal;font-variant:normal;font-weight:bold;font-stretch:normal;font-size:13.3333px;line-height:1.25;font-family:monospace;-inkscape-font-specification:'monospace Bold';letter-spacing:0px;word-spacing:0px;fill:#00aeee;fill-opacity:1;stroke:none;stroke-width:0.748279"
     id="path15194"
     d="m 243.63179,577.48946 q 0.76934,0.28757 1.11992,0.69211 0.35545,0.39967 0.35545,0.9748 v 1.1795 h -1.08583 v -0.58001 q 0,-0.43866 -0.15095,-0.64335 -0.14608,-0.20472 -0.68656,-0.4143 l -0.29216,-0.10722 -5.30258,2.07632 v -1.50119 l 3.53992,-1.24775 -3.53992,-1.19413 v -1.50119 z" />
  <path
     style="display:inline;font-style:normal;font-variant:normal;font-weight:bold;font-stretch:normal;font-size:13.3333px;line-height:1.25;font-family:monospace;-inkscape-font-specification:'monospace Bold';letter-spacing:0px;word-spacing:0px;fill:#00aeee;fill-opacity:1;stroke:none;stroke-width:0.748279"
     id="path15196"
     d="m 242.7748,569.5741 q 0.20451,0.49715 0.30676,1.01379 0.10226,0.51664 0.10226,1.09177 0,1.3696 -0.73039,2.09582 -0.73525,0.72135 -2.11325,0.72135 -1.33416,0 -2.10837,-0.69698 -0.7742,-0.69698 -0.7742,-1.90085 0,-1.21364 0.72065,-1.88136 0.71577,-0.67262 2.02072,-0.67262 h 0.57944 v 3.69936 q 0.64274,-0.005 0.95923,-0.38017 0.31651,-0.3753 0.31651,-1.12102 0,-0.49227 -0.14121,-0.96992 -0.1412,-0.47765 -0.44797,-0.99917 z m -3.06761,1.20875 q -0.56483,0.01 -0.85211,0.29244 -0.29216,0.27781 -0.29216,0.82371 0,0.49227 0.30189,0.78471 0.29703,0.29244 0.84725,0.34606 z" />
  <path
     style="display:inline;font-style:normal;font-variant:normal;font-weight:bold;font-stretch:normal;font-size:13.3333px;line-height:1.25;font-family:monospace;-inkscape-font-specification:'monospace Bold';letter-spacing:0px;word-spacing:0px;fill:#00aeee;fill-opacity:1;stroke:none;stroke-width:0.748279"
     id="path15198"
     d="m 239.09367,563.32565 q -0.21425,0.23395 -0.32137,0.55075 -0.10712,0.31194 -0.10712,0.68724 0,0.45328 0.16068,0.79446 0.15582,0.33631 0.45771,0.52151 0.18503,0.11698 0.44797,0.16572 0.26293,0.0439 0.79855,0.0439 h 2.51252 v 1.42808 h -5.45353 v -1.42808 h 0.84724 q -0.46744,-0.20958 -0.72064,-0.64336 -0.25807,-0.43379 -0.25807,-1.01379 0,-0.29244 0.073,-0.57026 0.0682,-0.28269 0.20451,-0.53614 z" />
  <path
     style="display:inline;font-style:normal;font-variant:normal;font-weight:bold;font-stretch:normal;font-size:13.3333px;line-height:1.25;font-family:monospace;-inkscape-font-specification:'monospace Bold';letter-spacing:0px;word-spacing:0px;fill:#00aeee;fill-opacity:1;stroke:none;stroke-width:0.748279"
     id="path15200"
     d="m 239.78997,554.24053 v 0.77008 h -1.266 v -0.77008 q 0,-0.53615 -0.20938,-0.82858 -0.21424,-0.29732 -0.59891,-0.29732 -0.40415,0 -0.62813,0.29732 -0.22885,0.29243 -0.22885,0.82858 0,0.40941 0.10225,0.87731 0.10225,0.4679 0.29702,0.96993 h -1.30495 q -0.15094,-0.50203 -0.22885,-0.98942 -0.0828,-0.4874 -0.0828,-0.93581 0,-1.15026 0.50153,-1.79363 0.50153,-0.64337 1.38286,-0.64337 0.64761,0 1.06149,0.37043 0.40901,0.37042 0.53561,1.05766 0.13634,-0.77984 0.62326,-1.18926 0.48205,-0.40941 1.27087,-0.40941 1.05662,0 1.61172,0.67748 0.55509,0.67749 0.55509,1.9691 0,0.55075 -0.0925,1.08689 -0.0925,0.53127 -0.26781,1.01867 h -1.33416 q 0.22885,-0.45816 0.35058,-0.98942 0.11686,-0.53127 0.11686,-1.11614 0,-0.58488 -0.2678,-0.92606 -0.27268,-0.34118 -0.73039,-0.34118 -0.55996,0 -0.86185,0.34118 -0.30676,0.34118 -0.30676,0.96505 z" />
  <path
     id="path21724"
     style="display:inline;font-style:normal;font-variant:normal;font-weight:bold;font-stretch:normal;font-size:13.3333px;line-height:1.25;font-family:monospace;-inkscape-font-specification:'monospace Bold';letter-spacing:0px;word-spacing:0px;fill:#000000;fill-opacity:1;stroke:none;stroke-width:0.75"
     d="m 312.45551,488.51868 q -1.08887,-0.41504 -1.47462,-0.86915 -0.38574,-0.45898 -0.38574,-1.23046 0,-0.99122 0.63476,-1.55763 0.63477,-0.56639 1.74317,-0.56639 0.50293,0 1.00586,0.11718 0.50293,0.1123 0.99609,0.33691 v 1.40625 q -0.46387,-0.32714 -0.94238,-0.49804 -0.47851,-0.1709 -0.94726,-0.1709 -0.52246,0 -0.80079,0.20996 -0.27831,0.20996 -0.27831,0.60059 0,0.30273 0.20019,0.50293 0.20508,0.19531 0.84961,0.43457 l 0.62012,0.23437 q 0.87891,0.32226 1.29394,0.85449 0.41504,0.53223 0.41504,1.34277 0,1.10352 -0.6543,1.65039 -0.64941,0.542 -1.96777,0.542 -0.54199,0 -1.08887,-0.13184 -0.54198,-0.12695 -1.0498,-0.38085 v -1.48926 q 0.57617,0.41015 1.11328,0.61035 0.54199,0.20019 1.06934,0.20019 0.53222,0 0.82519,-0.23925 0.29297,-0.24414 0.29297,-0.67872 0,-0.32715 -0.19531,-0.57129 -0.19532,-0.24902 -0.56641,-0.39062 z" />
  <path
     id="path21726"
     style="display:inline;font-style:normal;font-variant:normal;font-weight:bold;font-stretch:normal;font-size:13.3333px;line-height:1.25;font-family:monospace;-inkscape-font-specification:'monospace Bold';letter-spacing:0px;word-spacing:0px;fill:#000000;fill-opacity:1;stroke:none;stroke-width:0.75"
     d="m 321.21527,488.16712 v 3.5498 h -1.4209 v -3.33008 q 0,-0.59083 -0.1709,-0.84473 -0.16601,-0.25391 -0.54688,-0.25391 -0.39062,0 -0.61035,0.34668 -0.21972,0.3418 -0.21972,0.95215 v 3.12989 h -1.4209 v -7.59766 h 1.4209 v 2.94922 q 0.15137,-0.45411 0.51758,-0.70313 0.36621,-0.24902 0.88378,-0.24902 0.77637,0 1.17188,0.51758 0.39551,0.5127 0.39551,1.53321 z" />
  <path
     id="path21728"
     style="display:inline;font-style:normal;font-variant:normal;font-weight:bold;font-stretch:normal;font-size:13.3333px;line-height:1.25;font-family:monospace;-inkscape-font-specification:'monospace Bold';letter-spacing:0px;word-spacing:0px;fill:#000000;fill-opacity:1;stroke:none;stroke-width:0.75"
     d="m 327.38714,491.44837 q -0.49804,0.20507 -1.01562,0.30761 -0.51758,0.10254 -1.09375,0.10254 -1.37207,0 -2.09961,-0.73242 -0.72266,-0.7373 -0.72266,-2.11914 0,-1.3379 0.69824,-2.11426 0.69825,-0.77637 1.9043,-0.77637 1.21582,0 1.88476,0.72266 0.67383,0.71777 0.67383,2.02637 v 0.58105 h -3.70605 q 0.005,0.64453 0.38086,0.96191 0.37598,0.31738 1.12304,0.31738 0.49317,0 0.97169,-0.1416 0.47851,-0.1416 1.00097,-0.44922 z m -1.21093,-3.07618 q -0.01,-0.56641 -0.29297,-0.85449 -0.27832,-0.29297 -0.8252,-0.29297 -0.49316,0 -0.78613,0.30273 -0.29297,0.29786 -0.34668,0.84961 z" />
  <path
     id="path21730"
     style="display:inline;font-style:normal;font-variant:normal;font-weight:bold;font-stretch:normal;font-size:13.3333px;line-height:1.25;font-family:monospace;-inkscape-font-specification:'monospace Bold';letter-spacing:0px;word-spacing:0px;fill:#000000;fill-opacity:1;stroke:none;stroke-width:0.75"
     d="m 333.40765,491.44837 q -0.49805,0.20507 -1.01562,0.30761 -0.51758,0.10254 -1.09375,0.10254 -1.37207,0 -2.09961,-0.73242 -0.72266,-0.7373 -0.72266,-2.11914 0,-1.3379 0.69824,-2.11426 0.69824,-0.77637 1.9043,-0.77637 1.21582,0 1.88477,0.72266 0.67383,0.71777 0.67383,2.02637 v 0.58105 h -3.70606 q 0.005,0.64453 0.38086,0.96191 0.37597,0.31738 1.12305,0.31738 0.49316,0 0.97167,-0.1416 0.47852,-0.1416 1.00098,-0.44922 z m -1.21094,-3.07618 q -0.01,-0.56641 -0.29296,-0.85449 -0.27833,-0.29297 -0.8252,-0.29297 -0.49316,0 -0.78613,0.30273 -0.29297,0.29786 -0.34668,0.84961 z" />
  <path
     id="path21732"
     style="display:inline;font-style:normal;font-variant:normal;font-weight:bold;font-stretch:normal;font-size:13.3333px;line-height:1.25;font-family:monospace;-inkscape-font-specification:'monospace Bold';letter-spacing:0px;word-spacing:0px;fill:#000000;fill-opacity:1;stroke:none;stroke-width:0.75"
     d="m 337.41644,484.69543 v 1.55273 h 1.87012 v 1.09864 h -1.87012 v 2.58789 q 0,0.36621 0.17578,0.52734 0.18067,0.15625 0.5957,0.15625 h 1.09864 v 1.09864 h -1.20117 q -1.23047,0 -1.66505,-0.39062 -0.43456,-0.39552 -0.43456,-1.45997 v -2.51953 h -1.39649 v -1.09864 h 1.39649 v -1.55273 z" />
  <path
     id="path21734"
     style="display:inline;font-style:normal;font-variant:normal;font-weight:bold;font-stretch:normal;font-size:13.3333px;line-height:1.25;font-family:monospace;-inkscape-font-specification:'monospace Bold';letter-spacing:0px;word-spacing:0px;fill:#000000;fill-opacity:1;stroke:none;stroke-width:0.75"
     d="m 348.76898,488.4552 h -0.77149 v -1.26954 h 0.77149 q 0.53711,0 0.83008,-0.20996 0.29785,-0.21483 0.29785,-0.60058 0,-0.40527 -0.29785,-0.62988 -0.29297,-0.22949 -0.83008,-0.22949 -0.41016,0 -0.87891,0.10254 -0.46875,0.10254 -0.97168,0.29784 v -1.30859 q 0.50293,-0.15136 0.99121,-0.22949 0.48829,-0.083 0.9375,-0.083 1.15235,0 1.79688,0.50292 0.64453,0.50293 0.64453,1.38672 0,0.64941 -0.37109,1.06445 -0.37109,0.41016 -1.05957,0.53711 0.78125,0.13672 1.1914,0.625 0.41016,0.4834 0.41016,1.27442 0,1.05957 -0.67871,1.6162 -0.67871,0.55665 -1.97266,0.55665 -0.55176,0 -1.08886,-0.0928 -0.53223,-0.0928 -1.02051,-0.26855 v -1.33789 q 0.45898,0.2295 0.99121,0.35157 0.53223,0.11718 1.11816,0.11718 0.58594,0 0.92774,-0.26856 0.3418,-0.27343 0.3418,-0.73242 0,-0.56152 -0.3418,-0.86425 -0.3418,-0.30762 -0.9668,-0.30762 z" />
  <path
     id="path21736"
     style="display:inline;font-style:normal;font-variant:normal;font-weight:bold;font-stretch:normal;font-size:13.3333px;line-height:1.25;font-family:monospace;-inkscape-font-specification:'monospace Bold';letter-spacing:0px;word-spacing:0px;fill:#000000;fill-opacity:1;stroke:none;stroke-width:0.75"
     d="m 359.59906,488.12805 h 3.08105 v 1.42089 h -3.08105 z" />
  <path
     id="path21738"
     style="display:inline;font-style:normal;font-variant:normal;font-weight:bold;font-stretch:normal;font-size:13.3333px;line-height:1.25;font-family:monospace;-inkscape-font-specification:'monospace Bold';letter-spacing:0px;word-spacing:0px;fill:#000000;fill-opacity:1;stroke:none;stroke-width:0.75"
     d="m 373.17816,485.58899 q -0.55176,0 -0.80567,0.59082 -0.2539,0.58594 -0.2539,1.89941 0,1.3086 0.2539,1.89942 0.25391,0.58593 0.80567,0.58593 0.55664,0 0.81055,-0.58593 0.2539,-0.59082 0.2539,-1.89942 0,-1.31347 -0.2539,-1.89941 -0.25391,-0.59082 -0.81055,-0.59082 z m -2.5586,2.49023 q 0,-1.87011 0.64454,-2.82714 0.64941,-0.95703 1.91406,-0.95703 1.26953,0 1.91406,0.95703 0.64942,0.95703 0.64942,2.82714 0,1.86524 -0.64942,2.82227 -0.64453,0.95703 -1.91406,0.95703 -1.26465,0 -1.91406,-0.95703 -0.64454,-0.95703 -0.64454,-2.82227 z" />
  <path
     id="path21740"
     style="display:inline;font-style:normal;font-variant:normal;font-weight:bold;font-stretch:normal;font-size:13.3333px;line-height:1.25;font-family:monospace;-inkscape-font-specification:'monospace Bold';letter-spacing:0px;word-spacing:0px;fill:#000000;fill-opacity:1;stroke:none;stroke-width:0.75"
     d="m 378.34906,490.94543 v 2.85157 h -1.42578 v -7.54884 h 1.42578 v 0.82032 q 0.22461,-0.47363 0.59082,-0.71289 0.36621,-0.23926 0.85937,-0.23926 0.9375,0 1.45508,0.75195 0.51758,0.75196 0.51758,2.11915 0,1.38671 -0.52734,2.1289 -0.52247,0.74219 -1.49415,0.74219 -0.43945,0 -0.79101,-0.22461 -0.34668,-0.2295 -0.61035,-0.68848 z m 1.99219,-1.96777 q 0,-0.79102 -0.26367,-1.24023 -0.26368,-0.44923 -0.72754,-0.44923 -0.46387,0 -0.73243,0.44923 -0.26855,0.44921 -0.26855,1.24023 0,0.79101 0.26855,1.24023 0.26856,0.44922 0.73243,0.44922 0.46386,0 0.72754,-0.44922 0.26367,-0.44922 0.26367,-1.24023 z" />
  <path
     id="path21742"
     style="display:inline;font-style:normal;font-variant:normal;font-weight:bold;font-stretch:normal;font-size:13.3333px;line-height:1.25;font-family:monospace;-inkscape-font-specification:'monospace Bold';letter-spacing:0px;word-spacing:0px;fill:#000000;fill-opacity:1;stroke:none;stroke-width:0.75"
     d="m 383.29046,486.24816 h 2.83203 v 4.37012 h 1.77735 v 1.09864 h -4.99024 v -1.09864 h 1.78223 v -3.27148 h -1.40137 z m 1.40137,-2.66113 h 1.43066 v 1.66993 h -1.43066 z" />
  <path
     id="path21744"
     style="display:inline;font-style:normal;font-variant:normal;font-weight:bold;font-stretch:normal;font-size:13.3333px;line-height:1.25;font-family:monospace;-inkscape-font-specification:'monospace Bold';letter-spacing:0px;word-spacing:0px;fill:#000000;fill-opacity:1;stroke:none;stroke-width:0.75"
     d="m 393.07074,486.41907 v 1.24999 q -0.39551,-0.2539 -0.8252,-0.38086 -0.4248,-0.13183 -0.85449,-0.13183 -0.47852,0 -0.72266,0.1416 -0.24414,0.13672 -0.24414,0.41016 0,0.39062 1.04493,0.63476 l 0.0537,0.0146 0.41015,0.0976 q 0.78125,0.18555 1.14258,0.60059 0.36621,0.41016 0.36621,1.11328 0,0.84473 -0.55665,1.26953 -0.55175,0.41992 -1.66503,0.41992 -0.49316,0 -1.01075,-0.0879 -0.51757,-0.083 -1.0498,-0.2539 v -1.25001 q 0.47363,0.26856 0.96192,0.41016 0.49316,0.1416 0.95214,0.1416 0.50293,0 0.76172,-0.14648 0.25879,-0.14648 0.25879,-0.42481 0,-0.27343 -0.18555,-0.41991 -0.18066,-0.14649 -0.86914,-0.31251 l -0.39551,-0.0879 q -0.82031,-0.18554 -1.19628,-0.58105 -0.37598,-0.39551 -0.37598,-1.05957 0,-0.79101 0.57128,-1.23047 0.57129,-0.43945 1.60645,-0.43945 0.46387,0 0.92285,0.0781 0.46387,0.0732 0.89845,0.22461 z" />
  <path
     id="path21746"
     style="display:inline;font-style:normal;font-variant:normal;font-weight:bold;font-stretch:normal;font-size:13.3333px;line-height:1.25;font-family:monospace;-inkscape-font-specification:'monospace Bold';letter-spacing:0px;word-spacing:0px;fill:#000000;fill-opacity:1;stroke:none;stroke-width:0.75"
     d="m 397.98285,491.71692 h -1.44044 v -6.03028 h -1.85058 v -1.25976 h 5.1416 v 1.25976 h -1.85058 z" />
  <path
     id="path21748"
     style="display:inline;font-style:normal;font-variant:normal;font-weight:bold;font-stretch:normal;font-size:13.3333px;line-height:1.25;font-family:monospace;-inkscape-font-specification:'monospace Bold';letter-spacing:0px;word-spacing:0px;fill:#000000;fill-opacity:1;stroke:none;stroke-width:0.75"
     d="m 405.65375,491.44837 q -0.49805,0.20507 -1.01563,0.30761 -0.51758,0.10254 -1.09375,0.10254 -1.37207,0 -2.09961,-0.73242 -0.72266,-0.7373 -0.72266,-2.11914 0,-1.3379 0.69825,-2.11426 0.69824,-0.77637 1.90429,-0.77637 1.21583,0 1.88477,0.72266 0.67383,0.71777 0.67383,2.02637 v 0.58105 h -3.70606 q 0.005,0.64453 0.38086,0.96191 0.37598,0.31738 1.12305,0.31738 0.49316,0 0.97168,-0.1416 0.47852,-0.1416 1.00097,-0.44922 z m -1.21094,-3.07618 q -0.01,-0.56641 -0.29297,-0.85449 -0.27832,-0.29297 -0.8252,-0.29297 -0.49316,0 -0.78612,0.30273 -0.29298,0.29786 -0.34669,0.84961 z" />
  <path
     id="path21750"
     style="display:inline;font-style:normal;font-variant:normal;font-weight:bold;font-stretch:normal;font-size:13.3333px;line-height:1.25;font-family:monospace;-inkscape-font-specification:'monospace Bold';letter-spacing:0px;word-spacing:0px;fill:#000000;fill-opacity:1;stroke:none;stroke-width:0.75"
     d="m 411.47406,491.43859 q -0.36133,0.20996 -0.77637,0.31251 -0.41504,0.10742 -0.89355,0.10742 -1.26465,0 -1.97754,-0.76172 -0.71289,-0.76172 -0.71289,-2.10937 0,-1.35254 0.71777,-2.11426 0.71777,-0.7666 1.98242,-0.7666 0.43945,0 0.84473,0.10254 0.41015,0.10254 0.81543,0.31738 v 1.30859 q -0.3125,-0.26856 -0.68848,-0.41016 -0.37109,-0.14648 -0.77149,-0.14648 -0.69824,0 -1.07421,0.44434 -0.37598,0.44434 -0.37598,1.26465 0,0.82031 0.37598,1.25976 0.37597,0.43945 1.07421,0.43945 0.41505,0 0.77637,-0.13671 0.36133,-0.1416 0.6836,-0.42481 z" />
  <path
     id="path21752"
     style="display:inline;font-style:normal;font-variant:normal;font-weight:bold;font-stretch:normal;font-size:13.3333px;line-height:1.25;font-family:monospace;-inkscape-font-specification:'monospace Bold';letter-spacing:0px;word-spacing:0px;fill:#000000;fill-opacity:1;stroke:none;stroke-width:0.75"
     d="m 417.5434,488.16712 v 3.5498 h -1.42091 v -3.33008 q 0,-0.59083 -0.17089,-0.84473 -0.16602,-0.25391 -0.54688,-0.25391 -0.39062,0 -0.61035,0.34668 -0.21973,0.3418 -0.21973,0.95215 v 3.12989 h -1.4209 v -7.59766 h 1.4209 v 2.94922 q 0.15137,-0.45411 0.51758,-0.70313 0.36621,-0.24902 0.88379,-0.24902 0.77637,0 1.17187,0.51758 0.39552,0.5127 0.39552,1.53321 z" />
</svg>
