<?xml version="1.0" encoding="UTF-8" standalone="no"?>
<svg
   xmlns:dc="http://purl.org/dc/elements/1.1/"
   xmlns:cc="http://creativecommons.org/ns#"
   xmlns:rdf="http://www.w3.org/1999/02/22-rdf-syntax-ns#"
   xmlns:svg="http://www.w3.org/2000/svg"
   xmlns="http://www.w3.org/2000/svg"
   id="svg1771"
   version="1.1"
   viewBox="0 0 210 297"
   height="297mm"
   width="210mm">
  <defs
     id="defs1765" />
  <metadata
     id="metadata1768">
    <rdf:RDF>
      <cc:Work
         rdf:about="">
        <dc:format>image/svg+xml</dc:format>
        <dc:type
           rdf:resource="http://purl.org/dc/dcmitype/StillImage" />
        <dc:title></dc:title>
      </cc:Work>
    </rdf:RDF>
  </metadata>
  <g
     id="layer1">
    <g
       transform="matrix(0,-0.09318241,0.09311716,0,37.313809,178.47654)"
       style="fill:#211e1e;fill-opacity:1"
       id="use108">
      <path
         id="path2500"
         d="M 1.578125,-0.171875 C 1.554688,-0.0234375 1.515625,0.0703125 1.453125,0.125 1.398438,0.1875 1.3125,0.21875 1.1875,0.21875 1.050781,0.21875 0.945312,0.175781 0.875,0.09375 0.8125,0.0195312 0.773438,-0.101562 0.765625,-0.28125 l -0.0625,-1.140625 v -0.09375 c 0,-0.15625 0.023437,-0.265625 0.078125,-0.328125 0.0625,-0.0625 0.164062,-0.09375 0.3125,-0.09375 0.1875,0 0.328125,0.140625 0.421875,0.421875 0.03125,0.136719 0.066406,0.242187 0.109375,0.3125 0.113281,0.230469 0.289062,0.40625 0.53125,0.53125 0.25,0.125 0.546875,0.1875 0.890625,0.1875 0.414063,0 0.753906,-0.097656 1.015625,-0.296875 0.257812,-0.195312 0.390625,-0.453125 0.390625,-0.765625 0,-0.257813 -0.085937,-0.46875 -0.25,-0.625 -0.15625,-0.15625 -0.386719,-0.253906 -0.6875,-0.296875 L 2.78125,-2.5625 C 2.113281,-2.65625 1.625,-2.832031 1.3125,-3.09375 1,-3.351562 0.84375,-3.722656 0.84375,-4.203125 c 0,-0.5 0.203125,-0.914063 0.609375,-1.25 0.414063,-0.34375 0.9375,-0.515625 1.5625,-0.515625 0.175781,0 0.363281,0.027344 0.5625,0.078125 C 3.773438,-5.847656 4,-5.773438 4.25,-5.671875 c 0.00781,-0.09375 0.035156,-0.15625 0.078125,-0.1875 0.039063,-0.039063 0.117187,-0.0625 0.234375,-0.0625 0.144531,0 0.242188,0.023437 0.296875,0.0625 0.050781,0.042969 0.085937,0.148437 0.109375,0.3125 l 0.0625,1.015625 v 0.046875 c 0,0.117187 -0.039062,0.203125 -0.109375,0.265625 C 4.859375,-4.15625 4.769531,-4.125 4.65625,-4.125 4.488281,-4.125 4.359375,-4.242188 4.265625,-4.484375 4.210938,-4.617188 4.164062,-4.722656 4.125,-4.796875 4.007812,-4.953125 3.851562,-5.070312 3.65625,-5.15625 3.457031,-5.25 3.226562,-5.296875 2.96875,-5.296875 2.570312,-5.296875 2.25,-5.195312 2,-5 c -0.242188,0.1875 -0.359375,0.445312 -0.359375,0.765625 0,0.242187 0.085937,0.433594 0.265625,0.578125 0.1875,0.148438 0.472656,0.246094 0.859375,0.296875 l 0.78125,0.09375 c 0.5625,0.074219 0.984375,0.25 1.265625,0.53125 0.289062,0.273437 0.4375,0.636719 0.4375,1.09375 0,0.542969 -0.203125,0.980469 -0.609375,1.3125 -0.40625,0.33203125 -0.949219,0.5 -1.625,0.5 -0.242187,0 -0.476563,-0.03125 -0.703125,-0.09375 -0.230469,-0.0546875 -0.476562,-0.1328125 -0.734375,-0.25 z m 0,0"
         style="stroke:none" />
    </g>
    <g
       transform="matrix(0,-0.09318241,0.09311716,0,37.313809,176.36309)"
       style="fill:#211e1e;fill-opacity:1"
       id="use112">
      <path
         id="path2496"
         d="m 1.15625,-0.6875 v -5 H 1.0625 c -0.21875,0 -0.371094,-0.023438 -0.453125,-0.078125 -0.085937,-0.050781 -0.125,-0.144531 -0.125,-0.28125 0,-0.113281 0.03125,-0.195313 0.09375,-0.25 C 0.648438,-6.359375 0.75,-6.390625 0.875,-6.390625 h 0.75 c 0.082031,0 0.148438,0.023437 0.203125,0.0625 C 1.878906,-6.296875 1.90625,-6.25 1.90625,-6.1875 v 2.203125 C 2.132812,-4.203125 2.363281,-4.363281 2.59375,-4.46875 2.832031,-4.570312 3.078125,-4.625 3.328125,-4.625 c 0.488281,0 0.875,0.152344 1.15625,0.453125 0.28125,0.304687 0.421875,0.726563 0.421875,1.265625 v 2.21875 h 0.234375 c 0.164063,0 0.28125,0.027344 0.34375,0.078125 0.070313,0.054687 0.109375,0.136719 0.109375,0.25 0,0.125 -0.03125,0.21875 -0.09375,0.28125 C 5.4375,-0.0234375 5.335938,0 5.203125,0 H 3.90625 c -0.148438,0 -0.25,-0.0234375 -0.3125,-0.078125 -0.054688,-0.050781 -0.078125,-0.144531 -0.078125,-0.28125 0,-0.125 0.03125,-0.207031 0.09375,-0.25 C 3.679688,-0.660156 3.8125,-0.6875 4,-0.6875 h 0.171875 v -2.03125 c 0,-0.382812 -0.089844,-0.675781 -0.265625,-0.875 -0.167969,-0.195312 -0.417969,-0.296875 -0.75,-0.296875 -0.335938,0 -0.625,0.117187 -0.875,0.34375 -0.25,0.21875 -0.375,0.496094 -0.375,0.828125 v 2.03125 h 0.171875 c 0.1875,0 0.3125,0.027344 0.375,0.078125 0.070313,0.042969 0.109375,0.125 0.109375,0.25 0,0.136719 -0.027344,0.230469 -0.078125,0.28125 C 2.429688,-0.0234375 2.328125,0 2.171875,0 H 0.875 C 0.75,0 0.65625,-0.0234375 0.59375,-0.078125 0.53125,-0.140625 0.5,-0.234375 0.5,-0.359375 c 0,-0.125 0.035156,-0.207031 0.109375,-0.25 C 0.691406,-0.660156 0.84375,-0.6875 1.0625,-0.6875 Z m 0,0"
         style="stroke:none" />
    </g>
    <g
       transform="matrix(0,-0.09318241,0.09311716,0,37.313809,174.24962)"
       style="fill:#211e1e;fill-opacity:1"
       id="use116">
      <path
         id="path2508"
         d="m 1.34375,-2.046875 c 0.03125,0.46875 0.191406,0.835937 0.484375,1.09375 0.289063,0.25 0.6875,0.375 1.1875,0.375 0.382813,0 0.800781,-0.097656 1.25,-0.296875 0.445313,-0.207031 0.71875,-0.3125 0.8125,-0.3125 0.09375,0 0.171875,0.03125 0.234375,0.09375 0.070312,0.0625 0.109375,0.140625 0.109375,0.234375 0,0.09375 -0.039063,0.183594 -0.109375,0.265625 -0.0625,0.074219 -0.171875,0.148438 -0.328125,0.21875 -0.324219,0.167969 -0.65625,0.2929688 -1,0.375 -0.34375,0.0820312 -0.6875,0.125 -1.03125,0.125 -0.742187,0 -1.335937,-0.2109375 -1.78125,-0.640625 C 0.722656,-0.941406 0.5,-1.507812 0.5,-2.21875 c 0,-0.71875 0.234375,-1.300781 0.703125,-1.75 0.476563,-0.445312 1.09375,-0.671875 1.84375,-0.671875 0.6875,0 1.253906,0.210937 1.703125,0.625 0.457031,0.417969 0.6875,0.921875 0.6875,1.515625 0,0.179688 -0.042969,0.296875 -0.125,0.359375 -0.074219,0.0625 -0.277344,0.09375 -0.609375,0.09375 z M 1.375,-2.6875 H 4.546875 C 4.503906,-3.070312 4.34375,-3.378906 4.0625,-3.609375 3.789062,-3.847656 3.453125,-3.96875 3.046875,-3.96875 c -0.429687,0 -0.792969,0.117188 -1.09375,0.34375 C 1.660156,-3.394531 1.46875,-3.082031 1.375,-2.6875 Z m 0,0"
         style="stroke:none" />
    </g>
    <g
       transform="matrix(0,-0.09318241,0.09311716,0,37.313809,172.13615)"
       style="fill:#211e1e;fill-opacity:1"
       id="use120">
      <path
         id="path2512"
         d="m 1.34375,-2.046875 c 0.03125,0.46875 0.191406,0.835937 0.484375,1.09375 0.289063,0.25 0.6875,0.375 1.1875,0.375 0.382813,0 0.800781,-0.097656 1.25,-0.296875 0.445313,-0.207031 0.71875,-0.3125 0.8125,-0.3125 0.09375,0 0.171875,0.03125 0.234375,0.09375 0.070312,0.0625 0.109375,0.140625 0.109375,0.234375 0,0.09375 -0.039063,0.183594 -0.109375,0.265625 -0.0625,0.074219 -0.171875,0.148438 -0.328125,0.21875 -0.324219,0.167969 -0.65625,0.2929688 -1,0.375 -0.34375,0.0820312 -0.6875,0.125 -1.03125,0.125 -0.742187,0 -1.335937,-0.2109375 -1.78125,-0.640625 C 0.722656,-0.941406 0.5,-1.507812 0.5,-2.21875 c 0,-0.71875 0.234375,-1.300781 0.703125,-1.75 0.476563,-0.445312 1.09375,-0.671875 1.84375,-0.671875 0.6875,0 1.253906,0.210937 1.703125,0.625 0.457031,0.417969 0.6875,0.921875 0.6875,1.515625 0,0.179688 -0.042969,0.296875 -0.125,0.359375 -0.074219,0.0625 -0.277344,0.09375 -0.609375,0.09375 z M 1.375,-2.6875 H 4.546875 C 4.503906,-3.070312 4.34375,-3.378906 4.0625,-3.609375 3.789062,-3.847656 3.453125,-3.96875 3.046875,-3.96875 c -0.429687,0 -0.792969,0.117188 -1.09375,0.34375 C 1.660156,-3.394531 1.46875,-3.082031 1.375,-2.6875 Z m 0,0"
         style="stroke:none" />
    </g>
    <g
       transform="matrix(0,-0.09318241,0.09311716,0,37.313809,170.02268)"
       style="fill:#211e1e;fill-opacity:1"
       id="use124">
      <path
         id="path2544"
         d="m 4.328125,-4.234375 c 0.164063,0 0.285156,0.027344 0.359375,0.078125 0.070312,0.054688 0.109375,0.140625 0.109375,0.265625 0,0.117187 -0.039063,0.203125 -0.109375,0.265625 -0.074219,0.054688 -0.179688,0.078125 -0.3125,0.078125 H 2.40625 v 1.625 c 0,0.53125 0.066406,0.886719 0.203125,1.0625 0.132813,0.167969 0.375,0.25 0.71875,0.25 0.289063,0 0.640625,-0.082031 1.046875,-0.25 C 4.789062,-1.035156 5.050781,-1.125 5.15625,-1.125 c 0.082031,0 0.15625,0.03125 0.21875,0.09375 0.070312,0.0625 0.109375,0.140625 0.109375,0.234375 0,0.117187 -0.042969,0.214844 -0.125,0.296875 -0.085937,0.074219 -0.21875,0.148438 -0.40625,0.21875 C 4.628906,-0.15625 4.335938,-0.0625 4.078125,0 3.828125,0.0625 3.59375,0.09375 3.375,0.09375 c -0.386719,0 -0.710938,-0.0625 -0.96875,-0.1875 -0.261719,-0.125 -0.453125,-0.304688 -0.578125,-0.546875 -0.0625,-0.113281 -0.109375,-0.25 -0.140625,-0.40625 -0.023438,-0.15625 -0.03125,-0.394531 -0.03125,-0.71875 v -1.78125 H 0.828125 c -0.148437,0 -0.25,-0.023437 -0.3125,-0.078125 C 0.460938,-3.6875 0.4375,-3.773438 0.4375,-3.890625 c 0,-0.132813 0.039062,-0.222656 0.125,-0.265625 0.082031,-0.050781 0.257812,-0.078125 0.53125,-0.078125 h 0.5625 V -5.5 c 0,-0.132812 0.023438,-0.234375 0.078125,-0.296875 0.0625,-0.070313 0.15625,-0.109375 0.28125,-0.109375 0.144531,0 0.242187,0.042969 0.296875,0.125 0.0625,0.074219 0.09375,0.257812 0.09375,0.546875 v 1 z m 0,0"
         style="stroke:none" />
    </g>
    <g
       transform="matrix(0,-0.09318241,0.09311716,0,37.313809,165.79576)"
       style="fill:#211e1e;fill-opacity:1"
       id="use128">
      <path
         id="path2548"
         d="M 3.40625,-2.25 V -5.5625 L 1.5625,-2.25 Z M 2.875,0 C 2.71875,0 2.613281,-0.0234375 2.5625,-0.078125 2.507812,-0.128906 2.484375,-0.222656 2.484375,-0.359375 c 0,-0.113281 0.023437,-0.195313 0.078125,-0.25 C 2.625,-0.660156 2.71875,-0.6875 2.84375,-0.6875 h 0.5625 V -1.515625 H 1.125 c -0.085938,0 -0.148438,-0.023437 -0.1875,-0.078125 C 0.894531,-1.644531 0.875,-1.71875 0.875,-1.8125 v -0.34375 c 0,-0.125 0.046875,-0.257812 0.140625,-0.40625 0.00781,-0.019531 0.019531,-0.039062 0.03125,-0.0625 l 2.0625,-3.5 C 3.148438,-6.195312 3.1875,-6.242188 3.21875,-6.265625 3.25,-6.296875 3.289062,-6.3125 3.34375,-6.3125 c 0.019531,0 0.050781,0.00781 0.09375,0.015625 0.019531,0 0.035156,0 0.046875,0 l 0.5,0.078125 C 4.023438,-6.207031 4.054688,-6.175781 4.078125,-6.125 4.109375,-6.082031 4.125,-6.03125 4.125,-5.96875 V -2.25 h 0.25 c 0.070312,0 0.128906,-0.023438 0.171875,-0.078125 0.039063,-0.0625 0.082031,-0.09375 0.125,-0.09375 0.070313,0 0.128906,0.027344 0.171875,0.078125 0.039062,0.042969 0.0625,0.101562 0.0625,0.171875 0,0.03125 0,0.0625 0,0.09375 0,0.023437 -0.00781,0.042969 -0.015625,0.0625 L 4.84375,-1.8125 C 4.820312,-1.695312 4.789062,-1.617188 4.75,-1.578125 c -0.042969,0.042969 -0.109375,0.0625 -0.203125,0.0625 H 4.125 V -0.6875 h 0.171875 c 0.207031,0 0.347656,0.027344 0.421875,0.078125 0.082031,0.054687 0.125,0.136719 0.125,0.25 0,0.125 -0.03125,0.21875 -0.09375,0.28125 C 4.6875,-0.0234375 4.585938,0 4.453125,0 Z m 0,0"
         style="stroke:none" />
    </g>
    <g
       transform="matrix(0,-0.09318241,0.09311716,0,37.313809,161.56882)"
       style="fill:#211e1e;fill-opacity:1"
       id="use132">
      <path
         id="path2536"
         d="m 0.96875,-1.78125 c -0.074219,0 -0.132812,-0.019531 -0.171875,-0.0625 C 0.765625,-1.882812 0.75,-1.941406 0.75,-2.015625 V -2.53125 c 0,-0.0625 0.015625,-0.109375 0.046875,-0.140625 0.039063,-0.039063 0.097656,-0.0625 0.171875,-0.0625 h 4.046875 c 0.070313,0 0.128906,0.023437 0.171875,0.0625 0.039062,0.03125 0.0625,0.078125 0.0625,0.140625 v 0.515625 c 0,0.0625 -0.027344,0.121094 -0.078125,0.171875 -0.042969,0.042969 -0.09375,0.0625 -0.15625,0.0625 z m 0,0"
         style="stroke:none" />
    </g>
    <g
       transform="matrix(0,-0.09318241,0.09311716,0,37.313809,157.3419)"
       style="fill:#211e1e;fill-opacity:1"
       id="use136">
      <path
         id="path2504"
         d="M 1.578125,-0.171875 C 1.554688,-0.0234375 1.515625,0.0703125 1.453125,0.125 1.398438,0.1875 1.3125,0.21875 1.1875,0.21875 1.050781,0.21875 0.945312,0.175781 0.875,0.09375 0.8125,0.0195312 0.773438,-0.101562 0.765625,-0.28125 l -0.0625,-1.140625 v -0.09375 c 0,-0.15625 0.023437,-0.265625 0.078125,-0.328125 0.0625,-0.0625 0.164062,-0.09375 0.3125,-0.09375 0.1875,0 0.328125,0.140625 0.421875,0.421875 0.03125,0.136719 0.066406,0.242187 0.109375,0.3125 0.113281,0.230469 0.289062,0.40625 0.53125,0.53125 0.25,0.125 0.546875,0.1875 0.890625,0.1875 0.414063,0 0.753906,-0.097656 1.015625,-0.296875 0.257812,-0.195312 0.390625,-0.453125 0.390625,-0.765625 0,-0.257813 -0.085937,-0.46875 -0.25,-0.625 -0.15625,-0.15625 -0.386719,-0.253906 -0.6875,-0.296875 L 2.78125,-2.5625 C 2.113281,-2.65625 1.625,-2.832031 1.3125,-3.09375 1,-3.351562 0.84375,-3.722656 0.84375,-4.203125 c 0,-0.5 0.203125,-0.914063 0.609375,-1.25 0.414063,-0.34375 0.9375,-0.515625 1.5625,-0.515625 0.175781,0 0.363281,0.027344 0.5625,0.078125 C 3.773438,-5.847656 4,-5.773438 4.25,-5.671875 c 0.00781,-0.09375 0.035156,-0.15625 0.078125,-0.1875 0.039063,-0.039063 0.117187,-0.0625 0.234375,-0.0625 0.144531,0 0.242188,0.023437 0.296875,0.0625 0.050781,0.042969 0.085937,0.148437 0.109375,0.3125 l 0.0625,1.015625 v 0.046875 c 0,0.117187 -0.039062,0.203125 -0.109375,0.265625 C 4.859375,-4.15625 4.769531,-4.125 4.65625,-4.125 4.488281,-4.125 4.359375,-4.242188 4.265625,-4.484375 4.210938,-4.617188 4.164062,-4.722656 4.125,-4.796875 4.007812,-4.953125 3.851562,-5.070312 3.65625,-5.15625 3.457031,-5.25 3.226562,-5.296875 2.96875,-5.296875 2.570312,-5.296875 2.25,-5.195312 2,-5 c -0.242188,0.1875 -0.359375,0.445312 -0.359375,0.765625 0,0.242187 0.085937,0.433594 0.265625,0.578125 0.1875,0.148438 0.472656,0.246094 0.859375,0.296875 l 0.78125,0.09375 c 0.5625,0.074219 0.984375,0.25 1.265625,0.53125 0.289062,0.273437 0.4375,0.636719 0.4375,1.09375 0,0.542969 -0.203125,0.980469 -0.609375,1.3125 -0.40625,0.33203125 -0.949219,0.5 -1.625,0.5 -0.242187,0 -0.476563,-0.03125 -0.703125,-0.09375 -0.230469,-0.0546875 -0.476562,-0.1328125 -0.734375,-0.25 z m 0,0"
         style="stroke:none" />
    </g>
    <g
       transform="matrix(0,-0.09318241,0.09311716,0,37.313809,155.22843)"
       style="fill:#211e1e;fill-opacity:1"
       id="use140">
      <path
         id="path2540"
         d="m 2.546875,-5.921875 c 0,-0.351563 0.03125,-0.570313 0.09375,-0.65625 0.0625,-0.09375 0.195313,-0.140625 0.40625,-0.140625 0.207031,0 0.34375,0.042969 0.40625,0.125 0.0625,0.074219 0.09375,0.25 0.09375,0.53125 0,0.28125 -0.03125,0.460938 -0.09375,0.53125 -0.054687,0.0625 -0.1875,0.09375 -0.40625,0.09375 -0.210937,0 -0.34375,-0.03125 -0.40625,-0.09375 -0.0625,-0.0625 -0.09375,-0.191406 -0.09375,-0.390625 z m 0.90625,5.234375 h 1.5625 c 0.125,0 0.21875,0.027344 0.28125,0.078125 0.0625,0.054687 0.09375,0.136719 0.09375,0.25 0,0.136719 -0.03125,0.230469 -0.09375,0.28125 C 5.242188,-0.0234375 5.140625,0 4.984375,0 H 1.203125 C 1.066406,0 0.96875,-0.0234375 0.90625,-0.078125 c -0.0625,-0.0625 -0.09375,-0.15625 -0.09375,-0.28125 0,-0.101563 0.03125,-0.179687 0.09375,-0.234375 0.070312,-0.0625 0.175781,-0.09375 0.3125,-0.09375 h 1.484375 v -3.125 h -0.9375 c -0.136719,0 -0.242187,-0.03125 -0.3125,-0.09375 -0.074219,-0.0625 -0.109375,-0.148438 -0.109375,-0.265625 0,-0.113281 0.03125,-0.195313 0.09375,-0.25 0.070312,-0.0625 0.171875,-0.09375 0.296875,-0.09375 h 1.4375 c 0.082031,0 0.148437,0.023437 0.203125,0.0625 0.050781,0.03125 0.078125,0.078125 0.078125,0.140625 z m 0,0"
         style="stroke:none" />
    </g>
    <g
       transform="matrix(0,-0.09318241,0.09311716,0,37.313809,153.11496)"
       style="fill:#211e1e;fill-opacity:1"
       id="use144">
      <path
         id="path2516"
         d="m 1.34375,-2.046875 c 0.03125,0.46875 0.191406,0.835937 0.484375,1.09375 0.289063,0.25 0.6875,0.375 1.1875,0.375 0.382813,0 0.800781,-0.097656 1.25,-0.296875 0.445313,-0.207031 0.71875,-0.3125 0.8125,-0.3125 0.09375,0 0.171875,0.03125 0.234375,0.09375 0.070312,0.0625 0.109375,0.140625 0.109375,0.234375 0,0.09375 -0.039063,0.183594 -0.109375,0.265625 -0.0625,0.074219 -0.171875,0.148438 -0.328125,0.21875 -0.324219,0.167969 -0.65625,0.2929688 -1,0.375 -0.34375,0.0820312 -0.6875,0.125 -1.03125,0.125 -0.742187,0 -1.335937,-0.2109375 -1.78125,-0.640625 C 0.722656,-0.941406 0.5,-1.507812 0.5,-2.21875 c 0,-0.71875 0.234375,-1.300781 0.703125,-1.75 0.476563,-0.445312 1.09375,-0.671875 1.84375,-0.671875 0.6875,0 1.253906,0.210937 1.703125,0.625 0.457031,0.417969 0.6875,0.921875 0.6875,1.515625 0,0.179688 -0.042969,0.296875 -0.125,0.359375 -0.074219,0.0625 -0.277344,0.09375 -0.609375,0.09375 z M 1.375,-2.6875 H 4.546875 C 4.503906,-3.070312 4.34375,-3.378906 4.0625,-3.609375 3.789062,-3.847656 3.453125,-3.96875 3.046875,-3.96875 c -0.429687,0 -0.792969,0.117188 -1.09375,0.34375 C 1.660156,-3.394531 1.46875,-3.082031 1.375,-2.6875 Z m 0,0"
         style="stroke:none" />
    </g>
    <g
       transform="matrix(0,-0.09318241,0.09311716,0,37.313809,151.00149)"
       style="fill:#211e1e;fill-opacity:1"
       id="use148">
      <path
         id="path2524"
         d="M 4.46875,0 C 4.394531,0 4.34375,-0.015625 4.3125,-0.046875 4.289062,-0.0859375 4.28125,-0.15625 4.28125,-0.25 v -0.40625 c -0.199219,0.25 -0.445312,0.445312 -0.734375,0.578125 C 3.253906,0.0546875 2.9375,0.125 2.59375,0.125 1.976562,0.125 1.460938,-0.09375 1.046875,-0.53125 0.640625,-0.96875 0.4375,-1.515625 0.4375,-2.171875 c 0,-0.664063 0.21875,-1.222656 0.65625,-1.671875 0.445312,-0.445312 1,-0.671875 1.65625,-0.671875 0.332031,0 0.628906,0.058594 0.890625,0.171875 0.269531,0.117188 0.503906,0.292969 0.703125,0.53125 v -1.875 H 4.078125 c -0.28125,0 -0.464844,-0.023438 -0.546875,-0.078125 -0.085938,-0.050781 -0.125,-0.144531 -0.125,-0.28125 0,-0.113281 0.03125,-0.195313 0.09375,-0.25 0.070312,-0.0625 0.171875,-0.09375 0.296875,-0.09375 h 1 c 0.101563,0 0.175781,0.015625 0.21875,0.046875 0.039063,0.03125 0.0625,0.085938 0.0625,0.15625 v 5.5 h 0.21875 c 0.15625,0 0.269531,0.027344 0.34375,0.078125 0.070313,0.054687 0.109375,0.136719 0.109375,0.25 0,0.117187 -0.03125,0.203125 -0.09375,0.265625 C 5.59375,-0.03125 5.507812,0 5.40625,0 Z M 1.265625,-2.1875 c 0,0.449219 0.144531,0.820312 0.4375,1.109375 0.289063,0.28125 0.660156,0.421875 1.109375,0.421875 0.445312,0 0.8125,-0.144531 1.09375,-0.4375 0.289062,-0.300781 0.4375,-0.679688 0.4375,-1.140625 0,-0.457031 -0.148438,-0.832031 -0.4375,-1.125 -0.28125,-0.289063 -0.648438,-0.4375 -1.09375,-0.4375 -0.460938,0 -0.835938,0.152344 -1.125,0.453125 -0.28125,0.292969 -0.421875,0.679688 -0.421875,1.15625 z m 0,0"
         style="stroke:none" />
    </g>
    <g
       transform="matrix(0,-0.09318241,0.09311716,0,37.313809,148.88804)"
       style="fill:#211e1e;fill-opacity:1"
       id="use152">
      <path
         id="path2528"
         d="M 2.671875,-5.6875 H 1.84375 c -0.3125,0 -0.511719,-0.023438 -0.59375,-0.078125 -0.085938,-0.050781 -0.125,-0.144531 -0.125,-0.28125 0,-0.113281 0.03125,-0.195313 0.09375,-0.25 0.070312,-0.0625 0.171875,-0.09375 0.296875,-0.09375 H 3.125 c 0.09375,0 0.160156,0.023437 0.203125,0.0625 C 3.378906,-6.296875 3.40625,-6.25 3.40625,-6.1875 v 5.5 H 4.9375 c 0.125,0 0.210938,0.027344 0.265625,0.078125 0.0625,0.054687 0.09375,0.136719 0.09375,0.25 0,0.136719 -0.03125,0.230469 -0.09375,0.28125 C 5.148438,-0.0234375 5.050781,0 4.90625,0 H 1.296875 C 1.171875,0 1.070312,-0.0234375 1,-0.078125 0.9375,-0.140625 0.90625,-0.234375 0.90625,-0.359375 0.90625,-0.460938 0.9375,-0.539062 1,-0.59375 1.070312,-0.65625 1.175781,-0.6875 1.3125,-0.6875 h 1.359375 z m 0,0"
         style="stroke:none" />
    </g>
    <g
       transform="matrix(0,-0.09318241,0.09311716,0,37.313809,146.77457)"
       style="fill:#211e1e;fill-opacity:1"
       id="use156">
      <path
         id="path2520"
         d="m 1.34375,-2.046875 c 0.03125,0.46875 0.191406,0.835937 0.484375,1.09375 0.289063,0.25 0.6875,0.375 1.1875,0.375 0.382813,0 0.800781,-0.097656 1.25,-0.296875 0.445313,-0.207031 0.71875,-0.3125 0.8125,-0.3125 0.09375,0 0.171875,0.03125 0.234375,0.09375 0.070312,0.0625 0.109375,0.140625 0.109375,0.234375 0,0.09375 -0.039063,0.183594 -0.109375,0.265625 -0.0625,0.074219 -0.171875,0.148438 -0.328125,0.21875 -0.324219,0.167969 -0.65625,0.2929688 -1,0.375 -0.34375,0.0820312 -0.6875,0.125 -1.03125,0.125 -0.742187,0 -1.335937,-0.2109375 -1.78125,-0.640625 C 0.722656,-0.941406 0.5,-1.507812 0.5,-2.21875 c 0,-0.71875 0.234375,-1.300781 0.703125,-1.75 0.476563,-0.445312 1.09375,-0.671875 1.84375,-0.671875 0.6875,0 1.253906,0.210937 1.703125,0.625 0.457031,0.417969 0.6875,0.921875 0.6875,1.515625 0,0.179688 -0.042969,0.296875 -0.125,0.359375 -0.074219,0.0625 -0.277344,0.09375 -0.609375,0.09375 z M 1.375,-2.6875 H 4.546875 C 4.503906,-3.070312 4.34375,-3.378906 4.0625,-3.609375 3.789062,-3.847656 3.453125,-3.96875 3.046875,-3.96875 c -0.429687,0 -0.792969,0.117188 -1.09375,0.34375 C 1.660156,-3.394531 1.46875,-3.082031 1.375,-2.6875 Z m 0,0"
         style="stroke:none" />
    </g>
    <g
       transform="matrix(0,-0.09318241,0.09311716,0,37.313809,142.54764)"
       style="fill:#211e1e;fill-opacity:1"
       id="use160">
      <path
         id="path2532"
         d="M 1.671875,-0.6875 H 2.28125 c 0.175781,0 0.300781,0.027344 0.375,0.078125 0.070312,0.054687 0.109375,0.136719 0.109375,0.25 0,0.136719 -0.039063,0.230469 -0.109375,0.28125 C 2.59375,-0.0234375 2.441406,0 2.203125,0 H 0.75 C 0.632812,0 0.546875,-0.0234375 0.484375,-0.078125 0.429688,-0.140625 0.40625,-0.234375 0.40625,-0.359375 c 0,-0.125 0.03125,-0.207031 0.09375,-0.25 C 0.5625,-0.660156 0.691406,-0.6875 0.890625,-0.6875 h 0.09375 v -4.40625 h -0.125 c -0.273437,0 -0.460937,-0.023438 -0.5625,-0.078125 C 0.203125,-5.222656 0.15625,-5.3125 0.15625,-5.4375 c 0,-0.125 0.039062,-0.210938 0.125,-0.265625 C 0.363281,-5.753906 0.5,-5.78125 0.6875,-5.78125 c 0,0 0.03125,0 0.09375,0 0.070312,-0.00781 0.140625,-0.015625 0.203125,-0.015625 H 1.4375 c 0.15625,0 0.257812,0.023437 0.3125,0.0625 0.0625,0.03125 0.132812,0.117187 0.21875,0.25 l 2.453125,4.25 V -5.09375 H 3.890625 C 3.710938,-5.09375 3.582031,-5.117188 3.5,-5.171875 3.425781,-5.234375 3.390625,-5.320312 3.390625,-5.4375 c 0,-0.132812 0.03125,-0.226562 0.09375,-0.28125 0.070313,-0.050781 0.21875,-0.078125 0.4375,-0.078125 h 1.40625 c 0.113281,0 0.195313,0.03125 0.25,0.09375 0.0625,0.0625 0.09375,0.152344 0.09375,0.265625 0,0.125 -0.039063,0.214844 -0.109375,0.265625 -0.074219,0.054687 -0.199219,0.078125 -0.375,0.078125 H 5.125 v 4.921875 c 0,0.09375 -0.027344,0.15625 -0.078125,0.1875 -0.042969,0.0390625 -0.140625,0.0625 -0.296875,0.0625 -0.15625,0 -0.257812,-0.0117188 -0.296875,-0.03125 -0.03125,-0.0117188 -0.09375,-0.09375 -0.1875,-0.25 l -2.59375,-4.46875 z m 0,0"
         style="stroke:none" />
    </g>
    <g
       transform="matrix(0,-0.09318241,0.09311716,0,37.313809,140.43418)"
       style="fill:#211e1e;fill-opacity:1"
       id="use164">
      <path
         id="path2552"
         d="m 3,-0.5625 c 0.5,0 0.910156,-0.15625 1.234375,-0.46875 C 4.554688,-1.351562 4.71875,-1.757812 4.71875,-2.25 4.71875,-2.738281 4.554688,-3.144531 4.234375,-3.46875 3.910156,-3.789062 3.5,-3.953125 3,-3.953125 c -0.5,0 -0.914062,0.164063 -1.234375,0.484375 -0.3125,0.324219 -0.46875,0.730469 -0.46875,1.21875 0,0.492188 0.15625,0.898438 0.46875,1.21875 C 2.085938,-0.71875 2.5,-0.5625 3,-0.5625 Z M 5.5625,-2.25 c 0,0.699219 -0.242188,1.273438 -0.71875,1.71875 C 4.375,-0.09375 3.757812,0.125 3,0.125 2.238281,0.125 1.617188,-0.09375 1.140625,-0.53125 0.671875,-0.976562 0.4375,-1.550781 0.4375,-2.25 c 0,-0.695312 0.234375,-1.265625 0.703125,-1.703125 C 1.617188,-4.398438 2.238281,-4.625 3,-4.625 c 0.75,0 1.363281,0.226562 1.84375,0.671875 0.476562,0.4375 0.71875,1.007813 0.71875,1.703125 z m 0,0"
         style="stroke:none" />
    </g>
    <g
       transform="matrix(0,-0.09318241,0.09311716,0,37.313809,138.32071)"
       style="fill:#211e1e;fill-opacity:1"
       id="use168">
      <path
         id="path2556"
         d="M 2,-2.5 H 3.984375 L 2.9375,-5.09375 Z M 2.234375,-5.09375 H 1.53125 c -0.199219,0 -0.339844,-0.023438 -0.421875,-0.078125 -0.085937,-0.050781 -0.125,-0.140625 -0.125,-0.265625 0,-0.132812 0.035156,-0.226562 0.109375,-0.28125 0.070312,-0.050781 0.265625,-0.078125 0.578125,-0.078125 H 3.0625 c 0.175781,0 0.296875,0.027344 0.359375,0.078125 0.0625,0.042969 0.117187,0.132812 0.171875,0.265625 L 5.515625,-0.6875 H 5.59375 c 0.175781,0 0.296875,0.027344 0.359375,0.078125 0.0625,0.042969 0.09375,0.125 0.09375,0.25 0,0.136719 -0.03125,0.230469 -0.09375,0.28125 C 5.890625,-0.0234375 5.773438,0 5.609375,0 H 4.28125 c -0.25,0 -0.414062,-0.0234375 -0.484375,-0.078125 -0.0625,-0.050781 -0.09375,-0.144531 -0.09375,-0.28125 0,-0.113281 0.035156,-0.195313 0.109375,-0.25 C 3.894531,-0.660156 4.039062,-0.6875 4.25,-0.6875 H 4.703125 L 4.234375,-1.84375 H 1.75 L 1.328125,-0.6875 h 0.46875 c 0.21875,0 0.363281,0.027344 0.4375,0.078125 0.082031,0.054687 0.125,0.136719 0.125,0.25 0,0.136719 -0.039063,0.230469 -0.109375,0.28125 C 2.1875,-0.0234375 2.035156,0 1.796875,0 H 0.515625 C 0.304688,0 0.164062,-0.0234375 0.09375,-0.078125 c -0.0742188,-0.050781 -0.109375,-0.144531 -0.109375,-0.28125 0,-0.125 0.0351562,-0.207031 0.109375,-0.25 C 0.164062,-0.660156 0.296875,-0.6875 0.484375,-0.6875 h 0.09375 z m 0,0"
         style="stroke:none" />
    </g>
    <g
       transform="matrix(0,-0.09318241,0.09311716,0,37.313809,136.20724)"
       style="fill:#211e1e;fill-opacity:1"
       id="use172">
      <path
         id="path2560"
         d="m 4.8125,-2.71875 c 0,-0.457031 -0.042969,-0.765625 -0.125,-0.921875 -0.085938,-0.164063 -0.226562,-0.25 -0.421875,-0.25 -0.25,0 -0.449219,0.105469 -0.59375,0.3125 C 3.535156,-3.367188 3.46875,-3.082031 3.46875,-2.71875 V -0.6875 H 3.5625 c 0.195312,0 0.328125,0.027344 0.390625,0.078125 0.070313,0.042969 0.109375,0.125 0.109375,0.25 0,0.125 -0.03125,0.21875 -0.09375,0.28125 C 3.914062,-0.0234375 3.832031,0 3.71875,0 h -0.625 C 2.957031,0 2.863281,-0.03125 2.8125,-0.09375 2.757812,-0.164062 2.734375,-0.304688 2.734375,-0.515625 V -3.09375 c 0,-0.25 -0.058594,-0.441406 -0.171875,-0.578125 -0.105469,-0.144531 -0.25,-0.21875 -0.4375,-0.21875 -0.148438,0 -0.28125,0.042969 -0.40625,0.125 -0.125,0.085937 -0.230469,0.214844 -0.3125,0.390625 v 2.6875 h 0.171875 c 0.195313,0 0.328125,0.027344 0.390625,0.078125 0.070312,0.042969 0.109375,0.125 0.109375,0.25 0,0.136719 -0.027344,0.230469 -0.078125,0.28125 C 1.945312,-0.0234375 1.84375,0 1.6875,0 H 0.375 C 0.25,0 0.15625,-0.0234375 0.09375,-0.078125 c -0.0546875,-0.0625 -0.078125,-0.15625 -0.078125,-0.28125 0,-0.125 0.0351562,-0.207031 0.109375,-0.25 C 0.195312,-0.660156 0.347656,-0.6875 0.578125,-0.6875 h 0.09375 v -3.125 h -0.09375 c -0.230469,0 -0.386719,-0.023438 -0.46875,-0.078125 -0.0859375,-0.050781 -0.125,-0.144531 -0.125,-0.28125 0,-0.113281 0.03125,-0.195313 0.09375,-0.25 C 0.148438,-4.484375 0.25,-4.515625 0.375,-4.515625 h 0.75 c 0.113281,0 0.1875,0.023437 0.21875,0.0625 0.03125,0.03125 0.050781,0.109375 0.0625,0.234375 0.132812,-0.144531 0.273438,-0.25 0.421875,-0.3125 0.15625,-0.070312 0.328125,-0.109375 0.515625,-0.109375 0.226562,0 0.414062,0.054687 0.5625,0.15625 0.15625,0.09375 0.269531,0.246094 0.34375,0.453125 0.132812,-0.207031 0.289062,-0.359375 0.46875,-0.453125 0.175781,-0.101563 0.378906,-0.15625 0.609375,-0.15625 0.425781,0 0.734375,0.140625 0.921875,0.421875 0.195312,0.273438 0.296875,0.710938 0.296875,1.3125 V -0.6875 H 5.625 c 0.195312,0 0.328125,0.027344 0.390625,0.078125 0.070313,0.042969 0.109375,0.125 0.109375,0.25 0,0.125 -0.03125,0.21875 -0.09375,0.28125 C 5.976562,-0.0234375 5.894531,0 5.78125,0 H 5.1875 C 5.0625,0 4.96875,-0.0351562 4.90625,-0.109375 4.84375,-0.191406 4.8125,-0.316406 4.8125,-0.484375 Z m 0,0"
         style="stroke:none" />
    </g>
    <g
       transform="matrix(0,-0.09318241,0.09311716,0,37.313809,134.09378)"
       style="fill:#211e1e;fill-opacity:1"
       id="use176">
      <path
         id="path2564"
         d="M 1.734375,1.25 H 2.90625 c 0.125,0 0.21875,0.023438 0.28125,0.078125 0.0625,0.0625 0.09375,0.15625 0.09375,0.28125 C 3.28125,1.734375 3.25,1.820312 3.1875,1.875 3.125,1.925781 3.019531,1.953125 2.875,1.953125 H 0.71875 c -0.136719,0 -0.234375,-0.03125 -0.296875,-0.09375 -0.0625,-0.0625 -0.09375,-0.148437 -0.09375,-0.25 0,-0.136719 0.039063,-0.230469 0.125,-0.28125 C 0.535156,1.273438 0.6875,1.25 0.90625,1.25 H 1 V -3.8125 H 0.90625 c -0.21875,0 -0.371094,-0.023438 -0.453125,-0.078125 -0.085937,-0.050781 -0.125,-0.144531 -0.125,-0.28125 0,-0.113281 0.03125,-0.195313 0.09375,-0.25 0.0625,-0.0625 0.160156,-0.09375 0.296875,-0.09375 h 0.734375 c 0.101563,0 0.175781,0.015625 0.21875,0.046875 0.039063,0.03125 0.0625,0.085938 0.0625,0.15625 v 0.46875 c 0.226563,-0.226562 0.472656,-0.394531 0.734375,-0.5 0.269531,-0.113281 0.5625,-0.171875 0.875,-0.171875 0.65625,0 1.203125,0.226563 1.640625,0.671875 0.4375,0.4375 0.65625,0.992188 0.65625,1.65625 0,0.636719 -0.210937,1.164062 -0.625,1.578125 -0.417969,0.417969 -0.949219,0.625 -1.59375,0.625 -0.34375,0 -0.664063,-0.0625 -0.953125,-0.1875 -0.292969,-0.125 -0.539062,-0.300781 -0.734375,-0.53125 z M 3.25,-0.703125 c 0.457031,0 0.828125,-0.140625 1.109375,-0.421875 0.289063,-0.289062 0.4375,-0.660156 0.4375,-1.109375 0,-0.445313 -0.148437,-0.8125 -0.4375,-1.09375 -0.292969,-0.289063 -0.664063,-0.4375 -1.109375,-0.4375 -0.449219,0 -0.820312,0.148437 -1.109375,0.4375 -0.28125,0.28125 -0.421875,0.648437 -0.421875,1.09375 0,0.449219 0.140625,0.820313 0.421875,1.109375 0.289063,0.28125 0.660156,0.421875 1.109375,0.421875 z m 0,0"
         style="stroke:none" />
    </g>
    <path
       id="path292"
       d="m 133.00862,158.601 v -14.97476 h -10.97335 v -10.9824 H 96.097656 v 21.97581 h 11.971414 v 8.97247 h 9.97665 v 9.98363 h -9.97665 v 8.99724 H 96.097656 v 21.95105 l 25.937614,0.0124 v -10.99479 h 10.97335 v -14.97474 h 29.92992 v -19.96588 z m 0,0"
       style="fill:none;stroke:#eb008a;stroke-width:0.35206211;stroke-linecap:butt;stroke-linejoin:miter;stroke-miterlimit:10;stroke-opacity:1" />
    <path
       id="path294"
       d="M 40.977974,253.45441 H 178.65481 V 43.806472 H 40.977974 Z m 0,0"
       style="fill:none;stroke:#ec008c;stroke-width:0.35206211;stroke-linecap:butt;stroke-linejoin:miter;stroke-miterlimit:10;stroke-opacity:1" />
    <path
       id="path296"
       d="M 40.978825,253.45519 H 30.874229 V 43.805696 h 10.104596"
       style="fill:none;stroke:#211e1e;stroke-width:0.0864599;stroke-linecap:butt;stroke-linejoin:miter;stroke-miterlimit:10;stroke-opacity:1" />
    <path
       id="path42"
       d="M 31.006834,253.45302 H 178.65481 V 43.806472 H 31.006834 Z m 0,0"
       style="fill:none;stroke:#000000;stroke-width:0.35206208;stroke-linecap:butt;stroke-linejoin:miter;stroke-miterlimit:1.5;stroke-opacity:1" />
    <path
       d="m 53.371005,244.88304 h 0.759555 v -0.33705 q 0,-0.24247 -0.08248,-0.33877 -0.08249,-0.098 -0.286982,-0.098 -0.207933,0 -0.29901,0.10146 -0.09108,0.10146 -0.09108,0.33533 z m -1.000141,0 h 0.596304 v -0.33705 q 0,-0.1926 -0.06874,-0.27343 -0.06874,-0.0825 -0.226834,-0.0825 -0.158098,0 -0.228555,0.0843 -0.07218,0.0825 -0.07218,0.27171 z m -0.403834,0.4901 v -0.82715 q 0,-0.42819 0.163253,-0.64315 0.161535,-0.21668 0.484601,-0.21668 0.247458,0 0.386654,0.12726 0.139194,0.12725 0.161535,0.37316 0.02921,-0.29406 0.19762,-0.44195 0.16841,-0.14961 0.470857,-0.14961 0.371186,0 0.537876,0.22356 0.16669,0.22355 0.16669,0.72741 v 0.82715 z"
       id="path20692"
       style="font-style:normal;font-variant:normal;font-weight:bold;font-stretch:normal;font-size:13.33333302px;line-height:1.25;font-family:monospace;-inkscape-font-specification:'monospace Bold';letter-spacing:0px;word-spacing:0px;fill:#00aeee;fill-opacity:1;stroke:none;stroke-width:0.26404655" />
    <path
       d="m 52.974042,242.40846 q 0,0.18056 0.159816,0.28374 0.158098,0.10318 0.441643,0.10318 0.283545,0 0.443359,-0.10318 0.158098,-0.10318 0.158098,-0.28374 0,-0.18228 -0.158098,-0.28546 -0.159814,-0.10318 -0.443359,-0.10318 -0.283545,0 -0.441643,0.10318 -0.159816,0.10318 -0.159816,0.28546 z m 0.601459,0.89078 q -0.465702,0 -0.737216,-0.24075 -0.273235,-0.24247 -0.273235,-0.65003 0,-0.40928 0.273235,-0.65003 0.271514,-0.24247 0.737216,-0.24247 0.4657,0 0.738935,0.24247 0.271514,0.24075 0.271514,0.65003 0,0.40756 -0.271514,0.65003 -0.273235,0.24075 -0.738935,0.24075 z"
       id="path20694"
       style="font-style:normal;font-variant:normal;font-weight:bold;font-stretch:normal;font-size:13.33333302px;line-height:1.25;font-family:monospace;-inkscape-font-specification:'monospace Bold';letter-spacing:0px;word-spacing:0px;fill:#00aeee;fill-opacity:1;stroke:none;stroke-width:0.26404655" />
    <path
       d="m 52.884683,239.98719 h -1.02248 v -0.50214 h 2.673913 v 0.50214 h -0.285264 q 0.16669,0.0808 0.250894,0.20979 0.0842,0.12726 0.0842,0.30094 0,0.33018 -0.26464,0.51246 -0.264644,0.18228 -0.745809,0.18228 -0.488041,0 -0.749245,-0.184 -0.261206,-0.18572 -0.261206,-0.52793 0,-0.15477 0.08077,-0.27687 0.07905,-0.12381 0.238866,-0.21667 z m 0.694255,0.70162 q 0.27839,0 0.436485,-0.0929 0.158099,-0.0929 0.158099,-0.25623 0,-0.16337 -0.158099,-0.25795 -0.158095,-0.0946 -0.436485,-0.0946 -0.27839,0 -0.436488,0.0946 -0.158098,0.0946 -0.158098,0.25795 0,0.16337 0.158098,0.25623 0.158098,0.0929 0.436488,0.0929 z"
       id="path20696"
       style="font-style:normal;font-variant:normal;font-weight:bold;font-stretch:normal;font-size:13.33333302px;line-height:1.25;font-family:monospace;-inkscape-font-specification:'monospace Bold';letter-spacing:0px;word-spacing:0px;fill:#00aeee;fill-opacity:1;stroke:none;stroke-width:0.26404655" />
    <path
       d="m 54.441602,237.33204 q 0.07217,0.17541 0.10826,0.35769 0.03609,0.18228 0.03609,0.3852 0,0.48322 -0.257767,0.73946 -0.259486,0.2545 -0.745808,0.2545 -0.470858,0 -0.74409,-0.24591 -0.273235,-0.24591 -0.273235,-0.67066 0,-0.4282 0.25433,-0.66379 0.252613,-0.23731 0.71316,-0.23731 h 0.204496 v 1.30521 q 0.226834,-0.002 0.338535,-0.13413 0.1117,-0.13241 0.1117,-0.39552 0,-0.17368 -0.04984,-0.34221 -0.04983,-0.16852 -0.158098,-0.35253 z m -1.082628,0.42648 q -0.199338,0.003 -0.300728,0.10318 -0.103106,0.098 -0.103106,0.29062 0,0.17368 0.106543,0.27686 0.104826,0.10318 0.29901,0.1221 z"
       id="path20698"
       style="font-style:normal;font-variant:normal;font-weight:bold;font-stretch:normal;font-size:13.33333302px;line-height:1.25;font-family:monospace;-inkscape-font-specification:'monospace Bold';letter-spacing:0px;word-spacing:0px;fill:#00aeee;fill-opacity:1;stroke:none;stroke-width:0.26404655" />
    <path
       d="m 53.286801,235.26502 h 1.249315 v 0.50042 h -1.171984 q -0.209654,0 -0.299013,0.0602 -0.09108,0.0585 -0.09108,0.1926 0,0.13585 0.12201,0.21495 0.12201,0.0774 0.338535,0.0774 h 1.101529 v 0.50042 h -1.924668 v -0.50042 h 0.2887 q -0.159817,-0.0533 -0.247457,-0.18229 -0.08764,-0.12897 -0.08764,-0.31125 0,-0.27343 0.182157,-0.41272 0.180437,-0.13929 0.539594,-0.13929 z"
       id="path20700"
       style="font-style:normal;font-variant:normal;font-weight:bold;font-stretch:normal;font-size:13.33333302px;line-height:1.25;font-family:monospace;-inkscape-font-specification:'monospace Bold';letter-spacing:0px;word-spacing:0px;fill:#00aeee;fill-opacity:1;stroke:none;stroke-width:0.26404655" />
    <path
       d="m 54.264599,234.22635 h 1.003578 v 0.50214 h -2.656729 v -0.50214 h 0.2887 q -0.16669,-0.0791 -0.250894,-0.20808 -0.0842,-0.12898 -0.0842,-0.30266 0,-0.33017 0.264643,-0.51246 0.264641,-0.18228 0.745808,-0.18228 0.488041,0 0.749245,0.18572 0.261204,0.184 0.261204,0.52622 0,0.15476 -0.07905,0.27858 -0.08077,0.1221 -0.242302,0.21496 z m -0.692534,-0.70162 q -0.27839,0 -0.436488,0.0929 -0.158099,0.0929 -0.158099,0.25623 0,0.16336 0.158099,0.25795 0.158098,0.0946 0.436488,0.0946 0.278387,0 0.436485,-0.0946 0.158098,-0.0946 0.158098,-0.25795 0,-0.16337 -0.158098,-0.25623 -0.158098,-0.0929 -0.436485,-0.0929 z"
       id="path20702"
       style="font-style:normal;font-variant:normal;font-weight:bold;font-stretch:normal;font-size:13.33333302px;line-height:1.25;font-family:monospace;-inkscape-font-specification:'monospace Bold';letter-spacing:0px;word-spacing:0px;fill:#00aeee;fill-opacity:1;stroke:none;stroke-width:0.26404655" />
    <path
       d="m 53.733599,232.20059 h -1.484743 v 0.51074 h -0.386653 v -1.01459 h 1.871396 q 0.226835,0 0.321349,-0.0705 0.09452,-0.0705 0.09452,-0.23903 v -0.4024 h 0.386651 v 0.54341 q 0,0.35941 -0.185595,0.5159 -0.185591,0.15648 -0.616922,0.15648 z"
       id="path20704"
       style="font-style:normal;font-variant:normal;font-weight:bold;font-stretch:normal;font-size:13.33333302px;line-height:1.25;font-family:monospace;-inkscape-font-specification:'monospace Bold';letter-spacing:0px;word-spacing:0px;fill:#00aeee;fill-opacity:1;stroke:none;stroke-width:0.26404655" />
    <path
       d="m 53.632209,229.54201 q 0,0.28202 0.07218,0.3938 0.07218,0.11178 0.247457,0.11178 0.130602,0 0.207933,-0.0774 0.07733,-0.0774 0.07733,-0.2098 0,-0.19948 -0.149506,-0.30953 -0.151225,-0.11006 -0.42102,-0.11006 h -0.03437 z m -0.194186,-0.70162 h 1.098093 v 0.50042 H 54.32131 q 0.127165,0.0911 0.195904,0.23388 0.06874,0.14272 0.06874,0.31469 0,0.32845 -0.173563,0.51246 -0.173563,0.18228 -0.484604,0.18228 -0.336817,0 -0.496633,-0.2184 -0.161535,-0.21839 -0.161535,-0.67582 v -0.34909 h -0.0842 q -0.12201,0 -0.183873,0.0894 -0.06358,0.0877 -0.06358,0.25967 0,0.18056 0.0464,0.35081 0.04468,0.16853 0.144351,0.35253 h -0.429614 q -0.06874,-0.16681 -0.101388,-0.33878 -0.03265,-0.17196 -0.03265,-0.36456 0,-0.46947 0.190749,-0.65863 0.190747,-0.19088 0.682224,-0.19088 z"
       id="path20706"
       style="font-style:normal;font-variant:normal;font-weight:bold;font-stretch:normal;font-size:13.33333302px;line-height:1.25;font-family:monospace;-inkscape-font-specification:'monospace Bold';letter-spacing:0px;word-spacing:0px;fill:#00aeee;fill-opacity:1;stroke:none;stroke-width:0.26404655" />
    <path
       d="m 52.06498,227.43887 h 0.546468 v -0.65862 h 0.386653 v 0.65862 h 0.91078 q 0.128884,0 0.185591,-0.0619 0.05499,-0.0636 0.05499,-0.2098 v -0.38692 h 0.386651 v 0.42303 q 0,0.43335 -0.137476,0.5864 -0.139196,0.15305 -0.513819,0.15305 h -0.88672 v 0.49182 h -0.386653 v -0.49182 h -0.546468 z"
       id="path20708"
       style="font-style:normal;font-variant:normal;font-weight:bold;font-stretch:normal;font-size:13.33333302px;line-height:1.25;font-family:monospace;-inkscape-font-specification:'monospace Bold';letter-spacing:0px;word-spacing:0px;fill:#00aeee;fill-opacity:1;stroke:none;stroke-width:0.26404655" />
    <path
       d="m 52.06498,225.31854 h 0.546468 v -0.65863 h 0.386653 v 0.65863 h 0.91078 q 0.128884,0 0.185591,-0.0619 0.05499,-0.0636 0.05499,-0.2098 v -0.38692 h 0.386651 v 0.42304 q 0,0.43335 -0.137476,0.5864 -0.139196,0.15305 -0.513819,0.15305 h -0.88672 v 0.49182 h -0.386653 v -0.49182 h -0.546468 z"
       id="path20710"
       style="font-style:normal;font-variant:normal;font-weight:bold;font-stretch:normal;font-size:13.33333302px;line-height:1.25;font-family:monospace;-inkscape-font-specification:'monospace Bold';letter-spacing:0px;word-spacing:0px;fill:#00aeee;fill-opacity:1;stroke:none;stroke-width:0.26404655" />
    <path
       d="m 54.441602,222.48971 q 0.07217,0.1754 0.10826,0.35769 0.03609,0.18228 0.03609,0.3852 0,0.48322 -0.257767,0.73945 -0.259486,0.25451 -0.745808,0.25451 -0.470858,0 -0.74409,-0.24591 -0.273235,-0.24591 -0.273235,-0.67067 0,-0.42819 0.25433,-0.66378 0.252613,-0.23731 0.71316,-0.23731 h 0.204496 v 1.30521 q 0.226834,-0.002 0.338535,-0.13413 0.1117,-0.13241 0.1117,-0.39552 0,-0.17369 -0.04984,-0.34221 -0.04983,-0.16853 -0.158098,-0.35253 z m -1.082628,0.42647 q -0.199338,0.003 -0.300728,0.10318 -0.103106,0.098 -0.103106,0.29062 0,0.17369 0.106543,0.27687 0.104826,0.10318 0.29901,0.12209 z"
       id="path20712"
       style="font-style:normal;font-variant:normal;font-weight:bold;font-stretch:normal;font-size:13.33333302px;line-height:1.25;font-family:monospace;-inkscape-font-specification:'monospace Bold';letter-spacing:0px;word-spacing:0px;fill:#00aeee;fill-opacity:1;stroke:none;stroke-width:0.26404655" />
    <path
       d="m 54.536116,219.75718 h -2.56565 v -0.5073 h 2.118852 v -1.0851 h 0.446798 z"
       id="path20714"
       style="font-style:normal;font-variant:normal;font-weight:bold;font-stretch:normal;font-size:13.33333302px;line-height:1.25;font-family:monospace;-inkscape-font-specification:'monospace Bold';letter-spacing:0px;word-spacing:0px;fill:#00aeee;fill-opacity:1;stroke:none;stroke-width:0.26404655" />
    <path
       d="m 53.632209,216.82001 q 0,0.28203 0.07218,0.3938 0.07218,0.11178 0.247457,0.11178 0.130602,0 0.207933,-0.0774 0.07733,-0.0774 0.07733,-0.2098 0,-0.19948 -0.149506,-0.30954 -0.151225,-0.11006 -0.42102,-0.11006 h -0.03437 z m -0.194186,-0.70162 h 1.098093 v 0.50042 H 54.32131 q 0.127165,0.0911 0.195904,0.23388 0.06874,0.14272 0.06874,0.31469 0,0.32845 -0.173563,0.51246 -0.173563,0.18228 -0.484604,0.18228 -0.336817,0 -0.496633,-0.21839 -0.161535,-0.2184 -0.161535,-0.67583 v -0.34909 h -0.0842 q -0.12201,0 -0.183873,0.0894 -0.06358,0.0877 -0.06358,0.25967 0,0.18057 0.0464,0.35081 0.04468,0.16853 0.144351,0.35253 h -0.429614 q -0.06874,-0.16681 -0.101388,-0.33877 -0.03265,-0.17197 -0.03265,-0.36457 0,-0.46947 0.190749,-0.65863 0.190747,-0.19088 0.682224,-0.19088 z"
       id="path20716"
       style="font-style:normal;font-variant:normal;font-weight:bold;font-stretch:normal;font-size:13.33333302px;line-height:1.25;font-family:monospace;-inkscape-font-specification:'monospace Bold';letter-spacing:0px;word-spacing:0px;fill:#00aeee;fill-opacity:1;stroke:none;stroke-width:0.26404655" />
    <path
       d="m 54.744048,214.68076 q 0.271517,0.10146 0.395246,0.24419 0.125446,0.14101 0.125446,0.34393 v 0.41616 h -0.383216 v -0.20464 q 0,-0.15477 -0.05327,-0.22699 -0.05155,-0.0722 -0.242302,-0.14618 l -0.103106,-0.0378 -1.871396,0.73257 v -0.52965 l 1.249317,-0.44023 -1.249317,-0.42132 v -0.52965 z"
       id="path20718"
       style="font-style:normal;font-variant:normal;font-weight:bold;font-stretch:normal;font-size:13.33333302px;line-height:1.25;font-family:monospace;-inkscape-font-specification:'monospace Bold';letter-spacing:0px;word-spacing:0px;fill:#00aeee;fill-opacity:1;stroke:none;stroke-width:0.26404655" />
    <path
       d="m 54.441602,211.88804 q 0.07217,0.17541 0.10826,0.35769 0.03609,0.18228 0.03609,0.3852 0,0.48323 -0.257767,0.73945 -0.259486,0.25451 -0.745808,0.25451 -0.470858,0 -0.74409,-0.24591 -0.273235,-0.24591 -0.273235,-0.67066 0,-0.4282 0.25433,-0.66379 0.252613,-0.23731 0.71316,-0.23731 h 0.204496 v 1.30522 q 0.226834,-0.002 0.338535,-0.13414 0.1117,-0.13241 0.1117,-0.39552 0,-0.17368 -0.04984,-0.34221 -0.04983,-0.16852 -0.158098,-0.35253 z m -1.082628,0.42648 q -0.199338,0.003 -0.300728,0.10318 -0.103106,0.098 -0.103106,0.29062 0,0.17368 0.106543,0.27686 0.104826,0.10318 0.29901,0.1221 z"
       id="path20720"
       style="font-style:normal;font-variant:normal;font-weight:bold;font-stretch:normal;font-size:13.33333302px;line-height:1.25;font-family:monospace;-inkscape-font-specification:'monospace Bold';letter-spacing:0px;word-spacing:0px;fill:#00aeee;fill-opacity:1;stroke:none;stroke-width:0.26404655" />
    <path
       d="m 53.14245,209.68345 q -0.07561,0.0825 -0.113419,0.19432 -0.0378,0.11005 -0.0378,0.24247 0,0.15993 0.05671,0.2803 0.05499,0.11866 0.161535,0.18401 0.0653,0.0413 0.158098,0.0585 0.09279,0.0155 0.281824,0.0155 h 0.886723 v 0.50386 h -1.924668 v -0.50386 h 0.299012 q -0.164971,-0.0739 -0.254333,-0.22699 -0.09108,-0.15305 -0.09108,-0.35769 0,-0.10318 0.02579,-0.2012 0.02405,-0.0997 0.07218,-0.18916 z"
       id="path20722"
       style="font-style:normal;font-variant:normal;font-weight:bold;font-stretch:normal;font-size:13.33333302px;line-height:1.25;font-family:monospace;-inkscape-font-specification:'monospace Bold';letter-spacing:0px;word-spacing:0px;fill:#00aeee;fill-opacity:1;stroke:none;stroke-width:0.26404655" />
    <path
       d="m 53.388189,206.47801 v 0.27171 h -0.446798 v -0.27171 q 0,-0.18916 -0.07389,-0.29234 -0.07561,-0.1049 -0.211372,-0.1049 -0.14263,0 -0.221679,0.1049 -0.08077,0.10318 -0.08077,0.29234 0,0.14445 0.03609,0.30954 0.03609,0.16509 0.104825,0.34221 H 52.03405 q -0.05327,-0.17712 -0.08077,-0.34909 -0.02921,-0.17196 -0.02921,-0.33017 0,-0.40584 0.177,-0.63283 0.177,-0.227 0.488041,-0.227 0.228553,0 0.374623,0.1307 0.144348,0.13069 0.189028,0.37316 0.04812,-0.27514 0.219964,-0.41959 0.170126,-0.14446 0.448516,-0.14446 0.372904,0 0.568806,0.23903 0.195904,0.23904 0.195904,0.69475 0,0.19432 -0.03265,0.38348 -0.03265,0.18744 -0.09451,0.35941 h -0.470855 q 0.08077,-0.16165 0.123729,-0.34909 0.04124,-0.18745 0.04124,-0.3938 0,-0.20636 -0.09452,-0.32674 -0.09623,-0.12037 -0.257767,-0.12037 -0.197623,0 -0.304166,0.12037 -0.108263,0.12038 -0.108264,0.34049 z"
       id="path20724"
       style="font-style:normal;font-variant:normal;font-weight:bold;font-stretch:normal;font-size:13.33333302px;line-height:1.25;font-family:monospace;-inkscape-font-specification:'monospace Bold';letter-spacing:0px;word-spacing:0px;fill:#00aeee;fill-opacity:1;stroke:none;stroke-width:0.26404655" />
    <path
       d="m 53.41053,202.30441 q -0.14607,0.38348 -0.305886,0.51934 -0.161535,0.13585 -0.433049,0.13585 -0.348847,0 -0.548188,-0.22355 -0.199339,-0.22356 -0.199339,-0.61392 0,-0.17713 0.04124,-0.35425 0.03953,-0.17712 0.118574,-0.35081 h 0.494914 q -0.115137,0.16337 -0.175284,0.3319 -0.06014,0.16852 -0.06014,0.33361 0,0.184 0.07389,0.28202 0.07389,0.098 0.21137,0.098 0.106542,0 0.177,-0.0705 0.06874,-0.0722 0.152943,-0.29922 l 0.08249,-0.2184 q 0.113415,-0.30954 0.300728,-0.45571 0.187312,-0.14617 0.472573,-0.14617 0.388372,0 0.58084,0.23044 0.190746,0.22871 0.190746,0.69301 0,0.19089 -0.0464,0.38349 -0.04468,0.19088 -0.134038,0.36972 h -0.524129 q 0.144351,-0.20292 0.214806,-0.39208 0.07046,-0.19088 0.07046,-0.3766 0,-0.18744 -0.0842,-0.29062 -0.08592,-0.10318 -0.238865,-0.10318 -0.115137,0 -0.20106,0.0688 -0.08764,0.0688 -0.137475,0.19948 z"
       id="path20726"
       style="font-style:normal;font-variant:normal;font-weight:bold;font-stretch:normal;font-size:13.33333302px;line-height:1.25;font-family:monospace;-inkscape-font-specification:'monospace Bold';letter-spacing:0px;word-spacing:0px;fill:#00aeee;fill-opacity:1;stroke:none;stroke-width:0.26404655" />
    <path
       d="m 52.611448,200.68106 v -0.9974 h 1.538017 v -0.62596 h 0.386651 v 1.75749 h -0.386651 v -0.62767 h -1.151364 v 0.49354 z m -0.936555,-0.49354 v -0.50386 h 0.58771 v 0.50386 z"
       id="path20728"
       style="font-style:normal;font-variant:normal;font-weight:bold;font-stretch:normal;font-size:13.33333302px;line-height:1.25;font-family:monospace;-inkscape-font-specification:'monospace Bold';letter-spacing:0px;word-spacing:0px;fill:#00aeee;fill-opacity:1;stroke:none;stroke-width:0.26404655" />
    <path
       d="m 54.441602,197.04571 q 0.07217,0.17541 0.10826,0.35769 0.03609,0.18228 0.03609,0.3852 0,0.48322 -0.257767,0.73945 -0.259486,0.25451 -0.745808,0.25451 -0.470858,0 -0.74409,-0.24591 -0.273235,-0.24591 -0.273235,-0.67066 0,-0.4282 0.25433,-0.66379 0.252613,-0.23731 0.71316,-0.23731 h 0.204496 v 1.30521 q 0.226834,-0.002 0.338535,-0.13413 0.1117,-0.13241 0.1117,-0.39552 0,-0.17368 -0.04984,-0.34221 -0.04983,-0.16853 -0.158098,-0.35253 z m -1.082628,0.42648 q -0.199338,0.003 -0.300728,0.10317 -0.103106,0.098 -0.103106,0.29063 0,0.17368 0.106543,0.27686 0.104826,0.10318 0.29901,0.1221 z"
       id="path20730"
       style="font-style:normal;font-variant:normal;font-weight:bold;font-stretch:normal;font-size:13.33333302px;line-height:1.25;font-family:monospace;-inkscape-font-specification:'monospace Bold';letter-spacing:0px;word-spacing:0px;fill:#00aeee;fill-opacity:1;stroke:none;stroke-width:0.26404655" />
    <path
       d="m 52.884683,195.46019 h -1.02248 v -0.50214 h 2.673913 v 0.50214 h -0.285264 q 0.16669,0.0808 0.250894,0.2098 0.0842,0.12725 0.0842,0.30094 0,0.33017 -0.26464,0.51246 -0.264644,0.18228 -0.745809,0.18228 -0.488041,0 -0.749245,-0.184 -0.261206,-0.18573 -0.261206,-0.52794 0,-0.15477 0.08077,-0.27686 0.07905,-0.12382 0.238866,-0.21668 z m 0.694255,0.70162 q 0.27839,0 0.436485,-0.0929 0.158099,-0.0929 0.158099,-0.25623 0,-0.16337 -0.158099,-0.25795 -0.158095,-0.0946 -0.436485,-0.0946 -0.27839,0 -0.436488,0.0946 -0.158098,0.0946 -0.158098,0.25795 0,0.16337 0.158098,0.25623 0.158098,0.0929 0.436488,0.0929 z"
       id="path20732"
       style="font-style:normal;font-variant:normal;font-weight:bold;font-stretch:normal;font-size:13.33333302px;line-height:1.25;font-family:monospace;-inkscape-font-specification:'monospace Bold';letter-spacing:0px;word-spacing:0px;fill:#00aeee;fill-opacity:1;stroke:none;stroke-width:0.26404655" />
    <path
       d="m 53.733599,194.0346 h -1.484743 v 0.51073 h -0.386653 v -1.01459 h 1.871396 q 0.226835,0 0.321349,-0.0705 0.09452,-0.0705 0.09452,-0.23904 v -0.4024 h 0.386651 v 0.54341 q 0,0.35941 -0.185595,0.5159 -0.185591,0.15649 -0.616922,0.15649 z"
       id="path20734"
       style="font-style:normal;font-variant:normal;font-weight:bold;font-stretch:normal;font-size:13.33333302px;line-height:1.25;font-family:monospace;-inkscape-font-specification:'monospace Bold';letter-spacing:0px;word-spacing:0px;fill:#00aeee;fill-opacity:1;stroke:none;stroke-width:0.26404655" />
    <path
       d="m 54.441602,190.68471 q 0.07217,0.17541 0.10826,0.35769 0.03609,0.18228 0.03609,0.3852 0,0.48322 -0.257767,0.73945 -0.259486,0.25451 -0.745808,0.25451 -0.470858,0 -0.74409,-0.24591 -0.273235,-0.24591 -0.273235,-0.67066 0,-0.4282 0.25433,-0.66379 0.252613,-0.23731 0.71316,-0.23731 h 0.204496 v 1.30521 q 0.226834,-0.002 0.338535,-0.13413 0.1117,-0.13241 0.1117,-0.39552 0,-0.17368 -0.04984,-0.34221 -0.04983,-0.16852 -0.158098,-0.35253 z m -1.082628,0.42648 q -0.199338,0.003 -0.300728,0.10317 -0.103106,0.098 -0.103106,0.29063 0,0.17368 0.106543,0.27686 0.104826,0.10318 0.29901,0.1221 z"
       id="path20736"
       style="font-style:normal;font-variant:normal;font-weight:bold;font-stretch:normal;font-size:13.33333302px;line-height:1.25;font-family:monospace;-inkscape-font-specification:'monospace Bold';letter-spacing:0px;word-spacing:0px;fill:#00aeee;fill-opacity:1;stroke:none;stroke-width:0.26404655" />
    <path
       d="m 51.970466,188.13447 v -0.54513 l 1.864521,-0.71538 h -1.864521 v -0.44711 h 2.56565 v 0.54169 l -1.864521,0.71881 h 1.864521 v 0.44712 z"
       id="path20738"
       style="font-style:normal;font-variant:normal;font-weight:bold;font-stretch:normal;font-size:13.33333302px;line-height:1.25;font-family:monospace;-inkscape-font-specification:'monospace Bold';letter-spacing:0px;word-spacing:0px;fill:#00aeee;fill-opacity:1;stroke:none;stroke-width:0.26404655" />
    <path
       d="m 52.974042,185.15946 q 0,0.18057 0.159816,0.28375 0.158098,0.10318 0.441643,0.10318 0.283545,0 0.443359,-0.10318 0.158098,-0.10318 0.158098,-0.28375 0,-0.18228 -0.158098,-0.28546 -0.159814,-0.10318 -0.443359,-0.10318 -0.283545,0 -0.441643,0.10318 -0.159816,0.10318 -0.159816,0.28546 z m 0.601459,0.89079 q -0.465702,0 -0.737216,-0.24076 -0.273235,-0.24247 -0.273235,-0.65003 0,-0.40927 0.273235,-0.65002 0.271514,-0.24248 0.737216,-0.24248 0.4657,0 0.738935,0.24248 0.271514,0.24075 0.271514,0.65002 0,0.40756 -0.271514,0.65003 -0.273235,0.24076 -0.738935,0.24076 z"
       id="path20740"
       style="font-style:normal;font-variant:normal;font-weight:bold;font-stretch:normal;font-size:13.33333302px;line-height:1.25;font-family:monospace;-inkscape-font-specification:'monospace Bold';letter-spacing:0px;word-spacing:0px;fill:#00aeee;fill-opacity:1;stroke:none;stroke-width:0.26404655" />
    <path
       d="m 52.434448,183.03913 1.049973,0.23903 v -0.47978 z m -0.463982,0.30954 v -0.62079 l 2.56565,-0.69303 v 0.5073 l -0.634108,0.15821 v 0.67926 l 0.634108,0.15477 v 0.5073 z"
       id="path20742"
       style="font-style:normal;font-variant:normal;font-weight:bold;font-stretch:normal;font-size:13.33333302px;line-height:1.25;font-family:monospace;-inkscape-font-specification:'monospace Bold';letter-spacing:0px;word-spacing:0px;fill:#00aeee;fill-opacity:1;stroke:none;stroke-width:0.26404655" />
    <path
       d="m 52.803915,180.79154 q -0.12201,-0.0567 -0.180436,-0.14445 -0.05843,-0.0877 -0.05843,-0.21495 0,-0.24936 0.171845,-0.34393 0.171847,-0.0963 0.714878,-0.0963 h 1.084343 v 0.41272 h -1.235568 q -0.214806,0 -0.286982,0.0327 -0.07218,0.0327 -0.07218,0.11865 0,0.086 0.07389,0.12038 0.07389,0.0344 0.285263,0.0344 h 1.235568 v 0.40756 h -1.235568 q -0.211369,0 -0.285263,0.0344 -0.07389,0.0344 -0.07389,0.12038 0,0.086 0.07218,0.11865 0.07218,0.0327 0.286982,0.0327 h 1.235568 v 0.41271 h -1.924668 v -0.36628 h 0.199341 q -0.113419,-0.043 -0.178719,-0.13757 -0.06702,-0.0946 -0.06702,-0.21152 0,-0.11694 0.07046,-0.21324 0.06874,-0.0963 0.168408,-0.11694 z"
       id="path20744"
       style="font-style:normal;font-variant:normal;font-weight:bold;font-stretch:normal;font-size:13.33333302px;line-height:1.25;font-family:monospace;-inkscape-font-specification:'monospace Bold';letter-spacing:0px;word-spacing:0px;fill:#00aeee;fill-opacity:1;stroke:none;stroke-width:0.26404655" />
    <path
       d="m 54.264599,179.09769 h 1.003578 v 0.50213 h -2.656729 v -0.50213 h 0.2887 q -0.16669,-0.0791 -0.250894,-0.20808 -0.0842,-0.12898 -0.0842,-0.30266 0,-0.33018 0.264643,-0.51246 0.264641,-0.18228 0.745808,-0.18228 0.488041,0 0.749245,0.18572 0.261204,0.184 0.261204,0.52621 0,0.15477 -0.07905,0.27859 -0.08077,0.1221 -0.242302,0.21496 z m -0.692534,-0.70162 q -0.27839,0 -0.436488,0.0929 -0.158099,0.0929 -0.158099,0.25623 0,0.16336 0.158099,0.25794 0.158098,0.0946 0.436488,0.0946 0.278387,0 0.436485,-0.0946 0.158098,-0.0946 0.158098,-0.25794 0,-0.16337 -0.158098,-0.25623 -0.158098,-0.0929 -0.436485,-0.0929 z"
       id="path20746"
       style="font-style:normal;font-variant:normal;font-weight:bold;font-stretch:normal;font-size:13.33333302px;line-height:1.25;font-family:monospace;-inkscape-font-specification:'monospace Bold';letter-spacing:0px;word-spacing:0px;fill:#00aeee;fill-opacity:1;stroke:none;stroke-width:0.26404655" />
    <path
       id="path561-9-1"
       style="clip-rule:evenodd;fill:none;fill-rule:nonzero;stroke:#ea0088;stroke-width:0.35205615;stroke-miterlimit:10;stroke-opacity:1"
       d="m 69.072895,52.322895 c 0.550775,0 0.99773,-0.446915 0.99773,-0.998076 0,-0.551513 -0.446955,-0.998429 -0.99773,-0.998429 -0.550775,0 -0.997376,0.446916 -0.997376,0.998429 0,0.551161 0.446601,0.998076 0.997376,0.998076" />
    <path
       id="path565-7-5"
       style="clip-rule:evenodd;fill:none;fill-rule:nonzero;stroke:#000000;stroke-width:0.23754883px;stroke-miterlimit:10;stroke-opacity:1"
       d="m 68.03948,51.324893 h 2.111632" />
    <path
       id="path569-2-4"
       style="clip-rule:evenodd;fill:none;fill-rule:nonzero;stroke:#000000;stroke-width:0.23754881px;stroke-miterlimit:10;stroke-opacity:1"
       d="M 69.073241,52.366734 V 50.253621" />
    <path
       id="path561-9-1-2"
       style="clip-rule:evenodd;fill:none;fill-rule:nonzero;stroke:#ea0088;stroke-width:0.35205615;stroke-miterlimit:10;stroke-opacity:1"
       d="m 168.83519,52.322893 c 0.55077,0 0.99773,-0.446916 0.99773,-0.998077 0,-0.551513 -0.44696,-0.998429 -0.99773,-0.998429 -0.55078,0 -0.99738,0.446916 -0.99738,0.998429 0,0.551161 0.4466,0.998077 0.99738,0.998077" />
    <path
       id="path565-7-5-3"
       style="clip-rule:evenodd;fill:none;fill-rule:nonzero;stroke:#000000;stroke-width:0.23754883px;stroke-miterlimit:10;stroke-opacity:1"
       d="m 167.80177,51.324889 h 2.11164" />
    <path
       id="path569-2-4-0"
       style="clip-rule:evenodd;fill:none;fill-rule:nonzero;stroke:#000000;stroke-width:0.23754881px;stroke-miterlimit:10;stroke-opacity:1"
       d="M 168.83554,52.366732 V 50.253619" />
    <path
       id="path561-9-1-81"
       style="clip-rule:evenodd;fill:none;fill-rule:nonzero;stroke:#ea0088;stroke-width:0.35203058;stroke-miterlimit:10;stroke-opacity:1"
       d="m 58.963055,52.271655 c 0.550727,0 0.997643,-0.446889 0.997643,-0.998017 0,-0.551479 -0.446916,-0.998368 -0.997643,-0.998368 -0.550728,0 -0.997294,0.446889 -0.997294,0.998368 0,0.551128 0.446566,0.998017 0.997294,0.998017" />
    <path
       id="path565-7-5-39"
       style="clip-rule:evenodd;fill:none;fill-rule:nonzero;stroke:#000000;stroke-width:0.23753151px;stroke-miterlimit:10;stroke-opacity:1"
       d="m 57.929825,51.273744 h 2.111452" />
    <path
       id="path569-2-4-8"
       style="clip-rule:evenodd;fill:none;fill-rule:nonzero;stroke:#000000;stroke-width:0.23753138px;stroke-miterlimit:10;stroke-opacity:1"
       d="M 58.963539,52.31559 V 50.202607" />
    <path
       id="path561-9-1-3"
       style="clip-rule:evenodd;fill:none;fill-rule:nonzero;stroke:#ea0088;stroke-width:0.35203058;stroke-miterlimit:10;stroke-opacity:1"
       d="m 158.71678,52.271655 c 0.55073,0 0.99764,-0.446889 0.99764,-0.998017 0,-0.551479 -0.44691,-0.998368 -0.99764,-0.998368 -0.55073,0 -0.9973,0.446889 -0.9973,0.998368 0,0.551128 0.44657,0.998017 0.9973,0.998017" />
    <path
       id="path565-7-5-6-8"
       style="clip-rule:evenodd;fill:none;fill-rule:nonzero;stroke:#000000;stroke-width:0.23753151px;stroke-miterlimit:10;stroke-opacity:1"
       d="M 157.68355,51.273744 H 159.795" />
    <path
       id="path569-2-4-2"
       style="clip-rule:evenodd;fill:none;fill-rule:nonzero;stroke:#000000;stroke-width:0.23753138px;stroke-miterlimit:10;stroke-opacity:1"
       d="M 158.71726,52.31559 V 50.202607" />
    <path
       id="path561-9-1-27"
       style="clip-rule:evenodd;fill:none;fill-rule:nonzero;stroke:#ea0088;stroke-width:0.35205615;stroke-miterlimit:10;stroke-opacity:1"
       d="m 69.072895,246.98433 c 0.550775,0 0.99773,-0.44691 0.99773,-0.99807 0,-0.55152 -0.446955,-0.99843 -0.99773,-0.99843 -0.550773,0 -0.997376,0.44691 -0.997376,0.99843 0,0.55116 0.446603,0.99807 0.997376,0.99807" />
    <path
       id="path565-7-5-0"
       style="clip-rule:evenodd;fill:none;fill-rule:nonzero;stroke:#000000;stroke-width:0.23754881px;stroke-miterlimit:10;stroke-opacity:1"
       d="m 68.03948,245.98633 h 2.111632" />
    <path
       id="path569-2-4-9"
       style="clip-rule:evenodd;fill:none;fill-rule:nonzero;stroke:#000000;stroke-width:0.23754881px;stroke-miterlimit:10;stroke-opacity:1"
       d="m 69.073241,247.02817 v -2.11311" />
    <path
       id="path561-9-1-2-3"
       style="clip-rule:evenodd;fill:none;fill-rule:nonzero;stroke:#ea0088;stroke-width:0.35205615;stroke-miterlimit:10;stroke-opacity:1"
       d="m 168.83519,246.98433 c 0.55077,0 0.99773,-0.44691 0.99773,-0.99807 0,-0.55152 -0.44696,-0.99843 -0.99773,-0.99843 -0.55078,0 -0.99738,0.44691 -0.99738,0.99843 0,0.55116 0.4466,0.99807 0.99738,0.99807" />
    <path
       id="path565-7-5-3-6"
       style="clip-rule:evenodd;fill:none;fill-rule:nonzero;stroke:#000000;stroke-width:0.23754881px;stroke-miterlimit:10;stroke-opacity:1"
       d="m 167.80177,245.98633 h 2.11164" />
    <path
       id="path569-2-4-0-06"
       style="clip-rule:evenodd;fill:none;fill-rule:nonzero;stroke:#000000;stroke-width:0.23754881px;stroke-miterlimit:10;stroke-opacity:1"
       d="m 168.83554,247.02817 v -2.11311" />
    <path
       id="path561-9-1-81-2"
       style="clip-rule:evenodd;fill:none;fill-rule:nonzero;stroke:#ea0088;stroke-width:0.35203058;stroke-miterlimit:10;stroke-opacity:1"
       d="m 58.963055,246.93309 c 0.550727,0 0.997643,-0.44689 0.997643,-0.99801 0,-0.55148 -0.446916,-0.99837 -0.997643,-0.99837 -0.550731,0 -0.997294,0.44689 -0.997294,0.99837 0,0.55112 0.446563,0.99801 0.997294,0.99801" />
    <path
       id="path565-7-5-39-6"
       style="clip-rule:evenodd;fill:none;fill-rule:nonzero;stroke:#000000;stroke-width:0.23753151px;stroke-miterlimit:10;stroke-opacity:1"
       d="m 57.929825,245.93518 h 2.111452" />
    <path
       id="path569-2-4-8-1"
       style="clip-rule:evenodd;fill:none;fill-rule:nonzero;stroke:#000000;stroke-width:0.23753138px;stroke-miterlimit:10;stroke-opacity:1"
       d="m 58.963536,246.97703 v -2.11298" />
    <path
       id="path561-9-1-3-8"
       style="clip-rule:evenodd;fill:none;fill-rule:nonzero;stroke:#ea0088;stroke-width:0.35203058;stroke-miterlimit:10;stroke-opacity:1"
       d="m 158.71678,246.93309 c 0.55072,0 0.99764,-0.44689 0.99764,-0.99801 0,-0.55148 -0.44692,-0.99837 -0.99764,-0.99837 -0.55073,0 -0.9973,0.44689 -0.9973,0.99837 0,0.55112 0.44657,0.99801 0.9973,0.99801" />
    <path
       id="path565-7-5-6-8-7"
       style="clip-rule:evenodd;fill:none;fill-rule:nonzero;stroke:#000000;stroke-width:0.23753151px;stroke-miterlimit:10;stroke-opacity:1"
       d="M 157.68355,245.93518 H 159.795" />
    <path
       id="path569-2-4-2-9"
       style="clip-rule:evenodd;fill:none;fill-rule:nonzero;stroke:#000000;stroke-width:0.23753138px;stroke-miterlimit:10;stroke-opacity:1"
       d="m 158.71726,246.97703 v -2.11298" />
  </g>
</svg>
