<?xml version="1.0" encoding="UTF-8" standalone="no"?>
<svg
   xmlns:dc="http://purl.org/dc/elements/1.1/"
   xmlns:cc="http://creativecommons.org/ns#"
   xmlns:rdf="http://www.w3.org/1999/02/22-rdf-syntax-ns#"
   xmlns:svg="http://www.w3.org/2000/svg"
   xmlns="http://www.w3.org/2000/svg"
   width="210mm"
   height="297mm"
   viewBox="0 0 210 297"
   version="1.1"
   id="svg1771">
  <defs
     id="defs1765" />
  <metadata
     id="metadata1768">
    <rdf:RDF>
      <cc:Work
         rdf:about="">
        <dc:format>image/svg+xml</dc:format>
        <dc:type
           rdf:resource="http://purl.org/dc/dcmitype/StillImage" />
        <dc:title></dc:title>
      </cc:Work>
    </rdf:RDF>
  </metadata>
  <path
     style="fill:none;stroke:#ec008c;stroke-width:0.35078275;stroke-linecap:butt;stroke-linejoin:miter;stroke-miterlimit:10;stroke-opacity:1"
     d="M 41.977597,253.45569 H 178.65481 V 43.806472 H 41.977597 Z m 0,0"
     id="path294" />
  <path
     style="font-style:normal;font-variant:normal;font-weight:bold;font-stretch:normal;font-size:13.33333302px;line-height:1.25;font-family:monospace;-inkscape-font-specification:'monospace Bold';letter-spacing:0px;word-spacing:0px;fill:#00aeee;fill-opacity:1;stroke:none;stroke-width:0.26404655"
     id="path20692"
     d="m 53.371005,244.88304 h 0.759555 v -0.33705 q 0,-0.24247 -0.08248,-0.33877 -0.08249,-0.098 -0.286982,-0.098 -0.207933,0 -0.29901,0.10146 -0.09108,0.10146 -0.09108,0.33533 z m -1.000141,0 h 0.596304 v -0.33705 q 0,-0.1926 -0.06874,-0.27343 -0.06874,-0.0825 -0.226834,-0.0825 -0.158098,0 -0.228555,0.0843 -0.07218,0.0825 -0.07218,0.27171 z m -0.403834,0.4901 v -0.82715 q 0,-0.42819 0.163253,-0.64315 0.161535,-0.21668 0.484601,-0.21668 0.247458,0 0.386654,0.12726 0.139194,0.12725 0.161535,0.37316 0.02921,-0.29406 0.19762,-0.44195 0.16841,-0.14961 0.470857,-0.14961 0.371186,0 0.537876,0.22356 0.16669,0.22355 0.16669,0.72741 v 0.82715 z" />
  <path
     style="font-style:normal;font-variant:normal;font-weight:bold;font-stretch:normal;font-size:13.33333302px;line-height:1.25;font-family:monospace;-inkscape-font-specification:'monospace Bold';letter-spacing:0px;word-spacing:0px;fill:#00aeee;fill-opacity:1;stroke:none;stroke-width:0.26404655"
     id="path20694"
     d="m 52.974042,242.40846 q 0,0.18056 0.159816,0.28374 0.158098,0.10318 0.441643,0.10318 0.283545,0 0.443359,-0.10318 0.158098,-0.10318 0.158098,-0.28374 0,-0.18228 -0.158098,-0.28546 -0.159814,-0.10318 -0.443359,-0.10318 -0.283545,0 -0.441643,0.10318 -0.159816,0.10318 -0.159816,0.28546 z m 0.601459,0.89078 q -0.465702,0 -0.737216,-0.24075 -0.273235,-0.24247 -0.273235,-0.65003 0,-0.40928 0.273235,-0.65003 0.271514,-0.24247 0.737216,-0.24247 0.4657,0 0.738935,0.24247 0.271514,0.24075 0.271514,0.65003 0,0.40756 -0.271514,0.65003 -0.273235,0.24075 -0.738935,0.24075 z" />
  <path
     style="font-style:normal;font-variant:normal;font-weight:bold;font-stretch:normal;font-size:13.33333302px;line-height:1.25;font-family:monospace;-inkscape-font-specification:'monospace Bold';letter-spacing:0px;word-spacing:0px;fill:#00aeee;fill-opacity:1;stroke:none;stroke-width:0.26404655"
     id="path20696"
     d="m 52.884683,239.98719 h -1.02248 v -0.50214 h 2.673913 v 0.50214 h -0.285264 q 0.16669,0.0808 0.250894,0.20979 0.0842,0.12726 0.0842,0.30094 0,0.33018 -0.26464,0.51246 -0.264644,0.18228 -0.745809,0.18228 -0.488041,0 -0.749245,-0.184 -0.261206,-0.18572 -0.261206,-0.52793 0,-0.15477 0.08077,-0.27687 0.07905,-0.12381 0.238867,-0.21667 z m 0.694255,0.70162 q 0.27839,0 0.436485,-0.0929 0.158099,-0.0929 0.158099,-0.25623 0,-0.16337 -0.158099,-0.25795 -0.158095,-0.0946 -0.436485,-0.0946 -0.27839,0 -0.436488,0.0946 -0.158098,0.0946 -0.158098,0.25795 0,0.16337 0.158098,0.25623 0.158098,0.0929 0.436488,0.0929 z" />
  <path
     style="font-style:normal;font-variant:normal;font-weight:bold;font-stretch:normal;font-size:13.33333302px;line-height:1.25;font-family:monospace;-inkscape-font-specification:'monospace Bold';letter-spacing:0px;word-spacing:0px;fill:#00aeee;fill-opacity:1;stroke:none;stroke-width:0.26404655"
     id="path20698"
     d="m 54.441602,237.33204 q 0.07217,0.17541 0.10826,0.35769 0.03609,0.18228 0.03609,0.3852 0,0.48322 -0.257767,0.73946 -0.259486,0.2545 -0.745808,0.2545 -0.470858,0 -0.74409,-0.24591 -0.273235,-0.24591 -0.273235,-0.67066 0,-0.4282 0.25433,-0.66379 0.252613,-0.23731 0.71316,-0.23731 h 0.204496 v 1.30521 q 0.226834,-0.002 0.338535,-0.13413 0.1117,-0.13241 0.1117,-0.39552 0,-0.17368 -0.04984,-0.34221 -0.04983,-0.16852 -0.158098,-0.35253 z m -1.082628,0.42648 q -0.199338,0.003 -0.300728,0.10318 -0.103106,0.098 -0.103106,0.29062 0,0.17368 0.106543,0.27686 0.104826,0.10318 0.29901,0.1221 z" />
  <path
     style="font-style:normal;font-variant:normal;font-weight:bold;font-stretch:normal;font-size:13.33333302px;line-height:1.25;font-family:monospace;-inkscape-font-specification:'monospace Bold';letter-spacing:0px;word-spacing:0px;fill:#00aeee;fill-opacity:1;stroke:none;stroke-width:0.26404655"
     id="path20700"
     d="m 53.286801,235.26502 h 1.249315 v 0.50042 h -1.171984 q -0.209654,0 -0.299013,0.0602 -0.09108,0.0585 -0.09108,0.1926 0,0.13585 0.12201,0.21495 0.12201,0.0774 0.338535,0.0774 h 1.101529 v 0.50042 h -1.924668 v -0.50042 h 0.2887 q -0.159817,-0.0533 -0.247457,-0.18229 -0.08764,-0.12897 -0.08764,-0.31125 0,-0.27343 0.182157,-0.41272 0.180437,-0.13929 0.539594,-0.13929 z" />
  <path
     style="font-style:normal;font-variant:normal;font-weight:bold;font-stretch:normal;font-size:13.33333302px;line-height:1.25;font-family:monospace;-inkscape-font-specification:'monospace Bold';letter-spacing:0px;word-spacing:0px;fill:#00aeee;fill-opacity:1;stroke:none;stroke-width:0.26404655"
     id="path20702"
     d="m 54.264599,234.22635 h 1.003578 v 0.50214 h -2.656729 v -0.50214 h 0.2887 q -0.16669,-0.0791 -0.250894,-0.20808 -0.0842,-0.12898 -0.0842,-0.30266 0,-0.33017 0.264643,-0.51246 0.264641,-0.18228 0.745808,-0.18228 0.488041,0 0.749245,0.18572 0.261204,0.184 0.261204,0.52622 0,0.15476 -0.07905,0.27858 -0.08077,0.1221 -0.242302,0.21496 z m -0.692534,-0.70162 q -0.27839,0 -0.436488,0.0929 -0.158099,0.0929 -0.158099,0.25623 0,0.16336 0.158099,0.25795 0.158098,0.0946 0.436488,0.0946 0.278387,0 0.436485,-0.0946 0.158098,-0.0946 0.158098,-0.25795 0,-0.16337 -0.158098,-0.25623 -0.158098,-0.0929 -0.436485,-0.0929 z" />
  <path
     style="font-style:normal;font-variant:normal;font-weight:bold;font-stretch:normal;font-size:13.33333302px;line-height:1.25;font-family:monospace;-inkscape-font-specification:'monospace Bold';letter-spacing:0px;word-spacing:0px;fill:#00aeee;fill-opacity:1;stroke:none;stroke-width:0.26404655"
     id="path20704"
     d="m 53.733599,232.20059 h -1.484743 v 0.51074 h -0.386653 v -1.01459 h 1.871396 q 0.226835,0 0.321349,-0.0705 0.09452,-0.0705 0.09452,-0.23903 v -0.4024 h 0.386651 v 0.54341 q 0,0.35941 -0.185595,0.5159 -0.185591,0.15648 -0.616922,0.15648 z" />
  <path
     style="font-style:normal;font-variant:normal;font-weight:bold;font-stretch:normal;font-size:13.33333302px;line-height:1.25;font-family:monospace;-inkscape-font-specification:'monospace Bold';letter-spacing:0px;word-spacing:0px;fill:#00aeee;fill-opacity:1;stroke:none;stroke-width:0.26404655"
     id="path20706"
     d="m 53.632209,229.54201 q 0,0.28202 0.07218,0.3938 0.07218,0.11178 0.247457,0.11178 0.130602,0 0.207933,-0.0774 0.07733,-0.0774 0.07733,-0.2098 0,-0.19948 -0.149506,-0.30953 -0.151225,-0.11006 -0.42102,-0.11006 h -0.03437 z m -0.194186,-0.70162 h 1.098093 v 0.50042 H 54.32131 q 0.127165,0.0911 0.195904,0.23388 0.06874,0.14272 0.06874,0.31469 0,0.32845 -0.173563,0.51246 -0.173563,0.18228 -0.484604,0.18228 -0.336817,0 -0.496633,-0.2184 -0.161535,-0.21839 -0.161535,-0.67582 v -0.34909 h -0.0842 q -0.12201,0 -0.183873,0.0894 -0.06358,0.0877 -0.06358,0.25967 0,0.18056 0.0464,0.35081 0.04468,0.16853 0.144351,0.35253 h -0.429614 q -0.06874,-0.16681 -0.101388,-0.33878 -0.03265,-0.17196 -0.03265,-0.36456 0,-0.46947 0.190749,-0.65863 0.190747,-0.19088 0.682224,-0.19088 z" />
  <path
     style="font-style:normal;font-variant:normal;font-weight:bold;font-stretch:normal;font-size:13.33333302px;line-height:1.25;font-family:monospace;-inkscape-font-specification:'monospace Bold';letter-spacing:0px;word-spacing:0px;fill:#00aeee;fill-opacity:1;stroke:none;stroke-width:0.26404655"
     id="path20708"
     d="m 52.06498,227.43887 h 0.546468 v -0.65862 h 0.386653 v 0.65862 h 0.91078 q 0.128884,0 0.185591,-0.0619 0.05499,-0.0636 0.05499,-0.2098 v -0.38692 h 0.386651 v 0.42303 q 0,0.43335 -0.137476,0.5864 -0.139196,0.15305 -0.513819,0.15305 h -0.88672 v 0.49182 h -0.386653 v -0.49182 h -0.546468 z" />
  <path
     style="font-style:normal;font-variant:normal;font-weight:bold;font-stretch:normal;font-size:13.33333302px;line-height:1.25;font-family:monospace;-inkscape-font-specification:'monospace Bold';letter-spacing:0px;word-spacing:0px;fill:#00aeee;fill-opacity:1;stroke:none;stroke-width:0.26404655"
     id="path20710"
     d="m 52.06498,225.31854 h 0.546468 v -0.65863 h 0.386653 v 0.65863 h 0.91078 q 0.128884,0 0.185591,-0.0619 0.05499,-0.0636 0.05499,-0.2098 v -0.38692 h 0.386651 v 0.42304 q 0,0.43335 -0.137476,0.5864 -0.139196,0.15305 -0.513819,0.15305 h -0.88672 v 0.49182 h -0.386653 v -0.49182 h -0.546468 z" />
  <path
     style="font-style:normal;font-variant:normal;font-weight:bold;font-stretch:normal;font-size:13.33333302px;line-height:1.25;font-family:monospace;-inkscape-font-specification:'monospace Bold';letter-spacing:0px;word-spacing:0px;fill:#00aeee;fill-opacity:1;stroke:none;stroke-width:0.26404655"
     id="path20712"
     d="m 54.441602,222.48971 q 0.07217,0.1754 0.10826,0.35769 0.03609,0.18228 0.03609,0.3852 0,0.48322 -0.257767,0.73945 -0.259486,0.25451 -0.745808,0.25451 -0.470858,0 -0.74409,-0.24591 -0.273235,-0.24591 -0.273235,-0.67067 0,-0.42819 0.25433,-0.66378 0.252613,-0.23731 0.71316,-0.23731 h 0.204496 v 1.30521 q 0.226834,-0.002 0.338535,-0.13413 0.1117,-0.13241 0.1117,-0.39552 0,-0.17369 -0.04984,-0.34221 -0.04983,-0.16853 -0.158098,-0.35253 z m -1.082628,0.42647 q -0.199338,0.003 -0.300728,0.10318 -0.103106,0.098 -0.103106,0.29062 0,0.17369 0.106543,0.27687 0.104826,0.10318 0.29901,0.12209 z" />
  <path
     style="font-style:normal;font-variant:normal;font-weight:bold;font-stretch:normal;font-size:13.33333302px;line-height:1.25;font-family:monospace;-inkscape-font-specification:'monospace Bold';letter-spacing:0px;word-spacing:0px;fill:#00aeee;fill-opacity:1;stroke:none;stroke-width:0.26404655"
     id="path20714"
     d="m 54.536116,219.75718 h -2.56565 v -0.5073 h 2.118852 v -1.0851 h 0.446798 z" />
  <path
     style="font-style:normal;font-variant:normal;font-weight:bold;font-stretch:normal;font-size:13.33333302px;line-height:1.25;font-family:monospace;-inkscape-font-specification:'monospace Bold';letter-spacing:0px;word-spacing:0px;fill:#00aeee;fill-opacity:1;stroke:none;stroke-width:0.26404655"
     id="path20716"
     d="m 53.632209,216.82001 q 0,0.28203 0.07218,0.3938 0.07218,0.11178 0.247457,0.11178 0.130602,0 0.207933,-0.0774 0.07733,-0.0774 0.07733,-0.2098 0,-0.19948 -0.149506,-0.30954 -0.151225,-0.11006 -0.42102,-0.11006 h -0.03437 z m -0.194186,-0.70162 h 1.098093 v 0.50042 H 54.32131 q 0.127165,0.0911 0.195904,0.23388 0.06874,0.14272 0.06874,0.31469 0,0.32845 -0.173563,0.51246 -0.173563,0.18228 -0.484604,0.18228 -0.336817,0 -0.496633,-0.21839 -0.161535,-0.2184 -0.161535,-0.67583 v -0.34909 h -0.0842 q -0.12201,0 -0.183873,0.0894 -0.06358,0.0877 -0.06358,0.25967 0,0.18057 0.0464,0.35081 0.04468,0.16853 0.144351,0.35253 h -0.429614 q -0.06874,-0.16681 -0.101388,-0.33877 -0.03265,-0.17197 -0.03265,-0.36457 0,-0.46947 0.190749,-0.65863 0.190747,-0.19088 0.682224,-0.19088 z" />
  <path
     style="font-style:normal;font-variant:normal;font-weight:bold;font-stretch:normal;font-size:13.33333302px;line-height:1.25;font-family:monospace;-inkscape-font-specification:'monospace Bold';letter-spacing:0px;word-spacing:0px;fill:#00aeee;fill-opacity:1;stroke:none;stroke-width:0.26404655"
     id="path20718"
     d="m 54.744048,214.68076 q 0.271517,0.10146 0.395246,0.24419 0.125446,0.14101 0.125446,0.34393 v 0.41616 h -0.383216 v -0.20464 q 0,-0.15477 -0.05327,-0.22699 -0.05155,-0.0722 -0.242302,-0.14618 l -0.103106,-0.0378 -1.871396,0.73257 v -0.52965 l 1.249317,-0.44023 -1.249317,-0.42132 v -0.52965 z" />
  <path
     style="font-style:normal;font-variant:normal;font-weight:bold;font-stretch:normal;font-size:13.33333302px;line-height:1.25;font-family:monospace;-inkscape-font-specification:'monospace Bold';letter-spacing:0px;word-spacing:0px;fill:#00aeee;fill-opacity:1;stroke:none;stroke-width:0.26404655"
     id="path20720"
     d="m 54.441602,211.88804 q 0.07217,0.17541 0.10826,0.35769 0.03609,0.18228 0.03609,0.3852 0,0.48323 -0.257767,0.73945 -0.259486,0.25451 -0.745808,0.25451 -0.470858,0 -0.74409,-0.24591 -0.273235,-0.24591 -0.273235,-0.67066 0,-0.4282 0.25433,-0.66379 0.252613,-0.23731 0.71316,-0.23731 h 0.204496 v 1.30522 q 0.226834,-0.002 0.338535,-0.13414 0.1117,-0.13241 0.1117,-0.39552 0,-0.17368 -0.04984,-0.34221 -0.04983,-0.16852 -0.158098,-0.35253 z m -1.082628,0.42648 q -0.199338,0.003 -0.300728,0.10318 -0.103106,0.098 -0.103106,0.29062 0,0.17368 0.106543,0.27686 0.104826,0.10318 0.29901,0.1221 z" />
  <path
     style="font-style:normal;font-variant:normal;font-weight:bold;font-stretch:normal;font-size:13.33333302px;line-height:1.25;font-family:monospace;-inkscape-font-specification:'monospace Bold';letter-spacing:0px;word-spacing:0px;fill:#00aeee;fill-opacity:1;stroke:none;stroke-width:0.26404655"
     id="path20722"
     d="m 53.14245,209.68345 q -0.07561,0.0825 -0.113419,0.19432 -0.0378,0.11005 -0.0378,0.24247 0,0.15993 0.05671,0.2803 0.05499,0.11866 0.161535,0.18401 0.0653,0.0413 0.158098,0.0585 0.09279,0.0155 0.281824,0.0155 h 0.886723 v 0.50386 h -1.924668 v -0.50386 h 0.299012 q -0.164971,-0.0739 -0.254333,-0.22699 -0.09108,-0.15305 -0.09108,-0.35769 0,-0.10318 0.02579,-0.2012 0.02405,-0.0997 0.07218,-0.18916 z" />
  <path
     style="font-style:normal;font-variant:normal;font-weight:bold;font-stretch:normal;font-size:13.33333302px;line-height:1.25;font-family:monospace;-inkscape-font-specification:'monospace Bold';letter-spacing:0px;word-spacing:0px;fill:#00aeee;fill-opacity:1;stroke:none;stroke-width:0.26404655"
     id="path20724"
     d="m 53.388189,206.47801 v 0.27171 h -0.446798 v -0.27171 q 0,-0.18916 -0.07389,-0.29234 -0.07561,-0.1049 -0.211372,-0.1049 -0.14263,0 -0.221679,0.1049 -0.08077,0.10318 -0.08077,0.29234 0,0.14445 0.03609,0.30954 0.03609,0.16509 0.104825,0.34221 H 52.03405 q -0.05327,-0.17712 -0.08077,-0.34909 -0.02921,-0.17196 -0.02921,-0.33017 0,-0.40584 0.177,-0.63283 0.177,-0.227 0.488041,-0.227 0.228553,0 0.374623,0.1307 0.144348,0.13069 0.189028,0.37316 0.04812,-0.27514 0.219964,-0.41959 0.170126,-0.14446 0.448516,-0.14446 0.372904,0 0.568806,0.23903 0.195904,0.23904 0.195904,0.69475 0,0.19432 -0.03265,0.38348 -0.03265,0.18744 -0.09451,0.35941 h -0.470855 q 0.08077,-0.16165 0.123729,-0.34909 0.04124,-0.18745 0.04124,-0.3938 0,-0.20636 -0.09452,-0.32674 -0.09623,-0.12037 -0.257767,-0.12037 -0.197623,0 -0.304166,0.12037 -0.108263,0.12038 -0.108264,0.34049 z" />
  <path
     style="fill:none;stroke:#211e1e;stroke-width:0.09063596;stroke-linecap:butt;stroke-linejoin:miter;stroke-miterlimit:10;stroke-opacity:1"
     d="M 41.977597,253.45569 H 30.873378 V 43.804921 h 11.104219"
     id="path296" />
  <path
     id="path11380"
     style="font-style:normal;font-variant:normal;font-weight:bold;font-stretch:normal;font-size:medium;line-height:125%;font-family:monospace;-inkscape-font-specification:'monospace Bold';letter-spacing:0px;word-spacing:0px;fill:#000000;fill-opacity:1;stroke:none;stroke-width:0.26458332px;stroke-linecap:butt;stroke-linejoin:miter;stroke-opacity:1"
     d="m 35.842915,171.12959 q -0.146415,0.38412 -0.306612,0.52021 -0.16192,0.13608 -0.434083,0.13608 -0.349676,0 -0.549492,-0.22393 -0.199816,-0.22393 -0.199816,-0.61495 0,-0.17743 0.04134,-0.35485 0.03962,-0.17742 0.118856,-0.3514 h 0.496094 q -0.115411,0.16364 -0.175699,0.33245 -0.06029,0.16881 -0.06029,0.33418 0,0.18431 0.07407,0.2825 0.07407,0.0982 0.211873,0.0982 0.106799,0 0.177422,-0.0706 0.0689,-0.0724 0.153307,-0.29973 l 0.08268,-0.21876 q 0.113688,-0.31006 0.301445,-0.45648 0.187759,-0.14641 0.473702,-0.14641 0.389294,0 0.582221,0.23082 0.191203,0.2291 0.191203,0.69419 0,0.1912 -0.04651,0.38412 -0.04479,0.19121 -0.134358,0.37035 H 36.31489 q 0.144696,-0.20326 0.215321,-0.39274 0.07062,-0.1912 0.07062,-0.37724 0,-0.18775 -0.08441,-0.29111 -0.08613,-0.10335 -0.239432,-0.10335 -0.115411,0 -0.201539,0.0689 -0.08785,0.0689 -0.137805,0.19982 z" />
  <path
     id="path11382"
     style="font-style:normal;font-variant:normal;font-weight:bold;font-stretch:normal;font-size:medium;line-height:125%;font-family:monospace;-inkscape-font-specification:'monospace Bold';letter-spacing:0px;word-spacing:0px;fill:#000000;fill-opacity:1;stroke:none;stroke-width:0.26458332px;stroke-linecap:butt;stroke-linejoin:miter;stroke-opacity:1"
     d="m 35.718892,168.04106 h 1.252291 v 0.50126 h -1.174776 q -0.208428,0 -0.298,0.0603 -0.08957,0.0586 -0.08957,0.19292 0,0.13781 0.122301,0.21532 0.120576,0.0775 0.335896,0.0775 h 1.104151 v 0.50126 h -2.680282 v -0.50126 h 1.040419 q -0.160197,-0.0534 -0.248047,-0.18259 -0.08785,-0.12919 -0.08785,-0.31178 0,-0.27389 0.182589,-0.41342 0.180867,-0.13952 0.54088,-0.13952 z" />
  <path
     id="path11384"
     style="font-style:normal;font-variant:normal;font-weight:bold;font-stretch:normal;font-size:medium;line-height:125%;font-family:monospace;-inkscape-font-specification:'monospace Bold';letter-spacing:0px;word-spacing:0px;fill:#000000;fill-opacity:1;stroke:none;stroke-width:0.26458332px;stroke-linecap:butt;stroke-linejoin:miter;stroke-opacity:1"
     d="m 36.876444,165.86548 q 0.07235,0.1757 0.108522,0.35829 0.03617,0.18259 0.03617,0.38585 0,0.48404 -0.258384,0.7407 -0.260104,0.25493 -0.747585,0.25493 -0.471977,0 -0.745863,-0.24632 -0.273884,-0.24632 -0.273884,-0.67179 0,-0.42892 0.254937,-0.66491 0.253214,-0.23771 0.714856,-0.23771 H 36.1702 v 1.30741 q 0.227375,-0.002 0.339341,-0.13435 0.111967,-0.13264 0.111967,-0.39619 0,-0.17398 -0.04995,-0.34279 -0.04996,-0.16881 -0.158475,-0.35312 z m -1.085204,0.42719 q -0.199816,0.003 -0.301445,0.10335 -0.103355,0.0982 -0.103355,0.29112 0,0.17397 0.1068,0.27733 0.105073,0.10335 0.299722,0.1223 z" />
  <path
     id="path11386"
     style="font-style:normal;font-variant:normal;font-weight:bold;font-stretch:normal;font-size:medium;line-height:125%;font-family:monospace;-inkscape-font-specification:'monospace Bold';letter-spacing:0px;word-spacing:0px;fill:#000000;fill-opacity:1;stroke:none;stroke-width:0.26458332px;stroke-linecap:butt;stroke-linejoin:miter;stroke-opacity:1"
     d="m 36.876444,163.7433 q 0.07235,0.1757 0.108522,0.35829 0.03617,0.18259 0.03617,0.38585 0,0.48404 -0.258384,0.7407 -0.260104,0.25493 -0.747585,0.25493 -0.471977,0 -0.745863,-0.24632 -0.273884,-0.24632 -0.273884,-0.67179 0,-0.42892 0.254937,-0.66491 0.253214,-0.23771 0.714856,-0.23771 H 36.1702 v 1.30742 q 0.227375,-0.002 0.339341,-0.13436 0.111967,-0.13264 0.111967,-0.39619 0,-0.17398 -0.04995,-0.34278 -0.04996,-0.16882 -0.158475,-0.35313 z m -1.085204,0.42719 q -0.199816,0.003 -0.301445,0.10336 -0.103355,0.0982 -0.103355,0.29111 0,0.17397 0.1068,0.27733 0.105073,0.10335 0.299722,0.1223 z" />
  <path
     id="path11388"
     style="font-style:normal;font-variant:normal;font-weight:bold;font-stretch:normal;font-size:medium;line-height:125%;font-family:monospace;-inkscape-font-specification:'monospace Bold';letter-spacing:0px;word-spacing:0px;fill:#000000;fill-opacity:1;stroke:none;stroke-width:0.26458332px;stroke-linecap:butt;stroke-linejoin:miter;stroke-opacity:1"
     d="m 34.49416,162.33081 h 0.547772 v -0.65973 h 0.387572 v 0.65973 h 0.91295 q 0.129191,0 0.186037,-0.062 0.05512,-0.0637 0.05512,-0.21015 v -0.38757 h 0.387572 v 0.42374 q 0,0.43409 -0.137802,0.58739 -0.139526,0.15331 -0.515041,0.15331 h -0.888836 v 0.49265 h -0.387572 v -0.49265 H 34.49416 Z" />
  <path
     id="path11390"
     style="font-style:normal;font-variant:normal;font-weight:bold;font-stretch:normal;font-size:medium;line-height:125%;font-family:monospace;-inkscape-font-specification:'monospace Bold';letter-spacing:0px;word-spacing:0px;fill:#000000;fill-opacity:1;stroke:none;stroke-width:0.26458332px;stroke-linecap:butt;stroke-linejoin:miter;stroke-opacity:1"
     d="m 34.964417,158.07957 1.016301,0.6494 v -0.6494 z m -0.564997,0.0448 v -0.53227 h 1.581298 v -0.28249 h 0.435806 v 0.28249 h 0.554659 v 0.48749 h -0.554659 v 1.01974 h -0.492649 z" />
  <path
     id="path11392"
     style="font-style:normal;font-variant:normal;font-weight:bold;font-stretch:normal;font-size:medium;line-height:125%;font-family:monospace;-inkscape-font-specification:'monospace Bold';letter-spacing:0px;word-spacing:0px;fill:#000000;fill-opacity:1;stroke:none;stroke-width:0.26458332px;stroke-linecap:butt;stroke-linejoin:miter;stroke-opacity:1"
     d="m 35.705113,154.51217 v -1.08693 h 0.501261 v 1.08693 z" />
  <path
     d="m 58.963121,52.271592 c 0.55073,0 0.997646,-0.446888 0.997646,-0.998015 0,-0.55148 -0.446916,-0.998369 -0.997646,-0.998369 -0.550727,0 -0.997294,0.446889 -0.997294,0.998369 0,0.551127 0.446567,0.998015 0.997294,0.998015"
     style="stroke:#ea0088;clip-rule:evenodd;stroke-opacity:1;fill-rule:nonzero;stroke-miterlimit:10;stroke-width:0.35203058;fill:none"
     id="path561-9-1-81"
     transform="matrix(1.000000,0.000000,0.000000,1.000000,0.095970,0.000000)" />
  <path
     d="m 57.929892,51.273682 h 2.111454"
     style="stroke:#000000;clip-rule:evenodd;stroke-opacity:1;fill-rule:nonzero;stroke-miterlimit:10;stroke-width:0.23753151px;fill:none"
     id="path565-7-5-39"
     transform="matrix(1.000000,0.000000,0.000000,1.000000,0.095970,0.000000)" />
  <path
     d="m 58.963605,52.315527 v -2.11298"
     style="stroke:#000000;clip-rule:evenodd;stroke-opacity:1;fill-rule:nonzero;stroke-miterlimit:10;stroke-width:0.23753138px;fill:none"
     id="path569-2-4-8"
     transform="matrix(1.000000,0.000000,0.000000,1.000000,0.095970,0.000000)" />
  <path
     d="m 58.963055,246.93309 c 0.550728,0 0.997646,-0.44688 0.997646,-0.99801 0,-0.55148 -0.446918,-0.99837 -0.997646,-0.99837 -0.550727,0 -0.997291,0.44689 -0.997291,0.99837 0,0.55113 0.446564,0.99801 0.997291,0.99801"
     style="stroke:#ea0088;clip-rule:evenodd;stroke-opacity:1;fill-rule:nonzero;stroke-miterlimit:10;stroke-width:0.35203058;fill:none"
     id="path561-9-1-81-2"
     transform="matrix(1.000000,0.000000,0.000000,1.000000,0.095970,0.000000)" />
  <path
     d="m 57.929825,245.93518 h 2.111452"
     style="stroke:#000000;clip-rule:evenodd;stroke-opacity:1;fill-rule:nonzero;stroke-miterlimit:10;stroke-width:0.23753151px;fill:none"
     id="path565-7-5-39-6"
     transform="matrix(1.000000,0.000000,0.000000,1.000000,0.095970,0.000000)" />
  <path
     d="m 58.963539,246.97703 v -2.11298"
     style="stroke:#000000;clip-rule:evenodd;stroke-opacity:1;fill-rule:nonzero;stroke-miterlimit:10;stroke-width:0.23753138px;fill:none"
     id="path569-2-4-8-1"
     transform="matrix(1.000000,0.000000,0.000000,1.000000,0.095970,0.000000)" />
  <path
     d="m 58.963121,52.271592 c 0.55073,0 0.997646,-0.446888 0.997646,-0.998015 0,-0.55148 -0.446916,-0.998369 -0.997646,-0.998369 -0.550727,0 -0.997294,0.446889 -0.997294,0.998369 0,0.551127 0.446567,0.998015 0.997294,0.998015"
     style="stroke:#ea0088;clip-rule:evenodd;stroke-opacity:1;fill-rule:nonzero;stroke-miterlimit:10;stroke-width:0.35203058;fill:none"
     id="path561-9-1-81-0"
     transform="matrix(1.000000,0.000000,0.000000,1.000000,10.063970,-0.000001)" />
  <path
     d="m 57.929892,51.273682 h 2.111454"
     style="stroke:#000000;clip-rule:evenodd;stroke-opacity:1;fill-rule:nonzero;stroke-miterlimit:10;stroke-width:0.23753151px;fill:none"
     id="path565-7-5-39-9"
     transform="matrix(1.000000,0.000000,0.000000,1.000000,10.063970,-0.000001)" />
  <path
     d="m 58.963605,52.315527 v -2.11298"
     style="stroke:#000000;clip-rule:evenodd;stroke-opacity:1;fill-rule:nonzero;stroke-miterlimit:10;stroke-width:0.23753138px;fill:none"
     id="path569-2-4-8-17"
     transform="matrix(1.000000,0.000000,0.000000,1.000000,10.063970,-0.000001)" />
  <path
     d="m 58.963055,246.93309 c 0.550728,0 0.997646,-0.44688 0.997646,-0.99801 0,-0.55148 -0.446918,-0.99837 -0.997646,-0.99837 -0.550727,0 -0.997291,0.44689 -0.997291,0.99837 0,0.55113 0.446564,0.99801 0.997291,0.99801"
     style="stroke:#ea0088;clip-rule:evenodd;stroke-opacity:1;fill-rule:nonzero;stroke-miterlimit:10;stroke-width:0.35203058;fill:none"
     id="path561-9-1-81-2-7"
     transform="matrix(1.000000,0.000000,0.000000,1.000000,10.063970,-0.000001)" />
  <path
     d="m 57.929825,245.93518 h 2.111452"
     style="stroke:#000000;clip-rule:evenodd;stroke-opacity:1;fill-rule:nonzero;stroke-miterlimit:10;stroke-width:0.23753151px;fill:none"
     id="path565-7-5-39-6-1"
     transform="matrix(1.000000,0.000000,0.000000,1.000000,10.063970,-0.000001)" />
  <path
     d="m 58.963539,246.97703 v -2.11298"
     style="stroke:#000000;clip-rule:evenodd;stroke-opacity:1;fill-rule:nonzero;stroke-miterlimit:10;stroke-width:0.23753138px;fill:none"
     id="path569-2-4-8-1-1"
     transform="matrix(1.000000,0.000000,0.000000,1.000000,10.063970,-0.000001)" />
  <path
     d="m 58.963121,52.271592 c 0.55073,0 0.997646,-0.446888 0.997646,-0.998015 0,-0.55148 -0.446916,-0.998369 -0.997646,-0.998369 -0.550727,0 -0.997294,0.446889 -0.997294,0.998369 0,0.551127 0.446567,0.998015 0.997294,0.998015"
     style="stroke:#ea0088;clip-rule:evenodd;stroke-opacity:1;fill-rule:nonzero;stroke-miterlimit:10;stroke-width:0.35203058;fill:none"
     id="path561-9-1-81-7"
     transform="matrix(1.000000,0.000000,0.000000,1.000000,89.802765,0.000000)" />
  <path
     d="m 57.929892,51.273682 h 2.111454"
     style="stroke:#000000;clip-rule:evenodd;stroke-opacity:1;fill-rule:nonzero;stroke-miterlimit:10;stroke-width:0.23753151px;fill:none"
     id="path565-7-5-39-67"
     transform="matrix(1.000000,0.000000,0.000000,1.000000,89.802765,0.000000)" />
  <path
     d="m 58.963605,52.315527 v -2.11298"
     style="stroke:#000000;clip-rule:evenodd;stroke-opacity:1;fill-rule:nonzero;stroke-miterlimit:10;stroke-width:0.23753138px;fill:none"
     id="path569-2-4-8-3"
     transform="matrix(1.000000,0.000000,0.000000,1.000000,89.802765,0.000000)" />
  <path
     d="m 58.963055,246.93309 c 0.550728,0 0.997646,-0.44688 0.997646,-0.99801 0,-0.55148 -0.446918,-0.99837 -0.997646,-0.99837 -0.550727,0 -0.997291,0.44689 -0.997291,0.99837 0,0.55113 0.446564,0.99801 0.997291,0.99801"
     style="stroke:#ea0088;clip-rule:evenodd;stroke-opacity:1;fill-rule:nonzero;stroke-miterlimit:10;stroke-width:0.35203058;fill:none"
     id="path561-9-1-81-2-6"
     transform="matrix(1.000000,0.000000,0.000000,1.000000,89.802765,0.000000)" />
  <path
     d="m 57.929825,245.93518 h 2.111452"
     style="stroke:#000000;clip-rule:evenodd;stroke-opacity:1;fill-rule:nonzero;stroke-miterlimit:10;stroke-width:0.23753151px;fill:none"
     id="path565-7-5-39-6-5"
     transform="matrix(1.000000,0.000000,0.000000,1.000000,89.802765,0.000000)" />
  <path
     d="m 58.963539,246.97703 v -2.11298"
     style="stroke:#000000;clip-rule:evenodd;stroke-opacity:1;fill-rule:nonzero;stroke-miterlimit:10;stroke-width:0.23753138px;fill:none"
     id="path569-2-4-8-1-6"
     transform="matrix(1.000000,0.000000,0.000000,1.000000,89.802765,0.000000)" />
  <path
     d="m 58.963121,52.271592 c 0.55073,0 0.997646,-0.446888 0.997646,-0.998015 0,-0.55148 -0.446916,-0.998369 -0.997646,-0.998369 -0.550727,0 -0.997294,0.446889 -0.997294,0.998369 0,0.551127 0.446567,0.998015 0.997294,0.998015"
     style="stroke:#ea0088;clip-rule:evenodd;stroke-opacity:1;fill-rule:nonzero;stroke-miterlimit:10;stroke-width:0.35203058;fill:none"
     id="path561-9-1-81-0-9"
     transform="matrix(1.000000,0.000000,0.000000,1.000000,99.770765,-0.000001)" />
  <path
     d="m 57.929892,51.273682 h 2.111454"
     style="stroke:#000000;clip-rule:evenodd;stroke-opacity:1;fill-rule:nonzero;stroke-miterlimit:10;stroke-width:0.23753151px;fill:none"
     id="path565-7-5-39-9-4"
     transform="matrix(1.000000,0.000000,0.000000,1.000000,99.770765,-0.000001)" />
  <path
     d="m 58.963605,52.315527 v -2.11298"
     style="stroke:#000000;clip-rule:evenodd;stroke-opacity:1;fill-rule:nonzero;stroke-miterlimit:10;stroke-width:0.23753138px;fill:none"
     id="path569-2-4-8-17-8"
     transform="matrix(1.000000,0.000000,0.000000,1.000000,99.770765,-0.000001)" />
  <path
     d="m 58.963055,246.93309 c 0.550728,0 0.997646,-0.44688 0.997646,-0.99801 0,-0.55148 -0.446918,-0.99837 -0.997646,-0.99837 -0.550727,0 -0.997291,0.44689 -0.997291,0.99837 0,0.55113 0.446564,0.99801 0.997291,0.99801"
     style="stroke:#ea0088;clip-rule:evenodd;stroke-opacity:1;fill-rule:nonzero;stroke-miterlimit:10;stroke-width:0.35203058;fill:none"
     id="path561-9-1-81-2-7-1"
     transform="matrix(1.000000,0.000000,0.000000,1.000000,99.770765,-0.000001)" />
  <path
     d="m 57.929825,245.93518 h 2.111452"
     style="stroke:#000000;clip-rule:evenodd;stroke-opacity:1;fill-rule:nonzero;stroke-miterlimit:10;stroke-width:0.23753151px;fill:none"
     id="path565-7-5-39-6-1-2"
     transform="matrix(1.000000,0.000000,0.000000,1.000000,99.770765,-0.000001)" />
  <path
     d="m 58.963539,246.97703 v -2.11298"
     style="stroke:#000000;clip-rule:evenodd;stroke-opacity:1;fill-rule:nonzero;stroke-miterlimit:10;stroke-width:0.23753138px;fill:none"
     id="path569-2-4-8-1-1-9"
     transform="matrix(1.000000,0.000000,0.000000,1.000000,99.770765,-0.000001)" />
  <path
     id="rect20470-36-2-8-6-6"
     transform="scale(0.26458333)"
     d="M 506.19141 354.64648 L 506.17969 354.65625 L 505.31445 354.65625 L 499.16406 360.70898 L 488.58789 371.11914 L 484.31641 375.32422 L 484.31641 379.10352 L 484.31641 484.41992 L 484.31641 488.19922 L 484.31641 491.97852 L 488.58789 496.18359 L 488.58984 496.18359 L 499.16406 506.59375 L 499.16602 506.59375 L 505.31445 512.64648 L 505.31641 512.64648 L 506.17969 512.64648 L 506.18164 512.64648 L 506.19336 512.6582 L 506.19336 512.66016 L 506.19336 536.26172 L 506.19336 540.04102 L 506.19336 543.82031 L 506.19336 595.66211 L 506.19336 599.44141 L 506.19336 603.2207 L 506.19336 611.07812 L 506.19336 611.08008 L 506.18164 611.08789 L 506.17969 611.0918 L 505.31445 611.0918 L 499.16406 617.14453 L 488.58789 627.55469 L 484.31641 631.75781 L 484.31641 635.53711 L 484.31641 740.85156 L 484.31641 744.63086 L 484.31641 748.41016 L 488.58984 752.61523 L 499.16602 763.02539 L 505.31641 769.07812 L 506.18164 769.07812 L 506.19336 769.08984 L 523.62891 769.08984 L 541.06445 769.08984 L 541.07422 769.07812 L 541.93945 769.07812 L 548.08984 763.02539 L 558.66602 752.61523 L 562.93945 748.41016 L 562.93945 744.63086 L 562.93945 639.31445 L 562.93945 635.53711 L 562.93945 631.75586 L 558.66797 627.55273 L 548.0918 617.14258 L 541.94141 611.08984 L 541.07617 611.08984 L 541.07422 611.08594 L 541.06836 611.07812 L 541.06641 611.07617 L 541.06641 603.21875 L 541.06641 599.43945 L 541.06641 595.6582 L 541.06641 543.82227 L 541.06641 540.04297 L 541.06641 512.65625 L 541.07617 512.64648 L 541.94141 512.64648 L 548.0918 506.59375 L 558.66797 496.18359 L 562.94141 491.97852 L 562.94141 488.19922 L 562.94141 484.41797 L 562.94141 382.88281 L 562.94141 379.10352 L 562.94141 375.32422 L 558.66992 371.11914 L 558.66797 371.11914 L 548.09375 360.70898 L 548.0918 360.70898 L 541.94336 354.65625 L 541.94141 354.65625 L 541.07812 354.65625 L 541.07617 354.65625 L 541.06445 354.64648 L 523.63086 354.64648 L 506.19141 354.64648 z "
     style="display:inline;fill:none;fill-opacity:1;stroke:#ec008c;stroke-width:0.73199999;stroke-miterlimit:10;stroke-dasharray:none;stroke-opacity:1" />
  <g
     id="layer1"
     style="display:inline" />
  <path
     transform="matrix(1.000000,0.000000,0.000000,1.000000,-91.257268,-19.512180)"
     id="path7265"
     style="font-size:13.33333302px;font-family:monospace;fill-opacity:1;font-weight:bold;letter-spacing:0px;line-height:1.25;word-spacing:0px;stroke:none;-inkscape-font-specification:'monospace Bold';font-stretch:normal;font-variant:normal;stroke-width:0.26458332;font-style:normal;fill:#000000"
     d="m 127.80299,169.11337 -2.14802,-0.45303 v -0.5116 l 2.57177,0.6115 v 0.70453 l -2.57177,0.6115 v -0.5116 z" />
  <path
     transform="matrix(1.000000,0.000000,0.000000,1.000000,-91.257268,-19.512180)"
     id="path7267"
     style="font-size:13.33333302px;font-family:monospace;fill-opacity:1;font-weight:bold;letter-spacing:0px;line-height:1.25;word-spacing:0px;stroke:none;-inkscape-font-specification:'monospace Bold';font-stretch:normal;font-variant:normal;stroke-width:0.26458332;font-style:normal;fill:#000000"
     d="m 128.22674,166.1592 v 1.60197 h -2.57177 v -1.60197 h 0.44787 v 1.09382 h 0.55466 v -0.99047 h 0.44786 v 0.99047 h 0.67352 v -1.09382 z" />
  <path
     transform="matrix(1.000000,0.000000,0.000000,1.000000,-91.257268,-19.512180)"
     id="path7269"
     style="font-size:13.33333302px;font-family:monospace;fill-opacity:1;font-weight:bold;letter-spacing:0px;line-height:1.25;word-spacing:0px;stroke:none;-inkscape-font-specification:'monospace Bold';font-stretch:normal;font-variant:normal;stroke-width:0.26458332;font-style:normal;fill:#000000"
     d="m 128.15267,164.06458 q 0.062,0.12058 0.093,0.25321 0.031,0.13264 0.031,0.27905 0,0.52022 -0.34278,0.7941 -0.34279,0.27388 -0.99047,0.27388 -0.6494,0 -0.99219,-0.27388 -0.34278,-0.27388 -0.34278,-0.7941 0,-0.14641 0.031,-0.28077 0.031,-0.13436 0.093,-0.25149 h 0.565 q -0.12058,0.13091 -0.1757,0.25494 -0.0568,0.1223 -0.0568,0.25321 0,0.27905 0.22221,0.42202 0.22049,0.14125 0.65629,0.14125 0.43408,0 0.65629,-0.14125 0.22049,-0.14297 0.22049,-0.42202 0,-0.13091 -0.0551,-0.25321 -0.0568,-0.12403 -0.17743,-0.25494 z" />
  <path
     transform="matrix(1.000000,0.000000,0.000000,1.000000,-91.257268,-19.512180)"
     id="path7271"
     style="font-size:13.33333302px;font-family:monospace;fill-opacity:1;font-weight:bold;letter-spacing:0px;line-height:1.25;word-spacing:0px;stroke:none;-inkscape-font-specification:'monospace Bold';font-stretch:normal;font-variant:normal;stroke-width:0.26458332;font-style:normal;fill:#000000"
     d="m 126.06494,162.74166 q 0,0.19465 0.20843,0.28422 0.2067,0.0896 0.67007,0.0896 0.46164,0 0.67007,-0.0896 0.20671,-0.0896 0.20671,-0.28422 0,-0.19637 -0.20671,-0.28594 -0.20843,-0.0896 -0.67007,-0.0896 -0.46337,0 -0.67007,0.0896 -0.20843,0.0896 -0.20843,0.28594 z m 0.8785,0.90262 q -0.65973,0 -0.99735,-0.22738 -0.33762,-0.2291 -0.33762,-0.67524 0,-0.44786 0.33762,-0.67524 0.33762,-0.22909 0.99735,-0.22909 0.65802,0 0.99563,0.22909 0.33762,0.22738 0.33762,0.67524 0,0.44614 -0.33762,0.67524 -0.33761,0.22738 -0.99563,0.22738 z" />
  <path
     transform="matrix(1.000000,0.000000,0.000000,1.000000,-91.257268,-19.512180)"
     id="path7273"
     style="font-size:13.33333302px;font-family:monospace;fill-opacity:1;font-weight:bold;letter-spacing:0px;line-height:1.25;word-spacing:0px;stroke:none;-inkscape-font-specification:'monospace Bold';font-stretch:normal;font-variant:normal;stroke-width:0.26458332;font-style:normal;fill:#000000"
     d="m 126.21997,158.3595 1.01631,0.6494 v -0.6494 z m -0.565,0.0448 v -0.53227 h 1.58131 v -0.2825 h 0.4358 v 0.2825 h 0.55466 v 0.48748 h -0.55466 v 1.01975 h -0.49265 z" />
  <path
     transform="matrix(1.000000,0.000000,0.000000,1.000000,-91.257268,-19.512180)"
     id="path7275"
     style="font-size:13.33333302px;font-family:monospace;fill-opacity:1;font-weight:bold;letter-spacing:0px;line-height:1.25;word-spacing:0px;stroke:none;-inkscape-font-specification:'monospace Bold';font-stretch:normal;font-variant:normal;stroke-width:0.26458332;font-style:normal;fill:#000000"
     d="m 126.94344,156.58355 q -0.0913,0 -0.15331,-0.062 -0.062,-0.062 -0.062,-0.15158 0,-0.0913 0.062,-0.15331 0.062,-0.062 0.15331,-0.062 0.0896,0 0.15158,0.062 0.062,0.062 0.062,0.15331 0,0.0896 -0.0603,0.15158 -0.062,0.062 -0.15331,0.062 z m -0.90434,-0.21359 q 0,0.1757 0.21532,0.25666 0.21532,0.081 0.68902,0.081 0.47198,0 0.6873,-0.081 0.21532,-0.081 0.21532,-0.25666 0,-0.17743 -0.21532,-0.25838 -0.21532,-0.081 -0.6873,-0.081 -0.4737,0 -0.68902,0.081 -0.21532,0.081 -0.21532,0.25838 z m 0.90434,0.84921 q -0.66835,0 -1.0008,-0.21187 -0.33417,-0.21187 -0.33417,-0.63734 0,-0.42719 0.33245,-0.63907 0.33245,-0.21187 1.00252,-0.21187 0.66835,0 1.0008,0.21187 0.33245,0.21188 0.33245,0.63907 0,0.42547 -0.33245,0.63734 -0.33417,0.21187 -1.0008,0.21187 z" />
  <path
     transform="matrix(1.000000,0.000000,0.000000,1.000000,-91.257268,-19.512180)"
     id="path7277"
     style="font-size:13.33333302px;font-family:monospace;fill-opacity:1;font-weight:bold;letter-spacing:0px;line-height:1.25;word-spacing:0px;stroke:none;-inkscape-font-specification:'monospace Bold';font-stretch:normal;font-variant:normal;stroke-width:0.26458332;font-style:normal;fill:#000000"
     d="m 125.65497,155.10561 v -0.50815 h 1.01631 l -1.01631,-0.79582 v -0.57533 l 1.01286,0.81132 1.55891,-0.8406 v 0.56499 l -1.15755,0.60978 0.28594,0.22566 h 0.87161 v 0.50815 z" />
  <path
     transform="matrix(1.000000,0.000000,0.000000,1.000000,-91.257268,-19.512180)"
     id="path7279"
     style="font-size:13.33333302px;font-family:monospace;fill-opacity:1;font-weight:bold;letter-spacing:0px;line-height:1.25;word-spacing:0px;stroke:none;-inkscape-font-specification:'monospace Bold';font-stretch:normal;font-variant:normal;stroke-width:0.26458332;font-style:normal;fill:#000000"
     d="m 127.09847,152.30474 q -0.14642,0.38413 -0.30661,0.52022 -0.16192,0.13608 -0.43409,0.13608 -0.34967,0 -0.54949,-0.22393 -0.19981,-0.22394 -0.19981,-0.61495 0,-0.17743 0.0413,-0.35485 0.0396,-0.17742 0.11885,-0.3514 h 0.4961 q -0.11541,0.16364 -0.1757,0.33245 -0.0603,0.16881 -0.0603,0.33418 0,0.18431 0.0741,0.2825 0.0741,0.0982 0.21187,0.0982 0.1068,0 0.17742,-0.0706 0.0689,-0.0723 0.15331,-0.29972 l 0.0827,-0.21876 q 0.11369,-0.31006 0.30145,-0.45648 0.18776,-0.14641 0.4737,-0.14641 0.3893,0 0.58222,0.23082 0.1912,0.2291 0.1912,0.69419 0,0.1912 -0.0465,0.38412 -0.0448,0.1912 -0.13437,0.37035 h -0.52537 q 0.14469,-0.20326 0.21532,-0.39274 0.0706,-0.1912 0.0706,-0.37724 0,-0.18775 -0.0844,-0.29111 -0.0861,-0.10335 -0.23944,-0.10335 -0.11541,0 -0.20154,0.0689 -0.0878,0.0689 -0.1378,0.19982 z" />
  <path
     transform="matrix(1.000000,0.000000,0.000000,1.000000,-91.257268,-19.512180)"
     id="path7281"
     style="font-size:13.33333302px;font-family:monospace;fill-opacity:1;font-weight:bold;letter-spacing:0px;line-height:1.25;word-spacing:0px;stroke:none;-inkscape-font-specification:'monospace Bold';font-stretch:normal;font-variant:normal;stroke-width:0.26458332;font-style:normal;fill:#000000"
     d="m 126.94344,150.21185 q -0.0913,0 -0.15331,-0.062 -0.062,-0.062 -0.062,-0.15159 0,-0.0913 0.062,-0.1533 0.062,-0.062 0.15331,-0.062 0.0896,0 0.15158,0.062 0.062,0.062 0.062,0.1533 0,0.0896 -0.0603,0.15159 -0.062,0.062 -0.15331,0.062 z m -0.90434,-0.2136 q 0,0.1757 0.21532,0.25666 0.21532,0.081 0.68902,0.081 0.47198,0 0.6873,-0.081 0.21532,-0.081 0.21532,-0.25666 0,-0.17742 -0.21532,-0.25838 -0.21532,-0.081 -0.6873,-0.081 -0.4737,0 -0.68902,0.081 -0.21532,0.081 -0.21532,0.25838 z m 0.90434,0.84922 q -0.66835,0 -1.0008,-0.21187 -0.33417,-0.21188 -0.33417,-0.63735 0,-0.42719 0.33245,-0.63906 0.33245,-0.21187 1.00252,-0.21187 0.66835,0 1.0008,0.21187 0.33245,0.21187 0.33245,0.63906 0,0.42547 -0.33245,0.63735 -0.33417,0.21187 -1.0008,0.21187 z" />
  <path
     transform="matrix(1.000000,0.000000,0.000000,1.000000,-91.257268,-19.512180)"
     id="path7283"
     style="font-size:13.33333302px;font-family:monospace;fill-opacity:1;font-weight:bold;letter-spacing:0px;line-height:1.25;word-spacing:0px;stroke:none;-inkscape-font-specification:'monospace Bold';font-stretch:normal;font-variant:normal;stroke-width:0.26458332;font-style:normal;fill:#000000"
     d="m 126.21997,147.73999 1.01631,0.6494 v -0.6494 z m -0.565,0.0448 v -0.53227 h 1.58131 v -0.2825 h 0.4358 v 0.2825 h 0.55466 V 147.74 h -0.55466 v 1.01975 h -0.49265 z" />
  <path
     transform="matrix(1.000000,0.000000,0.000000,1.000000,-91.257268,-19.512180)"
     id="path7285"
     style="font-size:13.33333302px;font-family:monospace;fill-opacity:1;font-weight:bold;letter-spacing:0px;line-height:1.25;word-spacing:0px;stroke:none;-inkscape-font-specification:'monospace Bold';font-stretch:normal;font-variant:normal;stroke-width:0.26458332;font-style:normal;fill:#000000"
     d="m 126.08217,146.02434 h 0.75447 v -0.20843 q 0,-0.24977 -0.0844,-0.34968 -0.0844,-0.10163 -0.29283,-0.10163 -0.20843,0 -0.29284,0.10163 -0.0844,0.0999 -0.0844,0.34968 z m -0.4272,0.50815 v -0.69763 q 0,-0.53227 0.18949,-0.76482 0.18948,-0.23426 0.61495,-0.23426 0.42546,0 0.61495,0.23426 0.18947,0.23255 0.18947,0.76482 v 0.18948 h 0.96291 v 0.50815 z" />
  <path
     transform="matrix(1.000000,0.000000,0.000000,1.000000,-91.257268,-19.512180)"
     id="path7287"
     style="font-size:13.33333302px;font-family:monospace;fill-opacity:1;font-weight:bold;letter-spacing:0px;line-height:1.25;word-spacing:0px;stroke:none;-inkscape-font-specification:'monospace Bold';font-stretch:normal;font-variant:normal;stroke-width:0.26458332;font-style:normal;fill:#000000"
     d="m 125.65497,144.48266 v -0.54605 l 1.86897,-0.71658 h -1.86897 v -0.44786 h 2.57177 v 0.5426 l -1.86897,0.72002 h 1.86897 v 0.44787 z" />
  <path
     transform="matrix(1.000000,0.000000,0.000000,1.000000,-91.257268,-19.512180)"
     id="path7289"
     style="font-size:13.33333302px;font-family:monospace;fill-opacity:1;font-weight:bold;letter-spacing:0px;line-height:1.25;word-spacing:0px;stroke:none;-inkscape-font-specification:'monospace Bold';font-stretch:normal;font-variant:normal;stroke-width:0.26458332;font-style:normal;fill:#000000"
     d="m 126.96067,142.04525 v -1.08693 h 0.50126 v 1.08693 z" />
  <path
     transform="matrix(1.000000,0.000000,0.000000,1.000000,-91.257268,-19.512180)"
     id="path7291"
     style="font-size:13.33333302px;font-family:monospace;fill-opacity:1;font-weight:bold;letter-spacing:0px;line-height:1.25;word-spacing:0px;stroke:none;-inkscape-font-specification:'monospace Bold';font-stretch:normal;font-variant:normal;stroke-width:0.26458332;font-style:normal;fill:#000000"
     d="m 127.77888,140.116 v -0.56844 h -1.66915 l 0.13091,0.52882 h -0.45819 l -0.12748,-0.53227 v -0.49092 h 2.12391 v -0.56844 h 0.44786 v 1.63125 z" />
  <path
     transform="matrix(1.000000,0.000000,0.000000,1.000000,-73.689278,32.883329)"
     id="path7265-0"
     style="font-size:13.33333302px;-inkscape-font-specification:'monospace Bold';fill-opacity:1;letter-spacing:0px;word-spacing:0px;stroke:none;stroke-width:0.26458332;font-style:normal;fill:#00aeee;font-family:monospace;font-stretch:normal;font-variant:normal;font-weight:bold;line-height:1.25"
     d="m 127.80299,169.11337 -2.14802,-0.45303 v -0.5116 l 2.57177,0.6115 v 0.70453 l -2.57177,0.6115 v -0.5116 z" />
  <path
     transform="matrix(1.000000,0.000000,0.000000,1.000000,-73.689278,32.883329)"
     id="path7267-3"
     style="font-size:13.33333302px;-inkscape-font-specification:'monospace Bold';fill-opacity:1;letter-spacing:0px;word-spacing:0px;stroke:none;stroke-width:0.26458332;font-style:normal;fill:#00aeee;font-family:monospace;font-stretch:normal;font-variant:normal;font-weight:bold;line-height:1.25"
     d="m 128.22674,166.1592 v 1.60197 h -2.57177 v -1.60197 h 0.44787 v 1.09382 h 0.55466 v -0.99047 h 0.44786 v 0.99047 h 0.67352 v -1.09382 z" />
  <path
     transform="matrix(1.000000,0.000000,0.000000,1.000000,-73.689278,32.883329)"
     id="path7269-6"
     style="font-size:13.33333302px;-inkscape-font-specification:'monospace Bold';fill-opacity:1;letter-spacing:0px;word-spacing:0px;stroke:none;stroke-width:0.26458332;font-style:normal;fill:#00aeee;font-family:monospace;font-stretch:normal;font-variant:normal;font-weight:bold;line-height:1.25"
     d="m 128.15267,164.06458 q 0.062,0.12058 0.093,0.25321 0.031,0.13264 0.031,0.27905 0,0.52022 -0.34278,0.7941 -0.34279,0.27388 -0.99047,0.27388 -0.6494,0 -0.99219,-0.27388 -0.34278,-0.27388 -0.34278,-0.7941 0,-0.14641 0.031,-0.28077 0.031,-0.13436 0.093,-0.25149 h 0.565 q -0.12058,0.13091 -0.1757,0.25494 -0.0568,0.1223 -0.0568,0.25321 0,0.27905 0.22221,0.42202 0.22049,0.14125 0.65629,0.14125 0.43408,0 0.65629,-0.14125 0.22049,-0.14297 0.22049,-0.42202 0,-0.13091 -0.0551,-0.25321 -0.0568,-0.12403 -0.17743,-0.25494 z" />
  <path
     transform="matrix(1.000000,0.000000,0.000000,1.000000,-73.689278,32.883329)"
     id="path7271-1"
     style="font-size:13.33333302px;-inkscape-font-specification:'monospace Bold';fill-opacity:1;letter-spacing:0px;word-spacing:0px;stroke:none;stroke-width:0.26458332;font-style:normal;fill:#00aeee;font-family:monospace;font-stretch:normal;font-variant:normal;font-weight:bold;line-height:1.25"
     d="m 126.06494,162.74166 q 0,0.19465 0.20843,0.28422 0.2067,0.0896 0.67007,0.0896 0.46164,0 0.67007,-0.0896 0.20671,-0.0896 0.20671,-0.28422 0,-0.19637 -0.20671,-0.28594 -0.20843,-0.0896 -0.67007,-0.0896 -0.46337,0 -0.67007,0.0896 -0.20843,0.0896 -0.20843,0.28594 z m 0.8785,0.90262 q -0.65973,0 -0.99735,-0.22738 -0.33762,-0.2291 -0.33762,-0.67524 0,-0.44786 0.33762,-0.67524 0.33762,-0.22909 0.99735,-0.22909 0.65802,0 0.99563,0.22909 0.33762,0.22738 0.33762,0.67524 0,0.44614 -0.33762,0.67524 -0.33761,0.22738 -0.99563,0.22738 z" />
  <path
     transform="matrix(1.000000,0.000000,0.000000,1.000000,-73.689278,32.883329)"
     id="path7273-0"
     style="font-size:13.33333302px;-inkscape-font-specification:'monospace Bold';fill-opacity:1;letter-spacing:0px;word-spacing:0px;stroke:none;stroke-width:0.26458332;font-style:normal;fill:#00aeee;font-family:monospace;font-stretch:normal;font-variant:normal;font-weight:bold;line-height:1.25"
     d="m 126.21997,158.3595 1.01631,0.6494 v -0.6494 z m -0.565,0.0448 v -0.53227 h 1.58131 v -0.2825 h 0.4358 v 0.2825 h 0.55466 v 0.48748 h -0.55466 v 1.01975 h -0.49265 z" />
  <path
     transform="matrix(1.000000,0.000000,0.000000,1.000000,-73.689278,32.883329)"
     id="path7275-6"
     style="font-size:13.33333302px;-inkscape-font-specification:'monospace Bold';fill-opacity:1;letter-spacing:0px;word-spacing:0px;stroke:none;stroke-width:0.26458332;font-style:normal;fill:#00aeee;font-family:monospace;font-stretch:normal;font-variant:normal;font-weight:bold;line-height:1.25"
     d="m 126.94344,156.58355 q -0.0913,0 -0.15331,-0.062 -0.062,-0.062 -0.062,-0.15158 0,-0.0913 0.062,-0.15331 0.062,-0.062 0.15331,-0.062 0.0896,0 0.15158,0.062 0.062,0.062 0.062,0.15331 0,0.0896 -0.0603,0.15158 -0.062,0.062 -0.15331,0.062 z m -0.90434,-0.21359 q 0,0.1757 0.21532,0.25666 0.21532,0.081 0.68902,0.081 0.47198,0 0.6873,-0.081 0.21532,-0.081 0.21532,-0.25666 0,-0.17743 -0.21532,-0.25838 -0.21532,-0.081 -0.6873,-0.081 -0.4737,0 -0.68902,0.081 -0.21532,0.081 -0.21532,0.25838 z m 0.90434,0.84921 q -0.66835,0 -1.0008,-0.21187 -0.33417,-0.21187 -0.33417,-0.63734 0,-0.42719 0.33245,-0.63907 0.33245,-0.21187 1.00252,-0.21187 0.66835,0 1.0008,0.21187 0.33245,0.21188 0.33245,0.63907 0,0.42547 -0.33245,0.63734 -0.33417,0.21187 -1.0008,0.21187 z" />
  <path
     transform="matrix(1.000000,0.000000,0.000000,1.000000,-73.689278,32.883329)"
     id="path7277-3"
     style="font-size:13.33333302px;-inkscape-font-specification:'monospace Bold';fill-opacity:1;letter-spacing:0px;word-spacing:0px;stroke:none;stroke-width:0.26458332;font-style:normal;fill:#00aeee;font-family:monospace;font-stretch:normal;font-variant:normal;font-weight:bold;line-height:1.25"
     d="m 125.65497,155.10561 v -0.50815 h 1.01631 l -1.01631,-0.79582 v -0.57533 l 1.01286,0.81132 1.55891,-0.8406 v 0.56499 l -1.15755,0.60978 0.28594,0.22566 h 0.87161 v 0.50815 z" />
  <path
     transform="matrix(1.000000,0.000000,0.000000,1.000000,-73.689278,32.883329)"
     id="path7279-2"
     style="font-size:13.33333302px;-inkscape-font-specification:'monospace Bold';fill-opacity:1;letter-spacing:0px;word-spacing:0px;stroke:none;stroke-width:0.26458332;font-style:normal;fill:#00aeee;font-family:monospace;font-stretch:normal;font-variant:normal;font-weight:bold;line-height:1.25"
     d="m 127.09847,152.30474 q -0.14642,0.38413 -0.30661,0.52022 -0.16192,0.13608 -0.43409,0.13608 -0.34967,0 -0.54949,-0.22393 -0.19981,-0.22394 -0.19981,-0.61495 0,-0.17743 0.0413,-0.35485 0.0396,-0.17742 0.11885,-0.3514 h 0.4961 q -0.11541,0.16364 -0.1757,0.33245 -0.0603,0.16881 -0.0603,0.33418 0,0.18431 0.0741,0.2825 0.0741,0.0982 0.21187,0.0982 0.1068,0 0.17742,-0.0706 0.0689,-0.0723 0.15331,-0.29972 l 0.0827,-0.21876 q 0.11369,-0.31006 0.30145,-0.45648 0.18776,-0.14641 0.4737,-0.14641 0.3893,0 0.58222,0.23082 0.1912,0.2291 0.1912,0.69419 0,0.1912 -0.0465,0.38412 -0.0448,0.1912 -0.13437,0.37035 h -0.52537 q 0.14469,-0.20326 0.21532,-0.39274 0.0706,-0.1912 0.0706,-0.37724 0,-0.18775 -0.0844,-0.29111 -0.0861,-0.10335 -0.23944,-0.10335 -0.11541,0 -0.20154,0.0689 -0.0878,0.0689 -0.1378,0.19982 z" />
  <path
     transform="matrix(1.000000,0.000000,0.000000,1.000000,-73.689278,32.883329)"
     id="path7281-0"
     style="font-size:13.33333302px;-inkscape-font-specification:'monospace Bold';fill-opacity:1;letter-spacing:0px;word-spacing:0px;stroke:none;stroke-width:0.26458332;font-style:normal;fill:#00aeee;font-family:monospace;font-stretch:normal;font-variant:normal;font-weight:bold;line-height:1.25"
     d="m 126.94344,150.21185 q -0.0913,0 -0.15331,-0.062 -0.062,-0.062 -0.062,-0.15159 0,-0.0913 0.062,-0.1533 0.062,-0.062 0.15331,-0.062 0.0896,0 0.15158,0.062 0.062,0.062 0.062,0.1533 0,0.0896 -0.0603,0.15159 -0.062,0.062 -0.15331,0.062 z m -0.90434,-0.2136 q 0,0.1757 0.21532,0.25666 0.21532,0.081 0.68902,0.081 0.47198,0 0.6873,-0.081 0.21532,-0.081 0.21532,-0.25666 0,-0.17742 -0.21532,-0.25838 -0.21532,-0.081 -0.6873,-0.081 -0.4737,0 -0.68902,0.081 -0.21532,0.081 -0.21532,0.25838 z m 0.90434,0.84922 q -0.66835,0 -1.0008,-0.21187 -0.33417,-0.21188 -0.33417,-0.63735 0,-0.42719 0.33245,-0.63906 0.33245,-0.21187 1.00252,-0.21187 0.66835,0 1.0008,0.21187 0.33245,0.21187 0.33245,0.63906 0,0.42547 -0.33245,0.63735 -0.33417,0.21187 -1.0008,0.21187 z" />
  <path
     transform="matrix(1.000000,0.000000,0.000000,1.000000,-73.689278,32.883329)"
     id="path7283-6"
     style="font-size:13.33333302px;-inkscape-font-specification:'monospace Bold';fill-opacity:1;letter-spacing:0px;word-spacing:0px;stroke:none;stroke-width:0.26458332;font-style:normal;fill:#00aeee;font-family:monospace;font-stretch:normal;font-variant:normal;font-weight:bold;line-height:1.25"
     d="m 126.21997,147.73999 1.01631,0.6494 v -0.6494 z m -0.565,0.0448 v -0.53227 h 1.58131 v -0.2825 h 0.4358 v 0.2825 h 0.55466 V 147.74 h -0.55466 v 1.01975 h -0.49265 z" />
  <path
     transform="matrix(1.000000,0.000000,0.000000,1.000000,-73.689278,32.883329)"
     id="path7285-1"
     style="font-size:13.33333302px;-inkscape-font-specification:'monospace Bold';fill-opacity:1;letter-spacing:0px;word-spacing:0px;stroke:none;stroke-width:0.26458332;font-style:normal;fill:#00aeee;font-family:monospace;font-stretch:normal;font-variant:normal;font-weight:bold;line-height:1.25"
     d="m 126.08217,146.02434 h 0.75447 v -0.20843 q 0,-0.24977 -0.0844,-0.34968 -0.0844,-0.10163 -0.29283,-0.10163 -0.20843,0 -0.29284,0.10163 -0.0844,0.0999 -0.0844,0.34968 z m -0.4272,0.50815 v -0.69763 q 0,-0.53227 0.18949,-0.76482 0.18948,-0.23426 0.61495,-0.23426 0.42546,0 0.61495,0.23426 0.18947,0.23255 0.18947,0.76482 v 0.18948 h 0.96291 v 0.50815 z" />
  <path
     transform="matrix(1.000000,0.000000,0.000000,1.000000,-73.689278,32.883329)"
     id="path7287-5"
     style="font-size:13.33333302px;-inkscape-font-specification:'monospace Bold';fill-opacity:1;letter-spacing:0px;word-spacing:0px;stroke:none;stroke-width:0.26458332;font-style:normal;fill:#00aeee;font-family:monospace;font-stretch:normal;font-variant:normal;font-weight:bold;line-height:1.25"
     d="m 125.65497,144.48266 v -0.54605 l 1.86897,-0.71658 h -1.86897 v -0.44786 h 2.57177 v 0.5426 l -1.86897,0.72002 h 1.86897 v 0.44787 z" />
  <path
     transform="matrix(1.000000,0.000000,0.000000,1.000000,-73.689278,32.883329)"
     id="path7289-5"
     style="font-size:13.33333302px;-inkscape-font-specification:'monospace Bold';fill-opacity:1;letter-spacing:0px;word-spacing:0px;stroke:none;stroke-width:0.26458332;font-style:normal;fill:#00aeee;font-family:monospace;font-stretch:normal;font-variant:normal;font-weight:bold;line-height:1.25"
     d="m 126.96067,142.04525 v -1.08693 h 0.50126 v 1.08693 z" />
  <path
     transform="matrix(1.000000,0.000000,0.000000,1.000000,-73.689278,32.883329)"
     id="path7291-4"
     style="font-size:13.33333302px;-inkscape-font-specification:'monospace Bold';fill-opacity:1;letter-spacing:0px;word-spacing:0px;stroke:none;stroke-width:0.26458332;font-style:normal;fill:#00aeee;font-family:monospace;font-stretch:normal;font-variant:normal;font-weight:bold;line-height:1.25"
     d="m 127.77888,140.116 v -0.56844 h -1.66915 l 0.13091,0.52882 h -0.45819 l -0.12748,-0.53227 v -0.49092 h 2.12391 v -0.56844 h 0.44786 v 1.63125 z" />
</svg>
