<?xml version="1.0" encoding="UTF-8" standalone="no"?>
<svg
   xmlns:dc="http://purl.org/dc/elements/1.1/"
   xmlns:cc="http://creativecommons.org/ns#"
   xmlns:rdf="http://www.w3.org/1999/02/22-rdf-syntax-ns#"
   xmlns:svg="http://www.w3.org/2000/svg"
   xmlns="http://www.w3.org/2000/svg"
   xmlns:sodipodi="http://sodipodi.sourceforge.net/DTD/sodipodi-0.dtd"
   xmlns:inkscape="http://www.inkscape.org/namespaces/inkscape"
   id="svg1771"
   version="1.1"
   viewBox="0 0 210 297"
   height="297mm"
   width="210mm"
   sodipodi:docname="sheet_4_siedle_noamp.svg"
   inkscape:version="0.92.3 (2405546, 2018-03-11)">
  <sodipodi:namedview
     pagecolor="#ffffff"
     bordercolor="#666666"
     borderopacity="1"
     objecttolerance="10"
     gridtolerance="10"
     guidetolerance="10"
     inkscape:pageopacity="0"
     inkscape:pageshadow="2"
     inkscape:window-width="1920"
     inkscape:window-height="976"
     id="namedview8353"
     showgrid="false"
     inkscape:zoom="0.84096521"
     inkscape:cx="496.14107"
     inkscape:cy="561.25984"
     inkscape:window-x="-4"
     inkscape:window-y="-4"
     inkscape:window-maximized="1"
     inkscape:current-layer="svg1771" />
  <defs
     id="defs1765" />
  <metadata
     id="metadata1768">
    <rdf:RDF>
      <cc:Work
         rdf:about="">
        <dc:format>image/svg+xml</dc:format>
        <dc:type
           rdf:resource="http://purl.org/dc/dcmitype/StillImage" />
        <dc:title />
      </cc:Work>
    </rdf:RDF>
  </metadata>
  <path
     inkscape:connector-curvature="0"
     style="fill:none;stroke:#eb008a;stroke-width:0.35206211;stroke-linecap:butt;stroke-linejoin:miter;stroke-miterlimit:10;stroke-opacity:1"
     d="m 133.00862,158.601 v -14.97476 h -10.97335 v -10.9824 H 96.097656 v 21.97581 h 11.971414 v 8.97247 h 9.97665 v 9.98363 h -9.97665 v 8.99724 H 96.097656 v 21.95105 l 25.937614,0.0124 v -10.99479 h 10.97335 v -14.97474 h 29.92992 v -19.96588 z m 0,0"
     id="path292" />
  <path
     inkscape:connector-curvature="0"
     style="fill:none;stroke:#ec008c;stroke-width:0.35206211;stroke-linecap:butt;stroke-linejoin:miter;stroke-miterlimit:10;stroke-opacity:1"
     d="M 40.977974,253.45441 H 178.65481 V 43.806472 H 40.977974 Z m 0,0"
     id="path294" />
  <path
     inkscape:connector-curvature="0"
     style="fill:none;stroke:#000000;stroke-width:0.35206208;stroke-linecap:butt;stroke-linejoin:miter;stroke-miterlimit:1.5;stroke-opacity:1"
     d="M 31.00683,253.45302 H 178.65481 V 43.806472 H 31.00683 Z m 0,0"
     id="path42" />
  <path
     inkscape:connector-curvature="0"
     style="font-style:normal;font-variant:normal;font-weight:bold;font-stretch:normal;font-size:13.33333302px;line-height:1.25;font-family:monospace;-inkscape-font-specification:'monospace Bold';letter-spacing:0px;word-spacing:0px;fill:#00aeee;fill-opacity:1;stroke:none;stroke-width:0.26404655"
     id="path20692"
     d="m 53.371005,244.88304 h 0.759555 v -0.33705 q 0,-0.24247 -0.08248,-0.33877 -0.08249,-0.098 -0.286982,-0.098 -0.207933,0 -0.29901,0.10146 -0.09108,0.10146 -0.09108,0.33533 z m -1.000141,0 h 0.596304 v -0.33705 q 0,-0.1926 -0.06874,-0.27343 -0.06874,-0.0825 -0.226834,-0.0825 -0.158098,0 -0.228555,0.0843 -0.07218,0.0825 -0.07218,0.27171 z m -0.403834,0.4901 v -0.82715 q 0,-0.42819 0.163253,-0.64315 0.161535,-0.21668 0.484601,-0.21668 0.247458,0 0.386654,0.12726 0.139194,0.12725 0.161535,0.37316 0.02921,-0.29406 0.19762,-0.44195 0.16841,-0.14961 0.470857,-0.14961 0.371186,0 0.537876,0.22356 0.16669,0.22355 0.16669,0.72741 v 0.82715 z" />
  <path
     inkscape:connector-curvature="0"
     style="font-style:normal;font-variant:normal;font-weight:bold;font-stretch:normal;font-size:13.33333302px;line-height:1.25;font-family:monospace;-inkscape-font-specification:'monospace Bold';letter-spacing:0px;word-spacing:0px;fill:#00aeee;fill-opacity:1;stroke:none;stroke-width:0.26404655"
     id="path20694"
     d="m 52.974042,242.40846 q 0,0.18056 0.159816,0.28374 0.158098,0.10318 0.441643,0.10318 0.283545,0 0.443359,-0.10318 0.158098,-0.10318 0.158098,-0.28374 0,-0.18228 -0.158098,-0.28546 -0.159814,-0.10318 -0.443359,-0.10318 -0.283545,0 -0.441643,0.10318 -0.159816,0.10318 -0.159816,0.28546 z m 0.601459,0.89078 q -0.465702,0 -0.737216,-0.24075 -0.273235,-0.24247 -0.273235,-0.65003 0,-0.40928 0.273235,-0.65003 0.271514,-0.24247 0.737216,-0.24247 0.4657,0 0.738935,0.24247 0.271514,0.24075 0.271514,0.65003 0,0.40756 -0.271514,0.65003 -0.273235,0.24075 -0.738935,0.24075 z" />
  <path
     inkscape:connector-curvature="0"
     style="font-style:normal;font-variant:normal;font-weight:bold;font-stretch:normal;font-size:13.33333302px;line-height:1.25;font-family:monospace;-inkscape-font-specification:'monospace Bold';letter-spacing:0px;word-spacing:0px;fill:#00aeee;fill-opacity:1;stroke:none;stroke-width:0.26404655"
     id="path20696"
     d="m 52.884683,239.98719 h -1.02248 v -0.50214 h 2.673913 v 0.50214 h -0.285264 q 0.16669,0.0808 0.250894,0.20979 0.0842,0.12726 0.0842,0.30094 0,0.33018 -0.26464,0.51246 -0.264644,0.18228 -0.745809,0.18228 -0.488041,0 -0.749245,-0.184 -0.261206,-0.18572 -0.261206,-0.52793 0,-0.15477 0.08077,-0.27687 0.07905,-0.12381 0.238867,-0.21667 z m 0.694255,0.70162 q 0.27839,0 0.436485,-0.0929 0.158099,-0.0929 0.158099,-0.25623 0,-0.16337 -0.158099,-0.25795 -0.158095,-0.0946 -0.436485,-0.0946 -0.27839,0 -0.436488,0.0946 -0.158098,0.0946 -0.158098,0.25795 0,0.16337 0.158098,0.25623 0.158098,0.0929 0.436488,0.0929 z" />
  <path
     inkscape:connector-curvature="0"
     style="font-style:normal;font-variant:normal;font-weight:bold;font-stretch:normal;font-size:13.33333302px;line-height:1.25;font-family:monospace;-inkscape-font-specification:'monospace Bold';letter-spacing:0px;word-spacing:0px;fill:#00aeee;fill-opacity:1;stroke:none;stroke-width:0.26404655"
     id="path20698"
     d="m 54.441602,237.33204 q 0.07217,0.17541 0.10826,0.35769 0.03609,0.18228 0.03609,0.3852 0,0.48322 -0.257767,0.73946 -0.259486,0.2545 -0.745808,0.2545 -0.470858,0 -0.74409,-0.24591 -0.273235,-0.24591 -0.273235,-0.67066 0,-0.4282 0.25433,-0.66379 0.252613,-0.23731 0.71316,-0.23731 h 0.204496 v 1.30521 q 0.226834,-0.002 0.338535,-0.13413 0.1117,-0.13241 0.1117,-0.39552 0,-0.17368 -0.04984,-0.34221 -0.04983,-0.16852 -0.158098,-0.35253 z m -1.082628,0.42648 q -0.199338,0.003 -0.300728,0.10318 -0.103106,0.098 -0.103106,0.29062 0,0.17368 0.106543,0.27686 0.104826,0.10318 0.29901,0.1221 z" />
  <path
     inkscape:connector-curvature="0"
     style="font-style:normal;font-variant:normal;font-weight:bold;font-stretch:normal;font-size:13.33333302px;line-height:1.25;font-family:monospace;-inkscape-font-specification:'monospace Bold';letter-spacing:0px;word-spacing:0px;fill:#00aeee;fill-opacity:1;stroke:none;stroke-width:0.26404655"
     id="path20700"
     d="m 53.286801,235.26502 h 1.249315 v 0.50042 h -1.171984 q -0.209654,0 -0.299013,0.0602 -0.09108,0.0585 -0.09108,0.1926 0,0.13585 0.12201,0.21495 0.12201,0.0774 0.338535,0.0774 h 1.101529 v 0.50042 h -1.924668 v -0.50042 h 0.2887 q -0.159817,-0.0533 -0.247457,-0.18229 -0.08764,-0.12897 -0.08764,-0.31125 0,-0.27343 0.182157,-0.41272 0.180437,-0.13929 0.539594,-0.13929 z" />
  <path
     inkscape:connector-curvature="0"
     style="font-style:normal;font-variant:normal;font-weight:bold;font-stretch:normal;font-size:13.33333302px;line-height:1.25;font-family:monospace;-inkscape-font-specification:'monospace Bold';letter-spacing:0px;word-spacing:0px;fill:#00aeee;fill-opacity:1;stroke:none;stroke-width:0.26404655"
     id="path20702"
     d="m 54.264599,234.22635 h 1.003578 v 0.50214 h -2.656729 v -0.50214 h 0.2887 q -0.16669,-0.0791 -0.250894,-0.20808 -0.0842,-0.12898 -0.0842,-0.30266 0,-0.33017 0.264643,-0.51246 0.264641,-0.18228 0.745808,-0.18228 0.488041,0 0.749245,0.18572 0.261204,0.184 0.261204,0.52622 0,0.15476 -0.07905,0.27858 -0.08077,0.1221 -0.242302,0.21496 z m -0.692534,-0.70162 q -0.27839,0 -0.436488,0.0929 -0.158099,0.0929 -0.158099,0.25623 0,0.16336 0.158099,0.25795 0.158098,0.0946 0.436488,0.0946 0.278387,0 0.436485,-0.0946 0.158098,-0.0946 0.158098,-0.25795 0,-0.16337 -0.158098,-0.25623 -0.158098,-0.0929 -0.436485,-0.0929 z" />
  <path
     inkscape:connector-curvature="0"
     style="font-style:normal;font-variant:normal;font-weight:bold;font-stretch:normal;font-size:13.33333302px;line-height:1.25;font-family:monospace;-inkscape-font-specification:'monospace Bold';letter-spacing:0px;word-spacing:0px;fill:#00aeee;fill-opacity:1;stroke:none;stroke-width:0.26404655"
     id="path20704"
     d="m 53.733599,232.20059 h -1.484743 v 0.51074 h -0.386653 v -1.01459 h 1.871396 q 0.226835,0 0.321349,-0.0705 0.09452,-0.0705 0.09452,-0.23903 v -0.4024 h 0.386651 v 0.54341 q 0,0.35941 -0.185595,0.5159 -0.185591,0.15648 -0.616922,0.15648 z" />
  <path
     inkscape:connector-curvature="0"
     style="font-style:normal;font-variant:normal;font-weight:bold;font-stretch:normal;font-size:13.33333302px;line-height:1.25;font-family:monospace;-inkscape-font-specification:'monospace Bold';letter-spacing:0px;word-spacing:0px;fill:#00aeee;fill-opacity:1;stroke:none;stroke-width:0.26404655"
     id="path20706"
     d="m 53.632209,229.54201 q 0,0.28202 0.07218,0.3938 0.07218,0.11178 0.247457,0.11178 0.130602,0 0.207933,-0.0774 0.07733,-0.0774 0.07733,-0.2098 0,-0.19948 -0.149506,-0.30953 -0.151225,-0.11006 -0.42102,-0.11006 h -0.03437 z m -0.194186,-0.70162 h 1.098093 v 0.50042 H 54.32131 q 0.127165,0.0911 0.195904,0.23388 0.06874,0.14272 0.06874,0.31469 0,0.32845 -0.173563,0.51246 -0.173563,0.18228 -0.484604,0.18228 -0.336817,0 -0.496633,-0.2184 -0.161535,-0.21839 -0.161535,-0.67582 v -0.34909 h -0.0842 q -0.12201,0 -0.183873,0.0894 -0.06358,0.0877 -0.06358,0.25967 0,0.18056 0.0464,0.35081 0.04468,0.16853 0.144351,0.35253 h -0.429614 q -0.06874,-0.16681 -0.101388,-0.33878 -0.03265,-0.17196 -0.03265,-0.36456 0,-0.46947 0.190749,-0.65863 0.190747,-0.19088 0.682224,-0.19088 z" />
  <path
     inkscape:connector-curvature="0"
     style="font-style:normal;font-variant:normal;font-weight:bold;font-stretch:normal;font-size:13.33333302px;line-height:1.25;font-family:monospace;-inkscape-font-specification:'monospace Bold';letter-spacing:0px;word-spacing:0px;fill:#00aeee;fill-opacity:1;stroke:none;stroke-width:0.26404655"
     id="path20708"
     d="m 52.06498,227.43887 h 0.546468 v -0.65862 h 0.386653 v 0.65862 h 0.91078 q 0.128884,0 0.185591,-0.0619 0.05499,-0.0636 0.05499,-0.2098 v -0.38692 h 0.386651 v 0.42303 q 0,0.43335 -0.137476,0.5864 -0.139196,0.15305 -0.513819,0.15305 h -0.88672 v 0.49182 h -0.386653 v -0.49182 h -0.546468 z" />
  <path
     inkscape:connector-curvature="0"
     style="font-style:normal;font-variant:normal;font-weight:bold;font-stretch:normal;font-size:13.33333302px;line-height:1.25;font-family:monospace;-inkscape-font-specification:'monospace Bold';letter-spacing:0px;word-spacing:0px;fill:#00aeee;fill-opacity:1;stroke:none;stroke-width:0.26404655"
     id="path20710"
     d="m 52.06498,225.31854 h 0.546468 v -0.65863 h 0.386653 v 0.65863 h 0.91078 q 0.128884,0 0.185591,-0.0619 0.05499,-0.0636 0.05499,-0.2098 v -0.38692 h 0.386651 v 0.42304 q 0,0.43335 -0.137476,0.5864 -0.139196,0.15305 -0.513819,0.15305 h -0.88672 v 0.49182 h -0.386653 v -0.49182 h -0.546468 z" />
  <path
     inkscape:connector-curvature="0"
     style="font-style:normal;font-variant:normal;font-weight:bold;font-stretch:normal;font-size:13.33333302px;line-height:1.25;font-family:monospace;-inkscape-font-specification:'monospace Bold';letter-spacing:0px;word-spacing:0px;fill:#00aeee;fill-opacity:1;stroke:none;stroke-width:0.26404655"
     id="path20712"
     d="m 54.441602,222.48971 q 0.07217,0.1754 0.10826,0.35769 0.03609,0.18228 0.03609,0.3852 0,0.48322 -0.257767,0.73945 -0.259486,0.25451 -0.745808,0.25451 -0.470858,0 -0.74409,-0.24591 -0.273235,-0.24591 -0.273235,-0.67067 0,-0.42819 0.25433,-0.66378 0.252613,-0.23731 0.71316,-0.23731 h 0.204496 v 1.30521 q 0.226834,-0.002 0.338535,-0.13413 0.1117,-0.13241 0.1117,-0.39552 0,-0.17369 -0.04984,-0.34221 -0.04983,-0.16853 -0.158098,-0.35253 z m -1.082628,0.42647 q -0.199338,0.003 -0.300728,0.10318 -0.103106,0.098 -0.103106,0.29062 0,0.17369 0.106543,0.27687 0.104826,0.10318 0.29901,0.12209 z" />
  <path
     inkscape:connector-curvature="0"
     style="font-style:normal;font-variant:normal;font-weight:bold;font-stretch:normal;font-size:13.33333302px;line-height:1.25;font-family:monospace;-inkscape-font-specification:'monospace Bold';letter-spacing:0px;word-spacing:0px;fill:#00aeee;fill-opacity:1;stroke:none;stroke-width:0.26404655"
     id="path20714"
     d="m 54.536116,219.75718 h -2.56565 v -0.5073 h 2.118852 v -1.0851 h 0.446798 z" />
  <path
     inkscape:connector-curvature="0"
     style="font-style:normal;font-variant:normal;font-weight:bold;font-stretch:normal;font-size:13.33333302px;line-height:1.25;font-family:monospace;-inkscape-font-specification:'monospace Bold';letter-spacing:0px;word-spacing:0px;fill:#00aeee;fill-opacity:1;stroke:none;stroke-width:0.26404655"
     id="path20716"
     d="m 53.632209,216.82001 q 0,0.28203 0.07218,0.3938 0.07218,0.11178 0.247457,0.11178 0.130602,0 0.207933,-0.0774 0.07733,-0.0774 0.07733,-0.2098 0,-0.19948 -0.149506,-0.30954 -0.151225,-0.11006 -0.42102,-0.11006 h -0.03437 z m -0.194186,-0.70162 h 1.098093 v 0.50042 H 54.32131 q 0.127165,0.0911 0.195904,0.23388 0.06874,0.14272 0.06874,0.31469 0,0.32845 -0.173563,0.51246 -0.173563,0.18228 -0.484604,0.18228 -0.336817,0 -0.496633,-0.21839 -0.161535,-0.2184 -0.161535,-0.67583 v -0.34909 h -0.0842 q -0.12201,0 -0.183873,0.0894 -0.06358,0.0877 -0.06358,0.25967 0,0.18057 0.0464,0.35081 0.04468,0.16853 0.144351,0.35253 h -0.429614 q -0.06874,-0.16681 -0.101388,-0.33877 -0.03265,-0.17197 -0.03265,-0.36457 0,-0.46947 0.190749,-0.65863 0.190747,-0.19088 0.682224,-0.19088 z" />
  <path
     inkscape:connector-curvature="0"
     style="font-style:normal;font-variant:normal;font-weight:bold;font-stretch:normal;font-size:13.33333302px;line-height:1.25;font-family:monospace;-inkscape-font-specification:'monospace Bold';letter-spacing:0px;word-spacing:0px;fill:#00aeee;fill-opacity:1;stroke:none;stroke-width:0.26404655"
     id="path20718"
     d="m 54.744048,214.68076 q 0.271517,0.10146 0.395246,0.24419 0.125446,0.14101 0.125446,0.34393 v 0.41616 h -0.383216 v -0.20464 q 0,-0.15477 -0.05327,-0.22699 -0.05155,-0.0722 -0.242302,-0.14618 l -0.103106,-0.0378 -1.871396,0.73257 v -0.52965 l 1.249317,-0.44023 -1.249317,-0.42132 v -0.52965 z" />
  <path
     inkscape:connector-curvature="0"
     style="font-style:normal;font-variant:normal;font-weight:bold;font-stretch:normal;font-size:13.33333302px;line-height:1.25;font-family:monospace;-inkscape-font-specification:'monospace Bold';letter-spacing:0px;word-spacing:0px;fill:#00aeee;fill-opacity:1;stroke:none;stroke-width:0.26404655"
     id="path20720"
     d="m 54.441602,211.88804 q 0.07217,0.17541 0.10826,0.35769 0.03609,0.18228 0.03609,0.3852 0,0.48323 -0.257767,0.73945 -0.259486,0.25451 -0.745808,0.25451 -0.470858,0 -0.74409,-0.24591 -0.273235,-0.24591 -0.273235,-0.67066 0,-0.4282 0.25433,-0.66379 0.252613,-0.23731 0.71316,-0.23731 h 0.204496 v 1.30522 q 0.226834,-0.002 0.338535,-0.13414 0.1117,-0.13241 0.1117,-0.39552 0,-0.17368 -0.04984,-0.34221 -0.04983,-0.16852 -0.158098,-0.35253 z m -1.082628,0.42648 q -0.199338,0.003 -0.300728,0.10318 -0.103106,0.098 -0.103106,0.29062 0,0.17368 0.106543,0.27686 0.104826,0.10318 0.29901,0.1221 z" />
  <path
     inkscape:connector-curvature="0"
     style="font-style:normal;font-variant:normal;font-weight:bold;font-stretch:normal;font-size:13.33333302px;line-height:1.25;font-family:monospace;-inkscape-font-specification:'monospace Bold';letter-spacing:0px;word-spacing:0px;fill:#00aeee;fill-opacity:1;stroke:none;stroke-width:0.26404655"
     id="path20722"
     d="m 53.14245,209.68345 q -0.07561,0.0825 -0.113419,0.19432 -0.0378,0.11005 -0.0378,0.24247 0,0.15993 0.05671,0.2803 0.05499,0.11866 0.161535,0.18401 0.0653,0.0413 0.158098,0.0585 0.09279,0.0155 0.281824,0.0155 h 0.886723 v 0.50386 h -1.924668 v -0.50386 h 0.299012 q -0.164971,-0.0739 -0.254333,-0.22699 -0.09108,-0.15305 -0.09108,-0.35769 0,-0.10318 0.02579,-0.2012 0.02405,-0.0997 0.07218,-0.18916 z" />
  <path
     inkscape:connector-curvature="0"
     style="font-style:normal;font-variant:normal;font-weight:bold;font-stretch:normal;font-size:13.33333302px;line-height:1.25;font-family:monospace;-inkscape-font-specification:'monospace Bold';letter-spacing:0px;word-spacing:0px;fill:#00aeee;fill-opacity:1;stroke:none;stroke-width:0.26404655"
     id="path20724"
     d="m 53.388189,206.47801 v 0.27171 h -0.446798 v -0.27171 q 0,-0.18916 -0.07389,-0.29234 -0.07561,-0.1049 -0.211372,-0.1049 -0.14263,0 -0.221679,0.1049 -0.08077,0.10318 -0.08077,0.29234 0,0.14445 0.03609,0.30954 0.03609,0.16509 0.104825,0.34221 H 52.03405 q -0.05327,-0.17712 -0.08077,-0.34909 -0.02921,-0.17196 -0.02921,-0.33017 0,-0.40584 0.177,-0.63283 0.177,-0.227 0.488041,-0.227 0.228553,0 0.374623,0.1307 0.144348,0.13069 0.189028,0.37316 0.04812,-0.27514 0.219964,-0.41959 0.170126,-0.14446 0.448516,-0.14446 0.372904,0 0.568806,0.23903 0.195904,0.23904 0.195904,0.69475 0,0.19432 -0.03265,0.38348 -0.03265,0.18744 -0.09451,0.35941 h -0.470855 q 0.08077,-0.16165 0.123729,-0.34909 0.04124,-0.18745 0.04124,-0.3938 0,-0.20636 -0.09452,-0.32674 -0.09623,-0.12037 -0.257767,-0.12037 -0.197623,0 -0.304166,0.12037 -0.108263,0.12038 -0.108264,0.34049 z" />
  <path
     inkscape:connector-curvature="0"
     style="font-style:normal;font-variant:normal;font-weight:bold;font-stretch:normal;font-size:13.33333302px;line-height:1.25;font-family:monospace;-inkscape-font-specification:'monospace Bold';letter-spacing:0px;word-spacing:0px;fill:#00aeee;fill-opacity:1;stroke:none;stroke-width:0.26404655"
     id="path20726"
     d="m 53.41053,202.30441 q -0.14607,0.38348 -0.305886,0.51934 -0.161535,0.13585 -0.433049,0.13585 -0.348847,0 -0.548188,-0.22355 -0.199339,-0.22356 -0.199339,-0.61392 0,-0.17713 0.04124,-0.35425 0.03953,-0.17712 0.118574,-0.35081 h 0.494914 q -0.115137,0.16337 -0.175284,0.3319 -0.06014,0.16852 -0.06014,0.33361 0,0.184 0.07389,0.28202 0.07389,0.098 0.21137,0.098 0.106542,0 0.177,-0.0705 0.06874,-0.0722 0.152943,-0.29922 l 0.08249,-0.2184 q 0.113415,-0.30954 0.300728,-0.45571 0.187312,-0.14617 0.472573,-0.14617 0.388372,0 0.58084,0.23044 0.190746,0.22871 0.190746,0.69301 0,0.19089 -0.0464,0.38349 -0.04468,0.19088 -0.134038,0.36972 h -0.524129 q 0.144351,-0.20292 0.214806,-0.39208 0.07046,-0.19088 0.07046,-0.3766 0,-0.18744 -0.0842,-0.29062 -0.08592,-0.10318 -0.238865,-0.10318 -0.115137,0 -0.20106,0.0688 -0.08764,0.0688 -0.137475,0.19948 z" />
  <path
     inkscape:connector-curvature="0"
     style="font-style:normal;font-variant:normal;font-weight:bold;font-stretch:normal;font-size:13.33333302px;line-height:1.25;font-family:monospace;-inkscape-font-specification:'monospace Bold';letter-spacing:0px;word-spacing:0px;fill:#00aeee;fill-opacity:1;stroke:none;stroke-width:0.26404655"
     id="path20728"
     d="m 52.611448,200.68106 v -0.9974 h 1.538017 v -0.62596 h 0.386651 v 1.75749 h -0.386651 v -0.62767 h -1.151364 v 0.49354 z m -0.936555,-0.49354 v -0.50386 h 0.58771 v 0.50386 z" />
  <path
     inkscape:connector-curvature="0"
     style="font-style:normal;font-variant:normal;font-weight:bold;font-stretch:normal;font-size:13.33333302px;line-height:1.25;font-family:monospace;-inkscape-font-specification:'monospace Bold';letter-spacing:0px;word-spacing:0px;fill:#00aeee;fill-opacity:1;stroke:none;stroke-width:0.26404655"
     id="path20730"
     d="m 54.441602,197.04571 q 0.07217,0.17541 0.10826,0.35769 0.03609,0.18228 0.03609,0.3852 0,0.48322 -0.257767,0.73945 -0.259486,0.25451 -0.745808,0.25451 -0.470858,0 -0.74409,-0.24591 -0.273235,-0.24591 -0.273235,-0.67066 0,-0.4282 0.25433,-0.66379 0.252613,-0.23731 0.71316,-0.23731 h 0.204496 v 1.30521 q 0.226834,-0.002 0.338535,-0.13413 0.1117,-0.13241 0.1117,-0.39552 0,-0.17368 -0.04984,-0.34221 -0.04983,-0.16853 -0.158098,-0.35253 z m -1.082628,0.42648 q -0.199338,0.003 -0.300728,0.10317 -0.103106,0.098 -0.103106,0.29063 0,0.17368 0.106543,0.27686 0.104826,0.10318 0.29901,0.1221 z" />
  <path
     inkscape:connector-curvature="0"
     style="font-style:normal;font-variant:normal;font-weight:bold;font-stretch:normal;font-size:13.33333302px;line-height:1.25;font-family:monospace;-inkscape-font-specification:'monospace Bold';letter-spacing:0px;word-spacing:0px;fill:#00aeee;fill-opacity:1;stroke:none;stroke-width:0.26404655"
     id="path20732"
     d="m 52.884683,195.46019 h -1.02248 v -0.50214 h 2.673913 v 0.50214 h -0.285264 q 0.16669,0.0808 0.250894,0.2098 0.0842,0.12725 0.0842,0.30094 0,0.33017 -0.26464,0.51246 -0.264644,0.18228 -0.745809,0.18228 -0.488041,0 -0.749245,-0.184 -0.261206,-0.18573 -0.261206,-0.52794 0,-0.15477 0.08077,-0.27686 0.07905,-0.12382 0.238867,-0.21668 z m 0.694255,0.70162 q 0.27839,0 0.436485,-0.0929 0.158099,-0.0929 0.158099,-0.25623 0,-0.16337 -0.158099,-0.25795 -0.158095,-0.0946 -0.436485,-0.0946 -0.27839,0 -0.436488,0.0946 -0.158098,0.0946 -0.158098,0.25795 0,0.16337 0.158098,0.25623 0.158098,0.0929 0.436488,0.0929 z" />
  <path
     inkscape:connector-curvature="0"
     style="font-style:normal;font-variant:normal;font-weight:bold;font-stretch:normal;font-size:13.33333302px;line-height:1.25;font-family:monospace;-inkscape-font-specification:'monospace Bold';letter-spacing:0px;word-spacing:0px;fill:#00aeee;fill-opacity:1;stroke:none;stroke-width:0.26404655"
     id="path20734"
     d="m 53.733599,194.0346 h -1.484743 v 0.51073 h -0.386653 v -1.01459 h 1.871396 q 0.226835,0 0.321349,-0.0705 0.09452,-0.0705 0.09452,-0.23904 v -0.4024 h 0.386651 v 0.54341 q 0,0.35941 -0.185595,0.5159 -0.185591,0.15649 -0.616922,0.15649 z" />
  <path
     inkscape:connector-curvature="0"
     style="font-style:normal;font-variant:normal;font-weight:bold;font-stretch:normal;font-size:13.33333302px;line-height:1.25;font-family:monospace;-inkscape-font-specification:'monospace Bold';letter-spacing:0px;word-spacing:0px;fill:#00aeee;fill-opacity:1;stroke:none;stroke-width:0.26404655"
     id="path20736"
     d="m 54.441602,190.68471 q 0.07217,0.17541 0.10826,0.35769 0.03609,0.18228 0.03609,0.3852 0,0.48322 -0.257767,0.73945 -0.259486,0.25451 -0.745808,0.25451 -0.470858,0 -0.74409,-0.24591 -0.273235,-0.24591 -0.273235,-0.67066 0,-0.4282 0.25433,-0.66379 0.252613,-0.23731 0.71316,-0.23731 h 0.204496 v 1.30521 q 0.226834,-0.002 0.338535,-0.13413 0.1117,-0.13241 0.1117,-0.39552 0,-0.17368 -0.04984,-0.34221 -0.04983,-0.16852 -0.158098,-0.35253 z m -1.082628,0.42648 q -0.199338,0.003 -0.300728,0.10317 -0.103106,0.098 -0.103106,0.29063 0,0.17368 0.106543,0.27686 0.104826,0.10318 0.29901,0.1221 z" />
  <path
     inkscape:connector-curvature="0"
     style="font-style:normal;font-variant:normal;font-weight:bold;font-stretch:normal;font-size:13.33333302px;line-height:1.25;font-family:monospace;-inkscape-font-specification:'monospace Bold';letter-spacing:0px;word-spacing:0px;fill:#00aeee;fill-opacity:1;stroke:none;stroke-width:0.26404655"
     id="path20738"
     d="m 51.970466,188.13447 v -0.54513 l 1.864521,-0.71538 h -1.864521 v -0.44711 h 2.56565 v 0.54169 l -1.864521,0.71881 h 1.864521 v 0.44712 z" />
  <path
     inkscape:connector-curvature="0"
     style="font-style:normal;font-variant:normal;font-weight:bold;font-stretch:normal;font-size:13.33333302px;line-height:1.25;font-family:monospace;-inkscape-font-specification:'monospace Bold';letter-spacing:0px;word-spacing:0px;fill:#00aeee;fill-opacity:1;stroke:none;stroke-width:0.26404655"
     id="path20740"
     d="m 52.974042,185.15946 q 0,0.18057 0.159816,0.28375 0.158098,0.10318 0.441643,0.10318 0.283545,0 0.443359,-0.10318 0.158098,-0.10318 0.158098,-0.28375 0,-0.18228 -0.158098,-0.28546 -0.159814,-0.10318 -0.443359,-0.10318 -0.283545,0 -0.441643,0.10318 -0.159816,0.10318 -0.159816,0.28546 z m 0.601459,0.89079 q -0.465702,0 -0.737216,-0.24076 -0.273235,-0.24247 -0.273235,-0.65003 0,-0.40927 0.273235,-0.65002 0.271514,-0.24248 0.737216,-0.24248 0.4657,0 0.738935,0.24248 0.271514,0.24075 0.271514,0.65002 0,0.40756 -0.271514,0.65003 -0.273235,0.24076 -0.738935,0.24076 z" />
  <path
     inkscape:connector-curvature="0"
     style="font-style:normal;font-variant:normal;font-weight:bold;font-stretch:normal;font-size:13.33333302px;line-height:1.25;font-family:monospace;-inkscape-font-specification:'monospace Bold';letter-spacing:0px;word-spacing:0px;fill:#00aeee;fill-opacity:1;stroke:none;stroke-width:0.26404655"
     id="path20742"
     d="m 52.434448,183.03913 1.049973,0.23903 v -0.47978 z m -0.463982,0.30954 v -0.62079 l 2.56565,-0.69303 v 0.5073 l -0.634108,0.15821 v 0.67926 l 0.634108,0.15477 v 0.5073 z" />
  <path
     inkscape:connector-curvature="0"
     style="font-style:normal;font-variant:normal;font-weight:bold;font-stretch:normal;font-size:13.33333302px;line-height:1.25;font-family:monospace;-inkscape-font-specification:'monospace Bold';letter-spacing:0px;word-spacing:0px;fill:#00aeee;fill-opacity:1;stroke:none;stroke-width:0.26404655"
     id="path20744"
     d="m 52.803915,180.79154 q -0.12201,-0.0567 -0.180436,-0.14445 -0.05843,-0.0877 -0.05843,-0.21495 0,-0.24936 0.171845,-0.34393 0.171847,-0.0963 0.714878,-0.0963 h 1.084343 v 0.41272 h -1.235568 q -0.214806,0 -0.286982,0.0327 -0.07218,0.0327 -0.07218,0.11865 0,0.086 0.07389,0.12038 0.07389,0.0344 0.285263,0.0344 h 1.235568 v 0.40756 h -1.235568 q -0.211369,0 -0.285263,0.0344 -0.07389,0.0344 -0.07389,0.12038 0,0.086 0.07218,0.11865 0.07218,0.0327 0.286982,0.0327 h 1.235568 v 0.41271 h -1.924668 v -0.36628 h 0.199341 q -0.113419,-0.043 -0.178719,-0.13757 -0.06702,-0.0946 -0.06702,-0.21152 0,-0.11694 0.07046,-0.21324 0.06874,-0.0963 0.168408,-0.11694 z" />
  <path
     inkscape:connector-curvature="0"
     style="font-style:normal;font-variant:normal;font-weight:bold;font-stretch:normal;font-size:13.33333302px;line-height:1.25;font-family:monospace;-inkscape-font-specification:'monospace Bold';letter-spacing:0px;word-spacing:0px;fill:#00aeee;fill-opacity:1;stroke:none;stroke-width:0.26404655"
     id="path20746"
     d="m 54.264599,179.09769 h 1.003578 v 0.50213 h -2.656729 v -0.50213 h 0.2887 q -0.16669,-0.0791 -0.250894,-0.20808 -0.0842,-0.12898 -0.0842,-0.30266 0,-0.33018 0.264643,-0.51246 0.264641,-0.18228 0.745808,-0.18228 0.488041,0 0.749245,0.18572 0.261204,0.184 0.261204,0.52621 0,0.15477 -0.07905,0.27859 -0.08077,0.1221 -0.242302,0.21496 z m -0.692534,-0.70162 q -0.27839,0 -0.436488,0.0929 -0.158099,0.0929 -0.158099,0.25623 0,0.16336 0.158099,0.25794 0.158098,0.0946 0.436488,0.0946 0.278387,0 0.436485,-0.0946 0.158098,-0.0946 0.158098,-0.25794 0,-0.16337 -0.158098,-0.25623 -0.158098,-0.0929 -0.436485,-0.0929 z" />
  <path
     inkscape:connector-curvature="0"
     d="m 69.072895,52.322895 c 0.550775,0 0.99773,-0.446915 0.99773,-0.998076 0,-0.551513 -0.446955,-0.998429 -0.99773,-0.998429 -0.550775,0 -0.997376,0.446916 -0.997376,0.998429 0,0.551161 0.446601,0.998076 0.997376,0.998076"
     style="clip-rule:evenodd;fill:none;fill-rule:nonzero;stroke:#ea0088;stroke-width:0.35205615;stroke-miterlimit:10;stroke-opacity:1"
     id="path561-9-1" />
  <path
     inkscape:connector-curvature="0"
     d="m 68.03948,51.324893 h 2.111632"
     style="clip-rule:evenodd;fill:none;fill-rule:nonzero;stroke:#000000;stroke-width:0.23754883px;stroke-miterlimit:10;stroke-opacity:1"
     id="path565-7-5" />
  <path
     inkscape:connector-curvature="0"
     d="M 69.073241,52.366734 V 50.253621"
     style="clip-rule:evenodd;fill:none;fill-rule:nonzero;stroke:#000000;stroke-width:0.23754881px;stroke-miterlimit:10;stroke-opacity:1"
     id="path569-2-4" />
  <path
     inkscape:connector-curvature="0"
     d="m 168.83519,52.322893 c 0.55077,0 0.99773,-0.446916 0.99773,-0.998077 0,-0.551513 -0.44696,-0.998429 -0.99773,-0.998429 -0.55078,0 -0.99738,0.446916 -0.99738,0.998429 0,0.551161 0.4466,0.998077 0.99738,0.998077"
     style="clip-rule:evenodd;fill:none;fill-rule:nonzero;stroke:#ea0088;stroke-width:0.35205615;stroke-miterlimit:10;stroke-opacity:1"
     id="path561-9-1-2" />
  <path
     inkscape:connector-curvature="0"
     d="m 167.80177,51.324889 h 2.11164"
     style="clip-rule:evenodd;fill:none;fill-rule:nonzero;stroke:#000000;stroke-width:0.23754883px;stroke-miterlimit:10;stroke-opacity:1"
     id="path565-7-5-3" />
  <path
     inkscape:connector-curvature="0"
     d="M 168.83554,52.366732 V 50.253619"
     style="clip-rule:evenodd;fill:none;fill-rule:nonzero;stroke:#000000;stroke-width:0.23754881px;stroke-miterlimit:10;stroke-opacity:1"
     id="path569-2-4-0" />
  <path
     inkscape:connector-curvature="0"
     d="m 58.963055,52.271655 c 0.550727,0 0.997643,-0.446889 0.997643,-0.998017 0,-0.551479 -0.446916,-0.998368 -0.997643,-0.998368 -0.550728,0 -0.997294,0.446889 -0.997294,0.998368 0,0.551128 0.446566,0.998017 0.997294,0.998017"
     style="clip-rule:evenodd;fill:none;fill-rule:nonzero;stroke:#ea0088;stroke-width:0.35203058;stroke-miterlimit:10;stroke-opacity:1"
     id="path561-9-1-81" />
  <path
     inkscape:connector-curvature="0"
     d="m 57.929825,51.273744 h 2.111452"
     style="clip-rule:evenodd;fill:none;fill-rule:nonzero;stroke:#000000;stroke-width:0.23753151px;stroke-miterlimit:10;stroke-opacity:1"
     id="path565-7-5-39" />
  <path
     inkscape:connector-curvature="0"
     d="M 58.963539,52.31559 V 50.202607"
     style="clip-rule:evenodd;fill:none;fill-rule:nonzero;stroke:#000000;stroke-width:0.23753138px;stroke-miterlimit:10;stroke-opacity:1"
     id="path569-2-4-8" />
  <path
     inkscape:connector-curvature="0"
     d="m 158.71678,52.271655 c 0.55073,0 0.99764,-0.446889 0.99764,-0.998017 0,-0.551479 -0.44691,-0.998368 -0.99764,-0.998368 -0.55073,0 -0.9973,0.446889 -0.9973,0.998368 0,0.551128 0.44657,0.998017 0.9973,0.998017"
     style="clip-rule:evenodd;fill:none;fill-rule:nonzero;stroke:#ea0088;stroke-width:0.35203058;stroke-miterlimit:10;stroke-opacity:1"
     id="path561-9-1-3" />
  <path
     inkscape:connector-curvature="0"
     d="M 157.68355,51.273744 H 159.795"
     style="clip-rule:evenodd;fill:none;fill-rule:nonzero;stroke:#000000;stroke-width:0.23753151px;stroke-miterlimit:10;stroke-opacity:1"
     id="path565-7-5-6-8" />
  <path
     inkscape:connector-curvature="0"
     d="M 158.71726,52.31559 V 50.202607"
     style="clip-rule:evenodd;fill:none;fill-rule:nonzero;stroke:#000000;stroke-width:0.23753138px;stroke-miterlimit:10;stroke-opacity:1"
     id="path569-2-4-2" />
  <path
     inkscape:connector-curvature="0"
     d="m 69.072895,246.98433 c 0.550775,0 0.99773,-0.44691 0.99773,-0.99807 0,-0.55152 -0.446955,-0.99843 -0.99773,-0.99843 -0.550773,0 -0.997376,0.44691 -0.997376,0.99843 0,0.55116 0.446603,0.99807 0.997376,0.99807"
     style="clip-rule:evenodd;fill:none;fill-rule:nonzero;stroke:#ea0088;stroke-width:0.35205615;stroke-miterlimit:10;stroke-opacity:1"
     id="path561-9-1-27" />
  <path
     inkscape:connector-curvature="0"
     d="m 68.03948,245.98633 h 2.111632"
     style="clip-rule:evenodd;fill:none;fill-rule:nonzero;stroke:#000000;stroke-width:0.23754881px;stroke-miterlimit:10;stroke-opacity:1"
     id="path565-7-5-0" />
  <path
     inkscape:connector-curvature="0"
     d="m 69.073241,247.02817 v -2.11311"
     style="clip-rule:evenodd;fill:none;fill-rule:nonzero;stroke:#000000;stroke-width:0.23754881px;stroke-miterlimit:10;stroke-opacity:1"
     id="path569-2-4-9" />
  <path
     inkscape:connector-curvature="0"
     d="m 168.83519,246.98433 c 0.55077,0 0.99773,-0.44691 0.99773,-0.99807 0,-0.55152 -0.44696,-0.99843 -0.99773,-0.99843 -0.55078,0 -0.99738,0.44691 -0.99738,0.99843 0,0.55116 0.4466,0.99807 0.99738,0.99807"
     style="clip-rule:evenodd;fill:none;fill-rule:nonzero;stroke:#ea0088;stroke-width:0.35205615;stroke-miterlimit:10;stroke-opacity:1"
     id="path561-9-1-2-3" />
  <path
     inkscape:connector-curvature="0"
     d="m 167.80177,245.98633 h 2.11164"
     style="clip-rule:evenodd;fill:none;fill-rule:nonzero;stroke:#000000;stroke-width:0.23754881px;stroke-miterlimit:10;stroke-opacity:1"
     id="path565-7-5-3-6" />
  <path
     inkscape:connector-curvature="0"
     d="m 168.83554,247.02817 v -2.11311"
     style="clip-rule:evenodd;fill:none;fill-rule:nonzero;stroke:#000000;stroke-width:0.23754881px;stroke-miterlimit:10;stroke-opacity:1"
     id="path569-2-4-0-06" />
  <path
     inkscape:connector-curvature="0"
     d="m 58.963055,246.93309 c 0.550727,0 0.997643,-0.44689 0.997643,-0.99801 0,-0.55148 -0.446916,-0.99837 -0.997643,-0.99837 -0.550731,0 -0.997294,0.44689 -0.997294,0.99837 0,0.55112 0.446563,0.99801 0.997294,0.99801"
     style="clip-rule:evenodd;fill:none;fill-rule:nonzero;stroke:#ea0088;stroke-width:0.35203058;stroke-miterlimit:10;stroke-opacity:1"
     id="path561-9-1-81-2" />
  <path
     inkscape:connector-curvature="0"
     d="m 57.929825,245.93518 h 2.111452"
     style="clip-rule:evenodd;fill:none;fill-rule:nonzero;stroke:#000000;stroke-width:0.23753151px;stroke-miterlimit:10;stroke-opacity:1"
     id="path565-7-5-39-6" />
  <path
     inkscape:connector-curvature="0"
     d="m 58.963536,246.97703 v -2.11298"
     style="clip-rule:evenodd;fill:none;fill-rule:nonzero;stroke:#000000;stroke-width:0.23753138px;stroke-miterlimit:10;stroke-opacity:1"
     id="path569-2-4-8-1" />
  <path
     inkscape:connector-curvature="0"
     d="m 158.71678,246.93309 c 0.55072,0 0.99764,-0.44689 0.99764,-0.99801 0,-0.55148 -0.44692,-0.99837 -0.99764,-0.99837 -0.55073,0 -0.9973,0.44689 -0.9973,0.99837 0,0.55112 0.44657,0.99801 0.9973,0.99801"
     style="clip-rule:evenodd;fill:none;fill-rule:nonzero;stroke:#ea0088;stroke-width:0.35203058;stroke-miterlimit:10;stroke-opacity:1"
     id="path561-9-1-3-8" />
  <path
     inkscape:connector-curvature="0"
     d="M 157.68355,245.93518 H 159.795"
     style="clip-rule:evenodd;fill:none;fill-rule:nonzero;stroke:#000000;stroke-width:0.23753151px;stroke-miterlimit:10;stroke-opacity:1"
     id="path565-7-5-6-8-7" />
  <path
     inkscape:connector-curvature="0"
     d="m 158.71726,246.97703 v -2.11298"
     style="clip-rule:evenodd;fill:none;fill-rule:nonzero;stroke:#000000;stroke-width:0.23753138px;stroke-miterlimit:10;stroke-opacity:1"
     id="path569-2-4-2-9" />
  <path
     inkscape:connector-curvature="0"
     style="fill:none;stroke:#211e1e;stroke-width:0.08645989;stroke-linecap:butt;stroke-linejoin:miter;stroke-miterlimit:10;stroke-opacity:1"
     d="M 40.977974,253.45441 H 30.873378 V 43.804921 h 10.104596"
     id="path296" />
  <path
     inkscape:connector-curvature="0"
     id="path11380"
     style="font-style:normal;font-variant:normal;font-weight:bold;font-stretch:normal;font-size:medium;line-height:125%;font-family:monospace;-inkscape-font-specification:'monospace Bold';letter-spacing:0px;word-spacing:0px;fill:#000000;fill-opacity:1;stroke:none;stroke-width:0.26458332px;stroke-linecap:butt;stroke-linejoin:miter;stroke-opacity:1"
     d="m 35.842915,171.12959 q -0.146415,0.38412 -0.306612,0.52021 -0.16192,0.13608 -0.434083,0.13608 -0.349676,0 -0.549492,-0.22393 -0.199816,-0.22393 -0.199816,-0.61495 0,-0.17743 0.04134,-0.35485 0.03962,-0.17742 0.118856,-0.3514 h 0.496094 q -0.115411,0.16364 -0.175699,0.33245 -0.06029,0.16881 -0.06029,0.33418 0,0.18431 0.07407,0.2825 0.07407,0.0982 0.211873,0.0982 0.106799,0 0.177422,-0.0706 0.0689,-0.0724 0.153307,-0.29973 l 0.08268,-0.21876 q 0.113688,-0.31006 0.301445,-0.45648 0.187759,-0.14641 0.473702,-0.14641 0.389294,0 0.582221,0.23082 0.191203,0.2291 0.191203,0.69419 0,0.1912 -0.04651,0.38412 -0.04479,0.19121 -0.134358,0.37035 H 36.31489 q 0.144696,-0.20326 0.215321,-0.39274 0.07062,-0.1912 0.07062,-0.37724 0,-0.18775 -0.08441,-0.29111 -0.08613,-0.10335 -0.239432,-0.10335 -0.115411,0 -0.201539,0.0689 -0.08785,0.0689 -0.137805,0.19982 z" />
  <path
     inkscape:connector-curvature="0"
     id="path11382"
     style="font-style:normal;font-variant:normal;font-weight:bold;font-stretch:normal;font-size:medium;line-height:125%;font-family:monospace;-inkscape-font-specification:'monospace Bold';letter-spacing:0px;word-spacing:0px;fill:#000000;fill-opacity:1;stroke:none;stroke-width:0.26458332px;stroke-linecap:butt;stroke-linejoin:miter;stroke-opacity:1"
     d="m 35.718892,168.04106 h 1.252291 v 0.50126 h -1.174776 q -0.208428,0 -0.298,0.0603 -0.08957,0.0586 -0.08957,0.19292 0,0.13781 0.122301,0.21532 0.120576,0.0775 0.335896,0.0775 h 1.104151 v 0.50126 h -2.680282 v -0.50126 h 1.040419 q -0.160197,-0.0534 -0.248047,-0.18259 -0.08785,-0.12919 -0.08785,-0.31178 0,-0.27389 0.182589,-0.41342 0.180867,-0.13952 0.54088,-0.13952 z" />
  <path
     inkscape:connector-curvature="0"
     id="path11384"
     style="font-style:normal;font-variant:normal;font-weight:bold;font-stretch:normal;font-size:medium;line-height:125%;font-family:monospace;-inkscape-font-specification:'monospace Bold';letter-spacing:0px;word-spacing:0px;fill:#000000;fill-opacity:1;stroke:none;stroke-width:0.26458332px;stroke-linecap:butt;stroke-linejoin:miter;stroke-opacity:1"
     d="m 36.876444,165.86548 q 0.07235,0.1757 0.108522,0.35829 0.03617,0.18259 0.03617,0.38585 0,0.48404 -0.258384,0.7407 -0.260104,0.25493 -0.747585,0.25493 -0.471977,0 -0.745863,-0.24632 -0.273884,-0.24632 -0.273884,-0.67179 0,-0.42892 0.254937,-0.66491 0.253214,-0.23771 0.714856,-0.23771 H 36.1702 v 1.30741 q 0.227375,-0.002 0.339341,-0.13435 0.111967,-0.13264 0.111967,-0.39619 0,-0.17398 -0.04995,-0.34279 -0.04996,-0.16881 -0.158475,-0.35312 z m -1.085204,0.42719 q -0.199816,0.003 -0.301445,0.10335 -0.103355,0.0982 -0.103355,0.29112 0,0.17397 0.1068,0.27733 0.105073,0.10335 0.299722,0.1223 z" />
  <path
     inkscape:connector-curvature="0"
     id="path11386"
     style="font-style:normal;font-variant:normal;font-weight:bold;font-stretch:normal;font-size:medium;line-height:125%;font-family:monospace;-inkscape-font-specification:'monospace Bold';letter-spacing:0px;word-spacing:0px;fill:#000000;fill-opacity:1;stroke:none;stroke-width:0.26458332px;stroke-linecap:butt;stroke-linejoin:miter;stroke-opacity:1"
     d="m 36.876444,163.7433 q 0.07235,0.1757 0.108522,0.35829 0.03617,0.18259 0.03617,0.38585 0,0.48404 -0.258384,0.7407 -0.260104,0.25493 -0.747585,0.25493 -0.471977,0 -0.745863,-0.24632 -0.273884,-0.24632 -0.273884,-0.67179 0,-0.42892 0.254937,-0.66491 0.253214,-0.23771 0.714856,-0.23771 H 36.1702 v 1.30742 q 0.227375,-0.002 0.339341,-0.13436 0.111967,-0.13264 0.111967,-0.39619 0,-0.17398 -0.04995,-0.34278 -0.04996,-0.16882 -0.158475,-0.35313 z m -1.085204,0.42719 q -0.199816,0.003 -0.301445,0.10336 -0.103355,0.0982 -0.103355,0.29111 0,0.17397 0.1068,0.27733 0.105073,0.10335 0.299722,0.1223 z" />
  <path
     inkscape:connector-curvature="0"
     id="path11388"
     style="font-style:normal;font-variant:normal;font-weight:bold;font-stretch:normal;font-size:medium;line-height:125%;font-family:monospace;-inkscape-font-specification:'monospace Bold';letter-spacing:0px;word-spacing:0px;fill:#000000;fill-opacity:1;stroke:none;stroke-width:0.26458332px;stroke-linecap:butt;stroke-linejoin:miter;stroke-opacity:1"
     d="m 34.49416,162.33081 h 0.547772 v -0.65973 h 0.387572 v 0.65973 h 0.91295 q 0.129191,0 0.186037,-0.062 0.05512,-0.0637 0.05512,-0.21015 v -0.38757 h 0.387572 v 0.42374 q 0,0.43409 -0.137802,0.58739 -0.139526,0.15331 -0.515041,0.15331 h -0.888836 v 0.49265 h -0.387572 v -0.49265 H 34.49416 Z" />
  <path
     inkscape:connector-curvature="0"
     id="path11390"
     style="font-style:normal;font-variant:normal;font-weight:bold;font-stretch:normal;font-size:medium;line-height:125%;font-family:monospace;-inkscape-font-specification:'monospace Bold';letter-spacing:0px;word-spacing:0px;fill:#000000;fill-opacity:1;stroke:none;stroke-width:0.26458332px;stroke-linecap:butt;stroke-linejoin:miter;stroke-opacity:1"
     d="m 34.964417,158.07957 1.016301,0.6494 v -0.6494 z m -0.564997,0.0448 v -0.53227 h 1.581298 v -0.28249 h 0.435806 v 0.28249 h 0.554659 v 0.48749 h -0.554659 v 1.01974 h -0.492649 z" />
  <path
     inkscape:connector-curvature="0"
     id="path11392"
     style="font-style:normal;font-variant:normal;font-weight:bold;font-stretch:normal;font-size:medium;line-height:125%;font-family:monospace;-inkscape-font-specification:'monospace Bold';letter-spacing:0px;word-spacing:0px;fill:#000000;fill-opacity:1;stroke:none;stroke-width:0.26458332px;stroke-linecap:butt;stroke-linejoin:miter;stroke-opacity:1"
     d="m 35.705113,154.51217 v -1.08693 h 0.501261 v 1.08693 z" />
  <path
     inkscape:connector-curvature="0"
     id="path11394"
     style="font-style:normal;font-variant:normal;font-weight:bold;font-stretch:normal;font-size:medium;line-height:125%;font-family:monospace;-inkscape-font-specification:'monospace Bold';letter-spacing:0px;word-spacing:0px;fill:#000000;fill-opacity:1;stroke:none;stroke-width:0.26458332px;stroke-linecap:butt;stroke-linejoin:miter;stroke-opacity:1"
     d="m 35.842915,149.9078 q -0.146415,0.38413 -0.306612,0.52021 -0.16192,0.13608 -0.434083,0.13608 -0.349676,0 -0.549492,-0.22393 -0.199816,-0.22393 -0.199816,-0.61495 0,-0.17742 0.04134,-0.35484 0.03962,-0.17743 0.118856,-0.35141 h 0.496094 q -0.115411,0.16365 -0.175699,0.33246 -0.06029,0.16881 -0.06029,0.33417 0,0.18431 0.07407,0.2825 0.07407,0.0982 0.211873,0.0982 0.106799,0 0.177422,-0.0706 0.0689,-0.0724 0.153307,-0.29972 l 0.08268,-0.21877 q 0.113688,-0.31006 0.301445,-0.45647 0.187759,-0.14642 0.473702,-0.14642 0.389294,0 0.582221,0.23082 0.191203,0.2291 0.191203,0.69419 0,0.1912 -0.04651,0.38413 -0.04479,0.1912 -0.134358,0.37034 H 36.31489 q 0.144696,-0.20325 0.215321,-0.39274 0.07062,-0.1912 0.07062,-0.37723 0,-0.18776 -0.08441,-0.29111 -0.08613,-0.10336 -0.239432,-0.10336 -0.115411,0 -0.201539,0.0689 -0.08785,0.0689 -0.137805,0.19981 z" />
  <path
     inkscape:connector-curvature="0"
     id="path11396"
     style="font-style:normal;font-variant:normal;font-weight:bold;font-stretch:normal;font-size:medium;line-height:125%;font-family:monospace;-inkscape-font-specification:'monospace Bold';letter-spacing:0px;word-spacing:0px;fill:#000000;fill-opacity:1;stroke:none;stroke-width:0.26458332px;stroke-linecap:butt;stroke-linejoin:miter;stroke-opacity:1"
     d="m 35.041932,148.28344 v -0.99908 h 1.541679 v -0.62701 h 0.387572 v 1.76045 h -0.387572 v -0.62874 h -1.154107 v 0.49438 z m -0.938789,-0.49438 v -0.5047 h 0.58911 v 0.5047 z" />
  <path
     inkscape:connector-curvature="0"
     id="path11398"
     style="font-style:normal;font-variant:normal;font-weight:bold;font-stretch:normal;font-size:medium;line-height:125%;font-family:monospace;-inkscape-font-specification:'monospace Bold';letter-spacing:0px;word-spacing:0px;fill:#000000;fill-opacity:1;stroke:none;stroke-width:0.26458332px;stroke-linecap:butt;stroke-linejoin:miter;stroke-opacity:1"
     d="m 36.876444,144.64369 q 0.07235,0.1757 0.108522,0.35829 0.03617,0.18259 0.03617,0.38585 0,0.48404 -0.258384,0.7407 -0.260104,0.25494 -0.747585,0.25494 -0.471977,0 -0.745863,-0.24633 -0.273884,-0.24632 -0.273884,-0.67179 0,-0.42892 0.254937,-0.6649 0.253214,-0.23772 0.714856,-0.23772 H 36.1702 v 1.30742 q 0.227375,-0.002 0.339341,-0.13436 0.111967,-0.13264 0.111967,-0.39619 0,-0.17397 -0.04995,-0.34278 -0.04996,-0.16882 -0.158475,-0.35313 z m -1.085204,0.42719 q -0.199816,0.003 -0.301445,0.10336 -0.103355,0.0982 -0.103355,0.29111 0,0.17398 0.1068,0.27733 0.105073,0.10335 0.299722,0.1223 z" />
  <path
     inkscape:connector-curvature="0"
     id="path11400"
     style="font-style:normal;font-variant:normal;font-weight:bold;font-stretch:normal;font-size:medium;line-height:125%;font-family:monospace;-inkscape-font-specification:'monospace Bold';letter-spacing:0px;word-spacing:0px;fill:#000000;fill-opacity:1;stroke:none;stroke-width:0.26458332px;stroke-linecap:butt;stroke-linejoin:miter;stroke-opacity:1"
     d="m 35.315815,143.05723 h -1.024914 v -0.50299 h 2.680282 v 0.50299 H 36.68524 q 0.167087,0.081 0.251495,0.21015 0.0844,0.12747 0.0844,0.30144 0,0.33073 -0.265273,0.51332 -0.265272,0.18259 -0.747586,0.18259 -0.489204,0 -0.75103,-0.18431 -0.261827,-0.18604 -0.261827,-0.52882 0,-0.15503 0.08096,-0.27733 0.07923,-0.12403 0.239432,-0.21704 z m 0.69591,0.7028 q 0.279053,0 0.437528,-0.093 0.158475,-0.093 0.158475,-0.25666 0,-0.16364 -0.158475,-0.25838 -0.158475,-0.0947 -0.437528,-0.0947 -0.279053,0 -0.437526,0.0947 -0.158474,0.0947 -0.158474,0.25838 0,0.16364 0.158474,0.25666 0.158473,0.093 0.437526,0.093 z" />
  <path
     inkscape:connector-curvature="0"
     id="path11402"
     style="font-style:normal;font-variant:normal;font-weight:bold;font-stretch:normal;font-size:medium;line-height:125%;font-family:monospace;-inkscape-font-specification:'monospace Bold';letter-spacing:0px;word-spacing:0px;fill:#000000;fill-opacity:1;stroke:none;stroke-width:0.26458332px;stroke-linecap:butt;stroke-linejoin:miter;stroke-opacity:1"
     d="m 36.166755,141.63096 h -1.488281 v 0.51159 h -0.387573 v -1.0163 h 1.875854 q 0.227375,0 0.322117,-0.0706 0.09474,-0.0706 0.09474,-0.23944 v -0.40307 h 0.387572 v 0.54432 q 0,0.36001 -0.186033,0.51677 -0.186037,0.15675 -0.618395,0.15675 z" />
  <path
     inkscape:connector-curvature="0"
     id="path11404"
     style="font-style:normal;font-variant:normal;font-weight:bold;font-stretch:normal;font-size:medium;line-height:125%;font-family:monospace;-inkscape-font-specification:'monospace Bold';letter-spacing:0px;word-spacing:0px;fill:#000000;fill-opacity:1;stroke:none;stroke-width:0.26458332px;stroke-linecap:butt;stroke-linejoin:miter;stroke-opacity:1"
     d="m 36.876444,138.27716 q 0.07235,0.1757 0.108522,0.35829 0.03617,0.18259 0.03617,0.38585 0,0.48403 -0.258384,0.7407 -0.260104,0.25493 -0.747585,0.25493 -0.471977,0 -0.745863,-0.24632 -0.273884,-0.24633 -0.273884,-0.6718 0,-0.42891 0.254937,-0.6649 0.253214,-0.23771 0.714856,-0.23771 H 36.1702 v 1.30741 q 0.227375,-0.002 0.339341,-0.13436 0.111967,-0.13263 0.111967,-0.39618 0,-0.17398 -0.04995,-0.34279 -0.04996,-0.16881 -0.158475,-0.35312 z m -1.085204,0.42719 q -0.199816,0.003 -0.301445,0.10335 -0.103355,0.0982 -0.103355,0.29111 0,0.17398 0.1068,0.27733 0.105073,0.10336 0.299722,0.1223 z" />
  <path
     inkscape:connector-curvature="0"
     id="path11406"
     style="font-style:normal;font-variant:normal;font-weight:bold;font-stretch:normal;font-size:medium;line-height:125%;font-family:monospace;-inkscape-font-specification:'monospace Bold';letter-spacing:0px;word-spacing:0px;fill:#000000;fill-opacity:1;stroke:none;stroke-width:0.26458332px;stroke-linecap:butt;stroke-linejoin:miter;stroke-opacity:1"
     d="m 34.39942,135.72607 v -0.54605 l 1.868964,-0.71658 H 34.39942 v -0.44786 h 2.571763 v 0.5426 l -1.868963,0.72002 h 1.868963 v 0.44787 z" />
  <path
     inkscape:connector-curvature="0"
     id="path11408"
     style="font-style:normal;font-variant:normal;font-weight:bold;font-stretch:normal;font-size:medium;line-height:125%;font-family:monospace;-inkscape-font-specification:'monospace Bold';letter-spacing:0px;word-spacing:0px;fill:#000000;fill-opacity:1;stroke:none;stroke-width:0.26458332px;stroke-linecap:butt;stroke-linejoin:miter;stroke-opacity:1"
     d="m 35.405387,132.74778 q 0,0.18087 0.160198,0.28422 0.158474,0.10335 0.442695,0.10335 0.284221,0 0.444418,-0.10335 0.158475,-0.10335 0.158475,-0.28422 0,-0.18259 -0.158475,-0.28595 -0.160197,-0.10335 -0.444418,-0.10335 -0.284221,0 -0.442695,0.10335 -0.160198,0.10336 -0.160198,0.28595 z m 0.602893,0.89228 q -0.46681,0 -0.738973,-0.24116 -0.273884,-0.24288 -0.273884,-0.65112 0,-0.40997 0.273884,-0.65113 0.272163,-0.24287 0.738973,-0.24287 0.46681,0 0.740696,0.24287 0.272163,0.24116 0.272163,0.65113 0,0.40824 -0.272163,0.65112 -0.273886,0.24116 -0.740696,0.24116 z" />
  <path
     inkscape:connector-curvature="0"
     id="path11410"
     style="font-style:normal;font-variant:normal;font-weight:bold;font-stretch:normal;font-size:medium;line-height:125%;font-family:monospace;-inkscape-font-specification:'monospace Bold';letter-spacing:0px;word-spacing:0px;fill:#000000;fill-opacity:1;stroke:none;stroke-width:0.26458332px;stroke-linecap:butt;stroke-linejoin:miter;stroke-opacity:1"
     d="m 34.864508,130.6256 1.052478,0.23943 v -0.48058 z m -0.465088,0.31006 v -0.62184 l 2.571763,-0.69419 v 0.50815 l -0.635619,0.15848 v 0.68041 l 0.635619,0.15502 v 0.50816 z" />
  <path
     inkscape:connector-curvature="0"
     id="path11412"
     style="font-style:normal;font-variant:normal;font-weight:bold;font-stretch:normal;font-size:medium;line-height:125%;font-family:monospace;-inkscape-font-specification:'monospace Bold';letter-spacing:0px;word-spacing:0px;fill:#000000;fill-opacity:1;stroke:none;stroke-width:0.26458332px;stroke-linecap:butt;stroke-linejoin:miter;stroke-opacity:1"
     d="m 35.234855,128.37595 q -0.122301,-0.0568 -0.180866,-0.14469 -0.05857,-0.0879 -0.05857,-0.21532 0,-0.24977 0.172255,-0.34451 0.172254,-0.0965 0.716579,-0.0965 h 1.086926 v 0.41341 h -1.238511 q -0.215318,0 -0.287666,0.0327 -0.07234,0.0327 -0.07234,0.11886 0,0.0861 0.07407,0.12057 0.07407,0.0345 0.285944,0.0345 h 1.238511 v 0.40824 h -1.238511 q -0.211873,0 -0.285944,0.0344 -0.07407,0.0345 -0.07407,0.12058 0,0.0861 0.07234,0.11885 0.07235,0.0327 0.287666,0.0327 h 1.238511 v 0.41341 h -1.929251 v -0.3669 h 0.199816 q -0.113689,-0.0431 -0.179147,-0.1378 -0.06718,-0.0947 -0.06718,-0.21188 0,-0.11713 0.07062,-0.21359 0.0689,-0.0965 0.168809,-0.11714 z" />
  <path
     inkscape:connector-curvature="0"
     id="path11414"
     style="font-style:normal;font-variant:normal;font-weight:bold;font-stretch:normal;font-size:medium;line-height:125%;font-family:monospace;-inkscape-font-specification:'monospace Bold';letter-spacing:0px;word-spacing:0px;fill:#000000;fill-opacity:1;stroke:none;stroke-width:0.26458332px;stroke-linecap:butt;stroke-linejoin:miter;stroke-opacity:1"
     d="m 36.699022,126.68096 h 1.005967 v 0.50299 h -2.663057 v -0.50299 h 0.289388 q -0.167087,-0.0792 -0.251492,-0.20842 -0.0844,-0.1292 -0.0844,-0.30317 0,-0.33073 0.265272,-0.51332 0.265271,-0.18259 0.747585,-0.18259 0.489204,0 0.75103,0.18603 0.261829,0.18432 0.261829,0.52711 0,0.15502 -0.07924,0.27905 -0.08096,0.1223 -0.24288,0.21531 z m -0.694187,-0.7028 q -0.279053,0 -0.437528,0.093 -0.158472,0.093 -0.158472,0.25666 0,0.16365 0.158472,0.25838 0.158475,0.0947 0.437528,0.0947 0.279054,0 0.437528,-0.0947 0.158473,-0.0947 0.158473,-0.25838 0,-0.16364 -0.158473,-0.25666 -0.158474,-0.093 -0.437528,-0.093 z" />
</svg>
