<?xml version="1.0" encoding="UTF-8" standalone="no"?>
<svg
   xmlns:dc="http://purl.org/dc/elements/1.1/"
   xmlns:cc="http://creativecommons.org/ns#"
   xmlns:rdf="http://www.w3.org/1999/02/22-rdf-syntax-ns#"
   xmlns:svg="http://www.w3.org/2000/svg"
   xmlns="http://www.w3.org/2000/svg"
   id="svg5150"
   version="1.1"
   viewBox="0 0 210 297"
   height="297mm"
   width="210mm">
  <defs
     id="defs5144" />
  <metadata
     id="metadata5147">
    <rdf:RDF>
      <cc:Work
         rdf:about="">
        <dc:format>image/svg+xml</dc:format>
        <dc:type
           rdf:resource="http://purl.org/dc/dcmitype/StillImage" />
        <dc:title></dc:title>
      </cc:Work>
    </rdf:RDF>
  </metadata>
  <g
     id="layer1">
    <path
       id="path1025-5"
       d="m 107.92443,192.15744 v 2.82215"
       style="fill:none;stroke:#211e1e;stroke-width:0.08800907;stroke-linecap:butt;stroke-linejoin:miter;stroke-miterlimit:10;stroke-opacity:1" />
    <path
       id="path1027-6"
       d="m 109.33584,193.56783 h -2.82282"
       style="fill:none;stroke:#211e1e;stroke-width:0.08800907;stroke-linecap:butt;stroke-linejoin:miter;stroke-miterlimit:10;stroke-opacity:1" />
    <path
       id="path1025"
       d="m 107.92443,142.37644 v 2.82216"
       style="fill:none;stroke:#211e1e;stroke-width:0.08800907;stroke-linecap:butt;stroke-linejoin:miter;stroke-miterlimit:10;stroke-opacity:1" />
    <path
       id="path1027"
       d="m 109.33584,143.78683 h -2.82282"
       style="fill:none;stroke:#211e1e;stroke-width:0.08800907;stroke-linecap:butt;stroke-linejoin:miter;stroke-miterlimit:10;stroke-opacity:1" />
    <path
       id="path108"
       d="M 41.052386,253.48472 H 178.72786 V 43.836791 H 41.052386 Z m 0,0"
       style="fill:none;stroke:#ec008c;stroke-width:0.35206211;stroke-linecap:butt;stroke-linejoin:miter;stroke-miterlimit:10;stroke-opacity:1" />
    <path
       id="path110"
       d="M 41.05282,253.48493 H 30.936354 V 43.83587 H 41.05282"
       style="fill:none;stroke:#211e1e;stroke-width:0.06470991;stroke-linecap:butt;stroke-linejoin:miter;stroke-miterlimit:10;stroke-opacity:1" />
    <g
       transform="matrix(0,-0.09318241,0.09311716,0,37.831899,178.50722)"
       style="fill:#211e1e;fill-opacity:1"
       id="use112">
      <path
         id="path5931"
         d="M 1.578125,-0.171875 C 1.554688,-0.0234375 1.515625,0.0703125 1.453125,0.125 1.398438,0.1875 1.3125,0.21875 1.1875,0.21875 1.050781,0.21875 0.945312,0.175781 0.875,0.09375 0.8125,0.0195312 0.773438,-0.101562 0.765625,-0.28125 l -0.0625,-1.140625 v -0.09375 c 0,-0.15625 0.023437,-0.265625 0.078125,-0.328125 0.0625,-0.0625 0.164062,-0.09375 0.3125,-0.09375 0.1875,0 0.328125,0.140625 0.421875,0.421875 0.03125,0.136719 0.066406,0.242187 0.109375,0.3125 0.113281,0.230469 0.289062,0.40625 0.53125,0.53125 0.25,0.125 0.546875,0.1875 0.890625,0.1875 0.414063,0 0.753906,-0.097656 1.015625,-0.296875 0.257812,-0.195312 0.390625,-0.453125 0.390625,-0.765625 0,-0.257813 -0.085937,-0.46875 -0.25,-0.625 -0.15625,-0.15625 -0.386719,-0.253906 -0.6875,-0.296875 L 2.78125,-2.5625 C 2.113281,-2.65625 1.625,-2.832031 1.3125,-3.09375 1,-3.351562 0.84375,-3.722656 0.84375,-4.203125 c 0,-0.5 0.203125,-0.914063 0.609375,-1.25 0.414063,-0.34375 0.9375,-0.515625 1.5625,-0.515625 0.175781,0 0.363281,0.027344 0.5625,0.078125 C 3.773438,-5.847656 4,-5.773438 4.25,-5.671875 c 0.00781,-0.09375 0.035156,-0.15625 0.078125,-0.1875 0.039063,-0.039063 0.117187,-0.0625 0.234375,-0.0625 0.144531,0 0.242188,0.023437 0.296875,0.0625 0.050781,0.042969 0.085937,0.148437 0.109375,0.3125 l 0.0625,1.015625 v 0.046875 c 0,0.117187 -0.039062,0.203125 -0.109375,0.265625 C 4.859375,-4.15625 4.769531,-4.125 4.65625,-4.125 4.488281,-4.125 4.359375,-4.242188 4.265625,-4.484375 4.210938,-4.617188 4.164062,-4.722656 4.125,-4.796875 4.007812,-4.953125 3.851562,-5.070312 3.65625,-5.15625 3.457031,-5.25 3.226562,-5.296875 2.96875,-5.296875 2.570312,-5.296875 2.25,-5.195312 2,-5 c -0.242188,0.1875 -0.359375,0.445312 -0.359375,0.765625 0,0.242187 0.085937,0.433594 0.265625,0.578125 0.1875,0.148438 0.472656,0.246094 0.859375,0.296875 l 0.78125,0.09375 c 0.5625,0.074219 0.984375,0.25 1.265625,0.53125 0.289062,0.273437 0.4375,0.636719 0.4375,1.09375 0,0.542969 -0.203125,0.980469 -0.609375,1.3125 -0.40625,0.33203125 -0.949219,0.5 -1.625,0.5 -0.242187,0 -0.476563,-0.03125 -0.703125,-0.09375 -0.230469,-0.0546875 -0.476562,-0.1328125 -0.734375,-0.25 z m 0,0"
         style="stroke:none" />
    </g>
    <g
       transform="matrix(0,-0.09318241,0.09311716,0,37.831899,176.39376)"
       style="fill:#211e1e;fill-opacity:1"
       id="use116">
      <path
         id="path5927"
         d="m 1.15625,-0.6875 v -5 H 1.0625 c -0.21875,0 -0.371094,-0.023438 -0.453125,-0.078125 -0.085937,-0.050781 -0.125,-0.144531 -0.125,-0.28125 0,-0.113281 0.03125,-0.195313 0.09375,-0.25 C 0.648438,-6.359375 0.75,-6.390625 0.875,-6.390625 h 0.75 c 0.082031,0 0.148438,0.023437 0.203125,0.0625 C 1.878906,-6.296875 1.90625,-6.25 1.90625,-6.1875 v 2.203125 C 2.132812,-4.203125 2.363281,-4.363281 2.59375,-4.46875 2.832031,-4.570312 3.078125,-4.625 3.328125,-4.625 c 0.488281,0 0.875,0.152344 1.15625,0.453125 0.28125,0.304687 0.421875,0.726563 0.421875,1.265625 v 2.21875 h 0.234375 c 0.164063,0 0.28125,0.027344 0.34375,0.078125 0.070313,0.054687 0.109375,0.136719 0.109375,0.25 0,0.125 -0.03125,0.21875 -0.09375,0.28125 C 5.4375,-0.0234375 5.335938,0 5.203125,0 H 3.90625 c -0.148438,0 -0.25,-0.0234375 -0.3125,-0.078125 -0.054688,-0.050781 -0.078125,-0.144531 -0.078125,-0.28125 0,-0.125 0.03125,-0.207031 0.09375,-0.25 C 3.679688,-0.660156 3.8125,-0.6875 4,-0.6875 h 0.171875 v -2.03125 c 0,-0.382812 -0.089844,-0.675781 -0.265625,-0.875 -0.167969,-0.195312 -0.417969,-0.296875 -0.75,-0.296875 -0.335938,0 -0.625,0.117187 -0.875,0.34375 -0.25,0.21875 -0.375,0.496094 -0.375,0.828125 v 2.03125 h 0.171875 c 0.1875,0 0.3125,0.027344 0.375,0.078125 0.070313,0.042969 0.109375,0.125 0.109375,0.25 0,0.136719 -0.027344,0.230469 -0.078125,0.28125 C 2.429688,-0.0234375 2.328125,0 2.171875,0 H 0.875 C 0.75,0 0.65625,-0.0234375 0.59375,-0.078125 0.53125,-0.140625 0.5,-0.234375 0.5,-0.359375 c 0,-0.125 0.035156,-0.207031 0.109375,-0.25 C 0.691406,-0.660156 0.84375,-0.6875 1.0625,-0.6875 Z m 0,0"
         style="stroke:none" />
    </g>
    <g
       transform="matrix(0,-0.09318241,0.09311716,0,37.831899,174.2803)"
       style="fill:#211e1e;fill-opacity:1"
       id="use120">
      <path
         id="path5891"
         d="m 1.34375,-2.046875 c 0.03125,0.46875 0.191406,0.835937 0.484375,1.09375 0.289063,0.25 0.6875,0.375 1.1875,0.375 0.382813,0 0.800781,-0.097656 1.25,-0.296875 0.445313,-0.207031 0.71875,-0.3125 0.8125,-0.3125 0.09375,0 0.171875,0.03125 0.234375,0.09375 0.070312,0.0625 0.109375,0.140625 0.109375,0.234375 0,0.09375 -0.039063,0.183594 -0.109375,0.265625 -0.0625,0.074219 -0.171875,0.148438 -0.328125,0.21875 -0.324219,0.167969 -0.65625,0.2929688 -1,0.375 -0.34375,0.0820312 -0.6875,0.125 -1.03125,0.125 -0.742187,0 -1.335937,-0.2109375 -1.78125,-0.640625 C 0.722656,-0.941406 0.5,-1.507812 0.5,-2.21875 c 0,-0.71875 0.234375,-1.300781 0.703125,-1.75 0.476563,-0.445312 1.09375,-0.671875 1.84375,-0.671875 0.6875,0 1.253906,0.210937 1.703125,0.625 0.457031,0.417969 0.6875,0.921875 0.6875,1.515625 0,0.179688 -0.042969,0.296875 -0.125,0.359375 -0.074219,0.0625 -0.277344,0.09375 -0.609375,0.09375 z M 1.375,-2.6875 H 4.546875 C 4.503906,-3.070312 4.34375,-3.378906 4.0625,-3.609375 3.789062,-3.847656 3.453125,-3.96875 3.046875,-3.96875 c -0.429687,0 -0.792969,0.117188 -1.09375,0.34375 C 1.660156,-3.394531 1.46875,-3.082031 1.375,-2.6875 Z m 0,0"
         style="stroke:none" />
    </g>
    <g
       transform="matrix(0,-0.09318241,0.09311716,0,37.831899,172.16683)"
       style="fill:#211e1e;fill-opacity:1"
       id="use124">
      <path
         id="path5895"
         d="m 1.34375,-2.046875 c 0.03125,0.46875 0.191406,0.835937 0.484375,1.09375 0.289063,0.25 0.6875,0.375 1.1875,0.375 0.382813,0 0.800781,-0.097656 1.25,-0.296875 0.445313,-0.207031 0.71875,-0.3125 0.8125,-0.3125 0.09375,0 0.171875,0.03125 0.234375,0.09375 0.070312,0.0625 0.109375,0.140625 0.109375,0.234375 0,0.09375 -0.039063,0.183594 -0.109375,0.265625 -0.0625,0.074219 -0.171875,0.148438 -0.328125,0.21875 -0.324219,0.167969 -0.65625,0.2929688 -1,0.375 -0.34375,0.0820312 -0.6875,0.125 -1.03125,0.125 -0.742187,0 -1.335937,-0.2109375 -1.78125,-0.640625 C 0.722656,-0.941406 0.5,-1.507812 0.5,-2.21875 c 0,-0.71875 0.234375,-1.300781 0.703125,-1.75 0.476563,-0.445312 1.09375,-0.671875 1.84375,-0.671875 0.6875,0 1.253906,0.210937 1.703125,0.625 0.457031,0.417969 0.6875,0.921875 0.6875,1.515625 0,0.179688 -0.042969,0.296875 -0.125,0.359375 -0.074219,0.0625 -0.277344,0.09375 -0.609375,0.09375 z M 1.375,-2.6875 H 4.546875 C 4.503906,-3.070312 4.34375,-3.378906 4.0625,-3.609375 3.789062,-3.847656 3.453125,-3.96875 3.046875,-3.96875 c -0.429687,0 -0.792969,0.117188 -1.09375,0.34375 C 1.660156,-3.394531 1.46875,-3.082031 1.375,-2.6875 Z m 0,0"
         style="stroke:none" />
    </g>
    <g
       transform="matrix(0,-0.09318241,0.09311716,0,37.831899,170.05337)"
       style="fill:#211e1e;fill-opacity:1"
       id="use128">
      <path
         id="path5887"
         d="m 4.328125,-4.234375 c 0.164063,0 0.285156,0.027344 0.359375,0.078125 0.070312,0.054688 0.109375,0.140625 0.109375,0.265625 0,0.117187 -0.039063,0.203125 -0.109375,0.265625 -0.074219,0.054688 -0.179688,0.078125 -0.3125,0.078125 H 2.40625 v 1.625 c 0,0.53125 0.066406,0.886719 0.203125,1.0625 0.132813,0.167969 0.375,0.25 0.71875,0.25 0.289063,0 0.640625,-0.082031 1.046875,-0.25 C 4.789062,-1.035156 5.050781,-1.125 5.15625,-1.125 c 0.082031,0 0.15625,0.03125 0.21875,0.09375 0.070312,0.0625 0.109375,0.140625 0.109375,0.234375 0,0.117187 -0.042969,0.214844 -0.125,0.296875 -0.085937,0.074219 -0.21875,0.148438 -0.40625,0.21875 C 4.628906,-0.15625 4.335938,-0.0625 4.078125,0 3.828125,0.0625 3.59375,0.09375 3.375,0.09375 c -0.386719,0 -0.710938,-0.0625 -0.96875,-0.1875 -0.261719,-0.125 -0.453125,-0.304688 -0.578125,-0.546875 -0.0625,-0.113281 -0.109375,-0.25 -0.140625,-0.40625 -0.023438,-0.15625 -0.03125,-0.394531 -0.03125,-0.71875 v -1.78125 H 0.828125 c -0.148437,0 -0.25,-0.023437 -0.3125,-0.078125 C 0.460938,-3.6875 0.4375,-3.773438 0.4375,-3.890625 c 0,-0.132813 0.039062,-0.222656 0.125,-0.265625 0.082031,-0.050781 0.257812,-0.078125 0.53125,-0.078125 h 0.5625 V -5.5 c 0,-0.132812 0.023438,-0.234375 0.078125,-0.296875 0.0625,-0.070313 0.15625,-0.109375 0.28125,-0.109375 0.144531,0 0.242187,0.042969 0.296875,0.125 0.0625,0.074219 0.09375,0.257812 0.09375,0.546875 v 1 z m 0,0"
         style="stroke:none" />
    </g>
    <g
       transform="matrix(0,-0.09318241,0.09311716,0,37.831899,165.82644)"
       style="fill:#211e1e;fill-opacity:1"
       id="use132">
      <path
         id="path5947"
         d="m 1.90625,-3.8125 c 0.207031,-0.082031 0.398438,-0.140625 0.578125,-0.171875 0.1875,-0.039063 0.363281,-0.0625 0.53125,-0.0625 0.570313,0 1.046875,0.199219 1.421875,0.59375 0.382812,0.398437 0.578125,0.886719 0.578125,1.46875 0,0.625 -0.214844,1.140625 -0.640625,1.546875 -0.417969,0.3984375 -0.953125,0.59375 -1.609375,0.59375 -0.542969,0 -1,-0.0742188 -1.375,-0.21875 C 1.023438,-0.207031 0.84375,-0.382812 0.84375,-0.59375 c 0,-0.09375 0.03125,-0.171875 0.09375,-0.234375 0.070312,-0.0625 0.15625,-0.09375 0.25,-0.09375 0.03125,0 0.21875,0.0625 0.5625,0.1875 0.351562,0.125 0.675781,0.1875 0.96875,0.1875 0.4375,0 0.789062,-0.128906 1.0625,-0.390625 0.269531,-0.269531 0.40625,-0.609375 0.40625,-1.015625 0,-0.40625 -0.132812,-0.742187 -0.390625,-1.015625 C 3.546875,-3.238281 3.222656,-3.375 2.828125,-3.375 2.535156,-3.375 2.25,-3.300781 1.96875,-3.15625 1.6875,-3.007812 1.515625,-2.9375 1.453125,-2.9375 1.359375,-2.9375 1.289062,-2.96875 1.25,-3.03125 1.207031,-3.101562 1.1875,-3.234375 1.1875,-3.421875 v -2.4375 c 0,-0.101563 0.03125,-0.175781 0.09375,-0.21875 0.070312,-0.050781 0.191406,-0.078125 0.359375,-0.078125 h 2.46875 c 0.15625,0 0.269531,0.03125 0.34375,0.09375 0.082031,0.0625 0.125,0.15625 0.125,0.28125 0,0.125 -0.042969,0.21875 -0.125,0.28125 -0.074219,0.0625 -0.1875,0.09375 -0.34375,0.09375 H 1.90625 Z m 0,0"
         style="stroke:none" />
    </g>
    <g
       transform="matrix(0,-0.09318241,0.09311716,0,37.831899,161.59951)"
       style="fill:#211e1e;fill-opacity:1"
       id="use136">
      <path
         id="path5919"
         d="m 0.96875,-1.78125 c -0.074219,0 -0.132812,-0.019531 -0.171875,-0.0625 C 0.765625,-1.882812 0.75,-1.941406 0.75,-2.015625 V -2.53125 c 0,-0.0625 0.015625,-0.109375 0.046875,-0.140625 0.039063,-0.039063 0.097656,-0.0625 0.171875,-0.0625 h 4.046875 c 0.070313,0 0.128906,0.023437 0.171875,0.0625 0.039062,0.03125 0.0625,0.078125 0.0625,0.140625 v 0.515625 c 0,0.0625 -0.027344,0.121094 -0.078125,0.171875 -0.042969,0.042969 -0.09375,0.0625 -0.15625,0.0625 z m 0,0"
         style="stroke:none" />
    </g>
    <g
       transform="matrix(0,-0.09318241,0.09311716,0,37.831899,157.37257)"
       style="fill:#211e1e;fill-opacity:1"
       id="use140">
      <path
         id="path5935"
         d="M 1.578125,-0.171875 C 1.554688,-0.0234375 1.515625,0.0703125 1.453125,0.125 1.398438,0.1875 1.3125,0.21875 1.1875,0.21875 1.050781,0.21875 0.945312,0.175781 0.875,0.09375 0.8125,0.0195312 0.773438,-0.101562 0.765625,-0.28125 l -0.0625,-1.140625 v -0.09375 c 0,-0.15625 0.023437,-0.265625 0.078125,-0.328125 0.0625,-0.0625 0.164062,-0.09375 0.3125,-0.09375 0.1875,0 0.328125,0.140625 0.421875,0.421875 0.03125,0.136719 0.066406,0.242187 0.109375,0.3125 0.113281,0.230469 0.289062,0.40625 0.53125,0.53125 0.25,0.125 0.546875,0.1875 0.890625,0.1875 0.414063,0 0.753906,-0.097656 1.015625,-0.296875 0.257812,-0.195312 0.390625,-0.453125 0.390625,-0.765625 0,-0.257813 -0.085937,-0.46875 -0.25,-0.625 -0.15625,-0.15625 -0.386719,-0.253906 -0.6875,-0.296875 L 2.78125,-2.5625 C 2.113281,-2.65625 1.625,-2.832031 1.3125,-3.09375 1,-3.351562 0.84375,-3.722656 0.84375,-4.203125 c 0,-0.5 0.203125,-0.914063 0.609375,-1.25 0.414063,-0.34375 0.9375,-0.515625 1.5625,-0.515625 0.175781,0 0.363281,0.027344 0.5625,0.078125 C 3.773438,-5.847656 4,-5.773438 4.25,-5.671875 c 0.00781,-0.09375 0.035156,-0.15625 0.078125,-0.1875 0.039063,-0.039063 0.117187,-0.0625 0.234375,-0.0625 0.144531,0 0.242188,0.023437 0.296875,0.0625 0.050781,0.042969 0.085937,0.148437 0.109375,0.3125 l 0.0625,1.015625 v 0.046875 c 0,0.117187 -0.039062,0.203125 -0.109375,0.265625 C 4.859375,-4.15625 4.769531,-4.125 4.65625,-4.125 4.488281,-4.125 4.359375,-4.242188 4.265625,-4.484375 4.210938,-4.617188 4.164062,-4.722656 4.125,-4.796875 4.007812,-4.953125 3.851562,-5.070312 3.65625,-5.15625 3.457031,-5.25 3.226562,-5.296875 2.96875,-5.296875 2.570312,-5.296875 2.25,-5.195312 2,-5 c -0.242188,0.1875 -0.359375,0.445312 -0.359375,0.765625 0,0.242187 0.085937,0.433594 0.265625,0.578125 0.1875,0.148438 0.472656,0.246094 0.859375,0.296875 l 0.78125,0.09375 c 0.5625,0.074219 0.984375,0.25 1.265625,0.53125 0.289062,0.273437 0.4375,0.636719 0.4375,1.09375 0,0.542969 -0.203125,0.980469 -0.609375,1.3125 -0.40625,0.33203125 -0.949219,0.5 -1.625,0.5 -0.242187,0 -0.476563,-0.03125 -0.703125,-0.09375 -0.230469,-0.0546875 -0.476562,-0.1328125 -0.734375,-0.25 z m 0,0"
         style="stroke:none" />
    </g>
    <g
       transform="matrix(0,-0.09318241,0.09311716,0,37.831899,155.25912)"
       style="fill:#211e1e;fill-opacity:1"
       id="use144">
      <path
         id="path5951"
         d="m 2.546875,-5.921875 c 0,-0.351563 0.03125,-0.570313 0.09375,-0.65625 0.0625,-0.09375 0.195313,-0.140625 0.40625,-0.140625 0.207031,0 0.34375,0.042969 0.40625,0.125 0.0625,0.074219 0.09375,0.25 0.09375,0.53125 0,0.28125 -0.03125,0.460938 -0.09375,0.53125 -0.054687,0.0625 -0.1875,0.09375 -0.40625,0.09375 -0.210937,0 -0.34375,-0.03125 -0.40625,-0.09375 -0.0625,-0.0625 -0.09375,-0.191406 -0.09375,-0.390625 z m 0.90625,5.234375 h 1.5625 c 0.125,0 0.21875,0.027344 0.28125,0.078125 0.0625,0.054687 0.09375,0.136719 0.09375,0.25 0,0.136719 -0.03125,0.230469 -0.09375,0.28125 C 5.242188,-0.0234375 5.140625,0 4.984375,0 H 1.203125 C 1.066406,0 0.96875,-0.0234375 0.90625,-0.078125 c -0.0625,-0.0625 -0.09375,-0.15625 -0.09375,-0.28125 0,-0.101563 0.03125,-0.179687 0.09375,-0.234375 0.070312,-0.0625 0.175781,-0.09375 0.3125,-0.09375 h 1.484375 v -3.125 h -0.9375 c -0.136719,0 -0.242187,-0.03125 -0.3125,-0.09375 -0.074219,-0.0625 -0.109375,-0.148438 -0.109375,-0.265625 0,-0.113281 0.03125,-0.195313 0.09375,-0.25 0.070312,-0.0625 0.171875,-0.09375 0.296875,-0.09375 h 1.4375 c 0.082031,0 0.148437,0.023437 0.203125,0.0625 0.050781,0.03125 0.078125,0.078125 0.078125,0.140625 z m 0,0"
         style="stroke:none" />
    </g>
    <g
       transform="matrix(0,-0.09318241,0.09311716,0,37.831899,153.14565)"
       style="fill:#211e1e;fill-opacity:1"
       id="use148">
      <path
         id="path5899"
         d="m 1.34375,-2.046875 c 0.03125,0.46875 0.191406,0.835937 0.484375,1.09375 0.289063,0.25 0.6875,0.375 1.1875,0.375 0.382813,0 0.800781,-0.097656 1.25,-0.296875 0.445313,-0.207031 0.71875,-0.3125 0.8125,-0.3125 0.09375,0 0.171875,0.03125 0.234375,0.09375 0.070312,0.0625 0.109375,0.140625 0.109375,0.234375 0,0.09375 -0.039063,0.183594 -0.109375,0.265625 -0.0625,0.074219 -0.171875,0.148438 -0.328125,0.21875 -0.324219,0.167969 -0.65625,0.2929688 -1,0.375 -0.34375,0.0820312 -0.6875,0.125 -1.03125,0.125 -0.742187,0 -1.335937,-0.2109375 -1.78125,-0.640625 C 0.722656,-0.941406 0.5,-1.507812 0.5,-2.21875 c 0,-0.71875 0.234375,-1.300781 0.703125,-1.75 0.476563,-0.445312 1.09375,-0.671875 1.84375,-0.671875 0.6875,0 1.253906,0.210937 1.703125,0.625 0.457031,0.417969 0.6875,0.921875 0.6875,1.515625 0,0.179688 -0.042969,0.296875 -0.125,0.359375 -0.074219,0.0625 -0.277344,0.09375 -0.609375,0.09375 z M 1.375,-2.6875 H 4.546875 C 4.503906,-3.070312 4.34375,-3.378906 4.0625,-3.609375 3.789062,-3.847656 3.453125,-3.96875 3.046875,-3.96875 c -0.429687,0 -0.792969,0.117188 -1.09375,0.34375 C 1.660156,-3.394531 1.46875,-3.082031 1.375,-2.6875 Z m 0,0"
         style="stroke:none" />
    </g>
    <g
       transform="matrix(0,-0.09318241,0.09311716,0,37.831899,151.03218)"
       style="fill:#211e1e;fill-opacity:1"
       id="use152">
      <path
         id="path5907"
         d="M 4.46875,0 C 4.394531,0 4.34375,-0.015625 4.3125,-0.046875 4.289062,-0.0859375 4.28125,-0.15625 4.28125,-0.25 v -0.40625 c -0.199219,0.25 -0.445312,0.445312 -0.734375,0.578125 C 3.253906,0.0546875 2.9375,0.125 2.59375,0.125 1.976562,0.125 1.460938,-0.09375 1.046875,-0.53125 0.640625,-0.96875 0.4375,-1.515625 0.4375,-2.171875 c 0,-0.664063 0.21875,-1.222656 0.65625,-1.671875 0.445312,-0.445312 1,-0.671875 1.65625,-0.671875 0.332031,0 0.628906,0.058594 0.890625,0.171875 0.269531,0.117188 0.503906,0.292969 0.703125,0.53125 v -1.875 H 4.078125 c -0.28125,0 -0.464844,-0.023438 -0.546875,-0.078125 -0.085938,-0.050781 -0.125,-0.144531 -0.125,-0.28125 0,-0.113281 0.03125,-0.195313 0.09375,-0.25 0.070312,-0.0625 0.171875,-0.09375 0.296875,-0.09375 h 1 c 0.101563,0 0.175781,0.015625 0.21875,0.046875 0.039063,0.03125 0.0625,0.085938 0.0625,0.15625 v 5.5 h 0.21875 c 0.15625,0 0.269531,0.027344 0.34375,0.078125 0.070313,0.054687 0.109375,0.136719 0.109375,0.25 0,0.117187 -0.03125,0.203125 -0.09375,0.265625 C 5.59375,-0.03125 5.507812,0 5.40625,0 Z M 1.265625,-2.1875 c 0,0.449219 0.144531,0.820312 0.4375,1.109375 0.289063,0.28125 0.660156,0.421875 1.109375,0.421875 0.445312,0 0.8125,-0.144531 1.09375,-0.4375 0.289062,-0.300781 0.4375,-0.679688 0.4375,-1.140625 0,-0.457031 -0.148438,-0.832031 -0.4375,-1.125 -0.28125,-0.289063 -0.648438,-0.4375 -1.09375,-0.4375 -0.460938,0 -0.835938,0.152344 -1.125,0.453125 -0.28125,0.292969 -0.421875,0.679688 -0.421875,1.15625 z m 0,0"
         style="stroke:none" />
    </g>
    <g
       transform="matrix(0,-0.09318241,0.09311716,0,37.831899,148.91871)"
       style="fill:#211e1e;fill-opacity:1"
       id="use156">
      <path
         id="path5911"
         d="M 2.671875,-5.6875 H 1.84375 c -0.3125,0 -0.511719,-0.023438 -0.59375,-0.078125 -0.085938,-0.050781 -0.125,-0.144531 -0.125,-0.28125 0,-0.113281 0.03125,-0.195313 0.09375,-0.25 0.070312,-0.0625 0.171875,-0.09375 0.296875,-0.09375 H 3.125 c 0.09375,0 0.160156,0.023437 0.203125,0.0625 C 3.378906,-6.296875 3.40625,-6.25 3.40625,-6.1875 v 5.5 H 4.9375 c 0.125,0 0.210938,0.027344 0.265625,0.078125 0.0625,0.054687 0.09375,0.136719 0.09375,0.25 0,0.136719 -0.03125,0.230469 -0.09375,0.28125 C 5.148438,-0.0234375 5.050781,0 4.90625,0 H 1.296875 C 1.171875,0 1.070312,-0.0234375 1,-0.078125 0.9375,-0.140625 0.90625,-0.234375 0.90625,-0.359375 0.90625,-0.460938 0.9375,-0.539062 1,-0.59375 1.070312,-0.65625 1.175781,-0.6875 1.3125,-0.6875 h 1.359375 z m 0,0"
         style="stroke:none" />
    </g>
    <g
       transform="matrix(0,-0.09318241,0.09311716,0,37.831899,146.80526)"
       style="fill:#211e1e;fill-opacity:1"
       id="use160">
      <path
         id="path5903"
         d="m 1.34375,-2.046875 c 0.03125,0.46875 0.191406,0.835937 0.484375,1.09375 0.289063,0.25 0.6875,0.375 1.1875,0.375 0.382813,0 0.800781,-0.097656 1.25,-0.296875 0.445313,-0.207031 0.71875,-0.3125 0.8125,-0.3125 0.09375,0 0.171875,0.03125 0.234375,0.09375 0.070312,0.0625 0.109375,0.140625 0.109375,0.234375 0,0.09375 -0.039063,0.183594 -0.109375,0.265625 -0.0625,0.074219 -0.171875,0.148438 -0.328125,0.21875 -0.324219,0.167969 -0.65625,0.2929688 -1,0.375 -0.34375,0.0820312 -0.6875,0.125 -1.03125,0.125 -0.742187,0 -1.335937,-0.2109375 -1.78125,-0.640625 C 0.722656,-0.941406 0.5,-1.507812 0.5,-2.21875 c 0,-0.71875 0.234375,-1.300781 0.703125,-1.75 0.476563,-0.445312 1.09375,-0.671875 1.84375,-0.671875 0.6875,0 1.253906,0.210937 1.703125,0.625 0.457031,0.417969 0.6875,0.921875 0.6875,1.515625 0,0.179688 -0.042969,0.296875 -0.125,0.359375 -0.074219,0.0625 -0.277344,0.09375 -0.609375,0.09375 z M 1.375,-2.6875 H 4.546875 C 4.503906,-3.070312 4.34375,-3.378906 4.0625,-3.609375 3.789062,-3.847656 3.453125,-3.96875 3.046875,-3.96875 c -0.429687,0 -0.792969,0.117188 -1.09375,0.34375 C 1.660156,-3.394531 1.46875,-3.082031 1.375,-2.6875 Z m 0,0"
         style="stroke:none" />
    </g>
    <g
       transform="matrix(0,-0.09318241,0.09311716,0,37.831899,142.57832)"
       style="fill:#211e1e;fill-opacity:1"
       id="use164">
      <path
         id="path5915"
         d="M 1.671875,-0.6875 H 2.28125 c 0.175781,0 0.300781,0.027344 0.375,0.078125 0.070312,0.054687 0.109375,0.136719 0.109375,0.25 0,0.136719 -0.039063,0.230469 -0.109375,0.28125 C 2.59375,-0.0234375 2.441406,0 2.203125,0 H 0.75 C 0.632812,0 0.546875,-0.0234375 0.484375,-0.078125 0.429688,-0.140625 0.40625,-0.234375 0.40625,-0.359375 c 0,-0.125 0.03125,-0.207031 0.09375,-0.25 C 0.5625,-0.660156 0.691406,-0.6875 0.890625,-0.6875 h 0.09375 v -4.40625 h -0.125 c -0.273437,0 -0.460937,-0.023438 -0.5625,-0.078125 C 0.203125,-5.222656 0.15625,-5.3125 0.15625,-5.4375 c 0,-0.125 0.039062,-0.210938 0.125,-0.265625 C 0.363281,-5.753906 0.5,-5.78125 0.6875,-5.78125 c 0,0 0.03125,0 0.09375,0 0.070312,-0.00781 0.140625,-0.015625 0.203125,-0.015625 H 1.4375 c 0.15625,0 0.257812,0.023437 0.3125,0.0625 0.0625,0.03125 0.132812,0.117187 0.21875,0.25 l 2.453125,4.25 V -5.09375 H 3.890625 C 3.710938,-5.09375 3.582031,-5.117188 3.5,-5.171875 3.425781,-5.234375 3.390625,-5.320312 3.390625,-5.4375 c 0,-0.132812 0.03125,-0.226562 0.09375,-0.28125 0.070313,-0.050781 0.21875,-0.078125 0.4375,-0.078125 h 1.40625 c 0.113281,0 0.195313,0.03125 0.25,0.09375 0.0625,0.0625 0.09375,0.152344 0.09375,0.265625 0,0.125 -0.039063,0.214844 -0.109375,0.265625 -0.074219,0.054687 -0.199219,0.078125 -0.375,0.078125 H 5.125 v 4.921875 c 0,0.09375 -0.027344,0.15625 -0.078125,0.1875 -0.042969,0.0390625 -0.140625,0.0625 -0.296875,0.0625 -0.15625,0 -0.257812,-0.0117188 -0.296875,-0.03125 -0.03125,-0.0117188 -0.09375,-0.09375 -0.1875,-0.25 l -2.59375,-4.46875 z m 0,0"
         style="stroke:none" />
    </g>
    <g
       transform="matrix(0,-0.09318241,0.09311716,0,37.831899,140.46485)"
       style="fill:#211e1e;fill-opacity:1"
       id="use168">
      <path
         id="path5923"
         d="m 3,-0.5625 c 0.5,0 0.910156,-0.15625 1.234375,-0.46875 C 4.554688,-1.351562 4.71875,-1.757812 4.71875,-2.25 4.71875,-2.738281 4.554688,-3.144531 4.234375,-3.46875 3.910156,-3.789062 3.5,-3.953125 3,-3.953125 c -0.5,0 -0.914062,0.164063 -1.234375,0.484375 -0.3125,0.324219 -0.46875,0.730469 -0.46875,1.21875 0,0.492188 0.15625,0.898438 0.46875,1.21875 C 2.085938,-0.71875 2.5,-0.5625 3,-0.5625 Z M 5.5625,-2.25 c 0,0.699219 -0.242188,1.273438 -0.71875,1.71875 C 4.375,-0.09375 3.757812,0.125 3,0.125 2.238281,0.125 1.617188,-0.09375 1.140625,-0.53125 0.671875,-0.976562 0.4375,-1.550781 0.4375,-2.25 c 0,-0.695312 0.234375,-1.265625 0.703125,-1.703125 C 1.617188,-4.398438 2.238281,-4.625 3,-4.625 c 0.75,0 1.363281,0.226562 1.84375,0.671875 0.476562,0.4375 0.71875,1.007813 0.71875,1.703125 z m 0,0"
         style="stroke:none" />
    </g>
    <g
       transform="matrix(0,-0.09318241,0.09311716,0,37.831899,138.3514)"
       style="fill:#211e1e;fill-opacity:1"
       id="use172">
      <path
         id="path5943"
         d="M 2,-2.5 H 3.984375 L 2.9375,-5.09375 Z M 2.234375,-5.09375 H 1.53125 c -0.199219,0 -0.339844,-0.023438 -0.421875,-0.078125 -0.085937,-0.050781 -0.125,-0.140625 -0.125,-0.265625 0,-0.132812 0.035156,-0.226562 0.109375,-0.28125 0.070312,-0.050781 0.265625,-0.078125 0.578125,-0.078125 H 3.0625 c 0.175781,0 0.296875,0.027344 0.359375,0.078125 0.0625,0.042969 0.117187,0.132812 0.171875,0.265625 L 5.515625,-0.6875 H 5.59375 c 0.175781,0 0.296875,0.027344 0.359375,0.078125 0.0625,0.042969 0.09375,0.125 0.09375,0.25 0,0.136719 -0.03125,0.230469 -0.09375,0.28125 C 5.890625,-0.0234375 5.773438,0 5.609375,0 H 4.28125 c -0.25,0 -0.414062,-0.0234375 -0.484375,-0.078125 -0.0625,-0.050781 -0.09375,-0.144531 -0.09375,-0.28125 0,-0.113281 0.035156,-0.195313 0.109375,-0.25 C 3.894531,-0.660156 4.039062,-0.6875 4.25,-0.6875 H 4.703125 L 4.234375,-1.84375 H 1.75 L 1.328125,-0.6875 h 0.46875 c 0.21875,0 0.363281,0.027344 0.4375,0.078125 0.082031,0.054687 0.125,0.136719 0.125,0.25 0,0.136719 -0.039063,0.230469 -0.109375,0.28125 C 2.1875,-0.0234375 2.035156,0 1.796875,0 H 0.515625 C 0.304688,0 0.164062,-0.0234375 0.09375,-0.078125 c -0.0742188,-0.050781 -0.109375,-0.144531 -0.109375,-0.28125 0,-0.125 0.0351562,-0.207031 0.109375,-0.25 C 0.164062,-0.660156 0.296875,-0.6875 0.484375,-0.6875 h 0.09375 z m 0,0"
         style="stroke:none" />
    </g>
    <g
       transform="matrix(0,-0.09318241,0.09311716,0,37.831899,136.23793)"
       style="fill:#211e1e;fill-opacity:1"
       id="use176">
      <path
         id="path5939"
         d="m 4.8125,-2.71875 c 0,-0.457031 -0.042969,-0.765625 -0.125,-0.921875 -0.085938,-0.164063 -0.226562,-0.25 -0.421875,-0.25 -0.25,0 -0.449219,0.105469 -0.59375,0.3125 C 3.535156,-3.367188 3.46875,-3.082031 3.46875,-2.71875 V -0.6875 H 3.5625 c 0.195312,0 0.328125,0.027344 0.390625,0.078125 0.070313,0.042969 0.109375,0.125 0.109375,0.25 0,0.125 -0.03125,0.21875 -0.09375,0.28125 C 3.914062,-0.0234375 3.832031,0 3.71875,0 h -0.625 C 2.957031,0 2.863281,-0.03125 2.8125,-0.09375 2.757812,-0.164062 2.734375,-0.304688 2.734375,-0.515625 V -3.09375 c 0,-0.25 -0.058594,-0.441406 -0.171875,-0.578125 -0.105469,-0.144531 -0.25,-0.21875 -0.4375,-0.21875 -0.148438,0 -0.28125,0.042969 -0.40625,0.125 -0.125,0.085937 -0.230469,0.214844 -0.3125,0.390625 v 2.6875 h 0.171875 c 0.195313,0 0.328125,0.027344 0.390625,0.078125 0.070312,0.042969 0.109375,0.125 0.109375,0.25 0,0.136719 -0.027344,0.230469 -0.078125,0.28125 C 1.945312,-0.0234375 1.84375,0 1.6875,0 H 0.375 C 0.25,0 0.15625,-0.0234375 0.09375,-0.078125 c -0.0546875,-0.0625 -0.078125,-0.15625 -0.078125,-0.28125 0,-0.125 0.0351562,-0.207031 0.109375,-0.25 C 0.195312,-0.660156 0.347656,-0.6875 0.578125,-0.6875 h 0.09375 v -3.125 h -0.09375 c -0.230469,0 -0.386719,-0.023438 -0.46875,-0.078125 -0.0859375,-0.050781 -0.125,-0.144531 -0.125,-0.28125 0,-0.113281 0.03125,-0.195313 0.09375,-0.25 C 0.148438,-4.484375 0.25,-4.515625 0.375,-4.515625 h 0.75 c 0.113281,0 0.1875,0.023437 0.21875,0.0625 0.03125,0.03125 0.050781,0.109375 0.0625,0.234375 0.132812,-0.144531 0.273438,-0.25 0.421875,-0.3125 0.15625,-0.070312 0.328125,-0.109375 0.515625,-0.109375 0.226562,0 0.414062,0.054687 0.5625,0.15625 0.15625,0.09375 0.269531,0.246094 0.34375,0.453125 0.132812,-0.207031 0.289062,-0.359375 0.46875,-0.453125 0.175781,-0.101563 0.378906,-0.15625 0.609375,-0.15625 0.425781,0 0.734375,0.140625 0.921875,0.421875 0.195312,0.273438 0.296875,0.710938 0.296875,1.3125 V -0.6875 H 5.625 c 0.195312,0 0.328125,0.027344 0.390625,0.078125 0.070313,0.042969 0.109375,0.125 0.109375,0.25 0,0.125 -0.03125,0.21875 -0.09375,0.28125 C 5.976562,-0.0234375 5.894531,0 5.78125,0 H 5.1875 C 5.0625,0 4.96875,-0.0351562 4.90625,-0.109375 4.84375,-0.191406 4.8125,-0.316406 4.8125,-0.484375 Z m 0,0"
         style="stroke:none" />
    </g>
    <g
       transform="matrix(0,-0.09318241,0.09311716,0,37.831899,134.12447)"
       style="fill:#211e1e;fill-opacity:1"
       id="use180">
      <path
         id="path5883"
         d="M 1.734375,1.25 H 2.90625 c 0.125,0 0.21875,0.023438 0.28125,0.078125 0.0625,0.0625 0.09375,0.15625 0.09375,0.28125 C 3.28125,1.734375 3.25,1.820312 3.1875,1.875 3.125,1.925781 3.019531,1.953125 2.875,1.953125 H 0.71875 c -0.136719,0 -0.234375,-0.03125 -0.296875,-0.09375 -0.0625,-0.0625 -0.09375,-0.148437 -0.09375,-0.25 0,-0.136719 0.039063,-0.230469 0.125,-0.28125 C 0.535156,1.273438 0.6875,1.25 0.90625,1.25 H 1 V -3.8125 H 0.90625 c -0.21875,0 -0.371094,-0.023438 -0.453125,-0.078125 -0.085937,-0.050781 -0.125,-0.144531 -0.125,-0.28125 0,-0.113281 0.03125,-0.195313 0.09375,-0.25 0.0625,-0.0625 0.160156,-0.09375 0.296875,-0.09375 h 0.734375 c 0.101563,0 0.175781,0.015625 0.21875,0.046875 0.039063,0.03125 0.0625,0.085938 0.0625,0.15625 v 0.46875 c 0.226563,-0.226562 0.472656,-0.394531 0.734375,-0.5 0.269531,-0.113281 0.5625,-0.171875 0.875,-0.171875 0.65625,0 1.203125,0.226563 1.640625,0.671875 0.4375,0.4375 0.65625,0.992188 0.65625,1.65625 0,0.636719 -0.210937,1.164062 -0.625,1.578125 -0.417969,0.417969 -0.949219,0.625 -1.59375,0.625 -0.34375,0 -0.664063,-0.0625 -0.953125,-0.1875 -0.292969,-0.125 -0.539062,-0.300781 -0.734375,-0.53125 z M 3.25,-0.703125 c 0.457031,0 0.828125,-0.140625 1.109375,-0.421875 0.289063,-0.289062 0.4375,-0.660156 0.4375,-1.109375 0,-0.445313 -0.148437,-0.8125 -0.4375,-1.09375 -0.292969,-0.289063 -0.664063,-0.4375 -1.109375,-0.4375 -0.449219,0 -0.820312,0.148437 -1.109375,0.4375 -0.28125,0.28125 -0.421875,0.648437 -0.421875,1.09375 0,0.449219 0.140625,0.820313 0.421875,1.109375 0.289063,0.28125 0.660156,0.421875 1.109375,0.421875 z m 0,0"
         style="stroke:none" />
    </g>
    <path
       id="path296"
       d="m 120.82291,170.60837 v -3.94145 l 9.97664,-10.01939 h 1.99478 v -25.95579 h -1.99478 l -9.97664,-9.94786 v -2.03194 H 94.88529 v 2.03194 l -9.976646,9.94786 h -1.994776 v 25.95579 h 1.994776 l 9.976646,10.01939 v 3.94145 l -9.976646,9.94785 v 0.0509 h -1.994776 v 25.95578 h 2.045642 l 9.92578,9.96849 v 2.01132 h 25.93762 v -2.01132 l 9.92578,-9.96849 h 2.04564 v -25.95578 h -1.99478 v -0.0509 z m 0,0"
       style="fill:none;stroke:#eb008a;stroke-width:0.35206211;stroke-linecap:butt;stroke-linejoin:miter;stroke-miterlimit:10;stroke-opacity:1" />
    <path
       id="path42"
       d="M 31.079875,253.48334 H 178.72786 V 43.836791 H 31.079875 Z m 0,0"
       style="fill:none;stroke:#000000;stroke-width:0.35206208;stroke-linecap:butt;stroke-linejoin:miter;stroke-miterlimit:1.5;stroke-opacity:1" />
    <path
       d="m 58.394417,237.25984 h 0.759556 v -0.33705 q 0,-0.24247 -0.08249,-0.33877 -0.08249,-0.098 -0.286983,-0.098 -0.207931,0 -0.299008,0.10145 -0.09108,0.10147 -0.09108,0.33534 z m -1.00014,0 h 0.596302 v -0.33705 q 0,-0.1926 -0.06874,-0.27343 -0.06874,-0.0825 -0.226833,-0.0825 -0.158099,0 -0.228557,0.0843 -0.07217,0.0825 -0.07217,0.27171 z m -0.403836,0.4901 v -0.82715 q 0,-0.42819 0.163253,-0.64315 0.161535,-0.21668 0.484605,-0.21668 0.247457,0 0.386649,0.12726 0.139195,0.12725 0.161536,0.37316 0.02922,-0.29406 0.197623,-0.44195 0.168407,-0.14961 0.470855,-0.14961 0.371186,0 0.537874,0.22356 0.16669,0.22355 0.16669,0.72741 v 0.82715 z"
       style="font-style:normal;font-variant:normal;font-weight:bold;font-stretch:normal;font-size:13.33333302px;line-height:1.25;font-family:monospace;-inkscape-font-specification:'monospace Bold';letter-spacing:0px;word-spacing:0px;fill:#00aeee;fill-opacity:1;stroke:none;stroke-width:0.26404658"
       id="path20065" />
    <path
       d="m 57.997452,234.78526 q 0,0.18056 0.159817,0.28374 0.158099,0.10318 0.441642,0.10318 0.283546,0 0.443363,-0.10318 0.158096,-0.10318 0.158096,-0.28374 0,-0.18228 -0.158096,-0.28546 -0.159817,-0.10318 -0.443363,-0.10318 -0.283543,0 -0.441642,0.10318 -0.159817,0.10318 -0.159817,0.28546 z m 0.601459,0.89078 q -0.465698,0 -0.737216,-0.24075 -0.273233,-0.24247 -0.273233,-0.65003 0,-0.40928 0.273233,-0.65003 0.271518,-0.24247 0.737216,-0.24247 0.465701,0 0.738937,0.24247 0.271512,0.24075 0.271512,0.65003 0,0.40756 -0.271512,0.65003 -0.273236,0.24075 -0.738937,0.24075 z"
       style="font-style:normal;font-variant:normal;font-weight:bold;font-stretch:normal;font-size:13.33333302px;line-height:1.25;font-family:monospace;-inkscape-font-specification:'monospace Bold';letter-spacing:0px;word-spacing:0px;fill:#00aeee;fill-opacity:1;stroke:none;stroke-width:0.26404658"
       id="path20067" />
    <path
       d="m 57.908095,232.36399 h -1.022481 v -0.50214 h 2.673912 v 0.50214 h -0.285263 q 0.16669,0.0808 0.250894,0.20979 0.0842,0.12726 0.0842,0.30094 0,0.33018 -0.264639,0.51246 -0.264641,0.18228 -0.74581,0.18228 -0.48804,0 -0.749244,-0.184 -0.261205,-0.18572 -0.261205,-0.52793 0,-0.15477 0.08077,-0.27687 0.07905,-0.12381 0.238866,-0.21667 z m 0.694253,0.70161 q 0.278392,0 0.436489,-0.0928 0.158096,-0.0929 0.158096,-0.25623 0,-0.16337 -0.158096,-0.25795 -0.158097,-0.0946 -0.436489,-0.0946 -0.278389,0 -0.436486,0.0946 -0.158096,0.0946 -0.158096,0.25795 0,0.16337 0.158096,0.25623 0.158097,0.0928 0.436486,0.0928 z"
       style="font-style:normal;font-variant:normal;font-weight:bold;font-stretch:normal;font-size:13.33333302px;line-height:1.25;font-family:monospace;-inkscape-font-specification:'monospace Bold';letter-spacing:0px;word-spacing:0px;fill:#00aeee;fill-opacity:1;stroke:none;stroke-width:0.26404658"
       id="path20069" />
    <path
       d="m 59.465012,229.70884 q 0.07218,0.17541 0.108262,0.35769 0.03609,0.18228 0.03609,0.3852 0,0.48322 -0.257765,0.73946 -0.259487,0.2545 -0.74581,0.2545 -0.470855,0 -0.74409,-0.24591 -0.273233,-0.24591 -0.273233,-0.67066 0,-0.4282 0.254331,-0.66379 0.252614,-0.23731 0.713158,-0.23731 h 0.204496 v 1.30521 q 0.226836,-0.002 0.338535,-0.13413 0.111699,-0.13241 0.111699,-0.39552 0,-0.17368 -0.04984,-0.34221 -0.04983,-0.16853 -0.158094,-0.35253 z m -1.082625,0.42648 q -0.19934,0.003 -0.300731,0.10318 -0.103105,0.098 -0.103105,0.29062 0,0.17368 0.106542,0.27686 0.104828,0.10318 0.299014,0.1221 z"
       style="font-style:normal;font-variant:normal;font-weight:bold;font-stretch:normal;font-size:13.33333302px;line-height:1.25;font-family:monospace;-inkscape-font-specification:'monospace Bold';letter-spacing:0px;word-spacing:0px;fill:#00aeee;fill-opacity:1;stroke:none;stroke-width:0.26404658"
       id="path20071" />
    <path
       d="m 58.310211,227.64182 h 1.249315 v 0.50042 h -1.171982 q -0.209651,0 -0.299011,0.0602 -0.09108,0.0585 -0.09108,0.1926 0,0.13585 0.12201,0.21495 0.12201,0.0774 0.338535,0.0774 h 1.101529 v 0.50042 h -1.924664 v -0.50042 h 0.2887 q -0.159816,-0.0533 -0.247457,-0.18229 -0.08764,-0.12897 -0.08764,-0.31125 0,-0.27343 0.182155,-0.41272 0.180438,-0.13929 0.539594,-0.13929 z"
       style="font-style:normal;font-variant:normal;font-weight:bold;font-stretch:normal;font-size:13.33333302px;line-height:1.25;font-family:monospace;-inkscape-font-specification:'monospace Bold';letter-spacing:0px;word-spacing:0px;fill:#00aeee;fill-opacity:1;stroke:none;stroke-width:0.26404658"
       id="path20073" />
    <path
       d="m 59.288013,226.60315 h 1.003575 v 0.50214 h -2.656726 v -0.50214 h 0.2887 q -0.166692,-0.0791 -0.250896,-0.20808 -0.0842,-0.12898 -0.0842,-0.30266 0,-0.33017 0.264642,-0.51246 0.264641,-0.18228 0.745807,-0.18228 0.488043,0 0.749247,0.18572 0.261202,0.184 0.261202,0.52622 0,0.15476 -0.07905,0.27858 -0.08077,0.1221 -0.2423,0.21496 z m -0.692536,-0.70162 q -0.278392,0 -0.436488,0.0929 -0.1581,0.0929 -0.1581,0.25623 0,0.16336 0.1581,0.25795 0.158096,0.0946 0.436488,0.0946 0.278389,0 0.436483,-0.0946 0.158099,-0.0946 0.158099,-0.25795 0,-0.16337 -0.158099,-0.25623 -0.158094,-0.0929 -0.436483,-0.0929 z"
       style="font-style:normal;font-variant:normal;font-weight:bold;font-stretch:normal;font-size:13.33333302px;line-height:1.25;font-family:monospace;-inkscape-font-specification:'monospace Bold';letter-spacing:0px;word-spacing:0px;fill:#00aeee;fill-opacity:1;stroke:none;stroke-width:0.26404658"
       id="path20075" />
    <path
       d="m 58.75701,224.57739 h -1.484743 v 0.51074 h -0.386653 v -1.01459 h 1.871396 q 0.226836,0 0.32135,-0.0705 0.09452,-0.0705 0.09452,-0.23903 v -0.4024 h 0.386649 v 0.54341 q 0,0.35941 -0.185592,0.5159 -0.185592,0.15648 -0.616924,0.15648 z"
       style="font-style:normal;font-variant:normal;font-weight:bold;font-stretch:normal;font-size:13.33333302px;line-height:1.25;font-family:monospace;-inkscape-font-specification:'monospace Bold';letter-spacing:0px;word-spacing:0px;fill:#00aeee;fill-opacity:1;stroke:none;stroke-width:0.26404658"
       id="path20077" />
    <path
       d="m 58.655619,221.91881 q 0,0.28202 0.07218,0.3938 0.07218,0.11178 0.24746,0.11178 0.130601,0 0.20793,-0.0774 0.07733,-0.0774 0.07733,-0.2098 0,-0.19948 -0.149508,-0.30953 -0.151223,-0.11006 -0.421021,-0.11006 h -0.03437 z m -0.194183,-0.70162 h 1.09809 v 0.50042 h -0.214805 q 0.127164,0.0911 0.195903,0.23387 0.06874,0.14273 0.06874,0.3147 0,0.32845 -0.173561,0.51246 -0.173564,0.18228 -0.484606,0.18228 -0.336814,0 -0.496633,-0.2184 -0.161534,-0.21839 -0.161534,-0.67582 v -0.34909 h -0.0842 q -0.12201,0 -0.183875,0.0894 -0.06358,0.0877 -0.06358,0.25967 0,0.18056 0.0464,0.35081 0.04468,0.16853 0.144349,0.35253 h -0.429612 q -0.06874,-0.16681 -0.101391,-0.33878 -0.03265,-0.17196 -0.03265,-0.36456 0,-0.46947 0.190749,-0.65863 0.190749,-0.19088 0.682225,-0.19088 z"
       style="font-style:normal;font-variant:normal;font-weight:bold;font-stretch:normal;font-size:13.33333302px;line-height:1.25;font-family:monospace;-inkscape-font-specification:'monospace Bold';letter-spacing:0px;word-spacing:0px;fill:#00aeee;fill-opacity:1;stroke:none;stroke-width:0.26404658"
       id="path20079" />
    <path
       d="m 57.088392,219.81567 h 0.54647 v -0.65862 h 0.386652 v 0.65862 h 0.910778 q 0.128883,0 0.185592,-0.0619 0.05499,-0.0636 0.05499,-0.2098 v -0.38692 h 0.386649 v 0.42303 q 0,0.43335 -0.137475,0.5864 -0.139197,0.15305 -0.513818,0.15305 h -0.886716 v 0.49182 h -0.386652 v -0.49182 h -0.54647 z"
       style="font-style:normal;font-variant:normal;font-weight:bold;font-stretch:normal;font-size:13.33333302px;line-height:1.25;font-family:monospace;-inkscape-font-specification:'monospace Bold';letter-spacing:0px;word-spacing:0px;fill:#00aeee;fill-opacity:1;stroke:none;stroke-width:0.26404658"
       id="path20081" />
    <path
       d="m 57.088392,217.69534 h 0.54647 v -0.65863 h 0.386652 v 0.65863 h 0.910778 q 0.128883,0 0.185592,-0.0619 0.05499,-0.0636 0.05499,-0.2098 v -0.38692 h 0.386649 v 0.42304 q 0,0.43335 -0.137475,0.5864 -0.139197,0.15305 -0.513818,0.15305 h -0.886716 v 0.49182 h -0.386652 v -0.49182 h -0.54647 z"
       style="font-style:normal;font-variant:normal;font-weight:bold;font-stretch:normal;font-size:13.33333302px;line-height:1.25;font-family:monospace;-inkscape-font-specification:'monospace Bold';letter-spacing:0px;word-spacing:0px;fill:#00aeee;fill-opacity:1;stroke:none;stroke-width:0.26404658"
       id="path20083" />
    <path
       d="m 59.465012,214.86651 q 0.07218,0.1754 0.108262,0.35769 0.03609,0.18228 0.03609,0.3852 0,0.48322 -0.257765,0.73945 -0.259487,0.25451 -0.74581,0.25451 -0.470855,0 -0.74409,-0.24591 -0.273233,-0.24591 -0.273233,-0.67067 0,-0.42819 0.254331,-0.66378 0.252614,-0.23732 0.713158,-0.23732 h 0.204496 v 1.30522 q 0.226836,-0.002 0.338535,-0.13413 0.111699,-0.13242 0.111699,-0.39552 0,-0.17369 -0.04984,-0.34221 -0.04983,-0.16853 -0.158094,-0.35253 z m -1.082625,0.42647 q -0.19934,0.003 -0.300731,0.10318 -0.103105,0.098 -0.103105,0.29062 0,0.17369 0.106542,0.27687 0.104828,0.10318 0.299014,0.12209 z"
       style="font-style:normal;font-variant:normal;font-weight:bold;font-stretch:normal;font-size:13.33333302px;line-height:1.25;font-family:monospace;-inkscape-font-specification:'monospace Bold';letter-spacing:0px;word-spacing:0px;fill:#00aeee;fill-opacity:1;stroke:none;stroke-width:0.26404658"
       id="path20085" />
    <path
       d="m 59.559526,212.13398 h -2.565648 v -0.5073 h 2.118851 v -1.0851 h 0.446797 z"
       style="font-style:normal;font-variant:normal;font-weight:bold;font-stretch:normal;font-size:13.33333302px;line-height:1.25;font-family:monospace;-inkscape-font-specification:'monospace Bold';letter-spacing:0px;word-spacing:0px;fill:#00aeee;fill-opacity:1;stroke:none;stroke-width:0.26404658"
       id="path20087" />
    <path
       d="m 58.655619,209.19681 q 0,0.28202 0.07218,0.3938 0.07218,0.11178 0.24746,0.11178 0.130601,0 0.20793,-0.0774 0.07733,-0.0774 0.07733,-0.20979 0,-0.19948 -0.149508,-0.30954 -0.151223,-0.11006 -0.421021,-0.11006 h -0.03437 z m -0.194183,-0.70162 h 1.09809 v 0.50042 h -0.214805 q 0.127164,0.0911 0.195903,0.23388 0.06874,0.14272 0.06874,0.31469 0,0.32845 -0.173561,0.51246 -0.173564,0.18228 -0.484606,0.18228 -0.336814,0 -0.496633,-0.21839 -0.161534,-0.2184 -0.161534,-0.67583 v -0.34909 h -0.0842 q -0.12201,0 -0.183875,0.0894 -0.06358,0.0877 -0.06358,0.25967 0,0.18057 0.0464,0.35081 0.04468,0.16853 0.144349,0.35253 h -0.429612 q -0.06874,-0.16681 -0.101391,-0.33877 -0.03265,-0.17197 -0.03265,-0.36457 0,-0.46947 0.190749,-0.65863 0.190749,-0.19088 0.682225,-0.19088 z"
       style="font-style:normal;font-variant:normal;font-weight:bold;font-stretch:normal;font-size:13.33333302px;line-height:1.25;font-family:monospace;-inkscape-font-specification:'monospace Bold';letter-spacing:0px;word-spacing:0px;fill:#00aeee;fill-opacity:1;stroke:none;stroke-width:0.26404658"
       id="path20089" />
    <path
       d="m 59.767459,207.05756 q 0.271516,0.10146 0.395246,0.24419 0.125446,0.14101 0.125446,0.34393 v 0.41616 h -0.383214 v -0.20464 q 0,-0.15477 -0.05327,-0.22699 -0.05155,-0.0722 -0.242303,-0.14618 l -0.103105,-0.0378 -1.871393,0.73257 v -0.52965 l 1.249315,-0.44023 -1.249315,-0.42132 v -0.52965 z"
       style="font-style:normal;font-variant:normal;font-weight:bold;font-stretch:normal;font-size:13.33333302px;line-height:1.25;font-family:monospace;-inkscape-font-specification:'monospace Bold';letter-spacing:0px;word-spacing:0px;fill:#00aeee;fill-opacity:1;stroke:none;stroke-width:0.26404658"
       id="path20091" />
    <path
       d="m 59.465012,204.26484 q 0.07218,0.17541 0.108262,0.35769 0.03609,0.18228 0.03609,0.3852 0,0.48323 -0.257765,0.73945 -0.259487,0.25451 -0.74581,0.25451 -0.470855,0 -0.74409,-0.24591 -0.273233,-0.24591 -0.273233,-0.67066 0,-0.4282 0.254331,-0.66379 0.252614,-0.23731 0.713158,-0.23731 h 0.204496 v 1.30522 q 0.226836,-0.002 0.338535,-0.13414 0.111699,-0.13241 0.111699,-0.39552 0,-0.17368 -0.04984,-0.34221 -0.04983,-0.16852 -0.158094,-0.35253 z m -1.082625,0.42648 q -0.19934,0.003 -0.300731,0.10318 -0.103105,0.098 -0.103105,0.29062 0,0.17368 0.106542,0.27686 0.104828,0.10318 0.299014,0.1221 z"
       style="font-style:normal;font-variant:normal;font-weight:bold;font-stretch:normal;font-size:13.33333302px;line-height:1.25;font-family:monospace;-inkscape-font-specification:'monospace Bold';letter-spacing:0px;word-spacing:0px;fill:#00aeee;fill-opacity:1;stroke:none;stroke-width:0.26404658"
       id="path20093" />
    <path
       d="m 58.165862,202.06025 q -0.07561,0.0825 -0.113416,0.19432 -0.03781,0.11005 -0.03781,0.24247 0,0.15993 0.05671,0.2803 0.05499,0.11866 0.161533,0.18401 0.0653,0.0413 0.1581,0.0585 0.09279,0.0155 0.281826,0.0155 h 0.886719 v 0.50386 H 57.63486 v -0.50386 h 0.299008 q -0.16497,-0.0739 -0.254328,-0.22699 -0.09108,-0.15305 -0.09108,-0.35769 0,-0.10318 0.0258,-0.2012 0.02405,-0.0997 0.07218,-0.18916 z"
       style="font-style:normal;font-variant:normal;font-weight:bold;font-stretch:normal;font-size:13.33333302px;line-height:1.25;font-family:monospace;-inkscape-font-specification:'monospace Bold';letter-spacing:0px;word-spacing:0px;fill:#00aeee;fill-opacity:1;stroke:none;stroke-width:0.26404658"
       id="path20095" />
    <path
       d="m 59.112729,199.05257 v -1.08166 h 0.446797 v 1.63023 H 59.126477 L 58.83434,199.326 q -0.520692,-0.4901 -0.640982,-0.595 -0.147788,-0.12898 -0.261205,-0.18573 -0.115136,-0.0567 -0.226838,-0.0567 -0.171844,0 -0.264638,0.1049 -0.09452,0.10317 -0.09452,0.29406 0,0.13585 0.05499,0.30609 0.05327,0.16853 0.15638,0.35253 h -0.472575 q -0.06702,-0.184 -0.101387,-0.35941 -0.03609,-0.17712 -0.03609,-0.33877 0,-0.40756 0.190746,-0.63971 0.189031,-0.23387 0.517255,-0.23387 0.151225,0 0.283546,0.0516 0.132321,0.0499 0.293854,0.17368 0.116856,0.0911 0.525849,0.50042 0.221679,0.22184 0.353999,0.35253 z"
       style="font-style:normal;font-variant:normal;font-weight:bold;font-stretch:normal;font-size:13.33333302px;line-height:1.25;font-family:monospace;-inkscape-font-specification:'monospace Bold';letter-spacing:0px;word-spacing:0px;fill:#00aeee;fill-opacity:1;stroke:none;stroke-width:0.26404658"
       id="path20097" />
    <path
       d="m 58.433941,194.68121 q -0.146069,0.38348 -0.305885,0.51934 -0.161533,0.13585 -0.433049,0.13585 -0.348845,0 -0.548186,-0.22355 -0.199341,-0.22356 -0.199341,-0.61392 0,-0.17713 0.04124,-0.35425 0.03953,-0.17712 0.118574,-0.35081 h 0.494914 q -0.115136,0.16337 -0.175284,0.33189 -0.06014,0.16853 -0.06014,0.33362 0,0.184 0.0739,0.28202 0.07389,0.098 0.211367,0.098 0.106545,0 0.177001,-0.0705 0.06874,-0.0722 0.152943,-0.29921 l 0.08249,-0.2184 q 0.113419,-0.30954 0.300728,-0.45571 0.187312,-0.14617 0.472575,-0.14617 0.388371,0 0.580837,0.23044 0.190746,0.22871 0.190746,0.69301 0,0.19089 -0.0464,0.38349 -0.04468,0.19088 -0.134038,0.36972 h -0.524129 q 0.144351,-0.20292 0.214807,-0.39208 0.07046,-0.19088 0.07046,-0.3766 0,-0.18745 -0.0842,-0.29062 -0.08592,-0.10319 -0.238866,-0.10319 -0.115134,0 -0.201057,0.0688 -0.08764,0.0688 -0.137478,0.19948 z"
       style="font-style:normal;font-variant:normal;font-weight:bold;font-stretch:normal;font-size:13.33333302px;line-height:1.25;font-family:monospace;-inkscape-font-specification:'monospace Bold';letter-spacing:0px;word-spacing:0px;fill:#00aeee;fill-opacity:1;stroke:none;stroke-width:0.26404658"
       id="path20099" />
    <path
       d="m 57.634862,193.05786 v -0.9974 h 1.538015 v -0.62596 h 0.386649 v 1.75749 h -0.386649 v -0.62767 h -1.151363 v 0.49354 z m -0.936558,-0.49354 v -0.50386 h 0.58771 v 0.50386 z"
       style="font-style:normal;font-variant:normal;font-weight:bold;font-stretch:normal;font-size:13.33333302px;line-height:1.25;font-family:monospace;-inkscape-font-specification:'monospace Bold';letter-spacing:0px;word-spacing:0px;fill:#00aeee;fill-opacity:1;stroke:none;stroke-width:0.26404658"
       id="path20101" />
    <path
       d="m 59.465012,189.42251 q 0.07218,0.17541 0.108262,0.35769 0.03609,0.18228 0.03609,0.3852 0,0.48322 -0.257765,0.73945 -0.259487,0.25451 -0.74581,0.25451 -0.470855,0 -0.74409,-0.24591 -0.273233,-0.24591 -0.273233,-0.67067 0,-0.42819 0.254331,-0.66378 0.252614,-0.23731 0.713158,-0.23731 h 0.204496 v 1.30521 q 0.226836,-0.002 0.338535,-0.13413 0.111699,-0.13241 0.111699,-0.39552 0,-0.17369 -0.04984,-0.34221 -0.04983,-0.16853 -0.158094,-0.35253 z m -1.082625,0.42648 q -0.19934,0.003 -0.300731,0.10317 -0.103105,0.098 -0.103105,0.29062 0,0.17369 0.106542,0.27687 0.104828,0.10318 0.299014,0.12209 z"
       style="font-style:normal;font-variant:normal;font-weight:bold;font-stretch:normal;font-size:13.33333302px;line-height:1.25;font-family:monospace;-inkscape-font-specification:'monospace Bold';letter-spacing:0px;word-spacing:0px;fill:#00aeee;fill-opacity:1;stroke:none;stroke-width:0.26404658"
       id="path20103" />
    <path
       d="m 57.908095,187.83699 h -1.022481 v -0.50214 h 2.673912 v 0.50214 h -0.285263 q 0.16669,0.0808 0.250894,0.2098 0.0842,0.12725 0.0842,0.30094 0,0.33017 -0.264639,0.51245 -0.264641,0.18228 -0.74581,0.18228 -0.48804,0 -0.749244,-0.18399 -0.261205,-0.18573 -0.261205,-0.52794 0,-0.15477 0.08077,-0.27687 0.07905,-0.12381 0.238866,-0.21667 z m 0.694253,0.70162 q 0.278392,0 0.436489,-0.0929 0.158096,-0.0929 0.158096,-0.25623 0,-0.16337 -0.158096,-0.25795 -0.158097,-0.0946 -0.436489,-0.0946 -0.278389,0 -0.436486,0.0946 -0.158096,0.0946 -0.158096,0.25795 0,0.16337 0.158096,0.25623 0.158097,0.0929 0.436486,0.0929 z"
       style="font-style:normal;font-variant:normal;font-weight:bold;font-stretch:normal;font-size:13.33333302px;line-height:1.25;font-family:monospace;-inkscape-font-specification:'monospace Bold';letter-spacing:0px;word-spacing:0px;fill:#00aeee;fill-opacity:1;stroke:none;stroke-width:0.26404658"
       id="path20105" />
    <path
       d="m 58.75701,186.4114 h -1.484743 v 0.51073 h -0.386653 v -1.01459 h 1.871396 q 0.226836,0 0.32135,-0.0705 0.09452,-0.0705 0.09452,-0.23903 v -0.4024 h 0.386649 v 0.54341 q 0,0.35941 -0.185592,0.5159 -0.185592,0.15649 -0.616924,0.15649 z"
       style="font-style:normal;font-variant:normal;font-weight:bold;font-stretch:normal;font-size:13.33333302px;line-height:1.25;font-family:monospace;-inkscape-font-specification:'monospace Bold';letter-spacing:0px;word-spacing:0px;fill:#00aeee;fill-opacity:1;stroke:none;stroke-width:0.26404658"
       id="path20107" />
    <path
       d="m 59.465012,183.06151 q 0.07218,0.17541 0.108262,0.35769 0.03609,0.18228 0.03609,0.3852 0,0.48322 -0.257765,0.73945 -0.259487,0.25451 -0.74581,0.25451 -0.470855,0 -0.74409,-0.24591 -0.273233,-0.24591 -0.273233,-0.67066 0,-0.4282 0.254331,-0.66379 0.252614,-0.23731 0.713158,-0.23731 h 0.204496 v 1.30521 q 0.226836,-0.002 0.338535,-0.13413 0.111699,-0.13241 0.111699,-0.39552 0,-0.17368 -0.04984,-0.34221 -0.04983,-0.16852 -0.158094,-0.35253 z m -1.082625,0.42647 q -0.19934,0.003 -0.300731,0.10318 -0.103105,0.098 -0.103105,0.29063 0,0.17368 0.106542,0.27686 0.104828,0.10318 0.299014,0.1221 z"
       style="font-style:normal;font-variant:normal;font-weight:bold;font-stretch:normal;font-size:13.33333302px;line-height:1.25;font-family:monospace;-inkscape-font-specification:'monospace Bold';letter-spacing:0px;word-spacing:0px;fill:#00aeee;fill-opacity:1;stroke:none;stroke-width:0.26404658"
       id="path20109" />
    <path
       d="m 56.993878,180.51127 v -0.54514 l 1.864521,-0.71537 h -1.864521 v -0.44711 h 2.565648 v 0.54169 l -1.864519,0.71881 h 1.864519 v 0.44712 z"
       style="font-style:normal;font-variant:normal;font-weight:bold;font-stretch:normal;font-size:13.33333302px;line-height:1.25;font-family:monospace;-inkscape-font-specification:'monospace Bold';letter-spacing:0px;word-spacing:0px;fill:#00aeee;fill-opacity:1;stroke:none;stroke-width:0.26404658"
       id="path20111" />
    <path
       d="m 57.997452,177.53626 q 0,0.18057 0.159817,0.28374 0.158099,0.10319 0.441642,0.10319 0.283546,0 0.443363,-0.10319 0.158096,-0.10317 0.158096,-0.28374 0,-0.18228 -0.158096,-0.28546 -0.159817,-0.10318 -0.443363,-0.10318 -0.283543,0 -0.441642,0.10318 -0.159817,0.10318 -0.159817,0.28546 z m 0.601459,0.89078 q -0.465698,0 -0.737216,-0.24075 -0.273233,-0.24247 -0.273233,-0.65003 0,-0.40927 0.273233,-0.65003 0.271518,-0.24247 0.737216,-0.24247 0.465701,0 0.738937,0.24247 0.271512,0.24076 0.271512,0.65003 0,0.40756 -0.271512,0.65003 -0.273236,0.24075 -0.738937,0.24075 z"
       style="font-style:normal;font-variant:normal;font-weight:bold;font-stretch:normal;font-size:13.33333302px;line-height:1.25;font-family:monospace;-inkscape-font-specification:'monospace Bold';letter-spacing:0px;word-spacing:0px;fill:#00aeee;fill-opacity:1;stroke:none;stroke-width:0.26404658"
       id="path20113" />
    <path
       d="m 57.457859,175.41593 1.049977,0.23903 v -0.47978 z m -0.463981,0.30954 v -0.6208 l 2.565648,-0.69302 v 0.5073 l -0.634108,0.15821 v 0.67926 l 0.634108,0.15477 v 0.5073 z"
       style="font-style:normal;font-variant:normal;font-weight:bold;font-stretch:normal;font-size:13.33333302px;line-height:1.25;font-family:monospace;-inkscape-font-specification:'monospace Bold';letter-spacing:0px;word-spacing:0px;fill:#00aeee;fill-opacity:1;stroke:none;stroke-width:0.26404658"
       id="path20115" />
    <path
       d="m 57.827325,173.16834 q -0.12201,-0.0567 -0.180435,-0.14445 -0.05843,-0.0877 -0.05843,-0.21496 0,-0.24935 0.171847,-0.34393 0.171844,-0.0963 0.714875,-0.0963 h 1.084342 v 0.41272 h -1.235567 q -0.214805,0 -0.28698,0.0327 -0.07217,0.0327 -0.07217,0.11866 0,0.086 0.07389,0.12038 0.07389,0.0344 0.285263,0.0344 h 1.235567 v 0.40756 H 58.32396 q -0.21137,0 -0.285263,0.0344 -0.07389,0.0344 -0.07389,0.12038 0,0.086 0.07217,0.11865 0.07218,0.0327 0.28698,0.0327 h 1.235567 v 0.41272 H 57.63486 v -0.36628 h 0.199337 q -0.113416,-0.043 -0.178718,-0.13758 -0.06702,-0.0946 -0.06702,-0.21151 0,-0.11694 0.07046,-0.21324 0.06874,-0.0963 0.168407,-0.11694 z"
       style="font-style:normal;font-variant:normal;font-weight:bold;font-stretch:normal;font-size:13.33333302px;line-height:1.25;font-family:monospace;-inkscape-font-specification:'monospace Bold';letter-spacing:0px;word-spacing:0px;fill:#00aeee;fill-opacity:1;stroke:none;stroke-width:0.26404658"
       id="path20117" />
    <path
       d="m 59.288013,171.47448 h 1.003575 v 0.50214 h -2.656726 v -0.50214 h 0.2887 q -0.166692,-0.0791 -0.250896,-0.20807 -0.0842,-0.12898 -0.0842,-0.30267 0,-0.33017 0.264642,-0.51245 0.264641,-0.18228 0.745807,-0.18228 0.488043,0 0.749247,0.18572 0.261202,0.184 0.261202,0.52621 0,0.15477 -0.07905,0.27859 -0.08077,0.12209 -0.2423,0.21495 z m -0.692536,-0.70162 q -0.278392,0 -0.436488,0.0929 -0.1581,0.0929 -0.1581,0.25623 0,0.16337 0.1581,0.25795 0.158096,0.0946 0.436488,0.0946 0.278389,0 0.436483,-0.0946 0.158099,-0.0946 0.158099,-0.25795 0,-0.16336 -0.158099,-0.25623 -0.158094,-0.0929 -0.436483,-0.0929 z"
       style="font-style:normal;font-variant:normal;font-weight:bold;font-stretch:normal;font-size:13.33333302px;line-height:1.25;font-family:monospace;-inkscape-font-specification:'monospace Bold';letter-spacing:0px;word-spacing:0px;fill:#00aeee;fill-opacity:1;stroke:none;stroke-width:0.26404658"
       id="path20119" />
    <path
       id="path561-9-1"
       style="clip-rule:evenodd;fill:none;fill-rule:nonzero;stroke:#ea0088;stroke-width:0.35205615;stroke-miterlimit:10;stroke-opacity:1"
       d="m 69.072964,52.322832 c 0.550775,0 0.99773,-0.446917 0.99773,-0.998075 0,-0.551516 -0.446955,-0.998429 -0.99773,-0.998429 -0.550778,0 -0.997382,0.446913 -0.997382,0.998429 0,0.551158 0.446604,0.998075 0.997382,0.998075" />
    <path
       id="path565-7-5"
       style="clip-rule:evenodd;fill:none;fill-rule:nonzero;stroke:#000000;stroke-width:0.23754881px;stroke-miterlimit:10;stroke-opacity:1"
       d="m 68.039544,51.324831 h 2.111637" />
    <path
       id="path569-2-4"
       style="clip-rule:evenodd;fill:none;fill-rule:nonzero;stroke:#000000;stroke-width:0.23754881px;stroke-miterlimit:10;stroke-opacity:1"
       d="M 69.073305,52.366671 V 50.253557" />
    <path
       id="path561-9-1-2"
       style="clip-rule:evenodd;fill:none;fill-rule:nonzero;stroke:#ea0088;stroke-width:0.35205615;stroke-miterlimit:10;stroke-opacity:1"
       d="m 168.83525,52.322828 c 0.55077,0 0.99773,-0.446913 0.99773,-0.998075 0,-0.551512 -0.44696,-0.998428 -0.99773,-0.998428 -0.55077,0 -0.99738,0.446916 -0.99738,0.998428 0,0.551162 0.44661,0.998075 0.99738,0.998075" />
    <path
       id="path565-7-5-3"
       style="clip-rule:evenodd;fill:none;fill-rule:nonzero;stroke:#000000;stroke-width:0.23754881px;stroke-miterlimit:10;stroke-opacity:1"
       d="m 167.80183,51.324827 h 2.11164" />
    <path
       id="path569-2-4-0"
       style="clip-rule:evenodd;fill:none;fill-rule:nonzero;stroke:#000000;stroke-width:0.23754881px;stroke-miterlimit:10;stroke-opacity:1"
       d="M 168.8356,52.366668 V 50.253554" />
    <path
       id="path561-9-1-81"
       style="clip-rule:evenodd;fill:none;fill-rule:nonzero;stroke:#ea0088;stroke-width:0.35203058;stroke-miterlimit:10;stroke-opacity:1"
       d="m 58.963121,52.271591 c 0.550725,0 0.997646,-0.446888 0.997646,-0.998015 0,-0.55148 -0.446921,-0.998369 -0.997646,-0.998369 -0.550728,0 -0.997294,0.446889 -0.997294,0.998369 0,0.551127 0.446566,0.998015 0.997294,0.998015" />
    <path
       id="path565-7-5-39"
       style="clip-rule:evenodd;fill:none;fill-rule:nonzero;stroke:#000000;stroke-width:0.23753151px;stroke-miterlimit:10;stroke-opacity:1"
       d="m 57.929891,51.273681 h 2.111455" />
    <path
       id="path569-2-4-8"
       style="clip-rule:evenodd;fill:none;fill-rule:nonzero;stroke:#000000;stroke-width:0.23753138px;stroke-miterlimit:10;stroke-opacity:1"
       d="m 58.963605,52.315526 v -2.11298" />
    <path
       id="path561-9-1-3"
       style="clip-rule:evenodd;fill:none;fill-rule:nonzero;stroke:#ea0088;stroke-width:0.35203058;stroke-miterlimit:10;stroke-opacity:1"
       d="m 158.71684,52.271591 c 0.55073,0 0.99764,-0.446888 0.99764,-0.998015 0,-0.55148 -0.44691,-0.998369 -0.99764,-0.998369 -0.55073,0 -0.99729,0.446889 -0.99729,0.998369 0,0.551127 0.44656,0.998015 0.99729,0.998015" />
    <path
       id="path565-7-5-6-8"
       style="clip-rule:evenodd;fill:none;fill-rule:nonzero;stroke:#000000;stroke-width:0.23753151px;stroke-miterlimit:10;stroke-opacity:1"
       d="m 157.68361,51.273681 h 2.11145" />
    <path
       id="path569-2-4-2"
       style="clip-rule:evenodd;fill:none;fill-rule:nonzero;stroke:#000000;stroke-width:0.23753138px;stroke-miterlimit:10;stroke-opacity:1"
       d="m 158.71733,52.315526 v -2.11298" />
    <path
       id="path561-9-1-27"
       style="clip-rule:evenodd;fill:none;fill-rule:nonzero;stroke:#ea0088;stroke-width:0.35205615;stroke-miterlimit:10;stroke-opacity:1"
       d="m 69.072898,246.98433 c 0.550772,0 0.997727,-0.44691 0.997727,-0.99807 0,-0.55151 -0.446955,-0.99843 -0.997727,-0.99843 -0.550776,0 -0.997379,0.44692 -0.997379,0.99843 0,0.55116 0.446603,0.99807 0.997379,0.99807" />
    <path
       id="path565-7-5-0"
       style="clip-rule:evenodd;fill:none;fill-rule:nonzero;stroke:#000000;stroke-width:0.23754881px;stroke-miterlimit:10;stroke-opacity:1"
       d="m 68.03948,245.98633 h 2.111632" />
    <path
       id="path569-2-4-9"
       style="clip-rule:evenodd;fill:none;fill-rule:nonzero;stroke:#000000;stroke-width:0.23754881px;stroke-miterlimit:10;stroke-opacity:1"
       d="m 69.073242,247.02818 v -2.11312" />
    <path
       id="path561-9-1-2-3"
       style="clip-rule:evenodd;fill:none;fill-rule:nonzero;stroke:#ea0088;stroke-width:0.35205615;stroke-miterlimit:10;stroke-opacity:1"
       d="m 168.83518,246.98433 c 0.55078,0 0.99774,-0.44691 0.99774,-0.99807 0,-0.55151 -0.44696,-0.99843 -0.99774,-0.99843 -0.55077,0 -0.99737,0.44692 -0.99737,0.99843 0,0.55116 0.4466,0.99807 0.99737,0.99807" />
    <path
       id="path565-7-5-3-6"
       style="clip-rule:evenodd;fill:none;fill-rule:nonzero;stroke:#000000;stroke-width:0.23754881px;stroke-miterlimit:10;stroke-opacity:1"
       d="m 167.80176,245.98633 h 2.11164" />
    <path
       id="path569-2-4-0-06"
       style="clip-rule:evenodd;fill:none;fill-rule:nonzero;stroke:#000000;stroke-width:0.23754881px;stroke-miterlimit:10;stroke-opacity:1"
       d="m 168.83553,247.02817 v -2.11311" />
    <path
       id="path561-9-1-81-2"
       style="clip-rule:evenodd;fill:none;fill-rule:nonzero;stroke:#ea0088;stroke-width:0.35203058;stroke-miterlimit:10;stroke-opacity:1"
       d="m 58.963055,246.93309 c 0.550727,0 0.997646,-0.44688 0.997646,-0.99801 0,-0.55148 -0.446919,-0.99837 -0.997646,-0.99837 -0.550728,0 -0.997292,0.44689 -0.997292,0.99837 0,0.55113 0.446564,0.99801 0.997292,0.99801" />
    <path
       id="path565-7-5-39-6"
       style="clip-rule:evenodd;fill:none;fill-rule:nonzero;stroke:#000000;stroke-width:0.23753151px;stroke-miterlimit:10;stroke-opacity:1"
       d="m 57.929825,245.93518 h 2.111452" />
    <path
       id="path569-2-4-8-1"
       style="clip-rule:evenodd;fill:none;fill-rule:nonzero;stroke:#000000;stroke-width:0.23753138px;stroke-miterlimit:10;stroke-opacity:1"
       d="m 58.963539,246.97703 v -2.11298" />
    <path
       id="path561-9-1-3-8"
       style="clip-rule:evenodd;fill:none;fill-rule:nonzero;stroke:#ea0088;stroke-width:0.35203058;stroke-miterlimit:10;stroke-opacity:1"
       d="m 158.71677,246.93309 c 0.55073,0 0.99765,-0.44688 0.99765,-0.99801 0,-0.55148 -0.44692,-0.99837 -0.99765,-0.99837 -0.55072,0 -0.99729,0.44689 -0.99729,0.99837 0,0.55113 0.44657,0.99801 0.99729,0.99801" />
    <path
       id="path565-7-5-6-8-7"
       style="clip-rule:evenodd;fill:none;fill-rule:nonzero;stroke:#000000;stroke-width:0.23753151px;stroke-miterlimit:10;stroke-opacity:1"
       d="m 157.68355,245.93518 h 2.11144" />
    <path
       id="path569-2-4-2-9"
       style="clip-rule:evenodd;fill:none;fill-rule:nonzero;stroke:#000000;stroke-width:0.23753138px;stroke-miterlimit:10;stroke-opacity:1"
       d="m 158.71726,246.97703 v -2.11298" />
  </g>
</svg>
