<?xml version="1.0" encoding="UTF-8" standalone="no"?>
<svg
   id="svg2888"
   version="1.1"
   viewBox="0 0 210 297"
   height="297mm"
   width="210mm"
   sodipodi:docname="sheet_4_nospeakers.svg"
   inkscape:version="1.3.1 (9b9bdc1480, 2023-11-25, custom)"
   xmlns:inkscape="http://www.inkscape.org/namespaces/inkscape"
   xmlns:sodipodi="http://sodipodi.sourceforge.net/DTD/sodipodi-0.dtd"
   xmlns="http://www.w3.org/2000/svg"
   xmlns:svg="http://www.w3.org/2000/svg"
   xmlns:rdf="http://www.w3.org/1999/02/22-rdf-syntax-ns#"
   xmlns:cc="http://creativecommons.org/ns#"
   xmlns:dc="http://purl.org/dc/elements/1.1/">
  <sodipodi:namedview
     id="namedview7257"
     pagecolor="#ffffff"
     bordercolor="#666666"
     borderopacity="1.0"
     inkscape:showpageshadow="2"
     inkscape:pageopacity="0.0"
     inkscape:pagecheckerboard="0"
     inkscape:deskcolor="#d1d1d1"
     inkscape:document-units="mm"
     showgrid="false"
     inkscape:zoom="0.5683642"
     inkscape:cx="212.89166"
     inkscape:cy="577.97447"
     inkscape:window-width="1517"
     inkscape:window-height="812"
     inkscape:window-x="75"
     inkscape:window-y="0"
     inkscape:window-maximized="0"
     inkscape:current-layer="svg2888" />
  <defs
     id="defs2882">
    <rect
       x="-384.18851"
       y="330.14558"
       width="330.28282"
       height="172.09168"
       id="rect7378" />
    <rect
       x="-384.18851"
       y="330.14557"
       width="330.28281"
       height="172.09167"
       id="rect7378-4" />
    <rect
       x="-384.18851"
       y="330.14557"
       width="330.28281"
       height="172.09167"
       id="rect7378-8" />
    <rect
       x="-384.18851"
       y="330.14557"
       width="330.28281"
       height="172.09167"
       id="rect7378-8-4" />
  </defs>
  <metadata
     id="metadata2885">
    <rdf:RDF>
      <cc:Work
         rdf:about="">
        <dc:format>image/svg+xml</dc:format>
        <dc:type
           rdf:resource="http://purl.org/dc/dcmitype/StillImage" />
      </cc:Work>
    </rdf:RDF>
  </metadata>
  <path
     style="fill:none;stroke:#211e1e;stroke-width:0.06783852;stroke-linecap:butt;stroke-linejoin:miter;stroke-miterlimit:10;stroke-opacity:1"
     d="M 41.977598,253.48493 H 30.859354 V 43.806473 h 11.118244"
     id="path98" />
  <path
     id="path23704"
     style="font-style:normal;font-variant:normal;font-weight:bold;font-stretch:normal;font-size:13.33333302px;line-height:1.25;font-family:monospace;-inkscape-font-specification:'monospace Bold';letter-spacing:0px;word-spacing:0px;fill:#00aeee;fill-opacity:1;stroke:none;stroke-width:0.26404655"
     d="m 55.186801,238.14432 h 0.759558 v -0.33706 q 0,-0.24247 -0.08249,-0.33877 -0.08249,-0.098 -0.286982,-0.098 -0.207933,0 -0.29901,0.10146 -0.09108,0.10146 -0.09108,0.33533 z m -1.000139,0 h 0.596305 v -0.33706 q 0,-0.19259 -0.06874,-0.27342 -0.06874,-0.0825 -0.226838,-0.0825 -0.158095,0 -0.228552,0.0843 -0.07218,0.0825 -0.07218,0.2717 z m -0.403837,0.4901 v -0.82716 q 0,-0.42819 0.163253,-0.64315 0.161535,-0.21667 0.484605,-0.21667 0.247457,0 0.386651,0.12725 0.139196,0.12726 0.161534,0.37317 0.02922,-0.29406 0.197623,-0.44195 0.168408,-0.14961 0.470857,-0.14961 0.371186,0 0.537876,0.22355 0.16669,0.22356 0.16669,0.72741 v 0.82716 z" />
  <path
     id="path23706"
     style="font-style:normal;font-variant:normal;font-weight:bold;font-stretch:normal;font-size:13.33333302px;line-height:1.25;font-family:monospace;-inkscape-font-specification:'monospace Bold';letter-spacing:0px;word-spacing:0px;fill:#00aeee;fill-opacity:1;stroke:none;stroke-width:0.26404655"
     d="m 54.78984,235.66974 q 0,0.18056 0.159816,0.28374 0.158098,0.10318 0.441641,0.10318 0.283545,0 0.443361,-0.10318 0.158098,-0.10318 0.158098,-0.28374 0,-0.18229 -0.158098,-0.28547 -0.159816,-0.10318 -0.443361,-0.10318 -0.283543,0 -0.441641,0.10318 -0.159816,0.10318 -0.159816,0.28547 z m 0.601457,0.89077 q -0.4657,0 -0.737214,-0.24075 -0.273235,-0.24247 -0.273235,-0.65002 0,-0.40928 0.273235,-0.65003 0.271514,-0.24248 0.737214,-0.24248 0.465702,0 0.738935,0.24248 0.271516,0.24075 0.271516,0.65003 0,0.40755 -0.271516,0.65002 -0.273233,0.24075 -0.738935,0.24075 z" />
  <path
     id="path23708"
     style="font-style:normal;font-variant:normal;font-weight:bold;font-stretch:normal;font-size:13.33333302px;line-height:1.25;font-family:monospace;-inkscape-font-specification:'monospace Bold';letter-spacing:0px;word-spacing:0px;fill:#00aeee;fill-opacity:1;stroke:none;stroke-width:0.26404655"
     d="m 54.700481,233.24846 h -1.02248 v -0.50214 h 2.673913 v 0.50214 H 56.06665 q 0.16669,0.0808 0.250894,0.2098 0.0842,0.12725 0.0842,0.30094 0,0.33017 -0.264643,0.51246 -0.264641,0.18228 -0.745808,0.18228 -0.488038,0 -0.749245,-0.184 -0.261204,-0.18573 -0.261204,-0.52794 0,-0.15477 0.08077,-0.27686 0.07905,-0.12382 0.238867,-0.21668 z m 0.694252,0.70162 q 0.278391,0 0.436489,-0.0929 0.158098,-0.0929 0.158098,-0.25623 0,-0.16337 -0.158098,-0.25795 -0.158098,-0.0946 -0.436489,-0.0946 -0.278387,0 -0.436485,0.0946 -0.158098,0.0946 -0.158098,0.25795 0,0.16337 0.158098,0.25623 0.158098,0.0929 0.436485,0.0929 z" />
  <path
     id="path23710"
     style="font-style:normal;font-variant:normal;font-weight:bold;font-stretch:normal;font-size:13.33333302px;line-height:1.25;font-family:monospace;-inkscape-font-specification:'monospace Bold';letter-spacing:0px;word-spacing:0px;fill:#00aeee;fill-opacity:1;stroke:none;stroke-width:0.26404655"
     d="m 56.257397,230.59332 q 0.07218,0.1754 0.108263,0.35768 0.03609,0.18229 0.03609,0.38521 0,0.48322 -0.257767,0.73945 -0.259488,0.25451 -0.745808,0.25451 -0.470858,0 -0.74409,-0.24591 -0.273235,-0.24591 -0.273235,-0.67067 0,-0.42819 0.25433,-0.66379 0.252613,-0.23731 0.713158,-0.23731 h 0.204496 v 1.30522 q 0.226837,-0.002 0.338534,-0.13413 0.1117,-0.13242 0.1117,-0.39552 0,-0.17369 -0.04983,-0.34222 -0.04983,-0.16852 -0.158098,-0.35252 z m -1.082625,0.42647 q -0.19934,0.003 -0.300728,0.10318 -0.103109,0.098 -0.103109,0.29062 0,0.17369 0.106546,0.27687 0.104824,0.10318 0.29901,0.12209 z" />
  <path
     id="path23712"
     style="font-style:normal;font-variant:normal;font-weight:bold;font-stretch:normal;font-size:13.33333302px;line-height:1.25;font-family:monospace;-inkscape-font-specification:'monospace Bold';letter-spacing:0px;word-spacing:0px;fill:#00aeee;fill-opacity:1;stroke:none;stroke-width:0.26404655"
     d="m 55.102597,228.52629 h 1.249317 v 0.50042 h -1.171986 q -0.209652,0 -0.299011,0.0602 -0.09108,0.0585 -0.09108,0.1926 0,0.13585 0.12201,0.21496 0.12201,0.0774 0.338535,0.0774 h 1.101529 v 0.50042 h -1.924668 v -0.50042 h 0.2887 q -0.159817,-0.0533 -0.247457,-0.18228 -0.08764,-0.12898 -0.08764,-0.31126 0,-0.27342 0.182155,-0.41271 0.180439,-0.1393 0.539594,-0.1393 z" />
  <path
     id="path23714"
     style="font-style:normal;font-variant:normal;font-weight:bold;font-stretch:normal;font-size:13.33333302px;line-height:1.25;font-family:monospace;-inkscape-font-specification:'monospace Bold';letter-spacing:0px;word-spacing:0px;fill:#00aeee;fill-opacity:1;stroke:none;stroke-width:0.26404655"
     d="m 56.080397,227.48762 h 1.003576 v 0.50214 h -2.656727 v -0.50214 h 0.2887 q -0.16669,-0.0791 -0.250894,-0.20808 -0.0842,-0.12897 -0.0842,-0.30265 0,-0.33018 0.264641,-0.51246 0.264643,-0.18229 0.745808,-0.18229 0.488041,0 0.749247,0.18573 0.261204,0.184 0.261204,0.52621 0,0.15477 -0.07905,0.27858 -0.08077,0.1221 -0.242302,0.21496 z M 55.38786,226.786 q -0.278387,0 -0.436485,0.0929 -0.158098,0.0929 -0.158098,0.25622 0,0.16337 0.158098,0.25795 0.158098,0.0946 0.436485,0.0946 0.27839,0 0.436488,-0.0946 0.158098,-0.0946 0.158098,-0.25795 0,-0.16336 -0.158098,-0.25622 -0.158098,-0.0929 -0.436488,-0.0929 z" />
  <path
     id="path23716"
     style="font-style:normal;font-variant:normal;font-weight:bold;font-stretch:normal;font-size:13.33333302px;line-height:1.25;font-family:monospace;-inkscape-font-specification:'monospace Bold';letter-spacing:0px;word-spacing:0px;fill:#00aeee;fill-opacity:1;stroke:none;stroke-width:0.26404655"
     d="m 55.549395,225.46187 h -1.484743 v 0.51074 h -0.386651 v -1.0146 h 1.871394 q 0.226837,0 0.321351,-0.0705 0.09451,-0.0705 0.09451,-0.23903 v -0.4024 h 0.386654 v 0.54341 q 0,0.3594 -0.185594,0.51589 -0.185592,0.15649 -0.616925,0.15649 z" />
  <path
     id="path23718"
     style="font-style:normal;font-variant:normal;font-weight:bold;font-stretch:normal;font-size:13.33333302px;line-height:1.25;font-family:monospace;-inkscape-font-specification:'monospace Bold';letter-spacing:0px;word-spacing:0px;fill:#00aeee;fill-opacity:1;stroke:none;stroke-width:0.26404655"
     d="m 55.448007,222.80328 q 0,0.28203 0.07218,0.39381 0.07217,0.11177 0.247455,0.11177 0.130604,0 0.207935,-0.0774 0.07733,-0.0774 0.07733,-0.2098 0,-0.19948 -0.149504,-0.30954 -0.151224,-0.11005 -0.42102,-0.11005 h -0.03437 z m -0.194186,-0.70161 h 1.098093 v 0.50042 h -0.214809 q 0.127168,0.0911 0.195904,0.23387 0.06874,0.14273 0.06874,0.31469 0,0.32846 -0.173563,0.51246 -0.173566,0.18228 -0.484604,0.18228 -0.336816,0 -0.496633,-0.21839 -0.161535,-0.2184 -0.161535,-0.67583 v -0.34908 h -0.0842 q -0.12201,0 -0.183875,0.0894 -0.06358,0.0877 -0.06358,0.25966 0,0.18057 0.0464,0.35081 0.04468,0.16853 0.144351,0.35254 h -0.429614 q -0.06874,-0.16681 -0.101388,-0.33878 -0.03265,-0.17196 -0.03265,-0.36457 0,-0.46946 0.190749,-0.65862 0.190747,-0.19088 0.682224,-0.19088 z" />
  <path
     id="path23720"
     style="font-style:normal;font-variant:normal;font-weight:bold;font-stretch:normal;font-size:13.33333302px;line-height:1.25;font-family:monospace;-inkscape-font-specification:'monospace Bold';letter-spacing:0px;word-spacing:0px;fill:#00aeee;fill-opacity:1;stroke:none;stroke-width:0.26404655"
     d="m 53.880779,220.70015 h 0.546467 v -0.65863 h 0.386651 v 0.65863 h 0.910779 q 0.128887,0 0.185595,-0.0619 0.05499,-0.0636 0.05499,-0.2098 v -0.38692 h 0.386654 v 0.42304 q 0,0.43335 -0.137478,0.5864 -0.139194,0.15305 -0.513816,0.15305 h -0.886723 v 0.49182 h -0.386651 v -0.49182 H 53.88078 Z" />
  <path
     id="path23722"
     style="font-style:normal;font-variant:normal;font-weight:bold;font-stretch:normal;font-size:13.33333302px;line-height:1.25;font-family:monospace;-inkscape-font-specification:'monospace Bold';letter-spacing:0px;word-spacing:0px;fill:#00aeee;fill-opacity:1;stroke:none;stroke-width:0.26404655"
     d="m 53.880779,218.57982 h 0.546467 v -0.65863 h 0.386651 v 0.65863 h 0.910779 q 0.128887,0 0.185595,-0.0619 0.05499,-0.0636 0.05499,-0.2098 v -0.38692 h 0.386654 v 0.42303 q 0,0.43336 -0.137478,0.5864 -0.139194,0.15305 -0.513816,0.15305 h -0.886723 v 0.49183 h -0.386651 v -0.49183 H 53.88078 Z" />
  <path
     id="path23724"
     style="font-style:normal;font-variant:normal;font-weight:bold;font-stretch:normal;font-size:13.33333302px;line-height:1.25;font-family:monospace;-inkscape-font-specification:'monospace Bold';letter-spacing:0px;word-spacing:0px;fill:#00aeee;fill-opacity:1;stroke:none;stroke-width:0.26404655"
     d="m 56.257397,215.75099 q 0.07218,0.1754 0.108263,0.35768 0.03609,0.18229 0.03609,0.3852 0,0.48323 -0.257767,0.73946 -0.259488,0.2545 -0.745808,0.2545 -0.470858,0 -0.74409,-0.24591 -0.273235,-0.24591 -0.273235,-0.67066 0,-0.42819 0.25433,-0.66379 0.252613,-0.23731 0.713158,-0.23731 h 0.204496 v 1.30522 q 0.226837,-0.002 0.338534,-0.13414 0.1117,-0.13241 0.1117,-0.39551 0,-0.17369 -0.04983,-0.34222 -0.04983,-0.16852 -0.158098,-0.35252 z m -1.082625,0.42647 q -0.19934,0.003 -0.300728,0.10318 -0.103109,0.098 -0.103109,0.29062 0,0.17368 0.106546,0.27687 0.104824,0.10317 0.29901,0.12209 z" />
  <path
     id="path23726"
     style="font-style:normal;font-variant:normal;font-weight:bold;font-stretch:normal;font-size:13.33333302px;line-height:1.25;font-family:monospace;-inkscape-font-specification:'monospace Bold';letter-spacing:0px;word-spacing:0px;fill:#00aeee;fill-opacity:1;stroke:none;stroke-width:0.26404655"
     d="m 56.351914,213.01846 h -2.565652 v -0.5073 h 2.118854 v -1.08511 h 0.446798 z" />
  <path
     id="path23728"
     style="font-style:normal;font-variant:normal;font-weight:bold;font-stretch:normal;font-size:13.33333302px;line-height:1.25;font-family:monospace;-inkscape-font-specification:'monospace Bold';letter-spacing:0px;word-spacing:0px;fill:#00aeee;fill-opacity:1;stroke:none;stroke-width:0.26404655"
     d="m 55.448007,210.08129 q 0,0.28202 0.07218,0.3938 0.07217,0.11177 0.247455,0.11177 0.130604,0 0.207935,-0.0774 0.07733,-0.0774 0.07733,-0.2098 0,-0.19948 -0.149504,-0.30954 -0.151224,-0.11005 -0.42102,-0.11005 h -0.03437 z m -0.194186,-0.70162 h 1.098093 v 0.50042 h -0.214809 q 0.127168,0.0911 0.195904,0.23387 0.06874,0.14273 0.06874,0.3147 0,0.32845 -0.173563,0.51245 -0.173566,0.18229 -0.484604,0.18229 -0.336816,0 -0.496633,-0.2184 -0.161535,-0.2184 -0.161535,-0.67582 v -0.34909 h -0.0842 q -0.12201,0 -0.183875,0.0894 -0.06358,0.0877 -0.06358,0.25967 0,0.18056 0.0464,0.35081 0.04468,0.16852 0.144351,0.35252 h -0.429614 q -0.06874,-0.1668 -0.101388,-0.33877 -0.03265,-0.17196 -0.03265,-0.36456 0,-0.46947 0.190749,-0.65863 0.190747,-0.19088 0.682224,-0.19088 z" />
  <path
     id="path23730"
     style="font-style:normal;font-variant:normal;font-weight:bold;font-stretch:normal;font-size:13.33333302px;line-height:1.25;font-family:monospace;-inkscape-font-specification:'monospace Bold';letter-spacing:0px;word-spacing:0px;fill:#00aeee;fill-opacity:1;stroke:none;stroke-width:0.26404655"
     d="m 56.559846,207.94204 q 0.271514,0.10146 0.395243,0.24419 0.125447,0.14101 0.125447,0.34393 v 0.41615 h -0.383214 v -0.20463 q 0,-0.15478 -0.05327,-0.227 -0.05156,-0.0722 -0.242302,-0.14617 l -0.103108,-0.0378 -1.871394,0.73257 v -0.52965 l 1.249314,-0.44024 -1.249314,-0.42131 v -0.52965 z" />
  <path
     id="path23732"
     style="font-style:normal;font-variant:normal;font-weight:bold;font-stretch:normal;font-size:13.33333302px;line-height:1.25;font-family:monospace;-inkscape-font-specification:'monospace Bold';letter-spacing:0px;word-spacing:0px;fill:#00aeee;fill-opacity:1;stroke:none;stroke-width:0.26404655"
     d="m 56.257397,205.14932 q 0.07218,0.1754 0.108263,0.35769 0.03609,0.18228 0.03609,0.3852 0,0.48322 -0.257767,0.73945 -0.259488,0.25451 -0.745808,0.25451 -0.470858,0 -0.74409,-0.24591 -0.273235,-0.24591 -0.273235,-0.67067 0,-0.42819 0.25433,-0.66378 0.252613,-0.23732 0.713158,-0.23732 h 0.204496 v 1.30522 q 0.226837,-0.002 0.338534,-0.13413 0.1117,-0.13242 0.1117,-0.39552 0,-0.17369 -0.04983,-0.34221 -0.04983,-0.16853 -0.158098,-0.35253 z m -1.082625,0.42647 q -0.19934,0.003 -0.300728,0.10318 -0.103109,0.098 -0.103109,0.29062 0,0.17369 0.106546,0.27687 0.104824,0.10318 0.29901,0.12209 z" />
  <path
     id="path23734"
     style="font-style:normal;font-variant:normal;font-weight:bold;font-stretch:normal;font-size:13.33333302px;line-height:1.25;font-family:monospace;-inkscape-font-specification:'monospace Bold';letter-spacing:0px;word-spacing:0px;fill:#00aeee;fill-opacity:1;stroke:none;stroke-width:0.26404655"
     d="m 54.958248,202.94472 q -0.07561,0.0825 -0.113418,0.19432 -0.03781,0.11006 -0.03781,0.24247 0,0.15993 0.05671,0.28031 0.05499,0.11865 0.161535,0.184 0.0653,0.0413 0.158095,0.0585 0.0928,0.0155 0.281827,0.0155 h 0.886723 v 0.50386 h -1.924668 v -0.50386 h 0.29901 q -0.164971,-0.0739 -0.25433,-0.227 -0.09108,-0.15305 -0.09108,-0.35768 0,-0.10318 0.02579,-0.2012 0.02405,-0.0997 0.07217,-0.18916 z" />
  <path
     id="path23736"
     style="font-style:normal;font-variant:normal;font-weight:bold;font-stretch:normal;font-size:13.33333302px;line-height:1.25;font-family:monospace;-inkscape-font-specification:'monospace Bold';letter-spacing:0px;word-spacing:0px;fill:#00aeee;fill-opacity:1;stroke:none;stroke-width:0.26404655"
     d="m 55.905116,199.93705 v -1.08166 h 0.446798 v 1.63023 h -0.433052 l -0.292136,-0.27515 q -0.520693,-0.4901 -0.640982,-0.595 -0.147788,-0.12897 -0.261206,-0.18572 -0.115137,-0.0567 -0.226835,-0.0567 -0.171845,0 -0.264643,0.1049 -0.09451,0.10318 -0.09451,0.29406 0,0.13585 0.05499,0.3061 0.05327,0.16852 0.15638,0.35253 h -0.472573 q -0.06702,-0.18401 -0.10139,-0.35941 -0.03609,-0.17712 -0.03609,-0.33877 0,-0.40756 0.190749,-0.63971 0.189031,-0.23387 0.517256,-0.23387 0.151222,0 0.283542,0.0516 0.132323,0.0499 0.293858,0.17368 0.116852,0.0911 0.525844,0.50042 0.221682,0.22184 0.354003,0.35253 z" />
  <rect
     y="158.60101"
     x="118.04572"
     height="19.965889"
     width="44.892822"
     id="rect10258"
     style="opacity:1;vector-effect:none;fill:none;fill-opacity:1;fill-rule:evenodd;stroke:#eb008a;stroke-width:0.35348332;stroke-linecap:square;stroke-linejoin:miter;stroke-miterlimit:4;stroke-dasharray:none;stroke-dashoffset:0;stroke-opacity:1" />
  <path
     d="m -69.832031,367.42122 q -1.451823,-0.55338 -1.966146,-1.15885 -0.514323,-0.61198 -0.514323,-1.64063 0,-1.32161 0.846354,-2.07682 0.846354,-0.75521 2.324219,-0.75521 0.670573,0 1.341146,0.15625 0.670573,0.14974 1.328125,0.44922 v 1.875 q -0.61849,-0.4362 -1.256511,-0.66406 -0.638021,-0.22786 -1.263021,-0.22786 -0.696614,0 -1.067708,0.27994 -0.371094,0.27995 -0.371094,0.80078 0,0.40365 0.266927,0.67058 0.273438,0.26041 1.132813,0.57942 l 0.826823,0.3125 q 1.171875,0.42969 1.72526,1.13933 0.553386,0.70963 0.553386,1.79036 0,1.47136 -0.872396,2.20052 -0.865886,0.72266 -2.623698,0.72266 -0.722656,0 -1.451823,-0.17578 -0.722656,-0.16927 -1.39974,-0.50782 v -1.98567 q 0.76823,0.54687 1.484375,0.8138 0.722657,0.26693 1.425782,0.26693 0.709635,0 1.10026,-0.31901 0.390625,-0.32552 0.390625,-0.90495 0,-0.4362 -0.260417,-0.76172 -0.260416,-0.33203 -0.755208,-0.52083 z"
     style="stroke-linejoin:miter;font-size:13.33333302px;-inkscape-font-specification:'monospace Bold';fill-opacity:1;letter-spacing:0px;word-spacing:0px;stroke:none;stroke-linecap:butt;stroke-width:1px;font-style:normal;fill:#000000;font-family:monospace;stroke-opacity:1;font-stretch:normal;font-variant:normal;font-weight:bold;line-height:125%"
     id="path12591"
     transform="matrix(0.000000,-0.264583,0.264583,0.000000,-61.030845,147.316470)" />
  <path
     d="m -58.158855,366.95247 v 4.73308 h -1.894531 v -4.44011 q 0,-0.78776 -0.227864,-1.1263 -0.221355,-0.33854 -0.729167,-0.33854 -0.520833,0 -0.813802,0.46224 -0.292969,0.45573 -0.292969,1.26953 v 4.17318 h -1.894531 v -10.13021 h 1.894531 v 3.93229 q 0.201823,-0.60547 0.690104,-0.9375 0.488281,-0.33203 1.178386,-0.33203 1.035156,0 1.5625,0.6901 0.527343,0.6836 0.527343,2.04427 z"
     style="stroke-linejoin:miter;font-size:13.33333302px;-inkscape-font-specification:'monospace Bold';fill-opacity:1;letter-spacing:0px;word-spacing:0px;stroke:none;stroke-linecap:butt;stroke-width:1px;font-style:normal;fill:#000000;font-family:monospace;stroke-opacity:1;font-stretch:normal;font-variant:normal;font-weight:bold;line-height:125%"
     id="path12593"
     transform="matrix(0.000000,-0.264583,0.264583,0.000000,-61.030845,147.316470)" />
  <path
     d="m -49.936199,371.32747 q -0.664062,0.27344 -1.354166,0.41016 -0.690105,0.13672 -1.458334,0.13672 -1.829427,0 -2.799479,-0.97656 -0.963541,-0.98308 -0.963541,-2.82552 0,-1.78386 0.930989,-2.81901 0.93099,-1.03516 2.539063,-1.03516 1.621093,0 2.51302,0.96354 0.898438,0.95703 0.898438,2.70182 v 0.77474 h -4.941406 q 0.0065,0.85938 0.507812,1.28255 0.501302,0.42318 1.497396,0.42318 0.657552,0 1.295573,-0.1888 0.638021,-0.1888 1.334635,-0.59896 z m -1.614583,-4.10156 q -0.01302,-0.75521 -0.390625,-1.13932 -0.371094,-0.39063 -1.10026,-0.39063 -0.657552,0 -1.048177,0.40365 -0.390625,0.39713 -0.46224,1.13281 z"
     style="stroke-linejoin:miter;font-size:13.33333302px;-inkscape-font-specification:'monospace Bold';fill-opacity:1;letter-spacing:0px;word-spacing:0px;stroke:none;stroke-linecap:butt;stroke-width:1px;font-style:normal;fill:#000000;font-family:monospace;stroke-opacity:1;font-stretch:normal;font-variant:normal;font-weight:bold;line-height:125%"
     id="path12595"
     transform="matrix(0.000000,-0.264583,0.264583,0.000000,-61.030845,147.316470)" />
  <path
     d="m -41.915365,371.32747 q -0.664062,0.27344 -1.354166,0.41016 -0.690105,0.13672 -1.458334,0.13672 -1.829427,0 -2.799479,-0.97656 -0.963541,-0.98308 -0.963541,-2.82552 0,-1.78386 0.930989,-2.81901 0.93099,-1.03516 2.539063,-1.03516 1.621093,0 2.51302,0.96354 0.898438,0.95703 0.898438,2.70182 v 0.77474 h -4.941406 q 0.0065,0.85938 0.507812,1.28255 0.501302,0.42318 1.497396,0.42318 0.657552,0 1.295573,-0.1888 0.638021,-0.1888 1.334635,-0.59896 z m -1.614583,-4.10156 q -0.01302,-0.75521 -0.390625,-1.13932 -0.371094,-0.39063 -1.10026,-0.39063 -0.657552,0 -1.048177,0.40365 -0.390625,0.39713 -0.46224,1.13281 z"
     style="stroke-linejoin:miter;font-size:13.33333302px;-inkscape-font-specification:'monospace Bold';fill-opacity:1;letter-spacing:0px;word-spacing:0px;stroke:none;stroke-linecap:butt;stroke-width:1px;font-style:normal;fill:#000000;font-family:monospace;stroke-opacity:1;font-stretch:normal;font-variant:normal;font-weight:bold;line-height:125%"
     id="path12597"
     transform="matrix(0.000000,-0.264583,0.264583,0.000000,-61.030845,147.316470)" />
  <path
     d="m -36.576824,362.32357 v 2.07031 h 2.493489 v 1.46484 h -2.493489 v 3.45052 q 0,0.48829 0.234375,0.70313 0.240885,0.20833 0.794271,0.20833 h 1.464843 v 1.46485 h -1.601562 q -1.640625,0 -2.220052,-0.52084 -0.579427,-0.52734 -0.579427,-1.94661 v -3.35938 h -1.861979 v -1.46484 h 1.861979 v -2.07031 z"
     style="stroke-linejoin:miter;font-size:13.33333302px;-inkscape-font-specification:'monospace Bold';fill-opacity:1;letter-spacing:0px;word-spacing:0px;stroke:none;stroke-linecap:butt;stroke-width:1px;font-style:normal;fill:#000000;font-family:monospace;stroke-opacity:1;font-stretch:normal;font-variant:normal;font-weight:bold;line-height:125%"
     id="path12599"
     transform="matrix(0.000000,-0.264583,0.264583,0.000000,-61.030845,147.316470)" />
  <path
     d="m -20.509115,364.10091 -2.454427,3.84115 h 2.454427 z m -0.169271,-2.13542 h 2.011719 v 5.97657 h 1.067708 v 1.64713 h -1.067708 v 2.09636 h -1.842448 v -2.09636 h -3.854166 v -1.86198 z"
     style="stroke-linejoin:miter;font-size:13.33333302px;-inkscape-font-specification:'monospace Bold';fill-opacity:1;letter-spacing:0px;word-spacing:0px;stroke:none;stroke-linecap:butt;stroke-width:1px;font-style:normal;fill:#000000;font-family:monospace;stroke-opacity:1;font-stretch:normal;font-variant:normal;font-weight:bold;line-height:125%"
     id="path12601"
     transform="matrix(0.000000,-0.264583,0.264583,0.000000,-61.030845,147.316470)" />
  <path
     d="m -7.0260443,366.90039 h 4.1080729 v 1.89453 h -4.1080729 z"
     style="stroke-linejoin:miter;font-size:13.33333302px;-inkscape-font-specification:'monospace Bold';fill-opacity:1;letter-spacing:0px;word-spacing:0px;stroke:none;stroke-linecap:butt;stroke-width:1px;font-style:normal;fill:#000000;font-family:monospace;stroke-opacity:1;font-stretch:normal;font-variant:normal;font-weight:bold;line-height:125%"
     id="path12603"
     transform="matrix(0.000000,-0.264583,0.264583,0.000000,-61.030845,147.316470)" />
  <path
     id="path294"
     d="M 41.977598,253.45569 H 178.65481 V 43.806473 H 41.977598 Z m 0,0"
     style="fill:none;stroke:#ec008c;stroke-width:0.35078275;stroke-linecap:butt;stroke-linejoin:miter;stroke-miterlimit:10;stroke-opacity:1" />
  <path
     transform="matrix(1.000000,0.000000,0.000000,1.000000,0.095970,0.000000)"
     id="path561-9-1-81"
     style="stroke:#ea0088;clip-rule:evenodd;stroke-opacity:1;fill-rule:nonzero;stroke-miterlimit:10;stroke-width:0.35203058;fill:none"
     d="m 58.963121,52.271592 c 0.55073,0 0.997646,-0.446888 0.997646,-0.998015 0,-0.55148 -0.446916,-0.998369 -0.997646,-0.998369 -0.550727,0 -0.997294,0.446889 -0.997294,0.998369 0,0.551127 0.446567,0.998015 0.997294,0.998015" />
  <path
     transform="matrix(1.000000,0.000000,0.000000,1.000000,0.095970,0.000000)"
     id="path565-7-5-39"
     style="stroke:#000000;clip-rule:evenodd;stroke-opacity:1;fill-rule:nonzero;stroke-miterlimit:10;stroke-width:0.23753151px;fill:none"
     d="m 57.929892,51.273682 h 2.111454" />
  <path
     transform="matrix(1.000000,0.000000,0.000000,1.000000,0.095970,0.000000)"
     id="path569-2-4-8"
     style="stroke:#000000;clip-rule:evenodd;stroke-opacity:1;fill-rule:nonzero;stroke-miterlimit:10;stroke-width:0.23753138px;fill:none"
     d="m 58.963605,52.315527 v -2.11298" />
  <path
     transform="matrix(1.000000,0.000000,0.000000,1.000000,0.095970,0.000000)"
     id="path561-9-1-81-2"
     style="stroke:#ea0088;clip-rule:evenodd;stroke-opacity:1;fill-rule:nonzero;stroke-miterlimit:10;stroke-width:0.35203058;fill:none"
     d="m 58.963055,246.93309 c 0.550728,0 0.997646,-0.44688 0.997646,-0.99801 0,-0.55148 -0.446918,-0.99837 -0.997646,-0.99837 -0.550727,0 -0.997291,0.44689 -0.997291,0.99837 0,0.55113 0.446564,0.99801 0.997291,0.99801" />
  <path
     transform="matrix(1.000000,0.000000,0.000000,1.000000,0.095970,0.000000)"
     id="path565-7-5-39-6"
     style="stroke:#000000;clip-rule:evenodd;stroke-opacity:1;fill-rule:nonzero;stroke-miterlimit:10;stroke-width:0.23753151px;fill:none"
     d="m 57.929825,245.93518 h 2.111452" />
  <path
     transform="matrix(1.000000,0.000000,0.000000,1.000000,0.095970,0.000000)"
     id="path569-2-4-8-1"
     style="stroke:#000000;clip-rule:evenodd;stroke-opacity:1;fill-rule:nonzero;stroke-miterlimit:10;stroke-width:0.23753138px;fill:none"
     d="m 58.963539,246.97703 v -2.11298" />
  <path
     transform="matrix(1.000000,0.000000,0.000000,1.000000,10.063970,-0.000001)"
     id="path561-9-1-81-0"
     style="stroke:#ea0088;clip-rule:evenodd;stroke-opacity:1;fill-rule:nonzero;stroke-miterlimit:10;stroke-width:0.35203058;fill:none"
     d="m 58.963121,52.271592 c 0.55073,0 0.997646,-0.446888 0.997646,-0.998015 0,-0.55148 -0.446916,-0.998369 -0.997646,-0.998369 -0.550727,0 -0.997294,0.446889 -0.997294,0.998369 0,0.551127 0.446567,0.998015 0.997294,0.998015" />
  <path
     transform="matrix(1.000000,0.000000,0.000000,1.000000,10.063970,-0.000001)"
     id="path565-7-5-39-9"
     style="stroke:#000000;clip-rule:evenodd;stroke-opacity:1;fill-rule:nonzero;stroke-miterlimit:10;stroke-width:0.23753151px;fill:none"
     d="m 57.929892,51.273682 h 2.111454" />
  <path
     transform="matrix(1.000000,0.000000,0.000000,1.000000,10.063970,-0.000001)"
     id="path569-2-4-8-17"
     style="stroke:#000000;clip-rule:evenodd;stroke-opacity:1;fill-rule:nonzero;stroke-miterlimit:10;stroke-width:0.23753138px;fill:none"
     d="m 58.963605,52.315527 v -2.11298" />
  <path
     transform="matrix(1.000000,0.000000,0.000000,1.000000,10.063970,-0.000001)"
     id="path561-9-1-81-2-7"
     style="stroke:#ea0088;clip-rule:evenodd;stroke-opacity:1;fill-rule:nonzero;stroke-miterlimit:10;stroke-width:0.35203058;fill:none"
     d="m 58.963055,246.93309 c 0.550728,0 0.997646,-0.44688 0.997646,-0.99801 0,-0.55148 -0.446918,-0.99837 -0.997646,-0.99837 -0.550727,0 -0.997291,0.44689 -0.997291,0.99837 0,0.55113 0.446564,0.99801 0.997291,0.99801" />
  <path
     transform="matrix(1.000000,0.000000,0.000000,1.000000,10.063970,-0.000001)"
     id="path565-7-5-39-6-1"
     style="stroke:#000000;clip-rule:evenodd;stroke-opacity:1;fill-rule:nonzero;stroke-miterlimit:10;stroke-width:0.23753151px;fill:none"
     d="m 57.929825,245.93518 h 2.111452" />
  <path
     transform="matrix(1.000000,0.000000,0.000000,1.000000,10.063970,-0.000001)"
     id="path569-2-4-8-1-1"
     style="stroke:#000000;clip-rule:evenodd;stroke-opacity:1;fill-rule:nonzero;stroke-miterlimit:10;stroke-width:0.23753138px;fill:none"
     d="m 58.963539,246.97703 v -2.11298" />
  <path
     transform="matrix(1.000000,0.000000,0.000000,1.000000,89.802765,0.000000)"
     id="path561-9-1-81-7"
     style="stroke:#ea0088;clip-rule:evenodd;stroke-opacity:1;fill-rule:nonzero;stroke-miterlimit:10;stroke-width:0.35203058;fill:none"
     d="m 58.963121,52.271592 c 0.55073,0 0.997646,-0.446888 0.997646,-0.998015 0,-0.55148 -0.446916,-0.998369 -0.997646,-0.998369 -0.550727,0 -0.997294,0.446889 -0.997294,0.998369 0,0.551127 0.446567,0.998015 0.997294,0.998015" />
  <path
     transform="matrix(1.000000,0.000000,0.000000,1.000000,89.802765,0.000000)"
     id="path565-7-5-39-67"
     style="stroke:#000000;clip-rule:evenodd;stroke-opacity:1;fill-rule:nonzero;stroke-miterlimit:10;stroke-width:0.23753151px;fill:none"
     d="m 57.929892,51.273682 h 2.111454" />
  <path
     transform="matrix(1.000000,0.000000,0.000000,1.000000,89.802765,0.000000)"
     id="path569-2-4-8-3"
     style="stroke:#000000;clip-rule:evenodd;stroke-opacity:1;fill-rule:nonzero;stroke-miterlimit:10;stroke-width:0.23753138px;fill:none"
     d="m 58.963605,52.315527 v -2.11298" />
  <path
     transform="matrix(1.000000,0.000000,0.000000,1.000000,89.802765,0.000000)"
     id="path561-9-1-81-2-6"
     style="stroke:#ea0088;clip-rule:evenodd;stroke-opacity:1;fill-rule:nonzero;stroke-miterlimit:10;stroke-width:0.35203058;fill:none"
     d="m 58.963055,246.93309 c 0.550728,0 0.997646,-0.44688 0.997646,-0.99801 0,-0.55148 -0.446918,-0.99837 -0.997646,-0.99837 -0.550727,0 -0.997291,0.44689 -0.997291,0.99837 0,0.55113 0.446564,0.99801 0.997291,0.99801" />
  <path
     transform="matrix(1.000000,0.000000,0.000000,1.000000,89.802765,0.000000)"
     id="path565-7-5-39-6-5"
     style="stroke:#000000;clip-rule:evenodd;stroke-opacity:1;fill-rule:nonzero;stroke-miterlimit:10;stroke-width:0.23753151px;fill:none"
     d="m 57.929825,245.93518 h 2.111452" />
  <path
     transform="matrix(1.000000,0.000000,0.000000,1.000000,89.802765,0.000000)"
     id="path569-2-4-8-1-6"
     style="stroke:#000000;clip-rule:evenodd;stroke-opacity:1;fill-rule:nonzero;stroke-miterlimit:10;stroke-width:0.23753138px;fill:none"
     d="m 58.963539,246.97703 v -2.11298" />
  <path
     transform="matrix(1.000000,0.000000,0.000000,1.000000,99.770765,-0.000001)"
     id="path561-9-1-81-0-9"
     style="stroke:#ea0088;clip-rule:evenodd;stroke-opacity:1;fill-rule:nonzero;stroke-miterlimit:10;stroke-width:0.35203058;fill:none"
     d="m 58.963121,52.271592 c 0.55073,0 0.997646,-0.446888 0.997646,-0.998015 0,-0.55148 -0.446916,-0.998369 -0.997646,-0.998369 -0.550727,0 -0.997294,0.446889 -0.997294,0.998369 0,0.551127 0.446567,0.998015 0.997294,0.998015" />
  <path
     transform="matrix(1.000000,0.000000,0.000000,1.000000,99.770765,-0.000001)"
     id="path565-7-5-39-9-4"
     style="stroke:#000000;clip-rule:evenodd;stroke-opacity:1;fill-rule:nonzero;stroke-miterlimit:10;stroke-width:0.23753151px;fill:none"
     d="m 57.929892,51.273682 h 2.111454" />
  <path
     transform="matrix(1.000000,0.000000,0.000000,1.000000,99.770765,-0.000001)"
     id="path569-2-4-8-17-8"
     style="stroke:#000000;clip-rule:evenodd;stroke-opacity:1;fill-rule:nonzero;stroke-miterlimit:10;stroke-width:0.23753138px;fill:none"
     d="m 58.963605,52.315527 v -2.11298" />
  <path
     transform="matrix(1.000000,0.000000,0.000000,1.000000,99.770765,-0.000001)"
     id="path561-9-1-81-2-7-1"
     style="stroke:#ea0088;clip-rule:evenodd;stroke-opacity:1;fill-rule:nonzero;stroke-miterlimit:10;stroke-width:0.35203058;fill:none"
     d="m 58.963055,246.93309 c 0.550728,0 0.997646,-0.44688 0.997646,-0.99801 0,-0.55148 -0.446918,-0.99837 -0.997646,-0.99837 -0.550727,0 -0.997291,0.44689 -0.997291,0.99837 0,0.55113 0.446564,0.99801 0.997291,0.99801" />
  <path
     transform="matrix(1.000000,0.000000,0.000000,1.000000,99.770765,-0.000001)"
     id="path565-7-5-39-6-1-2"
     style="stroke:#000000;clip-rule:evenodd;stroke-opacity:1;fill-rule:nonzero;stroke-miterlimit:10;stroke-width:0.23753151px;fill:none"
     d="m 57.929825,245.93518 h 2.111452" />
  <path
     transform="matrix(1.000000,0.000000,0.000000,1.000000,99.770765,-0.000001)"
     id="path569-2-4-8-1-1-9"
     style="stroke:#000000;clip-rule:evenodd;stroke-opacity:1;fill-rule:nonzero;stroke-miterlimit:10;stroke-width:0.23753138px;fill:none"
     d="m 58.963539,246.97703 v -2.11298" />
  <path
     d="m 55.915718,195.38179 -2.148012,-0.45303 v -0.5116 l 2.571758,0.61151 v 0.70452 l -2.571758,0.6115 v -0.5116 z"
     id="path9030"
     style="font-weight:bold;font-size:13.3333px;line-height:1.25;font-family:monospace;-inkscape-font-specification:'monospace Bold';letter-spacing:0px;word-spacing:0px;white-space:pre;fill:#00aeee;stroke-width:0.264583" />
  <path
     d="m 54.410215,193.9383 v -0.99908 h 1.541677 v -0.62701 h 0.387572 v 1.76044 h -0.387572 v -0.62872 h -1.154105 v 0.49437 z m -0.938787,-0.49437 v -0.50471 h 0.589111 v 0.50471 z"
     id="path9032"
     style="font-weight:bold;font-size:13.3333px;line-height:1.25;font-family:monospace;-inkscape-font-specification:'monospace Bold';letter-spacing:0px;word-spacing:0px;white-space:pre;fill:#00aeee;stroke-width:0.264583" />
  <path
     d="m 54.470505,190.48804 h 0.440971 q -0.08957,0.13953 -0.134358,0.29111 -0.04651,0.14986 -0.04651,0.30145 0,0.16881 0.04995,0.25493 0.04823,0.0861 0.144692,0.0861 0.137803,0 0.223931,-0.36862 l 0.0052,-0.019 0.03445,-0.14469 q 0.06546,-0.27561 0.211873,-0.40308 0.144696,-0.12919 0.39274,-0.12919 0.298,0 0.447863,0.19637 0.148137,0.19465 0.148137,0.58739 0,0.17398 -0.03101,0.35656 -0.02928,0.1826 -0.08957,0.37035 H 55.82786 q 0.09474,-0.16708 0.144693,-0.33934 0.04996,-0.17398 0.04996,-0.3359 0,-0.17742 -0.05168,-0.26871 -0.05168,-0.0913 -0.14986,-0.0913 -0.09646,0 -0.148141,0.0655 -0.05167,0.0637 -0.110241,0.30661 l -0.03101,0.13953 q -0.06546,0.28939 -0.204984,0.42202 -0.139525,0.13264 -0.37379,0.13264 -0.279053,0 -0.434081,-0.20154 -0.15503,-0.20154 -0.15503,-0.56672 0,-0.16364 0.02756,-0.32556 0.02585,-0.16364 0.07924,-0.31694 z"
     id="path9034"
     style="font-weight:bold;font-size:13.3333px;line-height:1.25;font-family:monospace;-inkscape-font-specification:'monospace Bold';letter-spacing:0px;word-spacing:0px;white-space:pre;fill:#00aeee;stroke-width:0.264583" />
  <path
     d="m 55.433406,188.86541 q 0,0.28249 0.07235,0.39446 0.07234,0.11196 0.248044,0.11196 0.130913,0 0.208428,-0.0775 0.07751,-0.0775 0.07751,-0.21015 0,-0.19981 -0.14986,-0.31006 -0.151585,-0.11024 -0.422023,-0.11024 h -0.03445 z m -0.194648,-0.7028 h 1.100706 v 0.50126 h -0.215318 q 0.127468,0.0913 0.196371,0.23426 0.0689,0.14298 0.0689,0.31523 0,0.32901 -0.173977,0.51332 -0.173976,0.18259 -0.485756,0.18259 -0.337619,0 -0.497816,-0.21877 -0.16192,-0.21876 -0.16192,-0.67695 v -0.34968 h -0.0844 q -0.122298,0 -0.184311,0.0896 -0.06373,0.0878 -0.06373,0.26011 0,0.18086 0.04651,0.35139 0.04479,0.16881 0.144692,0.35313 h -0.430636 q -0.0689,-0.16709 -0.101629,-0.33935 -0.03273,-0.17225 -0.03273,-0.36517 0,-0.47026 0.191202,-0.65974 0.191203,-0.1912 0.68385,-0.1912 z"
     id="path9036"
     style="font-weight:bold;font-size:13.3333px;line-height:1.25;font-family:monospace;-inkscape-font-specification:'monospace Bold';letter-spacing:0px;word-spacing:0px;white-space:pre;fill:#00aeee;stroke-width:0.264583" />
  <path
     d="m 53.862445,186.75874 h 0.54777 V 186.099 h 0.387572 v 0.65974 h 0.912948 q 0.12919,0 0.186036,-0.062 0.05512,-0.0637 0.05512,-0.21015 V 186.099 h 0.387572 v 0.42375 q 0,0.43408 -0.137803,0.58738 -0.139525,0.15331 -0.515041,0.15331 h -0.888833 v 0.49265 h -0.387572 v -0.49265 h -0.54777 z"
     id="path9038"
     style="font-weight:bold;font-size:13.3333px;line-height:1.25;font-family:monospace;-inkscape-font-specification:'monospace Bold';letter-spacing:0px;word-spacing:0px;white-space:pre;fill:#00aeee;stroke-width:0.264583" />
  <path
     d="m 54.773673,184.76231 q 0,0.18086 0.160195,0.28422 0.158474,0.10335 0.442695,0.10335 0.284218,0 0.444415,-0.10335 0.158475,-0.10336 0.158475,-0.28422 0,-0.18259 -0.158475,-0.28594 -0.160197,-0.10336 -0.444415,-0.10336 -0.284221,0 -0.442695,0.10336 -0.160195,0.10335 -0.160195,0.28594 z m 0.60289,0.89227 q -0.466809,0 -0.738973,-0.24115 -0.273884,-0.24288 -0.273884,-0.65112 0,-0.40997 0.273884,-0.65112 0.272164,-0.24288 0.738973,-0.24288 0.466807,0 0.740693,0.24288 0.272161,0.24115 0.272161,0.65112 0,0.40824 -0.272161,0.65112 -0.273886,0.24115 -0.740693,0.24115 z"
     id="path9040"
     style="font-weight:bold;font-size:13.3333px;line-height:1.25;font-family:monospace;-inkscape-font-specification:'monospace Bold';letter-spacing:0px;word-spacing:0px;white-space:pre;fill:#00aeee;stroke-width:0.264583" />
  <path
     d="m 55.087175,181.85465 h 1.252289 v 0.50127 H 55.16469 q -0.21015,0 -0.299723,0.0603 -0.09129,0.0586 -0.09129,0.19293 0,0.13608 0.122298,0.21532 0.122301,0.0775 0.339342,0.0775 h 1.104151 v 0.50126 h -1.929249 v -0.50126 h 0.289388 q -0.160197,-0.0534 -0.248047,-0.18259 -0.08785,-0.12919 -0.08785,-0.31178 0,-0.27388 0.182589,-0.41341 0.180867,-0.13953 0.54088,-0.13953 z"
     id="path9042"
     style="font-weight:bold;font-size:13.3333px;line-height:1.25;font-family:monospace;-inkscape-font-specification:'monospace Bold';letter-spacing:0px;word-spacing:0px;white-space:pre;fill:#00aeee;stroke-width:0.264583" />
  <path
     d="m 53.767706,180.02704 v -0.38069 l 2.899042,1.35392 v 0.38068 z"
     id="path9044"
     style="font-weight:bold;font-size:13.3333px;line-height:1.25;font-family:monospace;-inkscape-font-specification:'monospace Bold';letter-spacing:0px;word-spacing:0px;white-space:pre;fill:#00aeee;stroke-width:0.264583" />
  <path
     d="m 53.767706,179.45171 v -0.44442 l 1.887908,-0.18431 -1.221282,-0.22221 v -0.42202 l 1.221282,-0.25838 -1.887908,-0.1447 v -0.44786 l 2.571758,0.29628 v 0.4737 l -1.350473,0.29283 1.350473,0.27388 v 0.47026 z"
     id="path9046"
     style="font-weight:bold;font-size:13.3333px;line-height:1.25;font-family:monospace;-inkscape-font-specification:'monospace Bold';letter-spacing:0px;word-spacing:0px;white-space:pre;fill:#00aeee;stroke-width:0.264583" />
  <path
     d="m 55.433406,176.12203 q 0,0.2825 0.07235,0.39446 0.07234,0.11197 0.248044,0.11197 0.130913,0 0.208428,-0.0775 0.07751,-0.0775 0.07751,-0.21015 0,-0.19981 -0.14986,-0.31005 -0.151585,-0.11025 -0.422023,-0.11025 h -0.03445 z m -0.194648,-0.7028 h 1.100706 v 0.50126 h -0.215318 q 0.127468,0.0913 0.196371,0.23427 0.0689,0.14297 0.0689,0.31522 0,0.32901 -0.173977,0.51332 -0.173976,0.18259 -0.485756,0.18259 -0.337619,0 -0.497816,-0.21876 -0.16192,-0.21876 -0.16192,-0.67696 v -0.34968 h -0.0844 q -0.122298,0 -0.184311,0.0896 -0.06373,0.0878 -0.06373,0.2601 0,0.18087 0.04651,0.3514 0.04479,0.16881 0.144692,0.35312 h -0.430636 q -0.0689,-0.16709 -0.101629,-0.33934 -0.03273,-0.17226 -0.03273,-0.36518 0,-0.47025 0.191202,-0.65974 0.191203,-0.1912 0.68385,-0.1912 z"
     id="path9048"
     style="font-weight:bold;font-size:13.3333px;line-height:1.25;font-family:monospace;-inkscape-font-specification:'monospace Bold';letter-spacing:0px;word-spacing:0px;white-space:pre;fill:#00aeee;stroke-width:0.264583" />
  <path
     d="m 54.410215,173.21782 1.929249,0.61323 v 0.62184 l -1.929249,0.61322 v -0.5116 l 1.505503,-0.41168 -1.505503,-0.41341 z"
     id="path9050"
     style="font-weight:bold;font-size:13.3333px;line-height:1.25;font-family:monospace;-inkscape-font-specification:'monospace Bold';letter-spacing:0px;word-spacing:0px;white-space:pre;fill:#00aeee;stroke-width:0.264583" />
  <path
     d="m 56.244725,171.18178 q 0.07234,0.17569 0.108518,0.35829 0.03617,0.18259 0.03617,0.38584 0,0.48404 -0.258381,0.7407 -0.260104,0.25494 -0.747583,0.25494 -0.471977,0 -0.745863,-0.24633 -0.273884,-0.24632 -0.273884,-0.67179 0,-0.42892 0.254937,-0.6649 0.253214,-0.23771 0.714857,-0.23771 h 0.20498 v 1.30741 q 0.227378,-0.002 0.339342,-0.13436 0.111966,-0.13264 0.111966,-0.39619 0,-0.17397 -0.04995,-0.34278 -0.04995,-0.16881 -0.158475,-0.35312 z m -1.085202,0.42719 q -0.199816,0.003 -0.301445,0.10335 -0.103354,0.0982 -0.103354,0.29111 0,0.17398 0.106799,0.27733 0.105074,0.10335 0.299722,0.1223 z"
     id="path9052"
     style="font-weight:bold;font-size:13.3333px;line-height:1.25;font-family:monospace;-inkscape-font-specification:'monospace Bold';letter-spacing:0px;word-spacing:0px;white-space:pre;fill:#00aeee;stroke-width:0.264583" />
  <path
     d="m 55.211199,170.07763 q -0.146418,0.38412 -0.306613,0.5202 -0.16192,0.13609 -0.434081,0.13609 -0.349678,0 -0.549491,-0.22393 -0.199816,-0.22394 -0.199816,-0.61495 0,-0.17743 0.04134,-0.35485 0.03962,-0.17742 0.118856,-0.3514 h 0.496091 q -0.115409,0.16365 -0.175699,0.33246 -0.06029,0.1688 -0.06029,0.33417 0,0.18431 0.07407,0.28249 0.07407,0.0982 0.211873,0.0982 0.106796,0 0.177422,-0.0706 0.0689,-0.0724 0.153304,-0.29973 l 0.08268,-0.21876 q 0.113689,-0.31006 0.301445,-0.45647 0.187759,-0.14642 0.473699,-0.14642 0.389295,0 0.582221,0.23082 0.191201,0.2291 0.191201,0.69419 0,0.1912 -0.04651,0.38412 -0.04479,0.19121 -0.134358,0.37035 h -0.525375 q 0.144692,-0.20326 0.215317,-0.39274 0.07062,-0.1912 0.07062,-0.37724 0,-0.18775 -0.0844,-0.29111 -0.08613,-0.10335 -0.239432,-0.10335 -0.115411,0 -0.201538,0.0689 -0.08785,0.0689 -0.137803,0.19982 z"
     id="path9054"
     style="font-weight:bold;font-size:13.3333px;line-height:1.25;font-family:monospace;-inkscape-font-specification:'monospace Bold';letter-spacing:0px;word-spacing:0px;white-space:pre;fill:#00aeee;stroke-width:0.264583" />
  <path
     d="m 55.087175,166.98738 h 1.252289 v 0.50126 H 55.16469 q -0.208428,0 -0.298,0.0603 -0.08957,0.0586 -0.08957,0.19293 0,0.1378 0.122298,0.21531 0.120579,0.0775 0.335897,0.0775 h 1.104151 v 0.50126 h -2.680277 v -0.50126 h 1.040416 q -0.160197,-0.0534 -0.248047,-0.18259 -0.08785,-0.12919 -0.08785,-0.31178 0,-0.27389 0.182589,-0.41341 0.180867,-0.13953 0.54088,-0.13953 z"
     id="path9056"
     style="font-weight:bold;font-size:13.3333px;line-height:1.25;font-family:monospace;-inkscape-font-specification:'monospace Bold';letter-spacing:0px;word-spacing:0px;white-space:pre;fill:#00aeee;stroke-width:0.264583" />
  <path
     d="m 55.433406,165.50255 q 0,0.2825 0.07235,0.39446 0.07234,0.11197 0.248044,0.11197 0.130913,0 0.208428,-0.0775 0.07751,-0.0775 0.07751,-0.21015 0,-0.19981 -0.14986,-0.31005 -0.151585,-0.11025 -0.422023,-0.11025 h -0.03445 z m -0.194648,-0.7028 h 1.100706 v 0.50126 h -0.215318 q 0.127468,0.0913 0.196371,0.23427 0.0689,0.14297 0.0689,0.31522 0,0.32901 -0.173977,0.51332 -0.173976,0.18259 -0.485756,0.18259 -0.337619,0 -0.497816,-0.21876 -0.16192,-0.21877 -0.16192,-0.67696 v -0.34968 h -0.0844 q -0.122298,0 -0.184311,0.0896 -0.06373,0.0879 -0.06373,0.2601 0,0.18087 0.04651,0.3514 0.04479,0.16881 0.144692,0.35312 h -0.430636 q -0.0689,-0.16709 -0.101629,-0.33934 -0.03273,-0.17226 -0.03273,-0.36518 0,-0.47025 0.191202,-0.65974 0.191203,-0.1912 0.68385,-0.1912 z"
     id="path9058"
     style="font-weight:bold;font-size:13.3333px;line-height:1.25;font-family:monospace;-inkscape-font-specification:'monospace Bold';letter-spacing:0px;word-spacing:0px;white-space:pre;fill:#00aeee;stroke-width:0.264583" />
  <path
     d="m 54.94248,162.60179 q -0.07579,0.0827 -0.113686,0.19464 -0.0379,0.11025 -0.0379,0.24288 0,0.1602 0.05684,0.28078 0.05512,0.11885 0.16192,0.18431 0.06546,0.0413 0.158475,0.0586 0.09302,0.0155 0.282496,0.0155 h 0.888833 v 0.50471 h -1.929249 v -0.50471 h 0.299723 q -0.165365,-0.0741 -0.254937,-0.22737 -0.0913,-0.15331 -0.0913,-0.3583 0,-0.10335 0.02585,-0.20153 0.0241,-0.0999 0.07234,-0.18948 z"
     id="path9060"
     style="font-weight:bold;font-size:13.3333px;line-height:1.25;font-family:monospace;-inkscape-font-specification:'monospace Bold';letter-spacing:0px;word-spacing:0px;white-space:pre;fill:#00aeee;stroke-width:0.264583" />
  <path
     d="m 56.244725,160.56229 q 0.07234,0.1757 0.108518,0.3583 0.03617,0.18258 0.03617,0.38585 0,0.48403 -0.258381,0.74069 -0.260104,0.25494 -0.747583,0.25494 -0.471977,0 -0.745863,-0.24633 -0.273884,-0.24632 -0.273884,-0.67179 0,-0.42892 0.254937,-0.6649 0.253214,-0.23772 0.714857,-0.23772 h 0.20498 v 1.30742 q 0.227378,-0.002 0.339342,-0.13436 0.111966,-0.13264 0.111966,-0.39619 0,-0.17397 -0.04995,-0.34278 -0.04995,-0.16881 -0.158475,-0.35313 z m -1.085202,0.4272 q -0.199816,0.003 -0.301445,0.10335 -0.103354,0.0982 -0.103354,0.29111 0,0.17397 0.106799,0.27733 0.105074,0.10335 0.299722,0.1223 z"
     id="path9062"
     style="font-weight:bold;font-size:13.3333px;line-height:1.25;font-family:monospace;-inkscape-font-specification:'monospace Bold';letter-spacing:0px;word-spacing:0px;white-space:pre;fill:#00aeee;stroke-width:0.264583" />
  <path
     d="m 36.871581,144.38849 -2.148012,-0.45303 v -0.5116 l 2.571758,0.61151 v 0.70452 l -2.571758,0.6115 v -0.51159 z"
     id="path8978"
     style="font-weight:bold;font-size:13.3333px;line-height:1.25;font-family:monospace;-inkscape-font-specification:'monospace Bold';letter-spacing:0px;word-spacing:0px;white-space:pre;stroke-width:0.264583" />
  <path
     d="m 35.366078,142.945 v -0.99908 h 1.541677 v -0.627 h 0.387572 v 1.76044 h -0.387572 v -0.62873 H 35.75365 v 0.49437 z m -0.938787,-0.49437 v -0.50471 h 0.589111 v 0.50471 z"
     id="path8980"
     style="font-weight:bold;font-size:13.3333px;line-height:1.25;font-family:monospace;-inkscape-font-specification:'monospace Bold';letter-spacing:0px;word-spacing:0px;white-space:pre;stroke-width:0.264583" />
  <path
     d="m 35.426368,139.49474 h 0.440971 q -0.08957,0.13953 -0.134358,0.29111 -0.04651,0.14986 -0.04651,0.30145 0,0.16881 0.04995,0.25494 0.04823,0.0861 0.144692,0.0861 0.137803,0 0.223931,-0.36862 l 0.0052,-0.019 0.03445,-0.14469 q 0.06546,-0.27561 0.211873,-0.40308 0.144696,-0.12919 0.39274,-0.12919 0.298,0 0.447863,0.19637 0.148137,0.19465 0.148137,0.58739 0,0.17398 -0.03101,0.35657 -0.02928,0.18259 -0.08957,0.37034 h -0.440971 q 0.09474,-0.16708 0.144693,-0.33934 0.04996,-0.17397 0.04996,-0.33589 0,-0.17743 -0.05168,-0.26872 -0.05168,-0.0913 -0.14986,-0.0913 -0.09646,0 -0.148141,0.0655 -0.05167,0.0637 -0.110241,0.30662 l -0.03101,0.13952 q -0.06546,0.28939 -0.204984,0.42202 -0.139525,0.13264 -0.37379,0.13264 -0.279053,0 -0.434081,-0.20154 -0.15503,-0.20154 -0.15503,-0.56671 0,-0.16365 0.02756,-0.32557 0.02585,-0.16364 0.07924,-0.31694 z"
     id="path8982"
     style="font-weight:bold;font-size:13.3333px;line-height:1.25;font-family:monospace;-inkscape-font-specification:'monospace Bold';letter-spacing:0px;word-spacing:0px;white-space:pre;stroke-width:0.264583" />
  <path
     d="m 36.389269,137.87211 q 0,0.2825 0.07235,0.39446 0.07235,0.11197 0.248044,0.11197 0.130913,0 0.208428,-0.0775 0.07751,-0.0775 0.07751,-0.21015 0,-0.19981 -0.14986,-0.31006 -0.151585,-0.11024 -0.422023,-0.11024 h -0.03445 z m -0.194648,-0.7028 h 1.100706 v 0.50126 h -0.215318 q 0.127468,0.0913 0.196371,0.23427 0.0689,0.14297 0.0689,0.31522 0,0.32901 -0.173977,0.51332 -0.173976,0.18259 -0.485756,0.18259 -0.337619,0 -0.497816,-0.21877 -0.16192,-0.21876 -0.16192,-0.67695 v -0.34968 h -0.0844 q -0.122298,0 -0.184311,0.0896 -0.06373,0.0879 -0.06373,0.26011 0,0.18086 0.04651,0.3514 0.04479,0.1688 0.144692,0.35312 h -0.430636 q -0.0689,-0.16709 -0.101629,-0.33934 -0.03273,-0.17226 -0.03273,-0.36518 0,-0.47026 0.191202,-0.65974 0.191203,-0.1912 0.68385,-0.1912 z"
     id="path8984"
     style="font-weight:bold;font-size:13.3333px;line-height:1.25;font-family:monospace;-inkscape-font-specification:'monospace Bold';letter-spacing:0px;word-spacing:0px;white-space:pre;stroke-width:0.264583" />
  <path
     d="m 34.818308,135.76544 h 0.54777 v -0.65974 h 0.387572 v 0.65974 h 0.912948 q 0.12919,0 0.186036,-0.062 0.05512,-0.0637 0.05512,-0.21015 v -0.38758 h 0.387572 v 0.42375 q 0,0.43408 -0.137803,0.58738 -0.139525,0.15331 -0.515041,0.15331 H 35.75365 v 0.49265 h -0.387572 v -0.49265 h -0.54777 z"
     id="path8986"
     style="font-weight:bold;font-size:13.3333px;line-height:1.25;font-family:monospace;-inkscape-font-specification:'monospace Bold';letter-spacing:0px;word-spacing:0px;white-space:pre;stroke-width:0.264583" />
  <path
     d="m 35.729536,133.76901 q 0,0.18087 0.160195,0.28422 0.158474,0.10335 0.442695,0.10335 0.284218,0 0.444415,-0.10335 0.158475,-0.10335 0.158475,-0.28422 0,-0.18259 -0.158475,-0.28594 -0.160197,-0.10336 -0.444415,-0.10336 -0.284221,0 -0.442695,0.10336 -0.160195,0.10335 -0.160195,0.28594 z m 0.60289,0.89228 q -0.466809,0 -0.738973,-0.24116 -0.273884,-0.24288 -0.273884,-0.65112 0,-0.40997 0.273884,-0.65112 0.272164,-0.24288 0.738973,-0.24288 0.466807,0 0.740693,0.24288 0.272161,0.24115 0.272161,0.65112 0,0.40824 -0.272161,0.65112 -0.273886,0.24116 -0.740693,0.24116 z"
     id="path8988"
     style="font-weight:bold;font-size:13.3333px;line-height:1.25;font-family:monospace;-inkscape-font-specification:'monospace Bold';letter-spacing:0px;word-spacing:0px;white-space:pre;stroke-width:0.264583" />
  <path
     d="m 36.043038,130.86136 h 1.252289 v 0.50126 h -1.174774 q -0.21015,0 -0.299723,0.0603 -0.09129,0.0586 -0.09129,0.19293 0,0.13608 0.122298,0.21532 0.122301,0.0775 0.339342,0.0775 h 1.104151 v 0.50126 h -1.929249 v -0.50126 h 0.289388 q -0.160197,-0.0534 -0.248047,-0.18259 -0.08785,-0.12919 -0.08785,-0.31178 0,-0.27388 0.182589,-0.41341 0.180867,-0.13952 0.54088,-0.13952 z"
     id="path8990"
     style="font-weight:bold;font-size:13.3333px;line-height:1.25;font-family:monospace;-inkscape-font-specification:'monospace Bold';letter-spacing:0px;word-spacing:0px;white-space:pre;stroke-width:0.264583" />
  <path
     d="m 34.723569,129.03374 v -0.38068 l 2.899042,1.35391 v 0.38069 z"
     id="path8992"
     style="font-weight:bold;font-size:13.3333px;line-height:1.25;font-family:monospace;-inkscape-font-specification:'monospace Bold';letter-spacing:0px;word-spacing:0px;white-space:pre;stroke-width:0.264583" />
  <path
     d="m 34.723569,128.45841 v -0.44442 l 1.887908,-0.18431 -1.221282,-0.22221 v -0.42202 l 1.221282,-0.25838 -1.887908,-0.1447 v -0.44786 l 2.571758,0.29628 v 0.4737 l -1.350473,0.29283 1.350473,0.27389 v 0.47025 z"
     id="path8994"
     style="font-weight:bold;font-size:13.3333px;line-height:1.25;font-family:monospace;-inkscape-font-specification:'monospace Bold';letter-spacing:0px;word-spacing:0px;white-space:pre;stroke-width:0.264583" />
  <path
     d="m 36.389269,125.12873 q 0,0.2825 0.07235,0.39446 0.07235,0.11197 0.248044,0.11197 0.130913,0 0.208428,-0.0775 0.07751,-0.0775 0.07751,-0.21015 0,-0.19981 -0.14986,-0.31005 -0.151585,-0.11024 -0.422023,-0.11024 h -0.03445 z m -0.194648,-0.7028 h 1.100706 v 0.50127 h -0.215318 q 0.127468,0.0913 0.196371,0.23426 0.0689,0.14297 0.0689,0.31522 0,0.32901 -0.173977,0.51332 -0.173976,0.18259 -0.485756,0.18259 -0.337619,0 -0.497816,-0.21876 -0.16192,-0.21876 -0.16192,-0.67696 v -0.34967 h -0.0844 q -0.122298,0 -0.184311,0.0896 -0.06373,0.0879 -0.06373,0.2601 0,0.18087 0.04651,0.3514 0.04479,0.16881 0.144692,0.35312 h -0.430636 q -0.0689,-0.16709 -0.101629,-0.33934 -0.03273,-0.17225 -0.03273,-0.36518 0,-0.47025 0.191202,-0.65973 0.191203,-0.19121 0.68385,-0.19121 z"
     id="path8996"
     style="font-weight:bold;font-size:13.3333px;line-height:1.25;font-family:monospace;-inkscape-font-specification:'monospace Bold';letter-spacing:0px;word-spacing:0px;white-space:pre;stroke-width:0.264583" />
  <path
     d="m 35.366078,122.22452 1.929249,0.61323 v 0.62184 l -1.929249,0.61322 v -0.51159 l 1.505503,-0.41169 -1.505503,-0.41341 z"
     id="path8998"
     style="font-weight:bold;font-size:13.3333px;line-height:1.25;font-family:monospace;-inkscape-font-specification:'monospace Bold';letter-spacing:0px;word-spacing:0px;white-space:pre;stroke-width:0.264583" />
  <path
     d="m 37.200588,120.18848 q 0.07234,0.1757 0.108518,0.35829 0.03617,0.18259 0.03617,0.38584 0,0.48404 -0.258381,0.7407 -0.260104,0.25494 -0.747583,0.25494 -0.471977,0 -0.745863,-0.24633 -0.273884,-0.24632 -0.273884,-0.67179 0,-0.42891 0.254937,-0.6649 0.253214,-0.23771 0.714857,-0.23771 h 0.20498 v 1.30741 q 0.227378,-0.002 0.339342,-0.13436 0.111966,-0.13264 0.111966,-0.39619 0,-0.17397 -0.04995,-0.34278 -0.04995,-0.16881 -0.158475,-0.35312 z m -1.085202,0.42719 q -0.199816,0.003 -0.301445,0.10335 -0.103354,0.0982 -0.103354,0.29111 0,0.17398 0.106799,0.27733 0.105074,0.10335 0.299722,0.1223 z"
     id="path9000"
     style="font-weight:bold;font-size:13.3333px;line-height:1.25;font-family:monospace;-inkscape-font-specification:'monospace Bold';letter-spacing:0px;word-spacing:0px;white-space:pre;stroke-width:0.264583" />
  <path
     d="m 36.167062,119.08433 q -0.146418,0.38413 -0.306613,0.52021 -0.16192,0.13608 -0.434081,0.13608 -0.349678,0 -0.549491,-0.22393 -0.199816,-0.22393 -0.199816,-0.61495 0,-0.17743 0.04134,-0.35485 0.03962,-0.17742 0.118856,-0.3514 h 0.496091 q -0.115409,0.16365 -0.175699,0.33246 -0.06029,0.16881 -0.06029,0.33417 0,0.18431 0.07407,0.2825 0.07407,0.0982 0.211873,0.0982 0.106796,0 0.177422,-0.0706 0.0689,-0.0724 0.153304,-0.29973 l 0.08268,-0.21876 q 0.113689,-0.31006 0.301445,-0.45647 0.187759,-0.14642 0.473699,-0.14642 0.389295,0 0.582221,0.23082 0.191201,0.2291 0.191201,0.69419 0,0.1912 -0.04651,0.38412 -0.04479,0.19121 -0.134358,0.37035 h -0.525375 q 0.144692,-0.20326 0.215317,-0.39274 0.07062,-0.1912 0.07062,-0.37724 0,-0.18775 -0.08441,-0.29111 -0.08613,-0.10335 -0.239432,-0.10335 -0.115411,0 -0.201538,0.0689 -0.08785,0.0689 -0.137803,0.19982 z"
     id="path9002"
     style="font-weight:bold;font-size:13.3333px;line-height:1.25;font-family:monospace;-inkscape-font-specification:'monospace Bold';letter-spacing:0px;word-spacing:0px;white-space:pre;stroke-width:0.264583" />
  <path
     d="m 36.043038,115.99408 h 1.252289 v 0.50126 h -1.174774 q -0.208428,0 -0.298,0.0603 -0.08957,0.0586 -0.08957,0.19293 0,0.1378 0.122298,0.21531 0.120579,0.0775 0.335897,0.0775 h 1.104151 v 0.50126 H 34.61505 v -0.50126 h 1.040416 q -0.160197,-0.0534 -0.248047,-0.18259 -0.08785,-0.12919 -0.08785,-0.31178 0,-0.27388 0.182589,-0.41341 0.180867,-0.13953 0.54088,-0.13953 z"
     id="path9004"
     style="font-weight:bold;font-size:13.3333px;line-height:1.25;font-family:monospace;-inkscape-font-specification:'monospace Bold';letter-spacing:0px;word-spacing:0px;white-space:pre;stroke-width:0.264583" />
  <path
     d="m 36.389269,114.50925 q 0,0.2825 0.07235,0.39446 0.07235,0.11197 0.248044,0.11197 0.130913,0 0.208428,-0.0775 0.07751,-0.0775 0.07751,-0.21015 0,-0.19981 -0.14986,-0.31005 -0.151585,-0.11025 -0.422023,-0.11025 h -0.03445 z m -0.194648,-0.7028 h 1.100706 v 0.50126 h -0.215318 q 0.127468,0.0913 0.196371,0.23427 0.0689,0.14297 0.0689,0.31522 0,0.32901 -0.173977,0.51332 -0.173976,0.18259 -0.485756,0.18259 -0.337619,0 -0.497816,-0.21876 -0.16192,-0.21876 -0.16192,-0.67696 v -0.34968 h -0.0844 q -0.122298,0 -0.184311,0.0896 -0.06373,0.0879 -0.06373,0.2601 0,0.18087 0.04651,0.3514 0.04479,0.16881 0.144692,0.35312 h -0.430636 q -0.0689,-0.16709 -0.101629,-0.33934 -0.03273,-0.17226 -0.03273,-0.36518 0,-0.47025 0.191202,-0.65973 0.191203,-0.19121 0.68385,-0.19121 z"
     id="path9006"
     style="font-weight:bold;font-size:13.3333px;line-height:1.25;font-family:monospace;-inkscape-font-specification:'monospace Bold';letter-spacing:0px;word-spacing:0px;white-space:pre;stroke-width:0.264583" />
  <path
     d="m 35.898343,111.60849 q -0.07579,0.0827 -0.113686,0.19464 -0.0379,0.11025 -0.0379,0.24288 0,0.1602 0.05684,0.28078 0.05512,0.11885 0.16192,0.18431 0.06546,0.0413 0.158475,0.0586 0.09302,0.0155 0.282496,0.0155 h 0.888833 v 0.50471 h -1.929249 v -0.50471 h 0.299723 q -0.165365,-0.0741 -0.254937,-0.22737 -0.09129,-0.15331 -0.09129,-0.35829 0,-0.10336 0.02585,-0.20154 0.0241,-0.0999 0.07234,-0.18948 z"
     id="path9008"
     style="font-weight:bold;font-size:13.3333px;line-height:1.25;font-family:monospace;-inkscape-font-specification:'monospace Bold';letter-spacing:0px;word-spacing:0px;white-space:pre;stroke-width:0.264583" />
  <path
     d="m 37.200588,109.569 q 0.07234,0.17569 0.108518,0.35829 0.03617,0.18259 0.03617,0.38585 0,0.48403 -0.258381,0.74069 -0.260104,0.25494 -0.747583,0.25494 -0.471977,0 -0.745863,-0.24633 -0.273884,-0.24632 -0.273884,-0.67179 0,-0.42891 0.254937,-0.6649 0.253214,-0.23771 0.714857,-0.23771 h 0.20498 v 1.30741 q 0.227378,-0.002 0.339342,-0.13436 0.111966,-0.13264 0.111966,-0.39619 0,-0.17397 -0.04995,-0.34278 -0.04995,-0.16881 -0.158475,-0.35312 z m -1.085202,0.42719 q -0.199816,0.003 -0.301445,0.10335 -0.103354,0.0982 -0.103354,0.29111 0,0.17398 0.106799,0.27733 0.105074,0.10335 0.299722,0.1223 z"
     id="path9010"
     style="font-weight:bold;font-size:13.3333px;line-height:1.25;font-family:monospace;-inkscape-font-specification:'monospace Bold';letter-spacing:0px;word-spacing:0px;white-space:pre;stroke-width:0.264583" />
  <path
     inkscape:connector-curvature="0"
     id="path856"
     style="font-style:normal;font-variant:normal;font-weight:bold;font-stretch:normal;font-size:13.3333px;line-height:125%;font-family:monospace;-inkscape-font-specification:'monospace Bold';letter-spacing:0px;word-spacing:0px;fill:#ffcc00;fill-opacity:1;stroke:none;stroke-width:0.264583px;stroke-linecap:butt;stroke-linejoin:miter;stroke-opacity:1"
     d="m 122.92652,206.53761 v 0.75448 h 0.20843 q 0.24977,0 0.34967,-0.0844 0.10163,-0.0844 0.10163,-0.29284 0,-0.20842 -0.10163,-0.29283 -0.0999,-0.0844 -0.34967,-0.0844 z m -0.50815,-0.42719 h 0.69763 q 0.53227,0 0.76481,0.18948 0.23427,0.18948 0.23427,0.61495 0,0.42547 -0.23427,0.61495 -0.23254,0.18948 -0.76481,0.18948 h -0.18948 v 0.9629 h -0.50815 z" />
  <path
     inkscape:connector-curvature="0"
     id="path858"
     style="font-style:normal;font-variant:normal;font-weight:bold;font-stretch:normal;font-size:13.3333px;line-height:125%;font-family:monospace;-inkscape-font-specification:'monospace Bold';letter-spacing:0px;word-spacing:0px;fill:#ffcc00;fill-opacity:1;stroke:none;stroke-width:0.264583px;stroke-linecap:butt;stroke-linejoin:miter;stroke-opacity:1"
     d="m 125.45866,206.67541 -0.6494,1.01631 h 0.6494 z m -0.0448,-0.56499 h 0.53227 v 1.5813 h 0.2825 v 0.4358 h -0.2825 v 0.55466 h -0.48748 v -0.55466 h -1.01975 v -0.49265 z" />
  <path
     inkscape:connector-curvature="0"
     id="path860"
     style="font-style:normal;font-variant:normal;font-weight:bold;font-stretch:normal;font-size:13.3333px;line-height:125%;font-family:monospace;-inkscape-font-specification:'monospace Bold';letter-spacing:0px;word-spacing:0px;fill:#ffcc00;fill-opacity:1;stroke:none;stroke-width:0.264583px;stroke-linecap:butt;stroke-linejoin:miter;stroke-opacity:1"
     d="m 123.2004,212.66816 0.45303,-2.14802 h 0.5116 l -0.6115,2.57177 H 122.849 l -0.6115,-2.57177 h 0.5116 z" />
  <path
     inkscape:connector-curvature="0"
     id="path862"
     style="font-style:normal;font-variant:normal;font-weight:bold;font-stretch:normal;font-size:13.3333px;line-height:125%;font-family:monospace;-inkscape-font-specification:'monospace Bold';letter-spacing:0px;word-spacing:0px;fill:#ffcc00;fill-opacity:1;stroke:none;stroke-width:0.264583px;stroke-linecap:butt;stroke-linejoin:miter;stroke-opacity:1"
     d="m 124.58705,212.64404 h 0.56844 v -1.66915 l -0.52882,0.13092 v -0.4582 l 0.53227,-0.12747 h 0.49093 v 2.1239 h 0.56844 v 0.44787 h -1.63126 z" />
</svg>
