<?xml version="1.0" encoding="UTF-8" standalone="no"?>
<svg
   id="svg19218"
   version="1.1"
   viewBox="0 0 210 297"
   height="297mm"
   width="210mm"
   sodipodi:docname="sheet_6_nospeakers.svg"
   inkscape:version="1.3.1 (9b9bdc1480, 2023-11-25, custom)"
   xmlns:inkscape="http://www.inkscape.org/namespaces/inkscape"
   xmlns:sodipodi="http://sodipodi.sourceforge.net/DTD/sodipodi-0.dtd"
   xmlns="http://www.w3.org/2000/svg"
   xmlns:svg="http://www.w3.org/2000/svg"
   xmlns:rdf="http://www.w3.org/1999/02/22-rdf-syntax-ns#"
   xmlns:cc="http://creativecommons.org/ns#"
   xmlns:dc="http://purl.org/dc/elements/1.1/">
  <sodipodi:namedview
     id="namedview6463"
     pagecolor="#ffffff"
     bordercolor="#666666"
     borderopacity="1.0"
     inkscape:showpageshadow="2"
     inkscape:pageopacity="0.0"
     inkscape:pagecheckerboard="0"
     inkscape:deskcolor="#d1d1d1"
     inkscape:document-units="mm"
     showgrid="false"
     inkscape:zoom="0.5683642"
     inkscape:cx="409.94841"
     inkscape:cy="467.13005"
     inkscape:window-width="1517"
     inkscape:window-height="812"
     inkscape:window-x="0"
     inkscape:window-y="0"
     inkscape:window-maximized="0"
     inkscape:current-layer="svg19218" />
  <defs
     id="defs19212">
    <rect
       x="-384.18851"
       y="330.14557"
       width="330.28281"
       height="172.09167"
       id="rect7378-4" />
    <rect
       x="-384.18851"
       y="330.14557"
       width="330.28281"
       height="172.09167"
       id="rect7378-8-4" />
    <rect
       x="-384.18851"
       y="330.14557"
       width="330.28281"
       height="172.09167"
       id="rect7378-8-4-5" />
    <rect
       x="-384.18851"
       y="330.14557"
       width="330.28281"
       height="172.09167"
       id="rect7378-8-4-5-6" />
    <rect
       x="-384.18851"
       y="330.14557"
       width="330.28281"
       height="172.09167"
       id="rect7378-8-4-5-6-1" />
    <rect
       x="-384.18851"
       y="330.14557"
       width="330.28281"
       height="172.09167"
       id="rect7378-4-0" />
  </defs>
  <metadata
     id="metadata19215">
    <rdf:RDF>
      <cc:Work
         rdf:about="">
        <dc:format>image/svg+xml</dc:format>
        <dc:type
           rdf:resource="http://purl.org/dc/dcmitype/StillImage" />
      </cc:Work>
    </rdf:RDF>
  </metadata>
  <path
     transform="matrix(0.000000,-0.264123,0.263931,0.000000,-114.815560,172.947750)"
     id="path23085"
     style="font-size:13.33333302px;-inkscape-font-specification:'monospace Bold';fill-opacity:1;font-weight:bold;letter-spacing:0px;line-height:1.25;word-spacing:0px;stroke:none;font-stretch:normal;font-variant:normal;font-family:monospace;font-style:normal;fill:#00aeee"
     d="m -233.67839,678.59375 v 2.8776 h 1.27605 q 0.91796,0 1.28255,-0.3125 0.37109,-0.3125 0.37109,-1.08724 0,-0.78776 -0.38411,-1.13281 -0.38412,-0.34505 -1.26953,-0.34505 z m 0,-3.78906 v 2.25911 h 1.27605 q 0.72916,0 1.03515,-0.26041 0.3125,-0.26042 0.3125,-0.85938 0,-0.59896 -0.31901,-0.86589 -0.3125,-0.27343 -1.02864,-0.27343 z m -1.85546,-1.52995 h 3.13151 q 1.62109,0 2.43489,0.61849 0.82031,0.61198 0.82031,1.83594 0,0.9375 -0.48177,1.46484 -0.48177,0.52734 -1.41276,0.61198 1.11328,0.11068 1.67318,0.7487 0.56641,0.63802 0.56641,1.78385 0,1.40625 -0.84636,2.03776 -0.84635,0.63151 -2.7539,0.63151 h -3.13151 z" />
  <path
     transform="matrix(0.000000,-0.264123,0.263931,0.000000,-114.815560,172.947750)"
     id="path23087"
     style="font-size:13.33333302px;-inkscape-font-specification:'monospace Bold';fill-opacity:1;font-weight:bold;letter-spacing:0px;line-height:1.25;word-spacing:0px;stroke:none;font-stretch:normal;font-variant:normal;font-family:monospace;font-style:normal;fill:#00aeee"
     d="m -224.3099,677.08984 q -0.68359,0 -1.07421,0.60547 -0.39063,0.59896 -0.39063,1.67318 0,1.07422 0.39063,1.67969 0.39062,0.59896 1.07421,0.59896 0.69011,0 1.08073,-0.59896 0.39063,-0.60547 0.39063,-1.67969 0,-1.07422 -0.39063,-1.67318 -0.39062,-0.60547 -1.08073,-0.60547 z m -3.37239,2.27865 q 0,-1.76432 0.91146,-2.79297 0.91797,-1.03516 2.46093,-1.03516 1.54948,0 2.46094,1.03516 0.91797,1.02865 0.91797,2.79297 0,1.76432 -0.91797,2.79948 -0.91146,1.02864 -2.46094,1.02864 -1.54296,0 -2.46093,-1.02864 -0.91146,-1.03516 -0.91146,-2.79948 z" />
  <path
     transform="matrix(0.000000,-0.264123,0.263931,0.000000,-114.815560,172.947750)"
     id="path23089"
     style="font-size:13.33333302px;-inkscape-font-specification:'monospace Bold';fill-opacity:1;font-weight:bold;letter-spacing:0px;line-height:1.25;word-spacing:0px;stroke:none;font-stretch:normal;font-variant:normal;font-family:monospace;font-style:normal;fill:#00aeee"
     d="m -215.14323,676.7513 v -3.8737 h 1.90104 v 10.13021 h -1.90104 v -1.08073 q -0.30599,0.63151 -0.79427,0.95052 -0.48177,0.31901 -1.13932,0.31901 -1.25,0 -1.94011,-1.0026 -0.6901,-1.0026 -0.6901,-2.82552 0,-1.84896 0.69661,-2.83854 0.70313,-0.98959 1.9987,-0.98959 0.58594,0 1.04818,0.30599 0.46875,0.29948 0.82031,0.90495 z m -2.65625,2.63021 q 0,1.05469 0.35156,1.65365 0.35157,0.59895 0.97006,0.59895 0.61848,0 0.97656,-0.59895 0.35807,-0.59896 0.35807,-1.65365 0,-1.05469 -0.35807,-1.65365 -0.35808,-0.59895 -0.97656,-0.59895 -0.61849,0 -0.97006,0.59895 -0.35156,0.59896 -0.35156,1.65365 z" />
  <path
     transform="matrix(0.000000,-0.264123,0.263931,0.000000,-114.815560,172.947750)"
     id="path23091"
     style="font-size:13.33333302px;-inkscape-font-specification:'monospace Bold';fill-opacity:1;font-weight:bold;letter-spacing:0px;line-height:1.25;word-spacing:0px;stroke:none;font-stretch:normal;font-variant:normal;font-family:monospace;font-style:normal;fill:#00aeee"
     d="m -205.09115,682.64974 q -0.66406,0.27344 -1.35416,0.41016 -0.69011,0.13671 -1.45834,0.13671 -1.82942,0 -2.79948,-0.97656 -0.96354,-0.98307 -0.96354,-2.82552 0,-1.78385 0.93099,-2.81901 0.93099,-1.03516 2.53907,-1.03516 1.62109,0 2.51302,0.96355 0.89843,0.95703 0.89843,2.70182 v 0.77474 h -4.9414 q 0.007,0.85937 0.50781,1.28255 0.5013,0.42318 1.4974,0.42318 0.65755,0 1.29557,-0.1888 0.63802,-0.18881 1.33463,-0.59896 z m -1.61458,-4.10156 q -0.013,-0.75521 -0.39062,-1.13933 -0.3711,-0.39062 -1.10026,-0.39062 -0.65756,0 -1.04818,0.40364 -0.39063,0.39714 -0.46224,1.13282 z" />
  <path
     transform="matrix(0.000000,-0.264123,0.263931,0.000000,-114.815560,172.947750)"
     id="path23093"
     style="font-size:13.33333302px;-inkscape-font-specification:'monospace Bold';fill-opacity:1;font-weight:bold;letter-spacing:0px;line-height:1.25;word-spacing:0px;stroke:none;font-stretch:normal;font-variant:normal;font-family:monospace;font-style:normal;fill:#00aeee"
     d="m -197.26563,678.27474 v 4.73307 h -1.89453 v -4.4401 q 0,-0.79427 -0.22786,-1.13281 -0.22136,-0.34506 -0.72917,-0.34506 -0.51432,0 -0.8138,0.46224 -0.29297,0.46224 -0.29297,1.28256 v 4.17317 h -1.89453 v -7.29166 h 1.89453 v 1.09375 q 0.20182,-0.60547 0.69011,-0.9375 0.48828,-0.33204 1.17838,-0.33204 1.03516,0 1.5625,0.69011 0.52734,0.68359 0.52734,2.04427 z" />
  <path
     transform="matrix(0.000000,-0.264123,0.263931,0.000000,-114.815560,172.947750)"
     id="path23095"
     style="font-size:13.33333302px;-inkscape-font-specification:'monospace Bold';fill-opacity:1;font-weight:bold;letter-spacing:0px;line-height:1.25;word-spacing:0px;stroke:none;font-stretch:normal;font-variant:normal;font-family:monospace;font-style:normal;fill:#00aeee"
     d="m -193.33333,681.97917 v 3.80208 h -1.90105 v -10.0651 h 1.90105 v 1.09375 q 0.29948,-0.63151 0.78776,-0.95053 0.48828,-0.31901 1.14583,-0.31901 1.25,0 1.9401,1.00261 0.69011,1.0026 0.69011,2.82552 0,1.84896 -0.70313,2.83854 -0.69661,0.98958 -1.99218,0.98958 -0.58594,0 -1.05469,-0.29947 -0.46224,-0.30599 -0.8138,-0.91797 z m 2.65625,-2.6237 q 0,-1.05469 -0.35157,-1.65365 -0.35156,-0.59896 -0.97005,-0.59896 -0.61849,0 -0.97656,0.59896 -0.35807,0.59896 -0.35807,1.65365 0,1.05469 0.35807,1.65364 0.35807,0.59896 0.97656,0.59896 0.61849,0 0.97005,-0.59896 0.35157,-0.59895 0.35157,-1.65364 z" />
  <path
     transform="matrix(0.000000,-0.264123,0.263931,0.000000,-114.815560,172.947750)"
     id="path23097"
     style="font-size:13.33333302px;-inkscape-font-specification:'monospace Bold';fill-opacity:1;font-weight:bold;letter-spacing:0px;line-height:1.25;word-spacing:0px;stroke:none;font-stretch:normal;font-variant:normal;font-family:monospace;font-style:normal;fill:#00aeee"
     d="m -185.66406,679.96745 v -5.625 h -1.9336 v -1.46485 h 3.84115 v 7.08985 q 0,0.85937 0.26693,1.21745 0.26692,0.35807 0.90494,0.35807 h 1.52344 v 1.46484 h -2.05729 q -1.36068,0 -1.95312,-0.70312 -0.59245,-0.70313 -0.59245,-2.33724 z" />
  <path
     transform="matrix(0.000000,-0.264123,0.263931,0.000000,-114.815560,172.947750)"
     id="path23099"
     style="font-size:13.33333302px;-inkscape-font-specification:'monospace Bold';fill-opacity:1;font-weight:bold;letter-spacing:0px;line-height:1.25;word-spacing:0px;stroke:none;font-stretch:normal;font-variant:normal;font-family:monospace;font-style:normal;fill:#00aeee"
     d="m -175.59896,679.58333 q -1.06771,0 -1.49088,0.27344 -0.42318,0.27344 -0.42318,0.9375 0,0.49479 0.29297,0.78776 0.29297,0.29297 0.79427,0.29297 0.75521,0 1.17187,-0.56641 0.41667,-0.57291 0.41667,-1.59505 v -0.13021 z m 2.65625,-0.73567 v 4.16015 h -1.89453 v -0.8138 q -0.34505,0.48177 -0.88542,0.74219 -0.54036,0.26041 -1.1914,0.26041 -1.24349,0 -1.94011,-0.65755 -0.6901,-0.65755 -0.6901,-1.83594 0,-1.27604 0.82682,-1.88151 0.82682,-0.61197 2.5586,-0.61197 h 1.32161 v -0.31902 q 0,-0.46223 -0.33854,-0.69661 -0.33203,-0.24089 -0.98307,-0.24089 -0.6836,0 -1.32813,0.17579 -0.63802,0.16927 -1.33463,0.54687 v -1.6276 q 0.63151,-0.26042 1.28255,-0.38412 0.65104,-0.1237 1.38021,-0.1237 1.77734,0 2.49349,0.72266 0.72265,0.72266 0.72265,2.58464 z" />
  <path
     transform="matrix(0.000000,-0.264123,0.263931,0.000000,-114.815560,172.947750)"
     id="path23101"
     style="font-size:13.33333302px;-inkscape-font-specification:'monospace Bold';fill-opacity:1;font-weight:bold;letter-spacing:0px;line-height:1.25;word-spacing:0px;stroke:none;font-stretch:normal;font-variant:normal;font-family:monospace;font-style:normal;fill:#00aeee"
     d="m -167.63672,673.64583 v 2.07032 h 2.49349 v 1.46484 h -2.49349 v 3.45052 q 0,0.48828 0.23438,0.70313 0.24088,0.20833 0.79427,0.20833 h 1.46484 v 1.46484 h -1.60156 q -1.64063,0 -2.22005,-0.52083 -0.57943,-0.52734 -0.57943,-1.94662 v -3.35937 h -1.86198 v -1.46484 h 1.86198 v -2.07032 z" />
  <path
     transform="matrix(0.000000,-0.264123,0.263931,0.000000,-114.815560,172.947750)"
     id="path23103"
     style="font-size:13.33333302px;-inkscape-font-specification:'monospace Bold';fill-opacity:1;font-weight:bold;letter-spacing:0px;line-height:1.25;word-spacing:0px;stroke:none;font-stretch:normal;font-variant:normal;font-family:monospace;font-style:normal;fill:#00aeee"
     d="m -159.60938,673.64583 v 2.07032 h 2.49349 v 1.46484 h -2.49349 v 3.45052 q 0,0.48828 0.23438,0.70313 0.24089,0.20833 0.79427,0.20833 h 1.46484 v 1.46484 h -1.60156 q -1.64062,0 -2.22005,-0.52083 -0.57943,-0.52734 -0.57943,-1.94662 v -3.35937 h -1.86198 v -1.46484 h 1.86198 v -2.07032 z" />
  <path
     transform="matrix(0.000000,-0.264123,0.263931,0.000000,-114.815560,172.947750)"
     id="path23105"
     style="font-size:13.33333302px;-inkscape-font-specification:'monospace Bold';fill-opacity:1;font-weight:bold;letter-spacing:0px;line-height:1.25;word-spacing:0px;stroke:none;font-stretch:normal;font-variant:normal;font-family:monospace;font-style:normal;fill:#00aeee"
     d="m -148.89974,682.64974 q -0.66406,0.27344 -1.35417,0.41016 -0.6901,0.13671 -1.45833,0.13671 -1.82943,0 -2.79948,-0.97656 -0.96354,-0.98307 -0.96354,-2.82552 0,-1.78385 0.93099,-2.81901 0.93099,-1.03516 2.53906,-1.03516 1.6211,0 2.51302,0.96355 0.89844,0.95703 0.89844,2.70182 v 0.77474 h -4.94141 q 0.007,0.85937 0.50782,1.28255 0.5013,0.42318 1.49739,0.42318 0.65755,0 1.29557,-0.1888 0.63803,-0.18881 1.33464,-0.59896 z m -1.61458,-4.10156 q -0.013,-0.75521 -0.39063,-1.13933 -0.37109,-0.39062 -1.10026,-0.39062 -0.65755,0 -1.04818,0.40364 -0.39062,0.39714 -0.46224,1.13282 z" />
  <path
     transform="matrix(0.000000,-0.264123,0.263931,0.000000,-114.815560,172.947750)"
     id="path23107"
     style="font-size:13.33333302px;-inkscape-font-specification:'monospace Bold';fill-opacity:1;font-weight:bold;letter-spacing:0px;line-height:1.25;word-spacing:0px;stroke:none;font-stretch:normal;font-variant:normal;font-family:monospace;font-style:normal;fill:#00aeee"
     d="m -138.55469,683.00781 v -9.72005 h 1.92058 v 8.02734 h 4.10807 v 1.69271 z" />
  <path
     transform="matrix(0.000000,-0.264123,0.263931,0.000000,-114.815560,172.947750)"
     id="path23109"
     style="font-size:13.33333302px;-inkscape-font-specification:'monospace Bold';fill-opacity:1;font-weight:bold;letter-spacing:0px;line-height:1.25;word-spacing:0px;stroke:none;font-stretch:normal;font-variant:normal;font-family:monospace;font-style:normal;fill:#00aeee"
     d="m -127.4349,679.58333 q -1.0677,0 -1.49088,0.27344 -0.42318,0.27344 -0.42318,0.9375 0,0.49479 0.29297,0.78776 0.29297,0.29297 0.79427,0.29297 0.75521,0 1.17188,-0.56641 0.41666,-0.57291 0.41666,-1.59505 v -0.13021 z m 2.65625,-0.73567 v 4.16015 h -1.89453 v -0.8138 q -0.34505,0.48177 -0.88541,0.74219 -0.54037,0.26041 -1.19141,0.26041 -1.24349,0 -1.9401,-0.65755 -0.69011,-0.65755 -0.69011,-1.83594 0,-1.27604 0.82682,-1.88151 0.82683,-0.61197 2.5586,-0.61197 h 1.32161 v -0.31902 q 0,-0.46223 -0.33854,-0.69661 -0.33203,-0.24089 -0.98307,-0.24089 -0.6836,0 -1.32813,0.17579 -0.63802,0.16927 -1.33463,0.54687 v -1.6276 q 0.63151,-0.26042 1.28255,-0.38412 0.65104,-0.1237 1.38021,-0.1237 1.77734,0 2.49349,0.72266 0.72265,0.72266 0.72265,2.58464 z" />
  <path
     transform="matrix(0.000000,-0.264123,0.263931,0.000000,-114.815560,172.947750)"
     id="path23111"
     style="font-size:13.33333302px;-inkscape-font-specification:'monospace Bold';fill-opacity:1;font-weight:bold;letter-spacing:0px;line-height:1.25;word-spacing:0px;stroke:none;font-stretch:normal;font-variant:normal;font-family:monospace;font-style:normal;fill:#00aeee"
     d="m -119.33594,683.79557 q -0.38411,1.02865 -0.92448,1.4974 -0.53385,0.47526 -1.30208,0.47526 h -1.57552 v -1.45182 h 0.77474 q 0.58594,0 0.85937,-0.20183 0.27344,-0.19531 0.55339,-0.91797 l 0.14323,-0.39062 -2.77344,-7.08984 h 2.00521 l 1.66667,4.73307 1.59505,-4.73307 h 2.00521 z" />
  <path
     transform="matrix(0.000000,-0.264123,0.263931,0.000000,-114.815560,172.947750)"
     id="path23113"
     style="font-size:13.33333302px;-inkscape-font-specification:'monospace Bold';fill-opacity:1;font-weight:bold;letter-spacing:0px;line-height:1.25;word-spacing:0px;stroke:none;font-stretch:normal;font-variant:normal;font-family:monospace;font-style:normal;fill:#00aeee"
     d="m -108.76302,682.64974 q -0.66406,0.27344 -1.35417,0.41016 -0.6901,0.13671 -1.45833,0.13671 -1.82943,0 -2.79948,-0.97656 -0.96354,-0.98307 -0.96354,-2.82552 0,-1.78385 0.93099,-2.81901 0.93099,-1.03516 2.53906,-1.03516 1.62109,0 2.51302,0.96355 0.89844,0.95703 0.89844,2.70182 v 0.77474 h -4.94141 q 0.007,0.85937 0.50781,1.28255 0.50131,0.42318 1.4974,0.42318 0.65755,0 1.29557,-0.1888 0.63802,-0.18881 1.33464,-0.59896 z m -1.61458,-4.10156 q -0.013,-0.75521 -0.39063,-1.13933 -0.37109,-0.39062 -1.10026,-0.39062 -0.65755,0 -1.04818,0.40364 -0.39062,0.39714 -0.46224,1.13282 z" />
  <path
     transform="matrix(0.000000,-0.264123,0.263931,0.000000,-114.815560,172.947750)"
     id="path23115"
     style="font-size:13.33333302px;-inkscape-font-specification:'monospace Bold';fill-opacity:1;font-weight:bold;letter-spacing:0px;line-height:1.25;word-spacing:0px;stroke:none;font-stretch:normal;font-variant:normal;font-family:monospace;font-style:normal;fill:#00aeee"
     d="m -100.41667,677.72786 q -0.3125,-0.28645 -0.73567,-0.42968 -0.41667,-0.14323 -0.91797,-0.14323 -0.60547,0 -1.0612,0.21484 -0.44922,0.20833 -0.69662,0.61198 -0.15625,0.2474 -0.22135,0.59896 -0.0586,0.35156 -0.0586,1.06771 v 3.35937 h -1.90756 v -7.29166 h 1.90756 v 1.13281 q 0.27994,-0.625 0.85937,-0.96354 0.57943,-0.34506 1.35417,-0.34506 0.39062,0 0.76172,0.0977 0.3776,0.0911 0.71614,0.27344 z" />
  <path
     transform="matrix(0.000000,-0.264123,0.263931,0.000000,-114.815560,172.947750)"
     id="path23117"
     style="font-size:13.33333302px;-inkscape-font-specification:'monospace Bold';fill-opacity:1;font-weight:bold;letter-spacing:0px;line-height:1.25;word-spacing:0px;stroke:none;font-stretch:normal;font-variant:normal;font-family:monospace;font-style:normal;fill:#00aeee"
     d="m -90.63151,681.3151 h 2.148437 v -6.30859 l -1.998698,0.49479 v -1.73177 l 2.011719,-0.48177 h 1.855469 v 8.02734 h 2.148437 v 1.69271 h -6.165364 z" />
  <path
     transform="matrix(1.000000,0.000000,0.000000,1.000000,0.095970,0.000000)"
     d="m 58.963121,52.271592 c 0.55073,0 0.997646,-0.446888 0.997646,-0.998015 0,-0.55148 -0.446916,-0.998369 -0.997646,-0.998369 -0.550727,0 -0.997294,0.446889 -0.997294,0.998369 0,0.551127 0.446567,0.998015 0.997294,0.998015"
     style="stroke:#ea0088;stroke-miterlimit:10;stroke-opacity:1;fill-rule:nonzero;clip-rule:evenodd;stroke-width:0.35203058;fill:none"
     id="path561-9-1-81" />
  <path
     transform="matrix(1.000000,0.000000,0.000000,1.000000,0.095970,0.000000)"
     d="m 57.929892,51.273682 h 2.111454"
     style="stroke:#000000;stroke-miterlimit:10;stroke-opacity:1;fill-rule:nonzero;clip-rule:evenodd;stroke-width:0.23753151px;fill:none"
     id="path565-7-5-39" />
  <path
     transform="matrix(1.000000,0.000000,0.000000,1.000000,0.095970,0.000000)"
     d="m 58.963605,52.315527 v -2.11298"
     style="stroke:#000000;stroke-miterlimit:10;stroke-opacity:1;fill-rule:nonzero;clip-rule:evenodd;stroke-width:0.23753138px;fill:none"
     id="path569-2-4-8" />
  <path
     transform="matrix(1.000000,0.000000,0.000000,1.000000,0.095970,0.000000)"
     d="m 58.963055,246.93309 c 0.550728,0 0.997646,-0.44688 0.997646,-0.99801 0,-0.55148 -0.446918,-0.99837 -0.997646,-0.99837 -0.550727,0 -0.997291,0.44689 -0.997291,0.99837 0,0.55113 0.446564,0.99801 0.997291,0.99801"
     style="stroke:#ea0088;stroke-miterlimit:10;stroke-opacity:1;fill-rule:nonzero;clip-rule:evenodd;stroke-width:0.35203058;fill:none"
     id="path561-9-1-81-2" />
  <path
     transform="matrix(1.000000,0.000000,0.000000,1.000000,0.095970,0.000000)"
     d="m 57.929825,245.93518 h 2.111452"
     style="stroke:#000000;stroke-miterlimit:10;stroke-opacity:1;fill-rule:nonzero;clip-rule:evenodd;stroke-width:0.23753151px;fill:none"
     id="path565-7-5-39-6" />
  <path
     transform="matrix(1.000000,0.000000,0.000000,1.000000,0.095970,0.000000)"
     d="m 58.963539,246.97703 v -2.11298"
     style="stroke:#000000;stroke-miterlimit:10;stroke-opacity:1;fill-rule:nonzero;clip-rule:evenodd;stroke-width:0.23753138px;fill:none"
     id="path569-2-4-8-1" />
  <path
     transform="matrix(1.000000,0.000000,0.000000,1.000000,89.802765,0.000000)"
     d="m 58.963121,52.271592 c 0.55073,0 0.997646,-0.446888 0.997646,-0.998015 0,-0.55148 -0.446916,-0.998369 -0.997646,-0.998369 -0.550727,0 -0.997294,0.446889 -0.997294,0.998369 0,0.551127 0.446567,0.998015 0.997294,0.998015"
     style="stroke:#ea0088;stroke-miterlimit:10;stroke-opacity:1;fill-rule:nonzero;clip-rule:evenodd;stroke-width:0.35203058;fill:none"
     id="path561-9-1-81-7" />
  <path
     transform="matrix(1.000000,0.000000,0.000000,1.000000,89.802765,0.000000)"
     d="m 57.929892,51.273682 h 2.111454"
     style="stroke:#000000;stroke-miterlimit:10;stroke-opacity:1;fill-rule:nonzero;clip-rule:evenodd;stroke-width:0.23753151px;fill:none"
     id="path565-7-5-39-67" />
  <path
     transform="matrix(1.000000,0.000000,0.000000,1.000000,89.802765,0.000000)"
     d="m 58.963605,52.315527 v -2.11298"
     style="stroke:#000000;stroke-miterlimit:10;stroke-opacity:1;fill-rule:nonzero;clip-rule:evenodd;stroke-width:0.23753138px;fill:none"
     id="path569-2-4-8-3" />
  <path
     transform="matrix(1.000000,0.000000,0.000000,1.000000,89.802765,0.000000)"
     d="m 58.963055,246.93309 c 0.550728,0 0.997646,-0.44688 0.997646,-0.99801 0,-0.55148 -0.446918,-0.99837 -0.997646,-0.99837 -0.550727,0 -0.997291,0.44689 -0.997291,0.99837 0,0.55113 0.446564,0.99801 0.997291,0.99801"
     style="stroke:#ea0088;stroke-miterlimit:10;stroke-opacity:1;fill-rule:nonzero;clip-rule:evenodd;stroke-width:0.35203058;fill:none"
     id="path561-9-1-81-2-6" />
  <path
     transform="matrix(1.000000,0.000000,0.000000,1.000000,89.802765,0.000000)"
     d="m 57.929825,245.93518 h 2.111452"
     style="stroke:#000000;stroke-miterlimit:10;stroke-opacity:1;fill-rule:nonzero;clip-rule:evenodd;stroke-width:0.23753151px;fill:none"
     id="path565-7-5-39-6-5" />
  <path
     transform="matrix(1.000000,0.000000,0.000000,1.000000,89.802765,0.000000)"
     d="m 58.963539,246.97703 v -2.11298"
     style="stroke:#000000;stroke-miterlimit:10;stroke-opacity:1;fill-rule:nonzero;clip-rule:evenodd;stroke-width:0.23753138px;fill:none"
     id="path569-2-4-8-1-6" />
  <path
     style="fill:none;stroke:#ec008c;stroke-width:0.36470965;stroke-linecap:butt;stroke-linejoin:miter;stroke-miterlimit:10;stroke-opacity:1"
     d="M 31.023389,253.42274 H 178.65866 V 43.787454 H 31.023389 Z m 0,0"
     id="path199" />
  <path
     d="m 65.027628,191.80938 -2.148012,-0.45303 v -0.5116 l 2.571758,0.61151 v 0.70452 l -2.571758,0.6115 v -0.51159 z"
     id="path8346"
     style="font-weight:bold;font-size:13.3333px;line-height:1.25;font-family:monospace;-inkscape-font-specification:'monospace Bold';letter-spacing:0px;word-spacing:0px;white-space:pre;fill:#00aeee;stroke-width:0.264583" />
  <path
     d="m 63.522125,190.36589 v -0.99908 h 1.541677 v -0.627 h 0.387572 v 1.76044 h -0.387572 v -0.62873 h -1.154105 v 0.49437 z m -0.938787,-0.49437 v -0.50471 h 0.589111 v 0.50471 z"
     id="path8348"
     style="font-weight:bold;font-size:13.3333px;line-height:1.25;font-family:monospace;-inkscape-font-specification:'monospace Bold';letter-spacing:0px;word-spacing:0px;white-space:pre;fill:#00aeee;stroke-width:0.264583" />
  <path
     d="m 63.582415,186.91563 h 0.440971 q -0.08957,0.13953 -0.134358,0.29111 -0.04651,0.14986 -0.04651,0.30145 0,0.16881 0.04995,0.25494 0.04823,0.0861 0.144692,0.0861 0.137803,0 0.223931,-0.36862 l 0.0052,-0.0189 0.03445,-0.14469 q 0.06546,-0.27561 0.211873,-0.40308 0.144696,-0.12919 0.39274,-0.12919 0.298,0 0.447863,0.19637 0.148137,0.19465 0.148137,0.58739 0,0.17398 -0.03101,0.35657 -0.02928,0.18259 -0.08957,0.37034 H 64.93977 q 0.09474,-0.16708 0.144693,-0.33934 0.04996,-0.17397 0.04996,-0.33589 0,-0.17743 -0.05168,-0.26872 -0.05168,-0.0913 -0.14986,-0.0913 -0.09646,0 -0.148141,0.0655 -0.05168,0.0637 -0.110241,0.30662 l -0.03101,0.13952 q -0.06546,0.28939 -0.204984,0.42202 -0.139525,0.13264 -0.37379,0.13264 -0.279053,0 -0.434081,-0.20154 -0.15503,-0.20154 -0.15503,-0.56671 0,-0.16365 0.02756,-0.32557 0.02585,-0.16364 0.07924,-0.31694 z"
     id="path8350"
     style="font-weight:bold;font-size:13.3333px;line-height:1.25;font-family:monospace;-inkscape-font-specification:'monospace Bold';letter-spacing:0px;word-spacing:0px;white-space:pre;fill:#00aeee;stroke-width:0.264583" />
  <path
     d="m 64.545316,185.293 q 0,0.2825 0.07235,0.39446 0.07234,0.11197 0.248044,0.11197 0.130913,0 0.208428,-0.0775 0.07752,-0.0775 0.07752,-0.21015 0,-0.19981 -0.14986,-0.31006 -0.151585,-0.11024 -0.422023,-0.11024 h -0.03445 z m -0.194648,-0.7028 h 1.100706 v 0.50126 h -0.215318 q 0.127468,0.0913 0.196371,0.23427 0.0689,0.14297 0.0689,0.31522 0,0.32901 -0.173977,0.51332 -0.173976,0.18259 -0.485756,0.18259 -0.337619,0 -0.497816,-0.21877 -0.16192,-0.21876 -0.16192,-0.67695 v -0.34968 h -0.08441 q -0.122298,0 -0.184311,0.0896 -0.06373,0.0879 -0.06373,0.26011 0,0.18086 0.04651,0.3514 0.04479,0.1688 0.144692,0.35312 h -0.430636 q -0.0689,-0.16709 -0.101629,-0.33934 -0.03273,-0.17226 -0.03273,-0.36518 0,-0.47026 0.191202,-0.65974 0.191203,-0.1912 0.68385,-0.1912 z"
     id="path8352"
     style="font-weight:bold;font-size:13.3333px;line-height:1.25;font-family:monospace;-inkscape-font-specification:'monospace Bold';letter-spacing:0px;word-spacing:0px;white-space:pre;fill:#00aeee;stroke-width:0.264583" />
  <path
     d="m 62.974355,183.18633 h 0.54777 v -0.65974 h 0.387572 v 0.65974 h 0.912948 q 0.12919,0 0.186036,-0.062 0.05512,-0.0637 0.05512,-0.21015 v -0.38758 h 0.387572 v 0.42375 q 0,0.43408 -0.137803,0.58738 -0.139525,0.15331 -0.515041,0.15331 h -0.888833 v 0.49265 h -0.387572 v -0.49265 h -0.54777 z"
     id="path8354"
     style="font-weight:bold;font-size:13.3333px;line-height:1.25;font-family:monospace;-inkscape-font-specification:'monospace Bold';letter-spacing:0px;word-spacing:0px;white-space:pre;fill:#00aeee;stroke-width:0.264583" />
  <path
     d="m 63.885583,181.1899 q 0,0.18087 0.160195,0.28422 0.158474,0.10335 0.442695,0.10335 0.284218,0 0.444415,-0.10335 0.158475,-0.10335 0.158475,-0.28422 0,-0.18259 -0.158475,-0.28594 -0.160197,-0.10336 -0.444415,-0.10336 -0.284221,0 -0.442695,0.10336 -0.160195,0.10335 -0.160195,0.28594 z m 0.60289,0.89228 q -0.466809,0 -0.738973,-0.24116 -0.273884,-0.24288 -0.273884,-0.65112 0,-0.40997 0.273884,-0.65112 0.272164,-0.24288 0.738973,-0.24288 0.466807,0 0.740693,0.24288 0.272161,0.24115 0.272161,0.65112 0,0.40824 -0.272161,0.65112 -0.273886,0.24116 -0.740693,0.24116 z"
     id="path8356"
     style="font-weight:bold;font-size:13.3333px;line-height:1.25;font-family:monospace;-inkscape-font-specification:'monospace Bold';letter-spacing:0px;word-spacing:0px;white-space:pre;fill:#00aeee;stroke-width:0.264583" />
  <path
     d="m 64.199085,178.28225 h 1.252289 v 0.50126 H 64.2766 q -0.21015,0 -0.299723,0.0603 -0.09129,0.0586 -0.09129,0.19293 0,0.13608 0.122298,0.21532 0.122301,0.0775 0.339342,0.0775 h 1.104151 v 0.50126 h -1.929249 v -0.50126 h 0.289388 q -0.160197,-0.0534 -0.248047,-0.18259 -0.08785,-0.12919 -0.08785,-0.31178 0,-0.27388 0.182589,-0.41341 0.180867,-0.13952 0.54088,-0.13952 z"
     id="path8358"
     style="font-weight:bold;font-size:13.3333px;line-height:1.25;font-family:monospace;-inkscape-font-specification:'monospace Bold';letter-spacing:0px;word-spacing:0px;white-space:pre;fill:#00aeee;stroke-width:0.264583" />
  <path
     d="m 62.879616,176.45463 v -0.38068 l 2.899042,1.35391 v 0.38069 z"
     id="path8360"
     style="font-weight:bold;font-size:13.3333px;line-height:1.25;font-family:monospace;-inkscape-font-specification:'monospace Bold';letter-spacing:0px;word-spacing:0px;white-space:pre;fill:#00aeee;stroke-width:0.264583" />
  <path
     d="m 62.879616,175.8793 v -0.44442 l 1.887908,-0.18431 -1.221282,-0.22221 v -0.42202 l 1.221282,-0.25838 -1.887908,-0.1447 v -0.44786 l 2.571758,0.29628 v 0.4737 l -1.350473,0.29283 1.350473,0.27389 v 0.47025 z"
     id="path8362"
     style="font-weight:bold;font-size:13.3333px;line-height:1.25;font-family:monospace;-inkscape-font-specification:'monospace Bold';letter-spacing:0px;word-spacing:0px;white-space:pre;fill:#00aeee;stroke-width:0.264583" />
  <path
     d="m 64.545316,172.54962 q 0,0.2825 0.07235,0.39446 0.07234,0.11197 0.248044,0.11197 0.130913,0 0.208428,-0.0775 0.07752,-0.0775 0.07752,-0.21015 0,-0.19981 -0.14986,-0.31005 -0.151585,-0.11024 -0.422023,-0.11024 h -0.03445 z m -0.194648,-0.7028 h 1.100706 v 0.50127 h -0.215318 q 0.127468,0.0913 0.196371,0.23426 0.0689,0.14297 0.0689,0.31522 0,0.32901 -0.173977,0.51332 -0.173976,0.18259 -0.485756,0.18259 -0.337619,0 -0.497816,-0.21876 -0.16192,-0.21876 -0.16192,-0.67696 v -0.34967 h -0.08441 q -0.122298,0 -0.184311,0.0896 -0.06373,0.0879 -0.06373,0.2601 0,0.18087 0.04651,0.3514 0.04479,0.16881 0.144692,0.35312 h -0.430636 q -0.0689,-0.16709 -0.101629,-0.33934 -0.03273,-0.17225 -0.03273,-0.36518 0,-0.47025 0.191202,-0.65973 0.191203,-0.19121 0.68385,-0.19121 z"
     id="path8364"
     style="font-weight:bold;font-size:13.3333px;line-height:1.25;font-family:monospace;-inkscape-font-specification:'monospace Bold';letter-spacing:0px;word-spacing:0px;white-space:pre;fill:#00aeee;stroke-width:0.264583" />
  <path
     d="m 63.522125,169.64541 1.929249,0.61323 v 0.62184 l -1.929249,0.61322 v -0.51159 l 1.505503,-0.41169 -1.505503,-0.41341 z"
     id="path8366"
     style="font-weight:bold;font-size:13.3333px;line-height:1.25;font-family:monospace;-inkscape-font-specification:'monospace Bold';letter-spacing:0px;word-spacing:0px;white-space:pre;fill:#00aeee;stroke-width:0.264583" />
  <path
     d="m 65.356635,167.60937 q 0.07234,0.1757 0.108518,0.35829 0.03617,0.18259 0.03617,0.38584 0,0.48404 -0.258381,0.7407 -0.260104,0.25494 -0.747583,0.25494 -0.471977,0 -0.745863,-0.24633 -0.273884,-0.24632 -0.273884,-0.67179 0,-0.42891 0.254937,-0.6649 0.253214,-0.23771 0.714857,-0.23771 h 0.20498 v 1.30741 q 0.227378,-0.002 0.339342,-0.13436 0.111966,-0.13264 0.111966,-0.39619 0,-0.17397 -0.04995,-0.34278 -0.04995,-0.16881 -0.158475,-0.35312 z m -1.085202,0.42719 q -0.199816,0.003 -0.301445,0.10335 -0.103354,0.0982 -0.103354,0.29111 0,0.17398 0.106799,0.27733 0.105074,0.10335 0.299722,0.1223 z"
     id="path8368"
     style="font-weight:bold;font-size:13.3333px;line-height:1.25;font-family:monospace;-inkscape-font-specification:'monospace Bold';letter-spacing:0px;word-spacing:0px;white-space:pre;fill:#00aeee;stroke-width:0.264583" />
  <path
     d="m 64.323109,166.50522 q -0.146418,0.38413 -0.306613,0.52021 -0.16192,0.13608 -0.434081,0.13608 -0.349678,0 -0.549491,-0.22393 -0.199816,-0.22393 -0.199816,-0.61495 0,-0.17743 0.04134,-0.35485 0.03962,-0.17742 0.118856,-0.3514 h 0.496091 q -0.115409,0.16365 -0.175699,0.33246 -0.06029,0.16881 -0.06029,0.33417 0,0.18431 0.07407,0.2825 0.07407,0.0982 0.211873,0.0982 0.106796,0 0.177422,-0.0706 0.0689,-0.0724 0.153304,-0.29973 l 0.08268,-0.21876 q 0.113689,-0.31006 0.301445,-0.45647 0.187759,-0.14642 0.473699,-0.14642 0.389295,0 0.582221,0.23082 0.191201,0.2291 0.191201,0.69419 0,0.1912 -0.04651,0.38412 -0.04479,0.19121 -0.134358,0.37035 h -0.525375 q 0.144692,-0.20326 0.215317,-0.39274 0.07062,-0.1912 0.07062,-0.37724 0,-0.18775 -0.0844,-0.29111 -0.08613,-0.10335 -0.239432,-0.10335 -0.115411,0 -0.201538,0.0689 -0.08785,0.0689 -0.137803,0.19982 z"
     id="path8370"
     style="font-weight:bold;font-size:13.3333px;line-height:1.25;font-family:monospace;-inkscape-font-specification:'monospace Bold';letter-spacing:0px;word-spacing:0px;white-space:pre;fill:#00aeee;stroke-width:0.264583" />
  <path
     d="m 64.199085,163.41497 h 1.252289 v 0.50126 H 64.2766 q -0.208428,0 -0.298,0.0603 -0.08957,0.0586 -0.08957,0.19293 0,0.1378 0.122298,0.21531 0.120579,0.0775 0.335897,0.0775 h 1.104151 v 0.50126 h -2.680277 v -0.50126 h 1.040416 q -0.160197,-0.0534 -0.248047,-0.18259 -0.08785,-0.12919 -0.08785,-0.31178 0,-0.27388 0.182589,-0.41341 0.180867,-0.13953 0.54088,-0.13953 z"
     id="path8372"
     style="font-weight:bold;font-size:13.3333px;line-height:1.25;font-family:monospace;-inkscape-font-specification:'monospace Bold';letter-spacing:0px;word-spacing:0px;white-space:pre;fill:#00aeee;stroke-width:0.264583" />
  <path
     d="m 64.545316,161.93014 q 0,0.2825 0.07235,0.39446 0.07234,0.11197 0.248044,0.11197 0.130913,0 0.208428,-0.0775 0.07752,-0.0775 0.07752,-0.21015 0,-0.19981 -0.14986,-0.31005 -0.151585,-0.11025 -0.422023,-0.11025 h -0.03445 z m -0.194648,-0.7028 h 1.100706 v 0.50126 h -0.215318 q 0.127468,0.0913 0.196371,0.23427 0.0689,0.14297 0.0689,0.31522 0,0.32901 -0.173977,0.51332 -0.173976,0.18259 -0.485756,0.18259 -0.337619,0 -0.497816,-0.21876 -0.16192,-0.21876 -0.16192,-0.67696 v -0.34968 h -0.08441 q -0.122298,0 -0.184311,0.0896 -0.06373,0.0878 -0.06373,0.2601 0,0.18087 0.04651,0.3514 0.04479,0.16881 0.144692,0.35312 h -0.430636 q -0.0689,-0.16709 -0.101629,-0.33934 -0.03273,-0.17226 -0.03273,-0.36518 0,-0.47025 0.191202,-0.65973 0.191203,-0.19121 0.68385,-0.19121 z"
     id="path8374"
     style="font-weight:bold;font-size:13.3333px;line-height:1.25;font-family:monospace;-inkscape-font-specification:'monospace Bold';letter-spacing:0px;word-spacing:0px;white-space:pre;fill:#00aeee;stroke-width:0.264583" />
  <path
     d="m 64.05439,159.02938 q -0.07579,0.0827 -0.113686,0.19464 -0.0379,0.11025 -0.0379,0.24288 0,0.1602 0.05684,0.28078 0.05512,0.11885 0.16192,0.18431 0.06546,0.0413 0.158475,0.0586 0.09302,0.0155 0.282496,0.0155 h 0.888833 v 0.50471 h -1.929249 v -0.50471 h 0.299723 q -0.165365,-0.0741 -0.254937,-0.22737 -0.09129,-0.15331 -0.09129,-0.35829 0,-0.10336 0.02585,-0.20154 0.0241,-0.0999 0.07234,-0.18948 z"
     id="path8376"
     style="font-weight:bold;font-size:13.3333px;line-height:1.25;font-family:monospace;-inkscape-font-specification:'monospace Bold';letter-spacing:0px;word-spacing:0px;white-space:pre;fill:#00aeee;stroke-width:0.264583" />
  <path
     d="m 65.356635,156.98989 q 0.07234,0.17569 0.108518,0.35829 0.03617,0.18259 0.03617,0.38585 0,0.48403 -0.258381,0.74069 -0.260104,0.25494 -0.747583,0.25494 -0.471977,0 -0.745863,-0.24633 -0.273884,-0.24632 -0.273884,-0.67179 0,-0.42891 0.254937,-0.6649 0.253214,-0.23771 0.714857,-0.23771 h 0.20498 v 1.30741 q 0.227378,-0.002 0.339342,-0.13436 0.111966,-0.13264 0.111966,-0.39619 0,-0.17397 -0.04995,-0.34278 -0.04995,-0.16881 -0.158475,-0.35312 z m -1.085202,0.42719 q -0.199816,0.003 -0.301445,0.10335 -0.103354,0.0982 -0.103354,0.29111 0,0.17398 0.106799,0.27733 0.105074,0.10335 0.299722,0.1223 z"
     id="path8378"
     style="font-weight:bold;font-size:13.3333px;line-height:1.25;font-family:monospace;-inkscape-font-specification:'monospace Bold';letter-spacing:0px;word-spacing:0px;white-space:pre;fill:#00aeee;stroke-width:0.264583" />
  <path
     inkscape:connector-curvature="0"
     id="path856"
     style="font-style:normal;font-variant:normal;font-weight:bold;font-stretch:normal;font-size:13.3333px;line-height:125%;font-family:monospace;-inkscape-font-specification:'monospace Bold';letter-spacing:0px;word-spacing:0px;fill:#ffcc00;fill-opacity:1;stroke:none;stroke-width:0.264583px;stroke-linecap:butt;stroke-linejoin:miter;stroke-opacity:1"
     d="m 88.530686,75.568859 v 0.754476 h 0.208429 q 0.249769,0 0.349677,-0.08441 0.10163,-0.0844 0.10163,-0.292833 0,-0.208428 -0.10163,-0.292833 -0.09991,-0.08441 -0.349677,-0.08441 z m -0.508151,-0.427193 h 0.697632 q 0.532267,0 0.764811,0.189481 0.234266,0.189479 0.234266,0.61495 0,0.425469 -0.234266,0.61495 -0.232544,0.189479 -0.764811,0.189479 h -0.189481 v 0.962903 h -0.508151 z" />
  <path
     inkscape:connector-curvature="0"
     id="path858"
     style="font-style:normal;font-variant:normal;font-weight:bold;font-stretch:normal;font-size:13.3333px;line-height:125%;font-family:monospace;-inkscape-font-specification:'monospace Bold';letter-spacing:0px;word-spacing:0px;fill:#ffcc00;fill-opacity:1;stroke:none;stroke-width:0.264583px;stroke-linecap:butt;stroke-linejoin:miter;stroke-opacity:1"
     d="m 91.062832,75.706662 -0.649401,1.016302 h 0.649401 z m -0.04479,-0.564996 h 0.532268 v 1.581298 h 0.282497 V 77.15877 H 91.55031 v 0.554659 H 91.062829 V 77.15877 H 90.04308 v -0.492649 z" />
  <path
     inkscape:connector-curvature="0"
     id="path860"
     style="font-style:normal;font-variant:normal;font-weight:bold;font-stretch:normal;font-size:13.3333px;line-height:125%;font-family:monospace;-inkscape-font-specification:'monospace Bold';letter-spacing:0px;word-spacing:0px;fill:#ffcc00;fill-opacity:1;stroke:none;stroke-width:0.264583px;stroke-linecap:butt;stroke-linejoin:miter;stroke-opacity:1"
     d="m 88.804572,81.699406 0.45303,-2.148017 h 0.511596 l -0.611504,2.571766 h -0.704522 l -0.611505,-2.571766 h 0.511597 z" />
  <path
     inkscape:connector-curvature="0"
     id="path862"
     style="font-style:normal;font-variant:normal;font-weight:bold;font-stretch:normal;font-size:13.3333px;line-height:125%;font-family:monospace;-inkscape-font-specification:'monospace Bold';letter-spacing:0px;word-spacing:0px;fill:#ffcc00;fill-opacity:1;stroke:none;stroke-width:0.264583px;stroke-linecap:butt;stroke-linejoin:miter;stroke-opacity:1"
     d="m 90.191222,81.675292 h 0.568441 v -1.669151 l -0.528822,0.130916 v -0.4582 l 0.532267,-0.127468 h 0.490926 v 2.123903 h 0.568441 v 0.447863 h -1.631253 z" />
</svg>
