<?xml version="1.0" encoding="UTF-8" standalone="no"?>
<svg
   width="595.44pt"
   height="842.16pt"
   viewBox="0 0 595.44 842.16"
   version="1.1"
   id="svg828"
   sodipodi:docname="sheet_8_nur_rahmen.svg"
   inkscape:version="1.3.1 (9b9bdc1480, 2023-11-25, custom)"
   xmlns:inkscape="http://www.inkscape.org/namespaces/inkscape"
   xmlns:sodipodi="http://sodipodi.sourceforge.net/DTD/sodipodi-0.dtd"
   xmlns="http://www.w3.org/2000/svg"
   xmlns:svg="http://www.w3.org/2000/svg"
   xmlns:rdf="http://www.w3.org/1999/02/22-rdf-syntax-ns#"
   xmlns:cc="http://creativecommons.org/ns#"
   xmlns:dc="http://purl.org/dc/elements/1.1/">
  <sodipodi:namedview
     pagecolor="#ffffff"
     bordercolor="#666666"
     borderopacity="1"
     objecttolerance="10"
     gridtolerance="10"
     guidetolerance="10"
     inkscape:pageopacity="0"
     inkscape:pageshadow="2"
     inkscape:window-width="1509"
     inkscape:window-height="804"
     id="namedview2396"
     showgrid="false"
     inkscape:zoom="0.59446138"
     inkscape:cx="65.605608"
     inkscape:cy="577.834"
     inkscape:window-x="0"
     inkscape:window-y="0"
     inkscape:window-maximized="0"
     inkscape:current-layer="svg828"
     inkscape:showpageshadow="2"
     inkscape:pagecheckerboard="0"
     inkscape:deskcolor="#d1d1d1"
     inkscape:document-units="pt" />
  <metadata
     id="metadata832">
    <rdf:RDF>
      <cc:Work
         rdf:about="">
        <dc:format>image/svg+xml</dc:format>
        <dc:type
           rdf:resource="http://purl.org/dc/dcmitype/StillImage" />
        <dc:title />
      </cc:Work>
    </rdf:RDF>
  </metadata>
  <defs
     id="defs133" />
  <path
     id="rect2205-5"
     transform="scale(0.75000001)"
     d="M 177.35352 166.03711 L 177.35352 958.4375 L 674.94531 958.4375 L 674.94531 166.03711 L 177.35352 166.03711 z "
     style="opacity:1;vector-effect:none;fill:none;fill-opacity:1;fill-rule:evenodd;stroke:#ec008c;stroke-width:1.30599999;stroke-linecap:square;stroke-linejoin:miter;stroke-miterlimit:4;stroke-dasharray:none;stroke-dashoffset:0;stroke-opacity:1" />
  <path
     d="m 485.06918,680.76594 c 1.56002,0 2.82598,1.26685 2.82598,2.82919 0,1.56335 -1.26596,2.8302 -2.82598,2.8302 -1.56002,0 -2.82499,-1.26685 -2.82499,-2.8302 0,-1.56234 1.26497,-2.82919 2.82499,-2.82919"
     style="clip-rule:evenodd;fill:none;fill-rule:nonzero;stroke:#ea0088;stroke-width:0.99756122;stroke-miterlimit:10;stroke-opacity:1"
     id="path561-9-1-7-2-6-8" />
  <path
     d="m 482.14217,683.5948 h 5.981"
     style="clip-rule:evenodd;fill:none;fill-rule:nonzero;stroke:#000000;stroke-width:0.67310095px;stroke-miterlimit:10;stroke-opacity:1"
     id="path565-7-5-6-0-7-9" />
  <path
     d="m 485.07048,680.64148 v 5.98993"
     style="clip-rule:evenodd;fill:none;fill-rule:nonzero;stroke:#000000;stroke-width:0.67310107px;stroke-miterlimit:10;stroke-opacity:1"
     id="path569-2-4-5-9-5-7" />
  <path
     id="path561-9-1-7-2-6-7-6"
     style="clip-rule:evenodd;fill:none;fill-rule:nonzero;stroke:#ea0088;stroke-width:0.99756122;stroke-miterlimit:10;stroke-opacity:1"
     d="m 485.06918,162.20418 c 1.56002,0 2.82598,-1.26685 2.82598,-2.82919 0,-1.56335 -1.26596,-2.8302 -2.82598,-2.8302 -1.56002,0 -2.82499,1.26685 -2.82499,2.8302 0,1.56234 1.26497,2.82919 2.82499,2.82919" />
  <path
     id="path565-7-5-6-0-7-0-1"
     style="clip-rule:evenodd;fill:none;fill-rule:nonzero;stroke:#000000;stroke-width:0.67310095px;stroke-miterlimit:10;stroke-opacity:1"
     d="m 482.14217,159.37532 h 5.981" />
  <path
     id="path569-2-4-5-9-5-9-2"
     style="clip-rule:evenodd;fill:none;fill-rule:nonzero;stroke:#000000;stroke-width:0.67310107px;stroke-miterlimit:10;stroke-opacity:1"
     d="m 485.07048,162.32864 v -5.98993" />
  <path
     d="m 146.6548,680.51016 c 1.56002,0 2.82598,1.26685 2.82598,2.82919 0,1.56335 -1.26596,2.8302 -2.82598,2.8302 -1.56002,0 -2.82499,-1.26685 -2.82499,-2.8302 0,-1.56234 1.26497,-2.82919 2.82499,-2.82919"
     style="clip-rule:evenodd;fill:none;fill-rule:nonzero;stroke:#ea0088;stroke-width:0.99756122;stroke-miterlimit:10;stroke-opacity:1"
     id="path561-9-1-7-2-6-8-02" />
  <path
     d="m 143.72779,683.33902 h 5.981"
     style="clip-rule:evenodd;fill:none;fill-rule:nonzero;stroke:#000000;stroke-width:0.67310095px;stroke-miterlimit:10;stroke-opacity:1"
     id="path565-7-5-6-0-7-9-3" />
  <path
     d="m 146.78047,418.52405 c 1.56002,0 2.82598,1.26685 2.82598,2.82919 0,1.56335 -1.26596,2.8302 -2.82598,2.8302 -1.56002,0 -2.82499,-1.26685 -2.82499,-2.8302 0,-1.56234 1.26497,-2.82919 2.82499,-2.82919"
     style="clip-rule:evenodd;fill:none;fill-rule:nonzero;stroke:#ea0088;stroke-width:0.99756122;stroke-miterlimit:10;stroke-opacity:1"
     id="path561-9-1-7-2-6-8-0-9" />
  <path
     d="m 143.85346,421.35291 h 5.981"
     style="clip-rule:evenodd;fill:none;fill-rule:nonzero;stroke:#000000;stroke-width:0.67310095px;stroke-miterlimit:10;stroke-opacity:1"
     id="path565-7-5-6-0-7-9-6-7" />
  <path
     d="m 146.6561,680.3857 v 5.98993"
     style="clip-rule:evenodd;fill:none;fill-rule:nonzero;stroke:#000000;stroke-width:0.67310107px;stroke-miterlimit:10;stroke-opacity:1"
     id="path569-2-4-5-9-5-7-3" />
  <path
     d="m 146.6548,156.29068 c 1.56002,0 2.82598,1.26685 2.82598,2.82919 0,1.56335 -1.26596,2.8302 -2.82598,2.8302 -1.56002,0 -2.82499,-1.26685 -2.82499,-2.8302 0,-1.56234 1.26497,-2.82919 2.82499,-2.82919"
     style="clip-rule:evenodd;fill:none;fill-rule:nonzero;stroke:#ea0088;stroke-width:0.99756122;stroke-miterlimit:10;stroke-opacity:1"
     id="path561-9-1-7-2-6-8-02-6" />
  <path
     d="m 143.72779,159.11954 h 5.981"
     style="clip-rule:evenodd;fill:none;fill-rule:nonzero;stroke:#000000;stroke-width:0.67310095px;stroke-miterlimit:10;stroke-opacity:1"
     id="path565-7-5-6-0-7-9-3-5" />
  <path
     d="m 146.6561,156.16622 v 5.98993"
     style="clip-rule:evenodd;fill:none;fill-rule:nonzero;stroke:#000000;stroke-width:0.67310107px;stroke-miterlimit:10;stroke-opacity:1"
     id="path569-2-4-5-9-5-7-3-6" />
  <path
     d="m 146.77917,418.64851 c 1.56002,0 2.82598,1.26685 2.82598,2.82919 0,1.56335 -1.26596,2.8302 -2.82598,2.8302 -1.56002,0 -2.82499,-1.26685 -2.82499,-2.8302 0,-1.56234 1.26497,-2.82919 2.82499,-2.82919"
     style="clip-rule:evenodd;fill:none;fill-rule:nonzero;stroke:#ea0088;stroke-width:0.99756122;stroke-miterlimit:10;stroke-opacity:1"
     id="path561-9-1-7-2-6-8-02-6-3" />
  <path
     d="m 143.85216,421.47737 h 5.981"
     style="clip-rule:evenodd;fill:none;fill-rule:nonzero;stroke:#000000;stroke-width:0.67310095px;stroke-miterlimit:10;stroke-opacity:1"
     id="path565-7-5-6-0-7-9-3-5-9" />
  <path
     d="m 146.78047,418.52405 v 5.98993"
     style="clip-rule:evenodd;fill:none;fill-rule:nonzero;stroke:#000000;stroke-width:0.67310107px;stroke-miterlimit:10;stroke-opacity:1"
     id="path569-2-4-5-9-5-7-3-6-4" />
  <path
     d="m 160.29946,480.2177 h 4.67753 v -0.38998 q 0,-0.84818 -0.53054,-1.2089 -0.53542,-0.36072 -1.81553,-0.36072 -1.27038,0 -1.80092,0.36072 -0.53054,0.36072 -0.53054,1.2089 z m -1.29472,1.43801 v -1.54038 q 0,-1.78411 0.85178,-2.56892 0.84693,-0.78482 2.7744,-0.78482 1.93234,0 2.789,0.78482 0.85178,0.78481 0.85178,2.56892 v 1.54038 z"
     style="font-style:normal;font-variant:normal;font-weight:bold;font-stretch:normal;font-size:13.3333px;line-height:1.25;font-family:monospace;-inkscape-font-specification:'monospace Bold';letter-spacing:0px;word-spacing:0px;fill:#00aeee;fill-opacity:1;stroke:none;stroke-width:0.748183"
     id="path5714" />
  <path
     d="m 160.82027,475.23584 v -2.82728 h 4.35628 v -1.77436 h 1.09515 v 4.98186 h -1.09515 v -1.77924 h -3.26113 v 1.39902 z m -2.65271,-1.39902 v -1.42826 h 1.66463 v 1.42826 z"
     style="font-style:normal;font-variant:normal;font-weight:bold;font-stretch:normal;font-size:13.3333px;line-height:1.25;font-family:monospace;-inkscape-font-specification:'monospace Bold';letter-spacing:0px;word-spacing:0px;fill:#00aeee;fill-opacity:1;stroke:none;stroke-width:0.748183"
     id="path5716" />
  <path
     d="m 160.99062,465.47199 h 1.24605 q -0.2531,0.39484 -0.37966,0.8238 -0.13142,0.42409 -0.13142,0.85306 0,0.47771 0.14116,0.72144 0.13628,0.24373 0.40885,0.24373 0.3894,0 0.63276,-1.04317 l 0.0146,-0.0536 0.0974,-0.40947 q 0.18496,-0.77993 0.59868,-1.14065 0.40886,-0.3656 1.10976,-0.3656 0.84205,0 1.26551,0.5557 0.4186,0.55084 0.4186,1.66225 0,0.49234 -0.0876,1.00904 -0.0827,0.51672 -0.2531,1.04805 h -1.24604 q 0.2677,-0.47284 0.40886,-0.9603 0.14115,-0.49234 0.14115,-0.95055 0,-0.50209 -0.14603,-0.76044 -0.14601,-0.25836 -0.42345,-0.25836 -0.27257,0 -0.4186,0.18524 -0.14602,0.18036 -0.3115,0.86768 l -0.0876,0.39484 q -0.18496,0.81894 -0.57921,1.19429 -0.39426,0.37534 -1.05622,0.37534 -0.78851,0 -1.22658,-0.57033 -0.43805,-0.57033 -0.43805,-1.60375 0,-0.46309 0.0779,-0.9213 0.073,-0.46309 0.2239,-0.89693 z"
     style="font-style:normal;font-variant:normal;font-weight:bold;font-stretch:normal;font-size:13.3333px;line-height:1.25;font-family:monospace;-inkscape-font-specification:'monospace Bold';letter-spacing:0px;word-spacing:0px;fill:#00aeee;fill-opacity:1;stroke:none;stroke-width:0.748183"
     id="path5718" />
  <path
     d="m 165.50266,462.13774 h 2.84254 v 1.42339 h -7.52493 v -1.42339 h 0.81771 q -0.47213,-0.22423 -0.71063,-0.58982 -0.2385,-0.3656 -0.2385,-0.85793 0,-0.93593 0.74957,-1.45264 0.74957,-0.51671 2.11243,-0.51671 1.38233,0 2.12217,0.52646 0.73984,0.52158 0.73984,1.49163 0,0.43872 -0.2239,0.78969 -0.22876,0.3461 -0.6863,0.60932 z m -1.96154,-1.98884 q -0.78852,0 -1.23631,0.26323 -0.4478,0.26323 -0.4478,0.72632 0,0.46309 0.4478,0.73119 0.44779,0.2681 1.23631,0.2681 0.78851,0 1.23631,-0.2681 0.44779,-0.2681 0.44779,-0.73119 0,-0.46309 -0.44779,-0.72632 -0.4478,-0.26323 -1.23631,-0.26323 z"
     style="font-style:normal;font-variant:normal;font-weight:bold;font-stretch:normal;font-size:13.3333px;line-height:1.25;font-family:monospace;-inkscape-font-specification:'monospace Bold';letter-spacing:0px;word-spacing:0px;fill:#00aeee;fill-opacity:1;stroke:none;stroke-width:0.748183"
     id="path5720" />
  <path
     d="m 163.99865,456.39545 h -4.2054 v 1.44776 h -1.09515 v -2.87602 h 5.30055 q 0.64249,0 0.9102,-0.19987 0.2677,-0.19985 0.2677,-0.67757 v -1.14065 h 1.09515 v 1.54037 q 0,1.0188 -0.52567,1.46239 -0.52568,0.44359 -1.74738,0.44359 z"
     style="font-style:normal;font-variant:normal;font-weight:bold;font-stretch:normal;font-size:13.3333px;line-height:1.25;font-family:monospace;-inkscape-font-specification:'monospace Bold';letter-spacing:0px;word-spacing:0px;fill:#00aeee;fill-opacity:1;stroke:none;stroke-width:0.748183"
     id="path5722" />
  <path
     d="m 163.71147,448.85929 q 0,0.79944 0.20443,1.11629 0.20443,0.31685 0.7009,0.31685 0.36992,0 0.58895,-0.21936 0.21903,-0.21936 0.21903,-0.5947 0,-0.56546 -0.42345,-0.87743 -0.42833,-0.31198 -1.19251,-0.31198 h -0.0974 z m -0.55,-1.98884 h 3.11023 v 1.41851 h -0.60842 q 0.36019,0.25836 0.55488,0.66295 0.1947,0.40459 0.1947,0.89205 0,0.93106 -0.49161,1.45264 -0.4916,0.51671 -1.37259,0.51671 -0.95401,0 -1.40666,-0.61907 -0.45754,-0.61909 -0.45754,-1.91573 v -0.98955 h -0.2385 q -0.34558,0 -0.52081,0.25348 -0.18008,0.24861 -0.18008,0.73607 0,0.51184 0.13141,0.99442 0.12655,0.47771 0.40886,0.99929 h -1.21684 q -0.1947,-0.47283 -0.28718,-0.96029 -0.0925,-0.48746 -0.0925,-1.03342 0,-1.33077 0.54027,-1.86698 0.54028,-0.54108 1.93235,-0.54108 z"
     style="font-style:normal;font-variant:normal;font-weight:bold;font-stretch:normal;font-size:13.3333px;line-height:1.25;font-family:monospace;-inkscape-font-specification:'monospace Bold';letter-spacing:0px;word-spacing:0px;fill:#00aeee;fill-opacity:1;stroke:none;stroke-width:0.748183"
     id="path5724" />
  <path
     d="m 166.86065,442.79527 q 0.76905,0.2876 1.1195,0.6922 0.35531,0.39971 0.35531,0.97492 v 1.17965 h -1.08542 v -0.58008 q 0,-0.43871 -0.15089,-0.64344 -0.14602,-0.20474 -0.68629,-0.41435 l -0.29204,-0.10724 -5.30055,2.07659 v -1.50138 l 3.53856,-1.2479 -3.53856,-1.19429 v -1.50137 z"
     style="font-style:normal;font-variant:normal;font-weight:bold;font-stretch:normal;font-size:13.3333px;line-height:1.25;font-family:monospace;-inkscape-font-specification:'monospace Bold';letter-spacing:0px;word-spacing:0px;fill:#00aeee;fill-opacity:1;stroke:none;stroke-width:0.748183"
     id="path5726" />
  <path
     d="m 162.32428,434.64004 q -0.21416,0.23398 -0.32125,0.55083 -0.10708,0.31198 -0.10708,0.68732 0,0.45334 0.16062,0.79457 0.15576,0.33634 0.45753,0.52158 0.18497,0.11699 0.4478,0.16573 0.26284,0.0439 0.79825,0.0439 h 2.51155 v 1.42826 h -5.45143 v -1.42826 h 0.84692 q -0.46727,-0.20961 -0.72037,-0.64346 -0.25797,-0.43383 -0.25797,-1.01391 0,-0.29248 0.073,-0.57033 0.0681,-0.28274 0.20443,-0.53621 z"
     style="font-style:normal;font-variant:normal;font-weight:bold;font-stretch:normal;font-size:13.3333px;line-height:1.25;font-family:monospace;-inkscape-font-specification:'monospace Bold';letter-spacing:0px;word-spacing:0px;fill:#00aeee;fill-opacity:1;stroke:none;stroke-width:0.748183"
     id="path5728" />
  <path
     d="m 163.71147,430.82809 q 0,0.79943 0.20443,1.11628 0.20443,0.31686 0.7009,0.31686 0.36992,0 0.58895,-0.21936 0.21903,-0.21936 0.21903,-0.59471 0,-0.56545 -0.42345,-0.87743 -0.42833,-0.31197 -1.19251,-0.31197 h -0.0974 z m -0.55,-1.98884 h 3.11023 v 1.41851 h -0.60842 q 0.36019,0.25835 0.55488,0.66294 0.1947,0.4046 0.1947,0.89206 0,0.93105 -0.49161,1.45263 -0.4916,0.51672 -1.37259,0.51672 -0.95401,0 -1.40666,-0.61908 -0.45754,-0.61908 -0.45754,-1.91573 v -0.98954 h -0.2385 q -0.34558,0 -0.52081,0.25348 -0.18008,0.2486 -0.18008,0.73606 0,0.51184 0.13141,0.99443 0.12655,0.47771 0.40886,0.99929 h -1.21684 q -0.1947,-0.47284 -0.28718,-0.9603 -0.0925,-0.48746 -0.0925,-1.03342 0,-1.33076 0.54027,-1.86697 0.54028,-0.54108 1.93235,-0.54108 z"
     style="font-style:normal;font-variant:normal;font-weight:bold;font-stretch:normal;font-size:13.3333px;line-height:1.25;font-family:monospace;-inkscape-font-specification:'monospace Bold';letter-spacing:0px;word-spacing:0px;fill:#00aeee;fill-opacity:1;stroke:none;stroke-width:0.748183"
     id="path5730" />
  <path
     d="m 162.73314,423.00921 h 3.53856 v 1.41851 h -3.31953 q -0.58895,0 -0.84205,0.17061 -0.25311,0.16574 -0.25311,0.54596 0,0.38996 0.34559,0.60932 0.34071,0.21936 0.94913,0.21936 h 3.11997 v 1.41851 h -7.5736 v -1.41851 h 2.93988 q -0.45266,-0.15111 -0.7009,-0.51671 -0.24823,-0.36559 -0.24823,-0.88231 0,-0.77505 0.51594,-1.1699 0.51107,-0.39484 1.52835,-0.39484 z"
     style="font-style:normal;font-variant:normal;font-weight:bold;font-stretch:normal;font-size:13.3333px;line-height:1.25;font-family:monospace;-inkscape-font-specification:'monospace Bold';letter-spacing:0px;word-spacing:0px;fill:#00aeee;fill-opacity:1;stroke:none;stroke-width:0.748183"
     id="path5732" />
  <path
     d="m 161.36541,418.85603 q -0.34559,-0.16086 -0.51107,-0.40946 -0.16549,-0.24861 -0.16549,-0.60933 0,-0.70682 0.48673,-0.97493 0.48674,-0.27297 2.02482,-0.27297 h 3.0713 v 1.1699 h -3.49963 q -0.60842,0 -0.81285,0.0926 -0.20442,0.0926 -0.20442,0.33635 0,0.24373 0.2093,0.34122 0.20929,0.0975 0.80797,0.0975 h 3.49963 v 1.15529 h -3.49963 q -0.59868,0 -0.80797,0.0975 -0.2093,0.0975 -0.2093,0.34122 0,0.24373 0.20442,0.33635 0.20443,0.0926 0.81285,0.0926 h 3.49963 v 1.16991 h -5.45143 v -1.03829 h 0.56461 q -0.32125,-0.12187 -0.50621,-0.38998 -0.18982,-0.2681 -0.18982,-0.59957 0,-0.33148 0.19956,-0.60446 0.19469,-0.27297 0.477,-0.33147 z"
     style="font-style:normal;font-variant:normal;font-weight:bold;font-stretch:normal;font-size:13.3333px;line-height:1.25;font-family:monospace;-inkscape-font-specification:'monospace Bold';letter-spacing:0px;word-spacing:0px;fill:#00aeee;fill-opacity:1;stroke:none;stroke-width:0.748183"
     id="path5734" />
  <path
     d="m 166.004,410.83729 q 0.20443,0.49721 0.30665,1.01392 0.10221,0.51671 0.10221,1.09191 0,1.36977 -0.73011,2.09609 -0.73497,0.72144 -2.11243,0.72144 -1.33365,0 -2.10757,-0.69707 -0.7739,-0.69707 -0.7739,-1.9011 0,-1.21378 0.72037,-1.8816 0.7155,-0.6727 2.01995,-0.6727 h 0.57921 v 3.69983 q 0.6425,-0.005 0.95887,-0.38022 0.31638,-0.37534 0.31638,-1.12115 0,-0.49235 -0.14115,-0.97006 -0.14115,-0.47771 -0.4478,-0.99929 z m -3.06643,1.2089 q -0.56462,0.01 -0.85179,0.29248 -0.29204,0.27785 -0.29204,0.82381 0,0.49234 0.30177,0.78481 0.29691,0.29248 0.84692,0.3461 z"
     style="font-style:normal;font-variant:normal;font-weight:bold;font-stretch:normal;font-size:13.3333px;line-height:1.25;font-family:monospace;-inkscape-font-specification:'monospace Bold';letter-spacing:0px;word-spacing:0px;fill:#00aeee;fill-opacity:1;stroke:none;stroke-width:0.748183"
     id="path5736" />
  <path
     d="m 162.73314,404.978 h 3.53856 v 1.41851 h -3.31953 q -0.59382,0 -0.84692,0.17061 -0.25797,0.16574 -0.25797,0.54596 0,0.38509 0.34558,0.60933 0.34558,0.21936 0.95887,0.21936 h 3.11997 v 1.41851 h -5.45143 v -1.41851 h 0.81771 q -0.45266,-0.15111 -0.7009,-0.51671 -0.24823,-0.3656 -0.24823,-0.88231 0,-0.77507 0.51594,-1.16991 0.51107,-0.39484 1.52835,-0.39484 z"
     style="font-style:normal;font-variant:normal;font-weight:bold;font-stretch:normal;font-size:13.3333px;line-height:1.25;font-family:monospace;-inkscape-font-specification:'monospace Bold';letter-spacing:0px;word-spacing:0px;fill:#00aeee;fill-opacity:1;stroke:none;stroke-width:0.748183"
     id="path5738" />
  <path
     d="m 160.27025,397.33947 h -1.26551 v -4.33353 h 1.26551 v 1.44777 h 4.73594 v -1.44777 h 1.26551 v 4.33353 h -1.26551 v -1.44775 h -4.73594 z"
     style="font-style:normal;font-variant:normal;font-weight:bold;font-stretch:normal;font-size:13.3333px;line-height:1.25;font-family:monospace;-inkscape-font-specification:'monospace Bold';letter-spacing:0px;word-spacing:0px;fill:#00aeee;fill-opacity:1;stroke:none;stroke-width:0.748183"
     id="path5740" />
  <path
     d="m 162.73314,386.9468 h 3.53856 v 1.41851 h -3.31953 q -0.59382,0 -0.84692,0.17061 -0.25797,0.16574 -0.25797,0.54596 0,0.38509 0.34558,0.60932 0.34558,0.21936 0.95887,0.21936 h 3.11997 v 1.41852 h -5.45143 v -1.41852 h 0.81771 q -0.45266,-0.15111 -0.7009,-0.51671 -0.24823,-0.3656 -0.24823,-0.8823 0,-0.77507 0.51594,-1.16991 0.51107,-0.39484 1.52835,-0.39484 z"
     style="font-style:normal;font-variant:normal;font-weight:bold;font-stretch:normal;font-size:13.3333px;line-height:1.25;font-family:monospace;-inkscape-font-specification:'monospace Bold';letter-spacing:0px;word-spacing:0px;fill:#00aeee;fill-opacity:1;stroke:none;stroke-width:0.748183"
     id="path5742" />
  <path
     d="m 162.73314,380.93639 h 3.53856 v 1.41852 h -3.31953 q -0.59382,0 -0.84692,0.17061 -0.25797,0.16574 -0.25797,0.54595 0,0.3851 0.34558,0.60934 0.34558,0.21935 0.95887,0.21935 h 3.11997 v 1.41852 h -5.45143 v -1.41852 h 0.81771 q -0.45266,-0.15111 -0.7009,-0.51671 -0.24823,-0.36559 -0.24823,-0.8823 0,-0.77507 0.51594,-1.16991 0.51107,-0.39485 1.52835,-0.39485 z"
     style="font-style:normal;font-variant:normal;font-weight:bold;font-stretch:normal;font-size:13.3333px;line-height:1.25;font-family:monospace;-inkscape-font-specification:'monospace Bold';letter-spacing:0px;word-spacing:0px;fill:#00aeee;fill-opacity:1;stroke:none;stroke-width:0.748183"
     id="path5744" />
  <path
     d="m 166.004,374.77488 q 0.20443,0.49721 0.30665,1.01392 0.10221,0.51671 0.10221,1.09191 0,1.36977 -0.73011,2.09609 -0.73497,0.72145 -2.11243,0.72145 -1.33365,0 -2.10757,-0.69708 -0.7739,-0.69707 -0.7739,-1.9011 0,-1.21378 0.72037,-1.8816 0.7155,-0.67269 2.01995,-0.67269 h 0.57921 v 3.69983 q 0.6425,-0.005 0.95887,-0.38022 0.31638,-0.37535 0.31638,-1.12117 0,-0.49233 -0.14115,-0.97004 -0.14115,-0.47772 -0.4478,-0.9993 z m -3.06643,1.20891 q -0.56462,0.01 -0.85179,0.29247 -0.29204,0.27786 -0.29204,0.82381 0,0.49234 0.30177,0.78481 0.29691,0.29249 0.84692,0.3461 z"
     style="font-style:normal;font-variant:normal;font-weight:bold;font-stretch:normal;font-size:13.3333px;line-height:1.25;font-family:monospace;-inkscape-font-specification:'monospace Bold';letter-spacing:0px;word-spacing:0px;fill:#00aeee;fill-opacity:1;stroke:none;stroke-width:0.748183"
     id="path5746" />
  <path
     d="m 162.73314,368.91559 h 3.53856 v 1.41852 h -3.31953 q -0.59382,0 -0.84692,0.17061 -0.25797,0.16573 -0.25797,0.54596 0,0.38509 0.34558,0.60932 0.34558,0.21936 0.95887,0.21936 h 3.11997 v 1.41851 h -5.45143 v -1.41851 h 0.81771 q -0.45266,-0.15112 -0.7009,-0.51671 -0.24823,-0.3656 -0.24823,-0.8823 0,-0.77507 0.51594,-1.16991 0.51107,-0.39485 1.52835,-0.39485 z"
     style="font-style:normal;font-variant:normal;font-weight:bold;font-stretch:normal;font-size:13.3333px;line-height:1.25;font-family:monospace;-inkscape-font-specification:'monospace Bold';letter-spacing:0px;word-spacing:0px;fill:#00aeee;fill-opacity:1;stroke:none;stroke-width:0.748183"
     id="path5748" />
  <path
     d="m 160.99062,363.29516 h 1.24605 q -0.2531,0.39485 -0.37966,0.82381 -0.13142,0.42409 -0.13142,0.85306 0,0.47771 0.14116,0.72144 0.13628,0.24373 0.40885,0.24373 0.3894,0 0.63276,-1.04317 l 0.0146,-0.0536 0.0974,-0.40947 q 0.18496,-0.77994 0.59868,-1.14066 0.40886,-0.3656 1.10976,-0.3656 0.84205,0 1.26551,0.55571 0.4186,0.55084 0.4186,1.66225 0,0.49233 -0.0876,1.00904 -0.0827,0.51671 -0.2531,1.04805 h -1.24604 q 0.2677,-0.47284 0.40886,-0.9603 0.14115,-0.49234 0.14115,-0.95056 0,-0.50208 -0.14603,-0.76043 -0.14601,-0.25836 -0.42345,-0.25836 -0.27257,0 -0.4186,0.18523 -0.14602,0.18037 -0.3115,0.86769 l -0.0876,0.39484 q -0.18496,0.81894 -0.57921,1.19428 -0.39426,0.37534 -1.05622,0.37534 -0.78851,0 -1.22658,-0.57032 -0.43805,-0.57033 -0.43805,-1.60375 0,-0.46309 0.0779,-0.9213 0.073,-0.46309 0.2239,-0.89694 z"
     style="font-style:normal;font-variant:normal;font-weight:bold;font-stretch:normal;font-size:13.3333px;line-height:1.25;font-family:monospace;-inkscape-font-specification:'monospace Bold';letter-spacing:0px;word-spacing:0px;fill:#00aeee;fill-opacity:1;stroke:none;stroke-width:0.748183"
     id="path5750" />
  <path
     d="m 166.004,356.74367 q 0.20443,0.49722 0.30665,1.01393 0.10221,0.5167 0.10221,1.09191 0,1.36977 -0.73011,2.09608 -0.73497,0.72144 -2.11243,0.72144 -1.33365,0 -2.10757,-0.69707 -0.7739,-0.69706 -0.7739,-1.90109 0,-1.21378 0.72037,-1.88161 0.7155,-0.67269 2.01995,-0.67269 h 0.57921 v 3.69983 q 0.6425,-0.005 0.95887,-0.38022 0.31638,-0.37534 0.31638,-1.12116 0,-0.49234 -0.14115,-0.97005 -0.14115,-0.47771 -0.4478,-0.9993 z m -3.06643,1.20891 q -0.56462,0.01 -0.85179,0.29248 -0.29204,0.27785 -0.29204,0.82381 0,0.49233 0.30177,0.78481 0.29691,0.29247 0.84692,0.3461 z"
     style="font-style:normal;font-variant:normal;font-weight:bold;font-stretch:normal;font-size:13.3333px;line-height:1.25;font-family:monospace;-inkscape-font-specification:'monospace Bold';letter-spacing:0px;word-spacing:0px;fill:#00aeee;fill-opacity:1;stroke:none;stroke-width:0.748183"
     id="path5752" />
  <path
     d="m 160.82027,355.02781 v -2.82727 h 4.35628 v -1.77437 h 1.09515 v 4.98186 h -1.09515 v -1.77923 h -3.26113 v 1.39901 z m -2.65271,-1.39901 v -1.42826 h 1.66463 v 1.42826 z"
     style="font-style:normal;font-variant:normal;font-weight:bold;font-stretch:normal;font-size:13.3333px;line-height:1.25;font-family:monospace;-inkscape-font-specification:'monospace Bold';letter-spacing:0px;word-spacing:0px;fill:#00aeee;fill-opacity:1;stroke:none;stroke-width:0.748183"
     id="path5754" />
  <path
     d="m 159.27244,346.73122 h 1.54783 v -1.86698 h 1.09515 v 1.86698 h 2.5797 q 0.36505,0 0.52568,-0.17549 0.15575,-0.18036 0.15575,-0.59471 v -1.09678 h 1.09515 v 1.19915 q 0,1.22841 -0.38938,1.66224 -0.39426,0.43385 -1.45534,0.43385 h -2.51156 v 1.39414 h -1.09515 v -1.39414 h -1.54783 z"
     style="font-style:normal;font-variant:normal;font-weight:bold;font-stretch:normal;font-size:13.3333px;line-height:1.25;font-family:monospace;-inkscape-font-specification:'monospace Bold';letter-spacing:0px;word-spacing:0px;fill:#00aeee;fill-opacity:1;stroke:none;stroke-width:0.748183"
     id="path5756" />
  <path
     d="m 166.004,338.71247 q 0.20443,0.49721 0.30665,1.01392 0.10221,0.51671 0.10221,1.09191 0,1.36977 -0.73011,2.09609 -0.73497,0.72144 -2.11243,0.72144 -1.33365,0 -2.10757,-0.69707 -0.7739,-0.69707 -0.7739,-1.9011 0,-1.21377 0.72037,-1.8816 0.7155,-0.6727 2.01995,-0.6727 h 0.57921 v 3.69984 q 0.6425,-0.005 0.95887,-0.38022 0.31638,-0.37535 0.31638,-1.12116 0,-0.49234 -0.14115,-0.97005 -0.14115,-0.47771 -0.4478,-0.9993 z m -3.06643,1.20891 q -0.56462,0.01 -0.85179,0.29247 -0.29204,0.27785 -0.29204,0.82381 0,0.49234 0.30177,0.78482 0.29691,0.29247 0.84692,0.3461 z"
     style="font-style:normal;font-variant:normal;font-weight:bold;font-stretch:normal;font-size:13.3333px;line-height:1.25;font-family:monospace;-inkscape-font-specification:'monospace Bold';letter-spacing:0px;word-spacing:0px;fill:#00aeee;fill-opacity:1;stroke:none;stroke-width:0.748183"
     id="path5758" />
  <path
     inkscape:connector-curvature="0"
     id="path856-8"
     style="font-style:normal;font-variant:normal;font-weight:bold;font-stretch:normal;font-size:13.3333px;line-height:125%;font-family:monospace;-inkscape-font-specification:'monospace Bold';letter-spacing:0px;word-spacing:0px;fill:#ffcc00;fill-opacity:1;stroke:none;stroke-width:0.749999px;stroke-linecap:butt;stroke-linejoin:miter;stroke-opacity:1"
     d="m 198.45313,692.71095 v 2.13867 h 0.59083 q 0.708,0 0.99121,-0.23927 0.28808,-0.23925 0.28808,-0.83008 0,-0.59082 -0.28808,-0.83008 -0.28321,-0.23927 -0.99121,-0.23927 z m -1.44042,-1.21094 h 1.97754 q 1.50878,0 2.16796,0.53711 0.66406,0.53711 0.66406,1.74316 0,1.20606 -0.66406,1.74317 -0.65918,0.53711 -2.16796,0.53711 h -0.53712 v 2.72948 h -1.44042 z" />
  <path
     inkscape:connector-curvature="0"
     id="path858-8"
     style="font-style:normal;font-variant:normal;font-weight:bold;font-stretch:normal;font-size:13.3333px;line-height:125%;font-family:monospace;-inkscape-font-specification:'monospace Bold';letter-spacing:0px;word-spacing:0px;fill:#ffcc00;fill-opacity:1;stroke:none;stroke-width:0.749999px;stroke-linecap:butt;stroke-linejoin:miter;stroke-opacity:1"
     d="m 205.63087,693.10157 -1.84082,2.88086 h 1.84082 z m -0.12696,-1.60156 h 1.50879 v 4.48242 h 0.80078 v 1.23535 h -0.80078 v 1.57226 h -1.38184 v -1.57226 h -2.89062 v -1.39648 z" />
  <path
     inkscape:connector-curvature="0"
     id="path860-86"
     style="font-style:normal;font-variant:normal;font-weight:bold;font-stretch:normal;font-size:13.3333px;line-height:125%;font-family:monospace;-inkscape-font-specification:'monospace Bold';letter-spacing:0px;word-spacing:0px;fill:#ffcc00;fill-opacity:1;stroke:none;stroke-width:0.749999px;stroke-linecap:butt;stroke-linejoin:miter;stroke-opacity:1"
     d="m 199.2295,710.08888 1.28418,-6.08887 h 1.4502 l -1.7334,7.29005 h -1.99707 l -1.7334,-7.29005 h 1.4502 z" />
  <path
     inkscape:connector-curvature="0"
     id="path862-8"
     style="font-style:normal;font-variant:normal;font-weight:bold;font-stretch:normal;font-size:13.3333px;line-height:125%;font-family:monospace;-inkscape-font-specification:'monospace Bold';letter-spacing:0px;word-spacing:0px;fill:#ffcc00;fill-opacity:1;stroke:none;stroke-width:0.749999px;stroke-linecap:butt;stroke-linejoin:miter;stroke-opacity:1"
     d="m 203.16017,710.02052 h 1.61132 v -4.73145 l -1.49902,0.3711 v -1.29883 l 1.50879,-0.36133 h 1.3916 v 6.02051 h 1.61133 v 1.26954 h -4.62402 z" />
  <path
     id="rect2200-1"
     d="M 178.74174,178.30079 V 650.89307 H 464.13578 V 499.49122 h 8.47705 V 343.8501 h -8.47705 V 178.30079 Z"
     style="vector-effect:none;fill:none;fill-opacity:1;fill-rule:evenodd;stroke:#ec008c;stroke-width:0.997795;stroke-linecap:square;stroke-linejoin:miter;stroke-miterlimit:4;stroke-dasharray:none;stroke-dashoffset:0;stroke-opacity:1" />
</svg>
