<?xml version="1.0" encoding="UTF-8" standalone="no"?>
<svg
   xmlns:dc="http://purl.org/dc/elements/1.1/"
   xmlns:cc="http://creativecommons.org/ns#"
   xmlns:rdf="http://www.w3.org/1999/02/22-rdf-syntax-ns#"
   xmlns:svg="http://www.w3.org/2000/svg"
   xmlns="http://www.w3.org/2000/svg"
   xmlns:sodipodi="http://sodipodi.sourceforge.net/DTD/sodipodi-0.dtd"
   xmlns:inkscape="http://www.inkscape.org/namespaces/inkscape"
   id="svg711"
   version="1.1"
   viewBox="0 0 595.68 842.16"
   height="842.16pt"
   width="595.68pt"
   sodipodi:docname="sheet_b_ekulit_siedle.svg"
   inkscape:version="0.92.5 (2060ec1f9f, 2020-04-08)">
  <sodipodi:namedview
     pagecolor="#ffffff"
     bordercolor="#666666"
     borderopacity="1"
     objecttolerance="10"
     gridtolerance="10"
     guidetolerance="10"
     inkscape:pageopacity="0"
     inkscape:pageshadow="2"
     inkscape:window-width="1600"
     inkscape:window-height="820"
     id="namedview1984"
     showgrid="false"
     inkscape:zoom="0.56996296"
     inkscape:cx="281.69354"
     inkscape:cy="708.52753"
     inkscape:window-x="-4"
     inkscape:window-y="-4"
     inkscape:window-maximized="1"
     inkscape:current-layer="svg711"
     showguides="true"
     inkscape:guide-bbox="true" />
  <metadata
     id="metadata715">
    <rdf:RDF>
      <cc:Work
         rdf:about="">
        <dc:format>image/svg+xml</dc:format>
        <dc:type
           rdf:resource="http://purl.org/dc/dcmitype/StillImage" />
        <dc:title />
      </cc:Work>
    </rdf:RDF>
  </metadata>
  <defs
     id="defs178" />
  <path
     style="fill:none;fill-opacity:1;stroke:#ec008c;stroke-width:1.82753813;stroke-miterlimit:10;stroke-dasharray:none;stroke-opacity:1"
     d="M 476.94922 165.91992 L 476.94922 365.26367 L 491.8125 365.26367 L 491.8125 798.87305 L 476.94922 798.87305 L 476.94922 873.92773 L 675.4375 873.92773 L 675.4375 798.87305 L 660.57422 798.87305 L 660.57422 365.26367 L 675.4375 365.26367 L 675.4375 165.91992 L 476.94922 165.91992 z "
     transform="scale(0.75)"
     id="rect1797-6-5-3-9-7-5-5" />
  <path
     inkscape:connector-curvature="0"
     d="m 373.23565,137.13457 c 0,-1.56061 -1.26669,-2.82705 -2.82884,-2.82705 -1.56314,0 -2.82982,1.26644 -2.82982,2.82705 0,1.56062 1.26668,2.82609 2.82982,2.82609 1.56215,0 2.82884,-1.26547 2.82884,-2.82609"
     style="clip-rule:evenodd;fill:none;fill-rule:nonzero;stroke:#ec008c;stroke-width:0.99768871;stroke-miterlimit:10;stroke-opacity:1"
     id="path561-9-1-31-3-7-3-5-2-3-9-4-9-06-8-5-1-24-3-9" />
  <path
     inkscape:connector-curvature="0"
     d="m 370.40688,140.06278 v -5.9833"
     style="clip-rule:evenodd;fill:none;fill-rule:nonzero;stroke:#000000;stroke-width:0.67318708px;stroke-miterlimit:10;stroke-opacity:1"
     id="path565-7-5-9-2-0-5-92-9-6-0-3-1-2-8-9-7-7-6-2" />
  <path
     inkscape:connector-curvature="0"
     d="m 373.3599,137.13343 h -5.98916"
     style="clip-rule:evenodd;fill:none;fill-rule:nonzero;stroke:#000000;stroke-width:0.67318743px;stroke-miterlimit:10;stroke-opacity:1"
     id="path569-2-4-47-0-9-6-28-3-1-2-1-2-6-5-2-2-7-1-0" />
  <path
     inkscape:connector-curvature="0"
     d="m 496.71318,137.13457 c 0,-1.56061 -1.26669,-2.82705 -2.82884,-2.82705 -1.56314,0 -2.82982,1.26644 -2.82982,2.82705 0,1.56062 1.26668,2.82609 2.82982,2.82609 1.56215,0 2.82884,-1.26547 2.82884,-2.82609"
     style="clip-rule:evenodd;fill:none;fill-rule:nonzero;stroke:#ec008c;stroke-width:0.99768871;stroke-miterlimit:10;stroke-opacity:1"
     id="path561-9-1-31-3-7-3-5-2-3-9-4-9-06-8-5-1-1-0" />
  <path
     inkscape:connector-curvature="0"
     d="m 493.88441,140.06278 v -5.9833"
     style="clip-rule:evenodd;fill:none;fill-rule:nonzero;stroke:#000000;stroke-width:0.67318708px;stroke-miterlimit:10;stroke-opacity:1"
     id="path565-7-5-9-2-0-5-92-9-6-0-3-1-2-8-9-7-2-6" />
  <path
     inkscape:connector-curvature="0"
     d="m 496.83743,137.13343 h -5.98916"
     style="clip-rule:evenodd;fill:none;fill-rule:nonzero;stroke:#000000;stroke-width:0.67318743px;stroke-miterlimit:10;stroke-opacity:1"
     id="path569-2-4-47-0-9-6-28-3-1-2-1-2-6-5-2-2-8-3" />
  <path
     id="path561-9-1-31-3-7-3-5-2-3-9-4-9-06-8-5-1-24-1"
     style="clip-rule:evenodd;fill:none;fill-rule:nonzero;stroke:#ec008c;stroke-width:0.99768871;stroke-miterlimit:10;stroke-opacity:1"
     d="m 373.23563,618.9864 c 0,1.56061 -1.26669,2.82705 -2.82884,2.82705 -1.56314,0 -2.82982,-1.26644 -2.82982,-2.82705 0,-1.56062 1.26668,-2.82609 2.82982,-2.82609 1.56215,0 2.82884,1.26547 2.82884,2.82609"
     inkscape:connector-curvature="0" />
  <path
     id="path565-7-5-9-2-0-5-92-9-6-0-3-1-2-8-9-7-7-4"
     style="clip-rule:evenodd;fill:none;fill-rule:nonzero;stroke:#000000;stroke-width:0.67318708px;stroke-miterlimit:10;stroke-opacity:1"
     d="m 370.40686,615.99523 v 5.9833"
     inkscape:connector-curvature="0" />
  <path
     id="path569-2-4-47-0-9-6-28-3-1-2-1-2-6-5-2-2-7-7"
     style="clip-rule:evenodd;fill:none;fill-rule:nonzero;stroke:#000000;stroke-width:0.67318743px;stroke-miterlimit:10;stroke-opacity:1"
     d="m 373.35988,618.98688 h -5.98916"
     inkscape:connector-curvature="0" />
  <path
     id="path561-9-1-31-3-7-3-5-2-3-9-4-9-06-8-5-1-1-8"
     style="clip-rule:evenodd;fill:none;fill-rule:nonzero;stroke:#ec008c;stroke-width:0.99768871;stroke-miterlimit:10;stroke-opacity:1"
     d="m 496.71315,618.9864 c 0,1.56061 -1.26669,2.82705 -2.82884,2.82705 -1.56314,0 -2.82981,-1.26644 -2.82981,-2.82705 0,-1.56062 1.26667,-2.82609 2.82981,-2.82609 1.56215,0 2.82884,1.26547 2.82884,2.82609"
     inkscape:connector-curvature="0" />
  <path
     id="path565-7-5-9-2-0-5-92-9-6-0-3-1-2-8-9-7-2-09"
     style="clip-rule:evenodd;fill:none;fill-rule:nonzero;stroke:#000000;stroke-width:0.67318708px;stroke-miterlimit:10;stroke-opacity:1"
     d="m 493.88438,615.99523 v 5.9833"
     inkscape:connector-curvature="0" />
  <path
     id="path569-2-4-47-0-9-6-28-3-1-2-1-2-6-5-2-2-8-5"
     style="clip-rule:evenodd;fill:none;fill-rule:nonzero;stroke:#000000;stroke-width:0.67318743px;stroke-miterlimit:10;stroke-opacity:1"
     d="m 496.8374,618.98688 h -5.98915"
     inkscape:connector-curvature="0" />
  <path
     id="path8807"
     style="font-style:normal;font-variant:normal;font-weight:bold;font-stretch:normal;font-size:13.33333302px;line-height:1.25;font-family:monospace;-inkscape-font-specification:'monospace Bold';text-align:center;letter-spacing:0px;word-spacing:0px;text-anchor:middle;fill:#00aeee;fill-opacity:1;stroke:none;stroke-width:0.75"
     d="m 138.06452,449.40828 v -1.44043 h 2.77832 v -1.80176 h -2.77832 v -1.44042 h 7.29004 v 1.44042 h -3.24219 v 1.80176 h 3.24219 v 1.44043 z"
     inkscape:connector-curvature="0" />
  <path
     id="path8809"
     style="font-style:normal;font-variant:normal;font-weight:bold;font-stretch:normal;font-size:13.33333302px;line-height:1.25;font-family:monospace;-inkscape-font-specification:'monospace Bold';text-align:center;letter-spacing:0px;word-spacing:0px;text-anchor:middle;fill:#00aeee;fill-opacity:1;stroke:none;stroke-width:0.75"
     d="m 137.73249,440.65828 v -1.15234 h 1.20117 v 1.15234 z m 0,1.92871 v -1.15234 h 1.20117 v 1.15234 z m 3.18359,-1.53809 q 0,0.5127 0.45411,0.80567 0.44922,0.29297 1.25487,0.29297 0.80567,0 1.25977,-0.29297 0.44922,-0.29297 0.44922,-0.80567 0,-0.51757 -0.44922,-0.81054 -0.4541,-0.29297 -1.25977,-0.29297 -0.80565,0 -1.25487,0.29297 -0.45411,0.29297 -0.45411,0.81054 z m 1.70898,2.5293 q -1.32324,0 -2.09472,-0.68359 -0.77637,-0.68848 -0.77637,-1.84571 0,-1.16211 0.77637,-1.84569 0.77148,-0.68848 2.09472,-0.68848 1.32325,0 2.09961,0.68848 0.77149,0.68358 0.77149,1.84569 0,1.15723 -0.77149,1.84571 -0.77636,0.68359 -2.09961,0.68359 z"
     inkscape:connector-curvature="0" />
  <path
     id="path8811"
     style="font-style:normal;font-variant:normal;font-weight:bold;font-stretch:normal;font-size:13.33333302px;line-height:1.25;font-family:monospace;-inkscape-font-specification:'monospace Bold';text-align:center;letter-spacing:0px;word-spacing:0px;text-anchor:middle;fill:#00aeee;fill-opacity:1;stroke:none;stroke-width:0.75"
     d="m 141.3946,432.4161 q -0.21485,0.23437 -0.32227,0.55175 -0.10742,0.3125 -0.10742,0.68848 0,0.4541 0.16114,0.7959 0.15624,0.33691 0.45898,0.52245 0.18554,0.11719 0.44921,0.16602 0.26368,0.0439 0.80079,0.0439 h 2.51953 v 1.43067 h -5.46875 v -1.43067 h 0.84961 q -0.46875,-0.20996 -0.72266,-0.64452 -0.25879,-0.43458 -0.25879,-1.01563 0,-0.29297 0.0733,-0.57129 0.0683,-0.2832 0.20508,-0.53711 z"
     inkscape:connector-curvature="0" />
  <path
     id="path8813"
     style="font-style:normal;font-variant:normal;font-weight:bold;font-stretch:normal;font-size:13.33333302px;line-height:1.25;font-family:monospace;-inkscape-font-specification:'monospace Bold';text-align:center;letter-spacing:0px;word-spacing:0px;text-anchor:middle;fill:#00aeee;fill-opacity:1;stroke:none;stroke-width:0.75"
     d="m 145.086,426.63484 q 0.20508,0.49805 0.30762,1.01563 0.10254,0.51757 0.10254,1.09375 0,1.37207 -0.73242,2.09961 -0.73731,0.72265 -2.11914,0.72265 -1.33789,0 -2.11426,-0.69824 -0.77637,-0.69824 -0.77637,-1.9043 0,-1.21581 0.72266,-1.88476 0.71777,-0.67383 2.02636,-0.67383 h 0.58106 v 3.70606 q 0.64453,-0.005 0.96192,-0.38086 0.31738,-0.37598 0.31738,-1.12305 0,-0.49316 -0.1416,-0.97168 -0.1416,-0.47851 -0.44922,-1.00098 z m -3.07617,1.21094 q -0.56641,0.01 -0.85449,0.29297 -0.29297,0.27832 -0.29297,0.82519 0,0.49317 0.30274,0.78614 0.29785,0.29296 0.8496,0.34668 z"
     inkscape:connector-curvature="0" />
  <path
     id="path8815"
     style="font-style:normal;font-variant:normal;font-weight:bold;font-stretch:normal;font-size:13.33333302px;line-height:1.25;font-family:monospace;-inkscape-font-specification:'monospace Bold';text-align:center;letter-spacing:0px;word-spacing:0px;text-anchor:middle;fill:#00aeee;fill-opacity:1;stroke:none;stroke-width:0.75"
     d="m 141.3946,420.37508 q -0.21485,0.23437 -0.32227,0.55176 -0.10742,0.31249 -0.10742,0.68847 0,0.4541 0.16114,0.7959 0.15624,0.33691 0.45898,0.52246 0.18554,0.11719 0.44921,0.16602 0.26368,0.0439 0.80079,0.0439 h 2.51953 v 1.43067 h -5.46875 v -1.43067 h 0.84961 q -0.46875,-0.20996 -0.72266,-0.64453 -0.25879,-0.43457 -0.25879,-1.01563 0,-0.29296 0.0733,-0.57129 0.0683,-0.2832 0.20508,-0.5371 z"
     inkscape:connector-curvature="0" />
  <path
     id="path8817"
     style="font-style:normal;font-variant:normal;font-weight:bold;font-stretch:normal;font-size:13.33333302px;line-height:1.25;font-family:monospace;-inkscape-font-specification:'monospace Bold';text-align:center;letter-spacing:0px;word-spacing:0px;text-anchor:middle;fill:#00aeee;fill-opacity:1;stroke:none;stroke-width:0.75"
     d="m 145.35456,412.85555 h -7.29004 v -1.44044 h 6.02051 v -3.08105 h 1.26953 z"
     inkscape:connector-curvature="0" />
  <path
     id="path8819"
     style="font-style:normal;font-variant:normal;font-weight:bold;font-stretch:normal;font-size:13.33333302px;line-height:1.25;font-family:monospace;-inkscape-font-specification:'monospace Bold';text-align:center;letter-spacing:0px;word-spacing:0px;text-anchor:middle;fill:#00aeee;fill-opacity:1;stroke:none;stroke-width:0.75"
     d="m 142.7862,404.51571 q 0,0.80077 0.20508,1.11816 0.20507,0.31738 0.70313,0.31738 0.37109,0 0.59082,-0.21973 0.21972,-0.21972 0.21972,-0.5957 0,-0.56641 -0.4248,-0.87891 -0.42969,-0.31249 -1.19629,-0.31249 h -0.0977 z m -0.55176,-1.99219 h 3.12012 v 1.4209 h -0.61035 q 0.36133,0.25878 0.55664,0.66405 0.19531,0.40528 0.19531,0.89356 0,0.93262 -0.49316,1.45508 -0.49316,0.51758 -1.37696,0.51758 -0.95703,0 -1.41113,-0.62012 -0.45898,-0.62012 -0.45898,-1.91895 v -0.9912 h -0.23926 q -0.34668,0 -0.52246,0.2539 -0.18067,0.24902 -0.18067,0.7373 0,0.5127 0.13184,0.9961 0.12695,0.47852 0.41016,1.00097 h -1.22071 q -0.19531,-0.47363 -0.28808,-0.96191 -0.0928,-0.48828 -0.0928,-1.03516 0,-1.333 0.54199,-1.87011 0.54199,-0.54199 1.93848,-0.54199 z"
     inkscape:connector-curvature="0" />
  <path
     id="path8821"
     style="font-style:normal;font-variant:normal;font-weight:bold;font-stretch:normal;font-size:13.33333302px;line-height:1.25;font-family:monospace;-inkscape-font-specification:'monospace Bold';text-align:center;letter-spacing:0px;word-spacing:0px;text-anchor:middle;fill:#00aeee;fill-opacity:1;stroke:none;stroke-width:0.75"
     d="m 145.94538,398.44149 q 0.77148,0.28808 1.12304,0.69336 0.35645,0.40038 0.35645,0.97656 v 1.18164 H 146.336 v -0.58106 q 0,-0.43945 -0.15136,-0.64453 -0.14648,-0.20508 -0.68848,-0.41504 l -0.29297,-0.10742 -5.31738,2.08008 v -1.50391 l 3.5498,-1.25 -3.5498,-1.19629 v -1.50391 z"
     inkscape:connector-curvature="0" />
  <path
     id="path8823"
     style="font-style:normal;font-variant:normal;font-weight:bold;font-stretch:normal;font-size:13.33333302px;line-height:1.25;font-family:monospace;-inkscape-font-specification:'monospace Bold';text-align:center;letter-spacing:0px;word-spacing:0px;text-anchor:middle;fill:#00aeee;fill-opacity:1;stroke:none;stroke-width:0.75"
     d="m 145.086,390.5118 q 0.20508,0.49804 0.30762,1.01562 0.10254,0.51758 0.10254,1.09375 0,1.37207 -0.73242,2.09961 -0.73731,0.72266 -2.11914,0.72266 -1.33789,0 -2.11426,-0.69825 -0.77637,-0.69824 -0.77637,-1.90429 0,-1.21582 0.72266,-1.88477 0.71777,-0.67383 2.02636,-0.67383 h 0.58106 v 3.70606 q 0.64453,-0.005 0.96192,-0.38086 0.31738,-0.37598 0.31738,-1.12305 0,-0.49316 -0.1416,-0.97167 -0.1416,-0.47853 -0.44922,-1.00098 z m -3.07617,1.21093 q -0.56641,0.01 -0.85449,0.29297 -0.29297,0.27832 -0.29297,0.8252 0,0.49316 0.30274,0.78613 0.29785,0.29297 0.8496,0.34668 z"
     inkscape:connector-curvature="0" />
  <path
     id="path8825"
     style="font-style:normal;font-variant:normal;font-weight:bold;font-stretch:normal;font-size:13.33333302px;line-height:1.25;font-family:monospace;-inkscape-font-specification:'monospace Bold';text-align:center;letter-spacing:0px;word-spacing:0px;text-anchor:middle;fill:#00aeee;fill-opacity:1;stroke:none;stroke-width:0.75"
     d="m 141.3946,384.25203 q -0.21485,0.23438 -0.32227,0.55176 -0.10742,0.3125 -0.10742,0.68847 0,0.45411 0.16114,0.7959 0.15624,0.33692 0.45898,0.52246 0.18554,0.11719 0.44921,0.16602 0.26368,0.0439 0.80079,0.0439 h 2.51953 v 1.43066 h -5.46875 v -1.43066 h 0.84961 q -0.46875,-0.20996 -0.72266,-0.64453 -0.25879,-0.43457 -0.25879,-1.01562 0,-0.29297 0.0733,-0.57129 0.0683,-0.2832 0.20508,-0.53711 z"
     inkscape:connector-curvature="0" />
  <path
     id="path8827"
     style="font-style:normal;font-variant:normal;font-weight:bold;font-stretch:normal;font-size:13.33333302px;line-height:1.25;font-family:monospace;-inkscape-font-specification:'monospace Bold';text-align:center;letter-spacing:0px;word-spacing:0px;text-anchor:middle;fill:#00aeee;fill-opacity:1;stroke:none;stroke-width:0.75"
     d="m 144.08503,375.71199 v -3.07128 h 1.26953 v 4.6289 h -1.23047 l -0.83008,-0.78125 q -1.47949,-1.39161 -1.82128,-1.68945 -0.41993,-0.36621 -0.7422,-0.52735 -0.32715,-0.16113 -0.64452,-0.16113 -0.48828,0 -0.75196,0.29785 -0.26855,0.29297 -0.26855,0.83496 0,0.38574 0.15624,0.86914 0.15138,0.47852 0.44434,1.00098 h -1.34277 q -0.19043,-0.52246 -0.28809,-1.02051 -0.10254,-0.50293 -0.10254,-0.96191 0,-1.15723 0.542,-1.81641 0.53711,-0.66406 1.46973,-0.66406 0.42968,0 0.80565,0.14648 0.37599,0.1416 0.83497,0.49317 0.33203,0.25878 1.49414,1.42089 0.62988,0.62989 1.00586,1.00098 z"
     inkscape:connector-curvature="0" />
  <path
     id="path8829"
     style="font-style:normal;font-variant:normal;font-weight:bold;font-stretch:normal;font-size:13.33333302px;line-height:1.25;font-family:monospace;-inkscape-font-specification:'monospace Bold';text-align:center;letter-spacing:0px;word-spacing:0px;text-anchor:middle;fill:#00aeee;fill-opacity:1;stroke:none;stroke-width:0.75"
     d="m 141.3946,360.17 q -0.21485,0.23437 -0.32227,0.55176 -0.10742,0.31249 -0.10742,0.68848 0,0.4541 0.16114,0.79589 0.15624,0.33691 0.45898,0.52246 0.18554,0.11719 0.44921,0.16602 0.26368,0.044 0.80079,0.044 h 2.51953 v 1.43066 h -5.46875 v -1.43066 h 0.84961 q -0.46875,-0.20997 -0.72266,-0.64454 -0.25879,-0.43456 -0.25879,-1.01562 0,-0.29297 0.0733,-0.57129 0.0683,-0.28321 0.20508,-0.53711 z"
     inkscape:connector-curvature="0" />
  <path
     id="path8831"
     style="font-style:normal;font-variant:normal;font-weight:bold;font-stretch:normal;font-size:13.33333302px;line-height:1.25;font-family:monospace;-inkscape-font-specification:'monospace Bold';text-align:center;letter-spacing:0px;word-spacing:0px;text-anchor:middle;fill:#00aeee;fill-opacity:1;stroke:none;stroke-width:0.75"
     d="m 145.086,354.38875 q 0.20508,0.49805 0.30762,1.01562 0.10254,0.51758 0.10254,1.09376 0,1.37206 -0.73242,2.09961 -0.73731,0.72265 -2.11914,0.72265 -1.33789,0 -2.11426,-0.69824 -0.77637,-0.69824 -0.77637,-1.9043 0,-1.21582 0.72266,-1.88476 0.71777,-0.67383 2.02636,-0.67383 h 0.58106 v 3.70605 q 0.64453,-0.005 0.96192,-0.38086 0.31738,-0.37597 0.31738,-1.12304 0,-0.49317 -0.1416,-0.97169 -0.1416,-0.47851 -0.44922,-1.00097 z m -3.07617,1.21094 q -0.56641,0.01 -0.85449,0.29297 -0.29297,0.27832 -0.29297,0.82519 0,0.49317 0.30274,0.78613 0.29785,0.29297 0.8496,0.34668 z"
     inkscape:connector-curvature="0" />
  <path
     id="path8833"
     style="font-style:normal;font-variant:normal;font-weight:bold;font-stretch:normal;font-size:13.33333302px;line-height:1.25;font-family:monospace;-inkscape-font-specification:'monospace Bold';text-align:center;letter-spacing:0px;word-spacing:0px;text-anchor:middle;fill:#00aeee;fill-opacity:1;stroke:none;stroke-width:0.75"
     d="m 145.07624,348.56844 q 0.20996,0.36132 0.3125,0.77637 0.10742,0.41503 0.10742,0.89355 0,1.26465 -0.76172,1.97754 -0.76172,0.71289 -2.10938,0.71289 -1.35253,0 -2.11425,-0.71778 -0.7666,-0.71777 -0.7666,-1.98242 0,-0.43945 0.10254,-0.84472 0.10254,-0.41016 0.31738,-0.81543 h 1.3086 q -0.26856,0.3125 -0.41016,0.68847 -0.14649,0.3711 -0.14649,0.77149 0,0.69824 0.44434,1.07422 0.44433,0.37597 1.26464,0.37597 0.82032,0 1.25977,-0.37597 0.43946,-0.37598 0.43946,-1.07422 0,-0.41504 -0.13672,-0.77637 -0.1416,-0.36133 -0.42481,-0.68359 z"
     inkscape:connector-curvature="0" />
  <path
     id="path8835"
     style="font-style:normal;font-variant:normal;font-weight:bold;font-stretch:normal;font-size:13.33333302px;line-height:1.25;font-family:monospace;-inkscape-font-specification:'monospace Bold';text-align:center;letter-spacing:0px;word-spacing:0px;text-anchor:middle;fill:#00aeee;fill-opacity:1;stroke:none;stroke-width:0.75"
     d="m 141.80475,342.4991 h 3.54981 v 1.4209 h -3.33008 q -0.59082,0 -0.84473,0.1709 -0.2539,0.16601 -0.2539,0.54688 0,0.39062 0.34668,0.61035 0.3418,0.21972 0.95215,0.21972 h 3.12988 v 1.4209 h -7.59766 v -1.4209 h 2.94922 q -0.4541,-0.15137 -0.70312,-0.51758 -0.24903,-0.36621 -0.24903,-0.88378 0,-0.77637 0.51758,-1.17188 0.5127,-0.39551 1.5332,-0.39551 z"
     inkscape:connector-curvature="0" />
  <path
     id="path8837"
     style="font-style:normal;font-variant:normal;font-weight:bold;font-stretch:normal;font-size:13.33333302px;line-height:1.25;font-family:monospace;-inkscape-font-specification:'monospace Bold';text-align:center;letter-spacing:0px;word-spacing:0px;text-anchor:middle;fill:#00aeee;fill-opacity:1;stroke:none;stroke-width:0.75"
     d="m 138.33308,338.33895 h 1.55273 v -1.87012 h 1.09863 v 1.87012 h 2.5879 q 0.36621,0 0.52734,-0.17579 0.15624,-0.18066 0.15624,-0.5957 v -1.09863 h 1.09864 V 337.67 q 0,1.23047 -0.39063,1.66504 -0.3955,0.43457 -1.45996,0.43457 h -2.51953 v 1.39648 h -1.09863 v -1.39648 h -1.55273 z"
     inkscape:connector-curvature="0" />
  <path
     id="path8839"
     style="font-style:normal;font-variant:normal;font-weight:bold;font-stretch:normal;font-size:13.33333302px;line-height:1.25;font-family:monospace;-inkscape-font-specification:'monospace Bold';text-align:center;letter-spacing:0px;word-spacing:0px;text-anchor:middle;fill:#00aeee;fill-opacity:1;stroke:none;stroke-width:0.75"
     d="m 140.05671,330.84871 h 1.25 q -0.25391,0.39551 -0.38086,0.8252 -0.13184,0.4248 -0.13184,0.85449 0,0.47851 0.1416,0.72265 0.13672,0.24414 0.41016,0.24414 0.39063,0 0.63477,-1.04491 l 0.0146,-0.0537 0.0977,-0.41016 q 0.18554,-0.78125 0.60058,-1.14258 0.41016,-0.36621 1.11329,-0.36621 0.84472,0 1.26952,0.55664 0.41993,0.55176 0.41993,1.66504 0,0.49317 -0.0879,1.01074 -0.083,0.51758 -0.25391,1.04981 h -1.25 q 0.26856,-0.47364 0.41016,-0.96192 0.1416,-0.49316 0.1416,-0.95214 0,-0.50293 -0.14648,-0.76173 -0.14649,-0.25878 -0.42481,-0.25878 -0.27344,0 -0.41992,0.18555 -0.14649,0.18066 -0.3125,0.86913 l -0.0879,0.39552 q -0.18555,0.82031 -0.58106,1.19628 -0.3955,0.37598 -1.05957,0.37598 -0.79102,0 -1.23046,-0.57129 -0.43946,-0.57129 -0.43946,-1.60645 0,-0.46387 0.0781,-0.92284 0.0732,-0.46387 0.22461,-0.89844 z"
     inkscape:connector-curvature="0" />
  <path
     style="fill:none;fill-opacity:1;stroke:#ec008c;stroke-width:1.82783318;stroke-miterlimit:10;stroke-dasharray:none;stroke-opacity:1"
     d="M 140.29492 165.91992 L 140.29492 304.41992 L 168.91992 304.41992 L 168.91992 330.68945 L 159.21289 330.68945 L 159.21289 392.58008 L 174.17188 392.58008 L 174.17188 528.11914 L 159.21289 528.11914 L 159.21289 602.59375 L 177.9375 602.59375 L 177.9375 738.10352 L 159.21289 738.10352 L 159.21289 873.92773 L 239.91406 873.92773 L 239.91406 798.87305 L 225.05078 798.87305 L 225.05078 365.26367 L 239.91406 365.26367 L 239.91406 165.91992 L 140.29492 165.91992 z "
     transform="scale(0.75)"
     id="rect1797-6-5-64-3-9" />
  <path
     inkscape:connector-curvature="0"
     d="m 164.41245,137.13457 c 0,-1.56061 1.26669,-2.82705 2.82884,-2.82705 1.56314,0 2.82982,1.26644 2.82982,2.82705 0,1.56062 -1.26668,2.82609 -2.82982,2.82609 -1.56215,0 -2.82884,-1.26547 -2.82884,-2.82609"
     style="clip-rule:evenodd;fill:none;fill-rule:nonzero;stroke:#ec008c;stroke-width:0.99768871;stroke-miterlimit:10;stroke-opacity:1"
     id="path561-9-1-31-3-7-3-5-2-3-9-4-9-06-8-5-1-24-3" />
  <path
     inkscape:connector-curvature="0"
     d="m 167.24122,140.06278 v -5.9833"
     style="clip-rule:evenodd;fill:none;fill-rule:nonzero;stroke:#000000;stroke-width:0.67318708px;stroke-miterlimit:10;stroke-opacity:1"
     id="path565-7-5-9-2-0-5-92-9-6-0-3-1-2-8-9-7-7-6" />
  <path
     inkscape:connector-curvature="0"
     d="m 164.2882,137.13343 h 5.98916"
     style="clip-rule:evenodd;fill:none;fill-rule:nonzero;stroke:#000000;stroke-width:0.67318743px;stroke-miterlimit:10;stroke-opacity:1"
     id="path569-2-4-47-0-9-6-28-3-1-2-1-2-6-5-2-2-7-1" />
  <path
     inkscape:connector-curvature="0"
     style="fill:none;stroke:#ec008c;stroke-width:0.99797434;stroke-linecap:butt;stroke-linejoin:miter;stroke-miterlimit:1.5;stroke-opacity:1"
     d="M 88.075318,718.7177 H 506.60488 V 124.44008 H 88.075318 Z m 0,0"
     id="path42" />
  <path
     transform="matrix(0.000000,1.000000,-1.000000,0.000000,1066.294900,590.987320)"
     id="path2077-5"
     d="M 127.73039,636.09293 V 559.69002 H 88.064486 v 76.40291 z m 0,0"
     style="stroke-linejoin:miter;stroke:#eb008a;stroke-linecap:butt;stroke-miterlimit:10;stroke-opacity:1;stroke-width:1.05944908;fill:none"
     inkscape:connector-curvature="0" />
  <path
     transform="matrix(0.000000,1.000000,-1.000000,0.000000,1066.294900,590.987320)"
     id="path561-9-1-31-3-7-3-5-2-3-9-4-9-06-8-5-1"
     style="stroke:#ec008c;stroke-miterlimit:10;stroke-opacity:1;fill-rule:nonzero;clip-rule:evenodd;stroke-width:0.99768871;fill:none"
     d="m 110.76777,597.89033 c 0,1.56061 -1.26669,2.82705 -2.82884,2.82705 -1.56314,0 -2.82982,-1.26644 -2.82982,-2.82705 0,-1.56062 1.26668,-2.82609 2.82982,-2.82609 1.56215,0 2.82884,1.26547 2.82884,2.82609"
     inkscape:connector-curvature="0" />
  <path
     transform="matrix(0.000000,1.000000,-1.000000,0.000000,1066.294900,590.987320)"
     id="path565-7-5-9-2-0-5-92-9-6-0-3-1-2-8-9-7"
     style="stroke:#000000;stroke-miterlimit:10;stroke-opacity:1;fill-rule:nonzero;clip-rule:evenodd;stroke-width:0.67318708px;fill:none"
     d="m 107.939,594.96212 v 5.9833"
     inkscape:connector-curvature="0" />
  <path
     transform="matrix(0.000000,1.000000,-1.000000,0.000000,1066.294900,590.987320)"
     id="path569-2-4-47-0-9-6-28-3-1-2-1-2-6-5-2-2"
     style="stroke:#000000;stroke-miterlimit:10;stroke-opacity:1;fill-rule:nonzero;clip-rule:evenodd;stroke-width:0.67318743px;fill:none"
     d="m 110.89202,597.89147 h -5.98916"
     inkscape:connector-curvature="0" />
  <path
     transform="matrix(0.000000,1.000000,-1.000000,0.000000,1066.294900,590.987320)"
     id="path561-9-1-31-3-7-3-5-2-3-9-4-9-06-8-5-1-2"
     style="stroke:#ec008c;stroke-miterlimit:10;stroke-opacity:1;fill-rule:nonzero;clip-rule:evenodd;stroke-width:0.99768871;fill:none"
     d="m 110.76777,619.15893 c 0,1.56061 -1.26669,2.82705 -2.82884,2.82705 -1.56314,0 -2.82982,-1.26644 -2.82982,-2.82705 0,-1.56062 1.26668,-2.82609 2.82982,-2.82609 1.56215,0 2.82884,1.26547 2.82884,2.82609"
     inkscape:connector-curvature="0" />
  <path
     transform="matrix(0.000000,1.000000,-1.000000,0.000000,1066.294900,590.987320)"
     id="path565-7-5-9-2-0-5-92-9-6-0-3-1-2-8-9-7-2"
     style="stroke:#000000;stroke-miterlimit:10;stroke-opacity:1;fill-rule:nonzero;clip-rule:evenodd;stroke-width:0.67318708px;fill:none"
     d="m 107.939,616.23072 v 5.9833"
     inkscape:connector-curvature="0" />
  <path
     transform="matrix(0.000000,1.000000,-1.000000,0.000000,1066.294900,590.987320)"
     id="path569-2-4-47-0-9-6-28-3-1-2-1-2-6-5-2-2-6"
     style="stroke:#000000;stroke-miterlimit:10;stroke-opacity:1;fill-rule:nonzero;clip-rule:evenodd;stroke-width:0.67318743px;fill:none"
     d="m 110.89202,619.16007 h -5.98916"
     inkscape:connector-curvature="0" />
  <path
     transform="matrix(0.000000,1.000000,-1.000000,0.000000,1066.294900,590.987320)"
     id="path561-9-1-31-3-7-3-5-2-3-9-4-9-06-8-5-1-2-9"
     style="stroke:#ec008c;stroke-miterlimit:10;stroke-opacity:1;fill-rule:nonzero;clip-rule:evenodd;stroke-width:0.99768871;fill:none"
     d="m 110.76778,576.62268 c 0,-1.56061 -1.26669,-2.82705 -2.82884,-2.82705 -1.56314,0 -2.82982,1.26644 -2.82982,2.82705 0,1.56062 1.26668,2.82609 2.82982,2.82609 1.56215,0 2.82884,-1.26547 2.82884,-2.82609"
     inkscape:connector-curvature="0" />
  <path
     transform="matrix(0.000000,1.000000,-1.000000,0.000000,1066.294900,590.987320)"
     id="path565-7-5-9-2-0-5-92-9-6-0-3-1-2-8-9-7-2-0"
     style="stroke:#000000;stroke-miterlimit:10;stroke-opacity:1;fill-rule:nonzero;clip-rule:evenodd;stroke-width:0.67318708px;fill:none"
     d="m 107.93901,579.55089 v -5.9833"
     inkscape:connector-curvature="0" />
  <path
     transform="matrix(0.000000,1.000000,-1.000000,0.000000,1066.294900,590.987320)"
     id="path569-2-4-47-0-9-6-28-3-1-2-1-2-6-5-2-2-6-9"
     style="stroke:#000000;stroke-miterlimit:10;stroke-opacity:1;fill-rule:nonzero;clip-rule:evenodd;stroke-width:0.67318743px;fill:none"
     d="m 110.89203,576.62154 h -5.98916"
     inkscape:connector-curvature="0" />
  <path
     transform="matrix(0.000000,1.000000,-1.000000,0.000000,1066.294900,590.987320)"
     d="m 93.175247,626.01336 h 4.692382 v -0.39063 q 0,-0.8496 -0.53223,-1.21093 -0.537105,-0.36133 -1.821285,-0.36133 -1.274415,0 -1.806645,0.36133 -0.532222,0.36133 -0.532222,1.21093 z m -1.298828,1.44043 v -1.54297 q 0,-1.78711 0.85449,-2.57324 0.849608,-0.78613 2.783205,-0.78613 1.938473,0 2.797845,0.78613 0.854498,0.78613 0.854498,2.57324 v 1.54297 z"
     style="font-size:13.33333302px;-inkscape-font-specification:'monospace Bold';fill-opacity:1;letter-spacing:0px;word-spacing:0px;stroke:none;text-align:center;stroke-width:0.75;font-style:normal;fill:#00aeee;font-family:monospace;text-anchor:middle;font-stretch:normal;font-variant:normal;font-weight:bold;line-height:1.25"
     id="path7888"
     inkscape:connector-curvature="0" />
  <path
     transform="matrix(0.000000,1.000000,-1.000000,0.000000,1066.294900,590.987320)"
     d="m 98.897897,616.72137 q 0.20508,0.49805 0.30762,1.01562 0.10254,0.51758 0.10254,1.09375 0,1.37207 -0.73242,2.09961 -0.73731,0.72266 -2.11914,0.72266 -1.337895,0 -2.114258,-0.69825 -0.77637,-0.69824 -0.77637,-1.90429 0,-1.21582 0.722655,-1.88477 0.717773,-0.67383 2.026365,-0.67383 h 0.581055 v 3.70606 q 0.644535,-0.005 0.96192,-0.38086 0.317378,-0.37598 0.317378,-1.12305 0,-0.49316 -0.1416,-0.97167 -0.1416,-0.47852 -0.44922,-1.00098 z m -3.07617,1.21094 q -0.566408,0.01 -0.85449,0.29296 -0.292973,0.27832 -0.292973,0.8252 0,0.49316 0.302738,0.78613 0.297855,0.29297 0.849607,0.34668 z"
     style="font-size:13.33333302px;-inkscape-font-specification:'monospace Bold';fill-opacity:1;letter-spacing:0px;word-spacing:0px;stroke:none;text-align:center;stroke-width:0.75;font-style:normal;fill:#00aeee;font-family:monospace;text-anchor:middle;font-stretch:normal;font-variant:normal;font-weight:bold;line-height:1.25"
     id="path7890"
     inkscape:connector-curvature="0" />
  <path
     transform="matrix(0.000000,1.000000,-1.000000,0.000000,1066.294900,590.987320)"
     d="m 98.888132,610.90106 q 0.209962,0.36133 0.312502,0.77636 0.107423,0.41504 0.107423,0.89356 0,1.26465 -0.761723,1.97754 -0.761715,0.71289 -2.109375,0.71289 -1.352535,0 -2.114257,-0.71777 -0.766598,-0.71778 -0.766598,-1.98243 0,-0.43945 0.10254,-0.84472 0.10254,-0.41016 0.317378,-0.81543 h 1.3086 q -0.26856,0.31249 -0.41016,0.68847 -0.146483,0.3711 -0.146483,0.77149 0,0.69824 0.444338,1.07421 0.44433,0.37598 1.264642,0.37598 0.820313,0 1.259768,-0.37598 0.439455,-0.37597 0.439455,-1.07421 0,-0.41504 -0.136718,-0.77637 -0.1416,-0.36133 -0.424807,-0.68359 z"
     style="font-size:13.33333302px;-inkscape-font-specification:'monospace Bold';fill-opacity:1;letter-spacing:0px;word-spacing:0px;stroke:none;text-align:center;stroke-width:0.75;font-style:normal;fill:#00aeee;font-family:monospace;text-anchor:middle;font-stretch:normal;font-variant:normal;font-weight:bold;line-height:1.25"
     id="path7892"
     inkscape:connector-curvature="0" />
  <path
     transform="matrix(0.000000,1.000000,-1.000000,0.000000,1066.294900,590.987320)"
     d="m 91.568799,609.2116 v -1.43066 h 3.989258 l -1.860353,-1.71875 v -1.7334 l 2.041013,2.07031 3.42774,-2.18749 v 1.58202 l -2.558595,1.49903 0.46875,0.48828 h 2.089845 v 1.43066 z"
     style="font-size:13.33333302px;-inkscape-font-specification:'monospace Bold';fill-opacity:1;letter-spacing:0px;word-spacing:0px;stroke:none;text-align:center;stroke-width:0.75;font-style:normal;fill:#00aeee;font-family:monospace;text-anchor:middle;font-stretch:normal;font-variant:normal;font-weight:bold;line-height:1.25"
     id="path7894"
     inkscape:connector-curvature="0" />
  <path
     transform="matrix(0.000000,1.000000,-1.000000,0.000000,1066.294900,590.987320)"
     d="m 98.394969,601.8825 h 2.851561 v 1.42578 h -7.548826 v -1.42578 h 0.820313 q -0.473633,-0.22461 -0.71289,-0.59082 -0.239258,-0.36621 -0.239258,-0.85938 0,-0.9375 0.75195,-1.45507 0.751958,-0.51758 2.11914,-0.51758 1.38672,0 2.128913,0.52734 0.742185,0.52246 0.742185,1.49415 0,0.43944 -0.22461,0.79101 -0.229493,0.34668 -0.688478,0.61035 z m -1.967775,-1.99218 q -0.79101,0 -1.24023,0.26367 -0.44922,0.26367 -0.44922,0.72753 0,0.46387 0.44922,0.73242 0.44922,0.26856 1.24023,0.26856 0.791018,0 1.240238,-0.26856 0.44922,-0.26855 0.44922,-0.73242 0,-0.46386 -0.44922,-0.72753 -0.44922,-0.26367 -1.240238,-0.26367 z"
     style="font-size:13.33333302px;-inkscape-font-specification:'monospace Bold';fill-opacity:1;letter-spacing:0px;word-spacing:0px;stroke:none;text-align:center;stroke-width:0.75;font-style:normal;fill:#00aeee;font-family:monospace;text-anchor:middle;font-stretch:normal;font-variant:normal;font-weight:bold;line-height:1.25"
     id="path7896"
     inkscape:connector-curvature="0" />
  <path
     transform="matrix(0.000000,1.000000,-1.000000,0.000000,1066.294900,590.987320)"
     d="m 96.886179,596.13055 h -4.21875 v 1.45019 h -1.09863 v -2.88086 h 5.31738 q 0.644535,0 0.913088,-0.20019 0.268552,-0.2002 0.268552,-0.67871 v -1.14258 h 1.098638 v 1.54297 q 0,1.02051 -0.527348,1.46484 -0.52734,0.44434 -1.75293,0.44434 z"
     style="font-size:13.33333302px;-inkscape-font-specification:'monospace Bold';fill-opacity:1;letter-spacing:0px;word-spacing:0px;stroke:none;text-align:center;stroke-width:0.75;font-style:normal;fill:#00aeee;font-family:monospace;text-anchor:middle;font-stretch:normal;font-variant:normal;font-weight:bold;line-height:1.25"
     id="path7898"
     inkscape:connector-curvature="0" />
  <path
     transform="matrix(0.000000,1.000000,-1.000000,0.000000,1066.294900,590.987320)"
     d="m 96.598097,588.58172 q 0,0.80078 0.20508,1.11817 0.205072,0.31737 0.703125,0.31737 0.371092,0 0.59082,-0.21972 0.21972,-0.21972 0.21972,-0.59571 0,-0.5664 -0.4248,-0.8789 -0.42969,-0.3125 -1.196288,-0.3125 h -0.09766 z m -0.55176,-1.99219 h 3.12012 v 1.4209 h -0.61035 q 0.361327,0.25879 0.556635,0.66406 0.195315,0.40527 0.195315,0.89356 0,0.93262 -0.493163,1.45508 -0.493162,0.51757 -1.376955,0.51757 -0.95703,0 -1.411132,-0.62011 -0.458985,-0.62012 -0.458985,-1.91895 v -0.99121 h -0.239258 q -0.34668,0 -0.522457,0.2539 -0.180668,0.24903 -0.180668,0.73731 0,0.5127 0.131835,0.99609 0.126953,0.47852 0.41016,1.00098 h -1.220707 q -0.195308,-0.47363 -0.288083,-0.96191 -0.09278,-0.48829 -0.09278,-1.03516 0,-1.33301 0.541995,-1.87011 0.541988,-0.542 1.938473,-0.542 z"
     style="font-size:13.33333302px;-inkscape-font-specification:'monospace Bold';fill-opacity:1;letter-spacing:0px;word-spacing:0px;stroke:none;text-align:center;stroke-width:0.75;font-style:normal;fill:#00aeee;font-family:monospace;text-anchor:middle;font-stretch:normal;font-variant:normal;font-weight:bold;line-height:1.25"
     id="path7900"
     inkscape:connector-curvature="0" />
  <path
     transform="matrix(0.000000,1.000000,-1.000000,0.000000,1066.294900,590.987320)"
     d="m 92.144972,582.61004 h 1.552732 v -1.87012 h 1.09863 v 1.87012 h 2.587898 q 0.36621,0 0.52734,-0.17578 0.156247,-0.18067 0.156247,-0.5957 v -1.09864 h 1.098638 v 1.20117 q 0,1.23047 -0.39063,1.66505 -0.395505,0.43456 -1.459958,0.43456 h -2.519535 v 1.39649 h -1.09863 v -1.39649 h -1.552732 z"
     style="font-size:13.33333302px;-inkscape-font-specification:'monospace Bold';fill-opacity:1;letter-spacing:0px;word-spacing:0px;stroke:none;text-align:center;stroke-width:0.75;font-style:normal;fill:#00aeee;font-family:monospace;text-anchor:middle;font-stretch:normal;font-variant:normal;font-weight:bold;line-height:1.25"
     id="path7902"
     inkscape:connector-curvature="0" />
  <path
     transform="matrix(0.000000,1.000000,-1.000000,0.000000,1066.294900,590.987320)"
     d="m 92.144972,576.58953 h 1.552732 v -1.87011 h 1.09863 v 1.87011 h 2.587898 q 0.36621,0 0.52734,-0.17578 0.156247,-0.18066 0.156247,-0.5957 v -1.09863 h 1.098638 v 1.20117 q 0,1.23047 -0.39063,1.66503 -0.395505,0.43458 -1.459958,0.43458 h -2.519535 v 1.39648 h -1.09863 v -1.39648 h -1.552732 z"
     style="font-size:13.33333302px;-inkscape-font-specification:'monospace Bold';fill-opacity:1;letter-spacing:0px;word-spacing:0px;stroke:none;text-align:center;stroke-width:0.75;font-style:normal;fill:#00aeee;font-family:monospace;text-anchor:middle;font-stretch:normal;font-variant:normal;font-weight:bold;line-height:1.25"
     id="path7904"
     inkscape:connector-curvature="0" />
  <path
     transform="matrix(0.000000,1.000000,-1.000000,0.000000,1066.294900,590.987320)"
     d="m 98.897897,568.5573 q 0.20508,0.49806 0.30762,1.01563 0.10254,0.51758 0.10254,1.09375 0,1.37207 -0.73242,2.09961 -0.73731,0.72265 -2.11914,0.72265 -1.337895,0 -2.114258,-0.69824 -0.77637,-0.69824 -0.77637,-1.90429 0,-1.21582 0.722655,-1.88477 0.717773,-0.67383 2.026365,-0.67383 h 0.581055 v 3.70606 q 0.644535,-0.005 0.96192,-0.38086 0.317378,-0.37598 0.317378,-1.12305 0,-0.49316 -0.1416,-0.97168 -0.1416,-0.47851 -0.44922,-1.00098 z m -3.07617,1.21095 q -0.566408,0.01 -0.85449,0.29296 -0.292973,0.27832 -0.292973,0.8252 0,0.49316 0.302738,0.78613 0.297855,0.29297 0.849607,0.34668 z"
     style="font-size:13.33333302px;-inkscape-font-specification:'monospace Bold';fill-opacity:1;letter-spacing:0px;word-spacing:0px;stroke:none;text-align:center;stroke-width:0.75;font-style:normal;fill:#00aeee;font-family:monospace;text-anchor:middle;font-stretch:normal;font-variant:normal;font-weight:bold;line-height:1.25"
     id="path7906"
     inkscape:connector-curvature="0" />
  <path
     transform="matrix(0.000000,1.000000,-1.000000,0.000000,1066.294900,590.987320)"
     d="m 116.87645,621.68231 v -1.71875 l 3.19824,-0.86914 -3.19824,-0.86426 v -1.72852 h 7.29004 v 1.24024 h -5.83985 l 3.18849,0.77148 v 1.14746 l -3.18849,0.78125 h 5.83985 v 1.24024 z"
     style="font-size:13.33333302px;-inkscape-font-specification:'monospace Bold';fill-opacity:1;letter-spacing:0px;word-spacing:0px;stroke:none;text-align:center;stroke-width:0.75;font-style:normal;fill:#00aeee;font-family:monospace;text-anchor:middle;font-stretch:normal;font-variant:normal;font-weight:bold;line-height:1.25"
     id="path7908"
     inkscape:connector-curvature="0" />
  <path
     transform="matrix(0.000000,1.000000,-1.000000,0.000000,1066.294900,590.987320)"
     d="m 118.69774,615.00262 v -2.83204 h 4.37012 v -1.77734 h 1.09863 v 4.99024 h -1.09863 v -1.78223 h -3.27149 v 1.40137 z m -2.66113,-1.40137 v -1.43067 h 1.66992 v 1.43067 z"
     style="font-size:13.33333302px;-inkscape-font-specification:'monospace Bold';fill-opacity:1;letter-spacing:0px;word-spacing:0px;stroke:none;text-align:center;stroke-width:0.75;font-style:normal;fill:#00aeee;font-family:monospace;text-anchor:middle;font-stretch:normal;font-variant:normal;font-weight:bold;line-height:1.25"
     id="path7910"
     inkscape:connector-curvature="0" />
  <path
     transform="matrix(0.000000,1.000000,-1.000000,0.000000,1066.294900,590.987320)"
     d="m 116.56883,609.2116 v -1.43066 h 3.98926 l -1.86035,-1.71875 v -1.7334 l 2.04102,2.07031 3.42773,-2.18749 v 1.58202 l -2.5586,1.49903 0.46875,0.48828 h 2.08985 v 1.43066 z"
     style="font-size:13.33333302px;-inkscape-font-specification:'monospace Bold';fill-opacity:1;letter-spacing:0px;word-spacing:0px;stroke:none;text-align:center;stroke-width:0.75;font-style:normal;fill:#00aeee;font-family:monospace;text-anchor:middle;font-stretch:normal;font-variant:normal;font-weight:bold;line-height:1.25"
     id="path7912"
     inkscape:connector-curvature="0" />
  <path
     transform="matrix(0.000000,1.000000,-1.000000,0.000000,1066.294900,590.987320)"
     d="m 120.20653,598.42059 q -0.21484,0.23437 -0.32226,0.55176 -0.10743,0.3125 -0.10743,0.68847 0,0.45411 0.16113,0.7959 0.15625,0.33691 0.45899,0.52246 0.18555,0.11719 0.44922,0.16601 0.26367,0.0439 0.80078,0.0439 h 2.51953 v 1.43067 h -5.46875 v -1.43067 h 0.84961 q -0.46875,-0.20996 -0.72265,-0.64453 -0.2588,-0.43457 -0.2588,-1.01562 0,-0.29297 0.0733,-0.57129 0.0683,-0.28321 0.20508,-0.53711 z"
     style="font-size:13.33333302px;-inkscape-font-specification:'monospace Bold';fill-opacity:1;letter-spacing:0px;word-spacing:0px;stroke:none;text-align:center;stroke-width:0.75;font-style:normal;fill:#00aeee;font-family:monospace;text-anchor:middle;font-stretch:normal;font-variant:normal;font-weight:bold;line-height:1.25"
     id="path7914"
     inkscape:connector-curvature="0" />
  <path
     transform="matrix(0.000000,1.000000,-1.000000,0.000000,1066.294900,590.987320)"
     d="m 119.72801,595.01238 q 0,0.5127 0.4541,0.80567 0.44922,0.29296 1.25489,0.29296 0.80566,0 1.25977,-0.29296 0.44921,-0.29297 0.44921,-0.80567 0,-0.51757 -0.44921,-0.81054 -0.45411,-0.29297 -1.25977,-0.29297 -0.80567,0 -1.25489,0.29297 -0.4541,0.29297 -0.4541,0.81054 z m 1.70899,2.5293 q -1.32324,0 -2.09473,-0.68359 -0.77637,-0.68848 -0.77637,-1.84571 0,-1.16211 0.77637,-1.8457 0.77149,-0.68848 2.09473,-0.68848 1.32324,0 2.09961,0.68848 0.77148,0.68359 0.77148,1.8457 0,1.15723 -0.77148,1.84571 -0.77637,0.68359 -2.09961,0.68359 z"
     style="font-size:13.33333302px;-inkscape-font-specification:'monospace Bold';fill-opacity:1;letter-spacing:0px;word-spacing:0px;stroke:none;text-align:center;stroke-width:0.75;font-style:normal;fill:#00aeee;font-family:monospace;text-anchor:middle;font-stretch:normal;font-variant:normal;font-weight:bold;line-height:1.25"
     id="path7916"
     inkscape:connector-curvature="0" />
  <path
     transform="matrix(0.000000,1.000000,-1.000000,0.000000,1066.294900,590.987320)"
     d="m 118.21922,588.39129 h 0.47852 v -1.67969 h 1.09863 v 1.67969 h 4.37012 v 1.43067 h -4.37012 v 1.32812 h -1.09863 v -1.32812 h -0.38086 q -0.98633,0 -1.36718,-0.41016 -0.38087,-0.41016 -0.38087,-1.52344 v -1.17676 h 1.09864 v 1.11817 q 0,0.32227 0.11719,0.43945 0.11718,0.1123 0.43456,0.12207 z"
     style="font-size:13.33333302px;-inkscape-font-specification:'monospace Bold';fill-opacity:1;letter-spacing:0px;word-spacing:0px;stroke:none;text-align:center;stroke-width:0.75;font-style:normal;fill:#00aeee;font-family:monospace;text-anchor:middle;font-stretch:normal;font-variant:normal;font-weight:bold;line-height:1.25"
     id="path7918"
     inkscape:connector-curvature="0" />
  <path
     transform="matrix(0.000000,1.000000,-1.000000,0.000000,1066.294900,590.987320)"
     d="m 119.72801,582.97137 q 0,0.5127 0.4541,0.80566 0.44922,0.29297 1.25489,0.29297 0.80566,0 1.25977,-0.29297 0.44921,-0.29296 0.44921,-0.80566 0,-0.51758 -0.44921,-0.81055 -0.45411,-0.29297 -1.25977,-0.29297 -0.80567,0 -1.25489,0.29297 -0.4541,0.29297 -0.4541,0.81055 z m 1.70899,2.5293 q -1.32324,0 -2.09473,-0.6836 -0.77637,-0.68848 -0.77637,-1.8457 0,-1.16211 0.77637,-1.8457 0.77149,-0.68848 2.09473,-0.68848 1.32324,0 2.09961,0.68848 0.77148,0.68359 0.77148,1.8457 0,1.15722 -0.77148,1.8457 -0.77637,0.6836 -2.09961,0.6836 z"
     style="font-size:13.33333302px;-inkscape-font-specification:'monospace Bold';fill-opacity:1;letter-spacing:0px;word-spacing:0px;stroke:none;text-align:center;stroke-width:0.75;font-style:normal;fill:#00aeee;font-family:monospace;text-anchor:middle;font-stretch:normal;font-variant:normal;font-weight:bold;line-height:1.25"
     id="path7920"
     inkscape:connector-curvature="0" />
  <path
     transform="matrix(0.000000,1.000000,-1.000000,0.000000,1066.294900,590.987320)"
     d="m 120.61669,574.72918 h 3.5498 v 1.4209 h -3.33008 q -0.5957,0 -0.84961,0.1709 -0.25879,0.16601 -0.25879,0.54687 0,0.38575 0.34668,0.61035 0.34668,0.21973 0.96191,0.21973 h 3.12989 v 1.4209 h -5.46875 v -1.4209 h 0.82031 q -0.4541,-0.15137 -0.70313,-0.51758 -0.24902,-0.36621 -0.24902,-0.88379 0,-0.77636 0.51758,-1.17187 0.5127,-0.39551 1.53321,-0.39551 z"
     style="font-size:13.33333302px;-inkscape-font-specification:'monospace Bold';fill-opacity:1;letter-spacing:0px;word-spacing:0px;stroke:none;text-align:center;stroke-width:0.75;font-style:normal;fill:#00aeee;font-family:monospace;text-anchor:middle;font-stretch:normal;font-variant:normal;font-weight:bold;line-height:1.25"
     id="path7922"
     inkscape:connector-curvature="0" />
  <path
     transform="matrix(1.000000,0.000000,0.000000,1.000000,16.048340,-0.000008)"
     id="path561-9-1-31-3-7-3-5-2-3-9-4-9-06-8-5-1-24-1-6"
     style="stroke:#ec008c;stroke-miterlimit:10;stroke-opacity:1;fill-rule:nonzero;clip-rule:evenodd;stroke-width:0.99768871;fill:none"
     d="m 266.63861,698.88428 c 0,1.56061 -1.26669,2.82705 -2.82884,2.82705 -1.56314,0 -2.82982,-1.26644 -2.82982,-2.82705 0,-1.56062 1.26668,-2.82609 2.82982,-2.82609 1.56215,0 2.82884,1.26547 2.82884,2.82609"
     inkscape:connector-curvature="0" />
  <path
     transform="matrix(1.000000,0.000000,0.000000,1.000000,16.048340,-0.000008)"
     id="path565-7-5-9-2-0-5-92-9-6-0-3-1-2-8-9-7-7-4-0-1"
     style="stroke:#000000;stroke-miterlimit:10;stroke-opacity:1;fill-rule:nonzero;clip-rule:evenodd;stroke-width:0.67318708px;fill:none"
     d="m 263.80984,695.89311 v 5.9833"
     inkscape:connector-curvature="0" />
  <path
     transform="matrix(1.000000,0.000000,0.000000,1.000000,16.048340,-0.000008)"
     id="path569-2-4-47-0-9-6-28-3-1-2-1-2-6-5-2-2-7-6-1"
     style="stroke:#000000;stroke-miterlimit:10;stroke-opacity:1;fill-rule:nonzero;clip-rule:evenodd;stroke-width:0.67318743px;fill:none"
     d="M 266.76286,698.88476 H 260.7737"
     inkscape:connector-curvature="0" />
  <path
     transform="matrix(1.000000,0.000000,0.000000,1.000000,16.048340,-0.000008)"
     id="path561-9-1-31-3-7-3-5-2-3-9-4-9-06-8-5-1-1-1-5"
     style="stroke:#ec008c;stroke-miterlimit:10;stroke-opacity:1;fill-rule:nonzero;clip-rule:evenodd;stroke-width:0.99768871;fill:none"
     d="m 390.11613,698.88428 c 0,1.56061 -1.26669,2.82705 -2.82884,2.82705 -1.56314,0 -2.82982,-1.26644 -2.82982,-2.82705 0,-1.56062 1.26668,-2.82609 2.82982,-2.82609 1.56215,0 2.82884,1.26547 2.82884,2.82609"
     inkscape:connector-curvature="0" />
  <path
     transform="matrix(1.000000,0.000000,0.000000,1.000000,16.048340,-0.000008)"
     id="path565-7-5-9-2-0-5-92-9-6-0-3-1-2-8-9-7-2-09-5-9"
     style="stroke:#000000;stroke-miterlimit:10;stroke-opacity:1;fill-rule:nonzero;clip-rule:evenodd;stroke-width:0.67318708px;fill:none"
     d="m 387.28736,695.89311 v 5.9833"
     inkscape:connector-curvature="0" />
  <path
     transform="matrix(1.000000,0.000000,0.000000,1.000000,16.048340,-0.000008)"
     id="path569-2-4-47-0-9-6-28-3-1-2-1-2-6-5-2-2-8-9-8"
     style="stroke:#000000;stroke-miterlimit:10;stroke-opacity:1;fill-rule:nonzero;clip-rule:evenodd;stroke-width:0.67318743px;fill:none"
     d="m 390.24038,698.88476 h -5.98916"
     inkscape:connector-curvature="0" />
  <path
     transform="matrix(1.000000,0.000000,0.000000,1.000000,16.048340,-0.000008)"
     id="path2077-8-0-8-5-4-4"
     d="m 317.20459,707.22814 h 16.68673 V 690.5414 h -16.68673 z m 0,0"
     style="stroke-linejoin:miter;stroke:#eb008a;stroke-linecap:butt;stroke-miterlimit:10;stroke-opacity:1;stroke-width:0.32113519;fill:none"
     inkscape:connector-curvature="0" />
  <path
     transform="matrix(1.000000,0.000000,0.000000,1.000000,16.048340,-0.000008)"
     inkscape:connector-curvature="0"
     style="stroke-linejoin:miter;stroke:#eb008a;stroke-linecap:butt;stroke-miterlimit:10;stroke-opacity:1;stroke-width:0.32113519;fill:none"
     d="m 317.20459,707.22815 h 16.68673 v -16.68674 h -16.68673 z m 0,0"
     id="path2077-8-0-8-0-3-9-8" />
  <path
     inkscape:connector-curvature="0"
     d="m 311.49767,685.17042 q 0.21484,0.0439 0.37109,0.20508 0.16114,0.15625 0.39063,0.61523 l 1.31836,2.62208 h -1.58204 l -0.8789,-1.84083 q -0.0391,-0.0781 -0.10254,-0.21484 -0.38574,-0.8252 -0.9082,-0.8252 h -0.45899 v 2.88087 h -1.44043 v -7.29004 h 2.08008 q 1.40625,0 2.0166,0.49804 0.61524,0.49805 0.61524,1.6211 0,0.75195 -0.36621,1.19629 -0.36622,0.44433 -1.05469,0.53222 z m -1.85059,-2.63672 v 1.98731 h 0.67871 q 0.59082,0 0.84473,-0.22949 0.25879,-0.23438 0.25879,-0.76661 0,-0.53222 -0.25391,-0.76171 -0.25391,-0.2295 -0.84961,-0.2295 z"
     style="font-size:13.33333302px;-inkscape-font-specification:'monospace Bold';fill-opacity:1;letter-spacing:0px;word-spacing:0px;stroke:none;text-align:center;stroke-width:0.75;font-style:normal;fill:#00aeee;font-family:monospace;text-anchor:middle;font-stretch:normal;font-variant:normal;font-weight:bold;line-height:1.25"
     id="path7855-89-1-4"
     transform="matrix(1.000000,0.000000,0.000000,1.000000,16.048340,-0.000008)" />
  <path
     inkscape:connector-curvature="0"
     d="m 316.99571,686.04445 q -0.80078,0 -1.11816,0.20508 -0.31738,0.20507 -0.31738,0.70312 0,0.37109 0.21973,0.59082 0.21973,0.21972 0.5957,0.21972 0.56641,0 0.8789,-0.4248 0.3125,-0.42969 0.3125,-1.19629 v -0.0976 z m 1.99219,-0.55176 v 3.12012 h -1.4209 v -0.61035 q -0.25878,0.36132 -0.66406,0.55663 -0.40527,0.19532 -0.89355,0.19532 -0.93262,0 -1.45508,-0.49317 -0.51758,-0.49316 -0.51758,-1.37695 0,-0.95703 0.62012,-1.41113 0.62011,-0.45899 1.91895,-0.45899 h 0.9912 v -0.23926 q 0,-0.34668 -0.2539,-0.52245 -0.24902,-0.18067 -0.7373,-0.18067 -0.5127,0 -0.9961,0.13183 -0.47852,0.12696 -1.00097,0.41016 v -1.2207 q 0.47363,-0.19531 0.96191,-0.28809 0.48828,-0.0928 1.03516,-0.0928 1.333,0 1.87011,0.54199 0.54199,0.54199 0.54199,1.93848 z"
     style="font-size:13.33333302px;-inkscape-font-specification:'monospace Bold';fill-opacity:1;letter-spacing:0px;word-spacing:0px;stroke:none;text-align:center;stroke-width:0.75;font-style:normal;fill:#00aeee;font-family:monospace;text-anchor:middle;font-stretch:normal;font-variant:normal;font-weight:bold;line-height:1.25"
     id="path7857-2-5-4"
     transform="matrix(1.000000,0.000000,0.000000,1.000000,16.048340,-0.000008)" />
  <path
     inkscape:connector-curvature="0"
     d="m 324.82775,685.063 v 3.54981 h -1.4209 v -3.33009 q 0,-0.59082 -0.1709,-0.84472 -0.16602,-0.25391 -0.54687,-0.25391 -0.39063,0 -0.61035,0.34668 -0.21973,0.3418 -0.21973,0.95215 v 3.12989 h -1.4209 v -7.59766 h 1.4209 v 2.94922 q 0.15136,-0.45411 0.51757,-0.70313 0.36621,-0.24902 0.8838,-0.24902 0.77636,0 1.17187,0.51757 0.39551,0.5127 0.39551,1.53321 z"
     style="font-size:13.33333302px;-inkscape-font-specification:'monospace Bold';fill-opacity:1;letter-spacing:0px;word-spacing:0px;stroke:none;text-align:center;stroke-width:0.75;font-style:normal;fill:#00aeee;font-family:monospace;text-anchor:middle;font-stretch:normal;font-variant:normal;font-weight:bold;line-height:1.25"
     id="path7859-6-9-7"
     transform="matrix(1.000000,0.000000,0.000000,1.000000,16.048340,-0.000008)" />
  <path
     inkscape:connector-curvature="0"
     d="m 328.9879,683.69093 q 0.16114,-0.34668 0.41016,-0.5127 0.24902,-0.16601 0.61035,-0.16601 0.70801,0 0.97657,0.48828 0.27343,0.48828 0.27343,2.03125 v 3.08106 h -1.17187 v -3.51075 q 0,-0.61035 -0.0928,-0.81543 -0.0928,-0.20508 -0.33691,-0.20508 -0.24414,0 -0.3418,0.20997 -0.0977,0.20996 -0.0977,0.81054 v 3.51075 h -1.15722 v -3.51075 q 0,-0.60058 -0.0977,-0.81054 -0.0977,-0.20997 -0.34179,-0.20997 -0.24414,0 -0.33692,0.20508 -0.0928,0.20508 -0.0928,0.81543 v 3.51075 h -1.17188 v -5.46876 h 1.04004 v 0.56641 q 0.12207,-0.32227 0.39062,-0.50781 0.26856,-0.19043 0.60059,-0.19043 0.33203,0 0.60547,0.2002 0.27344,0.1953 0.33203,0.47851 z"
     style="font-size:13.33333302px;-inkscape-font-specification:'monospace Bold';fill-opacity:1;letter-spacing:0px;word-spacing:0px;stroke:none;text-align:center;stroke-width:0.75;font-style:normal;fill:#00aeee;font-family:monospace;text-anchor:middle;font-stretch:normal;font-variant:normal;font-weight:bold;line-height:1.25"
     id="path7861-6-7-6"
     transform="matrix(1.000000,0.000000,0.000000,1.000000,16.048340,-0.000008)" />
  <path
     transform="matrix(1.000000,0.000000,0.000000,1.000000,16.048340,-0.000008)"
     inkscape:connector-curvature="0"
     d="m 337.02013,688.34425 q -0.49804,0.20508 -1.01563,0.30762 -0.51757,0.10254 -1.09375,0.10254 -1.37207,0 -2.09961,-0.73242 -0.72265,-0.73731 -0.72265,-2.11914 0,-1.3379 0.69824,-2.11426 0.69825,-0.77637 1.9043,-0.77637 1.21582,0 1.88476,0.72265 0.67383,0.71778 0.67383,2.02637 v 0.58105 h -3.70605 q 0.005,0.64454 0.38086,0.96192 0.37598,0.31738 1.12304,0.31738 0.49316,0 0.97168,-0.1416 0.47852,-0.1416 1.00098,-0.44922 z m -1.21093,-3.07617 q -0.01,-0.56641 -0.29298,-0.85449 -0.27831,-0.29298 -0.82519,-0.29298 -0.49317,0 -0.78614,0.30274 -0.29296,0.29786 -0.34668,0.84961 z"
     style="font-size:13.33333302px;-inkscape-font-specification:'monospace Bold';fill-opacity:1;letter-spacing:0px;word-spacing:0px;stroke:none;text-align:center;stroke-width:0.75;font-style:normal;fill:#00aeee;font-family:monospace;text-anchor:middle;font-stretch:normal;font-variant:normal;font-weight:bold;line-height:1.25"
     id="path7863-4-7-3" />
  <path
     transform="matrix(1.000000,0.000000,0.000000,1.000000,16.048340,-0.000008)"
     inkscape:connector-curvature="0"
     d="m 342.88927,685.063 v 3.54981 h -1.4209 v -3.33009 q 0,-0.5957 -0.17089,-0.8496 -0.16602,-0.25879 -0.54688,-0.25879 -0.38574,0 -0.61035,0.34668 -0.21973,0.34668 -0.21973,0.96191 v 3.12989 h -1.42089 v -5.46876 h 1.42089 v 0.82032 q 0.15137,-0.45411 0.51758,-0.70313 0.36621,-0.24902 0.88379,-0.24902 0.77636,0 1.17187,0.51757 0.39551,0.5127 0.39551,1.53321 z"
     style="font-size:13.33333302px;-inkscape-font-specification:'monospace Bold';fill-opacity:1;letter-spacing:0px;word-spacing:0px;stroke:none;text-align:center;stroke-width:0.75;font-style:normal;fill:#00aeee;font-family:monospace;text-anchor:middle;font-stretch:normal;font-variant:normal;font-weight:bold;line-height:1.25"
     id="path7865-9-6-1" />
  <path
     transform="matrix(1.000000,0.000000,0.000000,1.000000,16.048340,-0.000008)"
     id="path2077-5-6-5-7-7"
     d="M 251.11517,718.7177 H 399.98074 V 679.05182 H 251.11517 Z m 0,0"
     style="stroke-linejoin:miter;stroke:#eb008a;stroke-linecap:butt;stroke-miterlimit:10;stroke-opacity:1;stroke-width:1.47884321;fill:none"
     inkscape:connector-curvature="0" />
  <path
     inkscape:connector-curvature="0"
     transform="matrix(0.750000,0.000000,0.000000,0.750000,86.215933,-36.905005)"
     id="path8239"
     style="font-size:13.33333302px;-inkscape-font-specification:'monospace Bold';fill-opacity:1;font-weight:bold;letter-spacing:0px;line-height:1.25;word-spacing:0px;stroke:none;font-stretch:normal;font-variant:normal;font-family:monospace;font-style:normal;fill:#00aeee"
     d="m 297.06966,993.36979 h 2.29167 l 1.15885,4.26432 1.15235,-4.26432 h 2.30468 v 9.72001 h -1.65364 v -7.78641 l -1.02865,4.2513 h -1.52995 l -1.04166,-4.2513 v 7.78641 h -1.65365 z" />
  <path
     inkscape:connector-curvature="0"
     transform="matrix(0.750000,0.000000,0.000000,0.750000,86.215933,-36.905005)"
     id="path8241"
     style="font-size:13.33333302px;-inkscape-font-specification:'monospace Bold';fill-opacity:1;font-weight:bold;letter-spacing:0px;line-height:1.25;word-spacing:0px;stroke:none;font-stretch:normal;font-variant:normal;font-family:monospace;font-style:normal;fill:#00aeee"
     d="m 305.97591,995.79818 h 3.77604 v 5.82682 h 2.36979 v 1.4648 h -6.65364 v -1.4648 h 2.3763 v -4.36198 h -1.86849 z M 307.8444,992.25 h 1.90755 v 2.22656 h -1.90755 z" />
  <path
     inkscape:connector-curvature="0"
     transform="matrix(0.750000,0.000000,0.000000,0.750000,86.215933,-36.905005)"
     id="path8243"
     style="font-size:13.33333302px;-inkscape-font-specification:'monospace Bold';fill-opacity:1;font-weight:bold;letter-spacing:0px;line-height:1.25;word-spacing:0px;stroke:none;font-stretch:normal;font-variant:normal;font-family:monospace;font-style:normal;fill:#00aeee"
     d="m 313.69727,992.95964 h 1.90755 v 5.31901 l 2.29166,-2.48047 h 2.3112 l -2.76041,2.72135 2.91666,4.57027 h -2.10937 l -1.9987,-3.41141 -0.65104,0.62501 v 2.7864 h -1.90755 z" />
  <path
     inkscape:connector-curvature="0"
     transform="matrix(0.750000,0.000000,0.000000,0.750000,86.215933,-36.905005)"
     id="path8245"
     style="font-size:13.33333302px;-inkscape-font-specification:'monospace Bold';fill-opacity:1;font-weight:bold;letter-spacing:0px;line-height:1.25;word-spacing:0px;stroke:none;font-stretch:normal;font-variant:normal;font-family:monospace;font-style:normal;fill:#00aeee"
     d="m 328.08529,997.8099 q -0.3125,-0.28646 -0.73568,-0.42969 -0.41667,-0.14323 -0.91797,-0.14323 -0.60547,0 -1.0612,0.21484 -0.44922,0.20834 -0.69661,0.61198 -0.15625,0.2474 -0.22136,0.59896 -0.0586,0.35156 -0.0586,1.06771 v 3.35933 h -1.90755 v -7.29162 h 1.90755 v 1.13281 q 0.27995,-0.625 0.85938,-0.96354 0.57942,-0.34505 1.35416,-0.34505 0.39063,0 0.76172,0.0977 0.3776,0.0911 0.71615,0.27344 z" />
  <path
     inkscape:connector-curvature="0"
     transform="matrix(0.750000,0.000000,0.000000,0.750000,86.215933,-36.905005)"
     id="path8247"
     style="font-size:13.33333302px;-inkscape-font-specification:'monospace Bold';fill-opacity:1;font-weight:bold;letter-spacing:0px;line-height:1.25;word-spacing:0px;stroke:none;font-stretch:normal;font-variant:normal;font-family:monospace;font-style:normal;fill:#00aeee"
     d="m 332.62956,997.17187 q -0.6836,0 -1.07422,0.60547 -0.39063,0.59896 -0.39063,1.67318 0,1.07418 0.39063,1.67968 0.39062,0.599 1.07422,0.599 0.6901,0 1.08073,-0.599 0.39062,-0.6055 0.39062,-1.67968 0,-1.07422 -0.39062,-1.67318 -0.39063,-0.60547 -1.08073,-0.60547 z m -3.3724,2.27865 q 0,-1.76432 0.91146,-2.79297 0.91797,-1.03515 2.46094,-1.03515 1.54948,0 2.46093,1.03515 0.91797,1.02865 0.91797,2.79297 0,1.76428 -0.91797,2.79948 -0.91145,1.0286 -2.46093,1.0286 -1.54297,0 -2.46094,-1.0286 -0.91146,-1.0352 -0.91146,-2.79948 z" />
  <path
     inkscape:connector-curvature="0"
     transform="matrix(0.750000,0.000000,0.000000,0.750000,86.215933,-36.905005)"
     id="path8249"
     style="font-size:13.33333302px;-inkscape-font-specification:'monospace Bold';fill-opacity:1;font-weight:bold;letter-spacing:0px;line-height:1.25;word-spacing:0px;stroke:none;font-stretch:normal;font-variant:normal;font-family:monospace;font-style:normal;fill:#00aeee"
     d="m 341.45768,995.16016 v 0.63802 h 2.23959 v 1.46484 h -2.23959 v 5.82678 h -1.90755 v -5.82678 h -1.77083 v -1.46484 h 1.77083 v -0.50782 q 0,-1.3151 0.54688,-1.82291 0.54687,-0.50781 2.03125,-0.50781 h 1.56901 v 1.46484 h -1.49089 q -0.42969,0 -0.58594,0.15625 -0.14974,0.15625 -0.16276,0.57943 z" />
  <path
     inkscape:connector-curvature="0"
     transform="matrix(0.750000,0.000000,0.000000,0.750000,86.215933,-36.905005)"
     id="path8251"
     style="font-size:13.33333302px;-inkscape-font-specification:'monospace Bold';fill-opacity:1;font-weight:bold;letter-spacing:0px;line-height:1.25;word-spacing:0px;stroke:none;font-stretch:normal;font-variant:normal;font-family:monospace;font-style:normal;fill:#00aeee"
     d="m 348.68424,997.17187 q -0.68359,0 -1.07421,0.60547 -0.39063,0.59896 -0.39063,1.67318 0,1.07418 0.39063,1.67968 0.39062,0.599 1.07421,0.599 0.69011,0 1.08073,-0.599 0.39063,-0.6055 0.39063,-1.67968 0,-1.07422 -0.39063,-1.67318 -0.39062,-0.60547 -1.08073,-0.60547 z m -3.37239,2.27865 q 0,-1.76432 0.91146,-2.79297 0.91797,-1.03515 2.46093,-1.03515 1.54948,0 2.46094,1.03515 0.91797,1.02865 0.91797,2.79297 0,1.76428 -0.91797,2.79948 -0.91146,1.0286 -2.46094,1.0286 -1.54296,0 -2.46093,-1.0286 -0.91146,-1.0352 -0.91146,-2.79948 z" />
  <path
     inkscape:connector-curvature="0"
     transform="matrix(0.750000,0.000000,0.000000,0.750000,86.215933,-36.905005)"
     id="path8253"
     style="font-size:13.33333302px;-inkscape-font-specification:'monospace Bold';fill-opacity:1;font-weight:bold;letter-spacing:0px;line-height:1.25;word-spacing:0px;stroke:none;font-stretch:normal;font-variant:normal;font-family:monospace;font-style:normal;fill:#00aeee"
     d="m 359.67383,998.35677 v 4.73303 h -1.89453 v -4.44006 q 0,-0.79427 -0.22787,-1.13281 -0.22135,-0.34506 -0.72916,-0.34506 -0.51433,0 -0.81381,0.46224 -0.29297,0.46224 -0.29297,1.28256 v 4.17313 h -1.89453 v -7.29162 h 1.89453 v 1.09375 q 0.20183,-0.60547 0.69011,-0.9375 0.48828,-0.33203 1.17838,-0.33203 1.03516,0 1.5625,0.6901 0.52735,0.68359 0.52735,2.04427 z" />
  <path
     inkscape:connector-curvature="0"
     transform="matrix(0.750000,0.000000,0.000000,0.750000,86.215933,-36.905005)"
     id="path8255"
     style="font-size:13.33333302px;-inkscape-font-specification:'monospace Bold';fill-opacity:1;font-weight:bold;letter-spacing:0px;line-height:1.25;word-spacing:0px;stroke:none;font-stretch:normal;font-variant:normal;font-family:monospace;font-style:normal;fill:#00aeee"
     d="m 370.2207,1003.0898 v -9.72001 h 1.92058 v 8.02731 h 4.10807 v 1.6927 z" />
  <path
     inkscape:connector-curvature="0"
     transform="matrix(0.750000,0.000000,0.000000,0.750000,86.215933,-36.905005)"
     id="path8257"
     style="font-size:13.33333302px;-inkscape-font-specification:'monospace Bold';fill-opacity:1;font-weight:bold;letter-spacing:0px;line-height:1.25;word-spacing:0px;stroke:none;font-stretch:normal;font-variant:normal;font-family:monospace;font-style:normal;fill:#00aeee"
     d="m 380.35742,998.74089 h -1.02864 v -1.69271 h 1.02864 q 0.71615,0 1.10677,-0.27995 0.39714,-0.28646 0.39714,-0.80078 0,-0.54037 -0.39714,-0.83985 -0.39062,-0.30599 -1.10677,-0.30599 -0.54687,0 -1.17187,0.13672 -0.625,0.13672 -1.29558,0.39714 v -1.74479 q 0.67058,-0.20183 1.32162,-0.30599 0.65104,-0.11068 1.25,-0.11068 1.53646,0 2.39583,0.67057 0.85938,0.67058 0.85938,1.84896 0,0.86589 -0.49479,1.41927 -0.4948,0.54688 -1.41277,0.71615 1.04167,0.18229 1.58855,0.83333 0.54687,0.64453 0.54687,1.69921 0,1.4128 -0.90495,2.155 -0.90494,0.7421 -2.6302,0.7421 -0.73568,0 -1.45183,-0.1237 -0.70963,-0.1237 -1.36067,-0.358 v -1.7839 q 0.61197,0.306 1.32161,0.4688 0.70964,0.1562 1.49089,0.1562 0.78125,0 1.23697,-0.3581 0.45573,-0.3645 0.45573,-0.9765 0,-0.74871 -0.45573,-1.15236 -0.45572,-0.41015 -1.28906,-0.41015 z" />
  <path
     style="stroke:#ec008c;stroke-dasharray:none;stroke-opacity:1;fill-opacity:1;stroke-miterlimit:10;stroke-width:1.82783318;fill:none"
     d="M 258.81445 165.91992 L 258.81445 365.26367 L 273.67773 365.26367 L 273.67773 798.87305 L 258.81445 798.87305 L 258.81445 873.92773 L 339.51562 873.92773 L 339.51562 737.99023 L 321.0293 737.99023 L 321.0293 602.70898 L 339.51562 602.70898 L 339.51562 528.00977 L 324.78906 528.00977 L 324.78906 392.68945 L 339.51562 392.68945 L 339.51562 330.68945 L 329.80859 330.68945 L 329.80859 304.41992 L 358.43359 304.41992 L 387.05859 304.41992 L 387.05859 330.68945 L 377.35156 330.68945 L 377.35156 392.68945 L 392.07812 392.68945 L 392.07812 528.00977 L 377.35156 528.00977 L 377.35156 602.70898 L 395.83789 602.70898 L 395.83789 737.99023 L 377.35156 737.99023 L 377.35156 873.92773 L 458.05273 873.92773 L 458.05273 798.87305 L 443.18945 798.87305 L 443.18945 365.26367 L 458.05273 365.26367 L 458.05273 165.91992 L 358.43359 165.91992 L 258.81445 165.91992 z "
     transform="scale(0.75)"
     id="rect1797-6-5-64-3-9-8" />
  <path
     inkscape:connector-curvature="0"
     d="m -232.35851,23.754284 c 0,-1.56061 1.26669,-2.82705 2.82884,-2.82705 1.56314,0 2.82982,1.26644 2.82982,2.82705 0,1.56062 -1.26668,2.82609 -2.82982,2.82609 -1.56215,0 -2.82884,-1.26547 -2.82884,-2.82609"
     style="stroke:#ec008c;stroke-miterlimit:10;stroke-opacity:1;fill-rule:nonzero;clip-rule:evenodd;stroke-width:0.99768871;fill:none"
     id="path561-9-1-31-3-7-3-5-2-3-9-4-9-06-8-5-1-2-4-626-4"
     transform="matrix(1.000000,0.000000,0.000000,1.000000,436.169890,113.504960)" />
  <path
     inkscape:connector-curvature="0"
     d="m -229.52974,26.682494 v -5.9833"
     style="stroke:#000000;stroke-miterlimit:10;stroke-opacity:1;fill-rule:nonzero;clip-rule:evenodd;stroke-width:0.67318708px;fill:none"
     id="path565-7-5-9-2-0-5-92-9-6-0-3-1-2-8-9-7-5-3-1-5"
     transform="matrix(1.000000,0.000000,0.000000,1.000000,436.169890,113.504960)" />
  <path
     inkscape:connector-curvature="0"
     d="m -232.48276,23.753144 h 5.98916"
     style="stroke:#000000;stroke-miterlimit:10;stroke-opacity:1;fill-rule:nonzero;clip-rule:evenodd;stroke-width:0.67318743px;fill:none"
     id="path569-2-4-47-0-9-6-28-3-1-2-1-2-6-5-2-2-4-5-8-0"
     transform="matrix(1.000000,0.000000,0.000000,1.000000,436.169890,113.504960)" />
  <path
     id="path561-9-1-31-3-7-3-5-2-3-9-4-9-06-8-5-1-24-5"
     style="stroke:#ec008c;stroke-miterlimit:10;stroke-opacity:1;fill-rule:nonzero;clip-rule:evenodd;stroke-width:0.99768871;fill:none"
     d="m -226.57697,505.48122 c 0,1.56061 -1.26669,2.82705 -2.82884,2.82705 -1.56314,0 -2.82982,-1.26644 -2.82982,-2.82705 0,-1.56062 1.26668,-2.82609 2.82982,-2.82609 1.56215,0 2.82884,1.26547 2.82884,2.82609"
     inkscape:connector-curvature="0"
     transform="matrix(1.000000,0.000000,0.000000,1.000000,436.169890,113.504960)" />
  <path
     id="path565-7-5-9-2-0-5-92-9-6-0-3-1-2-8-9-7-7-4-9"
     style="stroke:#000000;stroke-miterlimit:10;stroke-opacity:1;fill-rule:nonzero;clip-rule:evenodd;stroke-width:0.67318708px;fill:none"
     d="m -229.4063,502.49005 v 5.9833"
     inkscape:connector-curvature="0"
     transform="matrix(1.000000,0.000000,0.000000,1.000000,436.169890,113.504960)" />
  <path
     id="path569-2-4-47-0-9-6-28-3-1-2-1-2-6-5-2-2-7-62"
     style="stroke:#000000;stroke-miterlimit:10;stroke-opacity:1;fill-rule:nonzero;clip-rule:evenodd;stroke-width:0.67318743px;fill:none"
     d="m -226.41172,505.4817 h -5.98916"
     inkscape:connector-curvature="0"
     transform="matrix(1.000000,0.000000,0.000000,1.000000,436.169890,113.504960)" />
  <path
     inkscape:connector-curvature="0"
     d="m -108.15398,23.62939 c 0,-1.56061 1.26669,-2.82705 2.82884,-2.82705 1.56314,0 2.82982,1.26644 2.82982,2.82705 0,1.56062 -1.26668,2.82609 -2.82982,2.82609 -1.56215,0 -2.82884,-1.26547 -2.82884,-2.82609"
     style="stroke:#ec008c;stroke-miterlimit:10;stroke-opacity:1;fill-rule:nonzero;clip-rule:evenodd;stroke-width:0.99768871;fill:none"
     id="path561-9-1-31-3-7-3-5-2-3-9-4-9-06-8-5-1-24-3-2"
     transform="matrix(1.000000,0.000000,0.000000,1.000000,436.169890,113.504960)" />
  <path
     inkscape:connector-curvature="0"
     d="M -105.32521,26.5576 V 20.5743"
     style="stroke:#000000;stroke-miterlimit:10;stroke-opacity:1;fill-rule:nonzero;clip-rule:evenodd;stroke-width:0.67318708px;fill:none"
     id="path565-7-5-9-2-0-5-92-9-6-0-3-1-2-8-9-7-7-6-5"
     transform="matrix(1.000000,0.000000,0.000000,1.000000,436.169890,113.504960)" />
  <path
     inkscape:connector-curvature="0"
     d="m -108.27823,23.62825 h 5.98916"
     style="stroke:#000000;stroke-miterlimit:10;stroke-opacity:1;fill-rule:nonzero;clip-rule:evenodd;stroke-width:0.67318743px;fill:none"
     id="path569-2-4-47-0-9-6-28-3-1-2-1-2-6-5-2-2-7-1-8"
     transform="matrix(1.000000,0.000000,0.000000,1.000000,436.169890,113.504960)" />
  <path
     id="path561-9-1-31-3-7-3-5-2-3-9-4-9-06-8-5-1-24-1-7-6"
     style="stroke:#ec008c;stroke-miterlimit:10;stroke-opacity:1;fill-rule:nonzero;clip-rule:evenodd;stroke-width:0.99768871;fill:none"
     d="m -102.53626,505.48121 c 0,1.56062 -1.26669,2.82705 -2.82884,2.82705 -1.56314,0 -2.82982,-1.26643 -2.82982,-2.82705 0,-1.56061 1.26668,-2.82609 2.82982,-2.82609 1.56215,0 2.82884,1.26548 2.82884,2.82609"
     inkscape:connector-curvature="0"
     transform="matrix(1.000000,0.000000,0.000000,1.000000,436.169890,113.504960)" />
  <path
     id="path565-7-5-9-2-0-5-92-9-6-0-3-1-2-8-9-7-7-4-4-2"
     style="stroke:#000000;stroke-miterlimit:10;stroke-opacity:1;fill-rule:nonzero;clip-rule:evenodd;stroke-width:0.67318708px;fill:none"
     d="m -105.36559,502.49005 v 5.9833"
     inkscape:connector-curvature="0"
     transform="matrix(1.000000,0.000000,0.000000,1.000000,436.169890,113.504960)" />
  <path
     id="path569-2-4-47-0-9-6-28-3-1-2-1-2-6-5-2-2-7-7-1-8"
     style="stroke:#000000;stroke-miterlimit:10;stroke-opacity:1;fill-rule:nonzero;clip-rule:evenodd;stroke-width:0.67318743px;fill:none"
     d="m -102.37101,505.48169 h -5.98916"
     inkscape:connector-curvature="0"
     transform="matrix(1.000000,0.000000,0.000000,1.000000,436.169890,113.504960)" />
  <path
     d="m 224.85223,428.41707 v -1.44043 h 2.77832 v -1.80176 h -2.77832 v -1.44043 h 7.29004 v 1.44043 h -3.24219 v 1.80176 h 3.24219 v 1.44043 z"
     style="font-style:normal;font-variant:normal;font-weight:bold;font-stretch:normal;font-size:10px;line-height:1.25;font-family:monospace;-inkscape-font-specification:'monospace Bold';letter-spacing:0px;word-spacing:0px;fill:#00aeee;fill-opacity:1;stroke:none;stroke-width:0.75"
     id="path2538"
     inkscape:connector-curvature="0" />
  <path
     d="m 224.5202,419.66707 v -1.15234 h 1.20117 v 1.15234 z m 0,1.92871 v -1.15234 h 1.20117 v 1.15234 z m 3.18359,-1.53808 q 0,0.51269 0.4541,0.80566 0.44922,0.29297 1.25489,0.29297 0.80566,0 1.25976,-0.29297 0.44922,-0.29297 0.44922,-0.80566 0,-0.51758 -0.44922,-0.81055 -0.4541,-0.29297 -1.25976,-0.29297 -0.80567,0 -1.25489,0.29297 -0.4541,0.29297 -0.4541,0.81055 z m 1.70899,2.52929 q -1.32324,0 -2.09473,-0.68359 -0.77637,-0.68848 -0.77637,-1.8457 0,-1.16211 0.77637,-1.84571 0.77149,-0.68847 2.09473,-0.68847 1.32324,0 2.09961,0.68847 0.77148,0.6836 0.77148,1.84571 0,1.15722 -0.77148,1.8457 -0.77637,0.68359 -2.09961,0.68359 z"
     style="font-style:normal;font-variant:normal;font-weight:bold;font-stretch:normal;font-size:10px;line-height:1.25;font-family:monospace;-inkscape-font-specification:'monospace Bold';letter-spacing:0px;word-spacing:0px;fill:#00aeee;fill-opacity:1;stroke:none;stroke-width:0.75"
     id="path2540"
     inkscape:connector-curvature="0" />
  <path
     d="m 228.18231,411.42488 q -0.21484,0.23438 -0.32227,0.55176 -0.10742,0.3125 -0.10742,0.68848 0,0.4541 0.16113,0.7959 0.15625,0.33691 0.45899,0.52246 0.18555,0.11718 0.44922,0.16601 0.26367,0.0439 0.80078,0.0439 h 2.51953 v 1.43066 h -5.46875 v -1.43066 h 0.84961 q -0.46875,-0.20996 -0.72266,-0.64453 -0.25879,-0.43457 -0.25879,-1.01563 0,-0.29297 0.0733,-0.57129 0.0684,-0.2832 0.20507,-0.53711 z"
     style="font-style:normal;font-variant:normal;font-weight:bold;font-stretch:normal;font-size:10px;line-height:1.25;font-family:monospace;-inkscape-font-specification:'monospace Bold';letter-spacing:0px;word-spacing:0px;fill:#00aeee;fill-opacity:1;stroke:none;stroke-width:0.75"
     id="path2542"
     inkscape:connector-curvature="0" />
  <path
     d="m 231.87372,405.64363 q 0.20507,0.49805 0.30761,1.01563 0.10254,0.51758 0.10254,1.09375 0,1.37207 -0.73242,2.09961 -0.73731,0.72265 -2.11914,0.72265 -1.33789,0 -2.11426,-0.69824 -0.77637,-0.69824 -0.77637,-1.9043 0,-1.21582 0.72266,-1.88476 0.71777,-0.67383 2.02637,-0.67383 h 0.58105 v 3.70606 q 0.64453,-0.005 0.96192,-0.38086 0.31738,-0.37598 0.31738,-1.12305 0,-0.49316 -0.1416,-0.97168 -0.1416,-0.47852 -0.44922,-1.00098 z m -3.07618,1.21094 q -0.5664,0.01 -0.85449,0.29297 -0.29297,0.27832 -0.29297,0.82519 0,0.49317 0.30274,0.78614 0.29785,0.29297 0.84961,0.34668 z"
     style="font-style:normal;font-variant:normal;font-weight:bold;font-stretch:normal;font-size:10px;line-height:1.25;font-family:monospace;-inkscape-font-specification:'monospace Bold';letter-spacing:0px;word-spacing:0px;fill:#00aeee;fill-opacity:1;stroke:none;stroke-width:0.75"
     id="path2544"
     inkscape:connector-curvature="0" />
  <path
     d="m 228.18231,399.38387 q -0.21484,0.23437 -0.32227,0.55176 -0.10742,0.3125 -0.10742,0.68847 0,0.4541 0.16113,0.7959 0.15625,0.33691 0.45899,0.52246 0.18555,0.11719 0.44922,0.16602 0.26367,0.0439 0.80078,0.0439 h 2.51953 v 1.43067 h -5.46875 v -1.43067 h 0.84961 q -0.46875,-0.20996 -0.72266,-0.64453 -0.25879,-0.43457 -0.25879,-1.01562 0,-0.29297 0.0733,-0.57129 0.0684,-0.28321 0.20507,-0.53711 z"
     style="font-style:normal;font-variant:normal;font-weight:bold;font-stretch:normal;font-size:10px;line-height:1.25;font-family:monospace;-inkscape-font-specification:'monospace Bold';letter-spacing:0px;word-spacing:0px;fill:#00aeee;fill-opacity:1;stroke:none;stroke-width:0.75"
     id="path2546"
     inkscape:connector-curvature="0" />
  <path
     d="m 232.14227,391.86434 h -7.29004 v -1.44043 h 6.02051 v -3.08106 h 1.26953 z"
     style="font-style:normal;font-variant:normal;font-weight:bold;font-stretch:normal;font-size:10px;line-height:1.25;font-family:monospace;-inkscape-font-specification:'monospace Bold';letter-spacing:0px;word-spacing:0px;fill:#00aeee;fill-opacity:1;stroke:none;stroke-width:0.75"
     id="path2548"
     inkscape:connector-curvature="0" />
  <path
     d="m 229.57391,383.52449 q 0,0.80078 0.20508,1.11817 0.20508,0.31738 0.70312,0.31738 0.3711,0 0.59082,-0.21973 0.21973,-0.21972 0.21973,-0.5957 0,-0.56641 -0.4248,-0.87891 -0.42969,-0.3125 -1.19629,-0.3125 h -0.0977 z m -0.55176,-1.99218 h 3.12012 v 1.42089 h -0.61035 q 0.36133,0.25879 0.55664,0.66407 0.19531,0.40527 0.19531,0.89355 0,0.93262 -0.49316,1.45508 -0.49317,0.51758 -1.37696,0.51758 -0.95703,0 -1.41113,-0.62012 -0.45898,-0.62012 -0.45898,-1.91895 v -0.99121 h -0.23926 q -0.34668,0 -0.52246,0.25391 -0.18067,0.24902 -0.18067,0.7373 0,0.5127 0.13184,0.9961 0.12695,0.47851 0.41016,1.00097 h -1.22071 q -0.19531,-0.47363 -0.28808,-0.96191 -0.0928,-0.48828 -0.0928,-1.03516 0,-1.333 0.542,-1.87011 0.54199,-0.54199 1.93847,-0.54199 z"
     style="font-style:normal;font-variant:normal;font-weight:bold;font-stretch:normal;font-size:10px;line-height:1.25;font-family:monospace;-inkscape-font-specification:'monospace Bold';letter-spacing:0px;word-spacing:0px;fill:#00aeee;fill-opacity:1;stroke:none;stroke-width:0.75"
     id="path2550"
     inkscape:connector-curvature="0" />
  <path
     d="m 232.73309,377.45027 q 0.77148,0.28809 1.12305,0.69336 0.35644,0.40039 0.35644,0.97657 v 1.18164 h -1.08886 v -0.58106 q 0,-0.43945 -0.15137,-0.64453 -0.14649,-0.20508 -0.68848,-0.41504 l -0.29297,-0.10742 -5.31738,2.08008 v -1.50391 l 3.5498,-1.25 -3.5498,-1.19629 v -1.5039 z"
     style="font-style:normal;font-variant:normal;font-weight:bold;font-stretch:normal;font-size:10px;line-height:1.25;font-family:monospace;-inkscape-font-specification:'monospace Bold';letter-spacing:0px;word-spacing:0px;fill:#00aeee;fill-opacity:1;stroke:none;stroke-width:0.75"
     id="path2552"
     inkscape:connector-curvature="0" />
  <path
     d="m 231.87372,369.52059 q 0.20507,0.49804 0.30761,1.01562 0.10254,0.51758 0.10254,1.09375 0,1.37207 -0.73242,2.09961 -0.73731,0.72266 -2.11914,0.72266 -1.33789,0 -2.11426,-0.69825 -0.77637,-0.69824 -0.77637,-1.90429 0,-1.21582 0.72266,-1.88477 0.71777,-0.67383 2.02637,-0.67383 h 0.58105 v 3.70606 q 0.64453,-0.005 0.96192,-0.38086 0.31738,-0.37598 0.31738,-1.12305 0,-0.49316 -0.1416,-0.97168 -0.1416,-0.47851 -0.44922,-1.00097 z m -3.07618,1.21093 q -0.5664,0.01 -0.85449,0.29297 -0.29297,0.27832 -0.29297,0.8252 0,0.49316 0.30274,0.78613 0.29785,0.29297 0.84961,0.34668 z"
     style="font-style:normal;font-variant:normal;font-weight:bold;font-stretch:normal;font-size:10px;line-height:1.25;font-family:monospace;-inkscape-font-specification:'monospace Bold';letter-spacing:0px;word-spacing:0px;fill:#00aeee;fill-opacity:1;stroke:none;stroke-width:0.75"
     id="path2554"
     inkscape:connector-curvature="0" />
  <path
     d="m 228.18231,363.26082 q -0.21484,0.23438 -0.32227,0.55176 -0.10742,0.3125 -0.10742,0.68848 0,0.4541 0.16113,0.79589 0.15625,0.33692 0.45899,0.52246 0.18555,0.11719 0.44922,0.16602 0.26367,0.0439 0.80078,0.0439 h 2.51953 v 1.43066 h -5.46875 v -1.43066 h 0.84961 q -0.46875,-0.20997 -0.72266,-0.64454 -0.25879,-0.43457 -0.25879,-1.01562 0,-0.29297 0.0733,-0.57129 0.0684,-0.2832 0.20507,-0.53711 z"
     style="font-style:normal;font-variant:normal;font-weight:bold;font-stretch:normal;font-size:10px;line-height:1.25;font-family:monospace;-inkscape-font-specification:'monospace Bold';letter-spacing:0px;word-spacing:0px;fill:#00aeee;fill-opacity:1;stroke:none;stroke-width:0.75"
     id="path2556"
     inkscape:connector-curvature="0" />
  <path
     d="m 228.88055,354.15926 v 0.77148 h -1.26953 v -0.77148 q 0,-0.53711 -0.20996,-0.83008 -0.21484,-0.29785 -0.60059,-0.29785 -0.40527,0 -0.62988,0.29785 -0.22949,0.29297 -0.22949,0.83008 0,0.41015 0.10254,0.8789 0.10254,0.46875 0.29785,0.97168 h -1.3086 q -0.15136,-0.50293 -0.22949,-0.99121 -0.083,-0.48828 -0.083,-0.9375 0,-1.15234 0.50293,-1.79687 0.50293,-0.64453 1.38672,-0.64453 0.64942,0 1.06446,0.37109 0.41015,0.37109 0.53711,1.05957 0.13671,-0.78125 0.625,-1.19141 0.48339,-0.41015 1.27441,-0.41015 1.05957,0 1.61621,0.67871 0.55664,0.67871 0.55664,1.97266 0,0.55175 -0.0928,1.08886 -0.0928,0.53223 -0.26856,1.02051 h -1.33789 q 0.22949,-0.45898 0.35157,-0.99121 0.11718,-0.53223 0.11718,-1.11816 0,-0.58594 -0.26855,-0.92774 -0.27344,-0.3418 -0.73242,-0.3418 -0.56153,0 -0.86426,0.3418 -0.30762,0.3418 -0.30762,0.9668 z"
     style="font-style:normal;font-variant:normal;font-weight:bold;font-stretch:normal;font-size:10px;line-height:1.25;font-family:monospace;-inkscape-font-specification:'monospace Bold';letter-spacing:0px;word-spacing:0px;fill:#00aeee;fill-opacity:1;stroke:none;stroke-width:0.75"
     id="path2558"
     inkscape:connector-curvature="0" />
  <path
     transform="matrix(0.000000,-0.750000,0.750000,0.000000,341.857950,105.480610)"
     id="path10537"
     style="font-size:13.33333302px;-inkscape-font-specification:'monospace Bold';fill-opacity:1;font-weight:bold;letter-spacing:0px;line-height:1.25;word-spacing:0px;stroke:none;font-stretch:normal;font-variant:normal;font-family:monospace;font-style:normal;fill:#00aeee"
     d="m -430.71549,114.36393 h 1.92057 v 3.70443 h 2.40234 v -3.70443 h 1.92057 v 9.72005 h -1.92057 v -4.32291 h -2.40234 v 4.32291 h -1.92057 z" />
  <path
     transform="matrix(0.000000,-0.750000,0.750000,0.000000,341.857950,105.480610)"
     id="path10539"
     style="font-size:13.33333302px;-inkscape-font-specification:'monospace Bold';fill-opacity:1;font-weight:bold;letter-spacing:0px;line-height:1.25;word-spacing:0px;stroke:none;font-stretch:normal;font-variant:normal;font-family:monospace;font-style:normal;fill:#00aeee"
     d="m -419.04883,113.92122 h 1.53646 v 1.60157 h -1.53646 z m -2.57161,0 h 1.53646 v 1.60157 h -1.53646 z m 2.05078,4.2448 q -0.6836,0 -1.07422,0.60546 -0.39063,0.59896 -0.39063,1.67318 0,1.07422 0.39063,1.67969 0.39062,0.59896 1.07422,0.59896 0.6901,0 1.08073,-0.59896 0.39062,-0.60547 0.39062,-1.67969 0,-1.07422 -0.39062,-1.67318 -0.39063,-0.60546 -1.08073,-0.60546 z m -3.3724,2.27864 q 0,-1.76432 0.91146,-2.79297 0.91797,-1.03515 2.46094,-1.03515 1.54948,0 2.46094,1.03515 0.91796,1.02865 0.91796,2.79297 0,1.76432 -0.91796,2.79948 -0.91146,1.02865 -2.46094,1.02865 -1.54297,0 -2.46094,-1.02865 -0.91146,-1.03516 -0.91146,-2.79948 z" />
  <path
     transform="matrix(0.000000,-0.750000,0.750000,0.000000,341.857950,105.480610)"
     id="path10541"
     style="font-size:13.33333302px;-inkscape-font-specification:'monospace Bold';fill-opacity:1;font-weight:bold;letter-spacing:0px;line-height:1.25;word-spacing:0px;stroke:none;font-stretch:normal;font-variant:normal;font-family:monospace;font-style:normal;fill:#00aeee"
     d="m -408.05924,118.80404 q -0.3125,-0.28646 -0.73568,-0.42969 -0.41667,-0.14323 -0.91797,-0.14323 -0.60547,0 -1.0612,0.21484 -0.44922,0.20834 -0.69661,0.61198 -0.15625,0.2474 -0.22136,0.59896 -0.0586,0.35156 -0.0586,1.06771 v 3.35937 h -1.90755 v -7.29166 h 1.90755 v 1.13281 q 0.27995,-0.625 0.85937,-0.96354 0.57943,-0.34505 1.35417,-0.34505 0.39063,0 0.76172,0.0977 0.3776,0.0911 0.71615,0.27344 z" />
  <path
     transform="matrix(0.000000,-0.750000,0.750000,0.000000,341.857950,105.480610)"
     id="path10543"
     style="font-size:13.33333302px;-inkscape-font-specification:'monospace Bold';fill-opacity:1;font-weight:bold;letter-spacing:0px;line-height:1.25;word-spacing:0px;stroke:none;font-stretch:normal;font-variant:normal;font-family:monospace;font-style:normal;fill:#00aeee"
     d="m -400.35091,123.72591 q -0.66406,0.27344 -1.35417,0.41016 -0.6901,0.13672 -1.45833,0.13672 -1.82943,0 -2.79948,-0.97657 -0.96354,-0.98307 -0.96354,-2.82552 0,-1.78385 0.93099,-2.81901 0.93099,-1.03515 2.53906,-1.03515 1.62109,0 2.51302,0.96354 0.89844,0.95703 0.89844,2.70182 v 0.77474 h -4.94141 q 0.007,0.85938 0.50781,1.28255 0.50131,0.42318 1.4974,0.42318 0.65755,0 1.29557,-0.1888 0.63802,-0.1888 1.33464,-0.59896 z m -1.61458,-4.10156 q -0.013,-0.75521 -0.39063,-1.13932 -0.37109,-0.39063 -1.10026,-0.39063 -0.65755,0 -1.04818,0.40365 -0.39062,0.39713 -0.46224,1.13281 z" />
  <path
     transform="matrix(0.000000,-0.750000,0.750000,0.000000,341.857950,105.480610)"
     id="path10545"
     style="font-size:13.33333302px;-inkscape-font-specification:'monospace Bold';fill-opacity:1;font-weight:bold;letter-spacing:0px;line-height:1.25;word-spacing:0px;stroke:none;font-stretch:normal;font-variant:normal;font-family:monospace;font-style:normal;fill:#00aeee"
     d="m -392.00456,118.80404 q -0.3125,-0.28646 -0.73567,-0.42969 -0.41667,-0.14323 -0.91797,-0.14323 -0.60547,0 -1.0612,0.21484 -0.44922,0.20834 -0.69662,0.61198 -0.15625,0.2474 -0.22135,0.59896 -0.0586,0.35156 -0.0586,1.06771 v 3.35937 h -1.90756 v -7.29166 h 1.90756 v 1.13281 q 0.27994,-0.625 0.85937,-0.96354 0.57943,-0.34505 1.35417,-0.34505 0.39062,0 0.76172,0.0977 0.3776,0.0911 0.71614,0.27344 z" />
  <path
     transform="matrix(0.000000,-0.750000,0.750000,0.000000,341.857950,105.480610)"
     id="path10547"
     style="font-size:13.33333302px;-inkscape-font-specification:'monospace Bold';fill-opacity:1;font-weight:bold;letter-spacing:0px;line-height:1.25;word-spacing:0px;stroke:none;font-stretch:normal;font-variant:normal;font-family:monospace;font-style:normal;fill:#00aeee"
     d="m -381.97852,124.08398 v -9.72005 h 1.92058 v 8.02735 h 4.10807 v 1.6927 z" />
  <path
     transform="matrix(0.000000,-0.750000,0.750000,0.000000,341.857950,105.480610)"
     id="path10549"
     style="font-size:13.33333302px;-inkscape-font-specification:'monospace Bold';fill-opacity:1;font-weight:bold;letter-spacing:0px;line-height:1.25;word-spacing:0px;stroke:none;font-stretch:normal;font-variant:normal;font-family:monospace;font-style:normal;fill:#00aeee"
     d="m -370.85872,120.65951 q -1.06771,0 -1.49089,0.27343 -0.42318,0.27344 -0.42318,0.9375 0,0.49479 0.29297,0.78776 0.29297,0.29297 0.79427,0.29297 0.75521,0 1.17188,-0.5664 0.41666,-0.57292 0.41666,-1.59506 v -0.1302 z m 2.65625,-0.73568 v 4.16015 h -1.89454 v -0.8138 q -0.34505,0.48177 -0.88541,0.74219 -0.54037,0.26042 -1.19141,0.26042 -1.24349,0 -1.9401,-0.65756 -0.69011,-0.65755 -0.69011,-1.83593 0,-1.27604 0.82683,-1.88151 0.82682,-0.61198 2.55859,-0.61198 h 1.32161 v -0.31901 q 0,-0.46224 -0.33854,-0.69662 -0.33203,-0.24088 -0.98307,-0.24088 -0.68359,0 -1.32812,0.17578 -0.63803,0.16927 -1.33464,0.54687 v -1.6276 q 0.63151,-0.26042 1.28255,-0.38412 0.65104,-0.12369 1.38021,-0.12369 1.77734,0 2.49349,0.72265 0.72266,0.72266 0.72266,2.58464 z" />
  <path
     transform="matrix(0.000000,-0.750000,0.750000,0.000000,341.857950,105.480610)"
     id="path10551"
     style="font-size:13.33333302px;-inkscape-font-specification:'monospace Bold';fill-opacity:1;font-weight:bold;letter-spacing:0px;line-height:1.25;word-spacing:0px;stroke:none;font-stretch:normal;font-variant:normal;font-family:monospace;font-style:normal;fill:#00aeee"
     d="m -362.75977,124.87174 q -0.38411,1.02865 -0.92447,1.4974 -0.53386,0.47526 -1.30209,0.47526 h -1.57552 v -1.45182 h 0.77474 q 0.58594,0 0.85938,-0.20183 0.27343,-0.19531 0.55338,-0.91796 l 0.14323,-0.39063 -2.77344,-7.08984 h 2.00521 l 1.66667,4.73307 1.59505,-4.73307 h 2.00521 z" />
  <path
     transform="matrix(0.000000,-0.750000,0.750000,0.000000,341.857950,105.480610)"
     id="path10553"
     style="font-size:13.33333302px;-inkscape-font-specification:'monospace Bold';fill-opacity:1;font-weight:bold;letter-spacing:0px;line-height:1.25;word-spacing:0px;stroke:none;font-stretch:normal;font-variant:normal;font-family:monospace;font-style:normal;fill:#00aeee"
     d="m -352.18685,123.72591 q -0.66406,0.27344 -1.35417,0.41016 -0.6901,0.13672 -1.45833,0.13672 -1.82943,0 -2.79948,-0.97657 -0.96354,-0.98307 -0.96354,-2.82552 0,-1.78385 0.93099,-2.81901 0.93099,-1.03515 2.53906,-1.03515 1.6211,0 2.51302,0.96354 0.89844,0.95703 0.89844,2.70182 v 0.77474 h -4.94141 q 0.007,0.85938 0.50782,1.28255 0.5013,0.42318 1.49739,0.42318 0.65755,0 1.29558,-0.1888 0.63802,-0.1888 1.33463,-0.59896 z m -1.61458,-4.10156 q -0.013,-0.75521 -0.39063,-1.13932 -0.37109,-0.39063 -1.10026,-0.39063 -0.65755,0 -1.04817,0.40365 -0.39063,0.39713 -0.46224,1.13281 z" />
  <path
     transform="matrix(0.000000,-0.750000,0.750000,0.000000,341.857950,105.480610)"
     id="path10555"
     style="font-size:13.33333302px;-inkscape-font-specification:'monospace Bold';fill-opacity:1;font-weight:bold;letter-spacing:0px;line-height:1.25;word-spacing:0px;stroke:none;font-stretch:normal;font-variant:normal;font-family:monospace;font-style:normal;fill:#00aeee"
     d="m -343.84049,118.80404 q -0.3125,-0.28646 -0.73568,-0.42969 -0.41667,-0.14323 -0.91797,-0.14323 -0.60547,0 -1.0612,0.21484 -0.44922,0.20834 -0.69661,0.61198 -0.15625,0.2474 -0.22136,0.59896 -0.0586,0.35156 -0.0586,1.06771 v 3.35937 h -1.90755 v -7.29166 h 1.90755 v 1.13281 q 0.27995,-0.625 0.85937,-0.96354 0.57943,-0.34505 1.35417,-0.34505 0.39063,0 0.76172,0.0977 0.3776,0.0911 0.71615,0.27344 z" />
  <path
     transform="matrix(0.000000,-0.750000,0.750000,0.000000,341.857950,105.480610)"
     id="path10557"
     style="font-size:13.33333302px;-inkscape-font-specification:'monospace Bold';fill-opacity:1;font-weight:bold;letter-spacing:0px;line-height:1.25;word-spacing:0px;stroke:none;font-stretch:normal;font-variant:normal;font-family:monospace;font-style:normal;fill:#00aeee"
     d="m -330.76107,116.49935 -2.45442,3.84114 h 2.45442 z m -0.16927,-2.13542 h 2.01172 v 5.97656 h 1.06771 v 1.64714 h -1.06771 v 2.09635 h -1.84245 v -2.09635 h -3.85416 v -1.86198 z" />
  <path
     inkscape:connector-curvature="0"
     d="m 170.23506,642.62643 c 0,1.56061 -1.26669,2.82705 -2.82884,2.82705 -1.56314,0 -2.82982,-1.26644 -2.82982,-2.82705 0,-1.56062 1.26668,-2.82609 2.82982,-2.82609 1.56215,0 2.82884,1.26547 2.82884,2.82609"
     style="clip-rule:evenodd;fill:none;fill-rule:nonzero;stroke:#ec008c;stroke-width:0.99768871;stroke-miterlimit:10;stroke-opacity:1"
     id="path561-9-1-31-3-7-3-5-2-3-9-4-9-06-8-5-1-2-4-626-4-0" />
  <path
     inkscape:connector-curvature="0"
     d="m 167.40629,639.69822 v 5.9833"
     style="clip-rule:evenodd;fill:none;fill-rule:nonzero;stroke:#000000;stroke-width:0.67318708px;stroke-miterlimit:10;stroke-opacity:1"
     id="path565-7-5-9-2-0-5-92-9-6-0-3-1-2-8-9-7-5-3-1-5-6" />
  <path
     inkscape:connector-curvature="0"
     d="m 170.35931,642.62757 h -5.98916"
     style="clip-rule:evenodd;fill:none;fill-rule:nonzero;stroke:#000000;stroke-width:0.67318743px;stroke-miterlimit:10;stroke-opacity:1"
     id="path569-2-4-47-0-9-6-28-3-1-2-1-2-6-5-2-2-4-5-8-0-2" />
</svg>
