<?xml version="1.0" encoding="UTF-8" standalone="no"?>
<svg
   xmlns:dc="http://purl.org/dc/elements/1.1/"
   xmlns:cc="http://creativecommons.org/ns#"
   xmlns:rdf="http://www.w3.org/1999/02/22-rdf-syntax-ns#"
   xmlns:svg="http://www.w3.org/2000/svg"
   xmlns="http://www.w3.org/2000/svg"
   xmlns:sodipodi="http://sodipodi.sourceforge.net/DTD/sodipodi-0.dtd"
   xmlns:inkscape="http://www.inkscape.org/namespaces/inkscape"
   id="svg711"
   version="1.1"
   viewBox="0 0 595.68 842.16"
   height="842.16pt"
   width="595.68pt"
   sodipodi:docname="sheet_b_ekulit_siedle.svg"
   inkscape:version="0.92.5 (2060ec1f9f, 2020-04-08)">
  <sodipodi:namedview
     pagecolor="#ffffff"
     bordercolor="#666666"
     borderopacity="1"
     objecttolerance="10"
     gridtolerance="10"
     guidetolerance="10"
     inkscape:pageopacity="0"
     inkscape:pageshadow="2"
     inkscape:window-width="1600"
     inkscape:window-height="820"
     id="namedview1984"
     showgrid="false"
     inkscape:zoom="0.56996296"
     inkscape:cx="273.51072"
     inkscape:cy="724.09524"
     inkscape:window-x="-4"
     inkscape:window-y="-4"
     inkscape:window-maximized="1"
     inkscape:current-layer="svg711" />
  <metadata
     id="metadata715">
    <rdf:RDF>
      <cc:Work
         rdf:about="">
        <dc:format>image/svg+xml</dc:format>
        <dc:type
           rdf:resource="http://purl.org/dc/dcmitype/StillImage" />
        <dc:title />
      </cc:Work>
    </rdf:RDF>
  </metadata>
  <defs
     id="defs178" />
  <rect
     transform="matrix(1.000000,0.000000,0.000000,1.000000,585.301290,-26.570388)"
     style="stroke:#ec008c;stroke-dasharray:none;stroke-opacity:1;fill-opacity:1;stroke-miterlimit:10;stroke-width:1.37065363;fill:none"
     id="rect1797-6-5-3-9-7-5-5"
     width="148.86557"
     height="531.00598"
     x="-227.58902"
     y="151.01041" />
  <rect
     transform="matrix(1.000000,0.000000,0.000000,1.000000,43.729584,-55.843350)"
     y="205.67148"
     x="69.73378"
     height="98.73127"
     width="98.73127"
     id="rect1797-6-5-6-3-4"
     style="stroke:#ec008c;stroke-dasharray:none;stroke-opacity:1;fill-opacity:1;stroke-miterlimit:10;stroke-width:0.48132193;fill:none" />
  <rect
     transform="matrix(1.000000,0.000000,0.000000,1.000000,43.729584,-55.843350)"
     y="180.28343"
     x="44.345734"
     height="149.50735"
     width="149.50735"
     id="rect1797-6-5-3-2-2-7"
     style="stroke:#ec008c;stroke-dasharray:none;stroke-opacity:1;fill-opacity:1;stroke-miterlimit:10;stroke-width:0.72885895;fill:none" />
  <path
     inkscape:connector-curvature="0"
     transform="matrix(0.000000,-0.750000,0.750000,0.000000,-381.239190,365.731842)"
     id="path8842"
     style="font-size:13.33333302px;-inkscape-font-specification:'monospace Bold';fill-opacity:1;font-weight:bold;letter-spacing:0px;text-anchor:middle;line-height:1.25;word-spacing:0px;stroke:none;font-stretch:normal;font-variant:normal;text-align:center;font-family:monospace;font-style:normal;fill:#00aeee"
     d="m 159.0918,633.83984 q 0.28646,0.0586 0.49479,0.27344 0.21484,0.20833 0.52083,0.82031 l 1.75782,3.4961 h -2.10938 l -1.17187,-2.45443 q -0.0521,-0.10417 -0.13672,-0.28646 -0.51433,-1.10026 -1.21094,-1.10026 h -0.61198 v 3.84115 h -1.92057 v -9.72005 h 2.77344 q 1.875,0 2.6888,0.66406 0.82031,0.66406 0.82031,2.16146 0,1.0026 -0.48828,1.59505 -0.48828,0.59245 -1.40625,0.70963 z m -2.46745,-3.51562 v 2.64974 h 0.90495 q 0.78776,0 1.1263,-0.30599 0.34505,-0.3125 0.34505,-1.02214 0,-0.70963 -0.33854,-1.01562 -0.33854,-0.30599 -1.13281,-0.30599 z" />
  <path
     inkscape:connector-curvature="0"
     transform="matrix(0.000000,-0.750000,0.750000,0.000000,-381.239190,365.731842)"
     id="path8844"
     style="font-size:13.33333302px;-inkscape-font-specification:'monospace Bold';fill-opacity:1;font-weight:bold;letter-spacing:0px;text-anchor:middle;line-height:1.25;word-spacing:0px;stroke:none;font-stretch:normal;font-variant:normal;text-align:center;font-family:monospace;font-style:normal;fill:#00aeee"
     d="m 166.42253,635.00521 q -1.06771,0 -1.49089,0.27344 -0.42317,0.27343 -0.42317,0.9375 0,0.49479 0.29296,0.78776 0.29297,0.29296 0.79427,0.29296 0.75521,0 1.17188,-0.5664 0.41667,-0.57292 0.41667,-1.59505 v -0.13021 z m 2.65625,-0.73568 v 4.16016 h -1.89453 v -0.8138 q -0.34506,0.48177 -0.88542,0.74218 -0.54036,0.26042 -1.19141,0.26042 -1.24349,0 -1.9401,-0.65755 -0.6901,-0.65755 -0.6901,-1.83594 0,-1.27604 0.82682,-1.88151 0.82682,-0.61198 2.55859,-0.61198 h 1.32162 v -0.31901 q 0,-0.46224 -0.33855,-0.69661 -0.33203,-0.24089 -0.98307,-0.24089 -0.68359,0 -1.32812,0.17578 -0.63802,0.16927 -1.33464,0.54688 v -1.62761 q 0.63151,-0.26041 1.28255,-0.38411 0.65105,-0.1237 1.38021,-0.1237 1.77735,0 2.49349,0.72266 0.72266,0.72265 0.72266,2.58463 z" />
  <path
     inkscape:connector-curvature="0"
     transform="matrix(0.000000,-0.750000,0.750000,0.000000,-381.239190,365.731842)"
     id="path8846"
     style="font-size:13.33333302px;-inkscape-font-specification:'monospace Bold';fill-opacity:1;font-weight:bold;letter-spacing:0px;text-anchor:middle;line-height:1.25;word-spacing:0px;stroke:none;font-stretch:normal;font-variant:normal;text-align:center;font-family:monospace;font-style:normal;fill:#00aeee"
     d="m 176.86524,633.69661 v 4.73308 h -1.89454 v -4.44011 q 0,-0.78776 -0.22786,-1.1263 -0.22135,-0.33854 -0.72917,-0.33854 -0.52083,0 -0.8138,0.46224 -0.29297,0.45573 -0.29297,1.26953 v 4.17318 h -1.89453 v -10.13021 h 1.89453 v 3.93229 q 0.20183,-0.60547 0.69011,-0.9375 0.48828,-0.33203 1.17838,-0.33203 1.03516,0 1.5625,0.6901 0.52735,0.6836 0.52735,2.04427 z" />
  <path
     inkscape:connector-curvature="0"
     transform="matrix(0.000000,-0.750000,0.750000,0.000000,-381.239190,365.731842)"
     id="path8848"
     style="font-size:13.33333302px;-inkscape-font-specification:'monospace Bold';fill-opacity:1;font-weight:bold;letter-spacing:0px;text-anchor:middle;line-height:1.25;word-spacing:0px;stroke:none;font-stretch:normal;font-variant:normal;text-align:center;font-family:monospace;font-style:normal;fill:#00aeee"
     d="m 182.41211,631.86719 q 0.21484,-0.46224 0.54688,-0.6836 0.33203,-0.22135 0.8138,-0.22135 0.94401,0 1.30208,0.65104 0.36458,0.65104 0.36458,2.70833 v 4.10808 h -1.5625 v -4.68099 q 0,-0.8138 -0.12369,-1.08724 -0.1237,-0.27344 -0.44922,-0.27344 -0.32552,0 -0.45573,0.27995 -0.13021,0.27995 -0.13021,1.08073 v 4.68099 h -1.54297 v -4.68099 q 0,-0.80078 -0.13021,-1.08073 -0.1302,-0.27995 -0.45573,-0.27995 -0.32552,0 -0.44921,0.27344 -0.1237,0.27344 -0.1237,1.08724 v 4.68099 h -1.5625 v -7.29167 h 1.38672 v 0.75521 q 0.16276,-0.42969 0.52083,-0.67708 0.35807,-0.25391 0.80078,-0.25391 0.44271,0 0.80729,0.26693 0.36459,0.26041 0.44271,0.63802 z" />
  <path
     inkscape:connector-curvature="0"
     id="path8850"
     style="font-size:13.33333302px;-inkscape-font-specification:'monospace Bold';fill-opacity:1;font-weight:bold;letter-spacing:0px;text-anchor:middle;line-height:1.25;word-spacing:0px;stroke:none;font-stretch:normal;font-variant:normal;text-align:center;font-family:monospace;font-style:normal;fill:#00aeee"
     d="m 193.12175,638.07161 q -0.66407,0.27344 -1.35417,0.41016 -0.6901,0.13672 -1.45833,0.13672 -1.82943,0 -2.79948,-0.97656 -0.96354,-0.98308 -0.96354,-2.82552 0,-1.78386 0.93099,-2.81901 0.93098,-1.03516 2.53906,-1.03516 1.62109,0 2.51302,0.96354 0.89844,0.95703 0.89844,2.70182 v 0.77474 h -4.94141 q 0.007,0.85938 0.50781,1.28256 0.5013,0.42317 1.4974,0.42317 0.65755,0 1.29557,-0.1888 0.63802,-0.1888 1.33464,-0.59896 z m -1.61459,-4.10156 q -0.013,-0.75521 -0.39062,-1.13932 -0.3711,-0.39063 -1.10026,-0.39063 -0.65755,0 -1.04818,0.40365 -0.39062,0.39714 -0.46224,1.13281 z"
     transform="matrix(0.000000,-0.750000,0.750000,0.000000,-381.239190,365.731842)" />
  <path
     inkscape:connector-curvature="0"
     transform="matrix(0.000000,-0.750000,0.750000,0.000000,-381.239190,365.731842)"
     id="path8852"
     style="font-size:13.33333302px;-inkscape-font-specification:'monospace Bold';fill-opacity:1;font-weight:bold;letter-spacing:0px;text-anchor:middle;line-height:1.25;word-spacing:0px;stroke:none;font-stretch:normal;font-variant:normal;text-align:center;font-family:monospace;font-style:normal;fill:#00aeee"
     d="m 200.94727,633.69661 v 4.73308 h -1.89453 v -4.44011 q 0,-0.79427 -0.22787,-1.13281 -0.22135,-0.34505 -0.72917,-0.34505 -0.51432,0 -0.8138,0.46224 -0.29297,0.46224 -0.29297,1.28255 v 4.17318 h -1.89453 v -7.29167 h 1.89453 v 1.09375 q 0.20183,-0.60547 0.69011,-0.9375 0.48828,-0.33203 1.17838,-0.33203 1.03516,0 1.5625,0.6901 0.52735,0.6836 0.52735,2.04427 z" />
  <path
     inkscape:connector-curvature="0"
     transform="matrix(0.000000,-0.750000,0.750000,0.000000,-381.239190,365.731842)"
     id="path8854"
     style="font-size:13.33333302px;-inkscape-font-specification:'monospace Bold';fill-opacity:1;font-weight:bold;letter-spacing:0px;text-anchor:middle;line-height:1.25;word-spacing:0px;stroke:none;font-stretch:normal;font-variant:normal;text-align:center;font-family:monospace;font-style:normal;fill:#00aeee"
     d="m 210.92123,628.70964 h 1.92057 v 3.70442 h 2.40234 v -3.70442 h 1.92057 v 9.72005 h -1.92057 v -4.32292 h -2.40234 v 4.32292 h -1.92057 z" />
  <path
     inkscape:connector-curvature="0"
     transform="matrix(0.000000,-0.750000,0.750000,0.000000,-381.239190,365.731842)"
     id="path8856"
     style="font-size:13.33333302px;-inkscape-font-specification:'monospace Bold';fill-opacity:1;font-weight:bold;letter-spacing:0px;text-anchor:middle;line-height:1.25;word-spacing:0px;stroke:none;font-stretch:normal;font-variant:normal;text-align:center;font-family:monospace;font-style:normal;fill:#00aeee"
     d="m 222.58789,628.26693 h 1.53646 v 1.60156 h -1.53646 z m -2.57161,0 h 1.53646 v 1.60156 h -1.53646 z m 2.05078,4.24479 q -0.68359,0 -1.07422,0.60547 -0.39062,0.59896 -0.39062,1.67317 0,1.07422 0.39062,1.67969 0.39063,0.59896 1.07422,0.59896 0.6901,0 1.08073,-0.59896 0.39062,-0.60547 0.39062,-1.67969 0,-1.07421 -0.39062,-1.67317 -0.39063,-0.60547 -1.08073,-0.60547 z m -3.3724,2.27864 q 0,-1.76432 0.91146,-2.79296 0.91797,-1.03516 2.46094,-1.03516 1.54948,0 2.46094,1.03516 0.91796,1.02864 0.91796,2.79296 0,1.76433 -0.91796,2.79948 -0.91146,1.02865 -2.46094,1.02865 -1.54297,0 -2.46094,-1.02865 -0.91146,-1.03515 -0.91146,-2.79948 z" />
  <path
     inkscape:connector-curvature="0"
     transform="matrix(0.000000,-0.750000,0.750000,0.000000,-381.239190,365.731842)"
     id="path8858"
     style="font-size:13.33333302px;-inkscape-font-specification:'monospace Bold';fill-opacity:1;font-weight:bold;letter-spacing:0px;text-anchor:middle;line-height:1.25;word-spacing:0px;stroke:none;font-stretch:normal;font-variant:normal;text-align:center;font-family:monospace;font-style:normal;fill:#00aeee"
     d="m 233.57748,633.14974 q -0.3125,-0.28646 -0.73568,-0.42969 -0.41667,-0.14323 -0.91797,-0.14323 -0.60547,0 -1.0612,0.21485 -0.44922,0.20833 -0.69661,0.61198 -0.15625,0.24739 -0.22136,0.59895 -0.0586,0.35157 -0.0586,1.06771 v 3.35938 h -1.90755 v -7.29167 h 1.90755 v 1.13281 q 0.27995,-0.625 0.85937,-0.96354 0.57943,-0.34505 1.35417,-0.34505 0.39063,0 0.76172,0.0977 0.3776,0.0911 0.71615,0.27343 z" />
  <path
     inkscape:connector-curvature="0"
     transform="matrix(0.000000,-0.750000,0.750000,0.000000,-381.239190,365.731842)"
     id="path8860"
     style="font-size:13.33333302px;-inkscape-font-specification:'monospace Bold';fill-opacity:1;font-weight:bold;letter-spacing:0px;text-anchor:middle;line-height:1.25;word-spacing:0px;stroke:none;font-stretch:normal;font-variant:normal;text-align:center;font-family:monospace;font-style:normal;fill:#00aeee"
     d="m 238.60352,631.86719 q 0.21484,-0.46224 0.54687,-0.6836 0.33203,-0.22135 0.8138,-0.22135 0.94401,0 1.30209,0.65104 0.36458,0.65104 0.36458,2.70833 v 4.10808 h -1.5625 v -4.68099 q 0,-0.8138 -0.1237,-1.08724 -0.12369,-0.27344 -0.44922,-0.27344 -0.32552,0 -0.45572,0.27995 -0.13021,0.27995 -0.13021,1.08073 v 4.68099 h -1.54297 v -4.68099 q 0,-0.80078 -0.13021,-1.08073 -0.13021,-0.27995 -0.45573,-0.27995 -0.32552,0 -0.44922,0.27344 -0.1237,0.27344 -0.1237,1.08724 v 4.68099 h -1.5625 v -7.29167 h 1.38672 v 0.75521 q 0.16276,-0.42969 0.52084,-0.67708 0.35807,-0.25391 0.80078,-0.25391 0.44271,0 0.80729,0.26693 0.36458,0.26041 0.44271,0.63802 z" />
  <path
     inkscape:connector-curvature="0"
     transform="matrix(0.000000,-0.750000,0.750000,0.000000,-381.239190,365.731842)"
     id="path8862"
     style="font-size:13.33333302px;-inkscape-font-specification:'monospace Bold';fill-opacity:1;font-weight:bold;letter-spacing:0px;text-anchor:middle;line-height:1.25;word-spacing:0px;stroke:none;font-stretch:normal;font-variant:normal;text-align:center;font-family:monospace;font-style:normal;fill:#00aeee"
     d="m 243.18034,635.88411 v -4.74609 h 1.90755 v 4.45313 q 0,0.78776 0.22136,1.1263 0.22135,0.33854 0.73567,0.33854 0.51433,0 0.80078,-0.45573 0.29297,-0.45573 0.29297,-1.27604 v -4.1862 h 1.90756 v 7.29167 h -1.90756 v -1.08073 q -0.20182,0.60547 -0.6901,0.9375 -0.48177,0.33203 -1.16537,0.33203 -1.04166,0 -1.57552,-0.6901 -0.52734,-0.69011 -0.52734,-2.04428 z" />
  <path
     inkscape:connector-curvature="0"
     transform="matrix(0.000000,-0.750000,0.750000,0.000000,-381.239190,365.731842)"
     id="path8864"
     style="font-size:13.33333302px;-inkscape-font-specification:'monospace Bold';fill-opacity:1;font-weight:bold;letter-spacing:0px;text-anchor:middle;line-height:1.25;word-spacing:0px;stroke:none;font-stretch:normal;font-variant:normal;text-align:center;font-family:monospace;font-style:normal;fill:#00aeee"
     d="m 256.61784,631.36589 v 1.66666 q -0.52734,-0.33854 -1.10026,-0.50781 -0.56641,-0.17578 -1.13932,-0.17578 -0.63802,0 -0.96354,0.1888 -0.32553,0.18229 -0.32553,0.54688 0,0.52083 1.39323,0.84635 l 0.0716,0.0195 0.54687,0.13021 q 1.04167,0.24739 1.52344,0.80078 0.48828,0.54688 0.48828,1.48438 0,1.1263 -0.74219,1.6927 -0.73567,0.5599 -2.22005,0.5599 -0.65755,0 -1.34765,-0.11719 -0.69011,-0.11068 -1.39974,-0.33854 v -1.66667 q 0.63151,0.35808 1.28255,0.54688 0.65755,0.1888 1.26953,0.1888 0.67057,0 1.01562,-0.19531 0.34506,-0.19531 0.34506,-0.56641 0,-0.36458 -0.2474,-0.55989 -0.24088,-0.19532 -1.15885,-0.41667 l -0.52735,-0.11719 q -1.09375,-0.24739 -1.59505,-0.77474 -0.5013,-0.52734 -0.5013,-1.41276 0,-1.05469 0.76172,-1.64062 0.76172,-0.58594 2.14192,-0.58594 0.61849,0 1.23047,0.10417 0.61849,0.0976 1.19792,0.29948 z" />
  <path
     inkscape:connector-curvature="0"
     transform="matrix(0.000000,-0.750000,0.750000,0.000000,-381.239190,365.731842)"
     id="path8866"
     style="font-size:13.33333302px;-inkscape-font-specification:'monospace Bold';fill-opacity:1;font-weight:bold;letter-spacing:0px;text-anchor:middle;line-height:1.25;word-spacing:0px;stroke:none;font-stretch:normal;font-variant:normal;text-align:center;font-family:monospace;font-style:normal;fill:#00aeee"
     d="m 265.10091,638.05859 q -0.48177,0.27995 -1.03515,0.41667 -0.55339,0.14323 -1.19141,0.14323 -1.6862,0 -2.63672,-1.01563 -0.95052,-1.01562 -0.95052,-2.8125 0,-1.80338 0.95703,-2.81901 0.95703,-1.02213 2.64323,-1.02213 0.58594,0 1.1263,0.13672 0.54688,0.13672 1.08724,0.42317 v 1.7448 q -0.41666,-0.35808 -0.91797,-0.54688 -0.49479,-0.19531 -1.02864,-0.19531 -0.93099,0 -1.43229,0.59245 -0.50131,0.59244 -0.50131,1.68619 0,1.09375 0.50131,1.67969 0.5013,0.58594 1.43229,0.58594 0.55338,0 1.03515,-0.18229 0.48178,-0.1888 0.91146,-0.56641 z" />
  <path
     inkscape:connector-curvature="0"
     transform="matrix(0.000000,-0.750000,0.750000,0.000000,-381.239190,365.731842)"
     id="path8868"
     style="font-size:13.33333302px;-inkscape-font-specification:'monospace Bold';fill-opacity:1;font-weight:bold;letter-spacing:0px;text-anchor:middle;line-height:1.25;word-spacing:0px;stroke:none;font-stretch:normal;font-variant:normal;text-align:center;font-family:monospace;font-style:normal;fill:#00aeee"
     d="m 273.19336,633.69661 v 4.73308 h -1.89453 v -4.44011 q 0,-0.78776 -0.22786,-1.1263 -0.22136,-0.33854 -0.72917,-0.33854 -0.52083,0 -0.8138,0.46224 -0.29297,0.45573 -0.29297,1.26953 v 4.17318 h -1.89453 v -10.13021 h 1.89453 v 3.93229 q 0.20182,-0.60547 0.6901,-0.9375 0.48828,-0.33203 1.17839,-0.33203 1.03515,0 1.5625,0.6901 0.52734,0.6836 0.52734,2.04427 z" />
  <path
     inkscape:connector-curvature="0"
     transform="matrix(0.000000,-0.750000,0.750000,0.000000,-381.239190,365.731842)"
     id="path8870"
     style="font-size:13.33333302px;-inkscape-font-specification:'monospace Bold';fill-opacity:1;font-weight:bold;letter-spacing:0px;text-anchor:middle;line-height:1.25;word-spacing:0px;stroke:none;font-stretch:normal;font-variant:normal;text-align:center;font-family:monospace;font-style:normal;fill:#00aeee"
     d="m 281.42253,638.07161 q -0.66406,0.27344 -1.35417,0.41016 -0.6901,0.13672 -1.45833,0.13672 -1.82943,0 -2.79948,-0.97656 -0.96354,-0.98308 -0.96354,-2.82552 0,-1.78386 0.93099,-2.81901 0.93099,-1.03516 2.53906,-1.03516 1.62109,0 2.51302,0.96354 0.89844,0.95703 0.89844,2.70182 v 0.77474 h -4.94141 q 0.007,0.85938 0.50781,1.28256 0.50131,0.42317 1.4974,0.42317 0.65755,0 1.29557,-0.1888 0.63802,-0.1888 1.33464,-0.59896 z m -1.61459,-4.10156 q -0.013,-0.75521 -0.39062,-1.13932 -0.37109,-0.39063 -1.10026,-0.39063 -0.65755,0 -1.04818,0.40365 -0.39062,0.39714 -0.46224,1.13281 z" />
  <path
     inkscape:connector-curvature="0"
     transform="matrix(0.000000,-0.750000,0.750000,0.000000,-381.239190,365.731842)"
     id="path8872"
     style="font-size:13.33333302px;-inkscape-font-specification:'monospace Bold';fill-opacity:1;font-weight:bold;letter-spacing:0px;text-anchor:middle;line-height:1.25;word-spacing:0px;stroke:none;font-stretch:normal;font-variant:normal;text-align:center;font-family:monospace;font-style:normal;fill:#00aeee"
     d="m 284.79492,635.38932 v -5.625 h -1.93359 v -1.46484 h 3.84115 v 7.08984 q 0,0.85938 0.26692,1.21745 0.26693,0.35807 0.90495,0.35807 h 1.52344 v 1.46485 h -2.05729 q -1.36068,0 -1.95313,-0.70313 -0.59245,-0.70312 -0.59245,-2.33724 z" />
  <path
     inkscape:connector-curvature="0"
     transform="matrix(0.000000,-0.750000,0.750000,0.000000,-381.239190,365.731842)"
     id="path8874"
     style="font-size:13.33333302px;-inkscape-font-specification:'monospace Bold';fill-opacity:1;font-weight:bold;letter-spacing:0px;text-anchor:middle;line-height:1.25;word-spacing:0px;stroke:none;font-stretch:normal;font-variant:normal;text-align:center;font-family:monospace;font-style:normal;fill:#00aeee"
     d="m 195.43945,655.09637 v -9.72005 h 1.92058 v 8.02735 h 4.10807 v 1.6927 z" />
  <path
     inkscape:connector-curvature="0"
     transform="matrix(0.000000,-0.750000,0.750000,0.000000,-381.239190,365.731842)"
     id="path8876"
     style="font-size:13.33333302px;-inkscape-font-specification:'monospace Bold';fill-opacity:1;font-weight:bold;letter-spacing:0px;text-anchor:middle;line-height:1.25;word-spacing:0px;stroke:none;font-stretch:normal;font-variant:normal;text-align:center;font-family:monospace;font-style:normal;fill:#00aeee"
     d="m 206.55925,651.6719 q -1.06771,0 -1.49089,0.27343 -0.42318,0.27344 -0.42318,0.9375 0,0.49479 0.29297,0.78776 0.29297,0.29297 0.79427,0.29297 0.75521,0 1.17188,-0.5664 0.41666,-0.57292 0.41666,-1.59506 v -0.1302 z m 2.65625,-0.73568 v 4.16015 h -1.89454 v -0.8138 q -0.34505,0.48177 -0.88541,0.74219 -0.54037,0.26042 -1.19141,0.26042 -1.24349,0 -1.9401,-0.65756 -0.69011,-0.65755 -0.69011,-1.83593 0,-1.27604 0.82683,-1.88151 0.82682,-0.61198 2.55859,-0.61198 h 1.32161 v -0.31901 q 0,-0.46224 -0.33854,-0.69662 -0.33203,-0.24088 -0.98307,-0.24088 -0.68359,0 -1.32813,0.17578 -0.63802,0.16927 -1.33463,0.54687 v -1.6276 q 0.63151,-0.26042 1.28255,-0.38412 0.65104,-0.12369 1.38021,-0.12369 1.77734,0 2.49349,0.72265 0.72266,0.72266 0.72266,2.58464 z" />
  <path
     inkscape:connector-curvature="0"
     transform="matrix(0.000000,-0.750000,0.750000,0.000000,-381.239190,365.731842)"
     id="path8878"
     style="font-size:13.33333302px;-inkscape-font-specification:'monospace Bold';fill-opacity:1;font-weight:bold;letter-spacing:0px;text-anchor:middle;line-height:1.25;word-spacing:0px;stroke:none;font-stretch:normal;font-variant:normal;text-align:center;font-family:monospace;font-style:normal;fill:#00aeee"
     d="m 214.6582,655.88413 q -0.38411,1.02865 -0.92448,1.4974 -0.53385,0.47526 -1.30208,0.47526 h -1.57552 v -1.45182 h 0.77474 q 0.58594,0 0.85937,-0.20182 0.27344,-0.19532 0.55339,-0.91797 l 0.14323,-0.39063 -2.77344,-7.08984 h 2.00521 l 1.66667,4.73307 1.59505,-4.73307 h 2.00521 z" />
  <path
     inkscape:connector-curvature="0"
     transform="matrix(0.000000,-0.750000,0.750000,0.000000,-381.239190,365.731842)"
     id="path8880"
     style="font-size:13.33333302px;-inkscape-font-specification:'monospace Bold';fill-opacity:1;font-weight:bold;letter-spacing:0px;text-anchor:middle;line-height:1.25;word-spacing:0px;stroke:none;font-stretch:normal;font-variant:normal;text-align:center;font-family:monospace;font-style:normal;fill:#00aeee"
     d="m 225.23112,654.7383 q -0.66406,0.27344 -1.35417,0.41016 -0.6901,0.13672 -1.45833,0.13672 -1.82943,0 -2.79948,-0.97657 -0.96354,-0.98307 -0.96354,-2.82552 0,-1.78385 0.93099,-2.81901 0.93099,-1.03515 2.53906,-1.03515 1.6211,0 2.51302,0.96354 0.89844,0.95703 0.89844,2.70182 v 0.77474 h -4.94141 q 0.007,0.85938 0.50782,1.28255 0.5013,0.42318 1.49739,0.42318 0.65755,0 1.29557,-0.1888 0.63803,-0.1888 1.33464,-0.59896 z m -1.61458,-4.10156 q -0.013,-0.75521 -0.39063,-1.13932 -0.37109,-0.39063 -1.10026,-0.39063 -0.65755,0 -1.04818,0.40365 -0.39062,0.39713 -0.46224,1.13281 z" />
  <path
     inkscape:connector-curvature="0"
     transform="matrix(0.000000,-0.750000,0.750000,0.000000,-381.239190,365.731842)"
     id="path8882"
     style="font-size:13.33333302px;-inkscape-font-specification:'monospace Bold';fill-opacity:1;font-weight:bold;letter-spacing:0px;text-anchor:middle;line-height:1.25;word-spacing:0px;stroke:none;font-stretch:normal;font-variant:normal;text-align:center;font-family:monospace;font-style:normal;fill:#00aeee"
     d="m 233.57747,649.81643 q -0.3125,-0.28646 -0.73567,-0.42969 -0.41667,-0.14323 -0.91797,-0.14323 -0.60547,0 -1.0612,0.21484 -0.44922,0.20834 -0.69661,0.61198 -0.15625,0.2474 -0.22136,0.59896 -0.0586,0.35156 -0.0586,1.06771 v 3.35937 h -1.90755 v -7.29166 h 1.90755 v 1.13281 q 0.27995,-0.625 0.85937,-0.96354 0.57943,-0.34505 1.35417,-0.34505 0.39062,0 0.76172,0.0977 0.3776,0.0911 0.71614,0.27344 z" />
  <path
     inkscape:connector-curvature="0"
     transform="matrix(0.000000,-0.750000,0.750000,0.000000,-381.239190,365.731842)"
     id="path8884"
     style="font-size:13.33333302px;-inkscape-font-specification:'monospace Bold';fill-opacity:1;font-weight:bold;letter-spacing:0px;text-anchor:middle;line-height:1.25;word-spacing:0px;stroke:none;font-stretch:normal;font-variant:normal;text-align:center;font-family:monospace;font-style:normal;fill:#00aeee"
     d="m 245.71289,650.74742 h -1.02864 v -1.69271 h 1.02864 q 0.71615,0 1.10677,-0.27995 0.39714,-0.28646 0.39714,-0.80078 0,-0.54037 -0.39714,-0.83985 -0.39062,-0.30598 -1.10677,-0.30598 -0.54687,0 -1.17187,0.13671 -0.625,0.13672 -1.29558,0.39714 v -1.74479 q 0.67058,-0.20183 1.32162,-0.30599 0.65104,-0.11068 1.25,-0.11068 1.53646,0 2.39583,0.67057 0.85938,0.67058 0.85938,1.84896 0,0.86589 -0.4948,1.41927 -0.49479,0.54688 -1.41276,0.71615 1.04167,0.18229 1.58855,0.83333 0.54687,0.64453 0.54687,1.69922 0,1.41276 -0.90495,2.15495 -0.90495,0.74219 -2.63021,0.74219 -0.73567,0 -1.45182,-0.1237 -0.70963,-0.1237 -1.36068,-0.35807 v -1.78386 q 0.61198,0.30599 1.32162,0.46875 0.70963,0.15625 1.49088,0.15625 0.78125,0 1.23698,-0.35807 0.45573,-0.36458 0.45573,-0.97656 0,-0.7487 -0.45573,-1.15235 -0.45573,-0.41015 -1.28906,-0.41015 z" />
  <path
     transform="matrix(0.000000,-0.750000,0.750000,0.000000,-169.863290,556.424883)"
     id="path8807"
     style="font-size:13.33333302px;-inkscape-font-specification:'monospace Bold';fill-opacity:1;font-weight:bold;letter-spacing:0px;text-anchor:middle;line-height:1.25;word-spacing:0px;stroke:none;font-stretch:normal;font-variant:normal;text-align:center;font-family:monospace;font-style:normal;fill:#00aeee"
     d="m 142.6888,628.70964 h 1.92058 v 3.70442 h 2.40234 v -3.70442 h 1.92057 v 9.72005 h -1.92057 v -4.32292 h -2.40234 v 4.32292 h -1.92058 z" />
  <path
     transform="matrix(0.000000,-0.750000,0.750000,0.000000,-169.863290,556.424883)"
     id="path8809"
     style="font-size:13.33333302px;-inkscape-font-specification:'monospace Bold';fill-opacity:1;font-weight:bold;letter-spacing:0px;text-anchor:middle;line-height:1.25;word-spacing:0px;stroke:none;font-stretch:normal;font-variant:normal;text-align:center;font-family:monospace;font-style:normal;fill:#00aeee"
     d="m 154.35547,628.26693 h 1.53646 v 1.60156 h -1.53646 z m -2.57161,0 h 1.53645 v 1.60156 h -1.53645 z m 2.05078,4.24479 q -0.6836,0 -1.07422,0.60547 -0.39063,0.59896 -0.39063,1.67317 0,1.07422 0.39063,1.67969 0.39062,0.59896 1.07422,0.59896 0.6901,0 1.08073,-0.59896 0.39062,-0.60547 0.39062,-1.67969 0,-1.07421 -0.39062,-1.67317 -0.39063,-0.60547 -1.08073,-0.60547 z m -3.3724,2.27864 q 0,-1.76432 0.91146,-2.79296 0.91797,-1.03516 2.46094,-1.03516 1.54948,0 2.46093,1.03516 0.91797,1.02864 0.91797,2.79296 0,1.76433 -0.91797,2.79948 -0.91145,1.02865 -2.46093,1.02865 -1.54297,0 -2.46094,-1.02865 -0.91146,-1.03515 -0.91146,-2.79948 z" />
  <path
     transform="matrix(0.000000,-0.750000,0.750000,0.000000,-169.863290,556.424883)"
     id="path8811"
     style="font-size:13.33333302px;-inkscape-font-specification:'monospace Bold';fill-opacity:1;font-weight:bold;letter-spacing:0px;text-anchor:middle;line-height:1.25;word-spacing:0px;stroke:none;font-stretch:normal;font-variant:normal;text-align:center;font-family:monospace;font-style:normal;fill:#00aeee"
     d="m 165.34505,633.14974 q -0.3125,-0.28646 -0.73567,-0.42969 -0.41667,-0.14323 -0.91797,-0.14323 -0.60547,0 -1.0612,0.21485 -0.44922,0.20833 -0.69661,0.61198 -0.15625,0.24739 -0.22136,0.59895 -0.0586,0.35157 -0.0586,1.06771 v 3.35938 h -1.90755 v -7.29167 h 1.90755 v 1.13281 q 0.27995,-0.625 0.85937,-0.96354 0.57943,-0.34505 1.35417,-0.34505 0.39062,0 0.76172,0.0977 0.3776,0.0911 0.71614,0.27343 z" />
  <path
     transform="matrix(0.000000,-0.750000,0.750000,0.000000,-169.863290,556.424883)"
     id="path8813"
     style="font-size:13.33333302px;-inkscape-font-specification:'monospace Bold';fill-opacity:1;font-weight:bold;letter-spacing:0px;text-anchor:middle;line-height:1.25;word-spacing:0px;stroke:none;font-stretch:normal;font-variant:normal;text-align:center;font-family:monospace;font-style:normal;fill:#00aeee"
     d="m 173.05339,638.07161 q -0.66407,0.27344 -1.35417,0.41016 -0.6901,0.13672 -1.45833,0.13672 -1.82943,0 -2.79948,-0.97656 -0.96354,-0.98308 -0.96354,-2.82552 0,-1.78386 0.93099,-2.81901 0.93099,-1.03516 2.53906,-1.03516 1.62109,0 2.51302,0.96354 0.89844,0.95703 0.89844,2.70182 v 0.77474 h -4.94141 q 0.007,0.85938 0.50781,1.28256 0.50131,0.42317 1.4974,0.42317 0.65755,0 1.29557,-0.1888 0.63802,-0.1888 1.33464,-0.59896 z m -1.61459,-4.10156 q -0.013,-0.75521 -0.39062,-1.13932 -0.37109,-0.39063 -1.10026,-0.39063 -0.65755,0 -1.04818,0.40365 -0.39062,0.39714 -0.46224,1.13281 z" />
  <path
     transform="matrix(0.000000,-0.750000,0.750000,0.000000,-169.863290,556.424883)"
     id="path8815"
     style="font-size:13.33333302px;-inkscape-font-specification:'monospace Bold';fill-opacity:1;font-weight:bold;letter-spacing:0px;text-anchor:middle;line-height:1.25;word-spacing:0px;stroke:none;font-stretch:normal;font-variant:normal;text-align:center;font-family:monospace;font-style:normal;fill:#00aeee"
     d="m 181.39974,633.14974 q -0.3125,-0.28646 -0.73568,-0.42969 -0.41666,-0.14323 -0.91796,-0.14323 -0.60547,0 -1.0612,0.21485 -0.44922,0.20833 -0.69662,0.61198 -0.15625,0.24739 -0.22135,0.59895 -0.0586,0.35157 -0.0586,1.06771 v 3.35938 h -1.90756 v -7.29167 h 1.90756 v 1.13281 q 0.27994,-0.625 0.85937,-0.96354 0.57943,-0.34505 1.35417,-0.34505 0.39062,0 0.76172,0.0977 0.3776,0.0911 0.71614,0.27343 z" />
  <path
     transform="matrix(0.000000,-0.750000,0.750000,0.000000,-169.863290,556.424883)"
     id="path8817"
     style="font-size:13.33333302px;-inkscape-font-specification:'monospace Bold';fill-opacity:1;font-weight:bold;letter-spacing:0px;text-anchor:middle;line-height:1.25;word-spacing:0px;stroke:none;font-stretch:normal;font-variant:normal;text-align:center;font-family:monospace;font-style:normal;fill:#00aeee"
     d="m 191.42578,638.42969 v -9.72005 h 1.92058 v 8.02734 h 4.10807 v 1.69271 z" />
  <path
     transform="matrix(0.000000,-0.750000,0.750000,0.000000,-169.863290,556.424883)"
     id="path8819"
     style="font-size:13.33333302px;-inkscape-font-specification:'monospace Bold';fill-opacity:1;font-weight:bold;letter-spacing:0px;text-anchor:middle;line-height:1.25;word-spacing:0px;stroke:none;font-stretch:normal;font-variant:normal;text-align:center;font-family:monospace;font-style:normal;fill:#00aeee"
     d="m 202.54557,635.00521 q -1.0677,0 -1.49088,0.27344 -0.42318,0.27343 -0.42318,0.9375 0,0.49479 0.29297,0.78776 0.29297,0.29296 0.79427,0.29296 0.75521,0 1.17188,-0.5664 0.41666,-0.57292 0.41666,-1.59505 v -0.13021 z m 2.65625,-0.73568 v 4.16016 h -1.89453 v -0.8138 q -0.34505,0.48177 -0.88541,0.74218 -0.54037,0.26042 -1.19141,0.26042 -1.24349,0 -1.9401,-0.65755 -0.69011,-0.65755 -0.69011,-1.83594 0,-1.27604 0.82683,-1.88151 0.82682,-0.61198 2.55859,-0.61198 h 1.32161 v -0.31901 q 0,-0.46224 -0.33854,-0.69661 -0.33203,-0.24089 -0.98307,-0.24089 -0.68359,0 -1.32813,0.17578 -0.63802,0.16927 -1.33463,0.54688 v -1.62761 q 0.63151,-0.26041 1.28255,-0.38411 0.65104,-0.1237 1.38021,-0.1237 1.77734,0 2.49349,0.72266 0.72265,0.72265 0.72265,2.58463 z" />
  <path
     transform="matrix(0.000000,-0.750000,0.750000,0.000000,-169.863290,556.424883)"
     id="path8821"
     style="font-size:13.33333302px;-inkscape-font-specification:'monospace Bold';fill-opacity:1;font-weight:bold;letter-spacing:0px;text-anchor:middle;line-height:1.25;word-spacing:0px;stroke:none;font-stretch:normal;font-variant:normal;text-align:center;font-family:monospace;font-style:normal;fill:#00aeee"
     d="m 210.64453,639.21745 q -0.38411,1.02864 -0.92448,1.49739 -0.53385,0.47526 -1.30208,0.47526 h -1.57552 v -1.45182 h 0.77474 q 0.58594,0 0.85937,-0.20182 0.27344,-0.19531 0.55339,-0.91797 l 0.14323,-0.39063 -2.77344,-7.08984 h 2.00521 l 1.66667,4.73307 1.59505,-4.73307 h 2.00521 z" />
  <path
     transform="matrix(0.000000,-0.750000,0.750000,0.000000,-169.863290,556.424883)"
     id="path8823"
     style="font-size:13.33333302px;-inkscape-font-specification:'monospace Bold';fill-opacity:1;font-weight:bold;letter-spacing:0px;text-anchor:middle;line-height:1.25;word-spacing:0px;stroke:none;font-stretch:normal;font-variant:normal;text-align:center;font-family:monospace;font-style:normal;fill:#00aeee"
     d="m 221.21745,638.07161 q -0.66406,0.27344 -1.35417,0.41016 -0.6901,0.13672 -1.45833,0.13672 -1.82943,0 -2.79948,-0.97656 -0.96354,-0.98308 -0.96354,-2.82552 0,-1.78386 0.93099,-2.81901 0.93099,-1.03516 2.53906,-1.03516 1.62109,0 2.51302,0.96354 0.89844,0.95703 0.89844,2.70182 v 0.77474 h -4.94141 q 0.007,0.85938 0.50782,1.28256 0.5013,0.42317 1.49739,0.42317 0.65755,0 1.29557,-0.1888 0.63803,-0.1888 1.33464,-0.59896 z m -1.61458,-4.10156 q -0.013,-0.75521 -0.39063,-1.13932 -0.37109,-0.39063 -1.10026,-0.39063 -0.65755,0 -1.04818,0.40365 -0.39062,0.39714 -0.46224,1.13281 z" />
  <path
     transform="matrix(0.000000,-0.750000,0.750000,0.000000,-169.863290,556.424883)"
     id="path8825"
     style="font-size:13.33333302px;-inkscape-font-specification:'monospace Bold';fill-opacity:1;font-weight:bold;letter-spacing:0px;text-anchor:middle;line-height:1.25;word-spacing:0px;stroke:none;font-stretch:normal;font-variant:normal;text-align:center;font-family:monospace;font-style:normal;fill:#00aeee"
     d="m 229.5638,633.14974 q -0.3125,-0.28646 -0.73567,-0.42969 -0.41667,-0.14323 -0.91797,-0.14323 -0.60547,0 -1.0612,0.21485 -0.44922,0.20833 -0.69661,0.61198 -0.15625,0.24739 -0.22136,0.59895 -0.0586,0.35157 -0.0586,1.06771 v 3.35938 h -1.90755 v -7.29167 h 1.90755 v 1.13281 q 0.27995,-0.625 0.85937,-0.96354 0.57943,-0.34505 1.35417,-0.34505 0.39062,0 0.76172,0.0977 0.3776,0.0911 0.71614,0.27343 z" />
  <path
     transform="matrix(0.000000,-0.750000,0.750000,0.000000,-169.863290,556.424883)"
     id="path8827"
     style="font-size:13.33333302px;-inkscape-font-specification:'monospace Bold';fill-opacity:1;font-weight:bold;letter-spacing:0px;text-anchor:middle;line-height:1.25;word-spacing:0px;stroke:none;font-stretch:normal;font-variant:normal;text-align:center;font-family:monospace;font-style:normal;fill:#00aeee"
     d="m 240.95052,636.73698 h 4.09505 v 1.69271 h -6.17187 v -1.64063 l 1.04167,-1.10677 q 1.85547,-1.97265 2.2526,-2.42838 0.48828,-0.5599 0.70313,-0.98959 0.21484,-0.4362 0.21484,-0.85937 0,-0.65104 -0.39714,-1.00261 -0.39062,-0.35807 -1.11328,-0.35807 -0.51432,0 -1.15885,0.20833 -0.63802,0.20183 -1.33464,0.59245 v -1.79036 q 0.69662,-0.25391 1.36068,-0.38412 0.67057,-0.13672 1.28255,-0.13672 1.54297,0 2.42188,0.72266 0.88541,0.71615 0.88541,1.95964 0,0.57291 -0.19531,1.07421 -0.1888,0.50131 -0.65755,1.11329 -0.34505,0.4427 -1.89453,1.99218 -0.83985,0.83985 -1.33464,1.34115 z" />
  <path
     transform="matrix(0.000000,-0.750000,0.750000,0.000000,-169.863290,556.424883)"
     id="path8829"
     style="font-size:13.33333302px;-inkscape-font-specification:'monospace Bold';fill-opacity:1;font-weight:bold;letter-spacing:0px;text-anchor:middle;line-height:1.25;word-spacing:0px;stroke:none;font-stretch:normal;font-variant:normal;text-align:center;font-family:monospace;font-style:normal;fill:#00aeee"
     d="m 261.67318,633.14974 q -0.3125,-0.28646 -0.73568,-0.42969 -0.41666,-0.14323 -0.91797,-0.14323 -0.60547,0 -1.06119,0.21485 -0.44922,0.20833 -0.69662,0.61198 -0.15625,0.24739 -0.22135,0.59895 -0.0586,0.35157 -0.0586,1.06771 v 3.35938 h -1.90755 v -7.29167 h 1.90755 v 1.13281 q 0.27995,-0.625 0.85938,-0.96354 0.57942,-0.34505 1.35416,-0.34505 0.39063,0 0.76172,0.0977 0.37761,0.0911 0.71615,0.27343 z" />
  <path
     transform="matrix(0.000000,-0.750000,0.750000,0.000000,-169.863290,556.424883)"
     id="path8831"
     style="font-size:13.33333302px;-inkscape-font-specification:'monospace Bold';fill-opacity:1;font-weight:bold;letter-spacing:0px;text-anchor:middle;line-height:1.25;word-spacing:0px;stroke:none;font-stretch:normal;font-variant:normal;text-align:center;font-family:monospace;font-style:normal;fill:#00aeee"
     d="m 269.38151,638.07161 q -0.66406,0.27344 -1.35416,0.41016 -0.69011,0.13672 -1.45834,0.13672 -1.82942,0 -2.79948,-0.97656 -0.96354,-0.98308 -0.96354,-2.82552 0,-1.78386 0.93099,-2.81901 0.93099,-1.03516 2.53906,-1.03516 1.6211,0 2.51302,0.96354 0.89844,0.95703 0.89844,2.70182 v 0.77474 h -4.9414 q 0.007,0.85938 0.50781,1.28256 0.5013,0.42317 1.49739,0.42317 0.65756,0 1.29558,-0.1888 0.63802,-0.1888 1.33463,-0.59896 z m -1.61458,-4.10156 q -0.013,-0.75521 -0.39063,-1.13932 -0.37109,-0.39063 -1.10026,-0.39063 -0.65755,0 -1.04817,0.40365 -0.39063,0.39714 -0.46224,1.13281 z" />
  <path
     transform="matrix(0.000000,-0.750000,0.750000,0.000000,-169.863290,556.424883)"
     id="path8833"
     style="font-size:13.33333302px;-inkscape-font-specification:'monospace Bold';fill-opacity:1;font-weight:bold;letter-spacing:0px;text-anchor:middle;line-height:1.25;word-spacing:0px;stroke:none;font-stretch:normal;font-variant:normal;text-align:center;font-family:monospace;font-style:normal;fill:#00aeee"
     d="m 277.14193,638.05859 q -0.48177,0.27995 -1.03516,0.41667 -0.55338,0.14323 -1.1914,0.14323 -1.6862,0 -2.63672,-1.01563 -0.95052,-1.01562 -0.95052,-2.8125 0,-1.80338 0.95703,-2.81901 0.95703,-1.02213 2.64323,-1.02213 0.58593,0 1.1263,0.13672 0.54687,0.13672 1.08724,0.42317 v 1.7448 q -0.41667,-0.35808 -0.91797,-0.54688 -0.49479,-0.19531 -1.02865,-0.19531 -0.93099,0 -1.43229,0.59245 -0.5013,0.59244 -0.5013,1.68619 0,1.09375 0.5013,1.67969 0.5013,0.58594 1.43229,0.58594 0.55339,0 1.03516,-0.18229 0.48177,-0.1888 0.91146,-0.56641 z" />
  <path
     transform="matrix(0.000000,-0.750000,0.750000,0.000000,-169.863290,556.424883)"
     id="path8835"
     style="font-size:13.33333302px;-inkscape-font-specification:'monospace Bold';fill-opacity:1;font-weight:bold;letter-spacing:0px;text-anchor:middle;line-height:1.25;word-spacing:0px;stroke:none;font-stretch:normal;font-variant:normal;text-align:center;font-family:monospace;font-style:normal;fill:#00aeee"
     d="m 285.23438,633.69661 v 4.73308 h -1.89453 v -4.44011 q 0,-0.78776 -0.22787,-1.1263 -0.22135,-0.33854 -0.72917,-0.33854 -0.52083,0 -0.8138,0.46224 -0.29297,0.45573 -0.29297,1.26953 v 4.17318 h -1.89453 v -10.13021 h 1.89453 v 3.93229 q 0.20183,-0.60547 0.69011,-0.9375 0.48828,-0.33203 1.17838,-0.33203 1.03516,0 1.5625,0.6901 0.52735,0.6836 0.52735,2.04427 z" />
  <path
     transform="matrix(0.000000,-0.750000,0.750000,0.000000,-169.863290,556.424883)"
     id="path8837"
     style="font-size:13.33333302px;-inkscape-font-specification:'monospace Bold';fill-opacity:1;font-weight:bold;letter-spacing:0px;text-anchor:middle;line-height:1.25;word-spacing:0px;stroke:none;font-stretch:normal;font-variant:normal;text-align:center;font-family:monospace;font-style:normal;fill:#00aeee"
     d="m 290.78125,629.06771 v 2.07031 h 2.49349 v 1.46484 h -2.49349 v 3.45053 q 0,0.48828 0.23438,0.70312 0.24088,0.20833 0.79427,0.20833 h 1.46484 v 1.46485 h -1.60156 q -1.64063,0 -2.22005,-0.52084 -0.57943,-0.52734 -0.57943,-1.94661 v -3.35938 h -1.86198 v -1.46484 h 1.86198 v -2.07031 z" />
  <path
     transform="matrix(0.000000,-0.750000,0.750000,0.000000,-169.863290,556.424883)"
     id="path8839"
     style="font-size:13.33333302px;-inkscape-font-specification:'monospace Bold';fill-opacity:1;font-weight:bold;letter-spacing:0px;text-anchor:middle;line-height:1.25;word-spacing:0px;stroke:none;font-stretch:normal;font-variant:normal;text-align:center;font-family:monospace;font-style:normal;fill:#00aeee"
     d="m 300.76823,631.36589 v 1.66666 q -0.52734,-0.33854 -1.10026,-0.50781 -0.56641,-0.17578 -1.13932,-0.17578 -0.63802,0 -0.96354,0.1888 -0.32552,0.18229 -0.32552,0.54688 0,0.52083 1.39322,0.84635 l 0.0716,0.0195 0.54687,0.13021 q 1.04167,0.24739 1.52344,0.80078 0.48828,0.54688 0.48828,1.48438 0,1.1263 -0.74218,1.6927 -0.73568,0.5599 -2.22006,0.5599 -0.65755,0 -1.34765,-0.11719 -0.69011,-0.11068 -1.39974,-0.33854 v -1.66667 q 0.63151,0.35808 1.28255,0.54688 0.65755,0.1888 1.26953,0.1888 0.67057,0 1.01563,-0.19531 0.34505,-0.19531 0.34505,-0.56641 0,-0.36458 -0.2474,-0.55989 -0.24088,-0.19532 -1.15885,-0.41667 l -0.52735,-0.11719 q -1.09375,-0.24739 -1.59505,-0.77474 -0.5013,-0.52734 -0.5013,-1.41276 0,-1.05469 0.76172,-1.64062 0.76172,-0.58594 2.14193,-0.58594 0.61849,0 1.23046,0.10417 0.61849,0.0976 1.19792,0.29948 z" />
  <path
     inkscape:connector-curvature="0"
     style="stroke:#ec008c;stroke-dasharray:none;stroke-opacity:1;fill-opacity:1;stroke-miterlimit:10;stroke-width:1.82783318;fill:none"
     d="m -290.69922,237.89062 v 138.5 h 28.625 v 26.26954 h -9.70703 v 543.23828 h 80.70117 V 237.89062 Z"
     transform="matrix(0.750000,0.000000,0.000000,0.750000,486.850330,-53.977947)"
     id="rect1797-6-5-64-3-9" />
  <path
     transform="matrix(0.000000,-1.000000,1.000000,0.000000,3.935140,751.311640)"
     inkscape:connector-curvature="0"
     d="m 108.56017,369.30049 c -1.56061,0 -2.82705,-1.26669 -2.82705,-2.82884 0,-1.56314 1.26644,-2.82982 2.82705,-2.82982 1.56062,0 2.82609,1.26668 2.82609,2.82982 0,1.56215 -1.26547,2.82884 -2.82609,2.82884"
     style="stroke:#ec008c;stroke-miterlimit:10;stroke-opacity:1;fill-rule:nonzero;clip-rule:evenodd;stroke-width:0.99768871;fill:none"
     id="path561-9-1-31-3-7-3-5-2-3-9-4-9-06-8-5-1-24" />
  <path
     transform="matrix(0.000000,-1.000000,1.000000,0.000000,3.935140,751.311640)"
     inkscape:connector-curvature="0"
     d="m 111.48838,366.47172 h -5.9833"
     style="stroke:#000000;stroke-miterlimit:10;stroke-opacity:1;fill-rule:nonzero;clip-rule:evenodd;stroke-width:0.67318708px;fill:none"
     id="path565-7-5-9-2-0-5-92-9-6-0-3-1-2-8-9-7-7" />
  <path
     transform="matrix(0.000000,-1.000000,1.000000,0.000000,3.935140,751.311640)"
     inkscape:connector-curvature="0"
     d="m 108.55903,369.42474 v -5.98916"
     style="stroke:#000000;stroke-miterlimit:10;stroke-opacity:1;fill-rule:nonzero;clip-rule:evenodd;stroke-width:0.67318743px;fill:none"
     id="path569-2-4-47-0-9-6-28-3-1-2-1-2-6-5-2-2-7" />
  <path
     transform="matrix(0.000000,-1.000000,1.000000,0.000000,127.412660,751.311600)"
     inkscape:connector-curvature="0"
     d="m 108.56017,369.30049 c -1.56061,0 -2.82705,-1.26669 -2.82705,-2.82884 0,-1.56314 1.26644,-2.82982 2.82705,-2.82982 1.56062,0 2.82609,1.26668 2.82609,2.82982 0,1.56215 -1.26547,2.82884 -2.82609,2.82884"
     style="stroke:#ec008c;stroke-miterlimit:10;stroke-opacity:1;fill-rule:nonzero;clip-rule:evenodd;stroke-width:0.99768871;fill:none"
     id="path561-9-1-31-3-7-3-5-2-3-9-4-9-06-8-5-1-1" />
  <path
     transform="matrix(0.000000,-1.000000,1.000000,0.000000,127.412660,751.311600)"
     inkscape:connector-curvature="0"
     d="m 111.48838,366.47172 h -5.9833"
     style="stroke:#000000;stroke-miterlimit:10;stroke-opacity:1;fill-rule:nonzero;clip-rule:evenodd;stroke-width:0.67318708px;fill:none"
     id="path565-7-5-9-2-0-5-92-9-6-0-3-1-2-8-9-7-2" />
  <path
     transform="matrix(0.000000,-1.000000,1.000000,0.000000,127.412660,751.311600)"
     inkscape:connector-curvature="0"
     d="m 108.55903,369.42474 v -5.98916"
     style="stroke:#000000;stroke-miterlimit:10;stroke-opacity:1;fill-rule:nonzero;clip-rule:evenodd;stroke-width:0.67318743px;fill:none"
     id="path569-2-4-47-0-9-6-28-3-1-2-1-2-6-5-2-2-8" />
  <path
     transform="matrix(0.000000,-1.000000,1.000000,0.000000,-35.624900,751.311560)"
     inkscape:connector-curvature="0"
     d="m 108.56017,369.30049 c -1.56061,0 -2.82705,-1.26669 -2.82705,-2.82884 0,-1.56314 1.26644,-2.82982 2.82705,-2.82982 1.56062,0 2.82609,1.26668 2.82609,2.82982 0,1.56215 -1.26547,2.82884 -2.82609,2.82884"
     style="stroke:#ec008c;stroke-miterlimit:10;stroke-opacity:1;fill-rule:nonzero;clip-rule:evenodd;stroke-width:0.99768871;fill:none"
     id="path561-9-1-31-3-7-3-5-2-3-9-4-9-06-8-5-1-5" />
  <path
     transform="matrix(0.000000,-1.000000,1.000000,0.000000,-35.624900,751.311560)"
     inkscape:connector-curvature="0"
     d="m 111.48838,366.47172 h -5.9833"
     style="stroke:#000000;stroke-miterlimit:10;stroke-opacity:1;fill-rule:nonzero;clip-rule:evenodd;stroke-width:0.67318708px;fill:none"
     id="path565-7-5-9-2-0-5-92-9-6-0-3-1-2-8-9-7-06" />
  <path
     transform="matrix(0.000000,-1.000000,1.000000,0.000000,-35.624900,751.311560)"
     inkscape:connector-curvature="0"
     d="m 108.55903,369.42474 v -5.98916"
     style="stroke:#000000;stroke-miterlimit:10;stroke-opacity:1;fill-rule:nonzero;clip-rule:evenodd;stroke-width:0.67318743px;fill:none"
     id="path569-2-4-47-0-9-6-28-3-1-2-1-2-6-5-2-2-46" />
  <path
     transform="matrix(1.000000,0.000000,0.000000,1.000000,-253.591745,77.919748)"
     id="path561-9-1-31-3-7-3-5-2-3-9-4-9-06-8-5-1-2-4-62"
     style="stroke:#ec008c;clip-rule:evenodd;stroke-opacity:1;fill-rule:nonzero;stroke-miterlimit:10;stroke-width:0.99768871;fill:none"
     d="m 388.3807,59.213881 c 0,1.56061 -1.26669,2.82705 -2.82884,2.82705 -1.56314,0 -2.82982,-1.26644 -2.82982,-2.82705 0,-1.56062 1.26668,-2.82609 2.82982,-2.82609 1.56215,0 2.82884,1.26547 2.82884,2.82609"
     inkscape:connector-curvature="0" />
  <path
     transform="matrix(1.000000,0.000000,0.000000,1.000000,-253.591745,77.919748)"
     id="path565-7-5-9-2-0-5-92-9-6-0-3-1-2-8-9-7-5-3-9"
     style="stroke:#000000;clip-rule:evenodd;stroke-opacity:1;fill-rule:nonzero;stroke-miterlimit:10;stroke-width:0.67318708px;fill:none"
     d="m 385.55193,56.285671 v 5.9833"
     inkscape:connector-curvature="0" />
  <path
     transform="matrix(1.000000,0.000000,0.000000,1.000000,-253.591745,77.919748)"
     id="path569-2-4-47-0-9-6-28-3-1-2-1-2-6-5-2-2-4-5-1"
     style="stroke:#000000;clip-rule:evenodd;stroke-opacity:1;fill-rule:nonzero;stroke-miterlimit:10;stroke-width:0.67318743px;fill:none"
     d="m 388.50495,59.215021 h -5.98916"
     inkscape:connector-curvature="0" />
  <path
     transform="matrix(1.000000,0.000000,0.000000,1.000000,-191.852980,77.919748)"
     id="path561-9-1-31-3-7-3-5-2-3-9-4-9-06-8-5-1-2-4-6-7"
     style="stroke:#ec008c;clip-rule:evenodd;stroke-opacity:1;fill-rule:nonzero;stroke-miterlimit:10;stroke-width:0.99768871;fill:none"
     d="m 388.3807,59.213881 c 0,1.56061 -1.26669,2.82705 -2.82884,2.82705 -1.56314,0 -2.82982,-1.26644 -2.82982,-2.82705 0,-1.56062 1.26668,-2.82609 2.82982,-2.82609 1.56215,0 2.82884,1.26547 2.82884,2.82609"
     inkscape:connector-curvature="0" />
  <path
     transform="matrix(1.000000,0.000000,0.000000,1.000000,-191.852980,77.919748)"
     id="path565-7-5-9-2-0-5-92-9-6-0-3-1-2-8-9-7-5-3-7-0"
     style="stroke:#000000;clip-rule:evenodd;stroke-opacity:1;fill-rule:nonzero;stroke-miterlimit:10;stroke-width:0.67318708px;fill:none"
     d="m 385.55193,56.285671 v 5.9833"
     inkscape:connector-curvature="0" />
  <path
     transform="matrix(1.000000,0.000000,0.000000,1.000000,-191.852980,77.919748)"
     id="path569-2-4-47-0-9-6-28-3-1-2-1-2-6-5-2-2-4-5-5-9"
     style="stroke:#000000;clip-rule:evenodd;stroke-opacity:1;fill-rule:nonzero;stroke-miterlimit:10;stroke-width:0.67318743px;fill:none"
     d="m 388.50495,59.215021 h -5.98916"
     inkscape:connector-curvature="0" />
  <path
     transform="matrix(1.000000,0.000000,0.000000,1.000000,-253.591745,202.039068)"
     id="path561-9-1-31-3-7-3-5-2-3-9-4-9-06-8-5-1-2-4-626"
     style="stroke:#ec008c;clip-rule:evenodd;stroke-opacity:1;fill-rule:nonzero;stroke-miterlimit:10;stroke-width:0.99768871;fill:none"
     d="m 388.3807,59.213881 c 0,1.56061 -1.26669,2.82705 -2.82884,2.82705 -1.56314,0 -2.82982,-1.26644 -2.82982,-2.82705 0,-1.56062 1.26668,-2.82609 2.82982,-2.82609 1.56215,0 2.82884,1.26547 2.82884,2.82609"
     inkscape:connector-curvature="0" />
  <path
     transform="matrix(1.000000,0.000000,0.000000,1.000000,-253.591745,202.039068)"
     id="path565-7-5-9-2-0-5-92-9-6-0-3-1-2-8-9-7-5-3-1"
     style="stroke:#000000;clip-rule:evenodd;stroke-opacity:1;fill-rule:nonzero;stroke-miterlimit:10;stroke-width:0.67318708px;fill:none"
     d="m 385.55193,56.285671 v 5.9833"
     inkscape:connector-curvature="0" />
  <path
     transform="matrix(1.000000,0.000000,0.000000,1.000000,-253.591745,202.039068)"
     id="path569-2-4-47-0-9-6-28-3-1-2-1-2-6-5-2-2-4-5-8"
     style="stroke:#000000;clip-rule:evenodd;stroke-opacity:1;fill-rule:nonzero;stroke-miterlimit:10;stroke-width:0.67318743px;fill:none"
     d="m 388.50495,59.215021 h -5.98916"
     inkscape:connector-curvature="0" />
  <path
     transform="matrix(1.000000,0.000000,0.000000,1.000000,-191.852980,202.039068)"
     id="path561-9-1-31-3-7-3-5-2-3-9-4-9-06-8-5-1-2-4-6-9"
     style="stroke:#ec008c;clip-rule:evenodd;stroke-opacity:1;fill-rule:nonzero;stroke-miterlimit:10;stroke-width:0.99768871;fill:none"
     d="m 388.3807,59.213881 c 0,1.56061 -1.26669,2.82705 -2.82884,2.82705 -1.56314,0 -2.82982,-1.26644 -2.82982,-2.82705 0,-1.56062 1.26668,-2.82609 2.82982,-2.82609 1.56215,0 2.82884,1.26547 2.82884,2.82609"
     inkscape:connector-curvature="0" />
  <path
     transform="matrix(1.000000,0.000000,0.000000,1.000000,-191.852980,202.039068)"
     id="path565-7-5-9-2-0-5-92-9-6-0-3-1-2-8-9-7-5-3-7-2"
     style="stroke:#000000;clip-rule:evenodd;stroke-opacity:1;fill-rule:nonzero;stroke-miterlimit:10;stroke-width:0.67318708px;fill:none"
     d="m 385.55193,56.285671 v 5.9833"
     inkscape:connector-curvature="0" />
  <path
     transform="matrix(1.000000,0.000000,0.000000,1.000000,-191.852980,202.039068)"
     id="path569-2-4-47-0-9-6-28-3-1-2-1-2-6-5-2-2-4-5-5-0"
     style="stroke:#000000;clip-rule:evenodd;stroke-opacity:1;fill-rule:nonzero;stroke-miterlimit:10;stroke-width:0.67318743px;fill:none"
     d="m 388.50495,59.215021 h -5.98916"
     inkscape:connector-curvature="0" />
  <path
     transform="matrix(-1.000000,0.000000,-0.000000,-1.000000,685.125360,320.466760)"
     inkscape:connector-curvature="0"
     d="m 388.3807,59.213881 c 0,1.56061 -1.26669,2.82705 -2.82884,2.82705 -1.56314,0 -2.82982,-1.26644 -2.82982,-2.82705 0,-1.56062 1.26668,-2.82609 2.82982,-2.82609 1.56215,0 2.82884,1.26547 2.82884,2.82609"
     style="stroke:#ec008c;stroke-miterlimit:10;stroke-opacity:1;fill-rule:nonzero;clip-rule:evenodd;stroke-width:0.99768871;fill:none"
     id="path561-9-1-31-3-7-3-5-2-3-9-4-9-06-8-5-1-2-4-62-9" />
  <path
     transform="matrix(-1.000000,0.000000,-0.000000,-1.000000,685.125360,320.466760)"
     inkscape:connector-curvature="0"
     d="m 385.55193,56.285671 v 5.9833"
     style="stroke:#000000;stroke-miterlimit:10;stroke-opacity:1;fill-rule:nonzero;clip-rule:evenodd;stroke-width:0.67318708px;fill:none"
     id="path565-7-5-9-2-0-5-92-9-6-0-3-1-2-8-9-7-5-3-9-4" />
  <path
     transform="matrix(-1.000000,0.000000,-0.000000,-1.000000,685.125360,320.466760)"
     inkscape:connector-curvature="0"
     d="m 388.50495,59.215021 h -5.98916"
     style="stroke:#000000;stroke-miterlimit:10;stroke-opacity:1;fill-rule:nonzero;clip-rule:evenodd;stroke-width:0.67318743px;fill:none"
     id="path569-2-4-47-0-9-6-28-3-1-2-1-2-6-5-2-2-4-5-1-7" />
  <path
     transform="matrix(-1.000000,0.000000,-0.000000,-1.000000,685.125360,196.347432)"
     inkscape:connector-curvature="0"
     d="m 388.3807,59.213881 c 0,1.56061 -1.26669,2.82705 -2.82884,2.82705 -1.56314,0 -2.82982,-1.26644 -2.82982,-2.82705 0,-1.56062 1.26668,-2.82609 2.82982,-2.82609 1.56215,0 2.82884,1.26547 2.82884,2.82609"
     style="stroke:#ec008c;stroke-miterlimit:10;stroke-opacity:1;fill-rule:nonzero;clip-rule:evenodd;stroke-width:0.99768871;fill:none"
     id="path561-9-1-31-3-7-3-5-2-3-9-4-9-06-8-5-1-2-4-626-4" />
  <path
     transform="matrix(-1.000000,0.000000,-0.000000,-1.000000,685.125360,196.347432)"
     inkscape:connector-curvature="0"
     d="m 385.55193,56.285671 v 5.9833"
     style="stroke:#000000;stroke-miterlimit:10;stroke-opacity:1;fill-rule:nonzero;clip-rule:evenodd;stroke-width:0.67318708px;fill:none"
     id="path565-7-5-9-2-0-5-92-9-6-0-3-1-2-8-9-7-5-3-1-5" />
  <path
     transform="matrix(-1.000000,0.000000,-0.000000,-1.000000,685.125360,196.347432)"
     inkscape:connector-curvature="0"
     d="m 388.50495,59.215021 h -5.98916"
     style="stroke:#000000;stroke-miterlimit:10;stroke-opacity:1;fill-rule:nonzero;clip-rule:evenodd;stroke-width:0.67318743px;fill:none"
     id="path569-2-4-47-0-9-6-28-3-1-2-1-2-6-5-2-2-4-5-8-0" />
  <path
     transform="matrix(0.000000,-1.000000,1.000000,0.000000,125.032390,832.401750)"
     inkscape:connector-curvature="0"
     id="path2538"
     style="font-size:10px;font-family:monospace;fill-opacity:1;font-weight:bold;letter-spacing:0px;line-height:1.25;word-spacing:0px;stroke:none;-inkscape-font-specification:'monospace Bold';font-stretch:normal;font-variant:normal;stroke-width:0.75;font-style:normal;fill:#00aeee"
     d="m 403.98462,302.59851 h 1.44043 v 2.77832 h 1.80176 v -2.77832 h 1.44043 v 7.29004 h -1.44043 v -3.24219 h -1.80176 v 3.24219 h -1.44043 z" />
  <path
     transform="matrix(0.000000,-1.000000,1.000000,0.000000,125.032390,832.401750)"
     inkscape:connector-curvature="0"
     id="path2540"
     style="font-size:10px;font-family:monospace;fill-opacity:1;font-weight:bold;letter-spacing:0px;line-height:1.25;word-spacing:0px;stroke:none;-inkscape-font-specification:'monospace Bold';font-stretch:normal;font-variant:normal;stroke-width:0.75;font-style:normal;fill:#00aeee"
     d="m 412.73462,302.26648 h 1.15234 v 1.20117 h -1.15234 z m -1.92871,0 h 1.15234 v 1.20117 h -1.15234 z m 1.53808,3.18359 q -0.51269,0 -0.80566,0.4541 -0.29297,0.44922 -0.29297,1.25489 0,0.80566 0.29297,1.25976 0.29297,0.44922 0.80566,0.44922 0.51758,0 0.81055,-0.44922 0.29297,-0.4541 0.29297,-1.25976 0,-0.80567 -0.29297,-1.25489 -0.29297,-0.4541 -0.81055,-0.4541 z m -2.52929,1.70899 q 0,-1.32324 0.68359,-2.09473 0.68848,-0.77637 1.8457,-0.77637 1.16211,0 1.84571,0.77637 0.68847,0.77149 0.68847,2.09473 0,1.32324 -0.68847,2.09961 -0.6836,0.77148 -1.84571,0.77148 -1.15722,0 -1.8457,-0.77148 -0.68359,-0.77637 -0.68359,-2.09961 z" />
  <path
     transform="matrix(0.000000,-1.000000,1.000000,0.000000,125.032390,832.401750)"
     inkscape:connector-curvature="0"
     id="path2542"
     style="font-size:10px;font-family:monospace;fill-opacity:1;font-weight:bold;letter-spacing:0px;line-height:1.25;word-spacing:0px;stroke:none;-inkscape-font-specification:'monospace Bold';font-stretch:normal;font-variant:normal;stroke-width:0.75;font-style:normal;fill:#00aeee"
     d="m 420.97681,305.92859 q -0.23438,-0.21484 -0.55176,-0.32227 -0.3125,-0.10742 -0.68848,-0.10742 -0.4541,0 -0.7959,0.16113 -0.33691,0.15625 -0.52246,0.45899 -0.11718,0.18555 -0.16601,0.44922 -0.0439,0.26367 -0.0439,0.80078 v 2.51953 h -1.43066 v -5.46875 h 1.43066 v 0.84961 q 0.20996,-0.46875 0.64453,-0.72266 0.43457,-0.25879 1.01563,-0.25879 0.29297,0 0.57129,0.0733 0.2832,0.0684 0.53711,0.20507 z" />
  <path
     transform="matrix(0.000000,-1.000000,1.000000,0.000000,125.032390,832.401750)"
     inkscape:connector-curvature="0"
     id="path2544"
     style="font-size:10px;font-family:monospace;fill-opacity:1;font-weight:bold;letter-spacing:0px;line-height:1.25;word-spacing:0px;stroke:none;-inkscape-font-specification:'monospace Bold';font-stretch:normal;font-variant:normal;stroke-width:0.75;font-style:normal;fill:#00aeee"
     d="m 426.75806,309.62 q -0.49805,0.20507 -1.01563,0.30761 -0.51758,0.10254 -1.09375,0.10254 -1.37207,0 -2.09961,-0.73242 -0.72265,-0.73731 -0.72265,-2.11914 0,-1.33789 0.69824,-2.11426 0.69824,-0.77637 1.9043,-0.77637 1.21582,0 1.88476,0.72266 0.67383,0.71777 0.67383,2.02637 v 0.58105 h -3.70606 q 0.005,0.64453 0.38086,0.96192 0.37598,0.31738 1.12305,0.31738 0.49316,0 0.97168,-0.1416 0.47852,-0.1416 1.00098,-0.44922 z m -1.21094,-3.07618 q -0.01,-0.5664 -0.29297,-0.85449 -0.27832,-0.29297 -0.82519,-0.29297 -0.49317,0 -0.78614,0.30274 -0.29297,0.29785 -0.34668,0.84961 z" />
  <path
     transform="matrix(0.000000,-1.000000,1.000000,0.000000,125.032390,832.401750)"
     inkscape:connector-curvature="0"
     id="path2546"
     style="font-size:10px;font-family:monospace;fill-opacity:1;font-weight:bold;letter-spacing:0px;line-height:1.25;word-spacing:0px;stroke:none;-inkscape-font-specification:'monospace Bold';font-stretch:normal;font-variant:normal;stroke-width:0.75;font-style:normal;fill:#00aeee"
     d="m 433.01782,305.92859 q -0.23437,-0.21484 -0.55176,-0.32227 -0.3125,-0.10742 -0.68847,-0.10742 -0.4541,0 -0.7959,0.16113 -0.33691,0.15625 -0.52246,0.45899 -0.11719,0.18555 -0.16602,0.44922 -0.0439,0.26367 -0.0439,0.80078 v 2.51953 h -1.43067 v -5.46875 h 1.43067 v 0.84961 q 0.20996,-0.46875 0.64453,-0.72266 0.43457,-0.25879 1.01562,-0.25879 0.29297,0 0.57129,0.0733 0.28321,0.0684 0.53711,0.20507 z" />
  <path
     transform="matrix(0.000000,-1.000000,1.000000,0.000000,125.032390,832.401750)"
     inkscape:connector-curvature="0"
     id="path2548"
     style="font-size:10px;font-family:monospace;fill-opacity:1;font-weight:bold;letter-spacing:0px;line-height:1.25;word-spacing:0px;stroke:none;-inkscape-font-specification:'monospace Bold';font-stretch:normal;font-variant:normal;stroke-width:0.75;font-style:normal;fill:#00aeee"
     d="m 440.53735,309.88855 v -7.29004 h 1.44043 v 6.02051 h 3.08106 v 1.26953 z" />
  <path
     transform="matrix(0.000000,-1.000000,1.000000,0.000000,125.032390,832.401750)"
     inkscape:connector-curvature="0"
     id="path2550"
     style="font-size:10px;font-family:monospace;fill-opacity:1;font-weight:bold;letter-spacing:0px;line-height:1.25;word-spacing:0px;stroke:none;-inkscape-font-specification:'monospace Bold';font-stretch:normal;font-variant:normal;stroke-width:0.75;font-style:normal;fill:#00aeee"
     d="m 448.8772,307.32019 q -0.80078,0 -1.11817,0.20508 -0.31738,0.20508 -0.31738,0.70312 0,0.3711 0.21973,0.59082 0.21972,0.21973 0.5957,0.21973 0.56641,0 0.87891,-0.4248 0.3125,-0.42969 0.3125,-1.19629 v -0.0977 z m 1.99218,-0.55176 v 3.12012 h -1.42089 v -0.61035 q -0.25879,0.36133 -0.66407,0.55664 -0.40527,0.19531 -0.89355,0.19531 -0.93262,0 -1.45508,-0.49316 -0.51758,-0.49317 -0.51758,-1.37696 0,-0.95703 0.62012,-1.41113 0.62012,-0.45898 1.91895,-0.45898 h 0.99121 v -0.23926 q 0,-0.34668 -0.25391,-0.52246 -0.24902,-0.18067 -0.7373,-0.18067 -0.5127,0 -0.9961,0.13184 -0.47851,0.12695 -1.00097,0.41016 v -1.22071 q 0.47363,-0.19531 0.96191,-0.28808 0.48828,-0.0928 1.03516,-0.0928 1.333,0 1.87011,0.542 0.54199,0.54199 0.54199,1.93847 z" />
  <path
     transform="matrix(0.000000,-1.000000,1.000000,0.000000,125.032390,832.401750)"
     inkscape:connector-curvature="0"
     id="path2552"
     style="font-size:10px;font-family:monospace;fill-opacity:1;font-weight:bold;letter-spacing:0px;line-height:1.25;word-spacing:0px;stroke:none;-inkscape-font-specification:'monospace Bold';font-stretch:normal;font-variant:normal;stroke-width:0.75;font-style:normal;fill:#00aeee"
     d="m 454.95142,310.47937 q -0.28809,0.77148 -0.69336,1.12305 -0.40039,0.35644 -0.97657,0.35644 h -1.18164 V 310.87 h 0.58106 q 0.43945,0 0.64453,-0.15137 0.20508,-0.14649 0.41504,-0.68848 l 0.10742,-0.29297 -2.08008,-5.31738 h 1.50391 l 1.25,3.5498 1.19629,-3.5498 h 1.5039 z" />
  <path
     transform="matrix(0.000000,-1.000000,1.000000,0.000000,125.032390,832.401750)"
     inkscape:connector-curvature="0"
     id="path2554"
     style="font-size:10px;font-family:monospace;fill-opacity:1;font-weight:bold;letter-spacing:0px;line-height:1.25;word-spacing:0px;stroke:none;-inkscape-font-specification:'monospace Bold';font-stretch:normal;font-variant:normal;stroke-width:0.75;font-style:normal;fill:#00aeee"
     d="m 462.8811,309.62 q -0.49804,0.20507 -1.01562,0.30761 -0.51758,0.10254 -1.09375,0.10254 -1.37207,0 -2.09961,-0.73242 -0.72266,-0.73731 -0.72266,-2.11914 0,-1.33789 0.69825,-2.11426 0.69824,-0.77637 1.90429,-0.77637 1.21582,0 1.88477,0.72266 0.67383,0.71777 0.67383,2.02637 v 0.58105 h -3.70606 q 0.005,0.64453 0.38086,0.96192 0.37598,0.31738 1.12305,0.31738 0.49316,0 0.97168,-0.1416 0.47851,-0.1416 1.00097,-0.44922 z m -1.21093,-3.07618 q -0.01,-0.5664 -0.29297,-0.85449 -0.27832,-0.29297 -0.8252,-0.29297 -0.49316,0 -0.78613,0.30274 -0.29297,0.29785 -0.34668,0.84961 z" />
  <path
     transform="matrix(0.000000,-1.000000,1.000000,0.000000,125.032390,832.401750)"
     inkscape:connector-curvature="0"
     id="path2556"
     style="font-size:10px;font-family:monospace;fill-opacity:1;font-weight:bold;letter-spacing:0px;line-height:1.25;word-spacing:0px;stroke:none;-inkscape-font-specification:'monospace Bold';font-stretch:normal;font-variant:normal;stroke-width:0.75;font-style:normal;fill:#00aeee"
     d="m 469.14087,305.92859 q -0.23438,-0.21484 -0.55176,-0.32227 -0.3125,-0.10742 -0.68848,-0.10742 -0.4541,0 -0.79589,0.16113 -0.33692,0.15625 -0.52246,0.45899 -0.11719,0.18555 -0.16602,0.44922 -0.0439,0.26367 -0.0439,0.80078 v 2.51953 h -1.43066 v -5.46875 h 1.43066 v 0.84961 q 0.20997,-0.46875 0.64454,-0.72266 0.43457,-0.25879 1.01562,-0.25879 0.29297,0 0.57129,0.0733 0.2832,0.0684 0.53711,0.20507 z" />
  <path
     transform="matrix(0.000000,-1.000000,1.000000,0.000000,125.032390,832.401750)"
     inkscape:connector-curvature="0"
     id="path2558"
     style="font-size:10px;font-family:monospace;fill-opacity:1;font-weight:bold;letter-spacing:0px;line-height:1.25;word-spacing:0px;stroke:none;-inkscape-font-specification:'monospace Bold';font-stretch:normal;font-variant:normal;stroke-width:0.75;font-style:normal;fill:#00aeee"
     d="m 478.24243,306.62683 h -0.77148 v -1.26953 h 0.77148 q 0.53711,0 0.83008,-0.20996 0.29785,-0.21484 0.29785,-0.60059 0,-0.40527 -0.29785,-0.62988 -0.29297,-0.22949 -0.83008,-0.22949 -0.41015,0 -0.8789,0.10254 -0.46875,0.10254 -0.97168,0.29785 v -1.3086 q 0.50293,-0.15136 0.99121,-0.22949 0.48828,-0.083 0.9375,-0.083 1.15234,0 1.79687,0.50293 0.64453,0.50293 0.64453,1.38672 0,0.64942 -0.37109,1.06446 -0.37109,0.41015 -1.05957,0.53711 0.78125,0.13671 1.19141,0.625 0.41015,0.48339 0.41015,1.27441 0,1.05957 -0.67871,1.61621 -0.67871,0.55664 -1.97266,0.55664 -0.55175,0 -1.08886,-0.0928 -0.53223,-0.0928 -1.02051,-0.26856 v -1.33789 q 0.45898,0.22949 0.99121,0.35157 0.53223,0.11718 1.11816,0.11718 0.58594,0 0.92774,-0.26855 0.3418,-0.27344 0.3418,-0.73242 0,-0.56153 -0.3418,-0.86426 -0.3418,-0.30762 -0.9668,-0.30762 z" />
  <path
     inkscape:connector-curvature="0"
     d="m 328.01687,137.13457 c 0,-1.56061 1.26669,-2.82705 2.82884,-2.82705 1.56314,0 2.82982,1.26644 2.82982,2.82705 0,1.56062 -1.26668,2.82609 -2.82982,2.82609 -1.56215,0 -2.82884,-1.26547 -2.82884,-2.82609"
     style="clip-rule:evenodd;fill:none;fill-rule:nonzero;stroke:#ec008c;stroke-width:0.99768871;stroke-miterlimit:10;stroke-opacity:1"
     id="path561-9-1-31-3-7-3-5-2-3-9-4-9-06-8-5-1-24-3" />
  <path
     inkscape:connector-curvature="0"
     d="m 330.84564,140.06278 v -5.9833"
     style="clip-rule:evenodd;fill:none;fill-rule:nonzero;stroke:#000000;stroke-width:0.67318708px;stroke-miterlimit:10;stroke-opacity:1"
     id="path565-7-5-9-2-0-5-92-9-6-0-3-1-2-8-9-7-7-6" />
  <path
     inkscape:connector-curvature="0"
     d="m 327.89262,137.13343 h 5.98916"
     style="clip-rule:evenodd;fill:none;fill-rule:nonzero;stroke:#000000;stroke-width:0.67318743px;stroke-miterlimit:10;stroke-opacity:1"
     id="path569-2-4-47-0-9-6-28-3-1-2-1-2-6-5-2-2-7-1" />
  <path
     inkscape:connector-curvature="0"
     d="m 373.23565,137.13457 c 0,-1.56061 -1.26669,-2.82705 -2.82884,-2.82705 -1.56314,0 -2.82982,1.26644 -2.82982,2.82705 0,1.56062 1.26668,2.82609 2.82982,2.82609 1.56215,0 2.82884,-1.26547 2.82884,-2.82609"
     style="clip-rule:evenodd;fill:none;fill-rule:nonzero;stroke:#ec008c;stroke-width:0.99768871;stroke-miterlimit:10;stroke-opacity:1"
     id="path561-9-1-31-3-7-3-5-2-3-9-4-9-06-8-5-1-24-3-9" />
  <path
     inkscape:connector-curvature="0"
     d="m 370.40688,140.06278 v -5.9833"
     style="clip-rule:evenodd;fill:none;fill-rule:nonzero;stroke:#000000;stroke-width:0.67318708px;stroke-miterlimit:10;stroke-opacity:1"
     id="path565-7-5-9-2-0-5-92-9-6-0-3-1-2-8-9-7-7-6-2" />
  <path
     inkscape:connector-curvature="0"
     d="m 373.3599,137.13343 h -5.98916"
     style="clip-rule:evenodd;fill:none;fill-rule:nonzero;stroke:#000000;stroke-width:0.67318743px;stroke-miterlimit:10;stroke-opacity:1"
     id="path569-2-4-47-0-9-6-28-3-1-2-1-2-6-5-2-2-7-1-0" />
  <path
     inkscape:connector-curvature="0"
     d="m 496.71318,137.13457 c 0,-1.56061 -1.26669,-2.82705 -2.82884,-2.82705 -1.56314,0 -2.82982,1.26644 -2.82982,2.82705 0,1.56062 1.26668,2.82609 2.82982,2.82609 1.56215,0 2.82884,-1.26547 2.82884,-2.82609"
     style="clip-rule:evenodd;fill:none;fill-rule:nonzero;stroke:#ec008c;stroke-width:0.99768871;stroke-miterlimit:10;stroke-opacity:1"
     id="path561-9-1-31-3-7-3-5-2-3-9-4-9-06-8-5-1-1-0" />
  <path
     inkscape:connector-curvature="0"
     d="m 493.88441,140.06278 v -5.9833"
     style="clip-rule:evenodd;fill:none;fill-rule:nonzero;stroke:#000000;stroke-width:0.67318708px;stroke-miterlimit:10;stroke-opacity:1"
     id="path565-7-5-9-2-0-5-92-9-6-0-3-1-2-8-9-7-2-6" />
  <path
     inkscape:connector-curvature="0"
     d="m 496.83743,137.13343 h -5.98916"
     style="clip-rule:evenodd;fill:none;fill-rule:nonzero;stroke:#000000;stroke-width:0.67318743px;stroke-miterlimit:10;stroke-opacity:1"
     id="path569-2-4-47-0-9-6-28-3-1-2-1-2-6-5-2-2-8-3" />
</svg>
