<?xml version="1.0" encoding="UTF-8" standalone="no"?>
<svg
   id="svg10171"
   version="1.1"
   viewBox="0 0 210 297"
   height="297mm"
   width="210mm"
   sodipodi:docname="sheet_6_veco.svg"
   inkscape:version="1.3.1 (9b9bdc1480, 2023-11-25, custom)"
   xmlns:inkscape="http://www.inkscape.org/namespaces/inkscape"
   xmlns:sodipodi="http://sodipodi.sourceforge.net/DTD/sodipodi-0.dtd"
   xmlns="http://www.w3.org/2000/svg"
   xmlns:svg="http://www.w3.org/2000/svg"
   xmlns:rdf="http://www.w3.org/1999/02/22-rdf-syntax-ns#"
   xmlns:cc="http://creativecommons.org/ns#"
   xmlns:dc="http://purl.org/dc/elements/1.1/">
  <sodipodi:namedview
     pagecolor="#ffffff"
     bordercolor="#666666"
     borderopacity="1"
     objecttolerance="10"
     gridtolerance="10"
     guidetolerance="10"
     inkscape:pageopacity="0"
     inkscape:pageshadow="2"
     inkscape:window-width="1920"
     inkscape:window-height="976"
     id="namedview3001"
     showgrid="false"
     inkscape:zoom="0.84096521"
     inkscape:cx="77.886694"
     inkscape:cy="560.66529"
     inkscape:window-x="-4"
     inkscape:window-y="-4"
     inkscape:window-maximized="1"
     inkscape:current-layer="svg10171"
     inkscape:showpageshadow="2"
     inkscape:pagecheckerboard="0"
     inkscape:deskcolor="#d1d1d1"
     inkscape:document-units="mm" />
  <defs
     id="defs10165" />
  <metadata
     id="metadata10168">
    <rdf:RDF>
      <cc:Work
         rdf:about="">
        <dc:format>image/svg+xml</dc:format>
        <dc:type
           rdf:resource="http://purl.org/dc/dcmitype/StillImage" />
        <dc:title />
      </cc:Work>
    </rdf:RDF>
  </metadata>
  <path
     style="font-size:13.33333302px;-inkscape-font-specification:'monospace Bold';fill-opacity:1;font-weight:bold;letter-spacing:0px;line-height:1.25;word-spacing:0px;stroke:none;font-stretch:normal;font-variant:normal;font-family:monospace;font-style:normal;fill:#00aeee"
     transform="matrix(0.000000,-0.264123,0.263931,0.000000,-78.600525,118.328560)"
     id="path19438"
     d="m -427.97331,533.08398 v 2.87761 h 1.27604 q 0.91797,0 1.28256,-0.3125 0.37109,-0.3125 0.37109,-1.08724 0,-0.78776 -0.38411,-1.13281 -0.38412,-0.34506 -1.26954,-0.34506 z m 0,-3.78906 v 2.25912 h 1.27604 q 0.72917,0 1.03516,-0.26042 0.3125,-0.26042 0.3125,-0.85938 0,-0.59895 -0.31901,-0.86588 -0.3125,-0.27344 -1.02865,-0.27344 z m -1.85547,-1.52995 h 3.13151 q 1.6211,0 2.4349,0.61849 0.82031,0.61198 0.82031,1.83594 0,0.9375 -0.48177,1.46484 -0.48177,0.52735 -1.41276,0.61198 1.11328,0.11068 1.67318,0.7487 0.5664,0.63802 0.5664,1.78386 0,1.40625 -0.84635,2.03776 -0.84635,0.63151 -2.75391,0.63151 h -3.13151 z" />
  <path
     style="font-size:13.33333302px;-inkscape-font-specification:'monospace Bold';fill-opacity:1;font-weight:bold;letter-spacing:0px;line-height:1.25;word-spacing:0px;stroke:none;font-stretch:normal;font-variant:normal;font-family:monospace;font-style:normal;fill:#00aeee"
     transform="matrix(0.000000,-0.264123,0.263931,0.000000,-78.600525,118.328560)"
     id="path19440"
     d="m -418.60482,531.58008 q -0.68359,0 -1.07422,0.60547 -0.39062,0.59896 -0.39062,1.67317 0,1.07422 0.39062,1.67969 0.39063,0.59896 1.07422,0.59896 0.69011,0 1.08073,-0.59896 0.39063,-0.60547 0.39063,-1.67969 0,-1.07421 -0.39063,-1.67317 -0.39062,-0.60547 -1.08073,-0.60547 z m -3.37239,2.27864 q 0,-1.76432 0.91145,-2.79296 0.91797,-1.03516 2.46094,-1.03516 1.54948,0 2.46094,1.03516 0.91797,1.02864 0.91797,2.79296 0,1.76433 -0.91797,2.79948 -0.91146,1.02865 -2.46094,1.02865 -1.54297,0 -2.46094,-1.02865 -0.91145,-1.03515 -0.91145,-2.79948 z" />
  <path
     style="font-size:13.33333302px;-inkscape-font-specification:'monospace Bold';fill-opacity:1;font-weight:bold;letter-spacing:0px;line-height:1.25;word-spacing:0px;stroke:none;font-stretch:normal;font-variant:normal;font-family:monospace;font-style:normal;fill:#00aeee"
     transform="matrix(0.000000,-0.264123,0.263931,0.000000,-78.600525,118.328560)"
     id="path19442"
     d="m -409.43815,531.24154 v -3.8737 h 1.90104 v 10.13021 h -1.90104 v -1.08073 q -0.30599,0.63151 -0.79427,0.95052 -0.48177,0.31901 -1.13932,0.31901 -1.25,0 -1.94011,-1.00261 -0.6901,-1.0026 -0.6901,-2.82552 0,-1.84895 0.69661,-2.83854 0.70313,-0.98958 1.9987,-0.98958 0.58594,0 1.04818,0.30599 0.46875,0.29948 0.82031,0.90495 z m -2.65625,2.6302 q 0,1.05469 0.35156,1.65365 0.35156,0.59896 0.97005,0.59896 0.61849,0 0.97657,-0.59896 0.35807,-0.59896 0.35807,-1.65365 0,-1.05468 -0.35807,-1.65364 -0.35808,-0.59896 -0.97657,-0.59896 -0.61849,0 -0.97005,0.59896 -0.35156,0.59896 -0.35156,1.65364 z" />
  <path
     style="font-size:13.33333302px;-inkscape-font-specification:'monospace Bold';fill-opacity:1;font-weight:bold;letter-spacing:0px;line-height:1.25;word-spacing:0px;stroke:none;font-stretch:normal;font-variant:normal;font-family:monospace;font-style:normal;fill:#00aeee"
     transform="matrix(0.000000,-0.264123,0.263931,0.000000,-78.600525,118.328560)"
     id="path19444"
     d="m -399.38607,537.13997 q -0.66406,0.27344 -1.35416,0.41016 -0.69011,0.13672 -1.45834,0.13672 -1.82942,0 -2.79948,-0.97656 -0.96354,-0.98308 -0.96354,-2.82552 0,-1.78386 0.93099,-2.81901 0.93099,-1.03516 2.53906,-1.03516 1.6211,0 2.51302,0.96354 0.89844,0.95703 0.89844,2.70182 v 0.77474 h -4.9414 q 0.007,0.85938 0.50781,1.28255 0.5013,0.42318 1.49739,0.42318 0.65756,0 1.29558,-0.1888 0.63802,-0.1888 1.33463,-0.59896 z m -1.61458,-4.10156 q -0.013,-0.75521 -0.39063,-1.13932 -0.37109,-0.39063 -1.10026,-0.39063 -0.65755,0 -1.04817,0.40365 -0.39063,0.39713 -0.46224,1.13281 z" />
  <path
     style="font-size:13.33333302px;-inkscape-font-specification:'monospace Bold';fill-opacity:1;font-weight:bold;letter-spacing:0px;line-height:1.25;word-spacing:0px;stroke:none;font-stretch:normal;font-variant:normal;font-family:monospace;font-style:normal;fill:#00aeee"
     transform="matrix(0.000000,-0.264123,0.263931,0.000000,-78.600525,118.328560)"
     id="path19446"
     d="m -391.56055,532.76497 v 4.73308 h -1.89453 v -4.44011 q 0,-0.79427 -0.22786,-1.13281 -0.22136,-0.34505 -0.72917,-0.34505 -0.51432,0 -0.8138,0.46224 -0.29297,0.46224 -0.29297,1.28255 v 4.17318 h -1.89453 v -7.29167 h 1.89453 v 1.09375 q 0.20182,-0.60547 0.6901,-0.9375 0.48829,-0.33203 1.17839,-0.33203 1.03516,0 1.5625,0.6901 0.52734,0.6836 0.52734,2.04427 z" />
  <path
     style="font-size:13.33333302px;-inkscape-font-specification:'monospace Bold';fill-opacity:1;font-weight:bold;letter-spacing:0px;line-height:1.25;word-spacing:0px;stroke:none;font-stretch:normal;font-variant:normal;font-family:monospace;font-style:normal;fill:#00aeee"
     transform="matrix(0.000000,-0.264123,0.263931,0.000000,-78.600525,118.328560)"
     id="path19448"
     d="m -387.62826,536.4694 v 3.80208 h -1.90104 v -10.0651 h 1.90104 v 1.09375 q 0.29948,-0.63151 0.78777,-0.95052 0.48828,-0.31901 1.14583,-0.31901 1.25,0 1.9401,1.0026 0.69011,1.00261 0.69011,2.82552 0,1.84896 -0.70313,2.83855 -0.69661,0.98958 -1.99219,0.98958 -0.58593,0 -1.05468,-0.29948 -0.46224,-0.30599 -0.81381,-0.91797 z m 2.65625,-2.6237 q 0,-1.05468 -0.35156,-1.65364 -0.35156,-0.59896 -0.97005,-0.59896 -0.61849,0 -0.97656,0.59896 -0.35808,0.59896 -0.35808,1.65364 0,1.05469 0.35808,1.65365 0.35807,0.59896 0.97656,0.59896 0.61849,0 0.97005,-0.59896 0.35156,-0.59896 0.35156,-1.65365 z" />
  <path
     style="font-size:13.33333302px;-inkscape-font-specification:'monospace Bold';fill-opacity:1;font-weight:bold;letter-spacing:0px;line-height:1.25;word-spacing:0px;stroke:none;font-stretch:normal;font-variant:normal;font-family:monospace;font-style:normal;fill:#00aeee"
     transform="matrix(0.000000,-0.264123,0.263931,0.000000,-78.600525,118.328560)"
     id="path19450"
     d="m -379.95898,534.45768 v -5.625 h -1.9336 v -1.46484 h 3.84115 v 7.08984 q 0,0.85938 0.26692,1.21745 0.26693,0.35807 0.90495,0.35807 h 1.52344 v 1.46485 h -2.05729 q -1.36068,0 -1.95313,-0.70313 -0.59244,-0.70312 -0.59244,-2.33724 z" />
  <path
     style="font-size:13.33333302px;-inkscape-font-specification:'monospace Bold';fill-opacity:1;font-weight:bold;letter-spacing:0px;line-height:1.25;word-spacing:0px;stroke:none;font-stretch:normal;font-variant:normal;font-family:monospace;font-style:normal;fill:#00aeee"
     transform="matrix(0.000000,-0.264123,0.263931,0.000000,-78.600525,118.328560)"
     id="path19452"
     d="m -369.89388,534.07357 q -1.06771,0 -1.49089,0.27344 -0.42317,0.27343 -0.42317,0.93749 0,0.4948 0.29297,0.78777 0.29296,0.29296 0.79427,0.29296 0.75521,0 1.17187,-0.5664 0.41667,-0.57292 0.41667,-1.59505 v -0.13021 z m 2.65625,-0.73568 v 4.16016 h -1.89453 v -0.81381 q -0.34505,0.48178 -0.88542,0.74219 -0.54036,0.26042 -1.1914,0.26042 -1.24349,0 -1.94011,-0.65755 -0.6901,-0.65756 -0.6901,-1.83594 0,-1.27604 0.82682,-1.88151 0.82682,-0.61198 2.55859,-0.61198 h 1.32162 v -0.31901 q 0,-0.46224 -0.33854,-0.69662 -0.33203,-0.24088 -0.98308,-0.24088 -0.68359,0 -1.32812,0.17578 -0.63802,0.16927 -1.33464,0.54688 v -1.62761 q 0.63151,-0.26042 1.28256,-0.38411 0.65104,-0.1237 1.3802,-0.1237 1.77735,0 2.49349,0.72266 0.72266,0.72265 0.72266,2.58463 z" />
  <path
     style="font-size:13.33333302px;-inkscape-font-specification:'monospace Bold';fill-opacity:1;font-weight:bold;letter-spacing:0px;line-height:1.25;word-spacing:0px;stroke:none;font-stretch:normal;font-variant:normal;font-family:monospace;font-style:normal;fill:#00aeee"
     transform="matrix(0.000000,-0.264123,0.263931,0.000000,-78.600525,118.328560)"
     id="path19454"
     d="m -361.93164,528.13607 v 2.07031 h 2.49349 v 1.46484 h -2.49349 v 3.45052 q 0,0.48829 0.23437,0.70313 0.24089,0.20833 0.79428,0.20833 h 1.46484 v 1.46485 h -1.60156 q -1.64063,0 -2.22006,-0.52084 -0.57942,-0.52734 -0.57942,-1.94661 v -3.35938 h -1.86198 v -1.46484 h 1.86198 v -2.07031 z" />
  <path
     style="font-size:13.33333302px;-inkscape-font-specification:'monospace Bold';fill-opacity:1;font-weight:bold;letter-spacing:0px;line-height:1.25;word-spacing:0px;stroke:none;font-stretch:normal;font-variant:normal;font-family:monospace;font-style:normal;fill:#00aeee"
     transform="matrix(0.000000,-0.264123,0.263931,0.000000,-78.600525,118.328560)"
     id="path19456"
     d="m -353.9043,528.13607 v 2.07031 h 2.49349 v 1.46484 h -2.49349 v 3.45052 q 0,0.48829 0.23438,0.70313 0.24088,0.20833 0.79427,0.20833 h 1.46484 v 1.46485 h -1.60156 q -1.64062,0 -2.22005,-0.52084 -0.57943,-0.52734 -0.57943,-1.94661 v -3.35938 h -1.86198 v -1.46484 h 1.86198 v -2.07031 z" />
  <path
     style="font-size:13.33333302px;-inkscape-font-specification:'monospace Bold';fill-opacity:1;font-weight:bold;letter-spacing:0px;line-height:1.25;word-spacing:0px;stroke:none;font-stretch:normal;font-variant:normal;font-family:monospace;font-style:normal;fill:#00aeee"
     transform="matrix(0.000000,-0.264123,0.263931,0.000000,-78.600525,118.328560)"
     id="path19458"
     d="m -343.19466,537.13997 q -0.66406,0.27344 -1.35417,0.41016 -0.6901,0.13672 -1.45833,0.13672 -1.82943,0 -2.79948,-0.97656 -0.96354,-0.98308 -0.96354,-2.82552 0,-1.78386 0.93099,-2.81901 0.93099,-1.03516 2.53906,-1.03516 1.62109,0 2.51302,0.96354 0.89844,0.95703 0.89844,2.70182 v 0.77474 h -4.94141 q 0.007,0.85938 0.50781,1.28255 0.50131,0.42318 1.4974,0.42318 0.65755,0 1.29557,-0.1888 0.63802,-0.1888 1.33464,-0.59896 z m -1.61458,-4.10156 q -0.013,-0.75521 -0.39063,-1.13932 -0.37109,-0.39063 -1.10026,-0.39063 -0.65755,0 -1.04818,0.40365 -0.39062,0.39713 -0.46224,1.13281 z" />
  <path
     style="font-size:13.33333302px;-inkscape-font-specification:'monospace Bold';fill-opacity:1;font-weight:bold;letter-spacing:0px;line-height:1.25;word-spacing:0px;stroke:none;font-stretch:normal;font-variant:normal;font-family:monospace;font-style:normal;fill:#00aeee"
     transform="matrix(0.000000,-0.264123,0.263931,0.000000,-78.600525,118.328560)"
     id="path19460"
     d="m -332.84961,537.49805 v -9.72006 h 1.92057 v 8.02735 h 4.10808 v 1.69271 z" />
  <path
     style="font-size:13.33333302px;-inkscape-font-specification:'monospace Bold';fill-opacity:1;font-weight:bold;letter-spacing:0px;line-height:1.25;word-spacing:0px;stroke:none;font-stretch:normal;font-variant:normal;font-family:monospace;font-style:normal;fill:#00aeee"
     transform="matrix(0.000000,-0.264123,0.263931,0.000000,-78.600525,118.328560)"
     id="path19462"
     d="m -321.72982,534.07357 q -1.06771,0 -1.49088,0.27344 -0.42318,0.27343 -0.42318,0.93749 0,0.4948 0.29297,0.78777 0.29297,0.29296 0.79427,0.29296 0.75521,0 1.17187,-0.5664 0.41667,-0.57292 0.41667,-1.59505 v -0.13021 z m 2.65625,-0.73568 v 4.16016 h -1.89453 v -0.81381 q -0.34505,0.48178 -0.88542,0.74219 -0.54036,0.26042 -1.1914,0.26042 -1.24349,0 -1.94011,-0.65755 -0.6901,-0.65756 -0.6901,-1.83594 0,-1.27604 0.82682,-1.88151 0.82683,-0.61198 2.5586,-0.61198 h 1.32161 v -0.31901 q 0,-0.46224 -0.33854,-0.69662 -0.33203,-0.24088 -0.98307,-0.24088 -0.6836,0 -1.32813,0.17578 -0.63802,0.16927 -1.33463,0.54688 v -1.62761 q 0.63151,-0.26042 1.28255,-0.38411 0.65104,-0.1237 1.38021,-0.1237 1.77734,0 2.49349,0.72266 0.72265,0.72265 0.72265,2.58463 z" />
  <path
     style="font-size:13.33333302px;-inkscape-font-specification:'monospace Bold';fill-opacity:1;font-weight:bold;letter-spacing:0px;line-height:1.25;word-spacing:0px;stroke:none;font-stretch:normal;font-variant:normal;font-family:monospace;font-style:normal;fill:#00aeee"
     transform="matrix(0.000000,-0.264123,0.263931,0.000000,-78.600525,118.328560)"
     id="path19464"
     d="m -313.63086,538.28581 q -0.38411,1.02864 -0.92448,1.49739 -0.53385,0.47526 -1.30208,0.47526 h -1.57552 v -1.45182 h 0.77474 q 0.58593,0 0.85937,-0.20182 0.27344,-0.19532 0.55339,-0.91797 l 0.14323,-0.39063 -2.77344,-7.08984 h 2.00521 l 1.66666,4.73307 1.59506,-4.73307 h 2.0052 z" />
  <path
     style="font-size:13.33333302px;-inkscape-font-specification:'monospace Bold';fill-opacity:1;font-weight:bold;letter-spacing:0px;line-height:1.25;word-spacing:0px;stroke:none;font-stretch:normal;font-variant:normal;font-family:monospace;font-style:normal;fill:#00aeee"
     transform="matrix(0.000000,-0.264123,0.263931,0.000000,-78.600525,118.328560)"
     id="path19466"
     d="m -303.05794,537.13997 q -0.66407,0.27344 -1.35417,0.41016 -0.6901,0.13672 -1.45833,0.13672 -1.82943,0 -2.79948,-0.97656 -0.96354,-0.98308 -0.96354,-2.82552 0,-1.78386 0.93099,-2.81901 0.93099,-1.03516 2.53906,-1.03516 1.62109,0 2.51302,0.96354 0.89844,0.95703 0.89844,2.70182 v 0.77474 h -4.94141 q 0.007,0.85938 0.50781,1.28255 0.50131,0.42318 1.4974,0.42318 0.65755,0 1.29557,-0.1888 0.63802,-0.1888 1.33464,-0.59896 z m -1.61459,-4.10156 q -0.013,-0.75521 -0.39062,-1.13932 -0.37109,-0.39063 -1.10026,-0.39063 -0.65755,0 -1.04818,0.40365 -0.39062,0.39713 -0.46224,1.13281 z" />
  <path
     style="font-size:13.33333302px;-inkscape-font-specification:'monospace Bold';fill-opacity:1;font-weight:bold;letter-spacing:0px;line-height:1.25;word-spacing:0px;stroke:none;font-stretch:normal;font-variant:normal;font-family:monospace;font-style:normal;fill:#00aeee"
     transform="matrix(0.000000,-0.264123,0.263931,0.000000,-78.600525,118.328560)"
     id="path19468"
     d="m -294.71159,532.2181 q -0.3125,-0.28646 -0.73568,-0.42969 -0.41666,-0.14323 -0.91796,-0.14323 -0.60547,0 -1.0612,0.21485 -0.44922,0.20833 -0.69662,0.61198 -0.15625,0.24739 -0.22135,0.59895 -0.0586,0.35157 -0.0586,1.06771 v 3.35938 h -1.90756 v -7.29167 h 1.90756 v 1.13281 q 0.27994,-0.625 0.85937,-0.96354 0.57943,-0.34505 1.35417,-0.34505 0.39062,0 0.76172,0.0977 0.3776,0.0911 0.71614,0.27343 z" />
  <path
     style="font-size:13.33333302px;-inkscape-font-specification:'monospace Bold';fill-opacity:1;font-weight:bold;letter-spacing:0px;line-height:1.25;word-spacing:0px;stroke:none;font-stretch:normal;font-variant:normal;font-family:monospace;font-style:normal;fill:#00aeee"
     transform="matrix(0.000000,-0.264123,0.263931,0.000000,-78.600525,118.328560)"
     id="path19470"
     d="m -284.92643,535.80534 h 2.14844 v -6.3086 l -1.9987,0.4948 v -1.73177 l 2.01172,-0.48178 h 1.85546 v 8.02735 h 2.14844 v 1.69271 h -6.16536 z" />
  <path
     transform="matrix(1.000000,0.000000,0.000000,1.000000,0.095970,0.000000)"
     d="m 58.963121,52.271592 c 0.55073,0 0.997646,-0.446888 0.997646,-0.998015 0,-0.55148 -0.446916,-0.998369 -0.997646,-0.998369 -0.550727,0 -0.997294,0.446889 -0.997294,0.998369 0,0.551127 0.446567,0.998015 0.997294,0.998015"
     style="stroke:#ea0088;stroke-miterlimit:10;stroke-opacity:1;fill-rule:nonzero;clip-rule:evenodd;stroke-width:0.35203058;fill:none"
     id="path561-9-1-81" />
  <path
     transform="matrix(1.000000,0.000000,0.000000,1.000000,0.095970,0.000000)"
     d="m 57.929892,51.273682 h 2.111454"
     style="stroke:#000000;stroke-miterlimit:10;stroke-opacity:1;fill-rule:nonzero;clip-rule:evenodd;stroke-width:0.23753151px;fill:none"
     id="path565-7-5-39" />
  <path
     transform="matrix(1.000000,0.000000,0.000000,1.000000,0.095970,0.000000)"
     d="m 58.963605,52.315527 v -2.11298"
     style="stroke:#000000;stroke-miterlimit:10;stroke-opacity:1;fill-rule:nonzero;clip-rule:evenodd;stroke-width:0.23753138px;fill:none"
     id="path569-2-4-8" />
  <path
     transform="matrix(1.000000,0.000000,0.000000,1.000000,0.095970,0.000000)"
     d="m 58.963055,246.93309 c 0.550728,0 0.997646,-0.44688 0.997646,-0.99801 0,-0.55148 -0.446918,-0.99837 -0.997646,-0.99837 -0.550727,0 -0.997291,0.44689 -0.997291,0.99837 0,0.55113 0.446564,0.99801 0.997291,0.99801"
     style="stroke:#ea0088;stroke-miterlimit:10;stroke-opacity:1;fill-rule:nonzero;clip-rule:evenodd;stroke-width:0.35203058;fill:none"
     id="path561-9-1-81-2" />
  <path
     transform="matrix(1.000000,0.000000,0.000000,1.000000,0.095970,0.000000)"
     d="m 57.929825,245.93518 h 2.111452"
     style="stroke:#000000;stroke-miterlimit:10;stroke-opacity:1;fill-rule:nonzero;clip-rule:evenodd;stroke-width:0.23753151px;fill:none"
     id="path565-7-5-39-6" />
  <path
     transform="matrix(1.000000,0.000000,0.000000,1.000000,0.095970,0.000000)"
     d="m 58.963539,246.97703 v -2.11298"
     style="stroke:#000000;stroke-miterlimit:10;stroke-opacity:1;fill-rule:nonzero;clip-rule:evenodd;stroke-width:0.23753138px;fill:none"
     id="path569-2-4-8-1" />
  <path
     transform="matrix(1.000000,0.000000,0.000000,1.000000,89.802766,0.000000)"
     d="m 58.963121,52.271592 c 0.55073,0 0.997646,-0.446888 0.997646,-0.998015 0,-0.55148 -0.446916,-0.998369 -0.997646,-0.998369 -0.550727,0 -0.997294,0.446889 -0.997294,0.998369 0,0.551127 0.446567,0.998015 0.997294,0.998015"
     style="stroke:#ea0088;stroke-miterlimit:10;stroke-opacity:1;fill-rule:nonzero;clip-rule:evenodd;stroke-width:0.35203058;fill:none"
     id="path561-9-1-81-7" />
  <path
     transform="matrix(1.000000,0.000000,0.000000,1.000000,89.802766,0.000000)"
     d="m 57.929892,51.273682 h 2.111454"
     style="stroke:#000000;stroke-miterlimit:10;stroke-opacity:1;fill-rule:nonzero;clip-rule:evenodd;stroke-width:0.23753151px;fill:none"
     id="path565-7-5-39-67" />
  <path
     transform="matrix(1.000000,0.000000,0.000000,1.000000,89.802766,0.000000)"
     d="m 58.963605,52.315527 v -2.11298"
     style="stroke:#000000;stroke-miterlimit:10;stroke-opacity:1;fill-rule:nonzero;clip-rule:evenodd;stroke-width:0.23753138px;fill:none"
     id="path569-2-4-8-3" />
  <path
     transform="matrix(1.000000,0.000000,0.000000,1.000000,89.802766,0.000000)"
     d="m 58.963055,246.93309 c 0.550728,0 0.997646,-0.44688 0.997646,-0.99801 0,-0.55148 -0.446918,-0.99837 -0.997646,-0.99837 -0.550727,0 -0.997291,0.44689 -0.997291,0.99837 0,0.55113 0.446564,0.99801 0.997291,0.99801"
     style="stroke:#ea0088;stroke-miterlimit:10;stroke-opacity:1;fill-rule:nonzero;clip-rule:evenodd;stroke-width:0.35203058;fill:none"
     id="path561-9-1-81-2-6" />
  <path
     transform="matrix(1.000000,0.000000,0.000000,1.000000,89.802766,0.000000)"
     d="m 57.929825,245.93518 h 2.111452"
     style="stroke:#000000;stroke-miterlimit:10;stroke-opacity:1;fill-rule:nonzero;clip-rule:evenodd;stroke-width:0.23753151px;fill:none"
     id="path565-7-5-39-6-5" />
  <path
     transform="matrix(1.000000,0.000000,0.000000,1.000000,89.802766,0.000000)"
     d="m 58.963539,246.97703 v -2.11298"
     style="stroke:#000000;stroke-miterlimit:10;stroke-opacity:1;fill-rule:nonzero;clip-rule:evenodd;stroke-width:0.23753138px;fill:none"
     id="path569-2-4-8-1-6" />
  <path
     style="fill:none;stroke:#ec008c;stroke-width:0.36470965;stroke-linecap:butt;stroke-linejoin:miter;stroke-miterlimit:10;stroke-opacity:1"
     d="M 31.023389,253.48474 H 178.65866 V 43.849467 H 31.023389 Z m 0,0"
     id="path209" />
  <path
     id="rect20470-36-2-8-6-6"
     d="m 133.92901,94.833706 -1.54942,1.601785 -2.66431,2.75439 -1.07639,1.112779 v 28.86859 l 1.07639,1.11278 2.66431,2.75439 1.54942,1.6018 h 4.61313 4.61313 l 1.54941,-1.6018 2.66432,-2.75439 1.0764,-1.11278 v -28.86859 l -1.0764,-1.112779 -2.66432,-2.75439 -1.54941,-1.601785 h -4.61313 z"
     style="display:inline;fill:none;fill-opacity:1;stroke:#ec008c;stroke-width:0.193675;stroke-miterlimit:10;stroke-dasharray:none;stroke-opacity:1"
     inkscape:connector-curvature="0" />
  <path
     id="rect20470-36-2-8-6-6-6"
     d="m 133.92896,162.68075 -1.54942,1.60179 -2.66431,2.75439 -1.07639,1.11277 v 28.8686 l 1.07639,1.11277 2.66431,2.75439 1.54942,1.6018 h 4.61313 4.61313 l 1.54941,-1.6018 2.66432,-2.75439 1.0764,-1.11277 v -28.8686 l -1.0764,-1.11277 -2.66432,-2.75439 -1.54941,-1.60179 h -4.61313 z"
     style="display:inline;fill:none;fill-opacity:1;stroke:#ec008c;stroke-width:0.193675;stroke-miterlimit:10;stroke-dasharray:none;stroke-opacity:1"
     inkscape:connector-curvature="0" />
  <path
     d="m 138.72725,189.15466 q -0.14642,0.38412 -0.30661,0.52021 -0.16192,0.13608 -0.43409,0.13608 -0.34967,0 -0.54949,-0.22393 -0.19981,-0.22394 -0.19981,-0.61495 0,-0.17743 0.0413,-0.35485 0.0396,-0.17742 0.11885,-0.3514 h 0.4961 q -0.11541,0.16365 -0.1757,0.33245 -0.0603,0.16881 -0.0603,0.33418 0,0.18431 0.0741,0.2825 0.0741,0.0982 0.21187,0.0982 0.1068,0 0.17742,-0.0706 0.0689,-0.0724 0.15331,-0.29973 l 0.0827,-0.21876 q 0.11369,-0.31006 0.30145,-0.45647 0.18776,-0.14642 0.4737,-0.14642 0.3893,0 0.58222,0.23082 0.1912,0.2291 0.1912,0.69419 0,0.1912 -0.0465,0.38412 -0.0448,0.19121 -0.13437,0.37035 h -0.52537 q 0.14469,-0.20326 0.21532,-0.39274 0.0706,-0.1912 0.0706,-0.37724 0,-0.18775 -0.0844,-0.29111 -0.0861,-0.10335 -0.23944,-0.10335 -0.11541,0 -0.20154,0.0689 -0.0878,0.0689 -0.1378,0.19982 z"
     style="font-style:normal;font-variant:normal;font-weight:bold;font-stretch:normal;font-size:13.33333302px;line-height:1.25;font-family:monospace;-inkscape-font-specification:'monospace Bold';letter-spacing:0px;word-spacing:0px;fill:#000000;fill-opacity:1;stroke:none;stroke-width:0.26458332"
     id="path7253"
     inkscape:connector-curvature="0" />
  <path
     d="m 138.60323,186.06441 h 1.25229 v 0.50126 h -1.17478 q -0.20843,0 -0.298,0.0603 -0.0896,0.0586 -0.0896,0.19292 0,0.13781 0.1223,0.21532 0.12058,0.0775 0.3359,0.0775 h 1.10415 v 0.50126 h -2.68028 v -0.50126 h 1.04041 q -0.16019,-0.0534 -0.24804,-0.1826 -0.0879,-0.12919 -0.0879,-0.31178 0,-0.27388 0.18259,-0.41341 0.18087,-0.13952 0.54088,-0.13952 z"
     style="font-style:normal;font-variant:normal;font-weight:bold;font-stretch:normal;font-size:13.33333302px;line-height:1.25;font-family:monospace;-inkscape-font-specification:'monospace Bold';letter-spacing:0px;word-spacing:0px;fill:#000000;fill-opacity:1;stroke:none;stroke-width:0.26458332"
     id="path7255"
     inkscape:connector-curvature="0" />
  <path
     d="m 139.76078,183.88711 q 0.0724,0.1757 0.10852,0.35828 0.0362,0.1826 0.0362,0.38586 0,0.48403 -0.25838,0.74069 -0.2601,0.25495 -0.74758,0.25495 -0.47198,0 -0.74587,-0.24633 -0.27388,-0.24632 -0.27388,-0.67179 0,-0.42891 0.25493,-0.6649 0.25322,-0.23771 0.71486,-0.23771 h 0.20498 v 1.30741 q 0.22738,-0.002 0.33935,-0.13436 0.11196,-0.13264 0.11196,-0.39618 0,-0.17398 -0.0499,-0.34279 -0.05,-0.16881 -0.15848,-0.35312 z m -1.08521,0.42719 q -0.19981,0.003 -0.30144,0.10335 -0.10336,0.0982 -0.10336,0.29111 0,0.17398 0.1068,0.27733 0.10508,0.10335 0.29973,0.1223 z"
     style="font-style:normal;font-variant:normal;font-weight:bold;font-stretch:normal;font-size:13.33333302px;line-height:1.25;font-family:monospace;-inkscape-font-specification:'monospace Bold';letter-spacing:0px;word-spacing:0px;fill:#000000;fill-opacity:1;stroke:none;stroke-width:0.26458332"
     id="path7257"
     inkscape:connector-curvature="0" />
  <path
     d="m 139.76078,181.7632 q 0.0724,0.17571 0.10852,0.35829 0.0362,0.1826 0.0362,0.38586 0,0.48403 -0.25838,0.7407 -0.2601,0.25494 -0.74758,0.25494 -0.47198,0 -0.74587,-0.24633 -0.27388,-0.24632 -0.27388,-0.67179 0,-0.42891 0.25493,-0.6649 0.25322,-0.23772 0.71486,-0.23772 h 0.20498 v 1.30742 q 0.22738,-0.002 0.33935,-0.13436 0.11196,-0.13264 0.11196,-0.39619 0,-0.17397 -0.0499,-0.34278 -0.05,-0.16881 -0.15848,-0.35313 z m -1.08521,0.4272 q -0.19981,0.003 -0.30144,0.10335 -0.10336,0.0982 -0.10336,0.29111 0,0.17398 0.1068,0.27734 0.10508,0.10335 0.29973,0.12229 z"
     style="font-style:normal;font-variant:normal;font-weight:bold;font-stretch:normal;font-size:13.33333302px;line-height:1.25;font-family:monospace;-inkscape-font-specification:'monospace Bold';letter-spacing:0px;word-spacing:0px;fill:#000000;fill-opacity:1;stroke:none;stroke-width:0.26458332"
     id="path7259"
     inkscape:connector-curvature="0" />
  <path
     d="m 137.3785,180.34899 h 0.54777 v -0.65973 h 0.38757 v 0.65973 h 0.91295 q 0.12919,0 0.18603,-0.062 0.0551,-0.0637 0.0551,-0.21015 v -0.38757 h 0.38757 v 0.42374 q 0,0.43409 -0.13781,0.58739 -0.13952,0.15331 -0.51504,0.15331 h -0.88883 v 0.49265 h -0.38757 v -0.49265 h -0.54777 z"
     style="font-style:normal;font-variant:normal;font-weight:bold;font-stretch:normal;font-size:13.33333302px;line-height:1.25;font-family:monospace;-inkscape-font-specification:'monospace Bold';letter-spacing:0px;word-spacing:0px;fill:#000000;fill-opacity:1;stroke:none;stroke-width:0.26458332"
     id="path7261"
     inkscape:connector-curvature="0" />
  <path
     d="m 138.56706,176.18215 q 0,0.16536 0.12057,0.25321 0.11886,0.0861 0.34623,0.0861 0.22566,0 0.34624,-0.0861 0.11885,-0.0879 0.11885,-0.25321 0,-0.16537 -0.11885,-0.25322 -0.12058,-0.0896 -0.34624,-0.0896 -0.22565,0 -0.34623,0.0896 -0.12057,0.0879 -0.12057,0.25322 z m -1.22301,-0.66663 h 0.46164 q -0.0775,0.13609 -0.11541,0.26183 -0.0396,0.12403 -0.0396,0.23943 0,0.27561 0.18603,0.42031 0.18432,0.14297 0.54605,0.14986 -0.11197,-0.081 -0.16709,-0.20671 -0.0568,-0.12574 -0.0568,-0.29628 0,-0.34795 0.22049,-0.53743 0.21876,-0.18948 0.62184,-0.18948 0.43235,0 0.67007,0.21361 0.23771,0.21187 0.23771,0.59772 0,0.47025 -0.31523,0.68385 -0.31522,0.21188 -1.01802,0.21188 -0.66835,0 -1.0008,-0.26011 -0.33418,-0.26011 -0.33418,-0.78031 0,-0.12058 0.0259,-0.24805 0.0259,-0.12919 0.0775,-0.26011 z"
     style="font-style:normal;font-variant:normal;font-weight:bold;font-stretch:normal;font-size:13.33333302px;line-height:1.25;font-family:monospace;-inkscape-font-specification:'monospace Bold';letter-spacing:0px;word-spacing:0px;fill:#000000;fill-opacity:1;stroke:none;stroke-width:0.26458332"
     id="path7263"
     inkscape:connector-curvature="0" />
  <path
     d="m 139.40256,129.56982 -2.14802,-0.45303 v -0.5116 l 2.57177,0.6115 v 0.70453 l -2.57177,0.6115 v -0.5116 z"
     style="font-style:normal;font-variant:normal;font-weight:bold;font-stretch:normal;font-size:13.33333302px;line-height:1.25;font-family:monospace;-inkscape-font-specification:'monospace Bold';letter-spacing:0px;word-spacing:0px;fill:#000000;fill-opacity:1;stroke:none;stroke-width:0.26458332"
     id="path7265"
     inkscape:connector-curvature="0" />
  <path
     d="m 139.82631,126.61565 v 1.60197 h -2.57177 v -1.60197 h 0.44787 v 1.09382 h 0.55466 V 126.719 h 0.44786 v 0.99047 h 0.67352 v -1.09382 z"
     style="font-style:normal;font-variant:normal;font-weight:bold;font-stretch:normal;font-size:13.33333302px;line-height:1.25;font-family:monospace;-inkscape-font-specification:'monospace Bold';letter-spacing:0px;word-spacing:0px;fill:#000000;fill-opacity:1;stroke:none;stroke-width:0.26458332"
     id="path7267"
     inkscape:connector-curvature="0" />
  <path
     d="m 139.75224,124.52103 q 0.062,0.12058 0.093,0.25321 0.031,0.13264 0.031,0.27905 0,0.52022 -0.34278,0.7941 -0.34279,0.27388 -0.99047,0.27388 -0.6494,0 -0.99219,-0.27388 -0.34278,-0.27388 -0.34278,-0.7941 0,-0.14641 0.031,-0.28077 0.031,-0.13436 0.093,-0.25149 h 0.565 q -0.12058,0.13091 -0.1757,0.25494 -0.0568,0.1223 -0.0568,0.25321 0,0.27905 0.22221,0.42202 0.22049,0.14125 0.65629,0.14125 0.43408,0 0.65629,-0.14125 0.22049,-0.14297 0.22049,-0.42202 0,-0.13091 -0.0551,-0.25321 -0.0568,-0.12403 -0.17743,-0.25494 z"
     style="font-style:normal;font-variant:normal;font-weight:bold;font-stretch:normal;font-size:13.33333302px;line-height:1.25;font-family:monospace;-inkscape-font-specification:'monospace Bold';letter-spacing:0px;word-spacing:0px;fill:#000000;fill-opacity:1;stroke:none;stroke-width:0.26458332"
     id="path7269"
     inkscape:connector-curvature="0" />
  <path
     d="m 137.66451,123.19811 q 0,0.19465 0.20843,0.28422 0.2067,0.0896 0.67007,0.0896 0.46164,0 0.67007,-0.0896 0.20671,-0.0896 0.20671,-0.28422 0,-0.19637 -0.20671,-0.28594 -0.20843,-0.0896 -0.67007,-0.0896 -0.46337,0 -0.67007,0.0896 -0.20843,0.0896 -0.20843,0.28594 z m 0.8785,0.90262 q -0.65973,0 -0.99735,-0.22738 -0.33762,-0.2291 -0.33762,-0.67524 0,-0.44786 0.33762,-0.67524 0.33762,-0.22909 0.99735,-0.22909 0.65802,0 0.99563,0.22909 0.33762,0.22738 0.33762,0.67524 0,0.44614 -0.33762,0.67524 -0.33761,0.22738 -0.99563,0.22738 z"
     style="font-style:normal;font-variant:normal;font-weight:bold;font-stretch:normal;font-size:13.33333302px;line-height:1.25;font-family:monospace;-inkscape-font-specification:'monospace Bold';letter-spacing:0px;word-spacing:0px;fill:#000000;fill-opacity:1;stroke:none;stroke-width:0.26458332"
     id="path7271"
     inkscape:connector-curvature="0" />
  <path
     d="m 137.81954,118.81595 1.01631,0.6494 v -0.6494 z m -0.565,0.0448 v -0.53227 h 1.58131 v -0.2825 h 0.4358 v 0.2825 h 0.55466 v 0.48748 h -0.55466 v 1.01975 H 138.779 Z"
     style="font-style:normal;font-variant:normal;font-weight:bold;font-stretch:normal;font-size:13.33333302px;line-height:1.25;font-family:monospace;-inkscape-font-specification:'monospace Bold';letter-spacing:0px;word-spacing:0px;fill:#000000;fill-opacity:1;stroke:none;stroke-width:0.26458332"
     id="path7273"
     inkscape:connector-curvature="0" />
  <path
     d="m 138.54301,117.04 q -0.0913,0 -0.15331,-0.062 -0.062,-0.062 -0.062,-0.15158 0,-0.0913 0.062,-0.15331 0.062,-0.062 0.15331,-0.062 0.0896,0 0.15158,0.062 0.062,0.062 0.062,0.15331 0,0.0896 -0.0603,0.15158 -0.062,0.062 -0.15331,0.062 z m -0.90434,-0.21359 q 0,0.1757 0.21532,0.25666 0.21532,0.081 0.68902,0.081 0.47198,0 0.6873,-0.081 0.21532,-0.081 0.21532,-0.25666 0,-0.17743 -0.21532,-0.25838 -0.21532,-0.081 -0.6873,-0.081 -0.4737,0 -0.68902,0.081 -0.21532,0.081 -0.21532,0.25838 z m 0.90434,0.84921 q -0.66835,0 -1.0008,-0.21187 -0.33417,-0.21187 -0.33417,-0.63734 0,-0.42719 0.33245,-0.63907 0.33245,-0.21187 1.00252,-0.21187 0.66835,0 1.0008,0.21187 0.33245,0.21188 0.33245,0.63907 0,0.42547 -0.33245,0.63734 -0.33417,0.21187 -1.0008,0.21187 z"
     style="font-style:normal;font-variant:normal;font-weight:bold;font-stretch:normal;font-size:13.33333302px;line-height:1.25;font-family:monospace;-inkscape-font-specification:'monospace Bold';letter-spacing:0px;word-spacing:0px;fill:#000000;fill-opacity:1;stroke:none;stroke-width:0.26458332"
     id="path7275"
     inkscape:connector-curvature="0" />
  <path
     d="m 137.25454,115.56206 v -0.50815 h 1.01631 l -1.01631,-0.79582 v -0.57533 l 1.01286,0.81132 1.55891,-0.8406 v 0.56499 l -1.15755,0.60978 0.28594,0.22566 h 0.87161 v 0.50815 z"
     style="font-style:normal;font-variant:normal;font-weight:bold;font-stretch:normal;font-size:13.33333302px;line-height:1.25;font-family:monospace;-inkscape-font-specification:'monospace Bold';letter-spacing:0px;word-spacing:0px;fill:#000000;fill-opacity:1;stroke:none;stroke-width:0.26458332"
     id="path7277"
     inkscape:connector-curvature="0" />
  <path
     d="m 138.69804,112.76119 q -0.14642,0.38413 -0.30661,0.52022 -0.16192,0.13608 -0.43409,0.13608 -0.34967,0 -0.54949,-0.22393 -0.19981,-0.22394 -0.19981,-0.61495 0,-0.17743 0.0413,-0.35485 0.0396,-0.17742 0.11885,-0.3514 h 0.4961 q -0.11541,0.16364 -0.1757,0.33245 -0.0603,0.16881 -0.0603,0.33418 0,0.18431 0.0741,0.2825 0.0741,0.0982 0.21187,0.0982 0.1068,0 0.17742,-0.0706 0.0689,-0.0723 0.15331,-0.29972 l 0.0827,-0.21876 q 0.11369,-0.31006 0.30145,-0.45648 0.18776,-0.14641 0.4737,-0.14641 0.3893,0 0.58222,0.23082 0.1912,0.2291 0.1912,0.69419 0,0.1912 -0.0465,0.38412 -0.0448,0.1912 -0.13437,0.37035 h -0.52537 q 0.14469,-0.20326 0.21532,-0.39274 0.0706,-0.1912 0.0706,-0.37724 0,-0.18775 -0.0844,-0.29111 -0.0861,-0.10335 -0.23944,-0.10335 -0.11541,0 -0.20154,0.0689 -0.0878,0.0689 -0.1378,0.19982 z"
     style="font-style:normal;font-variant:normal;font-weight:bold;font-stretch:normal;font-size:13.33333302px;line-height:1.25;font-family:monospace;-inkscape-font-specification:'monospace Bold';letter-spacing:0px;word-spacing:0px;fill:#000000;fill-opacity:1;stroke:none;stroke-width:0.26458332"
     id="path7279"
     inkscape:connector-curvature="0" />
  <path
     d="m 138.54301,110.6683 q -0.0913,0 -0.15331,-0.062 -0.062,-0.062 -0.062,-0.15159 0,-0.0913 0.062,-0.1533 0.062,-0.062 0.15331,-0.062 0.0896,0 0.15158,0.062 0.062,0.062 0.062,0.1533 0,0.0896 -0.0603,0.15159 -0.062,0.062 -0.15331,0.062 z m -0.90434,-0.2136 q 0,0.1757 0.21532,0.25666 0.21532,0.081 0.68902,0.081 0.47198,0 0.6873,-0.081 0.21532,-0.081 0.21532,-0.25666 0,-0.17742 -0.21532,-0.25838 -0.21532,-0.081 -0.6873,-0.081 -0.4737,0 -0.68902,0.081 -0.21532,0.081 -0.21532,0.25838 z m 0.90434,0.84922 q -0.66835,0 -1.0008,-0.21187 -0.33417,-0.21188 -0.33417,-0.63735 0,-0.42719 0.33245,-0.63906 0.33245,-0.21187 1.00252,-0.21187 0.66835,0 1.0008,0.21187 0.33245,0.21187 0.33245,0.63906 0,0.42547 -0.33245,0.63735 -0.33417,0.21187 -1.0008,0.21187 z"
     style="font-style:normal;font-variant:normal;font-weight:bold;font-stretch:normal;font-size:13.33333302px;line-height:1.25;font-family:monospace;-inkscape-font-specification:'monospace Bold';letter-spacing:0px;word-spacing:0px;fill:#000000;fill-opacity:1;stroke:none;stroke-width:0.26458332"
     id="path7281"
     inkscape:connector-curvature="0" />
  <path
     d="m 137.81954,108.19644 1.01631,0.6494 v -0.6494 z m -0.565,0.0448 v -0.53227 h 1.58131 v -0.2825 h 0.4358 v 0.2825 h 0.55466 v 0.48748 h -0.55466 v 1.01975 H 138.779 Z"
     style="font-style:normal;font-variant:normal;font-weight:bold;font-stretch:normal;font-size:13.33333302px;line-height:1.25;font-family:monospace;-inkscape-font-specification:'monospace Bold';letter-spacing:0px;word-spacing:0px;fill:#000000;fill-opacity:1;stroke:none;stroke-width:0.26458332"
     id="path7283"
     inkscape:connector-curvature="0" />
  <path
     d="m 137.68174,106.48079 h 0.75447 v -0.20843 q 0,-0.24977 -0.0844,-0.34968 -0.0844,-0.10163 -0.29283,-0.10163 -0.20843,0 -0.29284,0.10163 -0.0844,0.0999 -0.0844,0.34968 z m -0.4272,0.50815 v -0.69763 q 0,-0.53227 0.18949,-0.76482 0.18948,-0.23426 0.61495,-0.23426 0.42546,0 0.61495,0.23426 0.18947,0.23255 0.18947,0.76482 v 0.18948 h 0.96291 v 0.50815 z"
     style="font-style:normal;font-variant:normal;font-weight:bold;font-stretch:normal;font-size:13.33333302px;line-height:1.25;font-family:monospace;-inkscape-font-specification:'monospace Bold';letter-spacing:0px;word-spacing:0px;fill:#000000;fill-opacity:1;stroke:none;stroke-width:0.26458332"
     id="path7285"
     inkscape:connector-curvature="0" />
  <path
     d="m 137.25454,104.93911 v -0.54605 l 1.86897,-0.71658 h -1.86897 v -0.44786 h 2.57177 v 0.5426 l -1.86897,0.72002 h 1.86897 v 0.44787 z"
     style="font-style:normal;font-variant:normal;font-weight:bold;font-stretch:normal;font-size:13.33333302px;line-height:1.25;font-family:monospace;-inkscape-font-specification:'monospace Bold';letter-spacing:0px;word-spacing:0px;fill:#000000;fill-opacity:1;stroke:none;stroke-width:0.26458332"
     id="path7287"
     inkscape:connector-curvature="0" />
  <path
     d="m 138.56024,102.5017 v -1.08693 h 0.50126 v 1.08693 z"
     style="font-style:normal;font-variant:normal;font-weight:bold;font-stretch:normal;font-size:13.33333302px;line-height:1.25;font-family:monospace;-inkscape-font-specification:'monospace Bold';letter-spacing:0px;word-spacing:0px;fill:#000000;fill-opacity:1;stroke:none;stroke-width:0.26458332"
     id="path7289"
     inkscape:connector-curvature="0" />
  <path
     d="m 139.37845,100.57245 v -0.56844 h -1.66915 l 0.13091,0.52882 h -0.45819 l -0.12748,-0.53227 v -0.490917 h 2.12391 v -0.56844 h 0.44786 v 1.631247 z"
     style="font-style:normal;font-variant:normal;font-weight:bold;font-stretch:normal;font-size:13.33333302px;line-height:1.25;font-family:monospace;-inkscape-font-specification:'monospace Bold';letter-spacing:0px;word-spacing:0px;fill:#000000;fill-opacity:1;stroke:none;stroke-width:0.26458332"
     id="path7291"
     inkscape:connector-curvature="0" />
  <path
     d="m 127.80299,169.11337 -2.14802,-0.45303 v -0.5116 l 2.57177,0.6115 v 0.70453 l -2.57177,0.6115 v -0.5116 z"
     style="font-size:13.33333302px;-inkscape-font-specification:'monospace Bold';fill-opacity:1;letter-spacing:0px;word-spacing:0px;stroke:none;stroke-width:0.26458332;font-style:normal;fill:#00aeee;font-family:monospace;font-stretch:normal;font-variant:normal;font-weight:bold;line-height:1.25"
     id="path7265-0"
     transform="matrix(1.000000,0.000000,0.000000,1.000000,-64.963410,19.368957)" />
  <path
     d="m 128.22674,166.1592 v 1.60197 h -2.57177 v -1.60197 h 0.44787 v 1.09382 h 0.55466 v -0.99047 h 0.44786 v 0.99047 h 0.67352 v -1.09382 z"
     style="font-size:13.33333302px;-inkscape-font-specification:'monospace Bold';fill-opacity:1;letter-spacing:0px;word-spacing:0px;stroke:none;stroke-width:0.26458332;font-style:normal;fill:#00aeee;font-family:monospace;font-stretch:normal;font-variant:normal;font-weight:bold;line-height:1.25"
     id="path7267-3"
     transform="matrix(1.000000,0.000000,0.000000,1.000000,-64.963410,19.368957)" />
  <path
     d="m 128.15267,164.06458 q 0.062,0.12058 0.093,0.25321 0.031,0.13264 0.031,0.27905 0,0.52022 -0.34278,0.7941 -0.34279,0.27388 -0.99047,0.27388 -0.6494,0 -0.99219,-0.27388 -0.34278,-0.27388 -0.34278,-0.7941 0,-0.14641 0.031,-0.28077 0.031,-0.13436 0.093,-0.25149 h 0.565 q -0.12058,0.13091 -0.1757,0.25494 -0.0568,0.1223 -0.0568,0.25321 0,0.27905 0.22221,0.42202 0.22049,0.14125 0.65629,0.14125 0.43408,0 0.65629,-0.14125 0.22049,-0.14297 0.22049,-0.42202 0,-0.13091 -0.0551,-0.25321 -0.0568,-0.12403 -0.17743,-0.25494 z"
     style="font-size:13.33333302px;-inkscape-font-specification:'monospace Bold';fill-opacity:1;letter-spacing:0px;word-spacing:0px;stroke:none;stroke-width:0.26458332;font-style:normal;fill:#00aeee;font-family:monospace;font-stretch:normal;font-variant:normal;font-weight:bold;line-height:1.25"
     id="path7269-6"
     transform="matrix(1.000000,0.000000,0.000000,1.000000,-64.963410,19.368957)" />
  <path
     d="m 126.06494,162.74166 q 0,0.19465 0.20843,0.28422 0.2067,0.0896 0.67007,0.0896 0.46164,0 0.67007,-0.0896 0.20671,-0.0896 0.20671,-0.28422 0,-0.19637 -0.20671,-0.28594 -0.20843,-0.0896 -0.67007,-0.0896 -0.46337,0 -0.67007,0.0896 -0.20843,0.0896 -0.20843,0.28594 z m 0.8785,0.90262 q -0.65973,0 -0.99735,-0.22738 -0.33762,-0.2291 -0.33762,-0.67524 0,-0.44786 0.33762,-0.67524 0.33762,-0.22909 0.99735,-0.22909 0.65802,0 0.99563,0.22909 0.33762,0.22738 0.33762,0.67524 0,0.44614 -0.33762,0.67524 -0.33761,0.22738 -0.99563,0.22738 z"
     style="font-size:13.33333302px;-inkscape-font-specification:'monospace Bold';fill-opacity:1;letter-spacing:0px;word-spacing:0px;stroke:none;stroke-width:0.26458332;font-style:normal;fill:#00aeee;font-family:monospace;font-stretch:normal;font-variant:normal;font-weight:bold;line-height:1.25"
     id="path7271-1"
     transform="matrix(1.000000,0.000000,0.000000,1.000000,-64.963410,19.368957)" />
  <path
     d="m 126.21997,158.3595 1.01631,0.6494 v -0.6494 z m -0.565,0.0448 v -0.53227 h 1.58131 v -0.2825 h 0.4358 v 0.2825 h 0.55466 v 0.48748 h -0.55466 v 1.01975 h -0.49265 z"
     style="font-size:13.33333302px;-inkscape-font-specification:'monospace Bold';fill-opacity:1;letter-spacing:0px;word-spacing:0px;stroke:none;stroke-width:0.26458332;font-style:normal;fill:#00aeee;font-family:monospace;font-stretch:normal;font-variant:normal;font-weight:bold;line-height:1.25"
     id="path7273-0"
     transform="matrix(1.000000,0.000000,0.000000,1.000000,-64.963410,19.368957)" />
  <path
     d="m 126.94344,156.58355 q -0.0913,0 -0.15331,-0.062 -0.062,-0.062 -0.062,-0.15158 0,-0.0913 0.062,-0.15331 0.062,-0.062 0.15331,-0.062 0.0896,0 0.15158,0.062 0.062,0.062 0.062,0.15331 0,0.0896 -0.0603,0.15158 -0.062,0.062 -0.15331,0.062 z m -0.90434,-0.21359 q 0,0.1757 0.21532,0.25666 0.21532,0.081 0.68902,0.081 0.47198,0 0.6873,-0.081 0.21532,-0.081 0.21532,-0.25666 0,-0.17743 -0.21532,-0.25838 -0.21532,-0.081 -0.6873,-0.081 -0.4737,0 -0.68902,0.081 -0.21532,0.081 -0.21532,0.25838 z m 0.90434,0.84921 q -0.66835,0 -1.0008,-0.21187 -0.33417,-0.21187 -0.33417,-0.63734 0,-0.42719 0.33245,-0.63907 0.33245,-0.21187 1.00252,-0.21187 0.66835,0 1.0008,0.21187 0.33245,0.21188 0.33245,0.63907 0,0.42547 -0.33245,0.63734 -0.33417,0.21187 -1.0008,0.21187 z"
     style="font-size:13.33333302px;-inkscape-font-specification:'monospace Bold';fill-opacity:1;letter-spacing:0px;word-spacing:0px;stroke:none;stroke-width:0.26458332;font-style:normal;fill:#00aeee;font-family:monospace;font-stretch:normal;font-variant:normal;font-weight:bold;line-height:1.25"
     id="path7275-6"
     transform="matrix(1.000000,0.000000,0.000000,1.000000,-64.963410,19.368957)" />
  <path
     d="m 125.65497,155.10561 v -0.50815 h 1.01631 l -1.01631,-0.79582 v -0.57533 l 1.01286,0.81132 1.55891,-0.8406 v 0.56499 l -1.15755,0.60978 0.28594,0.22566 h 0.87161 v 0.50815 z"
     style="font-size:13.33333302px;-inkscape-font-specification:'monospace Bold';fill-opacity:1;letter-spacing:0px;word-spacing:0px;stroke:none;stroke-width:0.26458332;font-style:normal;fill:#00aeee;font-family:monospace;font-stretch:normal;font-variant:normal;font-weight:bold;line-height:1.25"
     id="path7277-3"
     transform="matrix(1.000000,0.000000,0.000000,1.000000,-64.963410,19.368957)" />
  <path
     d="m 127.09847,152.30474 q -0.14642,0.38413 -0.30661,0.52022 -0.16192,0.13608 -0.43409,0.13608 -0.34967,0 -0.54949,-0.22393 -0.19981,-0.22394 -0.19981,-0.61495 0,-0.17743 0.0413,-0.35485 0.0396,-0.17742 0.11885,-0.3514 h 0.4961 q -0.11541,0.16364 -0.1757,0.33245 -0.0603,0.16881 -0.0603,0.33418 0,0.18431 0.0741,0.2825 0.0741,0.0982 0.21187,0.0982 0.1068,0 0.17742,-0.0706 0.0689,-0.0723 0.15331,-0.29972 l 0.0827,-0.21876 q 0.11369,-0.31006 0.30145,-0.45648 0.18776,-0.14641 0.4737,-0.14641 0.3893,0 0.58222,0.23082 0.1912,0.2291 0.1912,0.69419 0,0.1912 -0.0465,0.38412 -0.0448,0.1912 -0.13437,0.37035 h -0.52537 q 0.14469,-0.20326 0.21532,-0.39274 0.0706,-0.1912 0.0706,-0.37724 0,-0.18775 -0.0844,-0.29111 -0.0861,-0.10335 -0.23944,-0.10335 -0.11541,0 -0.20154,0.0689 -0.0878,0.0689 -0.1378,0.19982 z"
     style="font-size:13.33333302px;-inkscape-font-specification:'monospace Bold';fill-opacity:1;letter-spacing:0px;word-spacing:0px;stroke:none;stroke-width:0.26458332;font-style:normal;fill:#00aeee;font-family:monospace;font-stretch:normal;font-variant:normal;font-weight:bold;line-height:1.25"
     id="path7279-2"
     transform="matrix(1.000000,0.000000,0.000000,1.000000,-64.963410,19.368957)" />
  <path
     d="m 126.94344,150.21185 q -0.0913,0 -0.15331,-0.062 -0.062,-0.062 -0.062,-0.15159 0,-0.0913 0.062,-0.1533 0.062,-0.062 0.15331,-0.062 0.0896,0 0.15158,0.062 0.062,0.062 0.062,0.1533 0,0.0896 -0.0603,0.15159 -0.062,0.062 -0.15331,0.062 z m -0.90434,-0.2136 q 0,0.1757 0.21532,0.25666 0.21532,0.081 0.68902,0.081 0.47198,0 0.6873,-0.081 0.21532,-0.081 0.21532,-0.25666 0,-0.17742 -0.21532,-0.25838 -0.21532,-0.081 -0.6873,-0.081 -0.4737,0 -0.68902,0.081 -0.21532,0.081 -0.21532,0.25838 z m 0.90434,0.84922 q -0.66835,0 -1.0008,-0.21187 -0.33417,-0.21188 -0.33417,-0.63735 0,-0.42719 0.33245,-0.63906 0.33245,-0.21187 1.00252,-0.21187 0.66835,0 1.0008,0.21187 0.33245,0.21187 0.33245,0.63906 0,0.42547 -0.33245,0.63735 -0.33417,0.21187 -1.0008,0.21187 z"
     style="font-size:13.33333302px;-inkscape-font-specification:'monospace Bold';fill-opacity:1;letter-spacing:0px;word-spacing:0px;stroke:none;stroke-width:0.26458332;font-style:normal;fill:#00aeee;font-family:monospace;font-stretch:normal;font-variant:normal;font-weight:bold;line-height:1.25"
     id="path7281-0"
     transform="matrix(1.000000,0.000000,0.000000,1.000000,-64.963410,19.368957)" />
  <path
     d="m 126.21997,147.73999 1.01631,0.6494 v -0.6494 z m -0.565,0.0448 v -0.53227 h 1.58131 v -0.2825 h 0.4358 v 0.2825 h 0.55466 V 147.74 h -0.55466 v 1.01975 h -0.49265 z"
     style="font-size:13.33333302px;-inkscape-font-specification:'monospace Bold';fill-opacity:1;letter-spacing:0px;word-spacing:0px;stroke:none;stroke-width:0.26458332;font-style:normal;fill:#00aeee;font-family:monospace;font-stretch:normal;font-variant:normal;font-weight:bold;line-height:1.25"
     id="path7283-6"
     transform="matrix(1.000000,0.000000,0.000000,1.000000,-64.963410,19.368957)" />
  <path
     d="m 126.08217,146.02434 h 0.75447 v -0.20843 q 0,-0.24977 -0.0844,-0.34968 -0.0844,-0.10163 -0.29283,-0.10163 -0.20843,0 -0.29284,0.10163 -0.0844,0.0999 -0.0844,0.34968 z m -0.4272,0.50815 v -0.69763 q 0,-0.53227 0.18949,-0.76482 0.18948,-0.23426 0.61495,-0.23426 0.42546,0 0.61495,0.23426 0.18947,0.23255 0.18947,0.76482 v 0.18948 h 0.96291 v 0.50815 z"
     style="font-size:13.33333302px;-inkscape-font-specification:'monospace Bold';fill-opacity:1;letter-spacing:0px;word-spacing:0px;stroke:none;stroke-width:0.26458332;font-style:normal;fill:#00aeee;font-family:monospace;font-stretch:normal;font-variant:normal;font-weight:bold;line-height:1.25"
     id="path7285-1"
     transform="matrix(1.000000,0.000000,0.000000,1.000000,-64.963410,19.368957)" />
  <path
     d="m 125.65497,144.48266 v -0.54605 l 1.86897,-0.71658 h -1.86897 v -0.44786 h 2.57177 v 0.5426 l -1.86897,0.72002 h 1.86897 v 0.44787 z"
     style="font-size:13.33333302px;-inkscape-font-specification:'monospace Bold';fill-opacity:1;letter-spacing:0px;word-spacing:0px;stroke:none;stroke-width:0.26458332;font-style:normal;fill:#00aeee;font-family:monospace;font-stretch:normal;font-variant:normal;font-weight:bold;line-height:1.25"
     id="path7287-5"
     transform="matrix(1.000000,0.000000,0.000000,1.000000,-64.963410,19.368957)" />
  <path
     d="m 126.96067,142.04525 v -1.08693 h 0.50126 v 1.08693 z"
     style="font-size:13.33333302px;-inkscape-font-specification:'monospace Bold';fill-opacity:1;letter-spacing:0px;word-spacing:0px;stroke:none;stroke-width:0.26458332;font-style:normal;fill:#00aeee;font-family:monospace;font-stretch:normal;font-variant:normal;font-weight:bold;line-height:1.25"
     id="path7289-5"
     transform="matrix(1.000000,0.000000,0.000000,1.000000,-64.963410,19.368957)" />
  <path
     d="m 127.77888,140.116 v -0.56844 h -1.66915 l 0.13091,0.52882 h -0.45819 l -0.12748,-0.53227 v -0.49092 h 2.12391 v -0.56844 h 0.44786 v 1.63125 z"
     style="font-size:13.33333302px;-inkscape-font-specification:'monospace Bold';fill-opacity:1;letter-spacing:0px;word-spacing:0px;stroke:none;stroke-width:0.26458332;font-style:normal;fill:#00aeee;font-family:monospace;font-stretch:normal;font-variant:normal;font-weight:bold;line-height:1.25"
     id="path7291-4"
     transform="matrix(1.000000,0.000000,0.000000,1.000000,-64.963410,19.368957)" />
  <path
     inkscape:connector-curvature="0"
     id="path856"
     style="font-style:normal;font-variant:normal;font-weight:bold;font-stretch:normal;font-size:13.3333px;line-height:125%;font-family:monospace;-inkscape-font-specification:'monospace Bold';letter-spacing:0px;word-spacing:0px;fill:#ffcc00;fill-opacity:1;stroke:none;stroke-width:0.264583px;stroke-linecap:butt;stroke-linejoin:miter;stroke-opacity:1"
     d="m 84.032769,88.268859 v 0.754476 h 0.208429 q 0.249769,0 0.349677,-0.08441 0.10163,-0.0844 0.10163,-0.292833 0,-0.208428 -0.10163,-0.292833 -0.09991,-0.08441 -0.349677,-0.08441 z m -0.508151,-0.427193 h 0.697632 q 0.532267,0 0.764811,0.189481 0.234266,0.189479 0.234266,0.61495 0,0.425469 -0.234266,0.61495 -0.232544,0.189479 -0.764811,0.189479 h -0.189481 v 0.962903 h -0.508151 z" />
  <path
     inkscape:connector-curvature="0"
     id="path858"
     style="font-style:normal;font-variant:normal;font-weight:bold;font-stretch:normal;font-size:13.3333px;line-height:125%;font-family:monospace;-inkscape-font-specification:'monospace Bold';letter-spacing:0px;word-spacing:0px;fill:#ffcc00;fill-opacity:1;stroke:none;stroke-width:0.264583px;stroke-linecap:butt;stroke-linejoin:miter;stroke-opacity:1"
     d="m 86.564915,88.406662 -0.649401,1.016302 h 0.649401 z m -0.04479,-0.564996 h 0.532268 v 1.581298 h 0.282497 v 0.435806 h -0.282497 v 0.554659 H 86.564912 V 89.85877 h -1.019749 v -0.492649 z" />
  <path
     inkscape:connector-curvature="0"
     id="path860"
     style="font-style:normal;font-variant:normal;font-weight:bold;font-stretch:normal;font-size:13.3333px;line-height:125%;font-family:monospace;-inkscape-font-specification:'monospace Bold';letter-spacing:0px;word-spacing:0px;fill:#ffcc00;fill-opacity:1;stroke:none;stroke-width:0.264583px;stroke-linecap:butt;stroke-linejoin:miter;stroke-opacity:1"
     d="m 84.306655,94.399406 0.45303,-2.148017 h 0.511596 l -0.611504,2.571766 H 83.955255 L 83.34375,92.251389 h 0.511597 z" />
  <path
     inkscape:connector-curvature="0"
     id="path862"
     style="font-style:normal;font-variant:normal;font-weight:bold;font-stretch:normal;font-size:13.3333px;line-height:125%;font-family:monospace;-inkscape-font-specification:'monospace Bold';letter-spacing:0px;word-spacing:0px;fill:#ffcc00;fill-opacity:1;stroke:none;stroke-width:0.264583px;stroke-linecap:butt;stroke-linejoin:miter;stroke-opacity:1"
     d="m 85.693305,94.375292 h 0.568441 v -1.669151 l -0.528822,0.130916 v -0.4582 l 0.532267,-0.127468 h 0.490926 v 2.123903 h 0.568441 v 0.447863 h -1.631253 z" />
</svg>
